<?xml version="1.0" encoding="UTF-8" standalone="no"?>
<!DOCTYPE svg PUBLIC "-//W3C//DTD SVG 1.1//EN"
 "http://www.w3.org/Graphics/SVG/1.1/DTD/svg11.dtd">
<!-- Generated by graphviz version 14.1.1 (20251213.1925)
 -->
<!-- Title: /Users/ghostface/CLionProjects/Ctorch_2.13/CTorch/src/dev/AutoDiff.h Pages: 1 -->
<svg width="1503pt" height="283pt"
 viewBox="0.00 0.00 1503.00 283.00" xmlns="http://www.w3.org/2000/svg" xmlns:xlink="http://www.w3.org/1999/xlink">
<g id="graph0" class="graph" transform="scale(1 1) rotate(0) translate(4 279)">
<title>/Users/ghostface/CLionProjects/Ctorch_2.13/CTorch/src/dev/AutoDiff.h</title>
<!-- Node1 -->
<g id="Node000001" class="node">
<title>Node1</title>
<g id="a_Node000001"><a xlink:title="Ctorch 自动微分系统">
<polygon fill="#999999" stroke="#666666" points="893.5,-275 738,-275 738,-233.25 893.5,-233.25 893.5,-275"/>
<text xml:space="preserve" text-anchor="start" x="746" y="-261.5" font-family="Helvetica,sans-Serif" font-size="10.00">/Users/ghostface/CLionProjects</text>
<text xml:space="preserve" text-anchor="start" x="746" y="-250.25" font-family="Helvetica,sans-Serif" font-size="10.00">/Ctorch_2.13/CTorch/src/dev</text>
<text xml:space="preserve" text-anchor="middle" x="815.75" y="-239" font-family="Helvetica,sans-Serif" font-size="10.00">/AutoDiff.h</text>
</a>
</g>
</g>
<!-- Node2 -->
<g id="Node000002" class="node">
<title>Node2</title>
<g id="a_Node000002"><a xlink:href="_auto_diff_8cpp.html" target="_top" xlink:title="Ctorch 自动微分系统实现">
<polygon fill="white" stroke="#666666" points="155.5,-119.5 0,-119.5 0,-77.75 155.5,-77.75 155.5,-119.5"/>
<text xml:space="preserve" text-anchor="start" x="8" y="-106" font-family="Helvetica,sans-Serif" font-size="10.00">/Users/ghostface/CLionProjects</text>
<text xml:space="preserve" text-anchor="start" x="8" y="-94.75" font-family="Helvetica,sans-Serif" font-size="10.00">/Ctorch_2.13/CTorch/src/dev</text>
<text xml:space="preserve" text-anchor="middle" x="77.75" y="-83.5" font-family="Helvetica,sans-Serif" font-size="10.00">/AutoDiff.cpp</text>
</a>
</g>
</g>
<!-- Node1&#45;&gt;Node2 -->
<g id="edge1_Node000001_Node000002" class="edge">
<title>Node1&#45;&gt;Node2</title>
<g id="a_edge1_Node000001_Node000002"><a xlink:title=" ">
<path fill="none" stroke="#63b8ff" d="M726.72,-234.61C581.04,-204.31 294.13,-144.63 155.87,-115.87"/>
<polygon fill="#63b8ff" stroke="#63b8ff" points="725.83,-238 736.34,-236.61 727.26,-231.14 725.83,-238"/>
</a>
</g>
</g>
<!-- Node3 -->
<g id="Node000003" class="node">
<title>Node3</title>
<g id="a_Node000003"><a xlink:href="_tensor_8h.html" target="_top" xlink:title="张量类和相关操作的定义">
<polygon fill="white" stroke="#666666" points="840.5,-197.25 685,-197.25 685,-155.5 840.5,-155.5 840.5,-197.25"/>
<text xml:space="preserve" text-anchor="start" x="693" y="-183.75" font-family="Helvetica,sans-Serif" font-size="10.00">/Users/ghostface/CLionProjects</text>
<text xml:space="preserve" text-anchor="start" x="693" y="-172.5" font-family="Helvetica,sans-Serif" font-size="10.00">/Ctorch_2.13/CTorch/src/dev</text>
<text xml:space="preserve" text-anchor="middle" x="762.75" y="-161.25" font-family="Helvetica,sans-Serif" font-size="10.00">/Tensor.h</text>
</a>
</g>
</g>
<!-- Node1&#45;&gt;Node3 -->
<g id="edge2_Node000001_Node000003" class="edge">
<title>Node1&#45;&gt;Node3</title>
<g id="a_edge2_Node000001_Node000003"><a xlink:title=" ">
<path fill="none" stroke="#63b8ff" d="M794.99,-223.45C788.96,-214.84 782.52,-205.63 776.99,-197.73"/>
<polygon fill="#63b8ff" stroke="#63b8ff" points="792.08,-225.4 800.68,-231.59 797.81,-221.39 792.08,-225.4"/>
</a>
</g>
</g>
<!-- Node11 -->
<g id="Node000011" class="node">
<title>Node11</title>
<g id="a_Node000011"><a xlink:href="test__autodiff__comprehensive_8cpp.html" target="_top" xlink:title=" ">
<polygon fill="white" stroke="#666666" points="1321.25,-119.5 1158.25,-119.5 1158.25,-77.75 1321.25,-77.75 1321.25,-119.5"/>
<text xml:space="preserve" text-anchor="start" x="1166.25" y="-106" font-family="Helvetica,sans-Serif" font-size="10.00">/Users/ghostface/CLionProjects</text>
<text xml:space="preserve" text-anchor="start" x="1166.25" y="-94.75" font-family="Helvetica,sans-Serif" font-size="10.00">/Ctorch_2.13/CTorch/src/dev</text>
<text xml:space="preserve" text-anchor="middle" x="1239.75" y="-83.5" font-family="Helvetica,sans-Serif" font-size="10.00">/test_autodiff_comprehensive.cpp</text>
</a>
</g>
</g>
<!-- Node1&#45;&gt;Node11 -->
<g id="edge17_Node000001_Node000011" class="edge">
<title>Node1&#45;&gt;Node11</title>
<g id="a_edge17_Node000001_Node000011"><a xlink:title=" ">
<path fill="none" stroke="#63b8ff" d="M882.2,-229.07C965.25,-199 1105.92,-148.07 1183.76,-119.9"/>
<polygon fill="#63b8ff" stroke="#63b8ff" points="881.25,-225.69 873.04,-232.38 883.63,-232.27 881.25,-225.69"/>
</a>
</g>
</g>
<!-- Node12 -->
<g id="Node000012" class="node">
<title>Node12</title>
<g id="a_Node000012"><a xlink:href="test__linear__regression_8cpp.html" target="_top" xlink:title=" ">
<polygon fill="white" stroke="#666666" points="1494.5,-119.5 1339,-119.5 1339,-77.75 1494.5,-77.75 1494.5,-119.5"/>
<text xml:space="preserve" text-anchor="start" x="1347" y="-106" font-family="Helvetica,sans-Serif" font-size="10.00">/Users/ghostface/CLionProjects</text>
<text xml:space="preserve" text-anchor="start" x="1347" y="-94.75" font-family="Helvetica,sans-Serif" font-size="10.00">/Ctorch_2.13/CTorch/src/dev</text>
<text xml:space="preserve" text-anchor="middle" x="1416.75" y="-83.5" font-family="Helvetica,sans-Serif" font-size="10.00">/test_linear_regression.cpp</text>
</a>
</g>
</g>
<!-- Node1&#45;&gt;Node12 -->
<g id="edge18_Node000001_Node000012" class="edge">
<title>Node1&#45;&gt;Node12</title>
<g id="a_edge18_Node000001_Node000012"><a xlink:title=" ">
<path fill="none" stroke="#63b8ff" d="M904.93,-231.34C946.54,-221.11 996.71,-208.68 1041.75,-197.25 1145.1,-171.02 1264.23,-139.85 1339.97,-119.91"/>
<polygon fill="#63b8ff" stroke="#63b8ff" points="904.34,-227.89 895.46,-233.67 906.01,-234.68 904.34,-227.89"/>
</a>
</g>
</g>
<!-- Node3&#45;&gt;Node2 -->
<g id="edge3_Node000003_Node000002" class="edge">
<title>Node3&#45;&gt;Node2</title>
<g id="a_edge3_Node000003_Node000002"><a xlink:title=" ">
<path fill="none" stroke="#63b8ff" d="M673.36,-170.27C556.93,-162.87 347.28,-146.94 169.75,-119.5 165.23,-118.8 160.6,-118.02 155.93,-117.18"/>
<polygon fill="#63b8ff" stroke="#63b8ff" points="672.97,-173.75 683.17,-170.89 673.41,-166.77 672.97,-173.75"/>
</a>
</g>
</g>
<!-- Node4 -->
<g id="Node000004" class="node">
<title>Node4</title>
<g id="a_Node000004"><a xlink:href="_ctorch___scheduler_8h.html" target="_top" xlink:title="Ctorch 框架的核心调度器类">
<polygon fill="white" stroke="#666666" points="405.5,-119.5 250,-119.5 250,-77.75 405.5,-77.75 405.5,-119.5"/>
<text xml:space="preserve" text-anchor="start" x="258" y="-106" font-family="Helvetica,sans-Serif" font-size="10.00">/Users/ghostface/CLionProjects</text>
<text xml:space="preserve" text-anchor="start" x="258" y="-94.75" font-family="Helvetica,sans-Serif" font-size="10.00">/Ctorch_2.13/CTorch/src/dev</text>
<text xml:space="preserve" text-anchor="middle" x="327.75" y="-83.5" font-family="Helvetica,sans-Serif" font-size="10.00">/Ctorch_Scheduler.h</text>
</a>
</g>
</g>
<!-- Node3&#45;&gt;Node4 -->
<g id="edge4_Node000003_Node000004" class="edge">
<title>Node3&#45;&gt;Node4</title>
<g id="a_edge4_Node000003_Node000004"><a xlink:title=" ">
<path fill="none" stroke="#63b8ff" d="M673.7,-162.72C603.23,-152.3 502.41,-136.53 414.75,-119.5 411.86,-118.94 408.92,-118.35 405.95,-117.74"/>
<polygon fill="#63b8ff" stroke="#63b8ff" points="672.85,-166.13 683.25,-164.12 673.87,-159.2 672.85,-166.13"/>
</a>
</g>
</g>
<!-- Node5 -->
<g id="Node000005" class="node">
<title>Node5</title>
<g id="a_Node000005"><a xlink:href="_tensor_8cpp.html" target="_top" xlink:title="张量类的实现">
<polygon fill="white" stroke="#666666" points="908.5,-41.75 753,-41.75 753,0 908.5,0 908.5,-41.75"/>
<text xml:space="preserve" text-anchor="start" x="761" y="-28.25" font-family="Helvetica,sans-Serif" font-size="10.00">/Users/ghostface/CLionProjects</text>
<text xml:space="preserve" text-anchor="start" x="761" y="-17" font-family="Helvetica,sans-Serif" font-size="10.00">/Ctorch_2.13/CTorch/src/dev</text>
<text xml:space="preserve" text-anchor="middle" x="830.75" y="-5.75" font-family="Helvetica,sans-Serif" font-size="10.00">/Tensor.cpp</text>
</a>
</g>
</g>
<!-- Node3&#45;&gt;Node5 -->
<g id="edge8_Node000003_Node000005" class="edge">
<title>Node3&#45;&gt;Node5</title>
<g id="a_edge8_Node000003_Node000005"><a xlink:title=" ">
<path fill="none" stroke="#63b8ff" d="M852.01,-173.74C943.9,-169.94 1078.13,-157.78 1110.75,-119.5 1170.36,-49.56 1010.71,-29.69 908.59,-24.07"/>
<polygon fill="#63b8ff" stroke="#63b8ff" points="852.11,-170.23 842.26,-174.11 852.38,-177.22 852.11,-170.23"/>
</a>
</g>
</g>
<!-- Node6 -->
<g id="Node000006" class="node">
<title>Node6</title>
<g id="a_Node000006"><a xlink:href="large__scale__test_8cpp.html" target="_top" xlink:title="大规模Tensor计算测试和20个节点的自动微分测试">
<polygon fill="white" stroke="#666666" points="246.5,-41.75 91,-41.75 91,0 246.5,0 246.5,-41.75"/>
<text xml:space="preserve" text-anchor="start" x="99" y="-28.25" font-family="Helvetica,sans-Serif" font-size="10.00">/Users/ghostface/CLionProjects</text>
<text xml:space="preserve" text-anchor="start" x="99" y="-17" font-family="Helvetica,sans-Serif" font-size="10.00">/Ctorch_2.13/CTorch/src/dev</text>
<text xml:space="preserve" text-anchor="middle" x="168.75" y="-5.75" font-family="Helvetica,sans-Serif" font-size="10.00">/large_scale_test.cpp</text>
</a>
</g>
</g>
<!-- Node3&#45;&gt;Node6 -->
<g id="edge9_Node000003_Node000006" class="edge">
<title>Node3&#45;&gt;Node6</title>
<g id="a_edge9_Node000003_Node000006"><a xlink:title=" ">
<path fill="none" stroke="#63b8ff" d="M673.23,-170.32C530.95,-161.64 265.45,-142.61 228.75,-119.5 200.47,-101.69 183.47,-65.21 175.12,-42.24"/>
<polygon fill="#63b8ff" stroke="#63b8ff" points="672.81,-173.8 683,-170.91 673.23,-166.81 672.81,-173.8"/>
</a>
</g>
</g>
<!-- Node7 -->
<g id="Node000007" class="node">
<title>Node7</title>
<g id="a_Node000007"><a xlink:href="main_8cpp.html" target="_top" xlink:title=" ">
<polygon fill="white" stroke="#666666" points="420.5,-41.75 265,-41.75 265,0 420.5,0 420.5,-41.75"/>
<text xml:space="preserve" text-anchor="start" x="273" y="-28.25" font-family="Helvetica,sans-Serif" font-size="10.00">/Users/ghostface/CLionProjects</text>
<text xml:space="preserve" text-anchor="start" x="273" y="-17" font-family="Helvetica,sans-Serif" font-size="10.00">/Ctorch_2.13/CTorch/src/dev</text>
<text xml:space="preserve" text-anchor="middle" x="342.75" y="-5.75" font-family="Helvetica,sans-Serif" font-size="10.00">/main.cpp</text>
</a>
</g>
</g>
<!-- Node3&#45;&gt;Node7 -->
<g id="edge10_Node000003_Node000007" class="edge">
<title>Node3&#45;&gt;Node7</title>
<g id="a_edge10_Node000003_Node000007"><a xlink:title=" ">
<path fill="none" stroke="#63b8ff" d="M673.67,-168.93C528.39,-157.97 255.03,-135.39 240.75,-119.5 228.35,-105.7 231.29,-93.71 240.75,-77.75 250.01,-62.12 265.37,-50.57 281.39,-42.17"/>
<polygon fill="#63b8ff" stroke="#63b8ff" points="673.02,-172.39 683.25,-169.64 673.54,-165.41 673.02,-172.39"/>
</a>
</g>
</g>
<!-- Node8 -->
<g id="Node000008" class="node">
<title>Node8</title>
<g id="a_Node000008"><a xlink:href="performance__test_8cpp.html" target="_top" xlink:title=" ">
<polygon fill="white" stroke="#666666" points="579.5,-119.5 424,-119.5 424,-77.75 579.5,-77.75 579.5,-119.5"/>
<text xml:space="preserve" text-anchor="start" x="432" y="-106" font-family="Helvetica,sans-Serif" font-size="10.00">/Users/ghostface/CLionProjects</text>
<text xml:space="preserve" text-anchor="start" x="432" y="-94.75" font-family="Helvetica,sans-Serif" font-size="10.00">/Ctorch_2.13/CTorch/src/dev</text>
<text xml:space="preserve" text-anchor="middle" x="501.75" y="-83.5" font-family="Helvetica,sans-Serif" font-size="10.00">/performance_test.cpp</text>
</a>
</g>
</g>
<!-- Node3&#45;&gt;Node8 -->
<g id="edge11_Node000003_Node000008" class="edge">
<title>Node3&#45;&gt;Node8</title>
<g id="a_edge11_Node000003_Node000008"><a xlink:title=" ">
<path fill="none" stroke="#63b8ff" d="M682.06,-151.96C646.81,-141.73 605.85,-129.84 571.89,-119.98"/>
<polygon fill="#63b8ff" stroke="#63b8ff" points="680.77,-155.23 691.35,-154.65 682.73,-148.5 680.77,-155.23"/>
</a>
</g>
</g>
<!-- Node9 -->
<g id="Node000009" class="node">
<title>Node9</title>
<g id="a_Node000009"><a xlink:href="test_8cpp.html" target="_top" xlink:title=" ">
<polygon fill="white" stroke="#666666" points="753.5,-119.5 598,-119.5 598,-77.75 753.5,-77.75 753.5,-119.5"/>
<text xml:space="preserve" text-anchor="start" x="606" y="-106" font-family="Helvetica,sans-Serif" font-size="10.00">/Users/ghostface/CLionProjects</text>
<text xml:space="preserve" text-anchor="start" x="606" y="-94.75" font-family="Helvetica,sans-Serif" font-size="10.00">/Ctorch_2.13/CTorch/src/dev</text>
<text xml:space="preserve" text-anchor="middle" x="675.75" y="-83.5" font-family="Helvetica,sans-Serif" font-size="10.00">/test.cpp</text>
</a>
</g>
</g>
<!-- Node3&#45;&gt;Node9 -->
<g id="edge12_Node000003_Node000009" class="edge">
<title>Node3&#45;&gt;Node9</title>
<g id="a_edge12_Node000003_Node000009"><a xlink:title=" ">
<path fill="none" stroke="#63b8ff" d="M730.89,-147.64C720.38,-138.48 708.89,-128.48 699.13,-119.98"/>
<polygon fill="#63b8ff" stroke="#63b8ff" points="728.45,-150.15 738.29,-154.08 733.05,-144.88 728.45,-150.15"/>
</a>
</g>
</g>
<!-- Node10 -->
<g id="Node000010" class="node">
<title>Node10</title>
<g id="a_Node000010"><a xlink:href="test__activation__loss_8cpp.html" target="_top" xlink:title="测试激活函数和损失函数">
<polygon fill="white" stroke="#666666" points="927.5,-119.5 772,-119.5 772,-77.75 927.5,-77.75 927.5,-119.5"/>
<text xml:space="preserve" text-anchor="start" x="780" y="-106" font-family="Helvetica,sans-Serif" font-size="10.00">/Users/ghostface/CLionProjects</text>
<text xml:space="preserve" text-anchor="start" x="780" y="-94.75" font-family="Helvetica,sans-Serif" font-size="10.00">/Ctorch_2.13/CTorch/src/dev</text>
<text xml:space="preserve" text-anchor="middle" x="849.75" y="-83.5" font-family="Helvetica,sans-Serif" font-size="10.00">/test_activation_loss.cpp</text>
</a>
</g>
</g>
<!-- Node3&#45;&gt;Node10 -->
<g id="edge13_Node000003_Node000010" class="edge">
<title>Node3&#45;&gt;Node10</title>
<g id="a_edge13_Node000003_Node000010"><a xlink:title=" ">
<path fill="none" stroke="#63b8ff" d="M794.61,-147.64C805.12,-138.48 816.61,-128.48 826.37,-119.98"/>
<polygon fill="#63b8ff" stroke="#63b8ff" points="792.45,-144.88 787.21,-154.08 797.05,-150.15 792.45,-144.88"/>
</a>
</g>
</g>
<!-- Node3&#45;&gt;Node11 -->
<g id="edge14_Node000003_Node000011" class="edge">
<title>Node3&#45;&gt;Node11</title>
<g id="a_edge14_Node000003_Node000011"><a xlink:title=" ">
<path fill="none" stroke="#63b8ff" d="M851.81,-163.81C929.18,-153.41 1044.14,-137.1 1143.75,-119.5 1148.36,-118.69 1153.09,-117.82 1157.85,-116.91"/>
<polygon fill="#63b8ff" stroke="#63b8ff" points="851.62,-160.31 842.18,-165.1 852.55,-167.25 851.62,-160.31"/>
</a>
</g>
</g>
<!-- Node3&#45;&gt;Node12 -->
<g id="edge15_Node000003_Node000012" class="edge">
<title>Node3&#45;&gt;Node12</title>
<g id="a_edge15_Node000003_Node000012"><a xlink:title=" ">
<path fill="none" stroke="#63b8ff" d="M852.06,-170.17C964.33,-162.8 1162.72,-147.06 1330.75,-119.5 1333.32,-119.08 1335.93,-118.62 1338.56,-118.15"/>
<polygon fill="#63b8ff" stroke="#63b8ff" points="852.06,-166.66 842.31,-170.8 852.51,-173.64 852.06,-166.66"/>
</a>
</g>
</g>
<!-- Node13 -->
<g id="Node000013" class="node">
<title>Node13</title>
<g id="a_Node000013"><a xlink:href="test__tensor__grad_8cpp.html" target="_top" xlink:title=" ">
<polygon fill="white" stroke="#666666" points="1101.5,-119.5 946,-119.5 946,-77.75 1101.5,-77.75 1101.5,-119.5"/>
<text xml:space="preserve" text-anchor="start" x="954" y="-106" font-family="Helvetica,sans-Serif" font-size="10.00">/Users/ghostface/CLionProjects</text>
<text xml:space="preserve" text-anchor="start" x="954" y="-94.75" font-family="Helvetica,sans-Serif" font-size="10.00">/Ctorch_2.13/CTorch/src/dev</text>
<text xml:space="preserve" text-anchor="middle" x="1023.75" y="-83.5" font-family="Helvetica,sans-Serif" font-size="10.00">/test_tensor_grad.cpp</text>
</a>
</g>
</g>
<!-- Node3&#45;&gt;Node13 -->
<g id="edge16_Node000003_Node000013" class="edge">
<title>Node3&#45;&gt;Node13</title>
<g id="a_edge16_Node000003_Node000013"><a xlink:title=" ">
<path fill="none" stroke="#63b8ff" d="M843.44,-151.96C878.69,-141.73 919.65,-129.84 953.61,-119.98"/>
<polygon fill="#63b8ff" stroke="#63b8ff" points="842.77,-148.5 834.15,-154.65 844.73,-155.23 842.77,-148.5"/>
</a>
</g>
</g>
<!-- Node4&#45;&gt;Node5 -->
<g id="edge5_Node000004_Node000005" class="edge">
<title>Node4&#45;&gt;Node5</title>
<g id="a_edge5_Node000004_Node000005"><a xlink:title=" ">
<path fill="none" stroke="#63b8ff" d="M417.03,-77.42C539.79,-55.58 671.2,-39.4 752.6,-30.22"/>
<polygon fill="#63b8ff" stroke="#63b8ff" points="416.65,-73.93 407.43,-79.14 417.89,-80.82 416.65,-73.93"/>
</a>
</g>
</g>
<!-- Node4&#45;&gt;Node6 -->
<g id="edge6_Node000004_Node000006" class="edge">
<title>Node4&#45;&gt;Node6</title>
<g id="a_edge6_Node000004_Node000006"><a xlink:title=" ">
<path fill="none" stroke="#63b8ff" d="M274.95,-72.47C254.34,-62.65 231.01,-51.54 211.48,-42.23"/>
<polygon fill="#63b8ff" stroke="#63b8ff" points="273.24,-75.53 283.77,-76.67 276.25,-69.21 273.24,-75.53"/>
</a>
</g>
</g>
<!-- Node4&#45;&gt;Node7 -->
<g id="edge7_Node000004_Node000007" class="edge">
<title>Node4&#45;&gt;Node7</title>
<g id="a_edge7_Node000004_Node000007"><a xlink:title=" ">
<path fill="none" stroke="#63b8ff" d="M333.96,-66.28C335.57,-58.16 337.26,-49.62 338.72,-42.23"/>
<polygon fill="#63b8ff" stroke="#63b8ff" points="330.57,-65.35 332.06,-75.84 337.44,-66.71 330.57,-65.35"/>
</a>
</g>
</g>
</g>
</svg>
