<?xml version="1.0" encoding="UTF-8" standalone="no"?>
<!DOCTYPE svg PUBLIC "-//W3C//DTD SVG 1.1//EN"
 "http://www.w3.org/Graphics/SVG/1.1/DTD/svg11.dtd">
<!-- Generated by graphviz version 14.1.1 (20251213.1925)
 -->
<!-- Title: AutoDiff.cpp Pages: 1 -->
<svg width="1354pt" height="304pt"
 viewBox="0.00 0.00 1354.00 304.00" xmlns="http://www.w3.org/2000/svg" xmlns:xlink="http://www.w3.org/1999/xlink">
<g id="graph0" class="graph" transform="scale(1 1) rotate(0) translate(4 299.5)">
<title>AutoDiff.cpp</title>
<!-- Node1 -->
<g id="Node000001" class="node">
<title>Node1</title>
<g id="a_Node000001"><a xlink:title="Ctorch 自动微分系统实现">
<polygon fill="#999999" stroke="#666666" points="477,-295.5 406.25,-295.5 406.25,-276.25 477,-276.25 477,-295.5"/>
<text xml:space="preserve" text-anchor="middle" x="441.62" y="-282" font-family="Helvetica,sans-Serif" font-size="10.00">AutoDiff.cpp</text>
</a>
</g>
</g>
<!-- Node2 -->
<g id="Node000002" class="node">
<title>Node2</title>
<g id="a_Node000002"><a xlink:href="_auto_diff_8h.html" target="_top" xlink:title="Ctorch 自动微分系统">
<polygon fill="white" stroke="#666666" points="241.75,-129.75 181.5,-129.75 181.5,-110.5 241.75,-110.5 241.75,-129.75"/>
<text xml:space="preserve" text-anchor="middle" x="211.62" y="-116.25" font-family="Helvetica,sans-Serif" font-size="10.00">AutoDiff.h</text>
</a>
</g>
</g>
<!-- Node1&#45;&gt;Node2 -->
<g id="edge1_Node000001_Node000002" class="edge">
<title>Node1&#45;&gt;Node2</title>
<g id="a_edge1_Node000001_Node000002"><a xlink:title=" ">
<path fill="none" stroke="#63b8ff" d="M415.93,-275.8C377.48,-261.26 304.21,-229.77 254.62,-185 240.38,-172.13 228.58,-153.6 220.97,-139.81"/>
<polygon fill="#63b8ff" stroke="#63b8ff" points="224.25,-138.53 216.5,-131.3 218.06,-141.78 224.25,-138.53"/>
</a>
</g>
</g>
<!-- Node20 -->
<g id="Node000020" class="node">
<title>Node20</title>
<g id="a_Node000020"><a xlink:href="_tensor_8h.html" target="_top" xlink:title="张量类和相关操作的定义">
<polygon fill="white" stroke="#666666" points="690,-240.25 637.25,-240.25 637.25,-221 690,-221 690,-240.25"/>
<text xml:space="preserve" text-anchor="middle" x="663.62" y="-226.75" font-family="Helvetica,sans-Serif" font-size="10.00">Tensor.h</text>
</a>
</g>
</g>
<!-- Node1&#45;&gt;Node20 -->
<g id="edge22_Node000001_Node000020" class="edge">
<title>Node1&#45;&gt;Node20</title>
<g id="a_edge22_Node000001_Node000020"><a xlink:title=" ">
<path fill="none" stroke="#63b8ff" d="M477.29,-276.32C517.96,-266.56 584.17,-250.68 625.74,-240.71"/>
<polygon fill="#63b8ff" stroke="#63b8ff" points="626.39,-244.16 635.3,-238.42 624.76,-237.35 626.39,-244.16"/>
</a>
</g>
</g>
<!-- Node3 -->
<g id="Node000003" class="node">
<title>Node3</title>
<g id="a_Node000003"><a xlink:href="_ctools_8h.html" target="_top" xlink:title="Ctorch 通用工具类，包含通用枚举类型和辅助函数">
<polygon fill="white" stroke="#666666" points="574,-74.5 521.25,-74.5 521.25,-55.25 574,-55.25 574,-74.5"/>
<text xml:space="preserve" text-anchor="middle" x="547.62" y="-61" font-family="Helvetica,sans-Serif" font-size="10.00">Ctools.h</text>
</a>
</g>
</g>
<!-- Node2&#45;&gt;Node3 -->
<g id="edge2_Node000002_Node000003" class="edge">
<title>Node2&#45;&gt;Node3</title>
<g id="a_edge2_Node000002_Node000003"><a xlink:title=" ">
<path fill="none" stroke="#63b8ff" d="M242.04,-114.31C303.45,-104.57 442.15,-82.59 509.5,-71.92"/>
<polygon fill="#63b8ff" stroke="#63b8ff" points="510,-75.38 519.33,-70.36 508.9,-68.47 510,-75.38"/>
</a>
</g>
</g>
<!-- Node13 -->
<g id="Node000013" class="node">
<title>Node13</title>
<g id="a_Node000013"><a xlink:title=" ">
<polygon fill="#e0e0e0" stroke="#999999" points="262.12,-19.25 219.12,-19.25 219.12,0 262.12,0 262.12,-19.25"/>
<text xml:space="preserve" text-anchor="middle" x="240.62" y="-5.75" font-family="Helvetica,sans-Serif" font-size="10.00">mutex</text>
</a>
</g>
</g>
<!-- Node2&#45;&gt;Node13 -->
<g id="edge19_Node000002_Node000013" class="edge">
<title>Node2&#45;&gt;Node13</title>
<g id="a_edge19_Node000002_Node000013"><a xlink:title=" ">
<path fill="none" stroke="#63b8ff" d="M181.3,-115.67C134.95,-109.15 54.65,-92.22 82.62,-55.25 97.65,-35.4 165.72,-21.86 207.46,-15.26"/>
<polygon fill="#63b8ff" stroke="#63b8ff" points="207.87,-18.74 217.23,-13.78 206.82,-11.82 207.87,-18.74"/>
</a>
</g>
</g>
<!-- Node15 -->
<g id="Node000015" class="node">
<title>Node15</title>
<g id="a_Node000015"><a xlink:title=" ">
<polygon fill="#e0e0e0" stroke="#999999" points="323.12,-19.25 280.12,-19.25 280.12,0 323.12,0 323.12,-19.25"/>
<text xml:space="preserve" text-anchor="middle" x="301.62" y="-5.75" font-family="Helvetica,sans-Serif" font-size="10.00">vector</text>
</a>
</g>
</g>
<!-- Node2&#45;&gt;Node15 -->
<g id="edge17_Node000002_Node000015" class="edge">
<title>Node2&#45;&gt;Node15</title>
<g id="a_edge17_Node000002_Node000015"><a xlink:title=" ">
<path fill="none" stroke="#63b8ff" d="M218.99,-110.25C233.82,-92.36 267.54,-51.72 287.01,-28.25"/>
<polygon fill="#63b8ff" stroke="#63b8ff" points="289.5,-30.72 293.19,-20.79 284.11,-26.25 289.5,-30.72"/>
</a>
</g>
</g>
<!-- Node16 -->
<g id="Node000016" class="node">
<title>Node16</title>
<g id="a_Node000016"><a xlink:title=" ">
<polygon fill="#e0e0e0" stroke="#999999" points="51.25,-19.25 0,-19.25 0,0 51.25,0 51.25,-19.25"/>
<text xml:space="preserve" text-anchor="middle" x="25.62" y="-5.75" font-family="Helvetica,sans-Serif" font-size="10.00">memory</text>
</a>
</g>
</g>
<!-- Node2&#45;&gt;Node16 -->
<g id="edge21_Node000002_Node000016" class="edge">
<title>Node2&#45;&gt;Node16</title>
<g id="a_edge21_Node000002_Node000016"><a xlink:title=" ">
<path fill="none" stroke="#63b8ff" d="M181.25,-114.95C151.32,-109.62 105.44,-98.11 72.62,-74.5 56.24,-62.71 43.2,-43.47 35.06,-29.19"/>
<polygon fill="#63b8ff" stroke="#63b8ff" points="38.35,-27.91 30.52,-20.76 32.18,-31.23 38.35,-27.91"/>
</a>
</g>
</g>
<!-- Node18 -->
<g id="Node000018" class="node">
<title>Node18</title>
<g id="a_Node000018"><a xlink:title=" ">
<polygon fill="#e0e0e0" stroke="#999999" points="238,-74.5 155.25,-74.5 155.25,-55.25 238,-55.25 238,-74.5"/>
<text xml:space="preserve" text-anchor="middle" x="196.62" y="-61" font-family="Helvetica,sans-Serif" font-size="10.00">unordered_map</text>
</a>
</g>
</g>
<!-- Node2&#45;&gt;Node18 -->
<g id="edge18_Node000002_Node000018" class="edge">
<title>Node2&#45;&gt;Node18</title>
<g id="a_edge18_Node000002_Node000018"><a xlink:title=" ">
<path fill="none" stroke="#63b8ff" d="M209.15,-110.33C207.27,-103.67 204.62,-94.24 202.23,-85.78"/>
<polygon fill="#63b8ff" stroke="#63b8ff" points="205.65,-84.99 199.57,-76.32 198.91,-86.89 205.65,-84.99"/>
</a>
</g>
</g>
<!-- Node19 -->
<g id="Node000019" class="node">
<title>Node19</title>
<g id="a_Node000019"><a xlink:title=" ">
<polygon fill="#e0e0e0" stroke="#999999" points="137.25,-74.5 92,-74.5 92,-55.25 137.25,-55.25 137.25,-74.5"/>
<text xml:space="preserve" text-anchor="middle" x="114.62" y="-61" font-family="Helvetica,sans-Serif" font-size="10.00">atomic</text>
</a>
</g>
</g>
<!-- Node2&#45;&gt;Node19 -->
<g id="edge20_Node000002_Node000019" class="edge">
<title>Node2&#45;&gt;Node19</title>
<g id="a_edge20_Node000002_Node000019"><a xlink:title=" ">
<path fill="none" stroke="#63b8ff" d="M195.17,-110.09C180.4,-101.98 158.45,-89.93 141.19,-80.46"/>
<polygon fill="#63b8ff" stroke="#63b8ff" points="142.94,-77.43 132.49,-75.68 139.57,-83.56 142.94,-77.43"/>
</a>
</g>
</g>
<!-- Node4 -->
<g id="Node000004" class="node">
<title>Node4</title>
<g id="a_Node000004"><a xlink:title=" ">
<polygon fill="#e0e0e0" stroke="#999999" points="516.25,-19.25 471,-19.25 471,0 516.25,0 516.25,-19.25"/>
<text xml:space="preserve" text-anchor="middle" x="493.62" y="-5.75" font-family="Helvetica,sans-Serif" font-size="10.00">cstring</text>
</a>
</g>
</g>
<!-- Node3&#45;&gt;Node4 -->
<g id="edge3_Node000003_Node000004" class="edge">
<title>Node3&#45;&gt;Node4</title>
<g id="a_edge3_Node000003_Node000004"><a xlink:title=" ">
<path fill="none" stroke="#63b8ff" d="M538.71,-55.08C531.17,-47.65 520.16,-36.79 510.9,-27.66"/>
<polygon fill="#63b8ff" stroke="#63b8ff" points="513.39,-25.2 503.81,-20.67 508.48,-30.19 513.39,-25.2"/>
</a>
</g>
</g>
<!-- Node5 -->
<g id="Node000005" class="node">
<title>Node5</title>
<g id="a_Node000005"><a xlink:title=" ">
<polygon fill="#e0e0e0" stroke="#999999" points="579.25,-19.25 534,-19.25 534,0 579.25,0 579.25,-19.25"/>
<text xml:space="preserve" text-anchor="middle" x="556.62" y="-5.75" font-family="Helvetica,sans-Serif" font-size="10.00">chrono</text>
</a>
</g>
</g>
<!-- Node3&#45;&gt;Node5 -->
<g id="edge4_Node000003_Node000005" class="edge">
<title>Node3&#45;&gt;Node5</title>
<g id="a_edge4_Node000003_Node000005"><a xlink:title=" ">
<path fill="none" stroke="#63b8ff" d="M549.11,-55.08C550.22,-48.49 551.79,-39.21 553.21,-30.82"/>
<polygon fill="#63b8ff" stroke="#63b8ff" points="556.64,-31.55 554.85,-21.1 549.74,-30.38 556.64,-31.55"/>
</a>
</g>
</g>
<!-- Node6 -->
<g id="Node000006" class="node">
<title>Node6</title>
<g id="a_Node000006"><a xlink:title=" ">
<polygon fill="#e0e0e0" stroke="#999999" points="642.25,-19.25 597,-19.25 597,0 642.25,0 642.25,-19.25"/>
<text xml:space="preserve" text-anchor="middle" x="619.62" y="-5.75" font-family="Helvetica,sans-Serif" font-size="10.00">cstdint</text>
</a>
</g>
</g>
<!-- Node3&#45;&gt;Node6 -->
<g id="edge5_Node000003_Node000006" class="edge">
<title>Node3&#45;&gt;Node6</title>
<g id="a_edge5_Node000003_Node000006"><a xlink:title=" ">
<path fill="none" stroke="#63b8ff" d="M559.84,-54.84C570.45,-46.99 586.06,-35.45 598.67,-26.12"/>
<polygon fill="#63b8ff" stroke="#63b8ff" points="600.42,-29.19 606.37,-20.42 596.25,-23.56 600.42,-29.19"/>
</a>
</g>
</g>
<!-- Node7 -->
<g id="Node000007" class="node">
<title>Node7</title>
<g id="a_Node000007"><a xlink:title=" ">
<polygon fill="#e0e0e0" stroke="#999999" points="700.62,-19.25 660.62,-19.25 660.62,0 700.62,0 700.62,-19.25"/>
<text xml:space="preserve" text-anchor="middle" x="680.62" y="-5.75" font-family="Helvetica,sans-Serif" font-size="10.00">ctime</text>
</a>
</g>
</g>
<!-- Node3&#45;&gt;Node7 -->
<g id="edge6_Node000003_Node000007" class="edge">
<title>Node3&#45;&gt;Node7</title>
<g id="a_edge6_Node000003_Node000007"><a xlink:title=" ">
<path fill="none" stroke="#63b8ff" d="M570.19,-54.84C592.04,-46.09 625.35,-32.76 649.67,-23.02"/>
<polygon fill="#63b8ff" stroke="#63b8ff" points="650.75,-26.36 658.73,-19.39 648.15,-19.86 650.75,-26.36"/>
</a>
</g>
</g>
<!-- Node8 -->
<g id="Node000008" class="node">
<title>Node8</title>
<g id="a_Node000008"><a xlink:title=" ">
<polygon fill="#e0e0e0" stroke="#999999" points="452.62,-19.25 412.62,-19.25 412.62,0 452.62,0 452.62,-19.25"/>
<text xml:space="preserve" text-anchor="middle" x="432.62" y="-5.75" font-family="Helvetica,sans-Serif" font-size="10.00">string</text>
</a>
</g>
</g>
<!-- Node3&#45;&gt;Node8 -->
<g id="edge7_Node000003_Node000008" class="edge">
<title>Node3&#45;&gt;Node8</title>
<g id="a_edge7_Node000003_Node000008"><a xlink:title=" ">
<path fill="none" stroke="#63b8ff" d="M528.12,-54.84C510.11,-46.5 483.1,-34 462.4,-24.41"/>
<polygon fill="#63b8ff" stroke="#63b8ff" points="464.15,-21.36 453.6,-20.34 461.21,-27.72 464.15,-21.36"/>
</a>
</g>
</g>
<!-- Node9 -->
<g id="Node000009" class="node">
<title>Node9</title>
<g id="a_Node000009"><a xlink:title=" ">
<polygon fill="#e0e0e0" stroke="#999999" points="974.25,-19.25 923,-19.25 923,0 974.25,0 974.25,-19.25"/>
<text xml:space="preserve" text-anchor="middle" x="948.62" y="-5.75" font-family="Helvetica,sans-Serif" font-size="10.00">sstream</text>
</a>
</g>
</g>
<!-- Node3&#45;&gt;Node9 -->
<g id="edge8_Node000003_Node000009" class="edge">
<title>Node3&#45;&gt;Node9</title>
<g id="a_edge8_Node000003_Node000009"><a xlink:title=" ">
<path fill="none" stroke="#63b8ff" d="M574.06,-61.82C633,-57.01 779.8,-43.64 911.63,-19.61"/>
<polygon fill="#63b8ff" stroke="#63b8ff" points="912.03,-23.1 921.22,-17.84 910.75,-16.22 912.03,-23.1"/>
</a>
</g>
</g>
<!-- Node10 -->
<g id="Node000010" class="node">
<title>Node10</title>
<g id="a_Node000010"><a xlink:title=" ">
<polygon fill="#e0e0e0" stroke="#999999" points="1345.5,-19.25 1295.75,-19.25 1295.75,0 1345.5,0 1345.5,-19.25"/>
<text xml:space="preserve" text-anchor="middle" x="1320.62" y="-5.75" font-family="Helvetica,sans-Serif" font-size="10.00">iomanip</text>
</a>
</g>
</g>
<!-- Node3&#45;&gt;Node10 -->
<g id="edge9_Node000003_Node000010" class="edge">
<title>Node3&#45;&gt;Node10</title>
<g id="a_edge9_Node000003_Node000010"><a xlink:title=" ">
<path fill="none" stroke="#63b8ff" d="M574.23,-62.04C690.07,-54.06 1150.55,-22.34 1284.13,-13.14"/>
<polygon fill="#63b8ff" stroke="#63b8ff" points="1284.06,-16.65 1293.8,-12.47 1283.58,-9.67 1284.06,-16.65"/>
</a>
</g>
</g>
<!-- Node11 -->
<g id="Node000011" class="node">
<title>Node11</title>
<g id="a_Node000011"><a xlink:title=" ">
<polygon fill="#e0e0e0" stroke="#999999" points="766.75,-19.25 718.5,-19.25 718.5,0 766.75,0 766.75,-19.25"/>
<text xml:space="preserve" text-anchor="middle" x="742.62" y="-5.75" font-family="Helvetica,sans-Serif" font-size="10.00">stdint.h</text>
</a>
</g>
</g>
<!-- Node3&#45;&gt;Node11 -->
<g id="edge10_Node000003_Node000011" class="edge">
<title>Node3&#45;&gt;Node11</title>
<g id="a_edge10_Node000003_Node000011"><a xlink:title=" ">
<path fill="none" stroke="#63b8ff" d="M574.33,-56.58C608.89,-47.15 669.19,-30.68 707.45,-20.23"/>
<polygon fill="#63b8ff" stroke="#63b8ff" points="707.9,-23.74 716.63,-17.72 706.06,-16.98 707.9,-23.74"/>
</a>
</g>
</g>
<!-- Node12 -->
<g id="Node000012" class="node">
<title>Node12</title>
<g id="a_Node000012"><a xlink:title=" ">
<polygon fill="#e0e0e0" stroke="#999999" points="844,-19.25 785.25,-19.25 785.25,0 844,0 844,-19.25"/>
<text xml:space="preserve" text-anchor="middle" x="814.62" y="-5.75" font-family="Helvetica,sans-Serif" font-size="10.00">inttypes.h</text>
</a>
</g>
</g>
<!-- Node3&#45;&gt;Node12 -->
<g id="edge11_Node000003_Node000012" class="edge">
<title>Node3&#45;&gt;Node12</title>
<g id="a_edge11_Node000003_Node000012"><a xlink:title=" ">
<path fill="none" stroke="#63b8ff" d="M574.34,-58.86C615.06,-51.18 695.33,-35.85 773.78,-19.59"/>
<polygon fill="#63b8ff" stroke="#63b8ff" points="774.27,-23.06 783.35,-17.6 772.85,-16.21 774.27,-23.06"/>
</a>
</g>
</g>
<!-- Node3&#45;&gt;Node13 -->
<g id="edge12_Node000003_Node000013" class="edge">
<title>Node3&#45;&gt;Node13</title>
<g id="a_edge12_Node000003_Node000013"><a xlink:title=" ">
<path fill="none" stroke="#63b8ff" d="M520.8,-60.55C473.09,-54.41 370.2,-40.21 273.69,-19.48"/>
<polygon fill="#63b8ff" stroke="#63b8ff" points="274.56,-16.09 264.04,-17.38 273.07,-22.93 274.56,-16.09"/>
</a>
</g>
</g>
<!-- Node14 -->
<g id="Node000014" class="node">
<title>Node14</title>
<g id="a_Node000014"><a xlink:title=" ">
<polygon fill="#e0e0e0" stroke="#999999" points="905.12,-19.25 862.12,-19.25 862.12,0 905.12,0 905.12,-19.25"/>
<text xml:space="preserve" text-anchor="middle" x="883.62" y="-5.75" font-family="Helvetica,sans-Serif" font-size="10.00">thread</text>
</a>
</g>
</g>
<!-- Node3&#45;&gt;Node14 -->
<g id="edge13_Node000003_Node000014" class="edge">
<title>Node3&#45;&gt;Node14</title>
<g id="a_edge13_Node000003_Node000014"><a xlink:title=" ">
<path fill="none" stroke="#63b8ff" d="M574.34,-61.11C625.87,-55.54 742.69,-41.74 850.61,-19.42"/>
<polygon fill="#63b8ff" stroke="#63b8ff" points="851.15,-22.89 860.21,-17.41 849.71,-16.04 851.15,-22.89"/>
</a>
</g>
</g>
<!-- Node3&#45;&gt;Node15 -->
<g id="edge14_Node000003_Node000015" class="edge">
<title>Node3&#45;&gt;Node15</title>
<g id="a_edge14_Node000003_Node000015"><a xlink:title=" ">
<path fill="none" stroke="#63b8ff" d="M520.88,-59.03C481.92,-51.82 407.07,-37.44 334.66,-19.86"/>
<polygon fill="#63b8ff" stroke="#63b8ff" points="335.54,-16.48 325,-17.49 333.88,-23.27 335.54,-16.48"/>
</a>
</g>
</g>
<!-- Node3&#45;&gt;Node16 -->
<g id="edge15_Node000003_Node000016" class="edge">
<title>Node3&#45;&gt;Node16</title>
<g id="a_edge15_Node000003_Node000016"><a xlink:title=" ">
<path fill="none" stroke="#63b8ff" d="M521.02,-61.16C434.77,-52.36 162.72,-24.61 62.86,-14.42"/>
<polygon fill="#63b8ff" stroke="#63b8ff" points="63.36,-10.96 53.06,-13.42 62.65,-17.92 63.36,-10.96"/>
</a>
</g>
</g>
<!-- Node17 -->
<g id="Node000017" class="node">
<title>Node17</title>
<g id="a_Node000017"><a xlink:title=" ">
<polygon fill="#e0e0e0" stroke="#999999" points="394.38,-19.25 340.88,-19.25 340.88,0 394.38,0 394.38,-19.25"/>
<text xml:space="preserve" text-anchor="middle" x="367.62" y="-5.75" font-family="Helvetica,sans-Serif" font-size="10.00">iostream</text>
</a>
</g>
</g>
<!-- Node3&#45;&gt;Node17 -->
<g id="edge16_Node000003_Node000017" class="edge">
<title>Node3&#45;&gt;Node17</title>
<g id="a_edge16_Node000003_Node000017"><a xlink:title=" ">
<path fill="none" stroke="#63b8ff" d="M521.07,-56.02C490.45,-46.96 439.89,-32 405.24,-21.75"/>
<polygon fill="#63b8ff" stroke="#63b8ff" points="406.62,-18.51 396.04,-19.03 404.64,-25.22 406.62,-18.51"/>
</a>
</g>
</g>
<!-- Node20&#45;&gt;Node2 -->
<g id="edge56_Node000020_Node000002" class="edge">
<title>Node20&#45;&gt;Node2</title>
<g id="a_edge56_Node000020_Node000002"><a xlink:title=" ">
<path fill="none" stroke="#63b8ff" d="M636.79,-228.37C561.99,-224.57 352.5,-211.77 289.62,-185 264.59,-174.34 241.19,-153.07 226.68,-138"/>
<polygon fill="#63b8ff" stroke="#63b8ff" points="229.62,-136.03 220.24,-131.09 224.49,-140.79 229.62,-136.03"/>
</a>
</g>
</g>
<!-- Node20&#45;&gt;Node3 -->
<g id="edge55_Node000020_Node000003" class="edge">
<title>Node20&#45;&gt;Node3</title>
<g id="a_edge55_Node000020_Node000003"><a xlink:title=" ">
<path fill="none" stroke="#63b8ff" d="M637.04,-230.57C602,-230.18 541.42,-223.54 512.62,-185 489.72,-154.34 515.42,-108.91 533.32,-83.95"/>
<polygon fill="#63b8ff" stroke="#63b8ff" points="536.01,-86.19 539.22,-76.09 530.42,-81.99 536.01,-86.19"/>
</a>
</g>
</g>
<!-- Node20&#45;&gt;Node4 -->
<g id="edge49_Node000020_Node000004" class="edge">
<title>Node20&#45;&gt;Node4</title>
<g id="a_edge49_Node000020_Node000004"><a xlink:title=" ">
<path fill="none" stroke="#63b8ff" d="M636.86,-226.13C595.12,-220.09 517.52,-206.24 500.62,-185 464.69,-139.82 478.37,-65.3 487.72,-30.14"/>
<polygon fill="#63b8ff" stroke="#63b8ff" points="490.97,-31.49 490.34,-20.91 484.24,-29.57 490.97,-31.49"/>
</a>
</g>
</g>
<!-- Node20&#45;&gt;Node8 -->
<g id="edge51_Node000020_Node000008" class="edge">
<title>Node20&#45;&gt;Node8</title>
<g id="a_edge51_Node000020_Node000008"><a xlink:title=" ">
<path fill="none" stroke="#63b8ff" d="M636.86,-230.61C598.29,-230.54 527.16,-224.54 485.62,-185 441.94,-143.42 433.93,-67.1 432.68,-30.81"/>
<polygon fill="#63b8ff" stroke="#63b8ff" points="436.18,-30.84 432.5,-20.91 429.18,-30.97 436.18,-30.84"/>
</a>
</g>
</g>
<!-- Node20&#45;&gt;Node9 -->
<g id="edge47_Node000020_Node000009" class="edge">
<title>Node20&#45;&gt;Node9</title>
<g id="a_edge47_Node000020_Node000009"><a xlink:title=" ">
<path fill="none" stroke="#63b8ff" d="M690.17,-229.79C803.36,-230.2 1241.75,-228.93 1282.62,-185 1376.27,-84.36 1091.09,-31.44 985.94,-15.72"/>
<polygon fill="#63b8ff" stroke="#63b8ff" points="986.51,-12.26 976.11,-14.28 985.5,-19.19 986.51,-12.26"/>
</a>
</g>
</g>
<!-- Node20&#45;&gt;Node10 -->
<g id="edge50_Node000020_Node000010" class="edge">
<title>Node20&#45;&gt;Node10</title>
<g id="a_edge50_Node000020_Node000010"><a xlink:title=" ">
<path fill="none" stroke="#63b8ff" d="M690.13,-229.74C805.25,-229.98 1258.02,-228.16 1302.62,-185 1344.5,-144.49 1333.81,-67.06 1325.76,-30.58"/>
<polygon fill="#63b8ff" stroke="#63b8ff" points="1329.19,-29.89 1323.46,-20.98 1322.39,-31.52 1329.19,-29.89"/>
</a>
</g>
</g>
<!-- Node20&#45;&gt;Node15 -->
<g id="edge46_Node000020_Node000015" class="edge">
<title>Node20&#45;&gt;Node15</title>
<g id="a_edge46_Node000020_Node000015"><a xlink:title=" ">
<path fill="none" stroke="#63b8ff" d="M636.92,-229.96C592.98,-229.33 504.1,-222.99 441.62,-185 377.29,-145.88 330.09,-65.96 310.98,-29.5"/>
<polygon fill="#63b8ff" stroke="#63b8ff" points="314.31,-28.34 306.65,-21.03 308.08,-31.53 314.31,-28.34"/>
</a>
</g>
</g>
<!-- Node20&#45;&gt;Node16 -->
<g id="edge43_Node000020_Node000016" class="edge">
<title>Node20&#45;&gt;Node16</title>
<g id="a_edge43_Node000020_Node000016"><a xlink:title=" ">
<path fill="none" stroke="#63b8ff" d="M637.08,-230.21C570.87,-230.92 393.76,-228.27 254.62,-185 155.79,-154.26 117.71,-152.46 49.62,-74.5 38.77,-62.07 32.62,-44.24 29.27,-30.58"/>
<polygon fill="#63b8ff" stroke="#63b8ff" points="32.73,-30.02 27.24,-20.96 25.88,-31.47 32.73,-30.02"/>
</a>
</g>
</g>
<!-- Node20&#45;&gt;Node17 -->
<g id="edge42_Node000020_Node000017" class="edge">
<title>Node20&#45;&gt;Node17</title>
<g id="a_edge42_Node000020_Node000017"><a xlink:title=" ">
<path fill="none" stroke="#63b8ff" d="M636.79,-230.2C595.87,-229.74 517.2,-223.42 465.62,-185 412.08,-145.11 383.69,-66.78 372.87,-30.25"/>
<polygon fill="#63b8ff" stroke="#63b8ff" points="376.35,-29.71 370.27,-21.04 369.61,-31.61 376.35,-29.71"/>
</a>
</g>
</g>
<!-- Node21 -->
<g id="Node000021" class="node">
<title>Node21</title>
<g id="a_Node000021"><a xlink:title=" ">
<polygon fill="#e0e0e0" stroke="#999999" points="691.5,-185 635.75,-185 635.75,-165.75 691.5,-165.75 691.5,-185"/>
<text xml:space="preserve" text-anchor="middle" x="663.62" y="-171.5" font-family="Helvetica,sans-Serif" font-size="10.00">algorithm</text>
</a>
</g>
</g>
<!-- Node20&#45;&gt;Node21 -->
<g id="edge23_Node000020_Node000021" class="edge">
<title>Node20&#45;&gt;Node21</title>
<g id="a_edge23_Node000020_Node000021"><a xlink:title=" ">
<path fill="none" stroke="#63b8ff" d="M663.62,-220.83C663.62,-214.32 663.62,-205.17 663.62,-196.87"/>
<polygon fill="#63b8ff" stroke="#63b8ff" points="667.13,-196.87 663.63,-186.87 660.13,-196.87 667.13,-196.87"/>
</a>
</g>
</g>
<!-- Node22 -->
<g id="Node000022" class="node">
<title>Node22</title>
<g id="a_Node000022"><a xlink:title=" ">
<polygon fill="#e0e0e0" stroke="#999999" points="757.75,-185 709.5,-185 709.5,-165.75 757.75,-165.75 757.75,-185"/>
<text xml:space="preserve" text-anchor="middle" x="733.62" y="-171.5" font-family="Helvetica,sans-Serif" font-size="10.00">cstddef</text>
</a>
</g>
</g>
<!-- Node20&#45;&gt;Node22 -->
<g id="edge24_Node000020_Node000022" class="edge">
<title>Node20&#45;&gt;Node22</title>
<g id="a_edge24_Node000020_Node000022"><a xlink:title=" ">
<path fill="none" stroke="#63b8ff" d="M675.5,-220.59C685.72,-212.82 700.7,-201.42 712.89,-192.15"/>
<polygon fill="#63b8ff" stroke="#63b8ff" points="714.88,-195.03 720.72,-186.19 710.64,-189.46 714.88,-195.03"/>
</a>
</g>
</g>
<!-- Node23 -->
<g id="Node000023" class="node">
<title>Node23</title>
<g id="a_Node000023"><a xlink:href="_ctorch___error_8h.html" target="_top" xlink:title="Ctorch 错误处理类">
<polygon fill="white" stroke="#666666" points="698.12,-129.75 619.12,-129.75 619.12,-110.5 698.12,-110.5 698.12,-129.75"/>
<text xml:space="preserve" text-anchor="middle" x="658.62" y="-116.25" font-family="Helvetica,sans-Serif" font-size="10.00">Ctorch_Error.h</text>
</a>
</g>
</g>
<!-- Node20&#45;&gt;Node23 -->
<g id="edge25_Node000020_Node000023" class="edge">
<title>Node20&#45;&gt;Node23</title>
<g id="a_edge25_Node000020_Node000023"><a xlink:title=" ">
<path fill="none" stroke="#63b8ff" d="M652.84,-220.64C643.89,-212.42 631.81,-199.39 626.62,-185 620.67,-168.48 631.09,-150.69 641.6,-138.09"/>
<polygon fill="#63b8ff" stroke="#63b8ff" points="643.87,-140.79 648.01,-131.04 638.69,-136.08 643.87,-140.79"/>
</a>
</g>
</g>
<!-- Node24 -->
<g id="Node000024" class="node">
<title>Node24</title>
<g id="a_Node000024"><a xlink:href="_storage_8h.html" target="_top" xlink:title="Ctorch 存储类，用于管理张量数据的底层存储">
<polygon fill="white" stroke="#666666" points="579.62,-185 521.62,-185 521.62,-165.75 579.62,-165.75 579.62,-185"/>
<text xml:space="preserve" text-anchor="middle" x="550.62" y="-171.5" font-family="Helvetica,sans-Serif" font-size="10.00">Storage.h</text>
</a>
</g>
</g>
<!-- Node20&#45;&gt;Node24 -->
<g id="edge38_Node000020_Node000024" class="edge">
<title>Node20&#45;&gt;Node24</title>
<g id="a_edge38_Node000020_Node000024"><a xlink:title=" ">
<path fill="none" stroke="#63b8ff" d="M644.46,-220.59C626.84,-212.29 600.47,-199.86 580.16,-190.29"/>
<polygon fill="#63b8ff" stroke="#63b8ff" points="581.8,-187.19 571.26,-186.1 578.81,-193.53 581.8,-187.19"/>
</a>
</g>
</g>
<!-- Node25 -->
<g id="Node000025" class="node">
<title>Node25</title>
<g id="a_Node000025"><a xlink:title=" ">
<polygon fill="#e0e0e0" stroke="#999999" points="847.75,-185 775.5,-185 775.5,-165.75 847.75,-165.75 847.75,-185"/>
<text xml:space="preserve" text-anchor="middle" x="811.62" y="-171.5" font-family="Helvetica,sans-Serif" font-size="10.00">initializer_list</text>
</a>
</g>
</g>
<!-- Node20&#45;&gt;Node25 -->
<g id="edge41_Node000020_Node000025" class="edge">
<title>Node20&#45;&gt;Node25</title>
<g id="a_edge41_Node000020_Node000025"><a xlink:title=" ">
<path fill="none" stroke="#63b8ff" d="M688.73,-220.59C712.65,-211.99 748.91,-198.94 775.85,-189.25"/>
<polygon fill="#63b8ff" stroke="#63b8ff" points="776.75,-192.64 784.97,-185.96 774.38,-186.06 776.75,-192.64"/>
</a>
</g>
</g>
<!-- Node26 -->
<g id="Node000026" class="node">
<title>Node26</title>
<g id="a_Node000026"><a xlink:title=" ">
<polygon fill="#e0e0e0" stroke="#999999" points="915.88,-185 865.38,-185 865.38,-165.75 915.88,-165.75 915.88,-185"/>
<text xml:space="preserve" text-anchor="middle" x="890.62" y="-171.5" font-family="Helvetica,sans-Serif" font-size="10.00">numeric</text>
</a>
</g>
</g>
<!-- Node20&#45;&gt;Node26 -->
<g id="edge44_Node000020_Node000026" class="edge">
<title>Node20&#45;&gt;Node26</title>
<g id="a_edge44_Node000020_Node000026"><a xlink:title=" ">
<path fill="none" stroke="#63b8ff" d="M690.2,-223.67C725.42,-215.73 789.76,-201.1 853.9,-185.62"/>
<polygon fill="#63b8ff" stroke="#63b8ff" points="854.65,-189.04 863.55,-183.29 853.01,-182.24 854.65,-189.04"/>
</a>
</g>
</g>
<!-- Node27 -->
<g id="Node000027" class="node">
<title>Node27</title>
<g id="a_Node000027"><a xlink:title=" ">
<polygon fill="#e0e0e0" stroke="#999999" points="993,-185 934.25,-185 934.25,-165.75 993,-165.75 993,-185"/>
<text xml:space="preserve" text-anchor="middle" x="963.62" y="-171.5" font-family="Helvetica,sans-Serif" font-size="10.00">stdexcept</text>
</a>
</g>
</g>
<!-- Node20&#45;&gt;Node27 -->
<g id="edge45_Node000020_Node000027" class="edge">
<title>Node20&#45;&gt;Node27</title>
<g id="a_edge45_Node000020_Node000027"><a xlink:title=" ">
<path fill="none" stroke="#63b8ff" d="M690.38,-225.49C735.89,-218.36 831.51,-202.97 922.74,-185.28"/>
<polygon fill="#63b8ff" stroke="#63b8ff" points="923.22,-188.76 932.36,-183.41 921.87,-181.89 923.22,-188.76"/>
</a>
</g>
</g>
<!-- Node28 -->
<g id="Node000028" class="node">
<title>Node28</title>
<g id="a_Node000028"><a xlink:title=" ">
<polygon fill="#e0e0e0" stroke="#999999" points="1068.62,-185 1010.62,-185 1010.62,-165.75 1068.62,-165.75 1068.62,-185"/>
<text xml:space="preserve" text-anchor="middle" x="1039.62" y="-171.5" font-family="Helvetica,sans-Serif" font-size="10.00">functional</text>
</a>
</g>
</g>
<!-- Node20&#45;&gt;Node28 -->
<g id="edge48_Node000020_Node000028" class="edge">
<title>Node20&#45;&gt;Node28</title>
<g id="a_edge48_Node000020_Node000028"><a xlink:title=" ">
<path fill="none" stroke="#63b8ff" d="M690.48,-226.93C746.12,-221.16 878.23,-206.53 998.95,-185.33"/>
<polygon fill="#63b8ff" stroke="#63b8ff" points="999.5,-188.79 1008.73,-183.59 998.27,-181.9 999.5,-188.79"/>
</a>
</g>
</g>
<!-- Node29 -->
<g id="Node000029" class="node">
<title>Node29</title>
<g id="a_Node000029"><a xlink:title=" ">
<polygon fill="#e0e0e0" stroke="#999999" points="1164.38,-185 1086.88,-185 1086.88,-165.75 1164.38,-165.75 1164.38,-185"/>
<text xml:space="preserve" text-anchor="middle" x="1125.62" y="-171.5" font-family="Helvetica,sans-Serif" font-size="10.00">unordered_set</text>
</a>
</g>
</g>
<!-- Node20&#45;&gt;Node29 -->
<g id="edge52_Node000020_Node000029" class="edge">
<title>Node20&#45;&gt;Node29</title>
<g id="a_edge52_Node000020_Node000029"><a xlink:title=" ">
<path fill="none" stroke="#63b8ff" d="M690.35,-227.4C754.68,-221.91 923.49,-206.67 1075.27,-185.24"/>
<polygon fill="#63b8ff" stroke="#63b8ff" points="1075.73,-188.71 1085.13,-183.83 1074.74,-181.78 1075.73,-188.71"/>
</a>
</g>
</g>
<!-- Node30 -->
<g id="Node000030" class="node">
<title>Node30</title>
<g id="a_Node000030"><a xlink:title=" ">
<polygon fill="#e0e0e0" stroke="#999999" points="1221.25,-185 1182,-185 1182,-165.75 1221.25,-165.75 1221.25,-185"/>
<text xml:space="preserve" text-anchor="middle" x="1201.62" y="-171.5" font-family="Helvetica,sans-Serif" font-size="10.00">limits</text>
</a>
</g>
</g>
<!-- Node20&#45;&gt;Node30 -->
<g id="edge53_Node000020_Node000030" class="edge">
<title>Node20&#45;&gt;Node30</title>
<g id="a_edge53_Node000020_Node000030"><a xlink:title=" ">
<path fill="none" stroke="#63b8ff" d="M690.45,-229.27C765.27,-227.86 982.6,-220.92 1170.38,-185.27"/>
<polygon fill="#63b8ff" stroke="#63b8ff" points="1170.93,-188.73 1180.08,-183.4 1169.6,-181.86 1170.93,-188.73"/>
</a>
</g>
</g>
<!-- Node31 -->
<g id="Node000031" class="node">
<title>Node31</title>
<g id="a_Node000031"><a xlink:title=" ">
<polygon fill="#e0e0e0" stroke="#999999" points="1274,-185 1239.25,-185 1239.25,-165.75 1274,-165.75 1274,-185"/>
<text xml:space="preserve" text-anchor="middle" x="1256.62" y="-171.5" font-family="Helvetica,sans-Serif" font-size="10.00">map</text>
</a>
</g>
</g>
<!-- Node20&#45;&gt;Node31 -->
<g id="edge54_Node000020_Node000031" class="edge">
<title>Node20&#45;&gt;Node31</title>
<g id="a_edge54_Node000020_Node000031"><a xlink:title=" ">
<path fill="none" stroke="#63b8ff" d="M690.22,-229.8C770.41,-229.85 1016.81,-226.54 1227.6,-185.15"/>
<polygon fill="#63b8ff" stroke="#63b8ff" points="1228.27,-188.58 1237.39,-183.19 1226.9,-181.72 1228.27,-188.58"/>
</a>
</g>
</g>
<!-- Node23&#45;&gt;Node3 -->
<g id="edge37_Node000023_Node000003" class="edge">
<title>Node23&#45;&gt;Node3</title>
<g id="a_edge37_Node000023_Node000003"><a xlink:title=" ">
<path fill="none" stroke="#63b8ff" d="M639.8,-110.09C622.57,-101.83 596.82,-89.48 576.92,-79.93"/>
<polygon fill="#63b8ff" stroke="#63b8ff" points="578.44,-76.78 567.91,-75.61 575.41,-83.09 578.44,-76.78"/>
</a>
</g>
</g>
<!-- Node23&#45;&gt;Node4 -->
<g id="edge26_Node000023_Node000004" class="edge">
<title>Node23&#45;&gt;Node4</title>
<g id="a_edge26_Node000023_Node000004"><a xlink:title=" ">
<path fill="none" stroke="#63b8ff" d="M649.36,-110.09C635.59,-96.95 608.54,-72.3 582.62,-55.25 564.57,-43.37 542.92,-32.45 525.49,-24.38"/>
<polygon fill="#63b8ff" stroke="#63b8ff" points="527.19,-21.31 516.63,-20.37 524.3,-27.69 527.19,-21.31"/>
</a>
</g>
</g>
<!-- Node23&#45;&gt;Node5 -->
<g id="edge27_Node000023_Node000005" class="edge">
<title>Node23&#45;&gt;Node5</title>
<g id="a_edge27_Node000023_Node000005"><a xlink:title=" ">
<path fill="none" stroke="#63b8ff" d="M653.88,-110.2C646.7,-97.21 632.17,-72.73 615.62,-55.25 605.25,-44.28 591.96,-33.98 580.62,-26.04"/>
<polygon fill="#63b8ff" stroke="#63b8ff" points="582.78,-23.27 572.53,-20.56 578.85,-29.07 582.78,-23.27"/>
</a>
</g>
</g>
<!-- Node23&#45;&gt;Node6 -->
<g id="edge28_Node000023_Node000006" class="edge">
<title>Node23&#45;&gt;Node6</title>
<g id="a_edge28_Node000023_Node000006"><a xlink:title=" ">
<path fill="none" stroke="#63b8ff" d="M659.48,-110.1C660.34,-97.4 660.68,-73.75 653.62,-55.25 649.82,-45.29 643.05,-35.68 636.55,-27.96"/>
<polygon fill="#63b8ff" stroke="#63b8ff" points="639.28,-25.76 629.98,-20.68 634.09,-30.45 639.28,-25.76"/>
</a>
</g>
</g>
<!-- Node23&#45;&gt;Node7 -->
<g id="edge29_Node000023_Node000007" class="edge">
<title>Node23&#45;&gt;Node7</title>
<g id="a_edge29_Node000023_Node000007"><a xlink:title=" ">
<path fill="none" stroke="#63b8ff" d="M667.95,-110.23C675.98,-101.88 686.98,-88.59 691.62,-74.5 696.43,-59.94 693,-42.78 688.74,-29.91"/>
<polygon fill="#63b8ff" stroke="#63b8ff" points="692.15,-29.04 685.35,-20.92 685.6,-31.51 692.15,-29.04"/>
</a>
</g>
</g>
<!-- Node23&#45;&gt;Node8 -->
<g id="edge30_Node000023_Node000008" class="edge">
<title>Node23&#45;&gt;Node8</title>
<g id="a_edge30_Node000023_Node000008"><a xlink:title=" ">
<path fill="none" stroke="#63b8ff" d="M618.63,-111.2C588.36,-104.2 546.39,-92.3 512.62,-74.5 488.44,-61.75 464.44,-41.26 449.13,-26.94"/>
<polygon fill="#63b8ff" stroke="#63b8ff" points="451.92,-24.76 442.28,-20.37 447.07,-29.82 451.92,-24.76"/>
</a>
</g>
</g>
<!-- Node23&#45;&gt;Node9 -->
<g id="edge31_Node000023_Node000009" class="edge">
<title>Node23&#45;&gt;Node9</title>
<g id="a_edge31_Node000023_Node000009"><a xlink:title=" ">
<path fill="none" stroke="#63b8ff" d="M685.93,-110.07C712.13,-101.3 752.74,-87.45 787.62,-74.5 832.39,-57.89 883.56,-37.31 915.97,-24.08"/>
<polygon fill="#63b8ff" stroke="#63b8ff" points="917.28,-27.32 925.21,-20.29 914.63,-20.84 917.28,-27.32"/>
</a>
</g>
</g>
<!-- Node23&#45;&gt;Node10 -->
<g id="edge32_Node000023_Node000010" class="edge">
<title>Node23&#45;&gt;Node10</title>
<g id="a_edge32_Node000023_Node000010"><a xlink:title=" ">
<path fill="none" stroke="#63b8ff" d="M698.55,-112.58C817.74,-93.05 1169.88,-35.33 1284.28,-16.58"/>
<polygon fill="#63b8ff" stroke="#63b8ff" points="1284.71,-20.06 1294.02,-14.99 1283.58,-13.15 1284.71,-20.06"/>
</a>
</g>
</g>
<!-- Node23&#45;&gt;Node11 -->
<g id="edge33_Node000023_Node000011" class="edge">
<title>Node23&#45;&gt;Node11</title>
<g id="a_edge33_Node000023_Node000011"><a xlink:title=" ">
<path fill="none" stroke="#63b8ff" d="M670.25,-110.07C680.61,-101.62 695.78,-88.26 706.62,-74.5 717.6,-60.58 727.28,-42.91 733.83,-29.69"/>
<polygon fill="#63b8ff" stroke="#63b8ff" points="736.94,-31.31 738.09,-20.78 730.62,-28.29 736.94,-31.31"/>
</a>
</g>
</g>
<!-- Node23&#45;&gt;Node12 -->
<g id="edge34_Node000023_Node000012" class="edge">
<title>Node23&#45;&gt;Node12</title>
<g id="a_edge34_Node000023_Node000012"><a xlink:title=" ">
<path fill="none" stroke="#63b8ff" d="M672.82,-110.09C686.67,-101.2 708.27,-87.18 726.62,-74.5 749.83,-58.48 775.91,-39.41 793.61,-26.31"/>
<polygon fill="#63b8ff" stroke="#63b8ff" points="795.36,-29.37 801.3,-20.6 791.18,-23.75 795.36,-29.37"/>
</a>
</g>
</g>
<!-- Node23&#45;&gt;Node13 -->
<g id="edge35_Node000023_Node000013" class="edge">
<title>Node23&#45;&gt;Node13</title>
<g id="a_edge35_Node000023_Node000013"><a xlink:title=" ">
<path fill="none" stroke="#63b8ff" d="M621.77,-110.03C585.75,-101.11 529.37,-87.05 480.62,-74.5 391.03,-51.43 366.17,-44.88 273.34,-19.69"/>
<polygon fill="#63b8ff" stroke="#63b8ff" points="274.32,-16.33 263.76,-17.09 272.49,-23.09 274.32,-16.33"/>
</a>
</g>
</g>
<!-- Node23&#45;&gt;Node14 -->
<g id="edge36_Node000023_Node000014" class="edge">
<title>Node23&#45;&gt;Node14</title>
<g id="a_edge36_Node000023_Node000014"><a xlink:title=" ">
<path fill="none" stroke="#63b8ff" d="M677.96,-110.16C697.19,-101.22 727.51,-87.05 753.62,-74.5 788.89,-57.56 829.3,-37.62 855.58,-24.58"/>
<polygon fill="#63b8ff" stroke="#63b8ff" points="856.83,-27.87 864.23,-20.29 853.72,-21.6 856.83,-27.87"/>
</a>
</g>
</g>
<!-- Node24&#45;&gt;Node3 -->
<g id="edge39_Node000024_Node000003" class="edge">
<title>Node24&#45;&gt;Node3</title>
<g id="a_edge39_Node000024_Node000003"><a xlink:title=" ">
<path fill="none" stroke="#63b8ff" d="M550.38,-165.5C549.9,-148.25 548.84,-109.83 548.18,-86.06"/>
<polygon fill="#63b8ff" stroke="#63b8ff" points="551.69,-86.29 547.92,-76.39 544.69,-86.48 551.69,-86.29"/>
</a>
</g>
</g>
<!-- Node24&#45;&gt;Node23 -->
<g id="edge40_Node000024_Node000023" class="edge">
<title>Node24&#45;&gt;Node23</title>
<g id="a_edge40_Node000024_Node000023"><a xlink:title=" ">
<path fill="none" stroke="#63b8ff" d="M568.95,-165.34C585.7,-157.08 610.76,-144.73 630.13,-135.18"/>
<polygon fill="#63b8ff" stroke="#63b8ff" points="631.44,-138.43 638.86,-130.87 628.34,-132.15 631.44,-138.43"/>
</a>
</g>
</g>
</g>
</svg>
