<?xml version="1.0" encoding="UTF-8" standalone="no"?>
<!DOCTYPE svg PUBLIC "-//W3C//DTD SVG 1.1//EN"
 "http://www.w3.org/Graphics/SVG/1.1/DTD/svg11.dtd">
<!-- Generated by graphviz version 14.1.1 (20251213.1925)
 -->
<!-- Title: /Users/ghostface/CLionProjects/Ctorch_2.13/CTorch/src/dev/AutoDiff.cpp Pages: 1 -->
<svg width="1403pt" height="326pt"
 viewBox="0.00 0.00 1403.00 326.00" xmlns="http://www.w3.org/2000/svg" xmlns:xlink="http://www.w3.org/1999/xlink">
<g id="graph0" class="graph" transform="scale(1 1) rotate(0) translate(4 322)">
<title>/Users/ghostface/CLionProjects/Ctorch_2.13/CTorch/src/dev/AutoDiff.cpp</title>
<!-- Node1 -->
<g id="Node000001" class="node">
<title>Node1</title>
<g id="a_Node000001"><a xlink:title="Ctorch 自动微分系统实现">
<polygon fill="#999999" stroke="#666666" points="820.25,-318 664.75,-318 664.75,-276.25 820.25,-276.25 820.25,-318"/>
<text xml:space="preserve" text-anchor="start" x="672.75" y="-304.5" font-family="Helvetica,sans-Serif" font-size="10.00">/Users/ghostface/CLionProjects</text>
<text xml:space="preserve" text-anchor="start" x="672.75" y="-293.25" font-family="Helvetica,sans-Serif" font-size="10.00">/Ctorch_2.13/CTorch/src/dev</text>
<text xml:space="preserve" text-anchor="middle" x="742.5" y="-282" font-family="Helvetica,sans-Serif" font-size="10.00">/AutoDiff.cpp</text>
</a>
</g>
</g>
<!-- Node2 -->
<g id="Node000002" class="node">
<title>Node2</title>
<g id="a_Node000002"><a xlink:href="_auto_diff_8h.html" target="_top" xlink:title="Ctorch 自动微分系统">
<polygon fill="white" stroke="#666666" points="303.62,-185 243.38,-185 243.38,-165.75 303.62,-165.75 303.62,-185"/>
<text xml:space="preserve" text-anchor="middle" x="273.5" y="-171.5" font-family="Helvetica,sans-Serif" font-size="10.00">AutoDiff.h</text>
</a>
</g>
</g>
<!-- Node1&#45;&gt;Node2 -->
<g id="edge1_Node000001_Node000002" class="edge">
<title>Node1&#45;&gt;Node2</title>
<g id="a_edge1_Node000001_Node000002"><a xlink:title=" ">
<path fill="none" stroke="#63b8ff" d="M664.26,-276.15C563.78,-250.49 393.06,-206.9 314.85,-186.93"/>
<polygon fill="#63b8ff" stroke="#63b8ff" points="316.02,-183.62 305.47,-184.54 314.29,-190.4 316.02,-183.62"/>
</a>
</g>
</g>
<!-- Node21 -->
<g id="Node000021" class="node">
<title>Node21</title>
<g id="a_Node000021"><a xlink:href="_tensor_8h.html" target="_top" xlink:title="张量类和相关操作的定义">
<polygon fill="white" stroke="#666666" points="768.88,-240.25 716.12,-240.25 716.12,-221 768.88,-221 768.88,-240.25"/>
<text xml:space="preserve" text-anchor="middle" x="742.5" y="-226.75" font-family="Helvetica,sans-Serif" font-size="10.00">Tensor.h</text>
</a>
</g>
</g>
<!-- Node1&#45;&gt;Node21 -->
<g id="edge23_Node000001_Node000021" class="edge">
<title>Node1&#45;&gt;Node21</title>
<g id="a_edge23_Node000001_Node000021"><a xlink:title=" ">
<path fill="none" stroke="#63b8ff" d="M742.5,-276.07C742.5,-268.4 742.5,-259.64 742.5,-251.95"/>
<polygon fill="#63b8ff" stroke="#63b8ff" points="746,-252.21 742.5,-242.21 739,-252.21 746,-252.21"/>
</a>
</g>
</g>
<!-- Node32 -->
<g id="Node000032" class="node">
<title>Node32</title>
<g id="a_Node000032"><a xlink:title=" ">
<polygon fill="#e0e0e0" stroke="#999999" points="830,-240.25 787,-240.25 787,-221 830,-221 830,-240.25"/>
<text xml:space="preserve" text-anchor="middle" x="808.5" y="-226.75" font-family="Helvetica,sans-Serif" font-size="10.00">cmath</text>
</a>
</g>
</g>
<!-- Node1&#45;&gt;Node32 -->
<g id="edge59_Node000001_Node000032" class="edge">
<title>Node1&#45;&gt;Node32</title>
<g id="a_edge59_Node000001_Node000032"><a xlink:title=" ">
<path fill="none" stroke="#63b8ff" d="M763.02,-276.07C772.01,-267.29 782.44,-257.09 791.05,-248.68"/>
<polygon fill="#63b8ff" stroke="#63b8ff" points="793.43,-251.25 798.14,-241.75 788.54,-246.24 793.43,-251.25"/>
</a>
</g>
</g>
<!-- Node3 -->
<g id="Node000003" class="node">
<title>Node3</title>
<g id="a_Node000003"><a xlink:href="_ctools_8h.html" target="_top" xlink:title="Ctorch 通用工具类，包含通用枚举类型和辅助函数">
<polygon fill="white" stroke="#666666" points="467.88,-74.5 415.12,-74.5 415.12,-55.25 467.88,-55.25 467.88,-74.5"/>
<text xml:space="preserve" text-anchor="middle" x="441.5" y="-61" font-family="Helvetica,sans-Serif" font-size="10.00">Ctools.h</text>
</a>
</g>
</g>
<!-- Node2&#45;&gt;Node3 -->
<g id="edge2_Node000002_Node000003" class="edge">
<title>Node2&#45;&gt;Node3</title>
<g id="a_edge2_Node000002_Node000003"><a xlink:title=" ">
<path fill="none" stroke="#63b8ff" d="M273.59,-165.63C274.23,-151.97 277.46,-125.57 292.5,-110.5 321.94,-81.01 370.02,-70.86 403.58,-67.44"/>
<polygon fill="#63b8ff" stroke="#63b8ff" points="403.61,-70.95 413.28,-66.63 403.02,-63.98 403.61,-70.95"/>
</a>
</g>
</g>
<!-- Node13 -->
<g id="Node000013" class="node">
<title>Node13</title>
<g id="a_Node000013"><a xlink:title=" ">
<polygon fill="#e0e0e0" stroke="#999999" points="246,-19.25 203,-19.25 203,0 246,0 246,-19.25"/>
<text xml:space="preserve" text-anchor="middle" x="224.5" y="-5.75" font-family="Helvetica,sans-Serif" font-size="10.00">mutex</text>
</a>
</g>
</g>
<!-- Node2&#45;&gt;Node13 -->
<g id="edge20_Node000002_Node000013" class="edge">
<title>Node2&#45;&gt;Node13</title>
<g id="a_edge20_Node000002_Node000013"><a xlink:title=" ">
<path fill="none" stroke="#63b8ff" d="M270.87,-165.57C263.25,-140.14 241.1,-66.1 230.41,-30.37"/>
<polygon fill="#63b8ff" stroke="#63b8ff" points="233.8,-29.5 227.58,-20.92 227.1,-31.51 233.8,-29.5"/>
</a>
</g>
</g>
<!-- Node15 -->
<g id="Node000015" class="node">
<title>Node15</title>
<g id="a_Node000015"><a xlink:title=" ">
<polygon fill="#e0e0e0" stroke="#999999" points="43,-19.25 0,-19.25 0,0 43,0 43,-19.25"/>
<text xml:space="preserve" text-anchor="middle" x="21.5" y="-5.75" font-family="Helvetica,sans-Serif" font-size="10.00">vector</text>
</a>
</g>
</g>
<!-- Node2&#45;&gt;Node15 -->
<g id="edge17_Node000002_Node000015" class="edge">
<title>Node2&#45;&gt;Node15</title>
<g id="a_edge17_Node000002_Node000015"><a xlink:title=" ">
<path fill="none" stroke="#63b8ff" d="M242.96,-175.22C201.34,-174.78 126.5,-168.15 78.5,-129.75 46.82,-104.4 31.7,-57.17 25.38,-30.43"/>
<polygon fill="#63b8ff" stroke="#63b8ff" points="28.86,-29.95 23.33,-20.91 22.02,-31.42 28.86,-29.95"/>
</a>
</g>
</g>
<!-- Node16 -->
<g id="Node000016" class="node">
<title>Node16</title>
<g id="a_Node000016"><a xlink:title=" ">
<polygon fill="#e0e0e0" stroke="#999999" points="185.12,-19.25 133.88,-19.25 133.88,0 185.12,0 185.12,-19.25"/>
<text xml:space="preserve" text-anchor="middle" x="159.5" y="-5.75" font-family="Helvetica,sans-Serif" font-size="10.00">memory</text>
</a>
</g>
</g>
<!-- Node2&#45;&gt;Node16 -->
<g id="edge22_Node000002_Node000016" class="edge">
<title>Node2&#45;&gt;Node16</title>
<g id="a_edge22_Node000002_Node000016"><a xlink:title=" ">
<path fill="none" stroke="#63b8ff" d="M267.37,-165.57C249.36,-139.69 196.31,-63.5 171.97,-28.53"/>
<polygon fill="#63b8ff" stroke="#63b8ff" points="175.11,-26.92 166.52,-20.71 169.37,-30.92 175.11,-26.92"/>
</a>
</g>
</g>
<!-- Node18 -->
<g id="Node000018" class="node">
<title>Node18</title>
<g id="a_Node000018"><a xlink:title=" ">
<polygon fill="#e0e0e0" stroke="#999999" points="169.88,-129.75 87.12,-129.75 87.12,-110.5 169.88,-110.5 169.88,-129.75"/>
<text xml:space="preserve" text-anchor="middle" x="128.5" y="-116.25" font-family="Helvetica,sans-Serif" font-size="10.00">unordered_map</text>
</a>
</g>
</g>
<!-- Node2&#45;&gt;Node18 -->
<g id="edge18_Node000002_Node000018" class="edge">
<title>Node2&#45;&gt;Node18</title>
<g id="a_edge18_Node000002_Node000018"><a xlink:title=" ">
<path fill="none" stroke="#63b8ff" d="M248.9,-165.34C225.57,-156.77 190.26,-143.81 163.9,-134.13"/>
<polygon fill="#63b8ff" stroke="#63b8ff" points="165.23,-130.89 154.64,-130.72 162.82,-137.46 165.23,-130.89"/>
</a>
</g>
</g>
<!-- Node19 -->
<g id="Node000019" class="node">
<title>Node19</title>
<g id="a_Node000019"><a xlink:title=" ">
<polygon fill="#e0e0e0" stroke="#999999" points="379.25,-129.75 301.75,-129.75 301.75,-110.5 379.25,-110.5 379.25,-129.75"/>
<text xml:space="preserve" text-anchor="middle" x="340.5" y="-116.25" font-family="Helvetica,sans-Serif" font-size="10.00">unordered_set</text>
</a>
</g>
</g>
<!-- Node2&#45;&gt;Node19 -->
<g id="edge19_Node000002_Node000019" class="edge">
<title>Node2&#45;&gt;Node19</title>
<g id="a_edge19_Node000002_Node000019"><a xlink:title=" ">
<path fill="none" stroke="#63b8ff" d="M284.87,-165.34C294.55,-157.65 308.7,-146.4 320.31,-137.18"/>
<polygon fill="#63b8ff" stroke="#63b8ff" points="322.47,-139.93 328.12,-130.97 318.11,-134.45 322.47,-139.93"/>
</a>
</g>
</g>
<!-- Node20 -->
<g id="Node000020" class="node">
<title>Node20</title>
<g id="a_Node000020"><a xlink:title=" ">
<polygon fill="#e0e0e0" stroke="#999999" points="442.12,-129.75 396.88,-129.75 396.88,-110.5 442.12,-110.5 442.12,-129.75"/>
<text xml:space="preserve" text-anchor="middle" x="419.5" y="-116.25" font-family="Helvetica,sans-Serif" font-size="10.00">atomic</text>
</a>
</g>
</g>
<!-- Node2&#45;&gt;Node20 -->
<g id="edge21_Node000002_Node000020" class="edge">
<title>Node2&#45;&gt;Node20</title>
<g id="a_edge21_Node000002_Node000020"><a xlink:title=" ">
<path fill="none" stroke="#63b8ff" d="M298.27,-165.34C322.33,-156.57 359.04,-143.18 385.77,-133.43"/>
<polygon fill="#63b8ff" stroke="#63b8ff" points="386.92,-136.73 395.12,-130.02 384.52,-130.16 386.92,-136.73"/>
</a>
</g>
</g>
<!-- Node4 -->
<g id="Node000004" class="node">
<title>Node4</title>
<g id="a_Node000004"><a xlink:title=" ">
<polygon fill="#e0e0e0" stroke="#999999" points="309.12,-19.25 263.88,-19.25 263.88,0 309.12,0 309.12,-19.25"/>
<text xml:space="preserve" text-anchor="middle" x="286.5" y="-5.75" font-family="Helvetica,sans-Serif" font-size="10.00">cstring</text>
</a>
</g>
</g>
<!-- Node3&#45;&gt;Node4 -->
<g id="edge3_Node000003_Node000004" class="edge">
<title>Node3&#45;&gt;Node4</title>
<g id="a_edge3_Node000003_Node000004"><a xlink:title=" ">
<path fill="none" stroke="#63b8ff" d="M415.21,-54.84C388.98,-45.83 348.58,-31.95 320.05,-22.15"/>
<polygon fill="#63b8ff" stroke="#63b8ff" points="321.41,-18.92 310.81,-18.98 319.13,-25.54 321.41,-18.92"/>
</a>
</g>
</g>
<!-- Node5 -->
<g id="Node000005" class="node">
<title>Node5</title>
<g id="a_Node000005"><a xlink:title=" ">
<polygon fill="#e0e0e0" stroke="#999999" points="510.12,-19.25 464.88,-19.25 464.88,0 510.12,0 510.12,-19.25"/>
<text xml:space="preserve" text-anchor="middle" x="487.5" y="-5.75" font-family="Helvetica,sans-Serif" font-size="10.00">chrono</text>
</a>
</g>
</g>
<!-- Node3&#45;&gt;Node5 -->
<g id="edge4_Node000003_Node000005" class="edge">
<title>Node3&#45;&gt;Node5</title>
<g id="a_edge4_Node000003_Node000005"><a xlink:title=" ">
<path fill="none" stroke="#63b8ff" d="M449.1,-55.08C455.38,-47.8 464.51,-37.23 472.3,-28.23"/>
<polygon fill="#63b8ff" stroke="#63b8ff" points="474.86,-30.61 478.75,-20.75 469.56,-26.03 474.86,-30.61"/>
</a>
</g>
</g>
<!-- Node6 -->
<g id="Node000006" class="node">
<title>Node6</title>
<g id="a_Node000006"><a xlink:title=" ">
<polygon fill="#e0e0e0" stroke="#999999" points="573.12,-19.25 527.88,-19.25 527.88,0 573.12,0 573.12,-19.25"/>
<text xml:space="preserve" text-anchor="middle" x="550.5" y="-5.75" font-family="Helvetica,sans-Serif" font-size="10.00">cstdint</text>
</a>
</g>
</g>
<!-- Node3&#45;&gt;Node6 -->
<g id="edge5_Node000003_Node000006" class="edge">
<title>Node3&#45;&gt;Node6</title>
<g id="a_edge5_Node000003_Node000006"><a xlink:title=" ">
<path fill="none" stroke="#63b8ff" d="M459.99,-54.84C476.9,-46.58 502.19,-34.23 521.74,-24.68"/>
<polygon fill="#63b8ff" stroke="#63b8ff" points="523.11,-27.9 530.56,-20.37 520.04,-21.61 523.11,-27.9"/>
</a>
</g>
</g>
<!-- Node7 -->
<g id="Node000007" class="node">
<title>Node7</title>
<g id="a_Node000007"><a xlink:title=" ">
<polygon fill="#e0e0e0" stroke="#999999" points="631.5,-19.25 591.5,-19.25 591.5,0 631.5,0 631.5,-19.25"/>
<text xml:space="preserve" text-anchor="middle" x="611.5" y="-5.75" font-family="Helvetica,sans-Serif" font-size="10.00">ctime</text>
</a>
</g>
</g>
<!-- Node3&#45;&gt;Node7 -->
<g id="edge6_Node000003_Node000007" class="edge">
<title>Node3&#45;&gt;Node7</title>
<g id="a_edge6_Node000003_Node000007"><a xlink:title=" ">
<path fill="none" stroke="#63b8ff" d="M468.06,-55.55C498.55,-46 548.49,-30.36 580.67,-20.28"/>
<polygon fill="#63b8ff" stroke="#63b8ff" points="581.31,-23.75 589.8,-17.42 579.21,-17.07 581.31,-23.75"/>
</a>
</g>
</g>
<!-- Node8 -->
<g id="Node000008" class="node">
<title>Node8</title>
<g id="a_Node000008"><a xlink:title=" ">
<polygon fill="#e0e0e0" stroke="#999999" points="893.5,-19.25 853.5,-19.25 853.5,0 893.5,0 893.5,-19.25"/>
<text xml:space="preserve" text-anchor="middle" x="873.5" y="-5.75" font-family="Helvetica,sans-Serif" font-size="10.00">string</text>
</a>
</g>
</g>
<!-- Node3&#45;&gt;Node8 -->
<g id="edge7_Node000003_Node000008" class="edge">
<title>Node3&#45;&gt;Node8</title>
<g id="a_edge7_Node000003_Node000008"><a xlink:title=" ">
<path fill="none" stroke="#63b8ff" d="M468.16,-62.57C531.52,-59.13 696.14,-48.15 842.1,-19.4"/>
<polygon fill="#63b8ff" stroke="#63b8ff" points="842.42,-22.91 851.54,-17.51 841.04,-16.04 842.42,-22.91"/>
</a>
</g>
</g>
<!-- Node9 -->
<g id="Node000009" class="node">
<title>Node9</title>
<g id="a_Node000009"><a xlink:title=" ">
<polygon fill="#e0e0e0" stroke="#999999" points="767.12,-19.25 715.88,-19.25 715.88,0 767.12,0 767.12,-19.25"/>
<text xml:space="preserve" text-anchor="middle" x="741.5" y="-5.75" font-family="Helvetica,sans-Serif" font-size="10.00">sstream</text>
</a>
</g>
</g>
<!-- Node3&#45;&gt;Node9 -->
<g id="edge8_Node000003_Node000009" class="edge">
<title>Node3&#45;&gt;Node9</title>
<g id="a_edge8_Node000003_Node000009"><a xlink:title=" ">
<path fill="none" stroke="#63b8ff" d="M468.33,-60.04C514.44,-53.29 611.92,-38.4 704.32,-19.56"/>
<polygon fill="#63b8ff" stroke="#63b8ff" points="704.99,-23 714.07,-17.55 703.57,-16.14 704.99,-23"/>
</a>
</g>
</g>
<!-- Node10 -->
<g id="Node000010" class="node">
<title>Node10</title>
<g id="a_Node000010"><a xlink:title=" ">
<polygon fill="#e0e0e0" stroke="#999999" points="835.38,-19.25 785.62,-19.25 785.62,0 835.38,0 835.38,-19.25"/>
<text xml:space="preserve" text-anchor="middle" x="810.5" y="-5.75" font-family="Helvetica,sans-Serif" font-size="10.00">iomanip</text>
</a>
</g>
</g>
<!-- Node3&#45;&gt;Node10 -->
<g id="edge9_Node000003_Node000010" class="edge">
<title>Node3&#45;&gt;Node10</title>
<g id="a_edge9_Node000003_Node000010"><a xlink:title=" ">
<path fill="none" stroke="#63b8ff" d="M468.16,-61.39C523.38,-56 654.46,-42.06 774.15,-19.5"/>
<polygon fill="#63b8ff" stroke="#63b8ff" points="774.67,-22.96 783.84,-17.64 773.36,-16.09 774.67,-22.96"/>
</a>
</g>
</g>
<!-- Node11 -->
<g id="Node000011" class="node">
<title>Node11</title>
<g id="a_Node000011"><a xlink:title=" ">
<polygon fill="#e0e0e0" stroke="#999999" points="697.62,-19.25 649.38,-19.25 649.38,0 697.62,0 697.62,-19.25"/>
<text xml:space="preserve" text-anchor="middle" x="673.5" y="-5.75" font-family="Helvetica,sans-Serif" font-size="10.00">stdint.h</text>
</a>
</g>
</g>
<!-- Node3&#45;&gt;Node11 -->
<g id="edge10_Node000003_Node000011" class="edge">
<title>Node3&#45;&gt;Node11</title>
<g id="a_edge10_Node000003_Node000011"><a xlink:title=" ">
<path fill="none" stroke="#63b8ff" d="M468.29,-58.18C504.55,-50.4 571.53,-35.8 637.94,-19.81"/>
<polygon fill="#63b8ff" stroke="#63b8ff" points="638.65,-23.24 647.54,-17.48 637,-16.43 638.65,-23.24"/>
</a>
</g>
</g>
<!-- Node12 -->
<g id="Node000012" class="node">
<title>Node12</title>
<g id="a_Node000012"><a xlink:title=" ">
<polygon fill="#e0e0e0" stroke="#999999" points="385.88,-19.25 327.12,-19.25 327.12,0 385.88,0 385.88,-19.25"/>
<text xml:space="preserve" text-anchor="middle" x="356.5" y="-5.75" font-family="Helvetica,sans-Serif" font-size="10.00">inttypes.h</text>
</a>
</g>
</g>
<!-- Node3&#45;&gt;Node12 -->
<g id="edge11_Node000003_Node000012" class="edge">
<title>Node3&#45;&gt;Node12</title>
<g id="a_edge11_Node000003_Node000012"><a xlink:title=" ">
<path fill="none" stroke="#63b8ff" d="M427.08,-54.84C414.38,-46.89 395.63,-35.14 380.64,-25.75"/>
<polygon fill="#63b8ff" stroke="#63b8ff" points="382.6,-22.85 372.27,-20.51 378.89,-28.78 382.6,-22.85"/>
</a>
</g>
</g>
<!-- Node3&#45;&gt;Node13 -->
<g id="edge12_Node000003_Node000013" class="edge">
<title>Node3&#45;&gt;Node13</title>
<g id="a_edge12_Node000003_Node000013"><a xlink:title=" ">
<path fill="none" stroke="#63b8ff" d="M414.77,-57.9C380.45,-50.14 318.81,-35.92 257.46,-19.95"/>
<polygon fill="#63b8ff" stroke="#63b8ff" points="258.45,-16.59 247.89,-17.44 256.67,-23.36 258.45,-16.59"/>
</a>
</g>
</g>
<!-- Node14 -->
<g id="Node000014" class="node">
<title>Node14</title>
<g id="a_Node000014"><a xlink:title=" ">
<polygon fill="#e0e0e0" stroke="#999999" points="447,-19.25 404,-19.25 404,0 447,0 447,-19.25"/>
<text xml:space="preserve" text-anchor="middle" x="425.5" y="-5.75" font-family="Helvetica,sans-Serif" font-size="10.00">thread</text>
</a>
</g>
</g>
<!-- Node3&#45;&gt;Node14 -->
<g id="edge13_Node000003_Node000014" class="edge">
<title>Node3&#45;&gt;Node14</title>
<g id="a_edge13_Node000003_Node000014"><a xlink:title=" ">
<path fill="none" stroke="#63b8ff" d="M438.86,-55.08C436.86,-48.42 434.02,-38.99 431.48,-30.53"/>
<polygon fill="#63b8ff" stroke="#63b8ff" points="434.86,-29.63 428.64,-21.06 428.16,-31.64 434.86,-29.63"/>
</a>
</g>
</g>
<!-- Node3&#45;&gt;Node15 -->
<g id="edge14_Node000003_Node000015" class="edge">
<title>Node3&#45;&gt;Node15</title>
<g id="a_edge14_Node000003_Node000015"><a xlink:title=" ">
<path fill="none" stroke="#63b8ff" d="M414.91,-60.5C341.33,-51.17 135.15,-25.03 54.46,-14.8"/>
<polygon fill="#63b8ff" stroke="#63b8ff" points="54.93,-11.34 44.57,-13.55 54.05,-18.28 54.93,-11.34"/>
</a>
</g>
</g>
<!-- Node3&#45;&gt;Node16 -->
<g id="edge15_Node000003_Node000016" class="edge">
<title>Node3&#45;&gt;Node16</title>
<g id="a_edge15_Node000003_Node000016"><a xlink:title=" ">
<path fill="none" stroke="#63b8ff" d="M414.95,-59.73C371.35,-52.78 281.62,-37.93 196.59,-19.81"/>
<polygon fill="#63b8ff" stroke="#63b8ff" points="197.44,-16.41 186.92,-17.73 195.96,-23.25 197.44,-16.41"/>
</a>
</g>
</g>
<!-- Node17 -->
<g id="Node000017" class="node">
<title>Node17</title>
<g id="a_Node000017"><a xlink:title=" ">
<polygon fill="#e0e0e0" stroke="#999999" points="1195.25,-19.25 1141.75,-19.25 1141.75,0 1195.25,0 1195.25,-19.25"/>
<text xml:space="preserve" text-anchor="middle" x="1168.5" y="-5.75" font-family="Helvetica,sans-Serif" font-size="10.00">iostream</text>
</a>
</g>
</g>
<!-- Node3&#45;&gt;Node17 -->
<g id="edge16_Node000003_Node000017" class="edge">
<title>Node3&#45;&gt;Node17</title>
<g id="a_edge16_Node000003_Node000017"><a xlink:title=" ">
<path fill="none" stroke="#63b8ff" d="M468.24,-61.92C578.78,-53.82 1000.43,-22.94 1130.23,-13.43"/>
<polygon fill="#63b8ff" stroke="#63b8ff" points="1130.29,-16.93 1140.01,-12.71 1129.78,-9.95 1130.29,-16.93"/>
</a>
</g>
</g>
<!-- Node21&#45;&gt;Node2 -->
<g id="edge58_Node000021_Node000002" class="edge">
<title>Node21&#45;&gt;Node2</title>
<g id="a_edge58_Node000021_Node000002"><a xlink:title=" ">
<path fill="none" stroke="#63b8ff" d="M715.68,-226.63C651.86,-219.49 486,-200.89 347.5,-185 337.14,-183.81 325.96,-182.51 315.51,-181.3"/>
<polygon fill="#63b8ff" stroke="#63b8ff" points="315.94,-177.82 305.6,-180.14 315.13,-184.78 315.94,-177.82"/>
</a>
</g>
</g>
<!-- Node21&#45;&gt;Node3 -->
<g id="edge57_Node000021_Node000003" class="edge">
<title>Node21&#45;&gt;Node3</title>
<g id="a_edge57_Node000021_Node000003"><a xlink:title=" ">
<path fill="none" stroke="#63b8ff" d="M715.81,-226.3C681.8,-221.22 621.98,-209.43 576.5,-185 550.31,-170.93 488.5,-112 458.47,-82.64"/>
<polygon fill="#63b8ff" stroke="#63b8ff" points="461.24,-80.45 451.65,-75.94 456.33,-85.45 461.24,-80.45"/>
</a>
</g>
</g>
<!-- Node21&#45;&gt;Node4 -->
<g id="edge51_Node000021_Node000004" class="edge">
<title>Node21&#45;&gt;Node4</title>
<g id="a_edge51_Node000021_Node000004"><a xlink:title=" ">
<path fill="none" stroke="#63b8ff" d="M715.76,-227.2C677.04,-222.89 603.84,-211.69 547.5,-185 498.69,-161.88 499.2,-135.83 451.5,-110.5 406.07,-86.38 384.3,-103.04 341.5,-74.5 323.47,-62.48 307.9,-43 297.97,-28.7"/>
<polygon fill="#63b8ff" stroke="#63b8ff" points="301.08,-27.05 292.63,-20.66 295.24,-30.92 301.08,-27.05"/>
</a>
</g>
</g>
<!-- Node21&#45;&gt;Node8 -->
<g id="edge53_Node000021_Node000008" class="edge">
<title>Node21&#45;&gt;Node8</title>
<g id="a_edge53_Node000021_Node000008"><a xlink:title=" ">
<path fill="none" stroke="#63b8ff" d="M749.15,-220.55C755.59,-211.64 765.53,-197.6 773.5,-185 808.54,-129.59 846,-61.61 863.46,-29.34"/>
<polygon fill="#63b8ff" stroke="#63b8ff" points="866.39,-31.29 868.05,-20.82 860.23,-27.97 866.39,-31.29"/>
</a>
</g>
</g>
<!-- Node21&#45;&gt;Node9 -->
<g id="edge49_Node000021_Node000009" class="edge">
<title>Node21&#45;&gt;Node9</title>
<g id="a_edge49_Node000021_Node000009"><a xlink:title=" ">
<path fill="none" stroke="#63b8ff" d="M742.46,-220.77C742.31,-188.51 741.8,-76.76 741.59,-30.71"/>
<polygon fill="#63b8ff" stroke="#63b8ff" points="745.09,-30.85 741.55,-20.87 738.09,-30.88 745.09,-30.85"/>
</a>
</g>
</g>
<!-- Node21&#45;&gt;Node10 -->
<g id="edge52_Node000021_Node000010" class="edge">
<title>Node21&#45;&gt;Node10</title>
<g id="a_edge52_Node000021_Node000010"><a xlink:title=" ">
<path fill="none" stroke="#63b8ff" d="M745.25,-220.77C755.31,-188.37 790.26,-75.8 804.45,-30.12"/>
<polygon fill="#63b8ff" stroke="#63b8ff" points="807.72,-31.39 807.34,-20.8 801.03,-29.31 807.72,-31.39"/>
</a>
</g>
</g>
<!-- Node21&#45;&gt;Node15 -->
<g id="edge48_Node000021_Node000015" class="edge">
<title>Node21&#45;&gt;Node15</title>
<g id="a_edge48_Node000021_Node000015"><a xlink:title=" ">
<path fill="none" stroke="#63b8ff" d="M715.91,-228.79C603.45,-225.14 170.11,-209.57 114.5,-185 57.58,-159.85 46.24,-134.15 28.5,-74.5 24.25,-60.23 22.53,-43.47 21.86,-30.7"/>
<polygon fill="#63b8ff" stroke="#63b8ff" points="25.37,-30.89 21.53,-21.01 18.37,-31.13 25.37,-30.89"/>
</a>
</g>
</g>
<!-- Node21&#45;&gt;Node16 -->
<g id="edge45_Node000021_Node000016" class="edge">
<title>Node21&#45;&gt;Node16</title>
<g id="a_edge45_Node000021_Node000016"><a xlink:title=" ">
<path fill="none" stroke="#63b8ff" d="M715.7,-229.64C639.48,-229.17 415.32,-224.3 234.5,-185 162.62,-169.38 120.95,-189.82 78.5,-129.75 52.47,-92.92 103.31,-48.86 135.64,-26.04"/>
<polygon fill="#63b8ff" stroke="#63b8ff" points="137.43,-29.05 143.72,-20.52 133.49,-23.27 137.43,-29.05"/>
</a>
</g>
</g>
<!-- Node21&#45;&gt;Node17 -->
<g id="edge44_Node000021_Node000017" class="edge">
<title>Node21&#45;&gt;Node17</title>
<g id="a_edge44_Node000021_Node000017"><a xlink:title=" ">
<path fill="none" stroke="#63b8ff" d="M769.13,-222.69C772.28,-222.04 775.45,-221.45 778.5,-221 844.67,-211.17 1333.63,-233.7 1379.5,-185 1443.94,-116.58 1282.88,-49.8 1206.28,-22.97"/>
<polygon fill="#63b8ff" stroke="#63b8ff" points="1207.66,-19.74 1197.06,-19.79 1205.38,-26.36 1207.66,-19.74"/>
</a>
</g>
</g>
<!-- Node21&#45;&gt;Node19 -->
<g id="edge54_Node000021_Node000019" class="edge">
<title>Node21&#45;&gt;Node19</title>
<g id="a_edge54_Node000021_Node000019"><a xlink:title=" ">
<path fill="none" stroke="#63b8ff" d="M715.94,-229.74C661.32,-229.13 533.22,-223.33 434.5,-185 405.52,-173.75 376.61,-152.16 358.66,-137.21"/>
<polygon fill="#63b8ff" stroke="#63b8ff" points="361.36,-134.91 351.48,-131.07 356.81,-140.23 361.36,-134.91"/>
</a>
</g>
</g>
<!-- Node21&#45;&gt;Node20 -->
<g id="edge25_Node000021_Node000020" class="edge">
<title>Node21&#45;&gt;Node20</title>
<g id="a_edge25_Node000021_Node000020"><a xlink:title=" ">
<path fill="none" stroke="#63b8ff" d="M715.75,-228.36C653,-224.94 498.49,-213.74 456.5,-185 440.98,-174.38 431.09,-154.94 425.48,-140.29"/>
<polygon fill="#63b8ff" stroke="#63b8ff" points="428.94,-139.56 422.37,-131.25 422.32,-141.85 428.94,-139.56"/>
</a>
</g>
</g>
<!-- Node22 -->
<g id="Node000022" class="node">
<title>Node22</title>
<g id="a_Node000022"><a xlink:title=" ">
<polygon fill="#e0e0e0" stroke="#999999" points="883.38,-185 827.62,-185 827.62,-165.75 883.38,-165.75 883.38,-185"/>
<text xml:space="preserve" text-anchor="middle" x="855.5" y="-171.5" font-family="Helvetica,sans-Serif" font-size="10.00">algorithm</text>
</a>
</g>
</g>
<!-- Node21&#45;&gt;Node22 -->
<g id="edge24_Node000021_Node000022" class="edge">
<title>Node21&#45;&gt;Node22</title>
<g id="a_edge24_Node000021_Node000022"><a xlink:title=" ">
<path fill="none" stroke="#63b8ff" d="M761.67,-220.59C779.28,-212.29 805.66,-199.86 825.96,-190.29"/>
<polygon fill="#63b8ff" stroke="#63b8ff" points="827.31,-193.53 834.87,-186.1 824.33,-187.19 827.31,-193.53"/>
</a>
</g>
</g>
<!-- Node23 -->
<g id="Node000023" class="node">
<title>Node23</title>
<g id="a_Node000023"><a xlink:title=" ">
<polygon fill="#e0e0e0" stroke="#999999" points="949.62,-185 901.38,-185 901.38,-165.75 949.62,-165.75 949.62,-185"/>
<text xml:space="preserve" text-anchor="middle" x="925.5" y="-171.5" font-family="Helvetica,sans-Serif" font-size="10.00">cstddef</text>
</a>
</g>
</g>
<!-- Node21&#45;&gt;Node23 -->
<g id="edge26_Node000021_Node000023" class="edge">
<title>Node21&#45;&gt;Node23</title>
<g id="a_edge26_Node000021_Node000023"><a xlink:title=" ">
<path fill="none" stroke="#63b8ff" d="M769.11,-221.88C801.04,-212.59 854.7,-196.98 890.11,-186.67"/>
<polygon fill="#63b8ff" stroke="#63b8ff" points="890.83,-190.11 899.46,-183.95 888.88,-183.39 890.83,-190.11"/>
</a>
</g>
</g>
<!-- Node24 -->
<g id="Node000024" class="node">
<title>Node24</title>
<g id="a_Node000024"><a xlink:href="_ctorch___error_8h.html" target="_top" xlink:title="Ctorch 错误处理类">
<polygon fill="white" stroke="#666666" points="654,-129.75 575,-129.75 575,-110.5 654,-110.5 654,-129.75"/>
<text xml:space="preserve" text-anchor="middle" x="614.5" y="-116.25" font-family="Helvetica,sans-Serif" font-size="10.00">Ctorch_Error.h</text>
</a>
</g>
</g>
<!-- Node21&#45;&gt;Node24 -->
<g id="edge27_Node000021_Node000024" class="edge">
<title>Node21&#45;&gt;Node24</title>
<g id="a_edge27_Node000021_Node000024"><a xlink:title=" ">
<path fill="none" stroke="#63b8ff" d="M732.03,-220.75C710.55,-202.55 661.27,-160.77 633.83,-137.51"/>
<polygon fill="#63b8ff" stroke="#63b8ff" points="636.17,-134.9 626.27,-131.11 631.64,-140.24 636.17,-134.9"/>
</a>
</g>
</g>
<!-- Node25 -->
<g id="Node000025" class="node">
<title>Node25</title>
<g id="a_Node000025"><a xlink:href="_storage_8h.html" target="_top" xlink:title="Ctorch 存储类，用于管理张量数据的底层存储">
<polygon fill="white" stroke="#666666" points="643.5,-185 585.5,-185 585.5,-165.75 643.5,-165.75 643.5,-185"/>
<text xml:space="preserve" text-anchor="middle" x="614.5" y="-171.5" font-family="Helvetica,sans-Serif" font-size="10.00">Storage.h</text>
</a>
</g>
</g>
<!-- Node21&#45;&gt;Node25 -->
<g id="edge40_Node000021_Node000025" class="edge">
<title>Node21&#45;&gt;Node25</title>
<g id="a_edge40_Node000021_Node000025"><a xlink:title=" ">
<path fill="none" stroke="#63b8ff" d="M720.79,-220.59C700.47,-212.14 669.85,-199.4 646.69,-189.77"/>
<polygon fill="#63b8ff" stroke="#63b8ff" points="648.29,-186.64 637.72,-186.03 645.61,-193.11 648.29,-186.64"/>
</a>
</g>
</g>
<!-- Node26 -->
<g id="Node000026" class="node">
<title>Node26</title>
<g id="a_Node000026"><a xlink:title=" ">
<polygon fill="#e0e0e0" stroke="#999999" points="1039.62,-185 967.38,-185 967.38,-165.75 1039.62,-165.75 1039.62,-185"/>
<text xml:space="preserve" text-anchor="middle" x="1003.5" y="-171.5" font-family="Helvetica,sans-Serif" font-size="10.00">initializer_list</text>
</a>
</g>
</g>
<!-- Node21&#45;&gt;Node26 -->
<g id="edge43_Node000021_Node000026" class="edge">
<title>Node21&#45;&gt;Node26</title>
<g id="a_edge43_Node000021_Node000026"><a xlink:title=" ">
<path fill="none" stroke="#63b8ff" d="M769.21,-223.1C772.34,-222.38 775.49,-221.66 778.5,-221 811.71,-213.73 900.7,-196.31 956.3,-185.51"/>
<polygon fill="#63b8ff" stroke="#63b8ff" points="956.65,-189.01 965.8,-183.67 955.32,-182.13 956.65,-189.01"/>
</a>
</g>
</g>
<!-- Node27 -->
<g id="Node000027" class="node">
<title>Node27</title>
<g id="a_Node000027"><a xlink:title=" ">
<polygon fill="#e0e0e0" stroke="#999999" points="1107.75,-185 1057.25,-185 1057.25,-165.75 1107.75,-165.75 1107.75,-185"/>
<text xml:space="preserve" text-anchor="middle" x="1082.5" y="-171.5" font-family="Helvetica,sans-Serif" font-size="10.00">numeric</text>
</a>
</g>
</g>
<!-- Node21&#45;&gt;Node27 -->
<g id="edge46_Node000021_Node000027" class="edge">
<title>Node21&#45;&gt;Node27</title>
<g id="a_edge46_Node000021_Node000027"><a xlink:title=" ">
<path fill="none" stroke="#63b8ff" d="M769.17,-222.91C772.31,-222.22 775.47,-221.56 778.5,-221 893.92,-199.54 927.6,-207.4 1045.64,-185.35"/>
<polygon fill="#63b8ff" stroke="#63b8ff" points="1046.3,-188.79 1055.46,-183.48 1044.99,-181.91 1046.3,-188.79"/>
</a>
</g>
</g>
<!-- Node28 -->
<g id="Node000028" class="node">
<title>Node28</title>
<g id="a_Node000028"><a xlink:title=" ">
<polygon fill="#e0e0e0" stroke="#999999" points="1184.88,-185 1126.12,-185 1126.12,-165.75 1184.88,-165.75 1184.88,-185"/>
<text xml:space="preserve" text-anchor="middle" x="1155.5" y="-171.5" font-family="Helvetica,sans-Serif" font-size="10.00">stdexcept</text>
</a>
</g>
</g>
<!-- Node21&#45;&gt;Node28 -->
<g id="edge47_Node000021_Node000028" class="edge">
<title>Node21&#45;&gt;Node28</title>
<g id="a_edge47_Node000021_Node000028"><a xlink:title=" ">
<path fill="none" stroke="#63b8ff" d="M769.16,-222.83C772.29,-222.15 775.46,-221.52 778.5,-221 923.89,-195.95 965.47,-208.71 1114.81,-185.08"/>
<polygon fill="#63b8ff" stroke="#63b8ff" points="1114.95,-188.6 1124.26,-183.55 1113.83,-181.69 1114.95,-188.6"/>
</a>
</g>
</g>
<!-- Node29 -->
<g id="Node000029" class="node">
<title>Node29</title>
<g id="a_Node000029"><a xlink:title=" ">
<polygon fill="#e0e0e0" stroke="#999999" points="1260.5,-185 1202.5,-185 1202.5,-165.75 1260.5,-165.75 1260.5,-185"/>
<text xml:space="preserve" text-anchor="middle" x="1231.5" y="-171.5" font-family="Helvetica,sans-Serif" font-size="10.00">functional</text>
</a>
</g>
</g>
<!-- Node21&#45;&gt;Node29 -->
<g id="edge50_Node000021_Node000029" class="edge">
<title>Node21&#45;&gt;Node29</title>
<g id="a_edge50_Node000021_Node000029"><a xlink:title=" ">
<path fill="none" stroke="#63b8ff" d="M769.15,-222.77C772.29,-222.11 775.45,-221.49 778.5,-221 957.59,-191.94 1008.55,-212.69 1190.78,-185.21"/>
<polygon fill="#63b8ff" stroke="#63b8ff" points="1191.27,-188.67 1200.62,-183.69 1190.21,-181.75 1191.27,-188.67"/>
</a>
</g>
</g>
<!-- Node30 -->
<g id="Node000030" class="node">
<title>Node30</title>
<g id="a_Node000030"><a xlink:title=" ">
<polygon fill="#e0e0e0" stroke="#999999" points="1318.12,-185 1278.88,-185 1278.88,-165.75 1318.12,-165.75 1318.12,-185"/>
<text xml:space="preserve" text-anchor="middle" x="1298.5" y="-171.5" font-family="Helvetica,sans-Serif" font-size="10.00">limits</text>
</a>
</g>
</g>
<!-- Node21&#45;&gt;Node30 -->
<g id="edge55_Node000021_Node000030" class="edge">
<title>Node21&#45;&gt;Node30</title>
<g id="a_edge55_Node000021_Node000030"><a xlink:title=" ">
<path fill="none" stroke="#63b8ff" d="M769.14,-222.73C772.28,-222.07 775.45,-221.47 778.5,-221 991.12,-187.96 1052.25,-223.21 1267.63,-184.89"/>
<polygon fill="#63b8ff" stroke="#63b8ff" points="1267.97,-188.39 1277.18,-183.16 1266.72,-181.5 1267.97,-188.39"/>
</a>
</g>
</g>
<!-- Node31 -->
<g id="Node000031" class="node">
<title>Node31</title>
<g id="a_Node000031"><a xlink:title=" ">
<polygon fill="#e0e0e0" stroke="#999999" points="1370.88,-185 1336.12,-185 1336.12,-165.75 1370.88,-165.75 1370.88,-185"/>
<text xml:space="preserve" text-anchor="middle" x="1353.5" y="-171.5" font-family="Helvetica,sans-Serif" font-size="10.00">map</text>
</a>
</g>
</g>
<!-- Node21&#45;&gt;Node31 -->
<g id="edge56_Node000021_Node000031" class="edge">
<title>Node21&#45;&gt;Node31</title>
<g id="a_edge56_Node000021_Node000031"><a xlink:title=" ">
<path fill="none" stroke="#63b8ff" d="M769.14,-222.71C772.28,-222.05 775.45,-221.46 778.5,-221 1016.61,-184.94 1085.44,-230.46 1324.61,-185.08"/>
<polygon fill="#63b8ff" stroke="#63b8ff" points="1325.12,-188.55 1334.27,-183.21 1323.79,-181.67 1325.12,-188.55"/>
</a>
</g>
</g>
<!-- Node24&#45;&gt;Node3 -->
<g id="edge39_Node000024_Node000003" class="edge">
<title>Node24&#45;&gt;Node3</title>
<g id="a_edge39_Node000024_Node000003"><a xlink:title=" ">
<path fill="none" stroke="#63b8ff" d="M585.15,-110.09C555.83,-101.07 510.66,-87.16 478.81,-77.36"/>
<polygon fill="#63b8ff" stroke="#63b8ff" points="480.18,-74.12 469.59,-74.52 478.12,-80.81 480.18,-74.12"/>
</a>
</g>
</g>
<!-- Node24&#45;&gt;Node4 -->
<g id="edge28_Node000024_Node000004" class="edge">
<title>Node24&#45;&gt;Node4</title>
<g id="a_edge28_Node000024_Node000004"><a xlink:title=" ">
<path fill="none" stroke="#63b8ff" d="M574.78,-116.39C527.27,-112.02 446.05,-101.08 381.5,-74.5 352.84,-62.7 323.84,-41.57 305.55,-26.86"/>
<polygon fill="#63b8ff" stroke="#63b8ff" points="307.9,-24.26 297.96,-20.6 303.45,-29.66 307.9,-24.26"/>
</a>
</g>
</g>
<!-- Node24&#45;&gt;Node5 -->
<g id="edge29_Node000024_Node000005" class="edge">
<title>Node24&#45;&gt;Node5</title>
<g id="a_edge29_Node000024_Node000005"><a xlink:title=" ">
<path fill="none" stroke="#63b8ff" d="M604.11,-110.25C582.8,-92.05 533.9,-50.27 506.68,-27.01"/>
<polygon fill="#63b8ff" stroke="#63b8ff" points="509.06,-24.44 499.19,-20.61 504.52,-29.77 509.06,-24.44"/>
</a>
</g>
</g>
<!-- Node24&#45;&gt;Node6 -->
<g id="edge30_Node000024_Node000006" class="edge">
<title>Node24&#45;&gt;Node6</title>
<g id="a_edge30_Node000024_Node000006"><a xlink:title=" ">
<path fill="none" stroke="#63b8ff" d="M609.26,-110.25C598.9,-92.68 575.59,-53.16 561.64,-29.52"/>
<polygon fill="#63b8ff" stroke="#63b8ff" points="564.67,-27.77 556.58,-20.93 558.64,-31.32 564.67,-27.77"/>
</a>
</g>
</g>
<!-- Node24&#45;&gt;Node7 -->
<g id="edge31_Node000024_Node000007" class="edge">
<title>Node24&#45;&gt;Node7</title>
<g id="a_edge31_Node000024_Node000007"><a xlink:title=" ">
<path fill="none" stroke="#63b8ff" d="M614.25,-110.25C613.78,-93 612.72,-54.58 612.06,-30.81"/>
<polygon fill="#63b8ff" stroke="#63b8ff" points="615.57,-31.04 611.79,-21.14 608.57,-31.23 615.57,-31.04"/>
</a>
</g>
</g>
<!-- Node24&#45;&gt;Node8 -->
<g id="edge32_Node000024_Node000008" class="edge">
<title>Node24&#45;&gt;Node8</title>
<g id="a_edge32_Node000024_Node000008"><a xlink:title=" ">
<path fill="none" stroke="#63b8ff" d="M637.75,-110.1C660.46,-101.23 695.97,-87.21 726.5,-74.5 766.82,-57.71 812.95,-37.5 842.62,-24.37"/>
<polygon fill="#63b8ff" stroke="#63b8ff" points="844.03,-27.58 851.75,-20.32 841.19,-21.18 844.03,-27.58"/>
</a>
</g>
</g>
<!-- Node24&#45;&gt;Node9 -->
<g id="edge33_Node000024_Node000009" class="edge">
<title>Node24&#45;&gt;Node9</title>
<g id="a_edge33_Node000024_Node000009"><a xlink:title=" ">
<path fill="none" stroke="#63b8ff" d="M624.89,-110.25C646.2,-92.05 695.1,-50.27 722.32,-27.01"/>
<polygon fill="#63b8ff" stroke="#63b8ff" points="724.48,-29.77 729.81,-20.61 719.94,-24.44 724.48,-29.77"/>
</a>
</g>
</g>
<!-- Node24&#45;&gt;Node10 -->
<g id="edge34_Node000024_Node000010" class="edge">
<title>Node24&#45;&gt;Node10</title>
<g id="a_edge34_Node000024_Node000010"><a xlink:title=" ">
<path fill="none" stroke="#63b8ff" d="M630.87,-110.06C664.81,-91.27 743.09,-47.94 784.2,-25.18"/>
<polygon fill="#63b8ff" stroke="#63b8ff" points="785.66,-28.38 792.71,-20.47 782.27,-22.25 785.66,-28.38"/>
</a>
</g>
</g>
<!-- Node24&#45;&gt;Node11 -->
<g id="edge35_Node000024_Node000011" class="edge">
<title>Node24&#45;&gt;Node11</title>
<g id="a_edge35_Node000024_Node000011"><a xlink:title=" ">
<path fill="none" stroke="#63b8ff" d="M619.33,-110.25C628.88,-92.68 650.37,-53.16 663.23,-29.52"/>
<polygon fill="#63b8ff" stroke="#63b8ff" points="666.18,-31.41 667.88,-20.96 660.03,-28.07 666.18,-31.41"/>
</a>
</g>
</g>
<!-- Node24&#45;&gt;Node12 -->
<g id="edge36_Node000024_Node000012" class="edge">
<title>Node24&#45;&gt;Node12</title>
<g id="a_edge36_Node000024_Node000012"><a xlink:title=" ">
<path fill="none" stroke="#63b8ff" d="M574.72,-118.51C530.5,-116.12 458.48,-107.01 406.5,-74.5 388.99,-63.55 375.14,-44.19 366.5,-29.64"/>
<polygon fill="#63b8ff" stroke="#63b8ff" points="369.6,-28.02 361.67,-21 363.49,-31.44 369.6,-28.02"/>
</a>
</g>
</g>
<!-- Node24&#45;&gt;Node13 -->
<g id="edge37_Node000024_Node000013" class="edge">
<title>Node24&#45;&gt;Node13</title>
<g id="a_edge37_Node000024_Node000013"><a xlink:title=" ">
<path fill="none" stroke="#63b8ff" d="M574.6,-116.82C520.5,-112.75 421.44,-101.96 341.5,-74.5 306.58,-62.5 269.73,-40.65 246.93,-25.88"/>
<polygon fill="#63b8ff" stroke="#63b8ff" points="249.04,-23.08 238.77,-20.49 245.18,-28.92 249.04,-23.08"/>
</a>
</g>
</g>
<!-- Node24&#45;&gt;Node14 -->
<g id="edge38_Node000024_Node000014" class="edge">
<title>Node24&#45;&gt;Node14</title>
<g id="a_edge38_Node000024_Node000014"><a xlink:title=" ">
<path fill="none" stroke="#63b8ff" d="M598.71,-110.06C566.05,-91.31 490.82,-48.12 451.12,-25.33"/>
<polygon fill="#63b8ff" stroke="#63b8ff" points="453.1,-22.44 442.69,-20.49 449.62,-28.51 453.1,-22.44"/>
</a>
</g>
</g>
<!-- Node25&#45;&gt;Node3 -->
<g id="edge41_Node000025_Node000003" class="edge">
<title>Node25&#45;&gt;Node3</title>
<g id="a_edge41_Node000025_Node000003"><a xlink:title=" ">
<path fill="none" stroke="#63b8ff" d="M602.27,-165.28C584.9,-152.5 551.91,-128.74 522.5,-110.5 505.04,-99.67 484.8,-88.52 468.91,-80.07"/>
<polygon fill="#63b8ff" stroke="#63b8ff" points="471,-77.21 460.52,-75.64 467.73,-83.4 471,-77.21"/>
</a>
</g>
</g>
<!-- Node25&#45;&gt;Node24 -->
<g id="edge42_Node000025_Node000024" class="edge">
<title>Node25&#45;&gt;Node24</title>
<g id="a_edge42_Node000025_Node000024"><a xlink:title=" ">
<path fill="none" stroke="#63b8ff" d="M614.5,-165.58C614.5,-159.07 614.5,-149.92 614.5,-141.62"/>
<polygon fill="#63b8ff" stroke="#63b8ff" points="618,-141.62 614.5,-131.62 611,-141.62 618,-141.62"/>
</a>
</g>
</g>
</g>
</svg>
