<?xml version="1.0" encoding="UTF-8" standalone="no"?>
<!DOCTYPE svg PUBLIC "-//W3C//DTD SVG 1.1//EN"
 "http://www.w3.org/Graphics/SVG/1.1/DTD/svg11.dtd">
<!-- Generated by graphviz version 14.1.1 (20251213.1925)
 -->
<!-- Title: AutoDiff.h Pages: 1 -->
<svg width="513pt" height="193pt"
 viewBox="0.00 0.00 513.00 193.00" xmlns="http://www.w3.org/2000/svg" xmlns:xlink="http://www.w3.org/1999/xlink">
<g id="graph0" class="graph" transform="scale(1 1) rotate(0) translate(4 189)">
<title>AutoDiff.h</title>
<!-- Node1 -->
<g id="Node000001" class="node">
<title>Node1</title>
<g id="a_Node000001"><a xlink:title="Ctorch 自动微分系统">
<polygon fill="#999999" stroke="#666666" points="187.5,-185 127.25,-185 127.25,-165.75 187.5,-165.75 187.5,-185"/>
<text xml:space="preserve" text-anchor="middle" x="157.38" y="-171.5" font-family="Helvetica,sans-Serif" font-size="10.00">AutoDiff.h</text>
</a>
</g>
</g>
<!-- Node2 -->
<g id="Node000002" class="node">
<title>Node2</title>
<g id="a_Node000002"><a xlink:href="_auto_diff_8cpp.html" target="_top" xlink:title="Ctorch 自动微分系统实现">
<polygon fill="white" stroke="#666666" points="70.75,-74.5 0,-74.5 0,-55.25 70.75,-55.25 70.75,-74.5"/>
<text xml:space="preserve" text-anchor="middle" x="35.38" y="-61" font-family="Helvetica,sans-Serif" font-size="10.00">AutoDiff.cpp</text>
</a>
</g>
</g>
<!-- Node1&#45;&gt;Node2 -->
<g id="edge1_Node000001_Node000002" class="edge">
<title>Node1&#45;&gt;Node2</title>
<g id="a_edge1_Node000001_Node000002"><a xlink:title=" ">
<path fill="none" stroke="#63b8ff" d="M139.12,-158.14C113.07,-134.97 66.08,-93.18 45.5,-74.88"/>
<polygon fill="#63b8ff" stroke="#63b8ff" points="136.46,-160.46 146.26,-164.49 141.11,-155.23 136.46,-160.46"/>
</a>
</g>
</g>
<!-- Node3 -->
<g id="Node000003" class="node">
<title>Node3</title>
<g id="a_Node000003"><a xlink:href="_tensor_8h.html" target="_top" xlink:title="张量类和相关操作的定义">
<polygon fill="white" stroke="#666666" points="256.75,-129.75 204,-129.75 204,-110.5 256.75,-110.5 256.75,-129.75"/>
<text xml:space="preserve" text-anchor="middle" x="230.38" y="-116.25" font-family="Helvetica,sans-Serif" font-size="10.00">Tensor.h</text>
</a>
</g>
</g>
<!-- Node1&#45;&gt;Node3 -->
<g id="edge2_Node000001_Node000003" class="edge">
<title>Node1&#45;&gt;Node3</title>
<g id="a_edge2_Node000001_Node000003"><a xlink:title=" ">
<path fill="none" stroke="#63b8ff" d="M178.84,-158.72C191.66,-149.37 207.47,-137.83 218.17,-130.02"/>
<polygon fill="#63b8ff" stroke="#63b8ff" points="177,-155.73 170.98,-164.45 181.12,-161.38 177,-155.73"/>
</a>
</g>
</g>
<!-- Node3&#45;&gt;Node2 -->
<g id="edge3_Node000003_Node000002" class="edge">
<title>Node3&#45;&gt;Node2</title>
<g id="a_edge3_Node000003_Node000002"><a xlink:title=" ">
<path fill="none" stroke="#63b8ff" d="M192.66,-108.82C156.68,-99 103.01,-84.34 68.6,-74.95"/>
<polygon fill="#63b8ff" stroke="#63b8ff" points="191.64,-112.18 202.21,-111.43 193.49,-105.42 191.64,-112.18"/>
</a>
</g>
</g>
<!-- Node4 -->
<g id="Node000004" class="node">
<title>Node4</title>
<g id="a_Node000004"><a xlink:href="_ctorch___scheduler_8h.html" target="_top" xlink:title="Ctorch 框架的核心调度器类">
<polygon fill="white" stroke="#666666" points="464.12,-74.5 362.62,-74.5 362.62,-55.25 464.12,-55.25 464.12,-74.5"/>
<text xml:space="preserve" text-anchor="middle" x="413.38" y="-61" font-family="Helvetica,sans-Serif" font-size="10.00">Ctorch_Scheduler.h</text>
</a>
</g>
</g>
<!-- Node3&#45;&gt;Node4 -->
<g id="edge4_Node000003_Node000004" class="edge">
<title>Node3&#45;&gt;Node4</title>
<g id="a_edge4_Node000003_Node000004"><a xlink:title=" ">
<path fill="none" stroke="#63b8ff" d="M267.78,-108.24C301.49,-98.43 350.48,-84.18 382.13,-74.97"/>
<polygon fill="#63b8ff" stroke="#63b8ff" points="267.06,-104.8 258.44,-110.96 269.02,-111.53 267.06,-104.8"/>
</a>
</g>
</g>
<!-- Node5 -->
<g id="Node000005" class="node">
<title>Node5</title>
<g id="a_Node000005"><a xlink:href="_tensor_8cpp.html" target="_top" xlink:title="张量类的实现">
<polygon fill="white" stroke="#666666" points="212,-19.25 148.75,-19.25 148.75,0 212,0 212,-19.25"/>
<text xml:space="preserve" text-anchor="middle" x="180.38" y="-5.75" font-family="Helvetica,sans-Serif" font-size="10.00">Tensor.cpp</text>
</a>
</g>
</g>
<!-- Node3&#45;&gt;Node5 -->
<g id="edge8_Node000003_Node000005" class="edge">
<title>Node3&#45;&gt;Node5</title>
<g id="a_edge8_Node000003_Node000005"><a xlink:title=" ">
<path fill="none" stroke="#63b8ff" d="M192.3,-115.03C166.45,-110.05 134.04,-99 117.38,-74.5 102.31,-52.35 135.93,-31.13 159.61,-19.59"/>
<polygon fill="#63b8ff" stroke="#63b8ff" points="191.7,-118.48 202.14,-116.67 192.85,-111.58 191.7,-118.48"/>
</a>
</g>
</g>
<!-- Node6 -->
<g id="Node000006" class="node">
<title>Node6</title>
<g id="a_Node000006"><a xlink:href="large__scale__test_8cpp.html" target="_top" xlink:title="大规模Tensor计算测试和20个节点的自动微分测试">
<polygon fill="white" stroke="#666666" points="402.38,-19.25 296.38,-19.25 296.38,0 402.38,0 402.38,-19.25"/>
<text xml:space="preserve" text-anchor="middle" x="349.38" y="-5.75" font-family="Helvetica,sans-Serif" font-size="10.00">large_scale_test.cpp</text>
</a>
</g>
</g>
<!-- Node3&#45;&gt;Node6 -->
<g id="edge9_Node000003_Node000006" class="edge">
<title>Node3&#45;&gt;Node6</title>
<g id="a_edge9_Node000003_Node000006"><a xlink:title=" ">
<path fill="none" stroke="#63b8ff" d="M267.02,-105.69C283.3,-98.36 301.8,-88 315.38,-74.5 331.59,-58.38 341.93,-32.9 346.56,-19.51"/>
<polygon fill="#63b8ff" stroke="#63b8ff" points="265.95,-102.35 258.12,-109.48 268.69,-108.79 265.95,-102.35"/>
</a>
</g>
</g>
<!-- Node7 -->
<g id="Node000007" class="node">
<title>Node7</title>
<g id="a_Node000007"><a xlink:href="main_8cpp.html" target="_top" xlink:title=" ">
<polygon fill="white" stroke="#666666" points="505.25,-19.25 449.5,-19.25 449.5,0 505.25,0 505.25,-19.25"/>
<text xml:space="preserve" text-anchor="middle" x="477.38" y="-5.75" font-family="Helvetica,sans-Serif" font-size="10.00">main.cpp</text>
</a>
</g>
</g>
<!-- Node3&#45;&gt;Node7 -->
<g id="edge10_Node000003_Node000007" class="edge">
<title>Node3&#45;&gt;Node7</title>
<g id="a_edge10_Node000003_Node000007"><a xlink:title=" ">
<path fill="none" stroke="#63b8ff" d="M268.06,-117.68C329.42,-114.48 446.76,-104.49 473.38,-74.5 486.95,-59.21 483.07,-32.9 479.82,-19.31"/>
<polygon fill="#63b8ff" stroke="#63b8ff" points="268.27,-114.17 258.45,-118.15 268.61,-121.16 268.27,-114.17"/>
</a>
</g>
</g>
<!-- Node8 -->
<g id="Node000008" class="node">
<title>Node8</title>
<g id="a_Node000008"><a xlink:href="performance__test_8cpp.html" target="_top" xlink:title=" ">
<polygon fill="white" stroke="#666666" points="236.62,-74.5 126.12,-74.5 126.12,-55.25 236.62,-55.25 236.62,-74.5"/>
<text xml:space="preserve" text-anchor="middle" x="181.38" y="-61" font-family="Helvetica,sans-Serif" font-size="10.00">performance_test.cpp</text>
</a>
</g>
</g>
<!-- Node3&#45;&gt;Node8 -->
<g id="edge11_Node000003_Node000008" class="edge">
<title>Node3&#45;&gt;Node8</title>
<g id="a_edge11_Node000003_Node000008"><a xlink:title=" ">
<path fill="none" stroke="#63b8ff" d="M214.66,-102.04C206.34,-93 196.46,-82.27 189.64,-74.86"/>
<polygon fill="#63b8ff" stroke="#63b8ff" points="211.91,-104.23 221.26,-109.22 217.06,-99.49 211.91,-104.23"/>
</a>
</g>
</g>
<!-- Node9 -->
<g id="Node000009" class="node">
<title>Node9</title>
<g id="a_Node000009"><a xlink:href="test_8cpp.html" target="_top" xlink:title=" ">
<polygon fill="white" stroke="#666666" points="306,-74.5 254.75,-74.5 254.75,-55.25 306,-55.25 306,-74.5"/>
<text xml:space="preserve" text-anchor="middle" x="280.38" y="-61" font-family="Helvetica,sans-Serif" font-size="10.00">test.cpp</text>
</a>
</g>
</g>
<!-- Node3&#45;&gt;Node9 -->
<g id="edge12_Node000003_Node000009" class="edge">
<title>Node3&#45;&gt;Node9</title>
<g id="a_edge12_Node000003_Node000009"><a xlink:title=" ">
<path fill="none" stroke="#63b8ff" d="M246.42,-102.04C254.9,-93 264.98,-82.27 271.94,-74.86"/>
<polygon fill="#63b8ff" stroke="#63b8ff" points="243.96,-99.54 239.67,-109.23 249.06,-104.33 243.96,-99.54"/>
</a>
</g>
</g>
<!-- Node4&#45;&gt;Node5 -->
<g id="edge5_Node000004_Node000005" class="edge">
<title>Node4&#45;&gt;Node5</title>
<g id="a_edge5_Node000004_Node000005"><a xlink:title=" ">
<path fill="none" stroke="#63b8ff" d="M362.4,-52.23C316.62,-41.76 250.81,-26.72 212.14,-17.88"/>
<polygon fill="#63b8ff" stroke="#63b8ff" points="361.58,-55.63 372.11,-54.44 363.14,-48.8 361.58,-55.63"/>
</a>
</g>
</g>
<!-- Node4&#45;&gt;Node6 -->
<g id="edge6_Node000004_Node000006" class="edge">
<title>Node4&#45;&gt;Node6</title>
<g id="a_edge6_Node000004_Node000006"><a xlink:title=" ">
<path fill="none" stroke="#63b8ff" d="M393.89,-47.66C382.78,-38.42 369.27,-27.18 360.07,-19.52"/>
<polygon fill="#63b8ff" stroke="#63b8ff" points="391.43,-50.17 401.35,-53.87 395.91,-44.79 391.43,-50.17"/>
</a>
</g>
</g>
<!-- Node4&#45;&gt;Node7 -->
<g id="edge7_Node000004_Node000007" class="edge">
<title>Node4&#45;&gt;Node7</title>
<g id="a_edge7_Node000004_Node000007"><a xlink:title=" ">
<path fill="none" stroke="#63b8ff" d="M432.86,-47.66C443.97,-38.42 457.48,-27.18 466.68,-19.52"/>
<polygon fill="#63b8ff" stroke="#63b8ff" points="430.84,-44.79 425.4,-53.87 435.32,-50.17 430.84,-44.79"/>
</a>
</g>
</g>
</g>
</svg>
