<?xml version="1.0" encoding="UTF-8" standalone="no"?>
<!DOCTYPE svg PUBLIC "-//W3C//DTD SVG 1.1//EN"
 "http://www.w3.org/Graphics/SVG/1.1/DTD/svg11.dtd">
<!-- Generated by graphviz version 14.1.1 (20251213.1925)
 -->
<!-- Title: AutoDiff.cpp Pages: 1 -->
<svg width="1479pt" height="304pt"
 viewBox="0.00 0.00 1479.00 304.00" xmlns="http://www.w3.org/2000/svg" xmlns:xlink="http://www.w3.org/1999/xlink">
<g id="graph0" class="graph" transform="scale(1 1) rotate(0) translate(4 299.5)">
<title>AutoDiff.cpp</title>
<!-- Node1 -->
<g id="Node000001" class="node">
<title>Node1</title>
<g id="a_Node000001"><a xlink:title="Ctorch 自动微分系统实现">
<polygon fill="#999999" stroke="#666666" points="527.88,-295.5 457.12,-295.5 457.12,-276.25 527.88,-276.25 527.88,-295.5"/>
<text xml:space="preserve" text-anchor="middle" x="492.5" y="-282" font-family="Helvetica,sans-Serif" font-size="10.00">AutoDiff.cpp</text>
</a>
</g>
</g>
<!-- Node2 -->
<g id="Node000002" class="node">
<title>Node2</title>
<g id="a_Node000002"><a xlink:href="_auto_diff_8h.html" target="_top" xlink:title="Ctorch 自动微分系统">
<polygon fill="white" stroke="#666666" points="291.62,-129.75 231.38,-129.75 231.38,-110.5 291.62,-110.5 291.62,-129.75"/>
<text xml:space="preserve" text-anchor="middle" x="261.5" y="-116.25" font-family="Helvetica,sans-Serif" font-size="10.00">AutoDiff.h</text>
</a>
</g>
</g>
<!-- Node1&#45;&gt;Node2 -->
<g id="edge1_Node000001_Node000002" class="edge">
<title>Node1&#45;&gt;Node2</title>
<g id="a_edge1_Node000001_Node000002"><a xlink:title=" ">
<path fill="none" stroke="#63b8ff" d="M467.18,-275.85C428.9,-261.28 355.46,-229.62 305.5,-185 291.08,-172.12 278.99,-153.59 271.16,-139.8"/>
<polygon fill="#63b8ff" stroke="#63b8ff" points="274.39,-138.41 266.54,-131.29 268.23,-141.75 274.39,-138.41"/>
</a>
</g>
</g>
<!-- Node21 -->
<g id="Node000021" class="node">
<title>Node21</title>
<g id="a_Node000021"><a xlink:href="_tensor_8h.html" target="_top" xlink:title="张量类和相关操作的定义">
<polygon fill="white" stroke="#666666" points="739.88,-240.25 687.12,-240.25 687.12,-221 739.88,-221 739.88,-240.25"/>
<text xml:space="preserve" text-anchor="middle" x="713.5" y="-226.75" font-family="Helvetica,sans-Serif" font-size="10.00">Tensor.h</text>
</a>
</g>
</g>
<!-- Node1&#45;&gt;Node21 -->
<g id="edge23_Node000001_Node000021" class="edge">
<title>Node1&#45;&gt;Node21</title>
<g id="a_edge23_Node000001_Node000021"><a xlink:title=" ">
<path fill="none" stroke="#63b8ff" d="M528.01,-276.32C568.49,-266.56 634.41,-250.68 675.79,-240.71"/>
<polygon fill="#63b8ff" stroke="#63b8ff" points="676.4,-244.17 685.3,-238.42 674.76,-237.36 676.4,-244.17"/>
</a>
</g>
</g>
<!-- Node3 -->
<g id="Node000003" class="node">
<title>Node3</title>
<g id="a_Node000003"><a xlink:href="_ctools_8h.html" target="_top" xlink:title="Ctorch 通用工具类，包含通用枚举类型和辅助函数">
<polygon fill="white" stroke="#666666" points="1085.88,-74.5 1033.12,-74.5 1033.12,-55.25 1085.88,-55.25 1085.88,-74.5"/>
<text xml:space="preserve" text-anchor="middle" x="1059.5" y="-61" font-family="Helvetica,sans-Serif" font-size="10.00">Ctools.h</text>
</a>
</g>
</g>
<!-- Node2&#45;&gt;Node3 -->
<g id="edge2_Node000002_Node000003" class="edge">
<title>Node2&#45;&gt;Node3</title>
<g id="a_edge2_Node000002_Node000003"><a xlink:title=" ">
<path fill="none" stroke="#63b8ff" d="M291.81,-117.1C415.88,-108.82 884.92,-77.52 1021.79,-68.39"/>
<polygon fill="#63b8ff" stroke="#63b8ff" points="1021.64,-71.91 1031.39,-67.75 1021.17,-64.92 1021.64,-71.91"/>
</a>
</g>
</g>
<!-- Node13 -->
<g id="Node000013" class="node">
<title>Node13</title>
<g id="a_Node000013"><a xlink:title=" ">
<polygon fill="#e0e0e0" stroke="#999999" points="493,-19.25 450,-19.25 450,0 493,0 493,-19.25"/>
<text xml:space="preserve" text-anchor="middle" x="471.5" y="-5.75" font-family="Helvetica,sans-Serif" font-size="10.00">mutex</text>
</a>
</g>
</g>
<!-- Node2&#45;&gt;Node13 -->
<g id="edge20_Node000002_Node000013" class="edge">
<title>Node2&#45;&gt;Node13</title>
<g id="a_edge20_Node000002_Node000013"><a xlink:title=" ">
<path fill="none" stroke="#63b8ff" d="M261.49,-110.27C261.97,-96.46 265.01,-69.85 280.5,-55.25 283.41,-52.51 384.76,-29.79 438.61,-17.87"/>
<polygon fill="#63b8ff" stroke="#63b8ff" points="439.15,-21.33 448.16,-15.76 437.64,-14.5 439.15,-21.33"/>
</a>
</g>
</g>
<!-- Node15 -->
<g id="Node000015" class="node">
<title>Node15</title>
<g id="a_Node000015"><a xlink:title=" ">
<polygon fill="#e0e0e0" stroke="#999999" points="43,-19.25 0,-19.25 0,0 43,0 43,-19.25"/>
<text xml:space="preserve" text-anchor="middle" x="21.5" y="-5.75" font-family="Helvetica,sans-Serif" font-size="10.00">vector</text>
</a>
</g>
</g>
<!-- Node2&#45;&gt;Node15 -->
<g id="edge17_Node000002_Node000015" class="edge">
<title>Node2&#45;&gt;Node15</title>
<g id="a_edge17_Node000002_Node000015"><a xlink:title=" ">
<path fill="none" stroke="#63b8ff" d="M230.91,-116.8C176.96,-112.08 68.02,-99.65 40.5,-74.5 28.35,-63.39 23.83,-44.89 22.22,-30.66"/>
<polygon fill="#63b8ff" stroke="#63b8ff" points="25.74,-30.77 21.54,-21.04 18.76,-31.26 25.74,-30.77"/>
</a>
</g>
</g>
<!-- Node16 -->
<g id="Node000016" class="node">
<title>Node16</title>
<g id="a_Node000016"><a xlink:title=" ">
<polygon fill="#e0e0e0" stroke="#999999" points="421.12,-19.25 369.88,-19.25 369.88,0 421.12,0 421.12,-19.25"/>
<text xml:space="preserve" text-anchor="middle" x="395.5" y="-5.75" font-family="Helvetica,sans-Serif" font-size="10.00">memory</text>
</a>
</g>
</g>
<!-- Node2&#45;&gt;Node16 -->
<g id="edge22_Node000002_Node000016" class="edge">
<title>Node2&#45;&gt;Node16</title>
<g id="a_edge22_Node000002_Node000016"><a xlink:title=" ">
<path fill="none" stroke="#63b8ff" d="M255.58,-110.36C247.45,-97.12 235.18,-71.84 247.5,-55.25 272.81,-21.19 323.32,-12.18 358.24,-10.27"/>
<polygon fill="#63b8ff" stroke="#63b8ff" points="358.05,-13.78 367.91,-9.92 357.79,-6.78 358.05,-13.78"/>
</a>
</g>
</g>
<!-- Node18 -->
<g id="Node000018" class="node">
<title>Node18</title>
<g id="a_Node000018"><a xlink:title=" ">
<polygon fill="#e0e0e0" stroke="#999999" points="131.88,-74.5 49.12,-74.5 49.12,-55.25 131.88,-55.25 131.88,-74.5"/>
<text xml:space="preserve" text-anchor="middle" x="90.5" y="-61" font-family="Helvetica,sans-Serif" font-size="10.00">unordered_map</text>
</a>
</g>
</g>
<!-- Node2&#45;&gt;Node18 -->
<g id="edge18_Node000002_Node000018" class="edge">
<title>Node2&#45;&gt;Node18</title>
<g id="a_edge18_Node000002_Node000018"><a xlink:title=" ">
<path fill="none" stroke="#63b8ff" d="M232.49,-110.09C204.49,-101.37 161.84,-88.09 130.6,-78.36"/>
<polygon fill="#63b8ff" stroke="#63b8ff" points="131.68,-75.03 121.1,-75.4 129.6,-81.72 131.68,-75.03"/>
</a>
</g>
</g>
<!-- Node19 -->
<g id="Node000019" class="node">
<title>Node19</title>
<g id="a_Node000019"><a xlink:title=" ">
<polygon fill="#e0e0e0" stroke="#999999" points="367.25,-74.5 289.75,-74.5 289.75,-55.25 367.25,-55.25 367.25,-74.5"/>
<text xml:space="preserve" text-anchor="middle" x="328.5" y="-61" font-family="Helvetica,sans-Serif" font-size="10.00">unordered_set</text>
</a>
</g>
</g>
<!-- Node2&#45;&gt;Node19 -->
<g id="edge19_Node000002_Node000019" class="edge">
<title>Node2&#45;&gt;Node19</title>
<g id="a_edge19_Node000002_Node000019"><a xlink:title=" ">
<path fill="none" stroke="#63b8ff" d="M272.87,-110.09C282.55,-102.4 296.7,-91.15 308.31,-81.93"/>
<polygon fill="#63b8ff" stroke="#63b8ff" points="310.47,-84.68 316.12,-75.72 306.11,-79.2 310.47,-84.68"/>
</a>
</g>
</g>
<!-- Node20 -->
<g id="Node000020" class="node">
<title>Node20</title>
<g id="a_Node000020"><a xlink:title=" ">
<polygon fill="#e0e0e0" stroke="#999999" points="195.12,-74.5 149.88,-74.5 149.88,-55.25 195.12,-55.25 195.12,-74.5"/>
<text xml:space="preserve" text-anchor="middle" x="172.5" y="-61" font-family="Helvetica,sans-Serif" font-size="10.00">atomic</text>
</a>
</g>
</g>
<!-- Node2&#45;&gt;Node20 -->
<g id="edge21_Node000002_Node000020" class="edge">
<title>Node2&#45;&gt;Node20</title>
<g id="a_edge21_Node000002_Node000020"><a xlink:title=" ">
<path fill="none" stroke="#63b8ff" d="M246.4,-110.09C232.98,-102.06 213.09,-90.16 197.33,-80.73"/>
<polygon fill="#63b8ff" stroke="#63b8ff" points="199.35,-77.86 188.97,-75.73 195.75,-83.87 199.35,-77.86"/>
</a>
</g>
</g>
<!-- Node4 -->
<g id="Node000004" class="node">
<title>Node4</title>
<g id="a_Node000004"><a xlink:title=" ">
<polygon fill="#e0e0e0" stroke="#999999" points="955.12,-19.25 909.88,-19.25 909.88,0 955.12,0 955.12,-19.25"/>
<text xml:space="preserve" text-anchor="middle" x="932.5" y="-5.75" font-family="Helvetica,sans-Serif" font-size="10.00">cstring</text>
</a>
</g>
</g>
<!-- Node3&#45;&gt;Node4 -->
<g id="edge3_Node000003_Node000004" class="edge">
<title>Node3&#45;&gt;Node4</title>
<g id="a_edge3_Node000003_Node000004"><a xlink:title=" ">
<path fill="none" stroke="#63b8ff" d="M1037.96,-54.84C1017.89,-46.43 987.7,-33.77 964.75,-24.15"/>
<polygon fill="#63b8ff" stroke="#63b8ff" points="966.12,-20.93 955.55,-20.29 963.41,-27.38 966.12,-20.93"/>
</a>
</g>
</g>
<!-- Node5 -->
<g id="Node000005" class="node">
<title>Node5</title>
<g id="a_Node000005"><a xlink:title=" ">
<polygon fill="#e0e0e0" stroke="#999999" points="1403.12,-19.25 1357.88,-19.25 1357.88,0 1403.12,0 1403.12,-19.25"/>
<text xml:space="preserve" text-anchor="middle" x="1380.5" y="-5.75" font-family="Helvetica,sans-Serif" font-size="10.00">chrono</text>
</a>
</g>
</g>
<!-- Node3&#45;&gt;Node5 -->
<g id="edge4_Node000003_Node000005" class="edge">
<title>Node3&#45;&gt;Node5</title>
<g id="a_edge4_Node000003_Node000005"><a xlink:title=" ">
<path fill="none" stroke="#63b8ff" d="M1086.08,-60.86C1135.56,-55.01 1245.31,-40.97 1346.53,-19.69"/>
<polygon fill="#63b8ff" stroke="#63b8ff" points="1347.02,-23.16 1356.07,-17.65 1345.56,-16.32 1347.02,-23.16"/>
</a>
</g>
</g>
<!-- Node6 -->
<g id="Node000006" class="node">
<title>Node6</title>
<g id="a_Node000006"><a xlink:title=" ">
<polygon fill="#e0e0e0" stroke="#999999" points="1077.12,-19.25 1031.88,-19.25 1031.88,0 1077.12,0 1077.12,-19.25"/>
<text xml:space="preserve" text-anchor="middle" x="1054.5" y="-5.75" font-family="Helvetica,sans-Serif" font-size="10.00">cstdint</text>
</a>
</g>
</g>
<!-- Node3&#45;&gt;Node6 -->
<g id="edge5_Node000003_Node000006" class="edge">
<title>Node3&#45;&gt;Node6</title>
<g id="a_edge5_Node000003_Node000006"><a xlink:title=" ">
<path fill="none" stroke="#63b8ff" d="M1058.67,-55.08C1058.06,-48.49 1057.18,-39.21 1056.4,-30.82"/>
<polygon fill="#63b8ff" stroke="#63b8ff" points="1059.9,-30.75 1055.49,-21.12 1052.94,-31.4 1059.9,-30.75"/>
</a>
</g>
</g>
<!-- Node7 -->
<g id="Node000007" class="node">
<title>Node7</title>
<g id="a_Node000007"><a xlink:title=" ">
<polygon fill="#e0e0e0" stroke="#999999" points="1135.5,-19.25 1095.5,-19.25 1095.5,0 1135.5,0 1135.5,-19.25"/>
<text xml:space="preserve" text-anchor="middle" x="1115.5" y="-5.75" font-family="Helvetica,sans-Serif" font-size="10.00">ctime</text>
</a>
</g>
</g>
<!-- Node3&#45;&gt;Node7 -->
<g id="edge6_Node000003_Node000007" class="edge">
<title>Node3&#45;&gt;Node7</title>
<g id="a_edge6_Node000003_Node000007"><a xlink:title=" ">
<path fill="none" stroke="#63b8ff" d="M1069,-54.84C1076.93,-47.3 1088.45,-36.35 1098.04,-27.23"/>
<polygon fill="#63b8ff" stroke="#63b8ff" points="1100.21,-29.99 1105.04,-20.57 1095.39,-24.92 1100.21,-29.99"/>
</a>
</g>
</g>
<!-- Node8 -->
<g id="Node000008" class="node">
<title>Node8</title>
<g id="a_Node000008"><a xlink:title=" ">
<polygon fill="#e0e0e0" stroke="#999999" points="1013.5,-19.25 973.5,-19.25 973.5,0 1013.5,0 1013.5,-19.25"/>
<text xml:space="preserve" text-anchor="middle" x="993.5" y="-5.75" font-family="Helvetica,sans-Serif" font-size="10.00">string</text>
</a>
</g>
</g>
<!-- Node3&#45;&gt;Node8 -->
<g id="edge7_Node000003_Node000008" class="edge">
<title>Node3&#45;&gt;Node8</title>
<g id="a_edge7_Node000003_Node000008"><a xlink:title=" ">
<path fill="none" stroke="#63b8ff" d="M1048.3,-54.84C1038.76,-47.15 1024.83,-35.9 1013.39,-26.68"/>
<polygon fill="#63b8ff" stroke="#63b8ff" points="1015.69,-24.03 1005.71,-20.48 1011.29,-29.48 1015.69,-24.03"/>
</a>
</g>
</g>
<!-- Node9 -->
<g id="Node000009" class="node">
<title>Node9</title>
<g id="a_Node000009"><a xlink:title=" ">
<polygon fill="#e0e0e0" stroke="#999999" points="892.12,-19.25 840.88,-19.25 840.88,0 892.12,0 892.12,-19.25"/>
<text xml:space="preserve" text-anchor="middle" x="866.5" y="-5.75" font-family="Helvetica,sans-Serif" font-size="10.00">sstream</text>
</a>
</g>
</g>
<!-- Node3&#45;&gt;Node9 -->
<g id="edge8_Node000003_Node000009" class="edge">
<title>Node3&#45;&gt;Node9</title>
<g id="a_edge8_Node000003_Node000009"><a xlink:title=" ">
<path fill="none" stroke="#63b8ff" d="M1032.66,-56.47C999.06,-47.2 941.32,-31.27 903.53,-20.84"/>
<polygon fill="#63b8ff" stroke="#63b8ff" points="904.52,-17.48 893.95,-18.2 902.66,-24.23 904.52,-17.48"/>
</a>
</g>
</g>
<!-- Node10 -->
<g id="Node000010" class="node">
<title>Node10</title>
<g id="a_Node000010"><a xlink:title=" ">
<polygon fill="#e0e0e0" stroke="#999999" points="1471.38,-19.25 1421.62,-19.25 1421.62,0 1471.38,0 1471.38,-19.25"/>
<text xml:space="preserve" text-anchor="middle" x="1446.5" y="-5.75" font-family="Helvetica,sans-Serif" font-size="10.00">iomanip</text>
</a>
</g>
</g>
<!-- Node3&#45;&gt;Node10 -->
<g id="edge9_Node000003_Node000010" class="edge">
<title>Node3&#45;&gt;Node10</title>
<g id="a_edge9_Node000003_Node000010"><a xlink:title=" ">
<path fill="none" stroke="#63b8ff" d="M1086.24,-61.62C1143.73,-56.55 1283.5,-42.92 1410.28,-19.45"/>
<polygon fill="#63b8ff" stroke="#63b8ff" points="1410.66,-22.94 1419.84,-17.66 1409.36,-16.06 1410.66,-22.94"/>
</a>
</g>
</g>
<!-- Node11 -->
<g id="Node000011" class="node">
<title>Node11</title>
<g id="a_Node000011"><a xlink:title=" ">
<polygon fill="#e0e0e0" stroke="#999999" points="1201.62,-19.25 1153.38,-19.25 1153.38,0 1201.62,0 1201.62,-19.25"/>
<text xml:space="preserve" text-anchor="middle" x="1177.5" y="-5.75" font-family="Helvetica,sans-Serif" font-size="10.00">stdint.h</text>
</a>
</g>
</g>
<!-- Node3&#45;&gt;Node11 -->
<g id="edge10_Node000003_Node000011" class="edge">
<title>Node3&#45;&gt;Node11</title>
<g id="a_edge10_Node000003_Node000011"><a xlink:title=" ">
<path fill="none" stroke="#63b8ff" d="M1079.52,-54.84C1097.99,-46.5 1125.71,-34 1146.95,-24.41"/>
<polygon fill="#63b8ff" stroke="#63b8ff" points="1148.33,-27.63 1156.01,-20.33 1145.45,-21.25 1148.33,-27.63"/>
</a>
</g>
</g>
<!-- Node12 -->
<g id="Node000012" class="node">
<title>Node12</title>
<g id="a_Node000012"><a xlink:title=" ">
<polygon fill="#e0e0e0" stroke="#999999" points="1278.88,-19.25 1220.12,-19.25 1220.12,0 1278.88,0 1278.88,-19.25"/>
<text xml:space="preserve" text-anchor="middle" x="1249.5" y="-5.75" font-family="Helvetica,sans-Serif" font-size="10.00">inttypes.h</text>
</a>
</g>
</g>
<!-- Node3&#45;&gt;Node12 -->
<g id="edge11_Node000003_Node000012" class="edge">
<title>Node3&#45;&gt;Node12</title>
<g id="a_edge11_Node000003_Node000012"><a xlink:title=" ">
<path fill="none" stroke="#63b8ff" d="M1086.32,-56.36C1118.21,-47.42 1171.76,-32.41 1208.78,-22.04"/>
<polygon fill="#63b8ff" stroke="#63b8ff" points="1209.55,-25.46 1218.23,-19.39 1207.66,-18.72 1209.55,-25.46"/>
</a>
</g>
</g>
<!-- Node3&#45;&gt;Node13 -->
<g id="edge12_Node000003_Node000013" class="edge">
<title>Node3&#45;&gt;Node13</title>
<g id="a_edge12_Node000003_Node000013"><a xlink:title=" ">
<path fill="none" stroke="#63b8ff" d="M1032.71,-61.45C936.66,-52.75 609.72,-23.14 504.45,-13.61"/>
<polygon fill="#63b8ff" stroke="#63b8ff" points="505.07,-10.15 494.8,-12.73 504.44,-17.12 505.07,-10.15"/>
</a>
</g>
</g>
<!-- Node14 -->
<g id="Node000014" class="node">
<title>Node14</title>
<g id="a_Node000014"><a xlink:title=" ">
<polygon fill="#e0e0e0" stroke="#999999" points="1340,-19.25 1297,-19.25 1297,0 1340,0 1340,-19.25"/>
<text xml:space="preserve" text-anchor="middle" x="1318.5" y="-5.75" font-family="Helvetica,sans-Serif" font-size="10.00">thread</text>
</a>
</g>
</g>
<!-- Node3&#45;&gt;Node14 -->
<g id="edge13_Node000003_Node000014" class="edge">
<title>Node3&#45;&gt;Node14</title>
<g id="a_edge13_Node000003_Node000014"><a xlink:title=" ">
<path fill="none" stroke="#63b8ff" d="M1086.32,-59.33C1127.17,-52.25 1207.62,-37.72 1285.56,-19.55"/>
<polygon fill="#63b8ff" stroke="#63b8ff" points="1286.14,-23.01 1295.07,-17.31 1284.53,-16.2 1286.14,-23.01"/>
</a>
</g>
</g>
<!-- Node3&#45;&gt;Node15 -->
<g id="edge14_Node000003_Node000015" class="edge">
<title>Node3&#45;&gt;Node15</title>
<g id="a_edge14_Node000003_Node000015"><a xlink:title=" ">
<path fill="none" stroke="#63b8ff" d="M1032.8,-62.51C889.61,-55.16 213.29,-20.46 54.79,-12.33"/>
<polygon fill="#63b8ff" stroke="#63b8ff" points="55.16,-8.85 44.99,-11.83 54.8,-15.84 55.16,-8.85"/>
</a>
</g>
</g>
<!-- Node3&#45;&gt;Node16 -->
<g id="edge15_Node000003_Node000016" class="edge">
<title>Node3&#45;&gt;Node16</title>
<g id="a_edge15_Node000003_Node000016"><a xlink:title=" ">
<path fill="none" stroke="#63b8ff" d="M1032.89,-63.03C946.96,-60.08 669.26,-48.73 441.5,-19.25 438.51,-18.86 435.41,-18.41 432.31,-17.91"/>
<polygon fill="#63b8ff" stroke="#63b8ff" points="433.15,-14.5 422.7,-16.24 431.95,-21.4 433.15,-14.5"/>
</a>
</g>
</g>
<!-- Node17 -->
<g id="Node000017" class="node">
<title>Node17</title>
<g id="a_Node000017"><a xlink:title=" ">
<polygon fill="#e0e0e0" stroke="#999999" points="708.25,-19.25 654.75,-19.25 654.75,0 708.25,0 708.25,-19.25"/>
<text xml:space="preserve" text-anchor="middle" x="681.5" y="-5.75" font-family="Helvetica,sans-Serif" font-size="10.00">iostream</text>
</a>
</g>
</g>
<!-- Node3&#45;&gt;Node17 -->
<g id="edge16_Node000003_Node000017" class="edge">
<title>Node3&#45;&gt;Node17</title>
<g id="a_edge16_Node000003_Node000017"><a xlink:title=" ">
<path fill="none" stroke="#63b8ff" d="M1032.92,-60.13C967.06,-50.85 796.15,-26.78 719.58,-15.99"/>
<polygon fill="#63b8ff" stroke="#63b8ff" points="720.45,-12.58 710.06,-14.65 719.47,-19.51 720.45,-12.58"/>
</a>
</g>
</g>
<!-- Node21&#45;&gt;Node2 -->
<g id="edge57_Node000021_Node000002" class="edge">
<title>Node21&#45;&gt;Node2</title>
<g id="a_edge57_Node000021_Node000002"><a xlink:title=" ">
<path fill="none" stroke="#63b8ff" d="M686.75,-228.35C612.17,-224.48 403.29,-211.51 340.5,-185 315.24,-174.33 291.52,-153.06 276.79,-138"/>
<polygon fill="#63b8ff" stroke="#63b8ff" points="279.66,-135.94 270.25,-131.08 274.57,-140.75 279.66,-135.94"/>
</a>
</g>
</g>
<!-- Node21&#45;&gt;Node3 -->
<g id="edge56_Node000021_Node000003" class="edge">
<title>Node21&#45;&gt;Node3</title>
<g id="a_edge56_Node000021_Node000003"><a xlink:title=" ">
<path fill="none" stroke="#63b8ff" d="M740.24,-228.74C827.07,-225.57 1096.93,-213.52 1122.5,-185 1150.85,-153.39 1107.34,-106.73 1079.61,-82.24"/>
<polygon fill="#63b8ff" stroke="#63b8ff" points="1081.97,-79.65 1072.09,-75.83 1077.43,-84.98 1081.97,-79.65"/>
</a>
</g>
</g>
<!-- Node21&#45;&gt;Node4 -->
<g id="edge50_Node000021_Node000004" class="edge">
<title>Node21&#45;&gt;Node4</title>
<g id="a_edge50_Node000021_Node000004"><a xlink:title=" ">
<path fill="none" stroke="#63b8ff" d="M686.64,-229.84C626.6,-229.35 489.72,-222.18 528.5,-165.75 550.71,-133.43 805.43,-50.64 898.62,-21.21"/>
<polygon fill="#63b8ff" stroke="#63b8ff" points="899.48,-24.61 907.96,-18.27 897.37,-17.93 899.48,-24.61"/>
</a>
</g>
</g>
<!-- Node21&#45;&gt;Node8 -->
<g id="edge52_Node000021_Node000008" class="edge">
<title>Node21&#45;&gt;Node8</title>
<g id="a_edge52_Node000021_Node000008"><a xlink:title=" ">
<path fill="none" stroke="#63b8ff" d="M740.37,-228.46C822.54,-224.62 1066.31,-211.11 1089.5,-185 1117.92,-153.01 1098.26,-198.85 1024.5,-74.5 1015.93,-60.05 1007.7,-42.88 1001.87,-29.99"/>
<polygon fill="#63b8ff" stroke="#63b8ff" points="1005.12,-28.66 997.87,-20.93 998.71,-31.49 1005.12,-28.66"/>
</a>
</g>
</g>
<!-- Node21&#45;&gt;Node9 -->
<g id="edge48_Node000021_Node000009" class="edge">
<title>Node21&#45;&gt;Node9</title>
<g id="a_edge48_Node000021_Node000009"><a xlink:title=" ">
<path fill="none" stroke="#63b8ff" d="M686.73,-228.23C633.92,-224.85 519.38,-214.26 495.5,-185 466.54,-149.51 411.17,-155.47 533.5,-55.25 556.08,-36.75 746.91,-19.9 829.1,-13.43"/>
<polygon fill="#63b8ff" stroke="#63b8ff" points="829.2,-16.93 838.89,-12.67 828.65,-9.95 829.2,-16.93"/>
</a>
</g>
</g>
<!-- Node21&#45;&gt;Node10 -->
<g id="edge51_Node000021_Node000010" class="edge">
<title>Node21&#45;&gt;Node10</title>
<g id="a_edge51_Node000021_Node000010"><a xlink:title=" ">
<path fill="none" stroke="#63b8ff" d="M740.36,-229.72C836.68,-229.73 1164.01,-226.6 1258.5,-185 1338.57,-149.75 1406.5,-65.86 1433.74,-28.78"/>
<polygon fill="#63b8ff" stroke="#63b8ff" points="1436.43,-31.03 1439.43,-20.87 1430.75,-26.94 1436.43,-31.03"/>
</a>
</g>
</g>
<!-- Node21&#45;&gt;Node15 -->
<g id="edge47_Node000021_Node000015" class="edge">
<title>Node21&#45;&gt;Node15</title>
<g id="a_edge47_Node000021_Node000015"><a xlink:title=" ">
<path fill="none" stroke="#63b8ff" d="M686.83,-229.13C621.07,-227.41 446.31,-219.64 305.5,-185 174.78,-152.85 101.09,-184.5 23.5,-74.5 14.59,-61.87 14.79,-44.06 16.82,-30.46"/>
<polygon fill="#63b8ff" stroke="#63b8ff" points="20.2,-31.39 18.7,-20.9 13.33,-30.04 20.2,-31.39"/>
</a>
</g>
</g>
<!-- Node21&#45;&gt;Node16 -->
<g id="edge44_Node000021_Node000016" class="edge">
<title>Node21&#45;&gt;Node16</title>
<g id="a_edge44_Node000021_Node000016"><a xlink:title=" ">
<path fill="none" stroke="#63b8ff" d="M687.07,-228.85C625.94,-226.5 477.27,-217.51 441.5,-185 397.15,-144.69 393.41,-67.16 394.34,-30.62"/>
<polygon fill="#63b8ff" stroke="#63b8ff" points="397.82,-31.18 394.74,-21.04 390.82,-30.88 397.82,-31.18"/>
</a>
</g>
</g>
<!-- Node21&#45;&gt;Node17 -->
<g id="edge43_Node000021_Node000017" class="edge">
<title>Node21&#45;&gt;Node17</title>
<g id="a_edge43_Node000021_Node000017"><a xlink:title=" ">
<path fill="none" stroke="#63b8ff" d="M686.72,-229.12C627.15,-227.38 486.61,-219.62 457.5,-185 418.83,-139.01 448.35,-92.5 495.5,-55.25 538.19,-21.53 602.42,-12.69 643.13,-10.7"/>
<polygon fill="#63b8ff" stroke="#63b8ff" points="643.08,-14.2 652.94,-10.35 642.82,-7.21 643.08,-14.2"/>
</a>
</g>
</g>
<!-- Node21&#45;&gt;Node19 -->
<g id="edge53_Node000021_Node000019" class="edge">
<title>Node21&#45;&gt;Node19</title>
<g id="a_edge53_Node000021_Node000019"><a xlink:title=" ">
<path fill="none" stroke="#63b8ff" d="M686.71,-229.31C616.56,-227.97 429.62,-221.04 381.5,-185 349.44,-160.98 336.38,-113.24 331.37,-86.06"/>
<polygon fill="#63b8ff" stroke="#63b8ff" points="334.85,-85.67 329.79,-76.36 327.94,-86.79 334.85,-85.67"/>
</a>
</g>
</g>
<!-- Node22 -->
<g id="Node000022" class="node">
<title>Node22</title>
<g id="a_Node000022"><a xlink:title=" ">
<polygon fill="#e0e0e0" stroke="#999999" points="593.38,-185 537.62,-185 537.62,-165.75 593.38,-165.75 593.38,-185"/>
<text xml:space="preserve" text-anchor="middle" x="565.5" y="-171.5" font-family="Helvetica,sans-Serif" font-size="10.00">algorithm</text>
</a>
</g>
</g>
<!-- Node21&#45;&gt;Node22 -->
<g id="edge24_Node000021_Node000022" class="edge">
<title>Node21&#45;&gt;Node22</title>
<g id="a_edge24_Node000021_Node000022"><a xlink:title=" ">
<path fill="none" stroke="#63b8ff" d="M688.39,-220.59C664.47,-211.99 628.22,-198.94 601.28,-189.25"/>
<polygon fill="#63b8ff" stroke="#63b8ff" points="602.75,-186.06 592.15,-185.96 600.38,-192.64 602.75,-186.06"/>
</a>
</g>
</g>
<!-- Node23 -->
<g id="Node000023" class="node">
<title>Node23</title>
<g id="a_Node000023"><a xlink:title=" ">
<polygon fill="#e0e0e0" stroke="#999999" points="659.62,-185 611.38,-185 611.38,-165.75 659.62,-165.75 659.62,-185"/>
<text xml:space="preserve" text-anchor="middle" x="635.5" y="-171.5" font-family="Helvetica,sans-Serif" font-size="10.00">cstddef</text>
</a>
</g>
</g>
<!-- Node21&#45;&gt;Node23 -->
<g id="edge25_Node000021_Node000023" class="edge">
<title>Node21&#45;&gt;Node23</title>
<g id="a_edge25_Node000021_Node000023"><a xlink:title=" ">
<path fill="none" stroke="#63b8ff" d="M700.27,-220.59C688.73,-212.71 671.73,-201.11 658.05,-191.77"/>
<polygon fill="#63b8ff" stroke="#63b8ff" points="660.28,-189.05 650.05,-186.31 656.33,-194.83 660.28,-189.05"/>
</a>
</g>
</g>
<!-- Node24 -->
<g id="Node000024" class="node">
<title>Node24</title>
<g id="a_Node000024"><a xlink:href="_ctorch___error_8h.html" target="_top" xlink:title="Ctorch 错误处理类">
<polygon fill="white" stroke="#666666" points="1267,-129.75 1188,-129.75 1188,-110.5 1267,-110.5 1267,-129.75"/>
<text xml:space="preserve" text-anchor="middle" x="1227.5" y="-116.25" font-family="Helvetica,sans-Serif" font-size="10.00">Ctorch_Error.h</text>
</a>
</g>
</g>
<!-- Node21&#45;&gt;Node24 -->
<g id="edge26_Node000021_Node000024" class="edge">
<title>Node21&#45;&gt;Node24</title>
<g id="a_edge26_Node000021_Node000024"><a xlink:title=" ">
<path fill="none" stroke="#63b8ff" d="M740.21,-229.43C842.76,-228.42 1207.3,-222.21 1241.5,-185 1252.64,-172.88 1246.67,-153.99 1239.39,-139.89"/>
<polygon fill="#63b8ff" stroke="#63b8ff" points="1242.61,-138.47 1234.59,-131.55 1236.54,-141.96 1242.61,-138.47"/>
</a>
</g>
</g>
<!-- Node25 -->
<g id="Node000025" class="node">
<title>Node25</title>
<g id="a_Node000025"><a xlink:href="_storage_8h.html" target="_top" xlink:title="Ctorch 存储类，用于管理张量数据的底层存储">
<polygon fill="white" stroke="#666666" points="1232.5,-185 1174.5,-185 1174.5,-165.75 1232.5,-165.75 1232.5,-185"/>
<text xml:space="preserve" text-anchor="middle" x="1203.5" y="-171.5" font-family="Helvetica,sans-Serif" font-size="10.00">Storage.h</text>
</a>
</g>
</g>
<!-- Node21&#45;&gt;Node25 -->
<g id="edge39_Node000021_Node000025" class="edge">
<title>Node21&#45;&gt;Node25</title>
<g id="a_edge39_Node000021_Node000025"><a xlink:title=" ">
<path fill="none" stroke="#63b8ff" d="M740.32,-227.87C809.93,-223.13 1002,-208.75 1160.5,-185 1161.49,-184.85 1162.49,-184.7 1163.5,-184.53"/>
<polygon fill="#63b8ff" stroke="#63b8ff" points="1163.69,-188.05 1172.93,-182.87 1162.48,-181.16 1163.69,-188.05"/>
</a>
</g>
</g>
<!-- Node26 -->
<g id="Node000026" class="node">
<title>Node26</title>
<g id="a_Node000026"><a xlink:title=" ">
<polygon fill="#e0e0e0" stroke="#999999" points="749.62,-185 677.38,-185 677.38,-165.75 749.62,-165.75 749.62,-185"/>
<text xml:space="preserve" text-anchor="middle" x="713.5" y="-171.5" font-family="Helvetica,sans-Serif" font-size="10.00">initializer_list</text>
</a>
</g>
</g>
<!-- Node21&#45;&gt;Node26 -->
<g id="edge42_Node000021_Node000026" class="edge">
<title>Node21&#45;&gt;Node26</title>
<g id="a_edge42_Node000021_Node000026"><a xlink:title=" ">
<path fill="none" stroke="#63b8ff" d="M713.5,-220.83C713.5,-214.32 713.5,-205.17 713.5,-196.87"/>
<polygon fill="#63b8ff" stroke="#63b8ff" points="717,-196.87 713.5,-186.87 710,-196.87 717,-196.87"/>
</a>
</g>
</g>
<!-- Node27 -->
<g id="Node000027" class="node">
<title>Node27</title>
<g id="a_Node000027"><a xlink:title=" ">
<polygon fill="#e0e0e0" stroke="#999999" points="817.75,-185 767.25,-185 767.25,-165.75 817.75,-165.75 817.75,-185"/>
<text xml:space="preserve" text-anchor="middle" x="792.5" y="-171.5" font-family="Helvetica,sans-Serif" font-size="10.00">numeric</text>
</a>
</g>
</g>
<!-- Node21&#45;&gt;Node27 -->
<g id="edge45_Node000021_Node000027" class="edge">
<title>Node21&#45;&gt;Node27</title>
<g id="a_edge45_Node000021_Node000027"><a xlink:title=" ">
<path fill="none" stroke="#63b8ff" d="M726.9,-220.59C738.59,-212.71 755.8,-201.11 769.66,-191.77"/>
<polygon fill="#63b8ff" stroke="#63b8ff" points="771.44,-194.79 777.78,-186.3 767.53,-188.99 771.44,-194.79"/>
</a>
</g>
</g>
<!-- Node28 -->
<g id="Node000028" class="node">
<title>Node28</title>
<g id="a_Node000028"><a xlink:title=" ">
<polygon fill="#e0e0e0" stroke="#999999" points="894.88,-185 836.12,-185 836.12,-165.75 894.88,-165.75 894.88,-185"/>
<text xml:space="preserve" text-anchor="middle" x="865.5" y="-171.5" font-family="Helvetica,sans-Serif" font-size="10.00">stdexcept</text>
</a>
</g>
</g>
<!-- Node21&#45;&gt;Node28 -->
<g id="edge46_Node000021_Node000028" class="edge">
<title>Node21&#45;&gt;Node28</title>
<g id="a_edge46_Node000021_Node000028"><a xlink:title=" ">
<path fill="none" stroke="#63b8ff" d="M739.28,-220.59C763.85,-211.99 801.09,-198.94 828.76,-189.25"/>
<polygon fill="#63b8ff" stroke="#63b8ff" points="829.88,-192.56 838.16,-185.95 827.57,-185.96 829.88,-192.56"/>
</a>
</g>
</g>
<!-- Node29 -->
<g id="Node000029" class="node">
<title>Node29</title>
<g id="a_Node000029"><a xlink:title=" ">
<polygon fill="#e0e0e0" stroke="#999999" points="970.5,-185 912.5,-185 912.5,-165.75 970.5,-165.75 970.5,-185"/>
<text xml:space="preserve" text-anchor="middle" x="941.5" y="-171.5" font-family="Helvetica,sans-Serif" font-size="10.00">functional</text>
</a>
</g>
</g>
<!-- Node21&#45;&gt;Node29 -->
<g id="edge49_Node000021_Node000029" class="edge">
<title>Node21&#45;&gt;Node29</title>
<g id="a_edge49_Node000021_Node000029"><a xlink:title=" ">
<path fill="none" stroke="#63b8ff" d="M740.1,-223.41C779.74,-214.16 854.59,-196.67 901.04,-185.82"/>
<polygon fill="#63b8ff" stroke="#63b8ff" points="901.78,-189.25 910.72,-183.56 900.19,-182.43 901.78,-189.25"/>
</a>
</g>
</g>
<!-- Node30 -->
<g id="Node000030" class="node">
<title>Node30</title>
<g id="a_Node000030"><a xlink:title=" ">
<polygon fill="#e0e0e0" stroke="#999999" points="1028.12,-185 988.88,-185 988.88,-165.75 1028.12,-165.75 1028.12,-185"/>
<text xml:space="preserve" text-anchor="middle" x="1008.5" y="-171.5" font-family="Helvetica,sans-Serif" font-size="10.00">limits</text>
</a>
</g>
</g>
<!-- Node21&#45;&gt;Node30 -->
<g id="edge54_Node000021_Node000030" class="edge">
<title>Node21&#45;&gt;Node30</title>
<g id="a_edge54_Node000021_Node000030"><a xlink:title=" ">
<path fill="none" stroke="#63b8ff" d="M740.14,-226.26C786.45,-220.18 884.94,-206.2 977.64,-185.17"/>
<polygon fill="#63b8ff" stroke="#63b8ff" points="978.18,-188.64 987.14,-182.98 976.61,-181.81 978.18,-188.64"/>
</a>
</g>
</g>
<!-- Node31 -->
<g id="Node000031" class="node">
<title>Node31</title>
<g id="a_Node000031"><a xlink:title=" ">
<polygon fill="#e0e0e0" stroke="#999999" points="1080.88,-185 1046.12,-185 1046.12,-165.75 1080.88,-165.75 1080.88,-185"/>
<text xml:space="preserve" text-anchor="middle" x="1063.5" y="-171.5" font-family="Helvetica,sans-Serif" font-size="10.00">map</text>
</a>
</g>
</g>
<!-- Node21&#45;&gt;Node31 -->
<g id="edge55_Node000021_Node000031" class="edge">
<title>Node21&#45;&gt;Node31</title>
<g id="a_edge55_Node000021_Node000031"><a xlink:title=" ">
<path fill="none" stroke="#63b8ff" d="M740.26,-227.61C794.35,-223.19 920.61,-211.07 1034.72,-185.29"/>
<polygon fill="#63b8ff" stroke="#63b8ff" points="1035.29,-188.75 1044.25,-183.09 1033.71,-181.93 1035.29,-188.75"/>
</a>
</g>
</g>
<!-- Node24&#45;&gt;Node3 -->
<g id="edge38_Node000024_Node000003" class="edge">
<title>Node24&#45;&gt;Node3</title>
<g id="a_edge38_Node000024_Node000003"><a xlink:title=" ">
<path fill="none" stroke="#63b8ff" d="M1199,-110.09C1170.9,-101.19 1127.81,-87.53 1096.96,-77.75"/>
<polygon fill="#63b8ff" stroke="#63b8ff" points="1098.23,-74.48 1087.64,-74.79 1096.11,-81.15 1098.23,-74.48"/>
</a>
</g>
</g>
<!-- Node24&#45;&gt;Node4 -->
<g id="edge27_Node000024_Node000004" class="edge">
<title>Node24&#45;&gt;Node4</title>
<g id="a_edge27_Node000024_Node000004"><a xlink:title=" ">
<path fill="none" stroke="#63b8ff" d="M1187.55,-115C1145.55,-109.62 1078.24,-97.96 1024.5,-74.5 996.83,-62.42 968.89,-41.5 951.18,-26.91"/>
<polygon fill="#63b8ff" stroke="#63b8ff" points="953.51,-24.3 943.61,-20.52 949,-29.65 953.51,-24.3"/>
</a>
</g>
</g>
<!-- Node24&#45;&gt;Node5 -->
<g id="edge28_Node000024_Node000005" class="edge">
<title>Node24&#45;&gt;Node5</title>
<g id="a_edge28_Node000024_Node000005"><a xlink:title=" ">
<path fill="none" stroke="#63b8ff" d="M1240.28,-110.06C1266.45,-91.51 1326.37,-49.01 1358.76,-26.04"/>
<polygon fill="#63b8ff" stroke="#63b8ff" points="1360.5,-29.1 1366.63,-20.46 1356.45,-23.39 1360.5,-29.1"/>
</a>
</g>
</g>
<!-- Node24&#45;&gt;Node6 -->
<g id="edge29_Node000024_Node000006" class="edge">
<title>Node24&#45;&gt;Node6</title>
<g id="a_edge29_Node000024_Node000006"><a xlink:title=" ">
<path fill="none" stroke="#63b8ff" d="M1213.64,-110.15C1194.39,-97.71 1158.42,-74.57 1127.5,-55.25 1111.38,-45.18 1093.14,-34.03 1078.93,-25.39"/>
<polygon fill="#63b8ff" stroke="#63b8ff" points="1081.03,-22.58 1070.67,-20.38 1077.4,-28.56 1081.03,-22.58"/>
</a>
</g>
</g>
<!-- Node24&#45;&gt;Node7 -->
<g id="edge30_Node000024_Node000007" class="edge">
<title>Node24&#45;&gt;Node7</title>
<g id="a_edge30_Node000024_Node000007"><a xlink:title=" ">
<path fill="none" stroke="#63b8ff" d="M1219.27,-110.25C1207.57,-97.73 1185.35,-74.29 1165.5,-55.25 1155.55,-45.71 1144.1,-35.44 1134.67,-27.16"/>
<polygon fill="#63b8ff" stroke="#63b8ff" points="1137.02,-24.57 1127.18,-20.64 1132.42,-29.84 1137.02,-24.57"/>
</a>
</g>
</g>
<!-- Node24&#45;&gt;Node8 -->
<g id="edge31_Node000024_Node000008" class="edge">
<title>Node24&#45;&gt;Node8</title>
<g id="a_edge31_Node000024_Node000008"><a xlink:title=" ">
<path fill="none" stroke="#63b8ff" d="M1205.33,-110.05C1184.85,-101.47 1153.72,-87.95 1127.5,-74.5 1112.39,-66.75 1109.62,-62.97 1094.5,-55.25 1071.45,-43.48 1044.62,-31.72 1024.41,-23.22"/>
<polygon fill="#63b8ff" stroke="#63b8ff" points="1025.91,-20.05 1015.33,-19.44 1023.22,-26.52 1025.91,-20.05"/>
</a>
</g>
</g>
<!-- Node24&#45;&gt;Node9 -->
<g id="edge32_Node000024_Node000009" class="edge">
<title>Node24&#45;&gt;Node9</title>
<g id="a_edge32_Node000024_Node000009"><a xlink:title=" ">
<path fill="none" stroke="#63b8ff" d="M1187.55,-115.59C1138.76,-110.41 1054.23,-98.62 985.5,-74.5 950.2,-62.11 912.67,-40.35 889.41,-25.71"/>
<polygon fill="#63b8ff" stroke="#63b8ff" points="891.37,-22.81 881.06,-20.37 887.59,-28.71 891.37,-22.81"/>
</a>
</g>
</g>
<!-- Node24&#45;&gt;Node10 -->
<g id="edge33_Node000024_Node000010" class="edge">
<title>Node24&#45;&gt;Node10</title>
<g id="a_edge33_Node000024_Node000010"><a xlink:title=" ">
<path fill="none" stroke="#63b8ff" d="M1245.99,-110.1C1264.39,-101.12 1293.42,-86.91 1318.5,-74.5 1352.98,-57.44 1392.59,-37.65 1418.5,-24.67"/>
<polygon fill="#63b8ff" stroke="#63b8ff" points="1419.99,-27.84 1427.36,-20.23 1416.85,-21.58 1419.99,-27.84"/>
</a>
</g>
</g>
<!-- Node24&#45;&gt;Node11 -->
<g id="edge34_Node000024_Node000011" class="edge">
<title>Node24&#45;&gt;Node11</title>
<g id="a_edge34_Node000024_Node000011"><a xlink:title=" ">
<path fill="none" stroke="#63b8ff" d="M1224.69,-110.25C1220.62,-97.74 1212.55,-74.3 1203.5,-55.25 1199.32,-46.45 1194.01,-37.09 1189.27,-29.22"/>
<polygon fill="#63b8ff" stroke="#63b8ff" points="1192.37,-27.57 1184.14,-20.9 1186.41,-31.25 1192.37,-27.57"/>
</a>
</g>
</g>
<!-- Node24&#45;&gt;Node12 -->
<g id="edge35_Node000024_Node000012" class="edge">
<title>Node24&#45;&gt;Node12</title>
<g id="a_edge35_Node000024_Node000012"><a xlink:title=" ">
<path fill="none" stroke="#63b8ff" d="M1230.88,-110.02C1234.08,-101.1 1238.77,-87.04 1241.5,-74.5 1244.67,-59.92 1246.71,-43.18 1247.94,-30.49"/>
<polygon fill="#63b8ff" stroke="#63b8ff" points="1251.39,-31.16 1248.77,-20.9 1244.42,-30.55 1251.39,-31.16"/>
</a>
</g>
</g>
<!-- Node24&#45;&gt;Node13 -->
<g id="edge36_Node000024_Node000013" class="edge">
<title>Node24&#45;&gt;Node13</title>
<g id="a_edge36_Node000024_Node000013"><a xlink:title=" ">
<path fill="none" stroke="#63b8ff" d="M1187.65,-113.41C1054.59,-94.31 627.05,-32.95 504.57,-15.37"/>
<polygon fill="#63b8ff" stroke="#63b8ff" points="505.27,-11.94 494.87,-13.98 504.28,-18.86 505.27,-11.94"/>
</a>
</g>
</g>
<!-- Node24&#45;&gt;Node14 -->
<g id="edge37_Node000024_Node000014" class="edge">
<title>Node24&#45;&gt;Node14</title>
<g id="a_edge37_Node000024_Node000014"><a xlink:title=" ">
<path fill="none" stroke="#63b8ff" d="M1234.95,-110.25C1249.94,-92.36 1284.03,-51.72 1303.72,-28.25"/>
<polygon fill="#63b8ff" stroke="#63b8ff" points="1306.23,-30.7 1309.98,-20.79 1300.87,-26.2 1306.23,-30.7"/>
</a>
</g>
</g>
<!-- Node25&#45;&gt;Node3 -->
<g id="edge40_Node000025_Node000003" class="edge">
<title>Node25&#45;&gt;Node3</title>
<g id="a_edge40_Node000025_Node000003"><a xlink:title=" ">
<path fill="none" stroke="#63b8ff" d="M1195.25,-165.45C1182.98,-152.45 1158.84,-127.97 1135.5,-110.5 1120.42,-99.21 1102.27,-88.46 1087.48,-80.34"/>
<polygon fill="#63b8ff" stroke="#63b8ff" points="1089.21,-77.29 1078.74,-75.64 1085.89,-83.46 1089.21,-77.29"/>
</a>
</g>
</g>
<!-- Node25&#45;&gt;Node24 -->
<g id="edge41_Node000025_Node000024" class="edge">
<title>Node25&#45;&gt;Node24</title>
<g id="a_edge41_Node000025_Node000024"><a xlink:title=" ">
<path fill="none" stroke="#63b8ff" d="M1207.46,-165.58C1210.54,-158.76 1214.91,-149.06 1218.79,-140.45"/>
<polygon fill="#63b8ff" stroke="#63b8ff" points="1221.91,-142.04 1222.83,-131.49 1215.53,-139.17 1221.91,-142.04"/>
</a>
</g>
</g>
</g>
</svg>
