<?xml version="1.0" encoding="UTF-8" standalone="no"?>
<!DOCTYPE svg PUBLIC "-//W3C//DTD SVG 1.1//EN"
 "http://www.w3.org/Graphics/SVG/1.1/DTD/svg11.dtd">
<!-- Generated by graphviz version 14.1.1 (20251213.1925)
 -->
<!-- Title: /Users/ghostface/CLionProjects/Ctorch_2.13/CTorch/src/dev/AutoDiff.h Pages: 1 -->
<svg width="1110pt" height="160pt"
 viewBox="0.00 0.00 1110.00 160.00" xmlns="http://www.w3.org/2000/svg" xmlns:xlink="http://www.w3.org/1999/xlink">
<g id="graph0" class="graph" transform="scale(1 1) rotate(0) translate(4 156.25)">
<title>/Users/ghostface/CLionProjects/Ctorch_2.13/CTorch/src/dev/AutoDiff.h</title>
<!-- Node1 -->
<g id="Node000001" class="node">
<title>Node1</title>
<g id="a_Node000001"><a xlink:title="Ctorch 自动微分系统">
<polygon fill="#999999" stroke="#666666" points="911.25,-152.25 755.75,-152.25 755.75,-110.5 911.25,-110.5 911.25,-152.25"/>
<text xml:space="preserve" text-anchor="start" x="763.75" y="-138.75" font-family="Helvetica,sans-Serif" font-size="10.00">/Users/ghostface/CLionProjects</text>
<text xml:space="preserve" text-anchor="start" x="763.75" y="-127.5" font-family="Helvetica,sans-Serif" font-size="10.00">/Ctorch_2.13/CTorch/src/dev</text>
<text xml:space="preserve" text-anchor="middle" x="833.5" y="-116.25" font-family="Helvetica,sans-Serif" font-size="10.00">/AutoDiff.h</text>
</a>
</g>
</g>
<!-- Node2 -->
<g id="Node000002" class="node">
<title>Node2</title>
<g id="a_Node000002"><a xlink:href="_ctools_8h.html" target="_top" xlink:title="Ctorch 通用工具类，包含通用枚举类型和辅助函数">
<polygon fill="white" stroke="#666666" points="489.88,-74.5 437.12,-74.5 437.12,-55.25 489.88,-55.25 489.88,-74.5"/>
<text xml:space="preserve" text-anchor="middle" x="463.5" y="-61" font-family="Helvetica,sans-Serif" font-size="10.00">Ctools.h</text>
</a>
</g>
</g>
<!-- Node1&#45;&gt;Node2 -->
<g id="edge1_Node000001_Node000002" class="edge">
<title>Node1&#45;&gt;Node2</title>
<g id="a_edge1_Node000001_Node000002"><a xlink:title=" ">
<path fill="none" stroke="#63b8ff" d="M755.48,-116.78C677.37,-103.16 560.48,-82.78 501.07,-72.42"/>
<polygon fill="#63b8ff" stroke="#63b8ff" points="501.93,-69.02 491.47,-70.75 500.72,-75.92 501.93,-69.02"/>
</a>
</g>
</g>
<!-- Node12 -->
<g id="Node000012" class="node">
<title>Node12</title>
<g id="a_Node000012"><a xlink:title=" ">
<polygon fill="#e0e0e0" stroke="#999999" points="762,-19.25 719,-19.25 719,0 762,0 762,-19.25"/>
<text xml:space="preserve" text-anchor="middle" x="740.5" y="-5.75" font-family="Helvetica,sans-Serif" font-size="10.00">mutex</text>
</a>
</g>
</g>
<!-- Node1&#45;&gt;Node12 -->
<g id="edge19_Node000001_Node000012" class="edge">
<title>Node1&#45;&gt;Node12</title>
<g id="a_edge19_Node000001_Node000012"><a xlink:title=" ">
<path fill="none" stroke="#63b8ff" d="M817.72,-110.06C799.93,-87.15 771.26,-50.24 754.32,-28.42"/>
<polygon fill="#63b8ff" stroke="#63b8ff" points="757.26,-26.5 748.36,-20.75 751.73,-30.8 757.26,-26.5"/>
</a>
</g>
</g>
<!-- Node14 -->
<g id="Node000014" class="node">
<title>Node14</title>
<g id="a_Node000014"><a xlink:title=" ">
<polygon fill="#e0e0e0" stroke="#999999" points="823,-19.25 780,-19.25 780,0 823,0 823,-19.25"/>
<text xml:space="preserve" text-anchor="middle" x="801.5" y="-5.75" font-family="Helvetica,sans-Serif" font-size="10.00">vector</text>
</a>
</g>
</g>
<!-- Node1&#45;&gt;Node14 -->
<g id="edge16_Node000001_Node000014" class="edge">
<title>Node1&#45;&gt;Node14</title>
<g id="a_edge16_Node000001_Node000014"><a xlink:title=" ">
<path fill="none" stroke="#63b8ff" d="M828.07,-110.06C822.14,-87.87 812.7,-52.55 806.82,-30.52"/>
<polygon fill="#63b8ff" stroke="#63b8ff" points="810.24,-29.77 804.28,-21.02 803.48,-31.58 810.24,-29.77"/>
</a>
</g>
</g>
<!-- Node15 -->
<g id="Node000015" class="node">
<title>Node15</title>
<g id="a_Node000015"><a xlink:title=" ">
<polygon fill="#e0e0e0" stroke="#999999" points="892.12,-19.25 840.88,-19.25 840.88,0 892.12,0 892.12,-19.25"/>
<text xml:space="preserve" text-anchor="middle" x="866.5" y="-5.75" font-family="Helvetica,sans-Serif" font-size="10.00">memory</text>
</a>
</g>
</g>
<!-- Node1&#45;&gt;Node15 -->
<g id="edge21_Node000001_Node000015" class="edge">
<title>Node1&#45;&gt;Node15</title>
<g id="a_edge21_Node000001_Node000015"><a xlink:title=" ">
<path fill="none" stroke="#63b8ff" d="M838.27,-110.2C841.95,-95.03 847.26,-73.76 852.5,-55.25 854.82,-47.05 857.59,-38.07 860.06,-30.32"/>
<polygon fill="#63b8ff" stroke="#63b8ff" points="863.35,-31.5 863.1,-20.91 856.69,-29.35 863.35,-31.5"/>
</a>
</g>
</g>
<!-- Node17 -->
<g id="Node000017" class="node">
<title>Node17</title>
<g id="a_Node000017"><a xlink:title=" ">
<polygon fill="#e0e0e0" stroke="#999999" points="943.88,-74.5 861.12,-74.5 861.12,-55.25 943.88,-55.25 943.88,-74.5"/>
<text xml:space="preserve" text-anchor="middle" x="902.5" y="-61" font-family="Helvetica,sans-Serif" font-size="10.00">unordered_map</text>
</a>
</g>
</g>
<!-- Node1&#45;&gt;Node17 -->
<g id="edge17_Node000001_Node000017" class="edge">
<title>Node1&#45;&gt;Node17</title>
<g id="a_edge17_Node000001_Node000017"><a xlink:title=" ">
<path fill="none" stroke="#63b8ff" d="M854.95,-110.32C864.45,-101.44 875.49,-91.12 884.54,-82.66"/>
<polygon fill="#63b8ff" stroke="#63b8ff" points="886.78,-85.36 891.69,-75.98 882,-80.25 886.78,-85.36"/>
</a>
</g>
</g>
<!-- Node18 -->
<g id="Node000018" class="node">
<title>Node18</title>
<g id="a_Node000018"><a xlink:title=" ">
<polygon fill="#e0e0e0" stroke="#999999" points="1039.25,-74.5 961.75,-74.5 961.75,-55.25 1039.25,-55.25 1039.25,-74.5"/>
<text xml:space="preserve" text-anchor="middle" x="1000.5" y="-61" font-family="Helvetica,sans-Serif" font-size="10.00">unordered_set</text>
</a>
</g>
</g>
<!-- Node1&#45;&gt;Node18 -->
<g id="edge18_Node000001_Node000018" class="edge">
<title>Node1&#45;&gt;Node18</title>
<g id="a_edge18_Node000001_Node000018"><a xlink:title=" ">
<path fill="none" stroke="#63b8ff" d="M885.88,-110.14C912.19,-99.98 943.3,-87.97 966.47,-79.02"/>
<polygon fill="#63b8ff" stroke="#63b8ff" points="967.67,-82.31 975.74,-75.44 965.15,-75.78 967.67,-82.31"/>
</a>
</g>
</g>
<!-- Node19 -->
<g id="Node000019" class="node">
<title>Node19</title>
<g id="a_Node000019"><a xlink:title=" ">
<polygon fill="#e0e0e0" stroke="#999999" points="1102.12,-74.5 1056.88,-74.5 1056.88,-55.25 1102.12,-55.25 1102.12,-74.5"/>
<text xml:space="preserve" text-anchor="middle" x="1079.5" y="-61" font-family="Helvetica,sans-Serif" font-size="10.00">atomic</text>
</a>
</g>
</g>
<!-- Node1&#45;&gt;Node19 -->
<g id="edge20_Node000001_Node000019" class="edge">
<title>Node1&#45;&gt;Node19</title>
<g id="a_edge20_Node000001_Node000019"><a xlink:title=" ">
<path fill="none" stroke="#63b8ff" d="M911.71,-110.39C949.73,-100.6 996.36,-88.47 1045.61,-75.25"/>
<polygon fill="#63b8ff" stroke="#63b8ff" points="1046.28,-78.69 1055.03,-72.72 1044.46,-71.93 1046.28,-78.69"/>
</a>
</g>
</g>
<!-- Node3 -->
<g id="Node000003" class="node">
<title>Node3</title>
<g id="a_Node000003"><a xlink:title=" ">
<polygon fill="#e0e0e0" stroke="#999999" points="177.12,-19.25 131.88,-19.25 131.88,0 177.12,0 177.12,-19.25"/>
<text xml:space="preserve" text-anchor="middle" x="154.5" y="-5.75" font-family="Helvetica,sans-Serif" font-size="10.00">cstring</text>
</a>
</g>
</g>
<!-- Node2&#45;&gt;Node3 -->
<g id="edge2_Node000002_Node000003" class="edge">
<title>Node2&#45;&gt;Node3</title>
<g id="a_edge2_Node000002_Node000003"><a xlink:title=" ">
<path fill="none" stroke="#63b8ff" d="M436.87,-60.61C388.99,-54.53 285.04,-40.35 188.57,-19.73"/>
<polygon fill="#63b8ff" stroke="#63b8ff" points="189.45,-16.34 178.93,-17.64 187.96,-23.18 189.45,-16.34"/>
</a>
</g>
</g>
<!-- Node4 -->
<g id="Node000004" class="node">
<title>Node4</title>
<g id="a_Node000004"><a xlink:title=" ">
<polygon fill="#e0e0e0" stroke="#999999" points="240.12,-19.25 194.88,-19.25 194.88,0 240.12,0 240.12,-19.25"/>
<text xml:space="preserve" text-anchor="middle" x="217.5" y="-5.75" font-family="Helvetica,sans-Serif" font-size="10.00">chrono</text>
</a>
</g>
</g>
<!-- Node2&#45;&gt;Node4 -->
<g id="edge3_Node000002_Node000004" class="edge">
<title>Node2&#45;&gt;Node4</title>
<g id="a_edge3_Node000002_Node000004"><a xlink:title=" ">
<path fill="none" stroke="#63b8ff" d="M436.89,-58.94C398.14,-51.64 323.67,-37.12 251.56,-19.88"/>
<polygon fill="#63b8ff" stroke="#63b8ff" points="252.49,-16.5 241.95,-17.56 250.85,-23.31 252.49,-16.5"/>
</a>
</g>
</g>
<!-- Node5 -->
<g id="Node000005" class="node">
<title>Node5</title>
<g id="a_Node000005"><a xlink:title=" ">
<polygon fill="#e0e0e0" stroke="#999999" points="303.12,-19.25 257.88,-19.25 257.88,0 303.12,0 303.12,-19.25"/>
<text xml:space="preserve" text-anchor="middle" x="280.5" y="-5.75" font-family="Helvetica,sans-Serif" font-size="10.00">cstdint</text>
</a>
</g>
</g>
<!-- Node2&#45;&gt;Node5 -->
<g id="edge4_Node000002_Node000005" class="edge">
<title>Node2&#45;&gt;Node5</title>
<g id="a_edge4_Node000002_Node000005"><a xlink:title=" ">
<path fill="none" stroke="#63b8ff" d="M436.89,-56.13C404.42,-46.68 349.49,-30.7 314.12,-20.41"/>
<polygon fill="#63b8ff" stroke="#63b8ff" points="315.42,-17.14 304.84,-17.71 313.46,-23.86 315.42,-17.14"/>
</a>
</g>
</g>
<!-- Node6 -->
<g id="Node000006" class="node">
<title>Node6</title>
<g id="a_Node000006"><a xlink:title=" ">
<polygon fill="#e0e0e0" stroke="#999999" points="361.5,-19.25 321.5,-19.25 321.5,0 361.5,0 361.5,-19.25"/>
<text xml:space="preserve" text-anchor="middle" x="341.5" y="-5.75" font-family="Helvetica,sans-Serif" font-size="10.00">ctime</text>
</a>
</g>
</g>
<!-- Node2&#45;&gt;Node6 -->
<g id="edge5_Node000002_Node000006" class="edge">
<title>Node2&#45;&gt;Node6</title>
<g id="a_edge5_Node000002_Node000006"><a xlink:title=" ">
<path fill="none" stroke="#63b8ff" d="M442.8,-54.84C423.5,-46.41 394.44,-33.73 372.39,-24.11"/>
<polygon fill="#63b8ff" stroke="#63b8ff" points="373.84,-20.92 363.28,-20.13 371.04,-27.34 373.84,-20.92"/>
</a>
</g>
</g>
<!-- Node7 -->
<g id="Node000007" class="node">
<title>Node7</title>
<g id="a_Node000007"><a xlink:title=" ">
<polygon fill="#e0e0e0" stroke="#999999" points="419.5,-19.25 379.5,-19.25 379.5,0 419.5,0 419.5,-19.25"/>
<text xml:space="preserve" text-anchor="middle" x="399.5" y="-5.75" font-family="Helvetica,sans-Serif" font-size="10.00">string</text>
</a>
</g>
</g>
<!-- Node2&#45;&gt;Node7 -->
<g id="edge6_Node000002_Node000007" class="edge">
<title>Node2&#45;&gt;Node7</title>
<g id="a_edge6_Node000002_Node000007"><a xlink:title=" ">
<path fill="none" stroke="#63b8ff" d="M452.64,-54.84C443.39,-47.15 429.88,-35.9 418.79,-26.68"/>
<polygon fill="#63b8ff" stroke="#63b8ff" points="421.29,-24.2 411.36,-20.49 416.81,-29.58 421.29,-24.2"/>
</a>
</g>
</g>
<!-- Node8 -->
<g id="Node000008" class="node">
<title>Node8</title>
<g id="a_Node000008"><a xlink:title=" ">
<polygon fill="#e0e0e0" stroke="#999999" points="489.12,-19.25 437.88,-19.25 437.88,0 489.12,0 489.12,-19.25"/>
<text xml:space="preserve" text-anchor="middle" x="463.5" y="-5.75" font-family="Helvetica,sans-Serif" font-size="10.00">sstream</text>
</a>
</g>
</g>
<!-- Node2&#45;&gt;Node8 -->
<g id="edge7_Node000002_Node000008" class="edge">
<title>Node2&#45;&gt;Node8</title>
<g id="a_edge7_Node000002_Node000008"><a xlink:title=" ">
<path fill="none" stroke="#63b8ff" d="M463.5,-55.08C463.5,-48.57 463.5,-39.42 463.5,-31.12"/>
<polygon fill="#63b8ff" stroke="#63b8ff" points="467,-31.12 463.5,-21.12 460,-31.12 467,-31.12"/>
</a>
</g>
</g>
<!-- Node9 -->
<g id="Node000009" class="node">
<title>Node9</title>
<g id="a_Node000009"><a xlink:title=" ">
<polygon fill="#e0e0e0" stroke="#999999" points="557.38,-19.25 507.62,-19.25 507.62,0 557.38,0 557.38,-19.25"/>
<text xml:space="preserve" text-anchor="middle" x="532.5" y="-5.75" font-family="Helvetica,sans-Serif" font-size="10.00">iomanip</text>
</a>
</g>
</g>
<!-- Node2&#45;&gt;Node9 -->
<g id="edge8_Node000002_Node000009" class="edge">
<title>Node2&#45;&gt;Node9</title>
<g id="a_edge8_Node000002_Node000009"><a xlink:title=" ">
<path fill="none" stroke="#63b8ff" d="M475.2,-54.84C485.28,-47.07 500.04,-35.67 512.06,-26.4"/>
<polygon fill="#63b8ff" stroke="#63b8ff" points="513.99,-29.33 519.77,-20.45 509.71,-23.79 513.99,-29.33"/>
</a>
</g>
</g>
<!-- Node10 -->
<g id="Node000010" class="node">
<title>Node10</title>
<g id="a_Node000010"><a xlink:title=" ">
<polygon fill="#e0e0e0" stroke="#999999" points="623.62,-19.25 575.38,-19.25 575.38,0 623.62,0 623.62,-19.25"/>
<text xml:space="preserve" text-anchor="middle" x="599.5" y="-5.75" font-family="Helvetica,sans-Serif" font-size="10.00">stdint.h</text>
</a>
</g>
</g>
<!-- Node2&#45;&gt;Node10 -->
<g id="edge9_Node000002_Node000010" class="edge">
<title>Node2&#45;&gt;Node10</title>
<g id="a_edge9_Node000002_Node000010"><a xlink:title=" ">
<path fill="none" stroke="#63b8ff" d="M486.57,-54.84C508.26,-46.35 540.98,-33.54 565.63,-23.89"/>
<polygon fill="#63b8ff" stroke="#63b8ff" points="566.87,-27.16 574.91,-20.25 564.32,-20.64 566.87,-27.16"/>
</a>
</g>
</g>
<!-- Node11 -->
<g id="Node000011" class="node">
<title>Node11</title>
<g id="a_Node000011"><a xlink:title=" ">
<polygon fill="#e0e0e0" stroke="#999999" points="700.88,-19.25 642.12,-19.25 642.12,0 700.88,0 700.88,-19.25"/>
<text xml:space="preserve" text-anchor="middle" x="671.5" y="-5.75" font-family="Helvetica,sans-Serif" font-size="10.00">inttypes.h</text>
</a>
</g>
</g>
<!-- Node2&#45;&gt;Node11 -->
<g id="edge10_Node000002_Node000011" class="edge">
<title>Node2&#45;&gt;Node11</title>
<g id="a_edge10_Node000002_Node000011"><a xlink:title=" ">
<path fill="none" stroke="#63b8ff" d="M490.27,-57.02C525.87,-47.91 589.14,-31.71 630.71,-21.07"/>
<polygon fill="#63b8ff" stroke="#63b8ff" points="631.53,-24.47 640.35,-18.6 629.79,-17.69 631.53,-24.47"/>
</a>
</g>
</g>
<!-- Node2&#45;&gt;Node12 -->
<g id="edge11_Node000002_Node000012" class="edge">
<title>Node2&#45;&gt;Node12</title>
<g id="a_edge11_Node000002_Node000012"><a xlink:title=" ">
<path fill="none" stroke="#63b8ff" d="M490.24,-59.85C533.69,-53.13 622.51,-38.67 707.41,-19.54"/>
<polygon fill="#63b8ff" stroke="#63b8ff" points="708.1,-22.98 717.07,-17.34 706.54,-16.15 708.1,-22.98"/>
</a>
</g>
</g>
<!-- Node13 -->
<g id="Node000013" class="node">
<title>Node13</title>
<g id="a_Node000013"><a xlink:title=" ">
<polygon fill="#e0e0e0" stroke="#999999" points="43,-19.25 0,-19.25 0,0 43,0 43,-19.25"/>
<text xml:space="preserve" text-anchor="middle" x="21.5" y="-5.75" font-family="Helvetica,sans-Serif" font-size="10.00">thread</text>
</a>
</g>
</g>
<!-- Node2&#45;&gt;Node13 -->
<g id="edge12_Node000002_Node000013" class="edge">
<title>Node2&#45;&gt;Node13</title>
<g id="a_edge12_Node000002_Node000013"><a xlink:title=" ">
<path fill="none" stroke="#63b8ff" d="M436.75,-62.57C372.38,-59.11 203.68,-48.02 54.51,-19.55"/>
<polygon fill="#63b8ff" stroke="#63b8ff" points="55.32,-16.14 44.83,-17.67 53.98,-23.01 55.32,-16.14"/>
</a>
</g>
</g>
<!-- Node2&#45;&gt;Node14 -->
<g id="edge13_Node000002_Node000014" class="edge">
<title>Node2&#45;&gt;Node14</title>
<g id="a_edge13_Node000002_Node000014"><a xlink:title=" ">
<path fill="none" stroke="#63b8ff" d="M490.08,-61.26C541.93,-55.89 660.29,-42.35 768.52,-19.66"/>
<polygon fill="#63b8ff" stroke="#63b8ff" points="769.1,-23.11 778.15,-17.6 767.64,-16.26 769.1,-23.11"/>
</a>
</g>
</g>
<!-- Node2&#45;&gt;Node15 -->
<g id="edge14_Node000002_Node000015" class="edge">
<title>Node2&#45;&gt;Node15</title>
<g id="a_edge14_Node000002_Node000015"><a xlink:title=" ">
<path fill="none" stroke="#63b8ff" d="M490.08,-61.84C549.34,-57.04 696.94,-43.73 829.45,-19.62"/>
<polygon fill="#63b8ff" stroke="#63b8ff" points="829.9,-23.1 839.1,-17.84 828.63,-16.21 829.9,-23.1"/>
</a>
</g>
</g>
<!-- Node16 -->
<g id="Node000016" class="node">
<title>Node16</title>
<g id="a_Node000016"><a xlink:title=" ">
<polygon fill="#e0e0e0" stroke="#999999" points="114.25,-19.25 60.75,-19.25 60.75,0 114.25,0 114.25,-19.25"/>
<text xml:space="preserve" text-anchor="middle" x="87.5" y="-5.75" font-family="Helvetica,sans-Serif" font-size="10.00">iostream</text>
</a>
</g>
</g>
<!-- Node2&#45;&gt;Node16 -->
<g id="edge15_Node000002_Node000016" class="edge">
<title>Node2&#45;&gt;Node16</title>
<g id="a_edge15_Node000002_Node000016"><a xlink:title=" ">
<path fill="none" stroke="#63b8ff" d="M436.81,-61.41C380.88,-56.01 247.11,-41.98 125.88,-19.72"/>
<polygon fill="#63b8ff" stroke="#63b8ff" points="126.53,-16.28 116.06,-17.89 125.24,-23.16 126.53,-16.28"/>
</a>
</g>
</g>
</g>
</svg>
