<?xml version="1.0" encoding="UTF-8" standalone="no"?>
<!DOCTYPE svg PUBLIC "-//W3C//DTD SVG 1.1//EN"
 "http://www.w3.org/Graphics/SVG/1.1/DTD/svg11.dtd">
<!-- Generated by graphviz version 14.1.1 (20251213.1925)
 -->
<!-- Title: Ctorch_Error.h Pages: 1 -->
<svg width="516pt" height="248pt"
 viewBox="0.00 0.00 516.00 248.00" xmlns="http://www.w3.org/2000/svg" xmlns:xlink="http://www.w3.org/1999/xlink">
<g id="graph0" class="graph" transform="scale(1 1) rotate(0) translate(4 244.25)">
<title>Ctorch_Error.h</title>
<!-- Node1 -->
<g id="Node000001" class="node">
<title>Node1</title>
<g id="a_Node000001"><a xlink:title="Ctorch 错误处理类">
<polygon fill="#999999" stroke="#666666" points="361.98,-240.25 282.98,-240.25 282.98,-221 361.98,-221 361.98,-240.25"/>
<text xml:space="preserve" text-anchor="middle" x="322.48" y="-226.75" font-family="Helvetica,sans-Serif" font-size="10.00">Ctorch_Error.h</text>
</a>
</g>
</g>
<!-- Node2 -->
<g id="Node000002" class="node">
<title>Node2</title>
<g id="a_Node000002"><a xlink:href="_ctorch___scheduler_8h.html" target="_top" xlink:title="Ctorch 框架的核心调度器类">
<polygon fill="white" stroke="#666666" points="442.23,-74.5 340.73,-74.5 340.73,-55.25 442.23,-55.25 442.23,-74.5"/>
<text xml:space="preserve" text-anchor="middle" x="391.48" y="-61" font-family="Helvetica,sans-Serif" font-size="10.00">Ctorch_Scheduler.h</text>
</a>
</g>
</g>
<!-- Node1&#45;&gt;Node2 -->
<g id="edge1_Node000001_Node000002" class="edge">
<title>Node1&#45;&gt;Node2</title>
<g id="a_edge1_Node000001_Node000002"><a xlink:title=" ">
<path fill="none" stroke="#63b8ff" d="M340.15,-212.4C347.32,-204.6 355.14,-194.92 360.48,-185 380.83,-147.17 388.33,-95.31 390.62,-74.77"/>
<polygon fill="#63b8ff" stroke="#63b8ff" points="337.72,-209.88 333.29,-219.5 342.75,-214.75 337.72,-209.88"/>
</a>
</g>
</g>
<!-- Node6 -->
<g id="Node000006" class="node">
<title>Node6</title>
<g id="a_Node000006"><a xlink:href="_storage_8h.html" target="_top" xlink:title="Ctorch 存储类，用于管理张量数据的底层存储">
<polygon fill="white" stroke="#666666" points="351.48,-185 293.48,-185 293.48,-165.75 351.48,-165.75 351.48,-185"/>
<text xml:space="preserve" text-anchor="middle" x="322.48" y="-171.5" font-family="Helvetica,sans-Serif" font-size="10.00">Storage.h</text>
</a>
</g>
</g>
<!-- Node1&#45;&gt;Node6 -->
<g id="edge5_Node000001_Node000006" class="edge">
<title>Node1&#45;&gt;Node6</title>
<g id="a_edge5_Node000001_Node000006"><a xlink:title=" ">
<path fill="none" stroke="#63b8ff" d="M322.48,-209.38C322.48,-201.09 322.48,-191.92 322.48,-185.36"/>
<polygon fill="#63b8ff" stroke="#63b8ff" points="318.98,-209.32 322.48,-219.32 325.98,-209.32 318.98,-209.32"/>
</a>
</g>
</g>
<!-- Node8 -->
<g id="Node000008" class="node">
<title>Node8</title>
<g id="a_Node000008"><a xlink:href="_tensor_8h.html" target="_top" xlink:title="张量类和相关操作的定义">
<polygon fill="white" stroke="#666666" points="280.85,-129.75 228.1,-129.75 228.1,-110.5 280.85,-110.5 280.85,-129.75"/>
<text xml:space="preserve" text-anchor="middle" x="254.48" y="-116.25" font-family="Helvetica,sans-Serif" font-size="10.00">Tensor.h</text>
</a>
</g>
</g>
<!-- Node1&#45;&gt;Node8 -->
<g id="edge15_Node000001_Node000008" class="edge">
<title>Node1&#45;&gt;Node8</title>
<g id="a_edge15_Node000001_Node000008"><a xlink:title=" ">
<path fill="none" stroke="#63b8ff" d="M305.82,-212.27C298.71,-204.34 290.66,-194.59 284.48,-185 272.67,-166.67 262.78,-142.95 257.85,-130.19"/>
<polygon fill="#63b8ff" stroke="#63b8ff" points="303.16,-214.55 312.52,-219.52 308.3,-209.8 303.16,-214.55"/>
</a>
</g>
</g>
<!-- Node3 -->
<g id="Node000003" class="node">
<title>Node3</title>
<g id="a_Node000003"><a xlink:href="_tensor_8cpp.html" target="_top" xlink:title="张量类的实现">
<polygon fill="white" stroke="#666666" points="158.1,-19.25 94.85,-19.25 94.85,0 158.1,0 158.1,-19.25"/>
<text xml:space="preserve" text-anchor="middle" x="126.48" y="-5.75" font-family="Helvetica,sans-Serif" font-size="10.00">Tensor.cpp</text>
</a>
</g>
</g>
<!-- Node2&#45;&gt;Node3 -->
<g id="edge2_Node000002_Node000003" class="edge">
<title>Node2&#45;&gt;Node3</title>
<g id="a_edge2_Node000002_Node000003"><a xlink:title=" ">
<path fill="none" stroke="#63b8ff" d="M335.13,-52.55C281.25,-41.72 201.91,-25.78 158.23,-17.01"/>
<polygon fill="#63b8ff" stroke="#63b8ff" points="334.25,-55.94 344.74,-54.48 335.63,-49.08 334.25,-55.94"/>
</a>
</g>
</g>
<!-- Node4 -->
<g id="Node000004" class="node">
<title>Node4</title>
<g id="a_Node000004"><a xlink:href="large__scale__test_8cpp.html" target="_top" xlink:title="大规模Tensor计算测试和20个节点的自动微分测试">
<polygon fill="white" stroke="#666666" points="508.48,-19.25 402.48,-19.25 402.48,0 508.48,0 508.48,-19.25"/>
<text xml:space="preserve" text-anchor="middle" x="455.48" y="-5.75" font-family="Helvetica,sans-Serif" font-size="10.00">large_scale_test.cpp</text>
</a>
</g>
</g>
<!-- Node2&#45;&gt;Node4 -->
<g id="edge3_Node000002_Node000004" class="edge">
<title>Node2&#45;&gt;Node4</title>
<g id="a_edge3_Node000002_Node000004"><a xlink:title=" ">
<path fill="none" stroke="#63b8ff" d="M410.96,-47.66C422.08,-38.42 435.58,-27.18 444.78,-19.52"/>
<polygon fill="#63b8ff" stroke="#63b8ff" points="408.95,-44.79 403.5,-53.87 413.42,-50.17 408.95,-44.79"/>
</a>
</g>
</g>
<!-- Node5 -->
<g id="Node000005" class="node">
<title>Node5</title>
<g id="a_Node000005"><a xlink:href="main_8cpp.html" target="_top" xlink:title=" ">
<polygon fill="white" stroke="#666666" points="355.35,-19.25 299.6,-19.25 299.6,0 355.35,0 355.35,-19.25"/>
<text xml:space="preserve" text-anchor="middle" x="327.48" y="-5.75" font-family="Helvetica,sans-Serif" font-size="10.00">main.cpp</text>
</a>
</g>
</g>
<!-- Node2&#45;&gt;Node5 -->
<g id="edge4_Node000002_Node000005" class="edge">
<title>Node2&#45;&gt;Node5</title>
<g id="a_edge4_Node000002_Node000005"><a xlink:title=" ">
<path fill="none" stroke="#63b8ff" d="M372,-47.66C360.88,-38.42 347.38,-27.18 338.18,-19.52"/>
<polygon fill="#63b8ff" stroke="#63b8ff" points="369.53,-50.17 379.46,-53.87 374.01,-44.79 369.53,-50.17"/>
</a>
</g>
</g>
<!-- Node7 -->
<g id="Node000007" class="node">
<title>Node7</title>
<g id="a_Node000007"><a xlink:href="_storage_8cpp.html" target="_top" xlink:title="Ctorch 存储类实现">
<polygon fill="white" stroke="#666666" points="367.73,-129.75 299.23,-129.75 299.23,-110.5 367.73,-110.5 367.73,-129.75"/>
<text xml:space="preserve" text-anchor="middle" x="333.48" y="-116.25" font-family="Helvetica,sans-Serif" font-size="10.00">Storage.cpp</text>
</a>
</g>
</g>
<!-- Node6&#45;&gt;Node7 -->
<g id="edge6_Node000006_Node000007" class="edge">
<title>Node6&#45;&gt;Node7</title>
<g id="a_edge6_Node000006_Node000007"><a xlink:title=" ">
<path fill="none" stroke="#63b8ff" d="M326.6,-154.42C328.33,-146.05 330.25,-136.75 331.62,-130.11"/>
<polygon fill="#63b8ff" stroke="#63b8ff" points="323.2,-153.6 324.6,-164.1 330.05,-155.01 323.2,-153.6"/>
</a>
</g>
</g>
<!-- Node6&#45;&gt;Node8 -->
<g id="edge7_Node000006_Node000008" class="edge">
<title>Node6&#45;&gt;Node8</title>
<g id="a_edge7_Node000006_Node000008"><a xlink:title=" ">
<path fill="none" stroke="#63b8ff" d="M302.13,-158.44C290.26,-149.14 275.72,-137.76 265.84,-130.02"/>
<polygon fill="#63b8ff" stroke="#63b8ff" points="299.72,-161 309.75,-164.41 304.04,-155.49 299.72,-161"/>
</a>
</g>
</g>
<!-- Node8&#45;&gt;Node2 -->
<g id="edge9_Node000008_Node000002" class="edge">
<title>Node8&#45;&gt;Node2</title>
<g id="a_edge9_Node000008_Node000002"><a xlink:title=" ">
<path fill="none" stroke="#63b8ff" d="M288.14,-106.04C312.97,-96.39 346.14,-83.5 368.12,-74.95"/>
<polygon fill="#63b8ff" stroke="#63b8ff" points="287.18,-102.66 279.13,-109.54 289.72,-109.18 287.18,-102.66"/>
</a>
</g>
</g>
<!-- Node8&#45;&gt;Node3 -->
<g id="edge10_Node000008_Node000003" class="edge">
<title>Node8&#45;&gt;Node3</title>
<g id="a_edge10_Node000008_Node000003"><a xlink:title=" ">
<path fill="none" stroke="#63b8ff" d="M216.28,-118C153.49,-115.27 32.78,-105.95 6.48,-74.5 -20.92,-41.73 50.41,-23.37 94.56,-15.42"/>
<polygon fill="#63b8ff" stroke="#63b8ff" points="216.02,-121.5 226.15,-118.4 216.3,-114.5 216.02,-121.5"/>
</a>
</g>
</g>
<!-- Node8&#45;&gt;Node4 -->
<g id="edge11_Node000008_Node000004" class="edge">
<title>Node8&#45;&gt;Node4</title>
<g id="a_edge11_Node000008_Node000004"><a xlink:title=" ">
<path fill="none" stroke="#63b8ff" d="M292.3,-110.39C365.86,-97.16 406.1,-127.65 451.48,-74.5 464.61,-59.12 461.09,-33.32 457.96,-19.7"/>
<polygon fill="#63b8ff" stroke="#63b8ff" points="291.78,-106.92 282.69,-112.37 293.19,-113.78 291.78,-106.92"/>
</a>
</g>
</g>
<!-- Node8&#45;&gt;Node5 -->
<g id="edge12_Node000008_Node000005" class="edge">
<title>Node8&#45;&gt;Node5</title>
<g id="a_edge12_Node000008_Node000005"><a xlink:title=" ">
<path fill="none" stroke="#63b8ff" d="M271.38,-101.68C278.64,-93.74 286.93,-84 293.48,-74.5 306.17,-56.09 317.65,-32.4 323.47,-19.67"/>
<polygon fill="#63b8ff" stroke="#63b8ff" points="268.84,-99.28 264.55,-108.96 273.94,-104.07 268.84,-99.28"/>
</a>
</g>
</g>
<!-- Node9 -->
<g id="Node000009" class="node">
<title>Node9</title>
<g id="a_Node000009"><a xlink:href="_auto_diff_8cpp.html" target="_top" xlink:title="Ctorch 自动微分系统实现">
<polygon fill="white" stroke="#666666" points="85.85,-74.5 15.1,-74.5 15.1,-55.25 85.85,-55.25 85.85,-74.5"/>
<text xml:space="preserve" text-anchor="middle" x="50.48" y="-61" font-family="Helvetica,sans-Serif" font-size="10.00">AutoDiff.cpp</text>
</a>
</g>
</g>
<!-- Node8&#45;&gt;Node9 -->
<g id="edge8_Node000008_Node000009" class="edge">
<title>Node8&#45;&gt;Node9</title>
<g id="a_edge8_Node000008_Node000009"><a xlink:title=" ">
<path fill="none" stroke="#63b8ff" d="M216.82,-109.3C179.23,-99.48 121.93,-84.53 85.35,-74.98"/>
<polygon fill="#63b8ff" stroke="#63b8ff" points="215.79,-112.64 226.34,-111.78 217.55,-105.87 215.79,-112.64"/>
</a>
</g>
</g>
<!-- Node10 -->
<g id="Node000010" class="node">
<title>Node10</title>
<g id="a_Node000010"><a xlink:href="performance__test_8cpp.html" target="_top" xlink:title=" ">
<polygon fill="white" stroke="#666666" points="214.73,-74.5 104.23,-74.5 104.23,-55.25 214.73,-55.25 214.73,-74.5"/>
<text xml:space="preserve" text-anchor="middle" x="159.48" y="-61" font-family="Helvetica,sans-Serif" font-size="10.00">performance_test.cpp</text>
</a>
</g>
</g>
<!-- Node8&#45;&gt;Node10 -->
<g id="edge13_Node000008_Node000010" class="edge">
<title>Node8&#45;&gt;Node10</title>
<g id="a_edge13_Node000008_Node000010"><a xlink:title=" ">
<path fill="none" stroke="#63b8ff" d="M228.55,-104.59C211.67,-95.13 190.17,-83.08 175.67,-74.95"/>
<polygon fill="#63b8ff" stroke="#63b8ff" points="226.61,-107.52 237.04,-109.35 230.03,-101.41 226.61,-107.52"/>
</a>
</g>
</g>
<!-- Node11 -->
<g id="Node000011" class="node">
<title>Node11</title>
<g id="a_Node000011"><a xlink:href="test_8cpp.html" target="_top" xlink:title=" ">
<polygon fill="white" stroke="#666666" points="284.1,-74.5 232.85,-74.5 232.85,-55.25 284.1,-55.25 284.1,-74.5"/>
<text xml:space="preserve" text-anchor="middle" x="258.48" y="-61" font-family="Helvetica,sans-Serif" font-size="10.00">test.cpp</text>
</a>
</g>
</g>
<!-- Node8&#45;&gt;Node11 -->
<g id="edge14_Node000008_Node000011" class="edge">
<title>Node8&#45;&gt;Node11</title>
<g id="a_edge14_Node000008_Node000011"><a xlink:title=" ">
<path fill="none" stroke="#63b8ff" d="M256,-98.88C256.62,-90.59 257.31,-81.42 257.8,-74.86"/>
<polygon fill="#63b8ff" stroke="#63b8ff" points="252.51,-98.59 255.25,-108.82 259.49,-99.11 252.51,-98.59"/>
</a>
</g>
</g>
</g>
</svg>
