<?xml version="1.0" encoding="UTF-8" standalone="no"?>
<!DOCTYPE svg PUBLIC "-//W3C//DTD SVG 1.1//EN"
 "http://www.w3.org/Graphics/SVG/1.1/DTD/svg11.dtd">
<!-- Generated by graphviz version 14.1.1 (20251213.1925)
 -->
<!-- Title: /Users/ghostface/CLionProjects/Ctorch_2.13/CTorch/src/dev/Ctorch_Error.h Pages: 1 -->
<svg width="900pt" height="160pt"
 viewBox="0.00 0.00 900.00 160.00" xmlns="http://www.w3.org/2000/svg" xmlns:xlink="http://www.w3.org/1999/xlink">
<g id="graph0" class="graph" transform="scale(1 1) rotate(0) translate(4 156.25)">
<title>/Users/ghostface/CLionProjects/Ctorch_2.13/CTorch/src/dev/Ctorch_Error.h</title>
<!-- Node1 -->
<g id="Node000001" class="node">
<title>Node1</title>
<g id="a_Node000001"><a xlink:title="Ctorch 错误处理类">
<polygon fill="#999999" stroke="#666666" points="428.38,-152.25 272.88,-152.25 272.88,-110.5 428.38,-110.5 428.38,-152.25"/>
<text xml:space="preserve" text-anchor="start" x="280.88" y="-138.75" font-family="Helvetica,sans-Serif" font-size="10.00">/Users/ghostface/CLionProjects</text>
<text xml:space="preserve" text-anchor="start" x="280.88" y="-127.5" font-family="Helvetica,sans-Serif" font-size="10.00">/Ctorch_2.13/CTorch/src/dev</text>
<text xml:space="preserve" text-anchor="middle" x="350.62" y="-116.25" font-family="Helvetica,sans-Serif" font-size="10.00">/Ctorch_Error.h</text>
</a>
</g>
</g>
<!-- Node2 -->
<g id="Node000002" class="node">
<title>Node2</title>
<g id="a_Node000002"><a xlink:title=" ">
<polygon fill="#e0e0e0" stroke="#999999" points="45.25,-19.25 0,-19.25 0,0 45.25,0 45.25,-19.25"/>
<text xml:space="preserve" text-anchor="middle" x="22.62" y="-5.75" font-family="Helvetica,sans-Serif" font-size="10.00">cstring</text>
</a>
</g>
</g>
<!-- Node1&#45;&gt;Node2 -->
<g id="edge1_Node000001_Node000002" class="edge">
<title>Node1&#45;&gt;Node2</title>
<g id="a_edge1_Node000001_Node000002"><a xlink:title=" ">
<path fill="none" stroke="#63b8ff" d="M282.84,-110.03C250.47,-99.96 211.32,-87.24 176.62,-74.5 133.31,-58.59 84.22,-37.73 53.35,-24.25"/>
<polygon fill="#63b8ff" stroke="#63b8ff" points="54.79,-21.06 44.23,-20.25 51.98,-27.47 54.79,-21.06"/>
</a>
</g>
</g>
<!-- Node3 -->
<g id="Node000003" class="node">
<title>Node3</title>
<g id="a_Node000003"><a xlink:title=" ">
<polygon fill="#e0e0e0" stroke="#999999" points="108.25,-19.25 63,-19.25 63,0 108.25,0 108.25,-19.25"/>
<text xml:space="preserve" text-anchor="middle" x="85.62" y="-5.75" font-family="Helvetica,sans-Serif" font-size="10.00">chrono</text>
</a>
</g>
</g>
<!-- Node1&#45;&gt;Node3 -->
<g id="edge2_Node000001_Node000003" class="edge">
<title>Node1&#45;&gt;Node3</title>
<g id="a_edge2_Node000001_Node000003"><a xlink:title=" ">
<path fill="none" stroke="#63b8ff" d="M302.69,-110.02C278.33,-99.58 248.32,-86.55 221.62,-74.5 184.47,-57.73 142.01,-37.64 114.55,-24.52"/>
<polygon fill="#63b8ff" stroke="#63b8ff" points="116.36,-21.51 105.83,-20.35 113.34,-27.82 116.36,-21.51"/>
</a>
</g>
</g>
<!-- Node4 -->
<g id="Node000004" class="node">
<title>Node4</title>
<g id="a_Node000004"><a xlink:title=" ">
<polygon fill="#e0e0e0" stroke="#999999" points="171.25,-19.25 126,-19.25 126,0 171.25,0 171.25,-19.25"/>
<text xml:space="preserve" text-anchor="middle" x="148.62" y="-5.75" font-family="Helvetica,sans-Serif" font-size="10.00">cstdint</text>
</a>
</g>
</g>
<!-- Node1&#45;&gt;Node4 -->
<g id="edge3_Node000001_Node000004" class="edge">
<title>Node1&#45;&gt;Node4</title>
<g id="a_edge3_Node000001_Node000004"><a xlink:title=" ">
<path fill="none" stroke="#63b8ff" d="M316.36,-110.06C275.79,-86.01 209.22,-46.55 173.36,-25.29"/>
<polygon fill="#63b8ff" stroke="#63b8ff" points="175.38,-22.42 164.99,-20.33 171.81,-28.44 175.38,-22.42"/>
</a>
</g>
</g>
<!-- Node5 -->
<g id="Node000005" class="node">
<title>Node5</title>
<g id="a_Node000005"><a xlink:title=" ">
<polygon fill="#e0e0e0" stroke="#999999" points="229.62,-19.25 189.62,-19.25 189.62,0 229.62,0 229.62,-19.25"/>
<text xml:space="preserve" text-anchor="middle" x="209.62" y="-5.75" font-family="Helvetica,sans-Serif" font-size="10.00">ctime</text>
</a>
</g>
</g>
<!-- Node1&#45;&gt;Node5 -->
<g id="edge4_Node000001_Node000005" class="edge">
<title>Node1&#45;&gt;Node5</title>
<g id="a_edge4_Node000001_Node000005"><a xlink:title=" ">
<path fill="none" stroke="#63b8ff" d="M326.71,-110.06C299.12,-86.63 254.3,-48.57 228.86,-26.96"/>
<polygon fill="#63b8ff" stroke="#63b8ff" points="231.18,-24.34 221.29,-20.54 226.65,-29.68 231.18,-24.34"/>
</a>
</g>
</g>
<!-- Node6 -->
<g id="Node000006" class="node">
<title>Node6</title>
<g id="a_Node000006"><a xlink:title=" ">
<polygon fill="#e0e0e0" stroke="#999999" points="287.62,-19.25 247.62,-19.25 247.62,0 287.62,0 287.62,-19.25"/>
<text xml:space="preserve" text-anchor="middle" x="267.62" y="-5.75" font-family="Helvetica,sans-Serif" font-size="10.00">string</text>
</a>
</g>
</g>
<!-- Node1&#45;&gt;Node6 -->
<g id="edge5_Node000001_Node000006" class="edge">
<title>Node1&#45;&gt;Node6</title>
<g id="a_edge5_Node000001_Node000006"><a xlink:title=" ">
<path fill="none" stroke="#63b8ff" d="M336.55,-110.06C320.81,-87.35 295.54,-50.9 280.37,-29.01"/>
<polygon fill="#63b8ff" stroke="#63b8ff" points="283.25,-27.02 274.68,-20.8 277.5,-31.01 283.25,-27.02"/>
</a>
</g>
</g>
<!-- Node7 -->
<g id="Node000007" class="node">
<title>Node7</title>
<g id="a_Node000007"><a xlink:title=" ">
<polygon fill="#e0e0e0" stroke="#999999" points="357.25,-19.25 306,-19.25 306,0 357.25,0 357.25,-19.25"/>
<text xml:space="preserve" text-anchor="middle" x="331.62" y="-5.75" font-family="Helvetica,sans-Serif" font-size="10.00">sstream</text>
</a>
</g>
</g>
<!-- Node1&#45;&gt;Node7 -->
<g id="edge6_Node000001_Node000007" class="edge">
<title>Node1&#45;&gt;Node7</title>
<g id="a_edge6_Node000001_Node000007"><a xlink:title=" ">
<path fill="none" stroke="#63b8ff" d="M347.4,-110.06C343.9,-87.97 338.33,-52.88 334.83,-30.83"/>
<polygon fill="#63b8ff" stroke="#63b8ff" points="338.3,-30.38 333.28,-21.05 331.39,-31.48 338.3,-30.38"/>
</a>
</g>
</g>
<!-- Node8 -->
<g id="Node000008" class="node">
<title>Node8</title>
<g id="a_Node000008"><a xlink:title=" ">
<polygon fill="#e0e0e0" stroke="#999999" points="425.5,-19.25 375.75,-19.25 375.75,0 425.5,0 425.5,-19.25"/>
<text xml:space="preserve" text-anchor="middle" x="400.62" y="-5.75" font-family="Helvetica,sans-Serif" font-size="10.00">iomanip</text>
</a>
</g>
</g>
<!-- Node1&#45;&gt;Node8 -->
<g id="edge7_Node000001_Node000008" class="edge">
<title>Node1&#45;&gt;Node8</title>
<g id="a_edge7_Node000001_Node000008"><a xlink:title=" ">
<path fill="none" stroke="#63b8ff" d="M359.11,-110.06C368.46,-87.66 383.39,-51.89 392.57,-29.91"/>
<polygon fill="#63b8ff" stroke="#63b8ff" points="395.69,-31.53 396.31,-20.95 389.23,-28.83 395.69,-31.53"/>
</a>
</g>
</g>
<!-- Node9 -->
<g id="Node000009" class="node">
<title>Node9</title>
<g id="a_Node000009"><a xlink:title=" ">
<polygon fill="#e0e0e0" stroke="#999999" points="692.75,-19.25 644.5,-19.25 644.5,0 692.75,0 692.75,-19.25"/>
<text xml:space="preserve" text-anchor="middle" x="668.62" y="-5.75" font-family="Helvetica,sans-Serif" font-size="10.00">stdint.h</text>
</a>
</g>
</g>
<!-- Node1&#45;&gt;Node9 -->
<g id="edge8_Node000001_Node000009" class="edge">
<title>Node1&#45;&gt;Node9</title>
<g id="a_edge8_Node000001_Node000009"><a xlink:title=" ">
<path fill="none" stroke="#63b8ff" d="M404.57,-110.06C470.05,-85.4 578.57,-44.54 633.88,-23.71"/>
<polygon fill="#63b8ff" stroke="#63b8ff" points="634.98,-27.03 643.11,-20.23 632.52,-20.48 634.98,-27.03"/>
</a>
</g>
</g>
<!-- Node10 -->
<g id="Node000010" class="node">
<title>Node10</title>
<g id="a_Node000010"><a xlink:title=" ">
<polygon fill="#e0e0e0" stroke="#999999" points="770,-19.25 711.25,-19.25 711.25,0 770,0 770,-19.25"/>
<text xml:space="preserve" text-anchor="middle" x="740.62" y="-5.75" font-family="Helvetica,sans-Serif" font-size="10.00">inttypes.h</text>
</a>
</g>
</g>
<!-- Node1&#45;&gt;Node10 -->
<g id="edge9_Node000001_Node000010" class="edge">
<title>Node1&#45;&gt;Node10</title>
<g id="a_edge9_Node000001_Node000010"><a xlink:title=" ">
<path fill="none" stroke="#63b8ff" d="M419.53,-110.05C454.87,-99.55 498.59,-86.47 537.62,-74.5 594.61,-57.02 660.39,-36.2 701.25,-23.2"/>
<polygon fill="#63b8ff" stroke="#63b8ff" points="702.18,-26.58 710.65,-20.21 700.06,-19.91 702.18,-26.58"/>
</a>
</g>
</g>
<!-- Node11 -->
<g id="Node000011" class="node">
<title>Node11</title>
<g id="a_Node000011"><a xlink:title=" ">
<polygon fill="#e0e0e0" stroke="#999999" points="831.12,-19.25 788.12,-19.25 788.12,0 831.12,0 831.12,-19.25"/>
<text xml:space="preserve" text-anchor="middle" x="809.62" y="-5.75" font-family="Helvetica,sans-Serif" font-size="10.00">mutex</text>
</a>
</g>
</g>
<!-- Node1&#45;&gt;Node11 -->
<g id="edge10_Node000001_Node000011" class="edge">
<title>Node1&#45;&gt;Node11</title>
<g id="a_edge10_Node000001_Node000011"><a xlink:title=" ">
<path fill="none" stroke="#63b8ff" d="M428.67,-112.36C473.77,-101.75 531.51,-87.84 582.62,-74.5 652.08,-56.37 732.88,-33.11 776.9,-20.25"/>
<polygon fill="#63b8ff" stroke="#63b8ff" points="777.72,-23.66 786.33,-17.49 775.75,-16.94 777.72,-23.66"/>
</a>
</g>
</g>
<!-- Node12 -->
<g id="Node000012" class="node">
<title>Node12</title>
<g id="a_Node000012"><a xlink:title=" ">
<polygon fill="#e0e0e0" stroke="#999999" points="892.12,-19.25 849.12,-19.25 849.12,0 892.12,0 892.12,-19.25"/>
<text xml:space="preserve" text-anchor="middle" x="870.62" y="-5.75" font-family="Helvetica,sans-Serif" font-size="10.00">thread</text>
</a>
</g>
</g>
<!-- Node1&#45;&gt;Node12 -->
<g id="edge11_Node000001_Node000012" class="edge">
<title>Node1&#45;&gt;Node12</title>
<g id="a_edge11_Node000001_Node000012"><a xlink:title=" ">
<path fill="none" stroke="#63b8ff" d="M428.74,-116.09C485.06,-105.48 562.77,-90.18 630.62,-74.5 721.17,-53.58 745.78,-45.47 837.75,-20.02"/>
<polygon fill="#63b8ff" stroke="#63b8ff" points="838.52,-23.43 847.23,-17.4 836.66,-16.69 838.52,-23.43"/>
</a>
</g>
</g>
<!-- Node13 -->
<g id="Node000013" class="node">
<title>Node13</title>
<g id="a_Node000013"><a xlink:href="_ctools_8h.html" target="_top" xlink:title="Ctorch 通用工具类，包含通用枚举类型和辅助函数">
<polygon fill="white" stroke="#666666" points="450,-74.5 397.25,-74.5 397.25,-55.25 450,-55.25 450,-74.5"/>
<text xml:space="preserve" text-anchor="middle" x="423.62" y="-61" font-family="Helvetica,sans-Serif" font-size="10.00">Ctools.h</text>
</a>
</g>
</g>
<!-- Node1&#45;&gt;Node13 -->
<g id="edge12_Node000001_Node000013" class="edge">
<title>Node1&#45;&gt;Node13</title>
<g id="a_edge12_Node000001_Node000013"><a xlink:title=" ">
<path fill="none" stroke="#63b8ff" d="M373.32,-110.32C383.47,-101.35 395.29,-90.91 404.92,-82.4"/>
<polygon fill="#63b8ff" stroke="#63b8ff" points="407.05,-85.19 412.23,-75.95 402.41,-79.95 407.05,-85.19"/>
</a>
</g>
</g>
<!-- Node13&#45;&gt;Node2 -->
<g id="edge13_Node000013_Node000002" class="edge">
<title>Node13&#45;&gt;Node2</title>
<g id="a_edge13_Node000013_Node000002"><a xlink:title=" ">
<path fill="none" stroke="#63b8ff" d="M396.94,-62.05C337.43,-57.68 189.28,-45.18 56.7,-19.61"/>
<polygon fill="#63b8ff" stroke="#63b8ff" points="57.53,-16.21 47.04,-17.71 56.18,-23.07 57.53,-16.21"/>
</a>
</g>
</g>
<!-- Node13&#45;&gt;Node3 -->
<g id="edge14_Node000013_Node000003" class="edge">
<title>Node13&#45;&gt;Node3</title>
<g id="a_edge14_Node000013_Node000003"><a xlink:title=" ">
<path fill="none" stroke="#63b8ff" d="M397.14,-61.17C345.5,-55.66 227.57,-41.88 119.65,-19.68"/>
<polygon fill="#63b8ff" stroke="#63b8ff" points="120.55,-16.29 110.05,-17.67 119.12,-23.14 120.55,-16.29"/>
</a>
</g>
</g>
<!-- Node13&#45;&gt;Node4 -->
<g id="edge15_Node000013_Node000004" class="edge">
<title>Node13&#45;&gt;Node4</title>
<g id="a_edge15_Node000013_Node000004"><a xlink:title=" ">
<path fill="none" stroke="#63b8ff" d="M396.87,-59.7C353.84,-52.82 266.4,-38.2 182.63,-19.54"/>
<polygon fill="#63b8ff" stroke="#63b8ff" points="183.64,-16.18 173.12,-17.4 182.1,-23.01 183.64,-16.18"/>
</a>
</g>
</g>
<!-- Node13&#45;&gt;Node5 -->
<g id="edge16_Node000013_Node000005" class="edge">
<title>Node13&#45;&gt;Node5</title>
<g id="a_edge16_Node000013_Node000005"><a xlink:title=" ">
<path fill="none" stroke="#63b8ff" d="M396.86,-57.88C362.83,-50.16 302.02,-36.04 240.88,-19.75"/>
<polygon fill="#63b8ff" stroke="#63b8ff" points="241.9,-16.4 231.33,-17.19 240.08,-23.16 241.9,-16.4"/>
</a>
</g>
</g>
<!-- Node13&#45;&gt;Node6 -->
<g id="edge17_Node000013_Node000006" class="edge">
<title>Node13&#45;&gt;Node6</title>
<g id="a_edge17_Node000013_Node000006"><a xlink:title=" ">
<path fill="none" stroke="#63b8ff" d="M397.16,-54.84C369.84,-45.52 327.25,-30.98 298.44,-21.14"/>
<polygon fill="#63b8ff" stroke="#63b8ff" points="299.78,-17.9 289.19,-17.99 297.52,-24.53 299.78,-17.9"/>
</a>
</g>
</g>
<!-- Node13&#45;&gt;Node7 -->
<g id="edge18_Node000013_Node000007" class="edge">
<title>Node13&#45;&gt;Node7</title>
<g id="a_edge18_Node000013_Node000007"><a xlink:title=" ">
<path fill="none" stroke="#63b8ff" d="M408.02,-54.84C394.01,-46.73 373.19,-34.68 356.82,-25.21"/>
<polygon fill="#63b8ff" stroke="#63b8ff" points="359.03,-22.44 348.62,-20.46 355.52,-28.5 359.03,-22.44"/>
</a>
</g>
</g>
<!-- Node13&#45;&gt;Node8 -->
<g id="edge19_Node000013_Node000008" class="edge">
<title>Node13&#45;&gt;Node8</title>
<g id="a_edge19_Node000013_Node000008"><a xlink:title=" ">
<path fill="none" stroke="#63b8ff" d="M419.83,-55.08C416.88,-48.26 412.69,-38.56 408.97,-29.95"/>
<polygon fill="#63b8ff" stroke="#63b8ff" points="412.28,-28.79 405.11,-21 405.86,-31.57 412.28,-28.79"/>
</a>
</g>
</g>
<!-- Node13&#45;&gt;Node9 -->
<g id="edge20_Node000013_Node000009" class="edge">
<title>Node13&#45;&gt;Node9</title>
<g id="a_edge20_Node000013_Node000009"><a xlink:title=" ">
<path fill="none" stroke="#63b8ff" d="M450.49,-58.65C488.85,-51.1 561.79,-36.4 633.17,-19.74"/>
<polygon fill="#63b8ff" stroke="#63b8ff" points="633.74,-23.2 642.68,-17.51 632.14,-16.39 633.74,-23.2"/>
</a>
</g>
</g>
<!-- Node13&#45;&gt;Node10 -->
<g id="edge21_Node000013_Node000010" class="edge">
<title>Node13&#45;&gt;Node10</title>
<g id="a_edge21_Node000013_Node000010"><a xlink:title=" ">
<path fill="none" stroke="#63b8ff" d="M450.16,-60.14C497.89,-53.32 601.6,-37.98 699.55,-19.54"/>
<polygon fill="#63b8ff" stroke="#63b8ff" points="700.19,-22.98 709.36,-17.68 698.89,-16.11 700.19,-22.98"/>
</a>
</g>
</g>
<!-- Node13&#45;&gt;Node11 -->
<g id="edge22_Node000013_Node000011" class="edge">
<title>Node13&#45;&gt;Node11</title>
<g id="a_edge22_Node000013_Node000011"><a xlink:title=" ">
<path fill="none" stroke="#63b8ff" d="M450.11,-61.88C507.72,-57.26 648.83,-44.41 776.57,-19.37"/>
<polygon fill="#63b8ff" stroke="#63b8ff" points="777.1,-22.84 786.22,-17.45 775.73,-15.97 777.1,-22.84"/>
</a>
</g>
</g>
<!-- Node13&#45;&gt;Node12 -->
<g id="edge23_Node000013_Node000012" class="edge">
<title>Node13&#45;&gt;Node12</title>
<g id="a_edge23_Node000013_Node000012"><a xlink:title=" ">
<path fill="none" stroke="#63b8ff" d="M450.21,-62.63C515.05,-59.26 686.57,-48.31 837.92,-19.49"/>
<polygon fill="#63b8ff" stroke="#63b8ff" points="838.14,-23.01 847.29,-17.67 836.81,-16.14 838.14,-23.01"/>
</a>
</g>
</g>
<!-- Node14 -->
<g id="Node000014" class="node">
<title>Node14</title>
<g id="a_Node000014"><a xlink:title=" ">
<polygon fill="#e0e0e0" stroke="#999999" points="486.12,-19.25 443.12,-19.25 443.12,0 486.12,0 486.12,-19.25"/>
<text xml:space="preserve" text-anchor="middle" x="464.62" y="-5.75" font-family="Helvetica,sans-Serif" font-size="10.00">vector</text>
</a>
</g>
</g>
<!-- Node13&#45;&gt;Node14 -->
<g id="edge24_Node000013_Node000014" class="edge">
<title>Node13&#45;&gt;Node14</title>
<g id="a_edge24_Node000013_Node000014"><a xlink:title=" ">
<path fill="none" stroke="#63b8ff" d="M430.4,-55.08C435.94,-47.88 443.97,-37.46 450.85,-28.51"/>
<polygon fill="#63b8ff" stroke="#63b8ff" points="453.46,-30.87 456.78,-20.81 447.91,-26.6 453.46,-30.87"/>
</a>
</g>
</g>
<!-- Node15 -->
<g id="Node000015" class="node">
<title>Node15</title>
<g id="a_Node000015"><a xlink:title=" ">
<polygon fill="#e0e0e0" stroke="#999999" points="555.25,-19.25 504,-19.25 504,0 555.25,0 555.25,-19.25"/>
<text xml:space="preserve" text-anchor="middle" x="529.62" y="-5.75" font-family="Helvetica,sans-Serif" font-size="10.00">memory</text>
</a>
</g>
</g>
<!-- Node13&#45;&gt;Node15 -->
<g id="edge25_Node000013_Node000015" class="edge">
<title>Node13&#45;&gt;Node15</title>
<g id="a_edge25_Node000013_Node000015"><a xlink:title=" ">
<path fill="none" stroke="#63b8ff" d="M441.61,-54.84C457.98,-46.62 482.41,-34.34 501.39,-24.81"/>
<polygon fill="#63b8ff" stroke="#63b8ff" points="502.84,-28 510.2,-20.38 499.7,-21.74 502.84,-28"/>
</a>
</g>
</g>
<!-- Node16 -->
<g id="Node000016" class="node">
<title>Node16</title>
<g id="a_Node000016"><a xlink:title=" ">
<polygon fill="#e0e0e0" stroke="#999999" points="626.38,-19.25 572.88,-19.25 572.88,0 626.38,0 626.38,-19.25"/>
<text xml:space="preserve" text-anchor="middle" x="599.62" y="-5.75" font-family="Helvetica,sans-Serif" font-size="10.00">iostream</text>
</a>
</g>
</g>
<!-- Node13&#45;&gt;Node16 -->
<g id="edge26_Node000013_Node000016" class="edge">
<title>Node13&#45;&gt;Node16</title>
<g id="a_edge26_Node000013_Node000016"><a xlink:title=" ">
<path fill="none" stroke="#63b8ff" d="M450.36,-55.79C480.08,-46.8 528.31,-32.2 561.87,-22.05"/>
<polygon fill="#63b8ff" stroke="#63b8ff" points="562.64,-25.47 571.19,-19.23 560.61,-18.77 562.64,-25.47"/>
</a>
</g>
</g>
</g>
</svg>
