<?xml version="1.0" encoding="UTF-8" standalone="no"?>
<!DOCTYPE svg PUBLIC "-//W3C//DTD SVG 1.1//EN"
 "http://www.w3.org/Graphics/SVG/1.1/DTD/svg11.dtd">
<!-- Generated by graphviz version 14.1.1 (20251213.1925)
 -->
<!-- Title: Ctorch_Scheduler.h Pages: 1 -->
<svg width="270pt" height="83pt"
 viewBox="0.00 0.00 270.00 83.00" xmlns="http://www.w3.org/2000/svg" xmlns:xlink="http://www.w3.org/1999/xlink">
<g id="graph0" class="graph" transform="scale(1 1) rotate(0) translate(4 78.5)">
<title>Ctorch_Scheduler.h</title>
<!-- Node1 -->
<g id="Node000001" class="node">
<title>Node1</title>
<g id="a_Node000001"><a xlink:title="Ctorch 框架的核心调度器类">
<polygon fill="#999999" stroke="#666666" points="185.38,-74.5 83.88,-74.5 83.88,-55.25 185.38,-55.25 185.38,-74.5"/>
<text xml:space="preserve" text-anchor="middle" x="134.62" y="-61" font-family="Helvetica,sans-Serif" font-size="10.00">Ctorch_Scheduler.h</text>
</a>
</g>
</g>
<!-- Node2 -->
<g id="Node000002" class="node">
<title>Node2</title>
<g id="a_Node000002"><a xlink:href="_tensor_8cpp.html" target="_top" xlink:title="张量类的实现">
<polygon fill="white" stroke="#666666" points="63.25,-19.25 0,-19.25 0,0 63.25,0 63.25,-19.25"/>
<text xml:space="preserve" text-anchor="middle" x="31.62" y="-5.75" font-family="Helvetica,sans-Serif" font-size="10.00">Tensor.cpp</text>
</a>
</g>
</g>
<!-- Node1&#45;&gt;Node2 -->
<g id="edge1_Node000001_Node000002" class="edge">
<title>Node1&#45;&gt;Node2</title>
<g id="a_edge1_Node000001_Node000002"><a xlink:title=" ">
<path fill="none" stroke="#63b8ff" d="M107.03,-49.61C88.65,-40.11 65.04,-27.9 49.18,-19.7"/>
<polygon fill="#63b8ff" stroke="#63b8ff" points="105.32,-52.66 115.81,-54.15 108.53,-46.45 105.32,-52.66"/>
</a>
</g>
</g>
<!-- Node3 -->
<g id="Node000003" class="node">
<title>Node3</title>
<g id="a_Node000003"><a xlink:href="large__scale__test_8cpp.html" target="_top" xlink:title="大规模Tensor计算测试和20个节点的自动微分测试">
<polygon fill="white" stroke="#666666" points="187.62,-19.25 81.62,-19.25 81.62,0 187.62,0 187.62,-19.25"/>
<text xml:space="preserve" text-anchor="middle" x="134.62" y="-5.75" font-family="Helvetica,sans-Serif" font-size="10.00">large_scale_test.cpp</text>
</a>
</g>
</g>
<!-- Node1&#45;&gt;Node3 -->
<g id="edge2_Node000001_Node000003" class="edge">
<title>Node1&#45;&gt;Node3</title>
<g id="a_edge2_Node000001_Node000003"><a xlink:title=" ">
<path fill="none" stroke="#63b8ff" d="M134.62,-43.63C134.62,-35.34 134.62,-26.17 134.62,-19.61"/>
<polygon fill="#63b8ff" stroke="#63b8ff" points="131.13,-43.57 134.63,-53.57 138.13,-43.57 131.13,-43.57"/>
</a>
</g>
</g>
<!-- Node4 -->
<g id="Node000004" class="node">
<title>Node4</title>
<g id="a_Node000004"><a xlink:href="main_8cpp.html" target="_top" xlink:title=" ">
<polygon fill="white" stroke="#666666" points="261.5,-19.25 205.75,-19.25 205.75,0 261.5,0 261.5,-19.25"/>
<text xml:space="preserve" text-anchor="middle" x="233.62" y="-5.75" font-family="Helvetica,sans-Serif" font-size="10.00">main.cpp</text>
</a>
</g>
</g>
<!-- Node1&#45;&gt;Node4 -->
<g id="edge3_Node000001_Node000004" class="edge">
<title>Node1&#45;&gt;Node4</title>
<g id="a_edge3_Node000001_Node000004"><a xlink:title=" ">
<path fill="none" stroke="#63b8ff" d="M161.15,-49.61C178.82,-40.11 201.5,-27.9 216.75,-19.7"/>
<polygon fill="#63b8ff" stroke="#63b8ff" points="159.9,-46.31 152.75,-54.12 163.22,-52.47 159.9,-46.31"/>
</a>
</g>
</g>
</g>
</svg>
