<?xml version="1.0" encoding="UTF-8" standalone="no"?>
<!DOCTYPE svg PUBLIC "-//W3C//DTD SVG 1.1//EN"
 "http://www.w3.org/Graphics/SVG/1.1/DTD/svg11.dtd">
<!-- Generated by graphviz version 14.1.1 (20251213.1925)
 -->
<!-- Title: /Users/ghostface/CLionProjects/Ctorch_2.13/CTorch/src/dev/Ctools.h Pages: 1 -->
<svg width="1520pt" height="439pt"
 viewBox="0.00 0.00 1520.00 439.00" xmlns="http://www.w3.org/2000/svg" xmlns:xlink="http://www.w3.org/1999/xlink">
<g id="graph0" class="graph" transform="scale(1 1) rotate(0) translate(4 434.5)">
<title>/Users/ghostface/CLionProjects/Ctorch_2.13/CTorch/src/dev/Ctools.h</title>
<!-- Node1 -->
<g id="Node000001" class="node">
<title>Node1</title>
<g id="a_Node000001"><a xlink:title="Ctorch 通用工具类，包含通用枚举类型和辅助函数">
<polygon fill="#999999" stroke="#666666" points="774.5,-430.5 619,-430.5 619,-388.75 774.5,-388.75 774.5,-430.5"/>
<text xml:space="preserve" text-anchor="start" x="627" y="-417" font-family="Helvetica,sans-Serif" font-size="10.00">/Users/ghostface/CLionProjects</text>
<text xml:space="preserve" text-anchor="start" x="627" y="-405.75" font-family="Helvetica,sans-Serif" font-size="10.00">/Ctorch_2.13/CTorch/src/dev</text>
<text xml:space="preserve" text-anchor="middle" x="696.75" y="-394.5" font-family="Helvetica,sans-Serif" font-size="10.00">/Ctools.h</text>
</a>
</g>
</g>
<!-- Node2 -->
<g id="Node000002" class="node">
<title>Node2</title>
<g id="a_Node000002"><a xlink:href="_auto_diff_8h.html" target="_top" xlink:title="Ctorch 自动微分系统">
<polygon fill="white" stroke="#666666" points="403.5,-275 248,-275 248,-233.25 403.5,-233.25 403.5,-275"/>
<text xml:space="preserve" text-anchor="start" x="256" y="-261.5" font-family="Helvetica,sans-Serif" font-size="10.00">/Users/ghostface/CLionProjects</text>
<text xml:space="preserve" text-anchor="start" x="256" y="-250.25" font-family="Helvetica,sans-Serif" font-size="10.00">/Ctorch_2.13/CTorch/src/dev</text>
<text xml:space="preserve" text-anchor="middle" x="325.75" y="-239" font-family="Helvetica,sans-Serif" font-size="10.00">/AutoDiff.h</text>
</a>
</g>
</g>
<!-- Node1&#45;&gt;Node2 -->
<g id="edge1_Node000001_Node000002" class="edge">
<title>Node1&#45;&gt;Node2</title>
<g id="a_edge1_Node000001_Node000002"><a xlink:title=" ">
<path fill="none" stroke="#63b8ff" d="M637.49,-384.11C564.69,-353.98 442.5,-303.43 374.74,-275.4"/>
<polygon fill="#63b8ff" stroke="#63b8ff" points="635.89,-387.23 646.47,-387.82 638.57,-380.76 635.89,-387.23"/>
</a>
</g>
</g>
<!-- Node4 -->
<g id="Node000004" class="node">
<title>Node4</title>
<g id="a_Node000004"><a xlink:href="_tensor_8h.html" target="_top" xlink:title="张量类和相关操作的定义">
<polygon fill="white" stroke="#666666" points="827.5,-197.25 672,-197.25 672,-155.5 827.5,-155.5 827.5,-197.25"/>
<text xml:space="preserve" text-anchor="start" x="680" y="-183.75" font-family="Helvetica,sans-Serif" font-size="10.00">/Users/ghostface/CLionProjects</text>
<text xml:space="preserve" text-anchor="start" x="680" y="-172.5" font-family="Helvetica,sans-Serif" font-size="10.00">/Ctorch_2.13/CTorch/src/dev</text>
<text xml:space="preserve" text-anchor="middle" x="749.75" y="-161.25" font-family="Helvetica,sans-Serif" font-size="10.00">/Tensor.h</text>
</a>
</g>
</g>
<!-- Node1&#45;&gt;Node4 -->
<g id="edge34_Node000001_Node000004" class="edge">
<title>Node1&#45;&gt;Node4</title>
<g id="a_edge34_Node000001_Node000004"><a xlink:title=" ">
<path fill="none" stroke="#63b8ff" d="M702.39,-377.25C705.95,-358.06 710.8,-333.04 715.75,-311 724.82,-270.59 737.16,-223.77 744.2,-197.66"/>
<polygon fill="#63b8ff" stroke="#63b8ff" points="698.98,-376.41 700.62,-386.87 705.87,-377.67 698.98,-376.41"/>
</a>
</g>
</g>
<!-- Node15 -->
<g id="Node000015" class="node">
<title>Node15</title>
<g id="a_Node000015"><a xlink:href="_ctools_8cpp.html" target="_top" xlink:title="Ctorch 通用工具类实现">
<polygon fill="white" stroke="#666666" points="1054.5,-352.75 899,-352.75 899,-311 1054.5,-311 1054.5,-352.75"/>
<text xml:space="preserve" text-anchor="start" x="907" y="-339.25" font-family="Helvetica,sans-Serif" font-size="10.00">/Users/ghostface/CLionProjects</text>
<text xml:space="preserve" text-anchor="start" x="907" y="-328" font-family="Helvetica,sans-Serif" font-size="10.00">/Ctorch_2.13/CTorch/src/dev</text>
<text xml:space="preserve" text-anchor="middle" x="976.75" y="-316.75" font-family="Helvetica,sans-Serif" font-size="10.00">/Ctools.cpp</text>
</a>
</g>
</g>
<!-- Node1&#45;&gt;Node15 -->
<g id="edge20_Node000001_Node000015" class="edge">
<title>Node1&#45;&gt;Node15</title>
<g id="a_edge20_Node000001_Node000015"><a xlink:title=" ">
<path fill="none" stroke="#63b8ff" d="M782.82,-385.34C820.75,-375.08 864.91,-363.13 901.51,-353.23"/>
<polygon fill="#63b8ff" stroke="#63b8ff" points="781.98,-381.94 773.25,-387.93 783.81,-388.7 781.98,-381.94"/>
</a>
</g>
</g>
<!-- Node16 -->
<g id="Node000016" class="node">
<title>Node16</title>
<g id="a_Node000016"><a xlink:href="_ctorch___error_8h.html" target="_top" xlink:title="Ctorch 错误处理类">
<polygon fill="white" stroke="#666666" points="880.5,-352.75 725,-352.75 725,-311 880.5,-311 880.5,-352.75"/>
<text xml:space="preserve" text-anchor="start" x="733" y="-339.25" font-family="Helvetica,sans-Serif" font-size="10.00">/Users/ghostface/CLionProjects</text>
<text xml:space="preserve" text-anchor="start" x="733" y="-328" font-family="Helvetica,sans-Serif" font-size="10.00">/Ctorch_2.13/CTorch/src/dev</text>
<text xml:space="preserve" text-anchor="middle" x="802.75" y="-316.75" font-family="Helvetica,sans-Serif" font-size="10.00">/Ctorch_Error.h</text>
</a>
</g>
</g>
<!-- Node1&#45;&gt;Node16 -->
<g id="edge21_Node000001_Node000016" class="edge">
<title>Node1&#45;&gt;Node16</title>
<g id="a_edge21_Node000001_Node000016"><a xlink:title=" ">
<path fill="none" stroke="#63b8ff" d="M734.41,-381.71C747.53,-372.34 762.02,-361.98 774.27,-353.23"/>
<polygon fill="#63b8ff" stroke="#63b8ff" points="732.49,-378.78 726.39,-387.45 736.56,-384.48 732.49,-378.78"/>
</a>
</g>
</g>
<!-- Node17 -->
<g id="Node000017" class="node">
<title>Node17</title>
<g id="a_Node000017"><a xlink:href="_storage_8h.html" target="_top" xlink:title="Ctorch 存储类，用于管理张量数据的底层存储">
<polygon fill="white" stroke="#666666" points="615.5,-275 460,-275 460,-233.25 615.5,-233.25 615.5,-275"/>
<text xml:space="preserve" text-anchor="start" x="468" y="-261.5" font-family="Helvetica,sans-Serif" font-size="10.00">/Users/ghostface/CLionProjects</text>
<text xml:space="preserve" text-anchor="start" x="468" y="-250.25" font-family="Helvetica,sans-Serif" font-size="10.00">/Ctorch_2.13/CTorch/src/dev</text>
<text xml:space="preserve" text-anchor="middle" x="537.75" y="-239" font-family="Helvetica,sans-Serif" font-size="10.00">/Storage.h</text>
</a>
</g>
</g>
<!-- Node1&#45;&gt;Node17 -->
<g id="edge33_Node000001_Node000017" class="edge">
<title>Node1&#45;&gt;Node17</title>
<g id="a_edge33_Node000001_Node000017"><a xlink:title=" ">
<path fill="none" stroke="#63b8ff" d="M667.99,-380.86C636.52,-350.48 586.82,-302.5 558.79,-275.44"/>
<polygon fill="#63b8ff" stroke="#63b8ff" points="665.25,-383.08 674.87,-387.51 670.11,-378.04 665.25,-383.08"/>
</a>
</g>
</g>
<!-- Node3 -->
<g id="Node000003" class="node">
<title>Node3</title>
<g id="a_Node000003"><a xlink:href="_auto_diff_8cpp.html" target="_top" xlink:title="Ctorch 自动微分系统实现">
<polygon fill="white" stroke="#666666" points="155.5,-119.5 0,-119.5 0,-77.75 155.5,-77.75 155.5,-119.5"/>
<text xml:space="preserve" text-anchor="start" x="8" y="-106" font-family="Helvetica,sans-Serif" font-size="10.00">/Users/ghostface/CLionProjects</text>
<text xml:space="preserve" text-anchor="start" x="8" y="-94.75" font-family="Helvetica,sans-Serif" font-size="10.00">/Ctorch_2.13/CTorch/src/dev</text>
<text xml:space="preserve" text-anchor="middle" x="77.75" y="-83.5" font-family="Helvetica,sans-Serif" font-size="10.00">/AutoDiff.cpp</text>
</a>
</g>
</g>
<!-- Node2&#45;&gt;Node3 -->
<g id="edge2_Node000002_Node000003" class="edge">
<title>Node2&#45;&gt;Node3</title>
<g id="a_edge2_Node000002_Node000003"><a xlink:title=" ">
<path fill="none" stroke="#63b8ff" d="M283.41,-226.92C234.47,-196.63 154.96,-147.41 110.5,-119.9"/>
<polygon fill="#63b8ff" stroke="#63b8ff" points="281.44,-229.82 291.79,-232.1 285.13,-223.86 281.44,-229.82"/>
</a>
</g>
</g>
<!-- Node2&#45;&gt;Node4 -->
<g id="edge3_Node000002_Node000004" class="edge">
<title>Node2&#45;&gt;Node4</title>
<g id="a_edge3_Node000002_Node000004"><a xlink:title=" ">
<path fill="none" stroke="#63b8ff" d="M414.49,-237.27C490.54,-223.68 599,-204.31 671.76,-191.31"/>
<polygon fill="#63b8ff" stroke="#63b8ff" points="414.24,-233.76 405.01,-238.97 415.47,-240.65 414.24,-233.76"/>
</a>
</g>
</g>
<!-- Node12 -->
<g id="Node000012" class="node">
<title>Node12</title>
<g id="a_Node000012"><a xlink:href="test__autodiff__comprehensive_8cpp.html" target="_top" xlink:title=" ">
<polygon fill="white" stroke="#666666" points="336.25,-119.5 173.25,-119.5 173.25,-77.75 336.25,-77.75 336.25,-119.5"/>
<text xml:space="preserve" text-anchor="start" x="181.25" y="-106" font-family="Helvetica,sans-Serif" font-size="10.00">/Users/ghostface/CLionProjects</text>
<text xml:space="preserve" text-anchor="start" x="181.25" y="-94.75" font-family="Helvetica,sans-Serif" font-size="10.00">/Ctorch_2.13/CTorch/src/dev</text>
<text xml:space="preserve" text-anchor="middle" x="254.75" y="-83.5" font-family="Helvetica,sans-Serif" font-size="10.00">/test_autodiff_comprehensive.cpp</text>
</a>
</g>
</g>
<!-- Node2&#45;&gt;Node12 -->
<g id="edge18_Node000002_Node000012" class="edge">
<title>Node2&#45;&gt;Node12</title>
<g id="a_edge18_Node000002_Node000012"><a xlink:title=" ">
<path fill="none" stroke="#63b8ff" d="M311.8,-222.97C297.67,-192.42 276.21,-146.02 264.03,-119.7"/>
<polygon fill="#63b8ff" stroke="#63b8ff" points="308.46,-224.08 315.83,-231.68 314.81,-221.14 308.46,-224.08"/>
</a>
</g>
</g>
<!-- Node13 -->
<g id="Node000013" class="node">
<title>Node13</title>
<g id="a_Node000013"><a xlink:href="test__linear__regression_8cpp.html" target="_top" xlink:title=" ">
<polygon fill="white" stroke="#666666" points="509.5,-119.5 354,-119.5 354,-77.75 509.5,-77.75 509.5,-119.5"/>
<text xml:space="preserve" text-anchor="start" x="362" y="-106" font-family="Helvetica,sans-Serif" font-size="10.00">/Users/ghostface/CLionProjects</text>
<text xml:space="preserve" text-anchor="start" x="362" y="-94.75" font-family="Helvetica,sans-Serif" font-size="10.00">/Ctorch_2.13/CTorch/src/dev</text>
<text xml:space="preserve" text-anchor="middle" x="431.75" y="-83.5" font-family="Helvetica,sans-Serif" font-size="10.00">/test_linear_regression.cpp</text>
</a>
</g>
</g>
<!-- Node2&#45;&gt;Node13 -->
<g id="edge19_Node000002_Node000013" class="edge">
<title>Node2&#45;&gt;Node13</title>
<g id="a_edge19_Node000002_Node000013"><a xlink:title=" ">
<path fill="none" stroke="#63b8ff" d="M346.02,-223.77C367.11,-193.23 399.56,-146.25 417.89,-119.7"/>
<polygon fill="#63b8ff" stroke="#63b8ff" points="343.27,-221.59 340.47,-231.81 349.03,-225.57 343.27,-221.59"/>
</a>
</g>
</g>
<!-- Node4&#45;&gt;Node3 -->
<g id="edge4_Node000004_Node000003" class="edge">
<title>Node4&#45;&gt;Node3</title>
<g id="a_edge4_Node000004_Node000003"><a xlink:title=" ">
<path fill="none" stroke="#63b8ff" d="M660.2,-160.25C648.3,-158.5 636.24,-156.86 624.75,-155.5 420.66,-131.35 366.88,-150.72 163.75,-119.5 161.18,-119.1 158.56,-118.67 155.93,-118.21"/>
<polygon fill="#63b8ff" stroke="#63b8ff" points="659.63,-163.71 670.04,-161.73 660.67,-156.78 659.63,-163.71"/>
</a>
</g>
</g>
<!-- Node5 -->
<g id="Node000005" class="node">
<title>Node5</title>
<g id="a_Node000005"><a xlink:href="_ctorch___scheduler_8h.html" target="_top" xlink:title="Ctorch 框架的核心调度器类">
<polygon fill="white" stroke="#666666" points="933.5,-119.5 778,-119.5 778,-77.75 933.5,-77.75 933.5,-119.5"/>
<text xml:space="preserve" text-anchor="start" x="786" y="-106" font-family="Helvetica,sans-Serif" font-size="10.00">/Users/ghostface/CLionProjects</text>
<text xml:space="preserve" text-anchor="start" x="786" y="-94.75" font-family="Helvetica,sans-Serif" font-size="10.00">/Ctorch_2.13/CTorch/src/dev</text>
<text xml:space="preserve" text-anchor="middle" x="855.75" y="-83.5" font-family="Helvetica,sans-Serif" font-size="10.00">/Ctorch_Scheduler.h</text>
</a>
</g>
</g>
<!-- Node4&#45;&gt;Node5 -->
<g id="edge5_Node000004_Node000005" class="edge">
<title>Node4&#45;&gt;Node5</title>
<g id="a_edge5_Node000004_Node000005"><a xlink:title=" ">
<path fill="none" stroke="#63b8ff" d="M787.41,-148.46C800.53,-139.09 815.02,-128.73 827.27,-119.98"/>
<polygon fill="#63b8ff" stroke="#63b8ff" points="785.49,-145.53 779.39,-154.2 789.56,-151.23 785.49,-145.53"/>
</a>
</g>
</g>
<!-- Node6 -->
<g id="Node000006" class="node">
<title>Node6</title>
<g id="a_Node000006"><a xlink:href="_tensor_8cpp.html" target="_top" xlink:title="张量类的实现">
<polygon fill="white" stroke="#666666" points="634.5,-41.75 479,-41.75 479,0 634.5,0 634.5,-41.75"/>
<text xml:space="preserve" text-anchor="start" x="487" y="-28.25" font-family="Helvetica,sans-Serif" font-size="10.00">/Users/ghostface/CLionProjects</text>
<text xml:space="preserve" text-anchor="start" x="487" y="-17" font-family="Helvetica,sans-Serif" font-size="10.00">/Ctorch_2.13/CTorch/src/dev</text>
<text xml:space="preserve" text-anchor="middle" x="556.75" y="-5.75" font-family="Helvetica,sans-Serif" font-size="10.00">/Tensor.cpp</text>
</a>
</g>
</g>
<!-- Node4&#45;&gt;Node6 -->
<g id="edge9_Node000004_Node000006" class="edge">
<title>Node4&#45;&gt;Node6</title>
<g id="a_edge9_Node000004_Node000006"><a xlink:title=" ">
<path fill="none" stroke="#63b8ff" d="M660.88,-153.8C627.3,-144.01 594.37,-131.87 582.75,-119.5 562.94,-98.41 557.86,-63.95 556.76,-42.12"/>
<polygon fill="#63b8ff" stroke="#63b8ff" points="659.75,-157.12 670.33,-156.49 661.66,-150.39 659.75,-157.12"/>
</a>
</g>
</g>
<!-- Node7 -->
<g id="Node000007" class="node">
<title>Node7</title>
<g id="a_Node000007"><a xlink:href="large__scale__test_8cpp.html" target="_top" xlink:title="大规模Tensor计算测试和20个节点的自动微分测试">
<polygon fill="white" stroke="#666666" points="1039.5,-41.75 884,-41.75 884,0 1039.5,0 1039.5,-41.75"/>
<text xml:space="preserve" text-anchor="start" x="892" y="-28.25" font-family="Helvetica,sans-Serif" font-size="10.00">/Users/ghostface/CLionProjects</text>
<text xml:space="preserve" text-anchor="start" x="892" y="-17" font-family="Helvetica,sans-Serif" font-size="10.00">/Ctorch_2.13/CTorch/src/dev</text>
<text xml:space="preserve" text-anchor="middle" x="961.75" y="-5.75" font-family="Helvetica,sans-Serif" font-size="10.00">/large_scale_test.cpp</text>
</a>
</g>
</g>
<!-- Node4&#45;&gt;Node7 -->
<g id="edge10_Node000004_Node000007" class="edge">
<title>Node4&#45;&gt;Node7</title>
<g id="a_edge10_Node000004_Node000007"><a xlink:title=" ">
<path fill="none" stroke="#63b8ff" d="M839.3,-169.58C876.21,-162.61 916.41,-148.32 942.75,-119.5 961.97,-98.47 964.31,-64 963.54,-42.14"/>
<polygon fill="#63b8ff" stroke="#63b8ff" points="838.74,-166.13 829.47,-171.26 839.91,-173.03 838.74,-166.13"/>
</a>
</g>
</g>
<!-- Node8 -->
<g id="Node000008" class="node">
<title>Node8</title>
<g id="a_Node000008"><a xlink:href="main_8cpp.html" target="_top" xlink:title=" ">
<polygon fill="white" stroke="#666666" points="846.5,-41.75 691,-41.75 691,0 846.5,0 846.5,-41.75"/>
<text xml:space="preserve" text-anchor="start" x="699" y="-28.25" font-family="Helvetica,sans-Serif" font-size="10.00">/Users/ghostface/CLionProjects</text>
<text xml:space="preserve" text-anchor="start" x="699" y="-17" font-family="Helvetica,sans-Serif" font-size="10.00">/Ctorch_2.13/CTorch/src/dev</text>
<text xml:space="preserve" text-anchor="middle" x="768.75" y="-5.75" font-family="Helvetica,sans-Serif" font-size="10.00">/main.cpp</text>
</a>
</g>
</g>
<!-- Node4&#45;&gt;Node8 -->
<g id="edge11_Node000004_Node000008" class="edge">
<title>Node4&#45;&gt;Node8</title>
<g id="a_edge11_Node000004_Node000008"><a xlink:title=" ">
<path fill="none" stroke="#63b8ff" d="M660.68,-152.84C631.06,-143.42 603.39,-131.8 594.75,-119.5 584.08,-104.32 583.82,-92.74 594.75,-77.75 606.71,-61.34 650.21,-47.37 690.72,-37.51"/>
<polygon fill="#63b8ff" stroke="#63b8ff" points="659.61,-156.17 670.2,-155.76 661.67,-149.48 659.61,-156.17"/>
</a>
</g>
</g>
<!-- Node9 -->
<g id="Node000009" class="node">
<title>Node9</title>
<g id="a_Node000009"><a xlink:href="performance__test_8cpp.html" target="_top" xlink:title=" ">
<polygon fill="white" stroke="#666666" points="1145.5,-119.5 990,-119.5 990,-77.75 1145.5,-77.75 1145.5,-119.5"/>
<text xml:space="preserve" text-anchor="start" x="998" y="-106" font-family="Helvetica,sans-Serif" font-size="10.00">/Users/ghostface/CLionProjects</text>
<text xml:space="preserve" text-anchor="start" x="998" y="-94.75" font-family="Helvetica,sans-Serif" font-size="10.00">/Ctorch_2.13/CTorch/src/dev</text>
<text xml:space="preserve" text-anchor="middle" x="1067.75" y="-83.5" font-family="Helvetica,sans-Serif" font-size="10.00">/performance_test.cpp</text>
</a>
</g>
</g>
<!-- Node4&#45;&gt;Node9 -->
<g id="edge12_Node000004_Node000009" class="edge">
<title>Node4&#45;&gt;Node9</title>
<g id="a_edge12_Node000004_Node000009"><a xlink:title=" ">
<path fill="none" stroke="#63b8ff" d="M839.12,-154.09C886.45,-142.81 944.04,-129.09 989.58,-118.25"/>
<polygon fill="#63b8ff" stroke="#63b8ff" points="838.34,-150.67 829.42,-156.4 839.96,-157.48 838.34,-150.67"/>
</a>
</g>
</g>
<!-- Node10 -->
<g id="Node000010" class="node">
<title>Node10</title>
<g id="a_Node000010"><a xlink:href="test_8cpp.html" target="_top" xlink:title=" ">
<polygon fill="white" stroke="#666666" points="759.5,-119.5 604,-119.5 604,-77.75 759.5,-77.75 759.5,-119.5"/>
<text xml:space="preserve" text-anchor="start" x="612" y="-106" font-family="Helvetica,sans-Serif" font-size="10.00">/Users/ghostface/CLionProjects</text>
<text xml:space="preserve" text-anchor="start" x="612" y="-94.75" font-family="Helvetica,sans-Serif" font-size="10.00">/Ctorch_2.13/CTorch/src/dev</text>
<text xml:space="preserve" text-anchor="middle" x="681.75" y="-83.5" font-family="Helvetica,sans-Serif" font-size="10.00">/test.cpp</text>
</a>
</g>
</g>
<!-- Node4&#45;&gt;Node10 -->
<g id="edge13_Node000004_Node000010" class="edge">
<title>Node4&#45;&gt;Node10</title>
<g id="a_edge13_Node000004_Node000010"><a xlink:title=" ">
<path fill="none" stroke="#63b8ff" d="M723.86,-146.54C715.92,-137.69 707.35,-128.14 700.02,-119.98"/>
<polygon fill="#63b8ff" stroke="#63b8ff" points="721.23,-148.85 730.52,-153.95 726.44,-144.17 721.23,-148.85"/>
</a>
</g>
</g>
<!-- Node11 -->
<g id="Node000011" class="node">
<title>Node11</title>
<g id="a_Node000011"><a xlink:href="test__activation__loss_8cpp.html" target="_top" xlink:title="测试激活函数和损失函数">
<polygon fill="white" stroke="#666666" points="1319.5,-119.5 1164,-119.5 1164,-77.75 1319.5,-77.75 1319.5,-119.5"/>
<text xml:space="preserve" text-anchor="start" x="1172" y="-106" font-family="Helvetica,sans-Serif" font-size="10.00">/Users/ghostface/CLionProjects</text>
<text xml:space="preserve" text-anchor="start" x="1172" y="-94.75" font-family="Helvetica,sans-Serif" font-size="10.00">/Ctorch_2.13/CTorch/src/dev</text>
<text xml:space="preserve" text-anchor="middle" x="1241.75" y="-83.5" font-family="Helvetica,sans-Serif" font-size="10.00">/test_activation_loss.cpp</text>
</a>
</g>
</g>
<!-- Node4&#45;&gt;Node11 -->
<g id="edge14_Node000004_Node000011" class="edge">
<title>Node4&#45;&gt;Node11</title>
<g id="a_edge14_Node000004_Node000011"><a xlink:title=" ">
<path fill="none" stroke="#63b8ff" d="M839.03,-165.33C921.34,-155.54 1046.72,-139.25 1154.75,-119.5 1157.65,-118.97 1160.59,-118.41 1163.56,-117.83"/>
<polygon fill="#63b8ff" stroke="#63b8ff" points="838.74,-161.84 829.22,-166.49 839.56,-168.8 838.74,-161.84"/>
</a>
</g>
</g>
<!-- Node4&#45;&gt;Node12 -->
<g id="edge15_Node000004_Node000012" class="edge">
<title>Node4&#45;&gt;Node12</title>
<g id="a_edge15_Node000004_Node000012"><a xlink:title=" ">
<path fill="none" stroke="#63b8ff" d="M660.75,-160.89C648.66,-159.02 636.41,-157.18 624.75,-155.5 500.56,-137.65 468.35,-141.05 344.75,-119.5 342.07,-119.03 339.35,-118.54 336.6,-118.03"/>
<polygon fill="#63b8ff" stroke="#63b8ff" points="659.87,-164.3 670.29,-162.38 660.95,-157.38 659.87,-164.3"/>
</a>
</g>
</g>
<!-- Node4&#45;&gt;Node13 -->
<g id="edge16_Node000004_Node000013" class="edge">
<title>Node4&#45;&gt;Node13</title>
<g id="a_edge16_Node000004_Node000013"><a xlink:title=" ">
<path fill="none" stroke="#63b8ff" d="M660.38,-154.09C613.05,-142.81 555.46,-129.09 509.92,-118.25"/>
<polygon fill="#63b8ff" stroke="#63b8ff" points="659.54,-157.48 670.08,-156.4 661.16,-150.67 659.54,-157.48"/>
</a>
</g>
</g>
<!-- Node14 -->
<g id="Node000014" class="node">
<title>Node14</title>
<g id="a_Node000014"><a xlink:href="test__tensor__grad_8cpp.html" target="_top" xlink:title=" ">
<polygon fill="white" stroke="#666666" points="1493.5,-119.5 1338,-119.5 1338,-77.75 1493.5,-77.75 1493.5,-119.5"/>
<text xml:space="preserve" text-anchor="start" x="1346" y="-106" font-family="Helvetica,sans-Serif" font-size="10.00">/Users/ghostface/CLionProjects</text>
<text xml:space="preserve" text-anchor="start" x="1346" y="-94.75" font-family="Helvetica,sans-Serif" font-size="10.00">/Ctorch_2.13/CTorch/src/dev</text>
<text xml:space="preserve" text-anchor="middle" x="1415.75" y="-83.5" font-family="Helvetica,sans-Serif" font-size="10.00">/test_tensor_grad.cpp</text>
</a>
</g>
</g>
<!-- Node4&#45;&gt;Node14 -->
<g id="edge17_Node000004_Node000014" class="edge">
<title>Node4&#45;&gt;Node14</title>
<g id="a_edge17_Node000004_Node000014"><a xlink:title=" ">
<path fill="none" stroke="#63b8ff" d="M839.33,-170.31C953.5,-163.03 1156.71,-147.33 1328.75,-119.5 1331.66,-119.03 1334.61,-118.52 1337.59,-117.98"/>
<polygon fill="#63b8ff" stroke="#63b8ff" points="839.16,-166.81 829.4,-170.93 839.6,-173.8 839.16,-166.81"/>
</a>
</g>
</g>
<!-- Node5&#45;&gt;Node6 -->
<g id="edge6_Node000005_Node000006" class="edge">
<title>Node5&#45;&gt;Node6</title>
<g id="a_edge6_Node000005_Node000006"><a xlink:title=" ">
<path fill="none" stroke="#63b8ff" d="M766.56,-75.03C724.73,-64.43 675.33,-51.92 634.98,-41.69"/>
<polygon fill="#63b8ff" stroke="#63b8ff" points="765.56,-78.39 776.11,-77.45 767.28,-71.6 765.56,-78.39"/>
</a>
</g>
</g>
<!-- Node5&#45;&gt;Node7 -->
<g id="edge7_Node000005_Node000007" class="edge">
<title>Node5&#45;&gt;Node7</title>
<g id="a_edge7_Node000005_Node000007"><a xlink:title=" ">
<path fill="none" stroke="#63b8ff" d="M893.41,-70.71C906.53,-61.34 921.02,-50.98 933.27,-42.23"/>
<polygon fill="#63b8ff" stroke="#63b8ff" points="891.49,-67.78 885.39,-76.45 895.56,-73.48 891.49,-67.78"/>
</a>
</g>
</g>
<!-- Node5&#45;&gt;Node8 -->
<g id="edge8_Node000005_Node000008" class="edge">
<title>Node5&#45;&gt;Node8</title>
<g id="a_edge8_Node000005_Node000008"><a xlink:title=" ">
<path fill="none" stroke="#63b8ff" d="M823.89,-69.89C813.38,-60.73 801.89,-50.73 792.13,-42.23"/>
<polygon fill="#63b8ff" stroke="#63b8ff" points="821.45,-72.4 831.29,-76.33 826.05,-67.13 821.45,-72.4"/>
</a>
</g>
</g>
<!-- Node16&#45;&gt;Node4 -->
<g id="edge26_Node000016_Node000004" class="edge">
<title>Node16&#45;&gt;Node4</title>
<g id="a_edge26_Node000016_Node000004"><a xlink:title=" ">
<path fill="none" stroke="#63b8ff" d="M792.2,-300.32C781.65,-269.76 765.73,-223.65 756.68,-197.45"/>
<polygon fill="#63b8ff" stroke="#63b8ff" points="788.76,-301.07 795.33,-309.38 795.37,-298.78 788.76,-301.07"/>
</a>
</g>
</g>
<!-- Node16&#45;&gt;Node5 -->
<g id="edge22_Node000016_Node000005" class="edge">
<title>Node16&#45;&gt;Node5</title>
<g id="a_edge22_Node000016_Node000005"><a xlink:title=" ">
<path fill="none" stroke="#63b8ff" d="M811.27,-299.52C818.47,-272.51 828.85,-232.45 836.75,-197.25 842.72,-170.63 848.56,-139.68 852.15,-119.89"/>
<polygon fill="#63b8ff" stroke="#63b8ff" points="807.9,-298.56 808.69,-309.13 814.66,-300.37 807.9,-298.56"/>
</a>
</g>
</g>
<!-- Node16&#45;&gt;Node7 -->
<g id="edge27_Node000016_Node000007" class="edge">
<title>Node16&#45;&gt;Node7</title>
<g id="a_edge27_Node000016_Node000007"><a xlink:title=" ">
<path fill="none" stroke="#63b8ff" d="M891.99,-310.28C1072.31,-267.78 1466.15,-170.09 1502.75,-119.5 1513.63,-104.47 1515.18,-91.53 1502.75,-77.75 1472.33,-44.03 1182.13,-29.44 1039.75,-24.26"/>
<polygon fill="#63b8ff" stroke="#63b8ff" points="891.35,-306.84 882.42,-312.53 892.96,-313.65 891.35,-306.84"/>
</a>
</g>
</g>
<!-- Node16&#45;&gt;Node9 -->
<g id="edge28_Node000016_Node000009" class="edge">
<title>Node16&#45;&gt;Node9</title>
<g id="a_edge28_Node000016_Node000009"><a xlink:title=" ">
<path fill="none" stroke="#63b8ff" d="M834.28,-303.36C888.22,-256.29 996.97,-161.39 1044.56,-119.86"/>
<polygon fill="#63b8ff" stroke="#63b8ff" points="832.18,-300.55 826.94,-309.76 836.78,-305.82 832.18,-300.55"/>
</a>
</g>
</g>
<!-- Node16&#45;&gt;Node11 -->
<g id="edge29_Node000016_Node000011" class="edge">
<title>Node16&#45;&gt;Node11</title>
<g id="a_edge29_Node000016_Node000011"><a xlink:title=" ">
<path fill="none" stroke="#63b8ff" d="M851.3,-305.3C939.21,-258.99 1123.05,-162.15 1203.11,-119.98"/>
<polygon fill="#63b8ff" stroke="#63b8ff" points="849.88,-302.09 842.66,-309.85 853.14,-308.29 849.88,-302.09"/>
</a>
</g>
</g>
<!-- Node16&#45;&gt;Node12 -->
<g id="edge30_Node000016_Node000012" class="edge">
<title>Node16&#45;&gt;Node12</title>
<g id="a_edge30_Node000016_Node000012"><a xlink:title=" ">
<path fill="none" stroke="#63b8ff" d="M713.3,-323.46C624.33,-314.88 494.89,-298.83 450.75,-275 428.67,-263.08 430.81,-250.67 412.75,-233.25 368.53,-190.61 312.89,-145.31 280.81,-119.93"/>
<polygon fill="#63b8ff" stroke="#63b8ff" points="712.96,-326.94 723.25,-324.4 713.62,-319.97 712.96,-326.94"/>
</a>
</g>
</g>
<!-- Node16&#45;&gt;Node13 -->
<g id="edge31_Node000016_Node000013" class="edge">
<title>Node16&#45;&gt;Node13</title>
<g id="a_edge31_Node000016_Node000013"><a xlink:title=" ">
<path fill="none" stroke="#63b8ff" d="M772.05,-302.74C743.28,-276.1 699.34,-234.72 662.75,-197.25 645.22,-179.3 646.05,-168.77 624.75,-155.5 589.96,-133.83 546.45,-120.28 509.55,-111.96"/>
<polygon fill="#63b8ff" stroke="#63b8ff" points="769.63,-305.27 779.35,-309.48 774.38,-300.13 769.63,-305.27"/>
</a>
</g>
</g>
<!-- Node16&#45;&gt;Node14 -->
<g id="edge32_Node000016_Node000014" class="edge">
<title>Node16&#45;&gt;Node14</title>
<g id="a_edge32_Node000016_Node000014"><a xlink:title=" ">
<path fill="none" stroke="#63b8ff" d="M873.51,-306.93C901.67,-297.25 934.32,-285.81 963.75,-275 1110.31,-221.16 1281.8,-153.26 1365.14,-119.95"/>
<polygon fill="#63b8ff" stroke="#63b8ff" points="872.7,-303.51 864.38,-310.07 874.98,-310.13 872.7,-303.51"/>
</a>
</g>
</g>
<!-- Node16&#45;&gt;Node17 -->
<g id="edge23_Node000016_Node000017" class="edge">
<title>Node16&#45;&gt;Node17</title>
<g id="a_edge23_Node000016_Node000017"><a xlink:title=" ">
<path fill="none" stroke="#63b8ff" d="M720.83,-307.46C685.03,-297.23 643.45,-285.34 608.96,-275.48"/>
<polygon fill="#63b8ff" stroke="#63b8ff" points="719.7,-310.78 730.28,-310.16 721.63,-304.05 719.7,-310.78"/>
</a>
</g>
</g>
<!-- Node17&#45;&gt;Node4 -->
<g id="edge25_Node000017_Node000004" class="edge">
<title>Node17&#45;&gt;Node4</title>
<g id="a_edge25_Node000017_Node000004"><a xlink:title=" ">
<path fill="none" stroke="#63b8ff" d="M605.15,-229.04C633.36,-218.96 665.79,-207.38 692.78,-197.73"/>
<polygon fill="#63b8ff" stroke="#63b8ff" points="604.23,-225.66 595.99,-232.32 606.58,-232.25 604.23,-225.66"/>
</a>
</g>
</g>
<!-- Node18 -->
<g id="Node000018" class="node">
<title>Node18</title>
<g id="a_Node000018"><a xlink:href="_storage_8cpp.html" target="_top" xlink:title="Ctorch 存储类实现">
<polygon fill="white" stroke="#666666" points="615.5,-197.25 460,-197.25 460,-155.5 615.5,-155.5 615.5,-197.25"/>
<text xml:space="preserve" text-anchor="start" x="468" y="-183.75" font-family="Helvetica,sans-Serif" font-size="10.00">/Users/ghostface/CLionProjects</text>
<text xml:space="preserve" text-anchor="start" x="468" y="-172.5" font-family="Helvetica,sans-Serif" font-size="10.00">/Ctorch_2.13/CTorch/src/dev</text>
<text xml:space="preserve" text-anchor="middle" x="537.75" y="-161.25" font-family="Helvetica,sans-Serif" font-size="10.00">/Storage.cpp</text>
</a>
</g>
</g>
<!-- Node17&#45;&gt;Node18 -->
<g id="edge24_Node000017_Node000018" class="edge">
<title>Node17&#45;&gt;Node18</title>
<g id="a_edge24_Node000017_Node000018"><a xlink:title=" ">
<path fill="none" stroke="#63b8ff" d="M537.75,-221.5C537.75,-213.46 537.75,-205.04 537.75,-197.73"/>
<polygon fill="#63b8ff" stroke="#63b8ff" points="534.25,-221.31 537.75,-231.31 541.25,-221.31 534.25,-221.31"/>
</a>
</g>
</g>
</g>
</svg>
