<?xml version="1.0" encoding="UTF-8" standalone="no"?>
<!DOCTYPE svg PUBLIC "-//W3C//DTD SVG 1.1//EN"
 "http://www.w3.org/Graphics/SVG/1.1/DTD/svg11.dtd">
<!-- Generated by graphviz version 14.1.1 (20251213.1925)
 -->
<!-- Title: Ctorch_Scheduler.h Pages: 1 -->
<svg width="1197pt" height="304pt"
 viewBox="0.00 0.00 1197.00 304.00" xmlns="http://www.w3.org/2000/svg" xmlns:xlink="http://www.w3.org/1999/xlink">
<g id="graph0" class="graph" transform="scale(1 1) rotate(0) translate(4 299.5)">
<title>Ctorch_Scheduler.h</title>
<!-- Node1 -->
<g id="Node000001" class="node">
<title>Node1</title>
<g id="a_Node000001"><a xlink:title="Ctorch 框架的核心调度器类">
<polygon fill="#999999" stroke="#666666" points="645.38,-295.5 543.88,-295.5 543.88,-276.25 645.38,-276.25 645.38,-295.5"/>
<text xml:space="preserve" text-anchor="middle" x="594.62" y="-282" font-family="Helvetica,sans-Serif" font-size="10.00">Ctorch_Scheduler.h</text>
</a>
</g>
</g>
<!-- Node2 -->
<g id="Node000002" class="node">
<title>Node2</title>
<g id="a_Node000002"><a xlink:href="_ctorch___error_8h.html" target="_top" xlink:title="Ctorch 错误处理类">
<polygon fill="white" stroke="#666666" points="365.12,-129.75 286.12,-129.75 286.12,-110.5 365.12,-110.5 365.12,-129.75"/>
<text xml:space="preserve" text-anchor="middle" x="325.62" y="-116.25" font-family="Helvetica,sans-Serif" font-size="10.00">Ctorch_Error.h</text>
</a>
</g>
</g>
<!-- Node1&#45;&gt;Node2 -->
<g id="edge1_Node000001_Node000002" class="edge">
<title>Node1&#45;&gt;Node2</title>
<g id="a_edge1_Node000001_Node000002"><a xlink:title=" ">
<path fill="none" stroke="#63b8ff" d="M543.48,-283.64C477.12,-278.96 363.57,-259.74 310.62,-185 301.27,-171.8 306.92,-153.58 313.79,-139.98"/>
<polygon fill="#63b8ff" stroke="#63b8ff" points="316.68,-141.99 318.56,-131.56 310.59,-138.54 316.68,-141.99"/>
</a>
</g>
</g>
<!-- Node18 -->
<g id="Node000018" class="node">
<title>Node18</title>
<g id="a_Node000018"><a xlink:href="_tensor_8h.html" target="_top" xlink:title="张量类和相关操作的定义">
<polygon fill="white" stroke="#666666" points="621,-240.25 568.25,-240.25 568.25,-221 621,-221 621,-240.25"/>
<text xml:space="preserve" text-anchor="middle" x="594.62" y="-226.75" font-family="Helvetica,sans-Serif" font-size="10.00">Tensor.h</text>
</a>
</g>
</g>
<!-- Node1&#45;&gt;Node18 -->
<g id="edge28_Node000001_Node000018" class="edge">
<title>Node1&#45;&gt;Node18</title>
<g id="a_edge28_Node000001_Node000018"><a xlink:title=" ">
<path fill="none" stroke="#63b8ff" d="M594.62,-276.08C594.62,-269.57 594.62,-260.42 594.62,-252.12"/>
<polygon fill="#63b8ff" stroke="#63b8ff" points="598.13,-252.12 594.63,-242.12 591.13,-252.12 598.13,-252.12"/>
</a>
</g>
</g>
<!-- Node32 -->
<g id="Node000032" class="node">
<title>Node32</title>
<g id="a_Node000032"><a xlink:title=" ">
<polygon fill="#e0e0e0" stroke="#999999" points="729.75,-240.25 639.5,-240.25 639.5,-221 729.75,-221 729.75,-240.25"/>
<text xml:space="preserve" text-anchor="middle" x="684.62" y="-226.75" font-family="Helvetica,sans-Serif" font-size="10.00">kernels/kernels.h</text>
</a>
</g>
</g>
<!-- Node1&#45;&gt;Node32 -->
<g id="edge58_Node000001_Node000032" class="edge">
<title>Node1&#45;&gt;Node32</title>
<g id="a_edge58_Node000001_Node000032"><a xlink:title=" ">
<path fill="none" stroke="#63b8ff" d="M609.89,-275.84C623.47,-267.81 643.58,-255.91 659.52,-246.48"/>
<polygon fill="#63b8ff" stroke="#63b8ff" points="661.16,-249.58 667.98,-241.47 657.59,-243.55 661.16,-249.58"/>
</a>
</g>
</g>
<!-- Node3 -->
<g id="Node000003" class="node">
<title>Node3</title>
<g id="a_Node000003"><a xlink:title=" ">
<polygon fill="#e0e0e0" stroke="#999999" points="702.25,-19.25 657,-19.25 657,0 702.25,0 702.25,-19.25"/>
<text xml:space="preserve" text-anchor="middle" x="679.62" y="-5.75" font-family="Helvetica,sans-Serif" font-size="10.00">cstring</text>
</a>
</g>
</g>
<!-- Node2&#45;&gt;Node3 -->
<g id="edge2_Node000002_Node000003" class="edge">
<title>Node2&#45;&gt;Node3</title>
<g id="a_edge2_Node000002_Node000003"><a xlink:title=" ">
<path fill="none" stroke="#63b8ff" d="M365.44,-114.63C411.44,-108.68 488.98,-96.3 552.62,-74.5 590.01,-61.69 630.32,-39.92 655.26,-25.4"/>
<polygon fill="#63b8ff" stroke="#63b8ff" points="656.82,-28.54 663.65,-20.44 653.26,-22.52 656.82,-28.54"/>
</a>
</g>
</g>
<!-- Node4 -->
<g id="Node000004" class="node">
<title>Node4</title>
<g id="a_Node000004"><a xlink:title=" ">
<polygon fill="#e0e0e0" stroke="#999999" points="456.25,-19.25 411,-19.25 411,0 456.25,0 456.25,-19.25"/>
<text xml:space="preserve" text-anchor="middle" x="433.62" y="-5.75" font-family="Helvetica,sans-Serif" font-size="10.00">chrono</text>
</a>
</g>
</g>
<!-- Node2&#45;&gt;Node4 -->
<g id="edge3_Node000002_Node000004" class="edge">
<title>Node2&#45;&gt;Node4</title>
<g id="a_edge3_Node000002_Node000004"><a xlink:title=" ">
<path fill="none" stroke="#63b8ff" d="M334.46,-110.25C352.42,-92.21 393.44,-51 416.7,-27.63"/>
<polygon fill="#63b8ff" stroke="#63b8ff" points="419.02,-30.26 423.6,-20.7 414.06,-25.32 419.02,-30.26"/>
</a>
</g>
</g>
<!-- Node5 -->
<g id="Node000005" class="node">
<title>Node5</title>
<g id="a_Node000005"><a xlink:title=" ">
<polygon fill="#e0e0e0" stroke="#999999" points="580.25,-19.25 535,-19.25 535,0 580.25,0 580.25,-19.25"/>
<text xml:space="preserve" text-anchor="middle" x="557.62" y="-5.75" font-family="Helvetica,sans-Serif" font-size="10.00">cstdint</text>
</a>
</g>
</g>
<!-- Node2&#45;&gt;Node5 -->
<g id="edge4_Node000002_Node000005" class="edge">
<title>Node2&#45;&gt;Node5</title>
<g id="a_edge4_Node000002_Node000005"><a xlink:title=" ">
<path fill="none" stroke="#63b8ff" d="M365.48,-114.68C401.25,-109.32 454.19,-97.93 494.62,-74.5 514.77,-62.82 532.87,-43 544.45,-28.53"/>
<polygon fill="#63b8ff" stroke="#63b8ff" points="547.12,-30.79 550.44,-20.73 541.57,-26.53 547.12,-30.79"/>
</a>
</g>
</g>
<!-- Node6 -->
<g id="Node000006" class="node">
<title>Node6</title>
<g id="a_Node000006"><a xlink:title=" ">
<polygon fill="#e0e0e0" stroke="#999999" points="638.62,-19.25 598.62,-19.25 598.62,0 638.62,0 638.62,-19.25"/>
<text xml:space="preserve" text-anchor="middle" x="618.62" y="-5.75" font-family="Helvetica,sans-Serif" font-size="10.00">ctime</text>
</a>
</g>
</g>
<!-- Node2&#45;&gt;Node6 -->
<g id="edge5_Node000002_Node000006" class="edge">
<title>Node2&#45;&gt;Node6</title>
<g id="a_edge5_Node000002_Node000006"><a xlink:title=" ">
<path fill="none" stroke="#63b8ff" d="M365.59,-114.3C406.14,-108.43 470.1,-96.47 521.62,-74.5 550.4,-62.23 579.91,-41.38 598.71,-26.85"/>
<polygon fill="#63b8ff" stroke="#63b8ff" points="600.88,-29.6 606.55,-20.65 596.54,-24.11 600.88,-29.6"/>
</a>
</g>
</g>
<!-- Node7 -->
<g id="Node000007" class="node">
<title>Node7</title>
<g id="a_Node000007"><a xlink:title=" ">
<polygon fill="#e0e0e0" stroke="#999999" points="177.62,-19.25 137.62,-19.25 137.62,0 177.62,0 177.62,-19.25"/>
<text xml:space="preserve" text-anchor="middle" x="157.62" y="-5.75" font-family="Helvetica,sans-Serif" font-size="10.00">string</text>
</a>
</g>
</g>
<!-- Node2&#45;&gt;Node7 -->
<g id="edge6_Node000002_Node000007" class="edge">
<title>Node2&#45;&gt;Node7</title>
<g id="a_edge6_Node000002_Node000007"><a xlink:title=" ">
<path fill="none" stroke="#63b8ff" d="M311.59,-110.06C282.74,-91.43 216.5,-48.65 181.04,-25.75"/>
<polygon fill="#63b8ff" stroke="#63b8ff" points="183.07,-22.89 172.77,-20.41 179.27,-28.77 183.07,-22.89"/>
</a>
</g>
</g>
<!-- Node8 -->
<g id="Node000008" class="node">
<title>Node8</title>
<g id="a_Node000008"><a xlink:title=" ">
<polygon fill="#e0e0e0" stroke="#999999" points="51.25,-19.25 0,-19.25 0,0 51.25,0 51.25,-19.25"/>
<text xml:space="preserve" text-anchor="middle" x="25.62" y="-5.75" font-family="Helvetica,sans-Serif" font-size="10.00">sstream</text>
</a>
</g>
</g>
<!-- Node2&#45;&gt;Node8 -->
<g id="edge7_Node000002_Node000008" class="edge">
<title>Node2&#45;&gt;Node8</title>
<g id="a_edge7_Node000002_Node000008"><a xlink:title=" ">
<path fill="none" stroke="#63b8ff" d="M294.36,-110.08C265.43,-101.53 221.33,-88.02 183.62,-74.5 139.15,-58.55 88.69,-37.65 57.01,-24.18"/>
<polygon fill="#63b8ff" stroke="#63b8ff" points="58.59,-21.05 48.02,-20.34 55.84,-27.48 58.59,-21.05"/>
</a>
</g>
</g>
<!-- Node9 -->
<g id="Node000009" class="node">
<title>Node9</title>
<g id="a_Node000009"><a xlink:title=" ">
<polygon fill="#e0e0e0" stroke="#999999" points="119.5,-19.25 69.75,-19.25 69.75,0 119.5,0 119.5,-19.25"/>
<text xml:space="preserve" text-anchor="middle" x="94.62" y="-5.75" font-family="Helvetica,sans-Serif" font-size="10.00">iomanip</text>
</a>
</g>
</g>
<!-- Node2&#45;&gt;Node9 -->
<g id="edge8_Node000002_Node000009" class="edge">
<title>Node2&#45;&gt;Node9</title>
<g id="a_edge8_Node000002_Node000009"><a xlink:title=" ">
<path fill="none" stroke="#63b8ff" d="M305.3,-110.02C285.44,-101.08 254.38,-87.01 227.62,-74.5 191.53,-57.62 150.19,-37.67 123.31,-24.61"/>
<polygon fill="#63b8ff" stroke="#63b8ff" points="124.96,-21.52 114.43,-20.29 121.9,-27.81 124.96,-21.52"/>
</a>
</g>
</g>
<!-- Node10 -->
<g id="Node000010" class="node">
<title>Node10</title>
<g id="a_Node000010"><a xlink:title=" ">
<polygon fill="#e0e0e0" stroke="#999999" points="315.75,-19.25 267.5,-19.25 267.5,0 315.75,0 315.75,-19.25"/>
<text xml:space="preserve" text-anchor="middle" x="291.62" y="-5.75" font-family="Helvetica,sans-Serif" font-size="10.00">stdint.h</text>
</a>
</g>
</g>
<!-- Node2&#45;&gt;Node10 -->
<g id="edge9_Node000002_Node000010" class="edge">
<title>Node2&#45;&gt;Node10</title>
<g id="a_edge9_Node000002_Node000010"><a xlink:title=" ">
<path fill="none" stroke="#63b8ff" d="M322.84,-110.25C317.41,-92.92 305.29,-54.23 297.85,-30.49"/>
<polygon fill="#63b8ff" stroke="#63b8ff" points="301.23,-29.57 294.9,-21.07 294.55,-31.66 301.23,-29.57"/>
</a>
</g>
</g>
<!-- Node11 -->
<g id="Node000011" class="node">
<title>Node11</title>
<g id="a_Node000011"><a xlink:title=" ">
<polygon fill="#e0e0e0" stroke="#999999" points="393,-19.25 334.25,-19.25 334.25,0 393,0 393,-19.25"/>
<text xml:space="preserve" text-anchor="middle" x="363.62" y="-5.75" font-family="Helvetica,sans-Serif" font-size="10.00">inttypes.h</text>
</a>
</g>
</g>
<!-- Node2&#45;&gt;Node11 -->
<g id="edge10_Node000002_Node000011" class="edge">
<title>Node2&#45;&gt;Node11</title>
<g id="a_edge10_Node000002_Node000011"><a xlink:title=" ">
<path fill="none" stroke="#63b8ff" d="M328.73,-110.25C334.8,-92.92 348.35,-54.23 356.67,-30.49"/>
<polygon fill="#63b8ff" stroke="#63b8ff" points="359.97,-31.65 359.97,-21.06 353.36,-29.34 359.97,-31.65"/>
</a>
</g>
</g>
<!-- Node12 -->
<g id="Node000012" class="node">
<title>Node12</title>
<g id="a_Node000012"><a xlink:title=" ">
<polygon fill="#e0e0e0" stroke="#999999" points="763.12,-19.25 720.12,-19.25 720.12,0 763.12,0 763.12,-19.25"/>
<text xml:space="preserve" text-anchor="middle" x="741.62" y="-5.75" font-family="Helvetica,sans-Serif" font-size="10.00">mutex</text>
</a>
</g>
</g>
<!-- Node2&#45;&gt;Node12 -->
<g id="edge11_Node000002_Node000012" class="edge">
<title>Node2&#45;&gt;Node12</title>
<g id="a_edge11_Node000002_Node000012"><a xlink:title=" ">
<path fill="none" stroke="#63b8ff" d="M365.46,-115.22C417.54,-109.47 511.22,-96.91 588.62,-74.5 633.69,-61.45 683.39,-39.13 713.55,-24.63"/>
<polygon fill="#63b8ff" stroke="#63b8ff" points="714.92,-27.86 722.38,-20.33 711.86,-21.56 714.92,-27.86"/>
</a>
</g>
</g>
<!-- Node13 -->
<g id="Node000013" class="node">
<title>Node13</title>
<g id="a_Node000013"><a xlink:title=" ">
<polygon fill="#e0e0e0" stroke="#999999" points="517.12,-19.25 474.12,-19.25 474.12,0 517.12,0 517.12,-19.25"/>
<text xml:space="preserve" text-anchor="middle" x="495.62" y="-5.75" font-family="Helvetica,sans-Serif" font-size="10.00">thread</text>
</a>
</g>
</g>
<!-- Node2&#45;&gt;Node13 -->
<g id="edge12_Node000002_Node000013" class="edge">
<title>Node2&#45;&gt;Node13</title>
<g id="a_edge12_Node000002_Node000013"><a xlink:title=" ">
<path fill="none" stroke="#63b8ff" d="M339.37,-110.19C358.45,-97.79 394.09,-74.7 424.62,-55.25 440.18,-45.34 457.73,-34.31 471.49,-25.69"/>
<polygon fill="#63b8ff" stroke="#63b8ff" points="473.27,-28.71 479.9,-20.44 469.56,-22.77 473.27,-28.71"/>
</a>
</g>
</g>
<!-- Node14 -->
<g id="Node000014" class="node">
<title>Node14</title>
<g id="a_Node000014"><a xlink:href="_ctools_8h.html" target="_top" xlink:title="Ctorch 通用工具类，包含通用枚举类型和辅助函数">
<polygon fill="white" stroke="#666666" points="486,-74.5 433.25,-74.5 433.25,-55.25 486,-55.25 486,-74.5"/>
<text xml:space="preserve" text-anchor="middle" x="459.62" y="-61" font-family="Helvetica,sans-Serif" font-size="10.00">Ctools.h</text>
</a>
</g>
</g>
<!-- Node2&#45;&gt;Node14 -->
<g id="edge13_Node000002_Node000014" class="edge">
<title>Node2&#45;&gt;Node14</title>
<g id="a_edge13_Node000002_Node000014"><a xlink:title=" ">
<path fill="none" stroke="#63b8ff" d="M348.36,-110.09C369.72,-101.6 401.97,-88.79 426.25,-79.14"/>
<polygon fill="#63b8ff" stroke="#63b8ff" points="427.38,-82.46 435.38,-75.51 424.79,-75.95 427.38,-82.46"/>
</a>
</g>
</g>
<!-- Node14&#45;&gt;Node3 -->
<g id="edge14_Node000014_Node000003" class="edge">
<title>Node14&#45;&gt;Node3</title>
<g id="a_edge14_Node000014_Node000003"><a xlink:title=" ">
<path fill="none" stroke="#63b8ff" d="M486.46,-57.77C521,-49.86 583.11,-35.44 645.71,-19.68"/>
<polygon fill="#63b8ff" stroke="#63b8ff" points="646.27,-23.14 655.11,-17.3 644.55,-16.36 646.27,-23.14"/>
</a>
</g>
</g>
<!-- Node14&#45;&gt;Node4 -->
<g id="edge15_Node000014_Node000004" class="edge">
<title>Node14&#45;&gt;Node4</title>
<g id="a_edge15_Node000014_Node000004"><a xlink:title=" ">
<path fill="none" stroke="#63b8ff" d="M455.33,-55.08C452,-48.26 447.26,-38.56 443.06,-29.95"/>
<polygon fill="#63b8ff" stroke="#63b8ff" points="446.21,-28.42 438.68,-20.97 439.92,-31.49 446.21,-28.42"/>
</a>
</g>
</g>
<!-- Node14&#45;&gt;Node5 -->
<g id="edge16_Node000014_Node000005" class="edge">
<title>Node14&#45;&gt;Node5</title>
<g id="a_edge16_Node000014_Node000005"><a xlink:title=" ">
<path fill="none" stroke="#63b8ff" d="M476.25,-54.84C491.31,-46.66 513.77,-34.46 531.28,-24.94"/>
<polygon fill="#63b8ff" stroke="#63b8ff" points="532.47,-28.27 539.59,-20.43 529.13,-22.12 532.47,-28.27"/>
</a>
</g>
</g>
<!-- Node14&#45;&gt;Node6 -->
<g id="edge17_Node000014_Node000006" class="edge">
<title>Node14&#45;&gt;Node6</title>
<g id="a_edge17_Node000014_Node000006"><a xlink:title=" ">
<path fill="none" stroke="#63b8ff" d="M486.24,-54.96C514.18,-45.6 558.07,-30.91 587.57,-21.03"/>
<polygon fill="#63b8ff" stroke="#63b8ff" points="588.68,-24.34 597.05,-17.85 586.46,-17.71 588.68,-24.34"/>
</a>
</g>
</g>
<!-- Node14&#45;&gt;Node7 -->
<g id="edge18_Node000014_Node000007" class="edge">
<title>Node14&#45;&gt;Node7</title>
<g id="a_edge18_Node000014_Node000007"><a xlink:title=" ">
<path fill="none" stroke="#63b8ff" d="M433.05,-60.67C385.81,-54.74 283.96,-40.85 188.79,-19.49"/>
<polygon fill="#63b8ff" stroke="#63b8ff" points="189.82,-16.14 179.3,-17.32 188.27,-22.96 189.82,-16.14"/>
</a>
</g>
</g>
<!-- Node14&#45;&gt;Node8 -->
<g id="edge19_Node000014_Node000008" class="edge">
<title>Node14&#45;&gt;Node8</title>
<g id="a_edge19_Node000014_Node000008"><a xlink:title=" ">
<path fill="none" stroke="#63b8ff" d="M432.84,-62.09C370,-57.65 208.08,-44.71 62.85,-19.41"/>
<polygon fill="#63b8ff" stroke="#63b8ff" points="63.49,-15.97 53.03,-17.67 62.27,-22.86 63.49,-15.97"/>
</a>
</g>
</g>
<!-- Node14&#45;&gt;Node9 -->
<g id="edge20_Node000014_Node000009" class="edge">
<title>Node14&#45;&gt;Node9</title>
<g id="a_edge20_Node000014_Node000009"><a xlink:title=" ">
<path fill="none" stroke="#63b8ff" d="M432.86,-61.32C378.04,-55.85 248.91,-41.84 130.83,-19.47"/>
<polygon fill="#63b8ff" stroke="#63b8ff" points="131.77,-16.09 121.29,-17.64 130.45,-22.96 131.77,-16.09"/>
</a>
</g>
</g>
<!-- Node14&#45;&gt;Node10 -->
<g id="edge21_Node000014_Node000010" class="edge">
<title>Node14&#45;&gt;Node10</title>
<g id="a_edge21_Node000014_Node000010"><a xlink:title=" ">
<path fill="none" stroke="#63b8ff" d="M433,-55.44C404.41,-46.37 358.83,-31.93 327.18,-21.89"/>
<polygon fill="#63b8ff" stroke="#63b8ff" points="328.24,-18.56 317.65,-18.87 326.13,-25.23 328.24,-18.56"/>
</a>
</g>
</g>
<!-- Node14&#45;&gt;Node11 -->
<g id="edge22_Node000014_Node000011" class="edge">
<title>Node14&#45;&gt;Node11</title>
<g id="a_edge22_Node000014_Node000011"><a xlink:title=" ">
<path fill="none" stroke="#63b8ff" d="M443.34,-54.84C428.72,-46.73 407,-34.68 389.92,-25.21"/>
<polygon fill="#63b8ff" stroke="#63b8ff" points="391.76,-22.23 381.31,-20.44 388.36,-28.35 391.76,-22.23"/>
</a>
</g>
</g>
<!-- Node14&#45;&gt;Node12 -->
<g id="edge23_Node000014_Node000012" class="edge">
<title>Node14&#45;&gt;Node12</title>
<g id="a_edge23_Node000014_Node000012"><a xlink:title=" ">
<path fill="none" stroke="#63b8ff" d="M486.3,-60.09C530.59,-53.61 622.32,-39.33 708.69,-19.75"/>
<polygon fill="#63b8ff" stroke="#63b8ff" points="709.3,-23.2 718.26,-17.54 707.73,-16.37 709.3,-23.2"/>
</a>
</g>
</g>
<!-- Node14&#45;&gt;Node13 -->
<g id="edge24_Node000014_Node000013" class="edge">
<title>Node14&#45;&gt;Node13</title>
<g id="a_edge24_Node000014_Node000013"><a xlink:title=" ">
<path fill="none" stroke="#63b8ff" d="M465.57,-55.08C470.34,-48.03 477.19,-37.9 483.15,-29.08"/>
<polygon fill="#63b8ff" stroke="#63b8ff" points="486,-31.11 488.7,-20.86 480.2,-27.19 486,-31.11"/>
</a>
</g>
</g>
<!-- Node15 -->
<g id="Node000015" class="node">
<title>Node15</title>
<g id="a_Node000015"><a xlink:title=" ">
<polygon fill="#e0e0e0" stroke="#999999" points="1189.12,-19.25 1146.12,-19.25 1146.12,0 1189.12,0 1189.12,-19.25"/>
<text xml:space="preserve" text-anchor="middle" x="1167.62" y="-5.75" font-family="Helvetica,sans-Serif" font-size="10.00">vector</text>
</a>
</g>
</g>
<!-- Node14&#45;&gt;Node15 -->
<g id="edge25_Node000014_Node000015" class="edge">
<title>Node14&#45;&gt;Node15</title>
<g id="a_edge25_Node000014_Node000015"><a xlink:title=" ">
<path fill="none" stroke="#63b8ff" d="M486.09,-61.88C595.55,-53.65 1012.85,-22.27 1134.29,-13.13"/>
<polygon fill="#63b8ff" stroke="#63b8ff" points="1134.51,-16.63 1144.22,-12.39 1133.99,-9.65 1134.51,-16.63"/>
</a>
</g>
</g>
<!-- Node16 -->
<g id="Node000016" class="node">
<title>Node16</title>
<g id="a_Node000016"><a xlink:title=" ">
<polygon fill="#e0e0e0" stroke="#999999" points="1017.25,-19.25 966,-19.25 966,0 1017.25,0 1017.25,-19.25"/>
<text xml:space="preserve" text-anchor="middle" x="991.62" y="-5.75" font-family="Helvetica,sans-Serif" font-size="10.00">memory</text>
</a>
</g>
</g>
<!-- Node14&#45;&gt;Node16 -->
<g id="edge26_Node000014_Node000016" class="edge">
<title>Node14&#45;&gt;Node16</title>
<g id="a_edge26_Node000014_Node000016"><a xlink:title=" ">
<path fill="none" stroke="#63b8ff" d="M486.37,-61.2C574.13,-52.41 853.47,-24.45 954.61,-14.33"/>
<polygon fill="#63b8ff" stroke="#63b8ff" points="954.66,-17.84 964.26,-13.36 953.96,-10.88 954.66,-17.84"/>
</a>
</g>
</g>
<!-- Node17 -->
<g id="Node000017" class="node">
<title>Node17</title>
<g id="a_Node000017"><a xlink:title=" ">
<polygon fill="#e0e0e0" stroke="#999999" points="249.38,-19.25 195.88,-19.25 195.88,0 249.38,0 249.38,-19.25"/>
<text xml:space="preserve" text-anchor="middle" x="222.62" y="-5.75" font-family="Helvetica,sans-Serif" font-size="10.00">iostream</text>
</a>
</g>
</g>
<!-- Node14&#45;&gt;Node17 -->
<g id="edge27_Node000014_Node000017" class="edge">
<title>Node14&#45;&gt;Node17</title>
<g id="a_edge27_Node000014_Node000017"><a xlink:title=" ">
<path fill="none" stroke="#63b8ff" d="M432.93,-58.1C396.36,-50.15 328.34,-35.25 260.6,-19.68"/>
<polygon fill="#63b8ff" stroke="#63b8ff" points="261.75,-16.35 251.22,-17.51 260.17,-23.17 261.75,-16.35"/>
</a>
</g>
</g>
<!-- Node18&#45;&gt;Node2 -->
<g id="edge31_Node000018_Node000002" class="edge">
<title>Node18&#45;&gt;Node2</title>
<g id="a_edge31_Node000018_Node000002"><a xlink:title=" ">
<path fill="none" stroke="#63b8ff" d="M567.96,-229.45C505.6,-228.41 353.11,-222.05 321.62,-185 311.5,-173.08 313.72,-154.96 317.77,-141.06"/>
<polygon fill="#63b8ff" stroke="#63b8ff" points="321.07,-142.21 321.04,-131.62 314.46,-139.92 321.07,-142.21"/>
</a>
</g>
</g>
<!-- Node18&#45;&gt;Node3 -->
<g id="edge43_Node000018_Node000003" class="edge">
<title>Node18&#45;&gt;Node3</title>
<g id="a_edge43_Node000018_Node000003"><a xlink:title=" ">
<path fill="none" stroke="#63b8ff" d="M596.9,-220.85C600.19,-208.44 606.65,-185.13 613.62,-165.75 631.58,-115.89 657.15,-58.97 670.58,-29.91"/>
<polygon fill="#63b8ff" stroke="#63b8ff" points="673.71,-31.49 674.75,-20.95 667.36,-28.54 673.71,-31.49"/>
</a>
</g>
</g>
<!-- Node18&#45;&gt;Node7 -->
<g id="edge45_Node000018_Node000007" class="edge">
<title>Node18&#45;&gt;Node7</title>
<g id="a_edge45_Node000018_Node000007"><a xlink:title=" ">
<path fill="none" stroke="#63b8ff" d="M567.82,-228.42C501.61,-225.02 332.25,-213.69 284.62,-185 222.39,-147.51 181.54,-66.7 165.41,-29.76"/>
<polygon fill="#63b8ff" stroke="#63b8ff" points="168.75,-28.66 161.64,-20.81 162.3,-31.38 168.75,-28.66"/>
</a>
</g>
</g>
<!-- Node18&#45;&gt;Node8 -->
<g id="edge41_Node000018_Node000008" class="edge">
<title>Node18&#45;&gt;Node8</title>
<g id="a_edge41_Node000018_Node000008"><a xlink:title=" ">
<path fill="none" stroke="#63b8ff" d="M568,-228.52C493.27,-225.1 282.98,-213.16 220.62,-185 139.28,-148.27 67.91,-65.17 39.14,-28.54"/>
<polygon fill="#63b8ff" stroke="#63b8ff" points="41.98,-26.5 33.1,-20.72 36.44,-30.77 41.98,-26.5"/>
</a>
</g>
</g>
<!-- Node18&#45;&gt;Node9 -->
<g id="edge44_Node000018_Node000009" class="edge">
<title>Node18&#45;&gt;Node9</title>
<g id="a_edge44_Node000018_Node000009"><a xlink:title=" ">
<path fill="none" stroke="#63b8ff" d="M567.78,-228.46C497.4,-225.03 309.23,-213.39 254.62,-185 183.29,-147.91 127.52,-65.64 105.21,-28.93"/>
<polygon fill="#63b8ff" stroke="#63b8ff" points="108.48,-27.59 100.36,-20.78 102.46,-31.16 108.48,-27.59"/>
</a>
</g>
</g>
<!-- Node18&#45;&gt;Node14 -->
<g id="edge49_Node000018_Node000014" class="edge">
<title>Node18&#45;&gt;Node14</title>
<g id="a_edge49_Node000018_Node000014"><a xlink:title=" ">
<path fill="none" stroke="#63b8ff" d="M568.08,-226.06C527.14,-219.95 451.6,-206.08 435.62,-185 413.09,-155.27 433.14,-109.77 447.69,-84.48"/>
<polygon fill="#63b8ff" stroke="#63b8ff" points="450.65,-86.35 452.85,-75.98 444.67,-82.71 450.65,-86.35"/>
</a>
</g>
</g>
<!-- Node18&#45;&gt;Node15 -->
<g id="edge40_Node000018_Node000015" class="edge">
<title>Node18&#45;&gt;Node15</title>
<g id="a_edge40_Node000018_Node000015"><a xlink:title=" ">
<path fill="none" stroke="#63b8ff" d="M621.27,-222.74C624.41,-222.08 627.58,-221.48 630.62,-221 736.75,-204.43 1022.43,-243.32 1112.62,-185 1164.24,-151.63 1169.24,-68.97 1168.61,-30.68"/>
<polygon fill="#63b8ff" stroke="#63b8ff" points="1172.12,-30.73 1168.28,-20.85 1165.12,-30.96 1172.12,-30.73"/>
</a>
</g>
</g>
<!-- Node18&#45;&gt;Node16 -->
<g id="edge37_Node000018_Node000016" class="edge">
<title>Node18&#45;&gt;Node16</title>
<g id="a_edge37_Node000018_Node000016"><a xlink:title=" ">
<path fill="none" stroke="#63b8ff" d="M621.27,-222.75C624.41,-222.09 627.58,-221.48 630.62,-221 681.15,-213.02 1051.53,-219.14 1089.62,-185 1133.13,-146.02 1143.9,-103.26 1110.62,-55.25 1092.37,-28.91 1056.52,-18.09 1028.92,-13.66"/>
<polygon fill="#63b8ff" stroke="#63b8ff" points="1029.55,-10.22 1019.17,-12.34 1028.61,-17.15 1029.55,-10.22"/>
</a>
</g>
</g>
<!-- Node18&#45;&gt;Node17 -->
<g id="edge36_Node000018_Node000017" class="edge">
<title>Node18&#45;&gt;Node17</title>
<g id="a_edge36_Node000018_Node000017"><a xlink:title=" ">
<path fill="none" stroke="#63b8ff" d="M568.09,-228.3C505.83,-224.75 352.5,-213.29 310.62,-185 256.35,-148.33 233.88,-67.72 226.12,-30.36"/>
<polygon fill="#63b8ff" stroke="#63b8ff" points="229.64,-30.12 224.31,-20.96 222.76,-31.44 229.64,-30.12"/>
</a>
</g>
</g>
<!-- Node19 -->
<g id="Node000019" class="node">
<title>Node19</title>
<g id="a_Node000019"><a xlink:title=" ">
<polygon fill="#e0e0e0" stroke="#999999" points="500.5,-185 444.75,-185 444.75,-165.75 500.5,-165.75 500.5,-185"/>
<text xml:space="preserve" text-anchor="middle" x="472.62" y="-171.5" font-family="Helvetica,sans-Serif" font-size="10.00">algorithm</text>
</a>
</g>
</g>
<!-- Node18&#45;&gt;Node19 -->
<g id="edge29_Node000018_Node000019" class="edge">
<title>Node18&#45;&gt;Node19</title>
<g id="a_edge29_Node000018_Node000019"><a xlink:title=" ">
<path fill="none" stroke="#63b8ff" d="M573.93,-220.59C554.74,-212.22 525.91,-199.63 503.91,-190.03"/>
<polygon fill="#63b8ff" stroke="#63b8ff" points="505.37,-186.85 494.81,-186.06 502.57,-193.27 505.37,-186.85"/>
</a>
</g>
</g>
<!-- Node20 -->
<g id="Node000020" class="node">
<title>Node20</title>
<g id="a_Node000020"><a xlink:title=" ">
<polygon fill="#e0e0e0" stroke="#999999" points="566.75,-185 518.5,-185 518.5,-165.75 566.75,-165.75 566.75,-185"/>
<text xml:space="preserve" text-anchor="middle" x="542.62" y="-171.5" font-family="Helvetica,sans-Serif" font-size="10.00">cstddef</text>
</a>
</g>
</g>
<!-- Node18&#45;&gt;Node20 -->
<g id="edge30_Node000018_Node000020" class="edge">
<title>Node18&#45;&gt;Node20</title>
<g id="a_edge30_Node000018_Node000020"><a xlink:title=" ">
<path fill="none" stroke="#63b8ff" d="M586.04,-220.83C578.78,-213.4 568.17,-202.54 559.26,-193.41"/>
<polygon fill="#63b8ff" stroke="#63b8ff" points="561.95,-191.15 552.46,-186.44 556.94,-196.04 561.95,-191.15"/>
</a>
</g>
</g>
<!-- Node21 -->
<g id="Node000021" class="node">
<title>Node21</title>
<g id="a_Node000021"><a xlink:href="_storage_8h.html" target="_top" xlink:title="Ctorch 存储类，用于管理张量数据的底层存储">
<polygon fill="white" stroke="#666666" points="388.62,-185 330.62,-185 330.62,-165.75 388.62,-165.75 388.62,-185"/>
<text xml:space="preserve" text-anchor="middle" x="359.62" y="-171.5" font-family="Helvetica,sans-Serif" font-size="10.00">Storage.h</text>
</a>
</g>
</g>
<!-- Node18&#45;&gt;Node21 -->
<g id="edge32_Node000018_Node000021" class="edge">
<title>Node18&#45;&gt;Node21</title>
<g id="a_edge32_Node000018_Node000021"><a xlink:title=" ">
<path fill="none" stroke="#63b8ff" d="M568.12,-223.62C527.12,-214.33 448.01,-196.4 399.9,-185.5"/>
<polygon fill="#63b8ff" stroke="#63b8ff" points="400.97,-182.15 390.44,-183.36 399.42,-188.98 400.97,-182.15"/>
</a>
</g>
</g>
<!-- Node22 -->
<g id="Node000022" class="node">
<title>Node22</title>
<g id="a_Node000022"><a xlink:title=" ">
<polygon fill="#e0e0e0" stroke="#999999" points="694.75,-185 622.5,-185 622.5,-165.75 694.75,-165.75 694.75,-185"/>
<text xml:space="preserve" text-anchor="middle" x="658.62" y="-171.5" font-family="Helvetica,sans-Serif" font-size="10.00">initializer_list</text>
</a>
</g>
</g>
<!-- Node18&#45;&gt;Node22 -->
<g id="edge35_Node000018_Node000022" class="edge">
<title>Node18&#45;&gt;Node22</title>
<g id="a_edge35_Node000018_Node000022"><a xlink:title=" ">
<path fill="none" stroke="#63b8ff" d="M605.48,-220.59C614.73,-212.9 628.25,-201.65 639.33,-192.43"/>
<polygon fill="#63b8ff" stroke="#63b8ff" points="641.32,-195.33 646.77,-186.24 636.84,-189.95 641.32,-195.33"/>
</a>
</g>
</g>
<!-- Node23 -->
<g id="Node000023" class="node">
<title>Node23</title>
<g id="a_Node000023"><a xlink:title=" ">
<polygon fill="#e0e0e0" stroke="#999999" points="762.88,-185 712.38,-185 712.38,-165.75 762.88,-165.75 762.88,-185"/>
<text xml:space="preserve" text-anchor="middle" x="737.62" y="-171.5" font-family="Helvetica,sans-Serif" font-size="10.00">numeric</text>
</a>
</g>
</g>
<!-- Node18&#45;&gt;Node23 -->
<g id="edge38_Node000018_Node000023" class="edge">
<title>Node18&#45;&gt;Node23</title>
<g id="a_edge38_Node000018_Node000023"><a xlink:title=" ">
<path fill="none" stroke="#63b8ff" d="M618.88,-220.59C641.89,-212.02 676.72,-199.06 702.71,-189.38"/>
<polygon fill="#63b8ff" stroke="#63b8ff" points="703.68,-192.75 711.83,-185.98 701.24,-186.19 703.68,-192.75"/>
</a>
</g>
</g>
<!-- Node24 -->
<g id="Node000024" class="node">
<title>Node24</title>
<g id="a_Node000024"><a xlink:title=" ">
<polygon fill="#e0e0e0" stroke="#999999" points="840,-185 781.25,-185 781.25,-165.75 840,-165.75 840,-185"/>
<text xml:space="preserve" text-anchor="middle" x="810.62" y="-171.5" font-family="Helvetica,sans-Serif" font-size="10.00">stdexcept</text>
</a>
</g>
</g>
<!-- Node18&#45;&gt;Node24 -->
<g id="edge39_Node000018_Node000024" class="edge">
<title>Node18&#45;&gt;Node24</title>
<g id="a_edge39_Node000018_Node000024"><a xlink:title=" ">
<path fill="none" stroke="#63b8ff" d="M621.11,-223.1C658.24,-213.94 726.08,-197.22 769.72,-186.46"/>
<polygon fill="#63b8ff" stroke="#63b8ff" points="770.46,-189.88 779.33,-184.09 768.79,-183.08 770.46,-189.88"/>
</a>
</g>
</g>
<!-- Node25 -->
<g id="Node000025" class="node">
<title>Node25</title>
<g id="a_Node000025"><a xlink:title=" ">
<polygon fill="#e0e0e0" stroke="#999999" points="915.62,-185 857.62,-185 857.62,-165.75 915.62,-165.75 915.62,-185"/>
<text xml:space="preserve" text-anchor="middle" x="886.62" y="-171.5" font-family="Helvetica,sans-Serif" font-size="10.00">functional</text>
</a>
</g>
</g>
<!-- Node18&#45;&gt;Node25 -->
<g id="edge42_Node000018_Node000025" class="edge">
<title>Node18&#45;&gt;Node25</title>
<g id="a_edge42_Node000018_Node000025"><a xlink:title=" ">
<path fill="none" stroke="#63b8ff" d="M621.31,-223.01C624.45,-222.3 627.6,-221.61 630.62,-221 723.4,-202.25 750.33,-203.74 846.13,-185.38"/>
<polygon fill="#63b8ff" stroke="#63b8ff" points="846.57,-188.87 855.72,-183.52 845.23,-181.99 846.57,-188.87"/>
</a>
</g>
</g>
<!-- Node26 -->
<g id="Node000026" class="node">
<title>Node26</title>
<g id="a_Node000026"><a xlink:title=" ">
<polygon fill="#e0e0e0" stroke="#999999" points="862.38,-74.5 784.88,-74.5 784.88,-55.25 862.38,-55.25 862.38,-74.5"/>
<text xml:space="preserve" text-anchor="middle" x="823.62" y="-61" font-family="Helvetica,sans-Serif" font-size="10.00">unordered_set</text>
</a>
</g>
</g>
<!-- Node18&#45;&gt;Node26 -->
<g id="edge46_Node000018_Node000026" class="edge">
<title>Node18&#45;&gt;Node26</title>
<g id="a_edge46_Node000018_Node000026"><a xlink:title=" ">
<path fill="none" stroke="#63b8ff" d="M621.29,-222.88C624.43,-222.19 627.59,-221.55 630.62,-221 695.4,-209.31 881,-234.29 924.62,-185 957.45,-147.91 892,-103.09 851.82,-80.47"/>
<polygon fill="#63b8ff" stroke="#63b8ff" points="853.52,-77.41 843.06,-75.68 850.16,-83.55 853.52,-77.41"/>
</a>
</g>
</g>
<!-- Node27 -->
<g id="Node000027" class="node">
<title>Node27</title>
<g id="a_Node000027"><a xlink:title=" ">
<polygon fill="#e0e0e0" stroke="#999999" points="1011.25,-185 972,-185 972,-165.75 1011.25,-165.75 1011.25,-185"/>
<text xml:space="preserve" text-anchor="middle" x="991.62" y="-171.5" font-family="Helvetica,sans-Serif" font-size="10.00">limits</text>
</a>
</g>
</g>
<!-- Node18&#45;&gt;Node27 -->
<g id="edge47_Node000018_Node000027" class="edge">
<title>Node18&#45;&gt;Node27</title>
<g id="a_edge47_Node000018_Node000027"><a xlink:title=" ">
<path fill="none" stroke="#63b8ff" d="M621.28,-222.84C624.42,-222.16 627.59,-221.53 630.62,-221 774.67,-195.92 813.75,-211.04 957.62,-185 958.62,-184.82 959.63,-184.63 960.65,-184.42"/>
<polygon fill="#63b8ff" stroke="#63b8ff" points="961.13,-187.9 970.11,-182.28 959.59,-181.07 961.13,-187.9"/>
</a>
</g>
</g>
<!-- Node28 -->
<g id="Node000028" class="node">
<title>Node28</title>
<g id="a_Node000028"><a xlink:title=" ">
<polygon fill="#e0e0e0" stroke="#999999" points="1064,-185 1029.25,-185 1029.25,-165.75 1064,-165.75 1064,-185"/>
<text xml:space="preserve" text-anchor="middle" x="1046.62" y="-171.5" font-family="Helvetica,sans-Serif" font-size="10.00">map</text>
</a>
</g>
</g>
<!-- Node18&#45;&gt;Node28 -->
<g id="edge48_Node000018_Node000028" class="edge">
<title>Node18&#45;&gt;Node28</title>
<g id="a_edge48_Node000018_Node000028"><a xlink:title=" ">
<path fill="none" stroke="#63b8ff" d="M621.27,-222.79C624.41,-222.12 627.58,-221.5 630.62,-221 798.76,-193.24 848.18,-219.49 1017.79,-185.15"/>
<polygon fill="#63b8ff" stroke="#63b8ff" points="1018.3,-188.62 1027.39,-183.17 1016.89,-181.77 1018.3,-188.62"/>
</a>
</g>
</g>
<!-- Node29 -->
<g id="Node000029" class="node">
<title>Node29</title>
<g id="a_Node000029"><a xlink:href="_auto_diff_8h.html" target="_top" xlink:title="Ctorch 自动微分系统">
<polygon fill="white" stroke="#666666" points="1031.75,-129.75 971.5,-129.75 971.5,-110.5 1031.75,-110.5 1031.75,-129.75"/>
<text xml:space="preserve" text-anchor="middle" x="1001.62" y="-116.25" font-family="Helvetica,sans-Serif" font-size="10.00">AutoDiff.h</text>
</a>
</g>
</g>
<!-- Node18&#45;&gt;Node29 -->
<g id="edge50_Node000018_Node000029" class="edge">
<title>Node18&#45;&gt;Node29</title>
<g id="a_edge50_Node000018_Node000029"><a xlink:title=" ">
<path fill="none" stroke="#63b8ff" d="M621.27,-222.76C624.41,-222.09 627.58,-221.49 630.62,-221 679.28,-213.24 1039.23,-221.23 1072.62,-185 1089.81,-166.36 1061.13,-147.19 1035.24,-134.78"/>
<polygon fill="#63b8ff" stroke="#63b8ff" points="1036.76,-131.63 1026.21,-130.68 1033.87,-138 1036.76,-131.63"/>
</a>
</g>
</g>
<!-- Node21&#45;&gt;Node2 -->
<g id="edge34_Node000021_Node000002" class="edge">
<title>Node21&#45;&gt;Node2</title>
<g id="a_edge34_Node000021_Node000002"><a xlink:title=" ">
<path fill="none" stroke="#63b8ff" d="M354.01,-165.58C349.51,-158.53 343.04,-148.4 337.41,-139.58"/>
<polygon fill="#63b8ff" stroke="#63b8ff" points="340.51,-137.93 332.18,-131.38 334.61,-141.7 340.51,-137.93"/>
</a>
</g>
</g>
<!-- Node21&#45;&gt;Node14 -->
<g id="edge33_Node000021_Node000014" class="edge">
<title>Node21&#45;&gt;Node14</title>
<g id="a_edge33_Node000021_Node000014"><a xlink:title=" ">
<path fill="none" stroke="#63b8ff" d="M367.46,-165.65C378.56,-153.31 399.53,-130.08 417.62,-110.5 426.11,-101.32 435.66,-91.17 443.5,-82.87"/>
<polygon fill="#63b8ff" stroke="#63b8ff" points="445.84,-85.49 450.17,-75.82 440.75,-80.68 445.84,-85.49"/>
</a>
</g>
</g>
<!-- Node29&#45;&gt;Node12 -->
<g id="edge55_Node000029_Node000012" class="edge">
<title>Node29&#45;&gt;Node12</title>
<g id="a_edge55_Node000029_Node000012"><a xlink:title=" ">
<path fill="none" stroke="#63b8ff" d="M994.88,-110.14C983.88,-96.14 960.66,-69.28 934.62,-55.25 883.07,-27.46 814.71,-16.9 774.71,-12.94"/>
<polygon fill="#63b8ff" stroke="#63b8ff" points="775.27,-9.47 765,-12.06 774.65,-16.45 775.27,-9.47"/>
</a>
</g>
</g>
<!-- Node29&#45;&gt;Node14 -->
<g id="edge51_Node000029_Node000014" class="edge">
<title>Node29&#45;&gt;Node14</title>
<g id="a_edge51_Node000029_Node000014"><a xlink:title=" ">
<path fill="none" stroke="#63b8ff" d="M971.32,-116.15C878.79,-107.06 600,-79.67 497.75,-69.62"/>
<polygon fill="#63b8ff" stroke="#63b8ff" points="498.26,-66.15 487.97,-68.66 497.58,-73.12 498.26,-66.15"/>
</a>
</g>
</g>
<!-- Node29&#45;&gt;Node15 -->
<g id="edge52_Node000029_Node000015" class="edge">
<title>Node29&#45;&gt;Node15</title>
<g id="a_edge52_Node000029_Node000015"><a xlink:title=" ">
<path fill="none" stroke="#63b8ff" d="M1032.15,-110.74C1055.1,-103.49 1086.58,-91.5 1110.62,-74.5 1128.4,-61.93 1144.49,-42.84 1155.01,-28.8"/>
<polygon fill="#63b8ff" stroke="#63b8ff" points="1157.72,-31.02 1160.74,-20.86 1152.05,-26.92 1157.72,-31.02"/>
</a>
</g>
</g>
<!-- Node29&#45;&gt;Node16 -->
<g id="edge57_Node000029_Node000016" class="edge">
<title>Node29&#45;&gt;Node16</title>
<g id="a_edge57_Node000029_Node000016"><a xlink:title=" ">
<path fill="none" stroke="#63b8ff" d="M1000.81,-110.25C999.22,-93 995.68,-54.58 993.49,-30.81"/>
<polygon fill="#63b8ff" stroke="#63b8ff" points="997,-30.77 992.59,-21.13 990.03,-31.41 997,-30.77"/>
</a>
</g>
</g>
<!-- Node29&#45;&gt;Node26 -->
<g id="edge54_Node000029_Node000026" class="edge">
<title>Node29&#45;&gt;Node26</title>
<g id="a_edge54_Node000029_Node000026"><a xlink:title=" ">
<path fill="none" stroke="#63b8ff" d="M971.43,-110.09C942.15,-101.33 897.5,-87.98 864.94,-78.23"/>
<polygon fill="#63b8ff" stroke="#63b8ff" points="866,-74.9 855.42,-75.39 864,-81.61 866,-74.9"/>
</a>
</g>
</g>
<!-- Node30 -->
<g id="Node000030" class="node">
<title>Node30</title>
<g id="a_Node000030"><a xlink:title=" ">
<polygon fill="#e0e0e0" stroke="#999999" points="1102,-74.5 1019.25,-74.5 1019.25,-55.25 1102,-55.25 1102,-74.5"/>
<text xml:space="preserve" text-anchor="middle" x="1060.62" y="-61" font-family="Helvetica,sans-Serif" font-size="10.00">unordered_map</text>
</a>
</g>
</g>
<!-- Node29&#45;&gt;Node30 -->
<g id="edge53_Node000029_Node000030" class="edge">
<title>Node29&#45;&gt;Node30</title>
<g id="a_edge53_Node000029_Node000030"><a xlink:title=" ">
<path fill="none" stroke="#63b8ff" d="M1011.63,-110.09C1019.99,-102.55 1032.12,-91.6 1042.23,-82.48"/>
<polygon fill="#63b8ff" stroke="#63b8ff" points="1044.56,-85.09 1049.64,-75.79 1039.87,-79.89 1044.56,-85.09"/>
</a>
</g>
</g>
<!-- Node31 -->
<g id="Node000031" class="node">
<title>Node31</title>
<g id="a_Node000031"><a xlink:title=" ">
<polygon fill="#e0e0e0" stroke="#999999" points="925.25,-74.5 880,-74.5 880,-55.25 925.25,-55.25 925.25,-74.5"/>
<text xml:space="preserve" text-anchor="middle" x="902.62" y="-61" font-family="Helvetica,sans-Serif" font-size="10.00">atomic</text>
</a>
</g>
</g>
<!-- Node29&#45;&gt;Node31 -->
<g id="edge56_Node000029_Node000031" class="edge">
<title>Node29&#45;&gt;Node31</title>
<g id="a_edge56_Node000029_Node000031"><a xlink:title=" ">
<path fill="none" stroke="#63b8ff" d="M984.83,-110.09C969.61,-101.91 946.93,-89.71 929.24,-80.19"/>
<polygon fill="#63b8ff" stroke="#63b8ff" points="931.3,-77.32 920.83,-75.67 927.98,-83.49 931.3,-77.32"/>
</a>
</g>
</g>
</g>
</svg>
