<?xml version="1.0" encoding="UTF-8" standalone="no"?>
<!DOCTYPE svg PUBLIC "-//W3C//DTD SVG 1.1//EN"
 "http://www.w3.org/Graphics/SVG/1.1/DTD/svg11.dtd">
<!-- Generated by graphviz version 14.1.1 (20251213.1925)
 -->
<!-- Title: Ctools.h Pages: 1 -->
<svg width="487pt" height="304pt"
 viewBox="0.00 0.00 487.00 304.00" xmlns="http://www.w3.org/2000/svg" xmlns:xlink="http://www.w3.org/1999/xlink">
<g id="graph0" class="graph" transform="scale(1 1) rotate(0) translate(4 299.5)">
<title>Ctools.h</title>
<!-- Node1 -->
<g id="Node000001" class="node">
<title>Node1</title>
<g id="a_Node000001"><a xlink:title="Ctorch 通用工具类，包含通用枚举类型和辅助函数">
<polygon fill="#999999" stroke="#666666" points="302.75,-295.5 250,-295.5 250,-276.25 302.75,-276.25 302.75,-295.5"/>
<text xml:space="preserve" text-anchor="middle" x="276.38" y="-282" font-family="Helvetica,sans-Serif" font-size="10.00">Ctools.h</text>
</a>
</g>
</g>
<!-- Node2 -->
<g id="Node000002" class="node">
<title>Node2</title>
<g id="a_Node000002"><a xlink:href="_auto_diff_8h.html" target="_top" xlink:title="Ctorch 自动微分系统">
<polygon fill="white" stroke="#666666" points="180.5,-185 120.25,-185 120.25,-165.75 180.5,-165.75 180.5,-185"/>
<text xml:space="preserve" text-anchor="middle" x="150.38" y="-171.5" font-family="Helvetica,sans-Serif" font-size="10.00">AutoDiff.h</text>
</a>
</g>
</g>
<!-- Node1&#45;&gt;Node2 -->
<g id="edge1_Node000001_Node000002" class="edge">
<title>Node1&#45;&gt;Node2</title>
<g id="a_edge1_Node000001_Node000002"><a xlink:title=" ">
<path fill="none" stroke="#63b8ff" d="M242.9,-271.07C227.06,-263.49 208.57,-253.03 194.38,-240.25 176.16,-223.85 161.61,-198.49 154.71,-185.19"/>
<polygon fill="#63b8ff" stroke="#63b8ff" points="241.42,-274.25 251.97,-275.22 244.33,-267.88 241.42,-274.25"/>
</a>
</g>
</g>
<!-- Node4 -->
<g id="Node000004" class="node">
<title>Node4</title>
<g id="a_Node000004"><a xlink:href="_tensor_8h.html" target="_top" xlink:title="张量类和相关操作的定义">
<polygon fill="white" stroke="#666666" points="245.75,-129.75 193,-129.75 193,-110.5 245.75,-110.5 245.75,-129.75"/>
<text xml:space="preserve" text-anchor="middle" x="219.38" y="-116.25" font-family="Helvetica,sans-Serif" font-size="10.00">Tensor.h</text>
</a>
</g>
</g>
<!-- Node1&#45;&gt;Node4 -->
<g id="edge22_Node000001_Node000004" class="edge">
<title>Node1&#45;&gt;Node4</title>
<g id="a_edge22_Node000001_Node000004"><a xlink:title=" ">
<path fill="none" stroke="#63b8ff" d="M252.89,-269.1C243.6,-261.53 233.85,-251.63 228.38,-240.25 210.29,-202.69 215.06,-150.67 217.94,-130.06"/>
<polygon fill="#63b8ff" stroke="#63b8ff" points="250.55,-271.71 260.65,-274.94 254.77,-266.13 250.55,-271.71"/>
</a>
</g>
</g>
<!-- Node11 -->
<g id="Node000011" class="node">
<title>Node11</title>
<g id="a_Node000011"><a xlink:href="_ctools_8cpp.html" target="_top" xlink:title="Ctorch 通用工具类实现">
<polygon fill="white" stroke="#666666" points="436,-240.25 372.75,-240.25 372.75,-221 436,-221 436,-240.25"/>
<text xml:space="preserve" text-anchor="middle" x="404.38" y="-226.75" font-family="Helvetica,sans-Serif" font-size="10.00">Ctools.cpp</text>
</a>
</g>
</g>
<!-- Node1&#45;&gt;Node11 -->
<g id="edge14_Node000001_Node000011" class="edge">
<title>Node1&#45;&gt;Node11</title>
<g id="a_edge14_Node000001_Node000011"><a xlink:title=" ">
<path fill="none" stroke="#63b8ff" d="M308.45,-271.53C331.58,-261.91 362.2,-249.17 382.56,-240.7"/>
<polygon fill="#63b8ff" stroke="#63b8ff" points="307.37,-268.19 299.49,-275.26 310.06,-274.65 307.37,-268.19"/>
</a>
</g>
</g>
<!-- Node12 -->
<g id="Node000012" class="node">
<title>Node12</title>
<g id="a_Node000012"><a xlink:href="_ctorch___error_8h.html" target="_top" xlink:title="Ctorch 错误处理类">
<polygon fill="white" stroke="#666666" points="315.88,-240.25 236.88,-240.25 236.88,-221 315.88,-221 315.88,-240.25"/>
<text xml:space="preserve" text-anchor="middle" x="276.38" y="-226.75" font-family="Helvetica,sans-Serif" font-size="10.00">Ctorch_Error.h</text>
</a>
</g>
</g>
<!-- Node1&#45;&gt;Node12 -->
<g id="edge15_Node000001_Node000012" class="edge">
<title>Node1&#45;&gt;Node12</title>
<g id="a_edge15_Node000001_Node000012"><a xlink:title=" ">
<path fill="none" stroke="#63b8ff" d="M276.38,-264.63C276.38,-256.34 276.38,-247.17 276.38,-240.61"/>
<polygon fill="#63b8ff" stroke="#63b8ff" points="272.88,-264.57 276.38,-274.57 279.88,-264.57 272.88,-264.57"/>
</a>
</g>
</g>
<!-- Node13 -->
<g id="Node000013" class="node">
<title>Node13</title>
<g id="a_Node000013"><a xlink:href="_storage_8h.html" target="_top" xlink:title="Ctorch 存储类，用于管理张量数据的底层存储">
<polygon fill="white" stroke="#666666" points="372.38,-185 314.38,-185 314.38,-165.75 372.38,-165.75 372.38,-185"/>
<text xml:space="preserve" text-anchor="middle" x="343.38" y="-171.5" font-family="Helvetica,sans-Serif" font-size="10.00">Storage.h</text>
</a>
</g>
</g>
<!-- Node1&#45;&gt;Node13 -->
<g id="edge21_Node000001_Node000013" class="edge">
<title>Node1&#45;&gt;Node13</title>
<g id="a_edge21_Node000001_Node000013"><a xlink:title=" ">
<path fill="none" stroke="#63b8ff" d="M298.89,-268.91C308.29,-261.21 318.57,-251.26 325.38,-240.25 336.27,-222.61 340.75,-198.2 342.44,-185.26"/>
<polygon fill="#63b8ff" stroke="#63b8ff" points="296.93,-266 291.15,-274.89 301.21,-271.54 296.93,-266"/>
</a>
</g>
</g>
<!-- Node3 -->
<g id="Node000003" class="node">
<title>Node3</title>
<g id="a_Node000003"><a xlink:href="_auto_diff_8cpp.html" target="_top" xlink:title="Ctorch 自动微分系统实现">
<polygon fill="white" stroke="#666666" points="70.75,-74.5 0,-74.5 0,-55.25 70.75,-55.25 70.75,-74.5"/>
<text xml:space="preserve" text-anchor="middle" x="35.38" y="-61" font-family="Helvetica,sans-Serif" font-size="10.00">AutoDiff.cpp</text>
</a>
</g>
</g>
<!-- Node2&#45;&gt;Node3 -->
<g id="edge2_Node000002_Node000003" class="edge">
<title>Node2&#45;&gt;Node3</title>
<g id="a_edge2_Node000002_Node000003"><a xlink:title=" ">
<path fill="none" stroke="#63b8ff" d="M132.85,-157.84C108.22,-134.61 64.23,-93.1 44.92,-74.88"/>
<polygon fill="#63b8ff" stroke="#63b8ff" points="130.19,-160.14 139.86,-164.46 134.99,-155.05 130.19,-160.14"/>
</a>
</g>
</g>
<!-- Node2&#45;&gt;Node4 -->
<g id="edge3_Node000002_Node000004" class="edge">
<title>Node2&#45;&gt;Node4</title>
<g id="a_edge3_Node000002_Node000004"><a xlink:title=" ">
<path fill="none" stroke="#63b8ff" d="M171.02,-158.44C183.07,-149.14 197.82,-137.76 207.84,-130.02"/>
<polygon fill="#63b8ff" stroke="#63b8ff" points="169.06,-155.54 163.28,-164.42 173.33,-161.08 169.06,-155.54"/>
</a>
</g>
</g>
<!-- Node4&#45;&gt;Node3 -->
<g id="edge4_Node000004_Node000003" class="edge">
<title>Node4&#45;&gt;Node3</title>
<g id="a_edge4_Node000004_Node000003"><a xlink:title=" ">
<path fill="none" stroke="#63b8ff" d="M181.76,-108.24C147.87,-98.43 98.62,-84.18 66.79,-74.97"/>
<polygon fill="#63b8ff" stroke="#63b8ff" points="180.59,-111.54 191.17,-110.96 182.53,-104.82 180.59,-111.54"/>
</a>
</g>
</g>
<!-- Node5 -->
<g id="Node000005" class="node">
<title>Node5</title>
<g id="a_Node000005"><a xlink:href="_ctorch___scheduler_8h.html" target="_top" xlink:title="Ctorch 框架的核心调度器类">
<polygon fill="white" stroke="#666666" points="463.12,-74.5 361.62,-74.5 361.62,-55.25 463.12,-55.25 463.12,-74.5"/>
<text xml:space="preserve" text-anchor="middle" x="412.38" y="-61" font-family="Helvetica,sans-Serif" font-size="10.00">Ctorch_Scheduler.h</text>
</a>
</g>
</g>
<!-- Node4&#45;&gt;Node5 -->
<g id="edge5_Node000004_Node000005" class="edge">
<title>Node4&#45;&gt;Node5</title>
<g id="a_edge5_Node000004_Node000005"><a xlink:title=" ">
<path fill="none" stroke="#63b8ff" d="M257.1,-108.72C292.65,-98.91 345.37,-84.36 379.31,-75"/>
<polygon fill="#63b8ff" stroke="#63b8ff" points="256.38,-105.28 247.67,-111.32 258.24,-112.03 256.38,-105.28"/>
</a>
</g>
</g>
<!-- Node6 -->
<g id="Node000006" class="node">
<title>Node6</title>
<g id="a_Node000006"><a xlink:href="_tensor_8cpp.html" target="_top" xlink:title="张量类的实现">
<polygon fill="white" stroke="#666666" points="197,-19.25 133.75,-19.25 133.75,0 197,0 197,-19.25"/>
<text xml:space="preserve" text-anchor="middle" x="165.38" y="-5.75" font-family="Helvetica,sans-Serif" font-size="10.00">Tensor.cpp</text>
</a>
</g>
</g>
<!-- Node4&#45;&gt;Node6 -->
<g id="edge9_Node000004_Node000006" class="edge">
<title>Node4&#45;&gt;Node6</title>
<g id="a_edge9_Node000004_Node000006"><a xlink:title=" ">
<path fill="none" stroke="#63b8ff" d="M181.72,-112.16C160.39,-106.07 135.43,-94.87 122.38,-74.5 109.68,-54.69 134.77,-31.93 151.68,-19.64"/>
<polygon fill="#63b8ff" stroke="#63b8ff" points="180.76,-115.52 191.32,-114.59 182.49,-108.74 180.76,-115.52"/>
</a>
</g>
</g>
<!-- Node7 -->
<g id="Node000007" class="node">
<title>Node7</title>
<g id="a_Node000007"><a xlink:href="large__scale__test_8cpp.html" target="_top" xlink:title="大规模Tensor计算测试和20个节点的自动微分测试">
<polygon fill="white" stroke="#666666" points="377.38,-19.25 271.38,-19.25 271.38,0 377.38,0 377.38,-19.25"/>
<text xml:space="preserve" text-anchor="middle" x="324.38" y="-5.75" font-family="Helvetica,sans-Serif" font-size="10.00">large_scale_test.cpp</text>
</a>
</g>
</g>
<!-- Node4&#45;&gt;Node7 -->
<g id="edge10_Node000004_Node000007" class="edge">
<title>Node4&#45;&gt;Node7</title>
<g id="a_edge10_Node000004_Node000007"><a xlink:title=" ">
<path fill="none" stroke="#63b8ff" d="M188.16,-104.94C165.46,-92.63 141,-73.91 155.38,-55.25 169.54,-36.86 227.14,-24.51 271.2,-17.55"/>
<polygon fill="#63b8ff" stroke="#63b8ff" points="186.48,-108.01 196.98,-109.43 189.66,-101.77 186.48,-108.01"/>
</a>
</g>
</g>
<!-- Node8 -->
<g id="Node000008" class="node">
<title>Node8</title>
<g id="a_Node000008"><a xlink:href="main_8cpp.html" target="_top" xlink:title=" ">
<polygon fill="white" stroke="#666666" points="479.25,-19.25 423.5,-19.25 423.5,0 479.25,0 479.25,-19.25"/>
<text xml:space="preserve" text-anchor="middle" x="451.38" y="-5.75" font-family="Helvetica,sans-Serif" font-size="10.00">main.cpp</text>
</a>
</g>
</g>
<!-- Node4&#45;&gt;Node8 -->
<g id="edge11_Node000004_Node000008" class="edge">
<title>Node4&#45;&gt;Node8</title>
<g id="a_edge11_Node000004_Node000008"><a xlink:title=" ">
<path fill="none" stroke="#63b8ff" d="M257.34,-115.11C324.55,-107.63 458.68,-90.82 472.38,-74.5 486.03,-58.22 469.66,-32.81 459.05,-19.47"/>
<polygon fill="#63b8ff" stroke="#63b8ff" points="257.07,-111.62 247.51,-116.19 257.83,-118.58 257.07,-111.62"/>
</a>
</g>
</g>
<!-- Node9 -->
<g id="Node000009" class="node">
<title>Node9</title>
<g id="a_Node000009"><a xlink:href="performance__test_8cpp.html" target="_top" xlink:title=" ">
<polygon fill="white" stroke="#666666" points="274.62,-74.5 164.12,-74.5 164.12,-55.25 274.62,-55.25 274.62,-74.5"/>
<text xml:space="preserve" text-anchor="middle" x="219.38" y="-61" font-family="Helvetica,sans-Serif" font-size="10.00">performance_test.cpp</text>
</a>
</g>
</g>
<!-- Node4&#45;&gt;Node9 -->
<g id="edge12_Node000004_Node000009" class="edge">
<title>Node4&#45;&gt;Node9</title>
<g id="a_edge12_Node000004_Node000009"><a xlink:title=" ">
<path fill="none" stroke="#63b8ff" d="M219.38,-98.88C219.38,-90.59 219.38,-81.42 219.38,-74.86"/>
<polygon fill="#63b8ff" stroke="#63b8ff" points="215.88,-98.82 219.38,-108.82 222.88,-98.82 215.88,-98.82"/>
</a>
</g>
</g>
<!-- Node10 -->
<g id="Node000010" class="node">
<title>Node10</title>
<g id="a_Node000010"><a xlink:href="test_8cpp.html" target="_top" xlink:title=" ">
<polygon fill="white" stroke="#666666" points="344,-74.5 292.75,-74.5 292.75,-55.25 344,-55.25 344,-74.5"/>
<text xml:space="preserve" text-anchor="middle" x="318.38" y="-61" font-family="Helvetica,sans-Serif" font-size="10.00">test.cpp</text>
</a>
</g>
</g>
<!-- Node4&#45;&gt;Node10 -->
<g id="edge13_Node000004_Node000010" class="edge">
<title>Node4&#45;&gt;Node10</title>
<g id="a_edge13_Node000004_Node000010"><a xlink:title=" ">
<path fill="none" stroke="#63b8ff" d="M245.9,-104.86C263.57,-95.36 286.25,-83.15 301.5,-74.95"/>
<polygon fill="#63b8ff" stroke="#63b8ff" points="244.65,-101.56 237.5,-109.37 247.97,-107.72 244.65,-101.56"/>
</a>
</g>
</g>
<!-- Node5&#45;&gt;Node6 -->
<g id="edge6_Node000005_Node000006" class="edge">
<title>Node5&#45;&gt;Node6</title>
<g id="a_edge6_Node000005_Node000006"><a xlink:title=" ">
<path fill="none" stroke="#63b8ff" d="M359.1,-52.39C309.79,-41.76 238.09,-26.3 197.17,-17.48"/>
<polygon fill="#63b8ff" stroke="#63b8ff" points="358.2,-55.78 368.72,-54.46 359.68,-48.93 358.2,-55.78"/>
</a>
</g>
</g>
<!-- Node5&#45;&gt;Node7 -->
<g id="edge7_Node000005_Node000007" class="edge">
<title>Node5&#45;&gt;Node7</title>
<g id="a_edge7_Node000005_Node000007"><a xlink:title=" ">
<path fill="none" stroke="#63b8ff" d="M387.91,-49.07C372.34,-39.65 352.67,-27.75 339.38,-19.7"/>
<polygon fill="#63b8ff" stroke="#63b8ff" points="385.78,-51.88 396.15,-54.06 389.41,-45.89 385.78,-51.88"/>
</a>
</g>
</g>
<!-- Node5&#45;&gt;Node8 -->
<g id="edge8_Node000005_Node000008" class="edge">
<title>Node5&#45;&gt;Node8</title>
<g id="a_edge8_Node000005_Node000008"><a xlink:title=" ">
<path fill="none" stroke="#63b8ff" d="M425.51,-45.94C432,-37.09 439.54,-26.79 444.8,-19.61"/>
<polygon fill="#63b8ff" stroke="#63b8ff" points="422.79,-43.73 419.71,-53.86 428.44,-47.86 422.79,-43.73"/>
</a>
</g>
</g>
<!-- Node12&#45;&gt;Node4 -->
<g id="edge20_Node000012_Node000004" class="edge">
<title>Node12&#45;&gt;Node4</title>
<g id="a_edge20_Node000012_Node000004"><a xlink:title=" ">
<path fill="none" stroke="#63b8ff" d="M266.37,-210.58C253.97,-186.97 233.34,-147.71 224.1,-130.13"/>
<polygon fill="#63b8ff" stroke="#63b8ff" points="263.26,-212.18 271.01,-219.41 269.45,-208.93 263.26,-212.18"/>
</a>
</g>
</g>
<!-- Node12&#45;&gt;Node5 -->
<g id="edge16_Node000012_Node000005" class="edge">
<title>Node12&#45;&gt;Node5</title>
<g id="a_edge16_Node000012_Node000005"><a xlink:title=" ">
<path fill="none" stroke="#63b8ff" d="M275.57,-209.3C275.64,-183.4 279.58,-138.61 303.38,-110.5 318.77,-92.32 342.72,-81.44 364.26,-74.99"/>
<polygon fill="#63b8ff" stroke="#63b8ff" points="272.07,-209.2 275.76,-219.13 279.07,-209.07 272.07,-209.2"/>
</a>
</g>
</g>
<!-- Node12&#45;&gt;Node13 -->
<g id="edge17_Node000012_Node000013" class="edge">
<title>Node12&#45;&gt;Node13</title>
<g id="a_edge17_Node000012_Node000013"><a xlink:title=" ">
<path fill="none" stroke="#63b8ff" d="M296.42,-213.69C308.12,-204.39 322.45,-193.01 332.18,-185.27"/>
<polygon fill="#63b8ff" stroke="#63b8ff" points="294.58,-210.69 288.93,-219.65 298.93,-216.17 294.58,-210.69"/>
</a>
</g>
</g>
<!-- Node13&#45;&gt;Node4 -->
<g id="edge19_Node000013_Node000004" class="edge">
<title>Node13&#45;&gt;Node4</title>
<g id="a_edge19_Node000013_Node000004"><a xlink:title=" ">
<path fill="none" stroke="#63b8ff" d="M312,-160.9C289.63,-151.29 260.14,-138.63 240.51,-130.2"/>
<polygon fill="#63b8ff" stroke="#63b8ff" points="310.38,-164.01 320.95,-164.74 313.14,-157.58 310.38,-164.01"/>
</a>
</g>
</g>
<!-- Node14 -->
<g id="Node000014" class="node">
<title>Node14</title>
<g id="a_Node000014"><a xlink:href="_storage_8cpp.html" target="_top" xlink:title="Ctorch 存储类实现">
<polygon fill="white" stroke="#666666" points="380.62,-129.75 312.12,-129.75 312.12,-110.5 380.62,-110.5 380.62,-129.75"/>
<text xml:space="preserve" text-anchor="middle" x="346.38" y="-116.25" font-family="Helvetica,sans-Serif" font-size="10.00">Storage.cpp</text>
</a>
</g>
</g>
<!-- Node13&#45;&gt;Node14 -->
<g id="edge18_Node000013_Node000014" class="edge">
<title>Node13&#45;&gt;Node14</title>
<g id="a_edge18_Node000013_Node000014"><a xlink:title=" ">
<path fill="none" stroke="#63b8ff" d="M344.52,-154.13C344.98,-145.84 345.5,-136.67 345.87,-130.11"/>
<polygon fill="#63b8ff" stroke="#63b8ff" points="341.02,-153.89 343.96,-164.07 348.01,-154.28 341.02,-153.89"/>
</a>
</g>
</g>
</g>
</svg>
