<?xml version="1.0" encoding="UTF-8" standalone="no"?>
<!DOCTYPE svg PUBLIC "-//W3C//DTD SVG 1.1//EN"
 "http://www.w3.org/Graphics/SVG/1.1/DTD/svg11.dtd">
<!-- Generated by graphviz version 14.1.1 (20251213.1925)
 -->
<!-- Title: /Users/ghostface/CLionProjects/Ctorch_2.13/CTorch/src/dev/Ctorch_Scheduler.h Pages: 1 -->
<svg width="1433pt" height="326pt"
 viewBox="0.00 0.00 1433.00 326.00" xmlns="http://www.w3.org/2000/svg" xmlns:xlink="http://www.w3.org/1999/xlink">
<g id="graph0" class="graph" transform="scale(1 1) rotate(0) translate(4 322)">
<title>/Users/ghostface/CLionProjects/Ctorch_2.13/CTorch/src/dev/Ctorch_Scheduler.h</title>
<!-- Node1 -->
<g id="Node000001" class="node">
<title>Node1</title>
<g id="a_Node000001"><a xlink:title="Ctorch 框架的核心调度器类">
<polygon fill="#999999" stroke="#666666" points="886.38,-318 730.88,-318 730.88,-276.25 886.38,-276.25 886.38,-318"/>
<text xml:space="preserve" text-anchor="start" x="738.88" y="-304.5" font-family="Helvetica,sans-Serif" font-size="10.00">/Users/ghostface/CLionProjects</text>
<text xml:space="preserve" text-anchor="start" x="738.88" y="-293.25" font-family="Helvetica,sans-Serif" font-size="10.00">/Ctorch_2.13/CTorch/src/dev</text>
<text xml:space="preserve" text-anchor="middle" x="808.62" y="-282" font-family="Helvetica,sans-Serif" font-size="10.00">/Ctorch_Scheduler.h</text>
</a>
</g>
</g>
<!-- Node2 -->
<g id="Node000002" class="node">
<title>Node2</title>
<g id="a_Node000002"><a xlink:href="_ctorch___error_8h.html" target="_top" xlink:title="Ctorch 错误处理类">
<polygon fill="white" stroke="#666666" points="332.12,-129.75 253.12,-129.75 253.12,-110.5 332.12,-110.5 332.12,-129.75"/>
<text xml:space="preserve" text-anchor="middle" x="292.62" y="-116.25" font-family="Helvetica,sans-Serif" font-size="10.00">Ctorch_Error.h</text>
</a>
</g>
</g>
<!-- Node1&#45;&gt;Node2 -->
<g id="edge1_Node000001_Node000002" class="edge">
<title>Node1&#45;&gt;Node2</title>
<g id="a_edge1_Node000001_Node000002"><a xlink:title=" ">
<path fill="none" stroke="#63b8ff" d="M730.4,-287.09C608.63,-271.62 381.28,-236.63 319.62,-185 306.49,-174 299.61,-155.49 296.1,-141.22"/>
<polygon fill="#63b8ff" stroke="#63b8ff" points="299.55,-140.64 294.11,-131.55 292.7,-142.05 299.55,-140.64"/>
</a>
</g>
</g>
<!-- Node18 -->
<g id="Node000018" class="node">
<title>Node18</title>
<g id="a_Node000018"><a xlink:href="_tensor_8h.html" target="_top" xlink:title="张量类和相关操作的定义">
<polygon fill="white" stroke="#666666" points="835,-240.25 782.25,-240.25 782.25,-221 835,-221 835,-240.25"/>
<text xml:space="preserve" text-anchor="middle" x="808.62" y="-226.75" font-family="Helvetica,sans-Serif" font-size="10.00">Tensor.h</text>
</a>
</g>
</g>
<!-- Node1&#45;&gt;Node18 -->
<g id="edge28_Node000001_Node000018" class="edge">
<title>Node1&#45;&gt;Node18</title>
<g id="a_edge28_Node000001_Node000018"><a xlink:title=" ">
<path fill="none" stroke="#63b8ff" d="M808.62,-276.07C808.62,-268.4 808.62,-259.64 808.62,-251.95"/>
<polygon fill="#63b8ff" stroke="#63b8ff" points="812.13,-252.21 808.63,-242.21 805.13,-252.21 812.13,-252.21"/>
</a>
</g>
</g>
<!-- Node32 -->
<g id="Node000032" class="node">
<title>Node32</title>
<g id="a_Node000032"><a xlink:title=" ">
<polygon fill="#e0e0e0" stroke="#999999" points="943.75,-240.25 853.5,-240.25 853.5,-221 943.75,-221 943.75,-240.25"/>
<text xml:space="preserve" text-anchor="middle" x="898.62" y="-226.75" font-family="Helvetica,sans-Serif" font-size="10.00">kernels/kernels.h</text>
</a>
</g>
</g>
<!-- Node1&#45;&gt;Node32 -->
<g id="edge59_Node000001_Node000032" class="edge">
<title>Node1&#45;&gt;Node32</title>
<g id="a_edge59_Node000001_Node000032"><a xlink:title=" ">
<path fill="none" stroke="#63b8ff" d="M836.61,-276.07C849.51,-266.83 864.6,-256.01 876.66,-247.37"/>
<polygon fill="#63b8ff" stroke="#63b8ff" points="878.65,-250.25 884.74,-241.58 874.57,-244.56 878.65,-250.25"/>
</a>
</g>
</g>
<!-- Node3 -->
<g id="Node000003" class="node">
<title>Node3</title>
<g id="a_Node000003"><a xlink:title=" ">
<polygon fill="#e0e0e0" stroke="#999999" points="45.25,-19.25 0,-19.25 0,0 45.25,0 45.25,-19.25"/>
<text xml:space="preserve" text-anchor="middle" x="22.62" y="-5.75" font-family="Helvetica,sans-Serif" font-size="10.00">cstring</text>
</a>
</g>
</g>
<!-- Node2&#45;&gt;Node3 -->
<g id="edge2_Node000002_Node000003" class="edge">
<title>Node2&#45;&gt;Node3</title>
<g id="a_edge2_Node000002_Node000003"><a xlink:title=" ">
<path fill="none" stroke="#63b8ff" d="M261.16,-110.05C233.33,-101.73 191.8,-88.59 156.62,-74.5 118.78,-59.34 76.53,-38.52 49.78,-24.83"/>
<polygon fill="#63b8ff" stroke="#63b8ff" points="51.49,-21.78 41,-20.3 48.29,-28 51.49,-21.78"/>
</a>
</g>
</g>
<!-- Node4 -->
<g id="Node000004" class="node">
<title>Node4</title>
<g id="a_Node000004"><a xlink:title=" ">
<polygon fill="#e0e0e0" stroke="#999999" points="108.25,-19.25 63,-19.25 63,0 108.25,0 108.25,-19.25"/>
<text xml:space="preserve" text-anchor="middle" x="85.62" y="-5.75" font-family="Helvetica,sans-Serif" font-size="10.00">chrono</text>
</a>
</g>
</g>
<!-- Node2&#45;&gt;Node4 -->
<g id="edge3_Node000002_Node000004" class="edge">
<title>Node2&#45;&gt;Node4</title>
<g id="a_edge3_Node000002_Node000004"><a xlink:title=" ">
<path fill="none" stroke="#63b8ff" d="M270.67,-110.05C250.38,-101.48 219.56,-87.96 193.62,-74.5 163.88,-59.06 130.89,-39.11 109.29,-25.65"/>
<polygon fill="#63b8ff" stroke="#63b8ff" points="111.28,-22.77 100.95,-20.41 107.56,-28.69 111.28,-22.77"/>
</a>
</g>
</g>
<!-- Node5 -->
<g id="Node000005" class="node">
<title>Node5</title>
<g id="a_Node000005"><a xlink:title=" ">
<polygon fill="#e0e0e0" stroke="#999999" points="171.25,-19.25 126,-19.25 126,0 171.25,0 171.25,-19.25"/>
<text xml:space="preserve" text-anchor="middle" x="148.62" y="-5.75" font-family="Helvetica,sans-Serif" font-size="10.00">cstdint</text>
</a>
</g>
</g>
<!-- Node2&#45;&gt;Node5 -->
<g id="edge4_Node000002_Node000005" class="edge">
<title>Node2&#45;&gt;Node5</title>
<g id="a_edge4_Node000002_Node000005"><a xlink:title=" ">
<path fill="none" stroke="#63b8ff" d="M276.38,-110.13C261.44,-101.6 238.9,-88.12 220.62,-74.5 200.84,-59.76 179.92,-40.77 165.77,-27.34"/>
<polygon fill="#63b8ff" stroke="#63b8ff" points="168.24,-24.87 158.61,-20.47 163.4,-29.92 168.24,-24.87"/>
</a>
</g>
</g>
<!-- Node6 -->
<g id="Node000006" class="node">
<title>Node6</title>
<g id="a_Node000006"><a xlink:title=" ">
<polygon fill="#e0e0e0" stroke="#999999" points="229.62,-19.25 189.62,-19.25 189.62,0 229.62,0 229.62,-19.25"/>
<text xml:space="preserve" text-anchor="middle" x="209.62" y="-5.75" font-family="Helvetica,sans-Serif" font-size="10.00">ctime</text>
</a>
</g>
</g>
<!-- Node2&#45;&gt;Node6 -->
<g id="edge5_Node000002_Node000006" class="edge">
<title>Node2&#45;&gt;Node6</title>
<g id="a_edge5_Node000002_Node000006"><a xlink:title=" ">
<path fill="none" stroke="#63b8ff" d="M276.39,-110.03C263.54,-102.1 245.91,-89.54 234.62,-74.5 224.77,-61.38 218.28,-43.87 214.39,-30.51"/>
<polygon fill="#63b8ff" stroke="#63b8ff" points="217.84,-29.88 211.91,-21.1 211.08,-31.66 217.84,-29.88"/>
</a>
</g>
</g>
<!-- Node7 -->
<g id="Node000007" class="node">
<title>Node7</title>
<g id="a_Node000007"><a xlink:title=" ">
<polygon fill="#e0e0e0" stroke="#999999" points="559.62,-19.25 519.62,-19.25 519.62,0 559.62,0 559.62,-19.25"/>
<text xml:space="preserve" text-anchor="middle" x="539.62" y="-5.75" font-family="Helvetica,sans-Serif" font-size="10.00">string</text>
</a>
</g>
</g>
<!-- Node2&#45;&gt;Node7 -->
<g id="edge6_Node000002_Node000007" class="edge">
<title>Node2&#45;&gt;Node7</title>
<g id="a_edge6_Node000002_Node000007"><a xlink:title=" ">
<path fill="none" stroke="#63b8ff" d="M304.9,-110.18C326.48,-94.57 370.53,-63.26 387.62,-55.25 436.08,-32.54 453.83,-34.95 508.33,-19.82"/>
<polygon fill="#63b8ff" stroke="#63b8ff" points="509.24,-23.2 517.89,-17.09 507.31,-16.47 509.24,-23.2"/>
</a>
</g>
</g>
<!-- Node8 -->
<g id="Node000008" class="node">
<title>Node8</title>
<g id="a_Node000008"><a xlink:title=" ">
<polygon fill="#e0e0e0" stroke="#999999" points="690.25,-19.25 639,-19.25 639,0 690.25,0 690.25,-19.25"/>
<text xml:space="preserve" text-anchor="middle" x="664.62" y="-5.75" font-family="Helvetica,sans-Serif" font-size="10.00">sstream</text>
</a>
</g>
</g>
<!-- Node2&#45;&gt;Node8 -->
<g id="edge7_Node000002_Node000008" class="edge">
<title>Node2&#45;&gt;Node8</title>
<g id="a_edge7_Node000002_Node000008"><a xlink:title=" ">
<path fill="none" stroke="#63b8ff" d="M332.35,-112.16C373.59,-104.52 439.76,-91.1 495.62,-74.5 544.52,-59.97 599.49,-38.13 633.09,-24.12"/>
<polygon fill="#63b8ff" stroke="#63b8ff" points="634.36,-27.38 642.23,-20.28 631.65,-20.93 634.36,-27.38"/>
</a>
</g>
</g>
<!-- Node9 -->
<g id="Node000009" class="node">
<title>Node9</title>
<g id="a_Node000009"><a xlink:title=" ">
<polygon fill="#e0e0e0" stroke="#999999" points="501.5,-19.25 451.75,-19.25 451.75,0 501.5,0 501.5,-19.25"/>
<text xml:space="preserve" text-anchor="middle" x="476.62" y="-5.75" font-family="Helvetica,sans-Serif" font-size="10.00">iomanip</text>
</a>
</g>
</g>
<!-- Node2&#45;&gt;Node9 -->
<g id="edge8_Node000002_Node000009" class="edge">
<title>Node2&#45;&gt;Node9</title>
<g id="a_edge8_Node000002_Node000009"><a xlink:title=" ">
<path fill="none" stroke="#63b8ff" d="M299.26,-110.04C309.65,-96.38 331.03,-70.56 354.62,-55.25 369.16,-45.82 410.19,-31.64 440.68,-21.8"/>
<polygon fill="#63b8ff" stroke="#63b8ff" points="441.46,-25.23 449.92,-18.85 439.33,-18.56 441.46,-25.23"/>
</a>
</g>
</g>
<!-- Node10 -->
<g id="Node000010" class="node">
<title>Node10</title>
<g id="a_Node000010"><a xlink:title=" ">
<polygon fill="#e0e0e0" stroke="#999999" points="295.75,-19.25 247.5,-19.25 247.5,0 295.75,0 295.75,-19.25"/>
<text xml:space="preserve" text-anchor="middle" x="271.62" y="-5.75" font-family="Helvetica,sans-Serif" font-size="10.00">stdint.h</text>
</a>
</g>
</g>
<!-- Node2&#45;&gt;Node10 -->
<g id="edge9_Node000002_Node000010" class="edge">
<title>Node2&#45;&gt;Node10</title>
<g id="a_edge9_Node000002_Node000010"><a xlink:title=" ">
<path fill="none" stroke="#63b8ff" d="M275.84,-110.07C263.55,-102.41 247.83,-90.17 240.62,-74.5 233.34,-58.64 243.6,-40.78 254.23,-27.98"/>
<polygon fill="#63b8ff" stroke="#63b8ff" points="256.63,-30.54 260.76,-20.79 251.45,-25.83 256.63,-30.54"/>
</a>
</g>
</g>
<!-- Node11 -->
<g id="Node000011" class="node">
<title>Node11</title>
<g id="a_Node000011"><a xlink:title=" ">
<polygon fill="#e0e0e0" stroke="#999999" points="373,-19.25 314.25,-19.25 314.25,0 373,0 373,-19.25"/>
<text xml:space="preserve" text-anchor="middle" x="343.62" y="-5.75" font-family="Helvetica,sans-Serif" font-size="10.00">inttypes.h</text>
</a>
</g>
</g>
<!-- Node2&#45;&gt;Node11 -->
<g id="edge10_Node000002_Node000011" class="edge">
<title>Node2&#45;&gt;Node11</title>
<g id="a_edge10_Node000002_Node000011"><a xlink:title=" ">
<path fill="none" stroke="#63b8ff" d="M287.14,-110.36C279.89,-97.57 269.11,-73.33 278.62,-55.25 285.5,-42.19 298.11,-32.22 310.41,-25.05"/>
<polygon fill="#63b8ff" stroke="#63b8ff" points="312,-28.16 319.2,-20.38 308.72,-21.98 312,-28.16"/>
</a>
</g>
</g>
<!-- Node12 -->
<g id="Node000012" class="node">
<title>Node12</title>
<g id="a_Node000012"><a xlink:title=" ">
<polygon fill="#e0e0e0" stroke="#999999" points="621.12,-19.25 578.12,-19.25 578.12,0 621.12,0 621.12,-19.25"/>
<text xml:space="preserve" text-anchor="middle" x="599.62" y="-5.75" font-family="Helvetica,sans-Serif" font-size="10.00">mutex</text>
</a>
</g>
</g>
<!-- Node2&#45;&gt;Node12 -->
<g id="edge11_Node000002_Node000012" class="edge">
<title>Node2&#45;&gt;Node12</title>
<g id="a_edge11_Node000002_Node000012"><a xlink:title=" ">
<path fill="none" stroke="#63b8ff" d="M332.51,-110.22C366.27,-102.23 415.71,-89.49 457.62,-74.5 498.3,-59.96 543.52,-38.68 571.76,-24.75"/>
<polygon fill="#63b8ff" stroke="#63b8ff" points="573.32,-27.88 580.71,-20.29 570.2,-21.62 573.32,-27.88"/>
</a>
</g>
</g>
<!-- Node13 -->
<g id="Node000013" class="node">
<title>Node13</title>
<g id="a_Node000013"><a xlink:title=" ">
<polygon fill="#e0e0e0" stroke="#999999" points="434.12,-19.25 391.12,-19.25 391.12,0 434.12,0 434.12,-19.25"/>
<text xml:space="preserve" text-anchor="middle" x="412.62" y="-5.75" font-family="Helvetica,sans-Serif" font-size="10.00">thread</text>
</a>
</g>
</g>
<!-- Node2&#45;&gt;Node13 -->
<g id="edge12_Node000002_Node000013" class="edge">
<title>Node2&#45;&gt;Node13</title>
<g id="a_edge12_Node000002_Node000013"><a xlink:title=" ">
<path fill="none" stroke="#63b8ff" d="M293.81,-110.16C296.02,-96.68 301.97,-71.06 316.62,-55.25 325.84,-45.31 356.27,-32.02 380.44,-22.54"/>
<polygon fill="#63b8ff" stroke="#63b8ff" points="381.51,-25.87 389.59,-19.01 379,-19.34 381.51,-25.87"/>
</a>
</g>
</g>
<!-- Node14 -->
<g id="Node000014" class="node">
<title>Node14</title>
<g id="a_Node000014"><a xlink:href="_ctools_8h.html" target="_top" xlink:title="Ctorch 通用工具类，包含通用枚举类型和辅助函数">
<polygon fill="white" stroke="#666666" points="449,-74.5 396.25,-74.5 396.25,-55.25 449,-55.25 449,-74.5"/>
<text xml:space="preserve" text-anchor="middle" x="422.62" y="-61" font-family="Helvetica,sans-Serif" font-size="10.00">Ctools.h</text>
</a>
</g>
</g>
<!-- Node2&#45;&gt;Node14 -->
<g id="edge13_Node000002_Node000014" class="edge">
<title>Node2&#45;&gt;Node14</title>
<g id="a_edge13_Node000002_Node000014"><a xlink:title=" ">
<path fill="none" stroke="#63b8ff" d="M314.68,-110.09C335.31,-101.64 366.41,-88.9 389.93,-79.27"/>
<polygon fill="#63b8ff" stroke="#63b8ff" points="391.14,-82.56 399.06,-75.53 388.48,-76.08 391.14,-82.56"/>
</a>
</g>
</g>
<!-- Node14&#45;&gt;Node3 -->
<g id="edge14_Node000014_Node000003" class="edge">
<title>Node14&#45;&gt;Node3</title>
<g id="a_edge14_Node000014_Node000003"><a xlink:title=" ">
<path fill="none" stroke="#63b8ff" d="M396.01,-62.04C336.67,-57.66 188.91,-45.14 56.67,-19.61"/>
<polygon fill="#63b8ff" stroke="#63b8ff" points="57.53,-16.21 47.04,-17.71 56.18,-23.08 57.53,-16.21"/>
</a>
</g>
</g>
<!-- Node14&#45;&gt;Node4 -->
<g id="edge15_Node000014_Node000004" class="edge">
<title>Node14&#45;&gt;Node4</title>
<g id="a_edge15_Node000014_Node000004"><a xlink:title=" ">
<path fill="none" stroke="#63b8ff" d="M395.82,-61.12C344.13,-55.57 226.92,-41.78 119.59,-19.66"/>
<polygon fill="#63b8ff" stroke="#63b8ff" points="120.55,-16.29 110.05,-17.67 119.12,-23.14 120.55,-16.29"/>
</a>
</g>
</g>
<!-- Node14&#45;&gt;Node5 -->
<g id="edge16_Node000014_Node000005" class="edge">
<title>Node14&#45;&gt;Node5</title>
<g id="a_edge16_Node000014_Node000005"><a xlink:title=" ">
<path fill="none" stroke="#63b8ff" d="M395.98,-59.69C353.18,-52.8 266.23,-38.18 182.85,-19.6"/>
<polygon fill="#63b8ff" stroke="#63b8ff" points="183.64,-16.19 173.12,-17.4 182.1,-23.02 183.64,-16.19"/>
</a>
</g>
</g>
<!-- Node14&#45;&gt;Node6 -->
<g id="edge17_Node000014_Node000006" class="edge">
<title>Node14&#45;&gt;Node6</title>
<g id="a_edge17_Node000014_Node000006"><a xlink:title=" ">
<path fill="none" stroke="#63b8ff" d="M396.01,-57.87C362.16,-50.14 301.68,-36 240.83,-19.74"/>
<polygon fill="#63b8ff" stroke="#63b8ff" points="241.9,-16.4 231.33,-17.18 240.08,-23.16 241.9,-16.4"/>
</a>
</g>
</g>
<!-- Node14&#45;&gt;Node7 -->
<g id="edge18_Node000014_Node000007" class="edge">
<title>Node14&#45;&gt;Node7</title>
<g id="a_edge18_Node000014_Node000007"><a xlink:title=" ">
<path fill="none" stroke="#63b8ff" d="M442.47,-54.84C460.79,-46.5 488.27,-34 509.33,-24.41"/>
<polygon fill="#63b8ff" stroke="#63b8ff" points="510.65,-27.66 518.3,-20.33 507.75,-21.29 510.65,-27.66"/>
</a>
</g>
</g>
<!-- Node14&#45;&gt;Node8 -->
<g id="edge19_Node000014_Node000008" class="edge">
<title>Node14&#45;&gt;Node8</title>
<g id="a_edge19_Node000014_Node000008"><a xlink:title=" ">
<path fill="none" stroke="#63b8ff" d="M449.29,-58.48C486.92,-50.81 558.01,-36.04 627.52,-19.92"/>
<polygon fill="#63b8ff" stroke="#63b8ff" points="628.24,-23.34 637.19,-17.66 626.65,-16.52 628.24,-23.34"/>
</a>
</g>
</g>
<!-- Node14&#45;&gt;Node9 -->
<g id="edge20_Node000014_Node000009" class="edge">
<title>Node14&#45;&gt;Node9</title>
<g id="a_edge20_Node000014_Node000009"><a xlink:title=" ">
<path fill="none" stroke="#63b8ff" d="M431.54,-55.08C439.08,-47.65 450.09,-36.79 459.35,-27.66"/>
<polygon fill="#63b8ff" stroke="#63b8ff" points="461.77,-30.19 466.44,-20.67 456.86,-25.2 461.77,-30.19"/>
</a>
</g>
</g>
<!-- Node14&#45;&gt;Node10 -->
<g id="edge21_Node000014_Node000010" class="edge">
<title>Node14&#45;&gt;Node10</title>
<g id="a_edge21_Node000014_Node000010"><a xlink:title=" ">
<path fill="none" stroke="#63b8ff" d="M397.01,-54.84C372.24,-46.11 334.49,-32.79 306.88,-23.06"/>
<polygon fill="#63b8ff" stroke="#63b8ff" points="308.13,-19.79 297.54,-19.76 305.81,-26.39 308.13,-19.79"/>
</a>
</g>
</g>
<!-- Node14&#45;&gt;Node11 -->
<g id="edge22_Node000014_Node000011" class="edge">
<title>Node14&#45;&gt;Node11</title>
<g id="a_edge22_Node000014_Node000011"><a xlink:title=" ">
<path fill="none" stroke="#63b8ff" d="M409.22,-54.84C397.53,-46.96 380.32,-35.36 366.46,-26.02"/>
<polygon fill="#63b8ff" stroke="#63b8ff" points="368.6,-23.24 358.35,-20.55 364.68,-29.04 368.6,-23.24"/>
</a>
</g>
</g>
<!-- Node14&#45;&gt;Node12 -->
<g id="edge23_Node000014_Node000012" class="edge">
<title>Node14&#45;&gt;Node12</title>
<g id="a_edge23_Node000014_Node000012"><a xlink:title=" ">
<path fill="none" stroke="#63b8ff" d="M449.12,-55.9C480.58,-46.44 533.02,-30.66 566.96,-20.45"/>
<polygon fill="#63b8ff" stroke="#63b8ff" points="567.68,-23.89 576.25,-17.66 565.67,-17.19 567.68,-23.89"/>
</a>
</g>
</g>
<!-- Node14&#45;&gt;Node13 -->
<g id="edge24_Node000014_Node000013" class="edge">
<title>Node14&#45;&gt;Node13</title>
<g id="a_edge24_Node000014_Node000013"><a xlink:title=" ">
<path fill="none" stroke="#63b8ff" d="M420.97,-55.08C419.74,-48.49 417.99,-39.21 416.42,-30.82"/>
<polygon fill="#63b8ff" stroke="#63b8ff" points="419.88,-30.28 414.59,-21.1 413,-31.57 419.88,-30.28"/>
</a>
</g>
</g>
<!-- Node15 -->
<g id="Node000015" class="node">
<title>Node15</title>
<g id="a_Node000015"><a xlink:title=" ">
<polygon fill="#e0e0e0" stroke="#999999" points="788.12,-19.25 745.12,-19.25 745.12,0 788.12,0 788.12,-19.25"/>
<text xml:space="preserve" text-anchor="middle" x="766.62" y="-5.75" font-family="Helvetica,sans-Serif" font-size="10.00">vector</text>
</a>
</g>
</g>
<!-- Node14&#45;&gt;Node15 -->
<g id="edge25_Node000014_Node000015" class="edge">
<title>Node14&#45;&gt;Node15</title>
<g id="a_edge25_Node000014_Node000015"><a xlink:title=" ">
<path fill="none" stroke="#63b8ff" d="M449.33,-59.74C511.43,-50.13 665.41,-26.29 733.42,-15.76"/>
<polygon fill="#63b8ff" stroke="#63b8ff" points="733.86,-19.24 743.21,-14.25 732.79,-12.32 733.86,-19.24"/>
</a>
</g>
</g>
<!-- Node16 -->
<g id="Node000016" class="node">
<title>Node16</title>
<g id="a_Node000016"><a xlink:title=" ">
<polygon fill="#e0e0e0" stroke="#999999" points="928.25,-19.25 877,-19.25 877,0 928.25,0 928.25,-19.25"/>
<text xml:space="preserve" text-anchor="middle" x="902.62" y="-5.75" font-family="Helvetica,sans-Serif" font-size="10.00">memory</text>
</a>
</g>
</g>
<!-- Node14&#45;&gt;Node16 -->
<g id="edge26_Node000014_Node000016" class="edge">
<title>Node14&#45;&gt;Node16</title>
<g id="a_edge26_Node000014_Node000016"><a xlink:title=" ">
<path fill="none" stroke="#63b8ff" d="M449.46,-62.58C517.53,-59.02 702.56,-47.48 865.53,-19.57"/>
<polygon fill="#63b8ff" stroke="#63b8ff" points="865.98,-23.04 875.23,-17.88 864.78,-16.15 865.98,-23.04"/>
</a>
</g>
</g>
<!-- Node17 -->
<g id="Node000017" class="node">
<title>Node17</title>
<g id="a_Node000017"><a xlink:title=" ">
<polygon fill="#e0e0e0" stroke="#999999" points="859.38,-19.25 805.88,-19.25 805.88,0 859.38,0 859.38,-19.25"/>
<text xml:space="preserve" text-anchor="middle" x="832.62" y="-5.75" font-family="Helvetica,sans-Serif" font-size="10.00">iostream</text>
</a>
</g>
</g>
<!-- Node14&#45;&gt;Node17 -->
<g id="edge27_Node000014_Node000017" class="edge">
<title>Node14&#45;&gt;Node17</title>
<g id="a_edge27_Node000014_Node000017"><a xlink:title=" ">
<path fill="none" stroke="#63b8ff" d="M449.16,-61.85C509.05,-57.03 659.44,-43.61 794.23,-19.69"/>
<polygon fill="#63b8ff" stroke="#63b8ff" points="794.85,-23.13 804.07,-17.91 793.61,-16.24 794.85,-23.13"/>
</a>
</g>
</g>
<!-- Node18&#45;&gt;Node2 -->
<g id="edge32_Node000018_Node000002" class="edge">
<title>Node18&#45;&gt;Node2</title>
<g id="a_edge32_Node000018_Node000002"><a xlink:title=" ">
<path fill="none" stroke="#63b8ff" d="M781.87,-229.65C695.16,-229.32 423.09,-225.06 346.62,-185 327.37,-174.91 312.17,-154.79 302.87,-139.81"/>
<polygon fill="#63b8ff" stroke="#63b8ff" points="305.99,-138.21 297.93,-131.34 299.94,-141.74 305.99,-138.21"/>
</a>
</g>
</g>
<!-- Node18&#45;&gt;Node3 -->
<g id="edge44_Node000018_Node000003" class="edge">
<title>Node18&#45;&gt;Node3</title>
<g id="a_edge44_Node000018_Node000003"><a xlink:title=" ">
<path fill="none" stroke="#63b8ff" d="M781.77,-228.57C692.67,-224.86 407.45,-211.18 319.62,-185 204.58,-150.71 87.31,-62.95 42.07,-26.68"/>
<polygon fill="#63b8ff" stroke="#63b8ff" points="44.45,-24.11 34.48,-20.53 40.04,-29.54 44.45,-24.11"/>
</a>
</g>
</g>
<!-- Node18&#45;&gt;Node7 -->
<g id="edge46_Node000018_Node000007" class="edge">
<title>Node18&#45;&gt;Node7</title>
<g id="a_edge46_Node000018_Node000007"><a xlink:title=" ">
<path fill="none" stroke="#63b8ff" d="M781.84,-222.59C758.26,-215.56 723.7,-203.16 697.62,-185 632.92,-139.93 575.96,-63.68 551.86,-28.9"/>
<polygon fill="#63b8ff" stroke="#63b8ff" points="554.84,-27.06 546.31,-20.77 549.05,-31.01 554.84,-27.06"/>
</a>
</g>
</g>
<!-- Node18&#45;&gt;Node8 -->
<g id="edge42_Node000018_Node000008" class="edge">
<title>Node18&#45;&gt;Node8</title>
<g id="a_edge42_Node000018_Node000008"><a xlink:title=" ">
<path fill="none" stroke="#63b8ff" d="M781.84,-221.25C762.26,-214.08 736.02,-202.17 717.62,-185 673.54,-143.85 665.72,-67.32 664.6,-30.9"/>
<polygon fill="#63b8ff" stroke="#63b8ff" points="668.1,-30.9 664.46,-20.95 661.1,-31 668.1,-30.9"/>
</a>
</g>
</g>
<!-- Node18&#45;&gt;Node9 -->
<g id="edge45_Node000018_Node000009" class="edge">
<title>Node18&#45;&gt;Node9</title>
<g id="a_edge45_Node000018_Node000009"><a xlink:title=" ">
<path fill="none" stroke="#63b8ff" d="M781.83,-224.46C752.98,-218.13 706.41,-205.61 670.62,-185 594.22,-141 521.82,-63.07 491.53,-28.27"/>
<polygon fill="#63b8ff" stroke="#63b8ff" points="494.29,-26.11 485.12,-20.81 488.98,-30.67 494.29,-26.11"/>
</a>
</g>
</g>
<!-- Node18&#45;&gt;Node14 -->
<g id="edge50_Node000018_Node000014" class="edge">
<title>Node18&#45;&gt;Node14</title>
<g id="a_edge50_Node000018_Node000014"><a xlink:title=" ">
<path fill="none" stroke="#63b8ff" d="M781.85,-229.63C709.84,-229.12 514.25,-224.07 465.62,-185 435.29,-160.63 426.35,-113.02 423.72,-85.95"/>
<polygon fill="#63b8ff" stroke="#63b8ff" points="427.23,-86.03 422.99,-76.32 420.25,-86.56 427.23,-86.03"/>
</a>
</g>
</g>
<!-- Node18&#45;&gt;Node15 -->
<g id="edge41_Node000018_Node000015" class="edge">
<title>Node18&#45;&gt;Node15</title>
<g id="a_edge41_Node000018_Node000015"><a xlink:title=" ">
<path fill="none" stroke="#63b8ff" d="M803.75,-220.51C797.42,-207.28 788.42,-182.5 799.62,-165.75 860.69,-74.48 1091.85,-138.84 1020.62,-55.25 989.91,-19.2 862.64,-28.81 799.8,-19.33"/>
<polygon fill="#63b8ff" stroke="#63b8ff" points="800.46,-15.89 789.99,-17.52 799.19,-22.78 800.46,-15.89"/>
</a>
</g>
</g>
<!-- Node18&#45;&gt;Node16 -->
<g id="edge38_Node000018_Node000016" class="edge">
<title>Node18&#45;&gt;Node16</title>
<g id="a_edge38_Node000018_Node000016"><a xlink:title=" ">
<path fill="none" stroke="#63b8ff" d="M835.26,-222.71C838.4,-222.05 841.57,-221.46 844.62,-221 905.73,-211.77 1357.37,-230.09 1399.62,-185 1536.35,-39.12 1076.96,-15.23 940.01,-11.36"/>
<polygon fill="#63b8ff" stroke="#63b8ff" points="940.11,-7.86 930.02,-11.1 939.93,-14.86 940.11,-7.86"/>
</a>
</g>
</g>
<!-- Node18&#45;&gt;Node17 -->
<g id="edge37_Node000018_Node000017" class="edge">
<title>Node18&#45;&gt;Node17</title>
<g id="a_edge37_Node000018_Node000017"><a xlink:title=" ">
<path fill="none" stroke="#63b8ff" d="M835.26,-222.72C838.4,-222.06 841.58,-221.46 844.62,-221 903.63,-212.01 1339.86,-228.6 1380.62,-185 1391.27,-173.62 1403.75,-140.04 1377.62,-110.5 1303.6,-26.77 998.85,-42.16 870.82,-19.63"/>
<polygon fill="#63b8ff" stroke="#63b8ff" points="871.69,-16.24 861.2,-17.77 870.36,-23.11 871.69,-16.24"/>
</a>
</g>
</g>
<!-- Node19 -->
<g id="Node000019" class="node">
<title>Node19</title>
<g id="a_Node000019"><a xlink:title=" ">
<polygon fill="#e0e0e0" stroke="#999999" points="864.5,-185 808.75,-185 808.75,-165.75 864.5,-165.75 864.5,-185"/>
<text xml:space="preserve" text-anchor="middle" x="836.62" y="-171.5" font-family="Helvetica,sans-Serif" font-size="10.00">algorithm</text>
</a>
</g>
</g>
<!-- Node18&#45;&gt;Node19 -->
<g id="edge29_Node000018_Node000019" class="edge">
<title>Node18&#45;&gt;Node19</title>
<g id="a_edge29_Node000018_Node000019"><a xlink:title=" ">
<path fill="none" stroke="#63b8ff" d="M813.25,-220.83C816.87,-213.94 822.05,-204.09 826.62,-195.41"/>
<polygon fill="#63b8ff" stroke="#63b8ff" points="829.64,-197.18 831.2,-186.7 823.44,-193.92 829.64,-197.18"/>
</a>
</g>
</g>
<!-- Node20 -->
<g id="Node000020" class="node">
<title>Node20</title>
<g id="a_Node000020"><a xlink:title=" ">
<polygon fill="#e0e0e0" stroke="#999999" points="916.25,-74.5 871,-74.5 871,-55.25 916.25,-55.25 916.25,-74.5"/>
<text xml:space="preserve" text-anchor="middle" x="893.62" y="-61" font-family="Helvetica,sans-Serif" font-size="10.00">atomic</text>
</a>
</g>
</g>
<!-- Node18&#45;&gt;Node20 -->
<g id="edge30_Node000018_Node000020" class="edge">
<title>Node18&#45;&gt;Node20</title>
<g id="a_edge30_Node000018_Node000020"><a xlink:title=" ">
<path fill="none" stroke="#63b8ff" d="M795.35,-220.56C779.56,-208.57 756.53,-186.52 766.62,-165.75 786.47,-124.9 832.01,-95.77 862.81,-79.88"/>
<polygon fill="#63b8ff" stroke="#63b8ff" points="864.26,-83.06 871.67,-75.48 861.15,-76.79 864.26,-83.06"/>
</a>
</g>
</g>
<!-- Node21 -->
<g id="Node000021" class="node">
<title>Node21</title>
<g id="a_Node000021"><a xlink:title=" ">
<polygon fill="#e0e0e0" stroke="#999999" points="930.75,-185 882.5,-185 882.5,-165.75 930.75,-165.75 930.75,-185"/>
<text xml:space="preserve" text-anchor="middle" x="906.62" y="-171.5" font-family="Helvetica,sans-Serif" font-size="10.00">cstddef</text>
</a>
</g>
</g>
<!-- Node18&#45;&gt;Node21 -->
<g id="edge31_Node000018_Node000021" class="edge">
<title>Node18&#45;&gt;Node21</title>
<g id="a_edge31_Node000018_Node000021"><a xlink:title=" ">
<path fill="none" stroke="#63b8ff" d="M825.25,-220.59C840.31,-212.41 862.77,-200.21 880.28,-190.69"/>
<polygon fill="#63b8ff" stroke="#63b8ff" points="881.47,-194.02 888.59,-186.18 878.13,-187.87 881.47,-194.02"/>
</a>
</g>
</g>
<!-- Node22 -->
<g id="Node000022" class="node">
<title>Node22</title>
<g id="a_Node000022"><a xlink:href="_storage_8h.html" target="_top" xlink:title="Ctorch 存储类，用于管理张量数据的底层存储">
<polygon fill="white" stroke="#666666" points="413.62,-185 355.62,-185 355.62,-165.75 413.62,-165.75 413.62,-185"/>
<text xml:space="preserve" text-anchor="middle" x="384.62" y="-171.5" font-family="Helvetica,sans-Serif" font-size="10.00">Storage.h</text>
</a>
</g>
</g>
<!-- Node18&#45;&gt;Node22 -->
<g id="edge33_Node000018_Node000022" class="edge">
<title>Node18&#45;&gt;Node22</title>
<g id="a_edge33_Node000018_Node000022"><a xlink:title=" ">
<path fill="none" stroke="#63b8ff" d="M782.19,-227.28C720.1,-221.6 560.16,-206.02 427.62,-185 426.64,-184.84 425.64,-184.68 424.63,-184.51"/>
<polygon fill="#63b8ff" stroke="#63b8ff" points="425.66,-181.14 415.2,-182.81 424.42,-188.03 425.66,-181.14"/>
</a>
</g>
</g>
<!-- Node23 -->
<g id="Node000023" class="node">
<title>Node23</title>
<g id="a_Node000023"><a xlink:title=" ">
<polygon fill="#e0e0e0" stroke="#999999" points="1020.75,-185 948.5,-185 948.5,-165.75 1020.75,-165.75 1020.75,-185"/>
<text xml:space="preserve" text-anchor="middle" x="984.62" y="-171.5" font-family="Helvetica,sans-Serif" font-size="10.00">initializer_list</text>
</a>
</g>
</g>
<!-- Node18&#45;&gt;Node23 -->
<g id="edge36_Node000018_Node000023" class="edge">
<title>Node18&#45;&gt;Node23</title>
<g id="a_edge36_Node000018_Node000023"><a xlink:title=" ">
<path fill="none" stroke="#63b8ff" d="M835.36,-221.54C864.21,-212.81 910.52,-198.8 943.91,-188.69"/>
<polygon fill="#63b8ff" stroke="#63b8ff" points="944.68,-192.12 953.24,-185.87 942.66,-185.42 944.68,-192.12"/>
</a>
</g>
</g>
<!-- Node24 -->
<g id="Node000024" class="node">
<title>Node24</title>
<g id="a_Node000024"><a xlink:title=" ">
<polygon fill="#e0e0e0" stroke="#999999" points="1088.88,-185 1038.38,-185 1038.38,-165.75 1088.88,-165.75 1088.88,-185"/>
<text xml:space="preserve" text-anchor="middle" x="1063.62" y="-171.5" font-family="Helvetica,sans-Serif" font-size="10.00">numeric</text>
</a>
</g>
</g>
<!-- Node18&#45;&gt;Node24 -->
<g id="edge39_Node000018_Node000024" class="edge">
<title>Node18&#45;&gt;Node24</title>
<g id="a_edge39_Node000018_Node000024"><a xlink:title=" ">
<path fill="none" stroke="#63b8ff" d="M835.33,-223.09C838.46,-222.37 841.61,-221.65 844.62,-221 923.13,-203.97 946.03,-203.33 1027.29,-185.42"/>
<polygon fill="#63b8ff" stroke="#63b8ff" points="1027.56,-188.95 1036.56,-183.36 1026.04,-182.12 1027.56,-188.95"/>
</a>
</g>
</g>
<!-- Node25 -->
<g id="Node000025" class="node">
<title>Node25</title>
<g id="a_Node000025"><a xlink:title=" ">
<polygon fill="#e0e0e0" stroke="#999999" points="1166,-185 1107.25,-185 1107.25,-165.75 1166,-165.75 1166,-185"/>
<text xml:space="preserve" text-anchor="middle" x="1136.62" y="-171.5" font-family="Helvetica,sans-Serif" font-size="10.00">stdexcept</text>
</a>
</g>
</g>
<!-- Node18&#45;&gt;Node25 -->
<g id="edge40_Node000018_Node000025" class="edge">
<title>Node18&#45;&gt;Node25</title>
<g id="a_edge40_Node000018_Node000025"><a xlink:title=" ">
<path fill="none" stroke="#63b8ff" d="M835.3,-222.94C838.43,-222.24 841.59,-221.58 844.62,-221 952.71,-200.41 983.94,-204.96 1095.78,-185.19"/>
<polygon fill="#63b8ff" stroke="#63b8ff" points="1096.15,-188.68 1105.37,-183.47 1094.91,-181.79 1096.15,-188.68"/>
</a>
</g>
</g>
<!-- Node26 -->
<g id="Node000026" class="node">
<title>Node26</title>
<g id="a_Node000026"><a xlink:title=" ">
<polygon fill="#e0e0e0" stroke="#999999" points="1241.62,-185 1183.62,-185 1183.62,-165.75 1241.62,-165.75 1241.62,-185"/>
<text xml:space="preserve" text-anchor="middle" x="1212.62" y="-171.5" font-family="Helvetica,sans-Serif" font-size="10.00">functional</text>
</a>
</g>
</g>
<!-- Node18&#45;&gt;Node26 -->
<g id="edge43_Node000018_Node000026" class="edge">
<title>Node18&#45;&gt;Node26</title>
<g id="a_edge43_Node000018_Node000026"><a xlink:title=" ">
<path fill="none" stroke="#63b8ff" d="M835.28,-222.84C838.42,-222.16 841.59,-221.53 844.62,-221 986.44,-196.38 1027.14,-208.73 1172.15,-185.23"/>
<polygon fill="#63b8ff" stroke="#63b8ff" points="1172.44,-188.73 1181.74,-183.64 1171.3,-181.82 1172.44,-188.73"/>
</a>
</g>
</g>
<!-- Node27 -->
<g id="Node000027" class="node">
<title>Node27</title>
<g id="a_Node000027"><a xlink:title=" ">
<polygon fill="#e0e0e0" stroke="#999999" points="1011.38,-74.5 933.88,-74.5 933.88,-55.25 1011.38,-55.25 1011.38,-74.5"/>
<text xml:space="preserve" text-anchor="middle" x="972.62" y="-61" font-family="Helvetica,sans-Serif" font-size="10.00">unordered_set</text>
</a>
</g>
</g>
<!-- Node18&#45;&gt;Node27 -->
<g id="edge47_Node000018_Node000027" class="edge">
<title>Node18&#45;&gt;Node27</title>
<g id="a_edge47_Node000018_Node000027"><a xlink:title=" ">
<path fill="none" stroke="#63b8ff" d="M835.26,-222.72C838.4,-222.06 841.58,-221.47 844.62,-221 901.43,-212.27 1321.43,-227.03 1360.62,-185 1459.55,-78.94 1148.59,-66.42 1022.9,-65.59"/>
<polygon fill="#63b8ff" stroke="#63b8ff" points="1023.21,-62.09 1013.2,-65.55 1023.18,-69.09 1023.21,-62.09"/>
</a>
</g>
</g>
<!-- Node28 -->
<g id="Node000028" class="node">
<title>Node28</title>
<g id="a_Node000028"><a xlink:title=" ">
<polygon fill="#e0e0e0" stroke="#999999" points="1299.25,-185 1260,-185 1260,-165.75 1299.25,-165.75 1299.25,-185"/>
<text xml:space="preserve" text-anchor="middle" x="1279.62" y="-171.5" font-family="Helvetica,sans-Serif" font-size="10.00">limits</text>
</a>
</g>
</g>
<!-- Node18&#45;&gt;Node28 -->
<g id="edge48_Node000018_Node000028" class="edge">
<title>Node18&#45;&gt;Node28</title>
<g id="a_edge48_Node000018_Node000028"><a xlink:title=" ">
<path fill="none" stroke="#63b8ff" d="M835.27,-222.78C838.41,-222.11 841.58,-221.5 844.62,-221 1019.83,-192.4 1070.67,-217.93 1248.71,-184.94"/>
<polygon fill="#63b8ff" stroke="#63b8ff" points="1249.12,-188.43 1258.3,-183.13 1247.82,-181.55 1249.12,-188.43"/>
</a>
</g>
</g>
<!-- Node29 -->
<g id="Node000029" class="node">
<title>Node29</title>
<g id="a_Node000029"><a xlink:title=" ">
<polygon fill="#e0e0e0" stroke="#999999" points="1352,-185 1317.25,-185 1317.25,-165.75 1352,-165.75 1352,-185"/>
<text xml:space="preserve" text-anchor="middle" x="1334.62" y="-171.5" font-family="Helvetica,sans-Serif" font-size="10.00">map</text>
</a>
</g>
</g>
<!-- Node18&#45;&gt;Node29 -->
<g id="edge49_Node000018_Node000029" class="edge">
<title>Node18&#45;&gt;Node29</title>
<g id="a_edge49_Node000018_Node000029"><a xlink:title=" ">
<path fill="none" stroke="#63b8ff" d="M835.27,-222.75C838.41,-222.08 841.58,-221.48 844.62,-221 1045.25,-189.39 1103.76,-224.55 1305.59,-185.15"/>
<polygon fill="#63b8ff" stroke="#63b8ff" points="1306.27,-188.58 1315.39,-183.19 1304.9,-181.71 1306.27,-188.58"/>
</a>
</g>
</g>
<!-- Node30 -->
<g id="Node000030" class="node">
<title>Node30</title>
<g id="a_Node000030"><a xlink:href="_auto_diff_8h.html" target="_top" xlink:title="Ctorch 自动微分系统">
<polygon fill="white" stroke="#666666" points="754.75,-129.75 694.5,-129.75 694.5,-110.5 754.75,-110.5 754.75,-129.75"/>
<text xml:space="preserve" text-anchor="middle" x="724.62" y="-116.25" font-family="Helvetica,sans-Serif" font-size="10.00">AutoDiff.h</text>
</a>
</g>
</g>
<!-- Node18&#45;&gt;Node30 -->
<g id="edge51_Node000018_Node000030" class="edge">
<title>Node18&#45;&gt;Node30</title>
<g id="a_edge51_Node000018_Node000030"><a xlink:title=" ">
<path fill="none" stroke="#63b8ff" d="M781.93,-222.19C763.63,-215.58 740.58,-203.97 728.62,-185 720.55,-172.18 719.94,-154.88 721.14,-141.53"/>
<polygon fill="#63b8ff" stroke="#63b8ff" points="724.6,-142.07 722.45,-131.7 717.66,-141.14 724.6,-142.07"/>
</a>
</g>
</g>
<!-- Node22&#45;&gt;Node2 -->
<g id="edge35_Node000022_Node000002" class="edge">
<title>Node22&#45;&gt;Node2</title>
<g id="a_edge35_Node000022_Node000002"><a xlink:title=" ">
<path fill="none" stroke="#63b8ff" d="M369.02,-165.34C355.01,-157.23 334.19,-145.18 317.82,-135.71"/>
<polygon fill="#63b8ff" stroke="#63b8ff" points="320.03,-132.94 309.62,-130.96 316.52,-139 320.03,-132.94"/>
</a>
</g>
</g>
<!-- Node22&#45;&gt;Node14 -->
<g id="edge34_Node000022_Node000014" class="edge">
<title>Node22&#45;&gt;Node14</title>
<g id="a_edge34_Node000022_Node000014"><a xlink:title=" ">
<path fill="none" stroke="#63b8ff" d="M387.73,-165.5C393.8,-148.17 407.35,-109.48 415.67,-85.74"/>
<polygon fill="#63b8ff" stroke="#63b8ff" points="418.97,-86.9 418.97,-76.31 412.36,-84.59 418.97,-86.9"/>
</a>
</g>
</g>
<!-- Node30&#45;&gt;Node12 -->
<g id="edge56_Node000030_Node000012" class="edge">
<title>Node30&#45;&gt;Node12</title>
<g id="a_edge56_Node000030_Node000012"><a xlink:title=" ">
<path fill="none" stroke="#63b8ff" d="M714.4,-110.25C693.43,-92.05 645.3,-50.27 618.5,-27.01"/>
<polygon fill="#63b8ff" stroke="#63b8ff" points="620.98,-24.53 611.14,-20.62 616.4,-29.82 620.98,-24.53"/>
</a>
</g>
</g>
<!-- Node30&#45;&gt;Node14 -->
<g id="edge52_Node000030_Node000014" class="edge">
<title>Node30&#45;&gt;Node14</title>
<g id="a_edge52_Node000030_Node000014"><a xlink:title=" ">
<path fill="none" stroke="#63b8ff" d="M694.01,-113.73C638.48,-103.93 521.31,-83.28 460.71,-72.59"/>
<polygon fill="#63b8ff" stroke="#63b8ff" points="461.33,-69.15 450.87,-70.86 460.11,-76.04 461.33,-69.15"/>
</a>
</g>
</g>
<!-- Node30&#45;&gt;Node15 -->
<g id="edge53_Node000030_Node000015" class="edge">
<title>Node30&#45;&gt;Node15</title>
<g id="a_edge53_Node000030_Node000015"><a xlink:title=" ">
<path fill="none" stroke="#63b8ff" d="M745.73,-110.03C759.85,-102.69 777.31,-90.88 785.62,-74.5 792.91,-60.15 786.67,-42.54 779.45,-29.45"/>
<polygon fill="#63b8ff" stroke="#63b8ff" points="782.46,-27.65 774.23,-20.97 776.5,-31.32 782.46,-27.65"/>
</a>
</g>
</g>
<!-- Node30&#45;&gt;Node16 -->
<g id="edge58_Node000030_Node000016" class="edge">
<title>Node30&#45;&gt;Node16</title>
<g id="a_edge58_Node000030_Node000016"><a xlink:title=" ">
<path fill="none" stroke="#63b8ff" d="M740.66,-110.07C756.31,-101.18 780.74,-87.15 801.62,-74.5 828.5,-58.23 858.91,-38.86 879.28,-25.75"/>
<polygon fill="#63b8ff" stroke="#63b8ff" points="880.9,-28.87 887.41,-20.5 877.11,-22.99 880.9,-28.87"/>
</a>
</g>
</g>
<!-- Node30&#45;&gt;Node20 -->
<g id="edge57_Node000030_Node000020" class="edge">
<title>Node30&#45;&gt;Node20</title>
<g id="a_edge57_Node000030_Node000020"><a xlink:title=" ">
<path fill="none" stroke="#63b8ff" d="M753.29,-110.09C782.73,-100.82 828.54,-86.38 859.75,-76.55"/>
<polygon fill="#63b8ff" stroke="#63b8ff" points="860.6,-79.95 869.09,-73.61 858.5,-73.27 860.6,-79.95"/>
</a>
</g>
</g>
<!-- Node30&#45;&gt;Node27 -->
<g id="edge55_Node000030_Node000027" class="edge">
<title>Node30&#45;&gt;Node27</title>
<g id="a_edge55_Node000030_Node000027"><a xlink:title=" ">
<path fill="none" stroke="#63b8ff" d="M755.03,-112.6C796.67,-103.66 871.97,-87.49 922.14,-76.71"/>
<polygon fill="#63b8ff" stroke="#63b8ff" points="922.86,-80.14 931.9,-74.62 921.39,-73.3 922.86,-80.14"/>
</a>
</g>
</g>
<!-- Node31 -->
<g id="Node000031" class="node">
<title>Node31</title>
<g id="a_Node000031"><a xlink:title=" ">
<polygon fill="#e0e0e0" stroke="#999999" points="777,-74.5 694.25,-74.5 694.25,-55.25 777,-55.25 777,-74.5"/>
<text xml:space="preserve" text-anchor="middle" x="735.62" y="-61" font-family="Helvetica,sans-Serif" font-size="10.00">unordered_map</text>
</a>
</g>
</g>
<!-- Node30&#45;&gt;Node31 -->
<g id="edge54_Node000030_Node000031" class="edge">
<title>Node30&#45;&gt;Node31</title>
<g id="a_edge54_Node000030_Node000031"><a xlink:title=" ">
<path fill="none" stroke="#63b8ff" d="M726.44,-110.33C727.8,-103.74 729.72,-94.46 731.45,-86.07"/>
<polygon fill="#63b8ff" stroke="#63b8ff" points="734.87,-86.84 733.46,-76.34 728.01,-85.43 734.87,-86.84"/>
</a>
</g>
</g>
</g>
</svg>
