<?xml version="1.0" encoding="UTF-8" standalone="no"?>
<!DOCTYPE svg PUBLIC "-//W3C//DTD SVG 1.1//EN"
 "http://www.w3.org/Graphics/SVG/1.1/DTD/svg11.dtd">
<!-- Generated by graphviz version 14.1.1 (20251213.1925)
 -->
<!-- Title: /Users/ghostface/CLionProjects/Ctorch_2.13/CTorch/src/dev/Ctools.cpp Pages: 1 -->
<svg width="900pt" height="160pt"
 viewBox="0.00 0.00 900.00 160.00" xmlns="http://www.w3.org/2000/svg" xmlns:xlink="http://www.w3.org/1999/xlink">
<g id="graph0" class="graph" transform="scale(1 1) rotate(0) translate(4 156.25)">
<title>/Users/ghostface/CLionProjects/Ctorch_2.13/CTorch/src/dev/Ctools.cpp</title>
<!-- Node1 -->
<g id="Node000001" class="node">
<title>Node1</title>
<g id="a_Node000001"><a xlink:title="Ctorch 通用工具类实现">
<polygon fill="#999999" stroke="#666666" points="511.38,-152.25 355.88,-152.25 355.88,-110.5 511.38,-110.5 511.38,-152.25"/>
<text xml:space="preserve" text-anchor="start" x="363.88" y="-138.75" font-family="Helvetica,sans-Serif" font-size="10.00">/Users/ghostface/CLionProjects</text>
<text xml:space="preserve" text-anchor="start" x="363.88" y="-127.5" font-family="Helvetica,sans-Serif" font-size="10.00">/Ctorch_2.13/CTorch/src/dev</text>
<text xml:space="preserve" text-anchor="middle" x="433.62" y="-116.25" font-family="Helvetica,sans-Serif" font-size="10.00">/Ctools.cpp</text>
</a>
</g>
</g>
<!-- Node2 -->
<g id="Node000002" class="node">
<title>Node2</title>
<g id="a_Node000002"><a xlink:href="_ctools_8h.html" target="_top" xlink:title="Ctorch 通用工具类，包含通用枚举类型和辅助函数">
<polygon fill="white" stroke="#666666" points="460,-74.5 407.25,-74.5 407.25,-55.25 460,-55.25 460,-74.5"/>
<text xml:space="preserve" text-anchor="middle" x="433.62" y="-61" font-family="Helvetica,sans-Serif" font-size="10.00">Ctools.h</text>
</a>
</g>
</g>
<!-- Node1&#45;&gt;Node2 -->
<g id="edge1_Node000001_Node000002" class="edge">
<title>Node1&#45;&gt;Node2</title>
<g id="a_edge1_Node000001_Node000002"><a xlink:title=" ">
<path fill="none" stroke="#63b8ff" d="M433.62,-110.32C433.62,-102.65 433.62,-93.89 433.62,-86.2"/>
<polygon fill="#63b8ff" stroke="#63b8ff" points="437.13,-86.46 433.63,-76.46 430.13,-86.46 437.13,-86.46"/>
</a>
</g>
</g>
<!-- Node3 -->
<g id="Node000003" class="node">
<title>Node3</title>
<g id="a_Node000003"><a xlink:title=" ">
<polygon fill="#e0e0e0" stroke="#999999" points="45.25,-19.25 0,-19.25 0,0 45.25,0 45.25,-19.25"/>
<text xml:space="preserve" text-anchor="middle" x="22.62" y="-5.75" font-family="Helvetica,sans-Serif" font-size="10.00">cstring</text>
</a>
</g>
</g>
<!-- Node2&#45;&gt;Node3 -->
<g id="edge2_Node000002_Node000003" class="edge">
<title>Node2&#45;&gt;Node3</title>
<g id="a_edge2_Node000002_Node000003"><a xlink:title=" ">
<path fill="none" stroke="#63b8ff" d="M407.15,-62.18C346.61,-58 193.33,-45.74 56.62,-19.59"/>
<polygon fill="#63b8ff" stroke="#63b8ff" points="57.52,-16.2 47.04,-17.72 56.19,-23.07 57.52,-16.2"/>
</a>
</g>
</g>
<!-- Node4 -->
<g id="Node000004" class="node">
<title>Node4</title>
<g id="a_Node000004"><a xlink:title=" ">
<polygon fill="#e0e0e0" stroke="#999999" points="108.25,-19.25 63,-19.25 63,0 108.25,0 108.25,-19.25"/>
<text xml:space="preserve" text-anchor="middle" x="85.62" y="-5.75" font-family="Helvetica,sans-Serif" font-size="10.00">chrono</text>
</a>
</g>
</g>
<!-- Node2&#45;&gt;Node4 -->
<g id="edge3_Node000002_Node000004" class="edge">
<title>Node2&#45;&gt;Node4</title>
<g id="a_edge3_Node000002_Node000004"><a xlink:title=" ">
<path fill="none" stroke="#63b8ff" d="M407.12,-61.34C354.19,-56.01 231.51,-42.41 119.7,-19.67"/>
<polygon fill="#63b8ff" stroke="#63b8ff" points="120.55,-16.27 110.05,-17.68 119.13,-23.13 120.55,-16.27"/>
</a>
</g>
</g>
<!-- Node5 -->
<g id="Node000005" class="node">
<title>Node5</title>
<g id="a_Node000005"><a xlink:title=" ">
<polygon fill="#e0e0e0" stroke="#999999" points="171.25,-19.25 126,-19.25 126,0 171.25,0 171.25,-19.25"/>
<text xml:space="preserve" text-anchor="middle" x="148.62" y="-5.75" font-family="Helvetica,sans-Serif" font-size="10.00">cstdint</text>
</a>
</g>
</g>
<!-- Node2&#45;&gt;Node5 -->
<g id="edge4_Node000002_Node000005" class="edge">
<title>Node2&#45;&gt;Node5</title>
<g id="a_edge4_Node000002_Node000005"><a xlink:title=" ">
<path fill="none" stroke="#63b8ff" d="M406.88,-59.96C362.45,-53.28 270.43,-38.72 182.85,-19.57"/>
<polygon fill="#63b8ff" stroke="#63b8ff" points="183.63,-16.16 173.11,-17.42 182.12,-23 183.63,-16.16"/>
</a>
</g>
</g>
<!-- Node6 -->
<g id="Node000006" class="node">
<title>Node6</title>
<g id="a_Node000006"><a xlink:title=" ">
<polygon fill="#e0e0e0" stroke="#999999" points="229.62,-19.25 189.62,-19.25 189.62,0 229.62,0 229.62,-19.25"/>
<text xml:space="preserve" text-anchor="middle" x="209.62" y="-5.75" font-family="Helvetica,sans-Serif" font-size="10.00">ctime</text>
</a>
</g>
</g>
<!-- Node2&#45;&gt;Node6 -->
<g id="edge5_Node000002_Node000006" class="edge">
<title>Node2&#45;&gt;Node6</title>
<g id="a_edge5_Node000002_Node000006"><a xlink:title=" ">
<path fill="none" stroke="#63b8ff" d="M407,-58.35C371.32,-50.82 305.8,-36.57 240.72,-19.67"/>
<polygon fill="#63b8ff" stroke="#63b8ff" points="241.88,-16.36 231.32,-17.21 240.11,-23.13 241.88,-16.36"/>
</a>
</g>
</g>
<!-- Node7 -->
<g id="Node000007" class="node">
<title>Node7</title>
<g id="a_Node000007"><a xlink:title=" ">
<polygon fill="#e0e0e0" stroke="#999999" points="287.62,-19.25 247.62,-19.25 247.62,0 287.62,0 287.62,-19.25"/>
<text xml:space="preserve" text-anchor="middle" x="267.62" y="-5.75" font-family="Helvetica,sans-Serif" font-size="10.00">string</text>
</a>
</g>
</g>
<!-- Node2&#45;&gt;Node7 -->
<g id="edge6_Node000002_Node000007" class="edge">
<title>Node2&#45;&gt;Node7</title>
<g id="a_edge6_Node000002_Node000007"><a xlink:title=" ">
<path fill="none" stroke="#63b8ff" d="M406.95,-55.32C377.41,-45.84 329.82,-30.58 298.64,-20.57"/>
<polygon fill="#63b8ff" stroke="#63b8ff" points="299.98,-17.33 289.39,-17.61 297.85,-23.99 299.98,-17.33"/>
</a>
</g>
</g>
<!-- Node8 -->
<g id="Node000008" class="node">
<title>Node8</title>
<g id="a_Node000008"><a xlink:title=" ">
<polygon fill="#e0e0e0" stroke="#999999" points="357.25,-19.25 306,-19.25 306,0 357.25,0 357.25,-19.25"/>
<text xml:space="preserve" text-anchor="middle" x="331.62" y="-5.75" font-family="Helvetica,sans-Serif" font-size="10.00">sstream</text>
</a>
</g>
</g>
<!-- Node2&#45;&gt;Node8 -->
<g id="edge7_Node000002_Node000008" class="edge">
<title>Node2&#45;&gt;Node8</title>
<g id="a_edge7_Node000002_Node000008"><a xlink:title=" ">
<path fill="none" stroke="#63b8ff" d="M416.32,-54.84C400.64,-46.66 377.27,-34.46 359.05,-24.94"/>
<polygon fill="#63b8ff" stroke="#63b8ff" points="360.84,-21.93 350.35,-20.4 357.6,-28.13 360.84,-21.93"/>
</a>
</g>
</g>
<!-- Node9 -->
<g id="Node000009" class="node">
<title>Node9</title>
<g id="a_Node000009"><a xlink:title=" ">
<polygon fill="#e0e0e0" stroke="#999999" points="425.5,-19.25 375.75,-19.25 375.75,0 425.5,0 425.5,-19.25"/>
<text xml:space="preserve" text-anchor="middle" x="400.62" y="-5.75" font-family="Helvetica,sans-Serif" font-size="10.00">iomanip</text>
</a>
</g>
</g>
<!-- Node2&#45;&gt;Node9 -->
<g id="edge8_Node000002_Node000009" class="edge">
<title>Node2&#45;&gt;Node9</title>
<g id="a_edge8_Node000002_Node000009"><a xlink:title=" ">
<path fill="none" stroke="#63b8ff" d="M428.18,-55.08C423.85,-48.11 417.66,-38.12 412.24,-29.37"/>
<polygon fill="#63b8ff" stroke="#63b8ff" points="415.23,-27.55 406.99,-20.9 409.28,-31.24 415.23,-27.55"/>
</a>
</g>
</g>
<!-- Node10 -->
<g id="Node000010" class="node">
<title>Node10</title>
<g id="a_Node000010"><a xlink:title=" ">
<polygon fill="#e0e0e0" stroke="#999999" points="491.75,-19.25 443.5,-19.25 443.5,0 491.75,0 491.75,-19.25"/>
<text xml:space="preserve" text-anchor="middle" x="467.62" y="-5.75" font-family="Helvetica,sans-Serif" font-size="10.00">stdint.h</text>
</a>
</g>
</g>
<!-- Node2&#45;&gt;Node10 -->
<g id="edge9_Node000002_Node000010" class="edge">
<title>Node2&#45;&gt;Node10</title>
<g id="a_edge9_Node000002_Node000010"><a xlink:title=" ">
<path fill="none" stroke="#63b8ff" d="M439.24,-55.08C443.74,-48.03 450.21,-37.9 455.84,-29.08"/>
<polygon fill="#63b8ff" stroke="#63b8ff" points="458.64,-31.2 461.07,-20.88 452.74,-27.43 458.64,-31.2"/>
</a>
</g>
</g>
<!-- Node11 -->
<g id="Node000011" class="node">
<title>Node11</title>
<g id="a_Node000011"><a xlink:title=" ">
<polygon fill="#e0e0e0" stroke="#999999" points="569,-19.25 510.25,-19.25 510.25,0 569,0 569,-19.25"/>
<text xml:space="preserve" text-anchor="middle" x="539.62" y="-5.75" font-family="Helvetica,sans-Serif" font-size="10.00">inttypes.h</text>
</a>
</g>
</g>
<!-- Node2&#45;&gt;Node11 -->
<g id="edge10_Node000002_Node000011" class="edge">
<title>Node2&#45;&gt;Node11</title>
<g id="a_edge10_Node000002_Node000011"><a xlink:title=" ">
<path fill="none" stroke="#63b8ff" d="M451.61,-54.84C467.98,-46.62 492.41,-34.34 511.39,-24.81"/>
<polygon fill="#63b8ff" stroke="#63b8ff" points="512.84,-28 520.2,-20.38 509.7,-21.74 512.84,-28"/>
</a>
</g>
</g>
<!-- Node12 -->
<g id="Node000012" class="node">
<title>Node12</title>
<g id="a_Node000012"><a xlink:title=" ">
<polygon fill="#e0e0e0" stroke="#999999" points="630.12,-19.25 587.12,-19.25 587.12,0 630.12,0 630.12,-19.25"/>
<text xml:space="preserve" text-anchor="middle" x="608.62" y="-5.75" font-family="Helvetica,sans-Serif" font-size="10.00">mutex</text>
</a>
</g>
</g>
<!-- Node2&#45;&gt;Node12 -->
<g id="edge11_Node000002_Node000012" class="edge">
<title>Node2&#45;&gt;Node12</title>
<g id="a_edge11_Node000002_Node000012"><a xlink:title=" ">
<path fill="none" stroke="#63b8ff" d="M460.2,-55.79C491.3,-46.32 542.78,-30.66 576.2,-20.49"/>
<polygon fill="#63b8ff" stroke="#63b8ff" points="576.79,-23.97 585.34,-17.71 574.75,-17.27 576.79,-23.97"/>
</a>
</g>
</g>
<!-- Node13 -->
<g id="Node000013" class="node">
<title>Node13</title>
<g id="a_Node000013"><a xlink:title=" ">
<polygon fill="#e0e0e0" stroke="#999999" points="691.12,-19.25 648.12,-19.25 648.12,0 691.12,0 691.12,-19.25"/>
<text xml:space="preserve" text-anchor="middle" x="669.62" y="-5.75" font-family="Helvetica,sans-Serif" font-size="10.00">thread</text>
</a>
</g>
</g>
<!-- Node2&#45;&gt;Node13 -->
<g id="edge12_Node000002_Node000013" class="edge">
<title>Node2&#45;&gt;Node13</title>
<g id="a_edge12_Node000002_Node000013"><a xlink:title=" ">
<path fill="none" stroke="#63b8ff" d="M460.42,-58.66C497.85,-51.26 568.14,-36.89 636.73,-19.86"/>
<polygon fill="#63b8ff" stroke="#63b8ff" points="637.4,-23.3 646.25,-17.47 635.7,-16.51 637.4,-23.3"/>
</a>
</g>
</g>
<!-- Node14 -->
<g id="Node000014" class="node">
<title>Node14</title>
<g id="a_Node000014"><a xlink:title=" ">
<polygon fill="#e0e0e0" stroke="#999999" points="752.12,-19.25 709.12,-19.25 709.12,0 752.12,0 752.12,-19.25"/>
<text xml:space="preserve" text-anchor="middle" x="730.62" y="-5.75" font-family="Helvetica,sans-Serif" font-size="10.00">vector</text>
</a>
</g>
</g>
<!-- Node2&#45;&gt;Node14 -->
<g id="edge13_Node000002_Node000014" class="edge">
<title>Node2&#45;&gt;Node14</title>
<g id="a_edge13_Node000002_Node000014"><a xlink:title=" ">
<path fill="none" stroke="#63b8ff" d="M460.35,-60.44C506.76,-54.26 605.43,-40.14 697.55,-19.75"/>
<polygon fill="#63b8ff" stroke="#63b8ff" points="698.28,-23.17 707.27,-17.56 696.74,-16.34 698.28,-23.17"/>
</a>
</g>
</g>
<!-- Node15 -->
<g id="Node000015" class="node">
<title>Node15</title>
<g id="a_Node000015"><a xlink:title=" ">
<polygon fill="#e0e0e0" stroke="#999999" points="821.25,-19.25 770,-19.25 770,0 821.25,0 821.25,-19.25"/>
<text xml:space="preserve" text-anchor="middle" x="795.62" y="-5.75" font-family="Helvetica,sans-Serif" font-size="10.00">memory</text>
</a>
</g>
</g>
<!-- Node2&#45;&gt;Node15 -->
<g id="edge14_Node000002_Node000015" class="edge">
<title>Node2&#45;&gt;Node15</title>
<g id="a_edge14_Node000002_Node000015"><a xlink:title=" ">
<path fill="none" stroke="#63b8ff" d="M460.15,-61.3C514.41,-55.8 642.17,-41.75 758.49,-19.68"/>
<polygon fill="#63b8ff" stroke="#63b8ff" points="759.06,-23.14 768.22,-17.81 757.74,-16.26 759.06,-23.14"/>
</a>
</g>
</g>
<!-- Node16 -->
<g id="Node000016" class="node">
<title>Node16</title>
<g id="a_Node000016"><a xlink:title=" ">
<polygon fill="#e0e0e0" stroke="#999999" points="892.38,-19.25 838.88,-19.25 838.88,0 892.38,0 892.38,-19.25"/>
<text xml:space="preserve" text-anchor="middle" x="865.62" y="-5.75" font-family="Helvetica,sans-Serif" font-size="10.00">iostream</text>
</a>
</g>
</g>
<!-- Node2&#45;&gt;Node16 -->
<g id="edge15_Node000002_Node000016" class="edge">
<title>Node2&#45;&gt;Node16</title>
<g id="a_edge15_Node000002_Node000016"><a xlink:title=" ">
<path fill="none" stroke="#63b8ff" d="M460.28,-62.08C522.8,-57.61 683.9,-44.63 827.39,-19.64"/>
<polygon fill="#63b8ff" stroke="#63b8ff" points="827.84,-23.11 837.08,-17.92 826.62,-16.22 827.84,-23.11"/>
</a>
</g>
</g>
</g>
</svg>
