<?xml version="1.0" encoding="UTF-8" standalone="no"?>
<!DOCTYPE svg PUBLIC "-//W3C//DTD SVG 1.1//EN"
 "http://www.w3.org/Graphics/SVG/1.1/DTD/svg11.dtd">
<!-- Generated by graphviz version 14.1.1 (20251213.1925)
 -->
<!-- Title: Ctorch_Scheduler.h Pages: 1 -->
<svg width="1495pt" height="304pt"
 viewBox="0.00 0.00 1495.00 304.00" xmlns="http://www.w3.org/2000/svg" xmlns:xlink="http://www.w3.org/1999/xlink">
<g id="graph0" class="graph" transform="scale(1 1) rotate(0) translate(4 299.5)">
<title>Ctorch_Scheduler.h</title>
<!-- Node1 -->
<g id="Node000001" class="node">
<title>Node1</title>
<g id="a_Node000001"><a xlink:title="Ctorch 框架的核心调度器类">
<polygon fill="#999999" stroke="#666666" points="887.38,-295.5 785.88,-295.5 785.88,-276.25 887.38,-276.25 887.38,-295.5"/>
<text xml:space="preserve" text-anchor="middle" x="836.62" y="-282" font-family="Helvetica,sans-Serif" font-size="10.00">Ctorch_Scheduler.h</text>
</a>
</g>
</g>
<!-- Node2 -->
<g id="Node000002" class="node">
<title>Node2</title>
<g id="a_Node000002"><a xlink:href="_ctorch___error_8h.html" target="_top" xlink:title="Ctorch 错误处理类">
<polygon fill="white" stroke="#666666" points="338.12,-129.75 259.12,-129.75 259.12,-110.5 338.12,-110.5 338.12,-129.75"/>
<text xml:space="preserve" text-anchor="middle" x="298.62" y="-116.25" font-family="Helvetica,sans-Serif" font-size="10.00">Ctorch_Error.h</text>
</a>
</g>
</g>
<!-- Node1&#45;&gt;Node2 -->
<g id="edge1_Node000001_Node000002" class="edge">
<title>Node1&#45;&gt;Node2</title>
<g id="a_edge1_Node000001_Node000002"><a xlink:title=" ">
<path fill="none" stroke="#63b8ff" d="M785.55,-281.58C668.85,-273.05 387.45,-246.46 318.62,-185 306.29,-173.99 301.49,-155.48 299.66,-141.21"/>
<polygon fill="#63b8ff" stroke="#63b8ff" points="303.17,-141.23 298.83,-131.57 296.2,-141.83 303.17,-141.23"/>
</a>
</g>
</g>
<!-- Node18 -->
<g id="Node000018" class="node">
<title>Node18</title>
<g id="a_Node000018"><a xlink:href="_tensor_8h.html" target="_top" xlink:title="张量类和相关操作的定义">
<polygon fill="white" stroke="#666666" points="863,-240.25 810.25,-240.25 810.25,-221 863,-221 863,-240.25"/>
<text xml:space="preserve" text-anchor="middle" x="836.62" y="-226.75" font-family="Helvetica,sans-Serif" font-size="10.00">Tensor.h</text>
</a>
</g>
</g>
<!-- Node1&#45;&gt;Node18 -->
<g id="edge28_Node000001_Node000018" class="edge">
<title>Node1&#45;&gt;Node18</title>
<g id="a_edge28_Node000001_Node000018"><a xlink:title=" ">
<path fill="none" stroke="#63b8ff" d="M836.62,-276.08C836.62,-269.57 836.62,-260.42 836.62,-252.12"/>
<polygon fill="#63b8ff" stroke="#63b8ff" points="840.13,-252.12 836.63,-242.12 833.13,-252.12 840.13,-252.12"/>
</a>
</g>
</g>
<!-- Node32 -->
<g id="Node000032" class="node">
<title>Node32</title>
<g id="a_Node000032"><a xlink:title=" ">
<polygon fill="#e0e0e0" stroke="#999999" points="971.75,-240.25 881.5,-240.25 881.5,-221 971.75,-221 971.75,-240.25"/>
<text xml:space="preserve" text-anchor="middle" x="926.62" y="-226.75" font-family="Helvetica,sans-Serif" font-size="10.00">kernels/kernels.h</text>
</a>
</g>
</g>
<!-- Node1&#45;&gt;Node32 -->
<g id="edge57_Node000001_Node000032" class="edge">
<title>Node1&#45;&gt;Node32</title>
<g id="a_edge57_Node000001_Node000032"><a xlink:title=" ">
<path fill="none" stroke="#63b8ff" d="M851.89,-275.84C865.47,-267.81 885.58,-255.91 901.52,-246.48"/>
<polygon fill="#63b8ff" stroke="#63b8ff" points="903.16,-249.58 909.98,-241.47 899.59,-243.55 903.16,-249.58"/>
</a>
</g>
</g>
<!-- Node3 -->
<g id="Node000003" class="node">
<title>Node3</title>
<g id="a_Node000003"><a xlink:title=" ">
<polygon fill="#e0e0e0" stroke="#999999" points="502.25,-19.25 457,-19.25 457,0 502.25,0 502.25,-19.25"/>
<text xml:space="preserve" text-anchor="middle" x="479.62" y="-5.75" font-family="Helvetica,sans-Serif" font-size="10.00">cstring</text>
</a>
</g>
</g>
<!-- Node2&#45;&gt;Node3 -->
<g id="edge2_Node000002_Node000003" class="edge">
<title>Node2&#45;&gt;Node3</title>
<g id="a_edge2_Node000002_Node000003"><a xlink:title=" ">
<path fill="none" stroke="#63b8ff" d="M312.04,-110.16C331.07,-97.54 367.1,-73.98 398.62,-55.25 416.4,-44.69 436.79,-33.46 452.67,-24.91"/>
<polygon fill="#63b8ff" stroke="#63b8ff" points="453.88,-28.23 461.04,-20.42 450.57,-22.06 453.88,-28.23"/>
</a>
</g>
</g>
<!-- Node4 -->
<g id="Node000004" class="node">
<title>Node4</title>
<g id="a_Node000004"><a xlink:title=" ">
<polygon fill="#e0e0e0" stroke="#999999" points="45.25,-19.25 0,-19.25 0,0 45.25,0 45.25,-19.25"/>
<text xml:space="preserve" text-anchor="middle" x="22.62" y="-5.75" font-family="Helvetica,sans-Serif" font-size="10.00">chrono</text>
</a>
</g>
</g>
<!-- Node2&#45;&gt;Node4 -->
<g id="edge3_Node000002_Node000004" class="edge">
<title>Node2&#45;&gt;Node4</title>
<g id="a_edge3_Node000002_Node000004"><a xlink:title=" ">
<path fill="none" stroke="#63b8ff" d="M265.95,-110.03C237.31,-101.74 194.72,-88.66 158.62,-74.5 120.04,-59.36 76.95,-38.41 49.82,-24.69"/>
<polygon fill="#63b8ff" stroke="#63b8ff" points="51.76,-21.75 41.26,-20.32 48.58,-27.98 51.76,-21.75"/>
</a>
</g>
</g>
<!-- Node5 -->
<g id="Node000005" class="node">
<title>Node5</title>
<g id="a_Node000005"><a xlink:title=" ">
<polygon fill="#e0e0e0" stroke="#999999" points="108.25,-19.25 63,-19.25 63,0 108.25,0 108.25,-19.25"/>
<text xml:space="preserve" text-anchor="middle" x="85.62" y="-5.75" font-family="Helvetica,sans-Serif" font-size="10.00">cstdint</text>
</a>
</g>
</g>
<!-- Node2&#45;&gt;Node5 -->
<g id="edge4_Node000002_Node000005" class="edge">
<title>Node2&#45;&gt;Node5</title>
<g id="a_edge4_Node000002_Node000005"><a xlink:title=" ">
<path fill="none" stroke="#63b8ff" d="M276.01,-110.07C255.12,-101.51 223.37,-88 196.62,-74.5 165.95,-59.02 131.86,-38.96 109.66,-25.48"/>
<polygon fill="#63b8ff" stroke="#63b8ff" points="111.72,-22.64 101.36,-20.41 108.07,-28.61 111.72,-22.64"/>
</a>
</g>
</g>
<!-- Node6 -->
<g id="Node000006" class="node">
<title>Node6</title>
<g id="a_Node000006"><a xlink:title=" ">
<polygon fill="#e0e0e0" stroke="#999999" points="166.62,-19.25 126.62,-19.25 126.62,0 166.62,0 166.62,-19.25"/>
<text xml:space="preserve" text-anchor="middle" x="146.62" y="-5.75" font-family="Helvetica,sans-Serif" font-size="10.00">ctime</text>
</a>
</g>
</g>
<!-- Node2&#45;&gt;Node6 -->
<g id="edge5_Node000002_Node000006" class="edge">
<title>Node2&#45;&gt;Node6</title>
<g id="a_edge5_Node000002_Node000006"><a xlink:title=" ">
<path fill="none" stroke="#63b8ff" d="M282.03,-110.03C266.75,-101.44 243.63,-87.91 224.62,-74.5 203.31,-59.46 180.37,-40.28 164.93,-26.88"/>
<polygon fill="#63b8ff" stroke="#63b8ff" points="167.33,-24.33 157.5,-20.37 162.71,-29.59 167.33,-24.33"/>
</a>
</g>
</g>
<!-- Node7 -->
<g id="Node000007" class="node">
<title>Node7</title>
<g id="a_Node000007"><a xlink:title=" ">
<polygon fill="#e0e0e0" stroke="#999999" points="560.62,-19.25 520.62,-19.25 520.62,0 560.62,0 560.62,-19.25"/>
<text xml:space="preserve" text-anchor="middle" x="540.62" y="-5.75" font-family="Helvetica,sans-Serif" font-size="10.00">string</text>
</a>
</g>
</g>
<!-- Node2&#45;&gt;Node7 -->
<g id="edge6_Node000002_Node000007" class="edge">
<title>Node2&#45;&gt;Node7</title>
<g id="a_edge6_Node000002_Node000007"><a xlink:title=" ">
<path fill="none" stroke="#63b8ff" d="M320.13,-110.11C340.37,-101.46 371.39,-87.8 397.62,-74.5 413.11,-66.65 416,-62.83 431.62,-55.25 457.32,-42.78 487.42,-30.64 509.47,-22.17"/>
<polygon fill="#63b8ff" stroke="#63b8ff" points="510.68,-25.46 518.78,-18.64 508.19,-18.91 510.68,-25.46"/>
</a>
</g>
</g>
<!-- Node8 -->
<g id="Node000008" class="node">
<title>Node8</title>
<g id="a_Node000008"><a xlink:title=" ">
<polygon fill="#e0e0e0" stroke="#999999" points="630.25,-19.25 579,-19.25 579,0 630.25,0 630.25,-19.25"/>
<text xml:space="preserve" text-anchor="middle" x="604.62" y="-5.75" font-family="Helvetica,sans-Serif" font-size="10.00">sstream</text>
</a>
</g>
</g>
<!-- Node2&#45;&gt;Node8 -->
<g id="edge7_Node000002_Node000008" class="edge">
<title>Node2&#45;&gt;Node8</title>
<g id="a_edge7_Node000002_Node000008"><a xlink:title=" ">
<path fill="none" stroke="#63b8ff" d="M338.34,-114.44C380.15,-108.6 447.3,-96.56 501.62,-74.5 532.14,-62.11 563.86,-40.98 583.89,-26.44"/>
<polygon fill="#63b8ff" stroke="#63b8ff" points="585.81,-29.38 591.76,-20.61 581.64,-23.75 585.81,-29.38"/>
</a>
</g>
</g>
<!-- Node9 -->
<g id="Node000009" class="node">
<title>Node9</title>
<g id="a_Node000009"><a xlink:title=" ">
<polygon fill="#e0e0e0" stroke="#999999" points="438.5,-19.25 388.75,-19.25 388.75,0 438.5,0 438.5,-19.25"/>
<text xml:space="preserve" text-anchor="middle" x="413.62" y="-5.75" font-family="Helvetica,sans-Serif" font-size="10.00">iomanip</text>
</a>
</g>
</g>
<!-- Node2&#45;&gt;Node9 -->
<g id="edge8_Node000002_Node000009" class="edge">
<title>Node2&#45;&gt;Node9</title>
<g id="a_edge8_Node000002_Node000009"><a xlink:title=" ">
<path fill="none" stroke="#63b8ff" d="M299.85,-110.2C302.12,-96.76 308.13,-71.21 322.62,-55.25 337.29,-39.1 359.09,-28.13 377.68,-21.1"/>
<polygon fill="#63b8ff" stroke="#63b8ff" points="378.75,-24.44 387.03,-17.82 376.43,-17.83 378.75,-24.44"/>
</a>
</g>
</g>
<!-- Node10 -->
<g id="Node000010" class="node">
<title>Node10</title>
<g id="a_Node000010"><a xlink:title=" ">
<polygon fill="#e0e0e0" stroke="#999999" points="232.75,-19.25 184.5,-19.25 184.5,0 232.75,0 232.75,-19.25"/>
<text xml:space="preserve" text-anchor="middle" x="208.62" y="-5.75" font-family="Helvetica,sans-Serif" font-size="10.00">stdint.h</text>
</a>
</g>
</g>
<!-- Node2&#45;&gt;Node10 -->
<g id="edge9_Node000002_Node000010" class="edge">
<title>Node2&#45;&gt;Node10</title>
<g id="a_edge9_Node000002_Node000010"><a xlink:title=" ">
<path fill="none" stroke="#63b8ff" d="M283.27,-110.07C270.58,-102 252.75,-89.2 240.62,-74.5 229.64,-61.18 221.14,-43.46 215.67,-30.06"/>
<polygon fill="#63b8ff" stroke="#63b8ff" points="219.05,-29.11 212.2,-21.03 212.52,-31.62 219.05,-29.11"/>
</a>
</g>
</g>
<!-- Node11 -->
<g id="Node000011" class="node">
<title>Node11</title>
<g id="a_Node000011"><a xlink:title=" ">
<polygon fill="#e0e0e0" stroke="#999999" points="310,-19.25 251.25,-19.25 251.25,0 310,0 310,-19.25"/>
<text xml:space="preserve" text-anchor="middle" x="280.62" y="-5.75" font-family="Helvetica,sans-Serif" font-size="10.00">inttypes.h</text>
</a>
</g>
</g>
<!-- Node2&#45;&gt;Node11 -->
<g id="edge10_Node000002_Node000011" class="edge">
<title>Node2&#45;&gt;Node11</title>
<g id="a_edge10_Node000002_Node000011"><a xlink:title=" ">
<path fill="none" stroke="#63b8ff" d="M281.84,-110.07C269.55,-102.41 253.83,-90.17 246.62,-74.5 239.12,-58.18 250.61,-40.16 262.21,-27.43"/>
<polygon fill="#63b8ff" stroke="#63b8ff" points="264.41,-30.19 268.97,-20.63 259.44,-25.26 264.41,-30.19"/>
</a>
</g>
</g>
<!-- Node12 -->
<g id="Node000012" class="node">
<title>Node12</title>
<g id="a_Node000012"><a xlink:title=" ">
<polygon fill="#e0e0e0" stroke="#999999" points="691.12,-19.25 648.12,-19.25 648.12,0 691.12,0 691.12,-19.25"/>
<text xml:space="preserve" text-anchor="middle" x="669.62" y="-5.75" font-family="Helvetica,sans-Serif" font-size="10.00">mutex</text>
</a>
</g>
</g>
<!-- Node2&#45;&gt;Node12 -->
<g id="edge11_Node000002_Node000012" class="edge">
<title>Node2&#45;&gt;Node12</title>
<g id="a_edge11_Node000002_Node000012"><a xlink:title=" ">
<path fill="none" stroke="#63b8ff" d="M338.47,-114.66C385.83,-108.65 466.86,-96.13 533.62,-74.5 573.54,-61.57 616.98,-39.67 643.76,-25.18"/>
<polygon fill="#63b8ff" stroke="#63b8ff" points="645.42,-28.26 652.51,-20.38 642.06,-22.13 645.42,-28.26"/>
</a>
</g>
</g>
<!-- Node13 -->
<g id="Node000013" class="node">
<title>Node13</title>
<g id="a_Node000013"><a xlink:title=" ">
<polygon fill="#e0e0e0" stroke="#999999" points="371.12,-19.25 328.12,-19.25 328.12,0 371.12,0 371.12,-19.25"/>
<text xml:space="preserve" text-anchor="middle" x="349.62" y="-5.75" font-family="Helvetica,sans-Serif" font-size="10.00">thread</text>
</a>
</g>
</g>
<!-- Node2&#45;&gt;Node13 -->
<g id="edge12_Node000002_Node000013" class="edge">
<title>Node2&#45;&gt;Node13</title>
<g id="a_edge12_Node000002_Node000013"><a xlink:title=" ">
<path fill="none" stroke="#63b8ff" d="M293.14,-110.36C285.89,-97.57 275.11,-73.33 284.62,-55.25 291.77,-41.68 305.11,-31.44 317.86,-24.21"/>
<polygon fill="#63b8ff" stroke="#63b8ff" points="319.2,-27.46 326.48,-19.75 315.99,-21.24 319.2,-27.46"/>
</a>
</g>
</g>
<!-- Node14 -->
<g id="Node000014" class="node">
<title>Node14</title>
<g id="a_Node000014"><a xlink:href="_ctools_8h.html" target="_top" xlink:title="Ctorch 通用工具类，包含通用枚举类型和辅助函数">
<polygon fill="white" stroke="#666666" points="493,-74.5 440.25,-74.5 440.25,-55.25 493,-55.25 493,-74.5"/>
<text xml:space="preserve" text-anchor="middle" x="466.62" y="-61" font-family="Helvetica,sans-Serif" font-size="10.00">Ctools.h</text>
</a>
</g>
</g>
<!-- Node2&#45;&gt;Node14 -->
<g id="edge13_Node000002_Node000014" class="edge">
<title>Node2&#45;&gt;Node14</title>
<g id="a_edge13_Node000002_Node000014"><a xlink:title=" ">
<path fill="none" stroke="#63b8ff" d="M327.12,-110.09C355.22,-101.19 398.32,-87.53 429.17,-77.75"/>
<polygon fill="#63b8ff" stroke="#63b8ff" points="430.01,-81.15 438.49,-74.79 427.9,-74.48 430.01,-81.15"/>
</a>
</g>
</g>
<!-- Node14&#45;&gt;Node3 -->
<g id="edge14_Node000014_Node000003" class="edge">
<title>Node14&#45;&gt;Node3</title>
<g id="a_edge14_Node000014_Node000003"><a xlink:title=" ">
<path fill="none" stroke="#63b8ff" d="M468.77,-55.08C470.4,-48.42 472.7,-38.99 474.77,-30.53"/>
<polygon fill="#63b8ff" stroke="#63b8ff" points="478.1,-31.62 477.07,-21.08 471.3,-29.96 478.1,-31.62"/>
</a>
</g>
</g>
<!-- Node14&#45;&gt;Node4 -->
<g id="edge15_Node000014_Node000004" class="edge">
<title>Node14&#45;&gt;Node4</title>
<g id="a_edge15_Node000014_Node000004"><a xlink:title=" ">
<path fill="none" stroke="#63b8ff" d="M439.83,-62.5C375.33,-58.88 206.29,-47.47 56.74,-19.58"/>
<polygon fill="#63b8ff" stroke="#63b8ff" points="57.51,-16.16 47.04,-17.74 56.21,-23.04 57.51,-16.16"/>
</a>
</g>
</g>
<!-- Node14&#45;&gt;Node5 -->
<g id="edge16_Node000014_Node000005" class="edge">
<title>Node14&#45;&gt;Node5</title>
<g id="a_edge16_Node000014_Node000005"><a xlink:title=" ">
<path fill="none" stroke="#63b8ff" d="M440.16,-61.73C383.27,-56.86 245,-43.61 119.54,-19.37"/>
<polygon fill="#63b8ff" stroke="#63b8ff" points="120.58,-16.01 110.09,-17.51 119.23,-22.87 120.58,-16.01"/>
</a>
</g>
</g>
<!-- Node14&#45;&gt;Node6 -->
<g id="edge17_Node000014_Node000006" class="edge">
<title>Node14&#45;&gt;Node6</title>
<g id="a_edge17_Node000014_Node000006"><a xlink:title=" ">
<path fill="none" stroke="#63b8ff" d="M439.92,-61.02C390.21,-55.44 279.99,-41.84 177.93,-19.49"/>
<polygon fill="#63b8ff" stroke="#63b8ff" points="178.81,-16.1 168.29,-17.34 177.29,-22.93 178.81,-16.1"/>
</a>
</g>
</g>
<!-- Node14&#45;&gt;Node7 -->
<g id="edge18_Node000014_Node000007" class="edge">
<title>Node14&#45;&gt;Node7</title>
<g id="a_edge18_Node000014_Node000007"><a xlink:title=" ">
<path fill="none" stroke="#63b8ff" d="M479.18,-54.84C490.09,-46.99 506.13,-35.45 519.09,-26.12"/>
<polygon fill="#63b8ff" stroke="#63b8ff" points="520.96,-29.09 527.03,-20.41 516.87,-23.41 520.96,-29.09"/>
</a>
</g>
</g>
<!-- Node14&#45;&gt;Node8 -->
<g id="edge19_Node000014_Node000008" class="edge">
<title>Node14&#45;&gt;Node8</title>
<g id="a_edge19_Node000014_Node000008"><a xlink:title=" ">
<path fill="none" stroke="#63b8ff" d="M490.03,-54.84C512.14,-46.31 545.54,-33.42 570.59,-23.76"/>
<polygon fill="#63b8ff" stroke="#63b8ff" points="571.62,-27.11 579.69,-20.25 569.1,-20.58 571.62,-27.11"/>
</a>
</g>
</g>
<!-- Node14&#45;&gt;Node9 -->
<g id="edge20_Node000014_Node000009" class="edge">
<title>Node14&#45;&gt;Node9</title>
<g id="a_edge20_Node000014_Node000009"><a xlink:title=" ">
<path fill="none" stroke="#63b8ff" d="M457.87,-55.08C450.48,-47.65 439.66,-36.79 430.58,-27.66"/>
<polygon fill="#63b8ff" stroke="#63b8ff" points="433.17,-25.3 423.63,-20.68 428.21,-30.24 433.17,-25.3"/>
</a>
</g>
</g>
<!-- Node14&#45;&gt;Node10 -->
<g id="edge21_Node000014_Node000010" class="edge">
<title>Node14&#45;&gt;Node10</title>
<g id="a_edge21_Node000014_Node000010"><a xlink:title=" ">
<path fill="none" stroke="#63b8ff" d="M439.98,-59.03C399.8,-51.62 321.08,-36.73 243.97,-19.45"/>
<polygon fill="#63b8ff" stroke="#63b8ff" points="245.1,-16.12 234.58,-17.33 243.56,-22.95 245.1,-16.12"/>
</a>
</g>
</g>
<!-- Node14&#45;&gt;Node11 -->
<g id="edge22_Node000014_Node000011" class="edge">
<title>Node14&#45;&gt;Node11</title>
<g id="a_edge22_Node000014_Node000011"><a xlink:title=" ">
<path fill="none" stroke="#63b8ff" d="M439.98,-56.25C408.84,-47.33 357.01,-32.49 320.95,-22.17"/>
<polygon fill="#63b8ff" stroke="#63b8ff" points="322.33,-18.92 311.75,-19.54 320.41,-25.65 322.33,-18.92"/>
</a>
</g>
</g>
<!-- Node14&#45;&gt;Node12 -->
<g id="edge23_Node000014_Node000012" class="edge">
<title>Node14&#45;&gt;Node12</title>
<g id="a_edge23_Node000014_Node000012"><a xlink:title=" ">
<path fill="none" stroke="#63b8ff" d="M493.36,-57.22C525.34,-49.21 580.76,-35.16 636.84,-19.96"/>
<polygon fill="#63b8ff" stroke="#63b8ff" points="637.5,-23.41 646.23,-17.4 635.66,-16.65 637.5,-23.41"/>
</a>
</g>
</g>
<!-- Node14&#45;&gt;Node13 -->
<g id="edge24_Node000014_Node000013" class="edge">
<title>Node14&#45;&gt;Node13</title>
<g id="a_edge24_Node000014_Node000013"><a xlink:title=" ">
<path fill="none" stroke="#63b8ff" d="M446.78,-54.84C428.46,-46.5 400.98,-34 379.92,-24.41"/>
<polygon fill="#63b8ff" stroke="#63b8ff" points="381.5,-21.29 370.95,-20.33 378.6,-27.66 381.5,-21.29"/>
</a>
</g>
</g>
<!-- Node15 -->
<g id="Node000015" class="node">
<title>Node15</title>
<g id="a_Node000015"><a xlink:title=" ">
<polygon fill="#e0e0e0" stroke="#999999" points="770.12,-19.25 727.12,-19.25 727.12,0 770.12,0 770.12,-19.25"/>
<text xml:space="preserve" text-anchor="middle" x="748.62" y="-5.75" font-family="Helvetica,sans-Serif" font-size="10.00">vector</text>
</a>
</g>
</g>
<!-- Node14&#45;&gt;Node15 -->
<g id="edge25_Node000014_Node000015" class="edge">
<title>Node14&#45;&gt;Node15</title>
<g id="a_edge25_Node000014_Node000015"><a xlink:title=" ">
<path fill="none" stroke="#63b8ff" d="M493.41,-58.82C545.26,-49.03 659.22,-27.51 715.64,-16.85"/>
<polygon fill="#63b8ff" stroke="#63b8ff" points="716.1,-20.33 725.28,-15.03 714.8,-13.45 716.1,-20.33"/>
</a>
</g>
</g>
<!-- Node16 -->
<g id="Node000016" class="node">
<title>Node16</title>
<g id="a_Node000016"><a xlink:title=" ">
<polygon fill="#e0e0e0" stroke="#999999" points="1487.25,-19.25 1436,-19.25 1436,0 1487.25,0 1487.25,-19.25"/>
<text xml:space="preserve" text-anchor="middle" x="1461.62" y="-5.75" font-family="Helvetica,sans-Serif" font-size="10.00">memory</text>
</a>
</g>
</g>
<!-- Node14&#45;&gt;Node16 -->
<g id="edge26_Node000014_Node000016" class="edge">
<title>Node14&#45;&gt;Node16</title>
<g id="a_edge26_Node000014_Node000016"><a xlink:title=" ">
<path fill="none" stroke="#63b8ff" d="M493.5,-62.44C631.97,-55.03 1264.73,-21.16 1424.77,-12.6"/>
<polygon fill="#63b8ff" stroke="#63b8ff" points="1424.57,-16.11 1434.37,-12.08 1424.19,-9.12 1424.57,-16.11"/>
</a>
</g>
</g>
<!-- Node17 -->
<g id="Node000017" class="node">
<title>Node17</title>
<g id="a_Node000017"><a xlink:title=" ">
<polygon fill="#e0e0e0" stroke="#999999" points="1130.38,-19.25 1076.88,-19.25 1076.88,0 1130.38,0 1130.38,-19.25"/>
<text xml:space="preserve" text-anchor="middle" x="1103.62" y="-5.75" font-family="Helvetica,sans-Serif" font-size="10.00">iostream</text>
</a>
</g>
</g>
<!-- Node14&#45;&gt;Node17 -->
<g id="edge27_Node000014_Node000017" class="edge">
<title>Node14&#45;&gt;Node17</title>
<g id="a_edge27_Node000014_Node000017"><a xlink:title=" ">
<path fill="none" stroke="#63b8ff" d="M493.19,-61.65C593.24,-53.29 947.65,-23.66 1065.33,-13.83"/>
<polygon fill="#63b8ff" stroke="#63b8ff" points="1065.41,-17.33 1075.09,-13.01 1064.83,-10.36 1065.41,-17.33"/>
</a>
</g>
</g>
<!-- Node18&#45;&gt;Node2 -->
<g id="edge31_Node000018_Node000002" class="edge">
<title>Node18&#45;&gt;Node2</title>
<g id="a_edge31_Node000018_Node000002"><a xlink:title=" ">
<path fill="none" stroke="#63b8ff" d="M809.78,-230.14C718.72,-231.43 422.83,-231.87 342.62,-185 325.39,-174.93 313.37,-155.11 306.29,-140.2"/>
<polygon fill="#63b8ff" stroke="#63b8ff" points="309.66,-139.16 302.45,-131.39 303.24,-141.96 309.66,-139.16"/>
</a>
</g>
</g>
<!-- Node18&#45;&gt;Node3 -->
<g id="edge43_Node000018_Node000003" class="edge">
<title>Node18&#45;&gt;Node3</title>
<g id="a_edge43_Node000018_Node000003"><a xlink:title=" ">
<path fill="none" stroke="#63b8ff" d="M809.82,-226.56C775.37,-221.75 714.51,-210.21 668.62,-185 592.09,-142.95 522.17,-63.35 493.44,-28.14"/>
<polygon fill="#63b8ff" stroke="#63b8ff" points="496.4,-26.23 487.4,-20.63 490.94,-30.62 496.4,-26.23"/>
</a>
</g>
</g>
<!-- Node18&#45;&gt;Node7 -->
<g id="edge45_Node000018_Node000007" class="edge">
<title>Node18&#45;&gt;Node7</title>
<g id="a_edge45_Node000018_Node000007"><a xlink:title=" ">
<path fill="none" stroke="#63b8ff" d="M809.86,-225.56C780.06,-220.07 731.39,-208.19 695.62,-185 661.48,-162.85 585.42,-68.02 554.3,-28.26"/>
<polygon fill="#63b8ff" stroke="#63b8ff" points="557.25,-26.35 548.34,-20.62 551.73,-30.66 557.25,-26.35"/>
</a>
</g>
</g>
<!-- Node18&#45;&gt;Node8 -->
<g id="edge41_Node000018_Node000008" class="edge">
<title>Node18&#45;&gt;Node8</title>
<g id="a_edge41_Node000018_Node000008"><a xlink:title=" ">
<path fill="none" stroke="#63b8ff" d="M809.92,-225.42C783.52,-220.06 743.31,-208.5 716.62,-185 667.77,-141.97 687.01,-107.84 648.62,-55.25 641.28,-45.18 631.69,-35.19 623.35,-27.22"/>
<polygon fill="#63b8ff" stroke="#63b8ff" points="625.77,-24.7 616.05,-20.48 621.03,-29.84 625.77,-24.7"/>
</a>
</g>
</g>
<!-- Node18&#45;&gt;Node9 -->
<g id="edge44_Node000018_Node000009" class="edge">
<title>Node18&#45;&gt;Node9</title>
<g id="a_edge44_Node000018_Node000009"><a xlink:title=" ">
<path fill="none" stroke="#63b8ff" d="M809.78,-228.38C742.61,-224.88 569.09,-213.26 519.62,-185 465.11,-153.86 460.26,-130.37 431.62,-74.5 424.54,-60.67 419.92,-43.68 417.14,-30.7"/>
<polygon fill="#63b8ff" stroke="#63b8ff" points="420.64,-30.36 415.3,-21.2 413.77,-31.69 420.64,-30.36"/>
</a>
</g>
</g>
<!-- Node18&#45;&gt;Node14 -->
<g id="edge49_Node000018_Node000014" class="edge">
<title>Node18&#45;&gt;Node14</title>
<g id="a_edge49_Node000018_Node000014"><a xlink:title=" ">
<path fill="none" stroke="#63b8ff" d="M809.89,-228.3C746.36,-224.72 588.41,-213.15 544.62,-185 507.49,-161.13 484.21,-112.6 473.52,-85.42"/>
<polygon fill="#63b8ff" stroke="#63b8ff" points="476.91,-84.48 470.13,-76.33 470.35,-86.92 476.91,-84.48"/>
</a>
</g>
</g>
<!-- Node18&#45;&gt;Node15 -->
<g id="edge40_Node000018_Node000015" class="edge">
<title>Node18&#45;&gt;Node15</title>
<g id="a_edge40_Node000018_Node000015"><a xlink:title=" ">
<path fill="none" stroke="#63b8ff" d="M809.82,-226.73C784.35,-222.4 747.37,-211.63 729.62,-185 697.46,-136.73 723.67,-63.76 739.2,-29.57"/>
<polygon fill="#63b8ff" stroke="#63b8ff" points="742.18,-31.45 743.31,-20.91 735.86,-28.45 742.18,-31.45"/>
</a>
</g>
</g>
<!-- Node18&#45;&gt;Node16 -->
<g id="edge37_Node000018_Node000016" class="edge">
<title>Node18&#45;&gt;Node16</title>
<g id="a_edge37_Node000018_Node000016"><a xlink:title=" ">
<path fill="none" stroke="#63b8ff" d="M863.26,-222.71C866.4,-222.05 869.57,-221.46 872.62,-221 933.07,-211.85 1375.08,-224.63 1421.62,-185 1466.89,-146.45 1466.83,-68.05 1463.91,-30.95"/>
<polygon fill="#63b8ff" stroke="#63b8ff" points="1467.42,-30.81 1462.98,-21.19 1460.45,-31.48 1467.42,-30.81"/>
</a>
</g>
</g>
<!-- Node18&#45;&gt;Node17 -->
<g id="edge36_Node000018_Node000017" class="edge">
<title>Node18&#45;&gt;Node17</title>
<g id="a_edge36_Node000018_Node000017"><a xlink:title=" ">
<path fill="none" stroke="#63b8ff" d="M863.26,-222.72C866.4,-222.06 869.58,-221.47 872.62,-221 930.86,-212.11 1361.41,-228.05 1401.62,-185 1486.27,-94.4 1239.59,-36.37 1141.73,-17.42"/>
<polygon fill="#63b8ff" stroke="#63b8ff" points="1142.53,-14.01 1132.06,-15.59 1141.23,-20.89 1142.53,-14.01"/>
</a>
</g>
</g>
<!-- Node19 -->
<g id="Node000019" class="node">
<title>Node19</title>
<g id="a_Node000019"><a xlink:title=" ">
<polygon fill="#e0e0e0" stroke="#999999" points="794.5,-185 738.75,-185 738.75,-165.75 794.5,-165.75 794.5,-185"/>
<text xml:space="preserve" text-anchor="middle" x="766.62" y="-171.5" font-family="Helvetica,sans-Serif" font-size="10.00">algorithm</text>
</a>
</g>
</g>
<!-- Node18&#45;&gt;Node19 -->
<g id="edge29_Node000018_Node000019" class="edge">
<title>Node18&#45;&gt;Node19</title>
<g id="a_edge29_Node000018_Node000019"><a xlink:title=" ">
<path fill="none" stroke="#63b8ff" d="M824.75,-220.59C814.53,-212.82 799.55,-201.42 787.36,-192.15"/>
<polygon fill="#63b8ff" stroke="#63b8ff" points="789.61,-189.46 779.53,-186.19 785.37,-195.03 789.61,-189.46"/>
</a>
</g>
</g>
<!-- Node20 -->
<g id="Node000020" class="node">
<title>Node20</title>
<g id="a_Node000020"><a xlink:title=" ">
<polygon fill="#e0e0e0" stroke="#999999" points="860.75,-185 812.5,-185 812.5,-165.75 860.75,-165.75 860.75,-185"/>
<text xml:space="preserve" text-anchor="middle" x="836.62" y="-171.5" font-family="Helvetica,sans-Serif" font-size="10.00">cstddef</text>
</a>
</g>
</g>
<!-- Node18&#45;&gt;Node20 -->
<g id="edge30_Node000018_Node000020" class="edge">
<title>Node18&#45;&gt;Node20</title>
<g id="a_edge30_Node000018_Node000020"><a xlink:title=" ">
<path fill="none" stroke="#63b8ff" d="M836.62,-220.83C836.62,-214.32 836.62,-205.17 836.62,-196.87"/>
<polygon fill="#63b8ff" stroke="#63b8ff" points="840.13,-196.87 836.63,-186.87 833.13,-196.87 840.13,-196.87"/>
</a>
</g>
</g>
<!-- Node21 -->
<g id="Node000021" class="node">
<title>Node21</title>
<g id="a_Node000021"><a xlink:href="_storage_8h.html" target="_top" xlink:title="Ctorch 存储类，用于管理张量数据的底层存储">
<polygon fill="white" stroke="#666666" points="409.62,-185 351.62,-185 351.62,-165.75 409.62,-165.75 409.62,-185"/>
<text xml:space="preserve" text-anchor="middle" x="380.62" y="-171.5" font-family="Helvetica,sans-Serif" font-size="10.00">Storage.h</text>
</a>
</g>
</g>
<!-- Node18&#45;&gt;Node21 -->
<g id="edge32_Node000018_Node000021" class="edge">
<title>Node18&#45;&gt;Node21</title>
<g id="a_edge32_Node000018_Node000021"><a xlink:title=" ">
<path fill="none" stroke="#63b8ff" d="M809.94,-227.58C744.09,-222.36 568.68,-207.34 423.62,-185 422.64,-184.85 421.64,-184.69 420.63,-184.52"/>
<polygon fill="#63b8ff" stroke="#63b8ff" points="421.65,-181.15 411.2,-182.84 420.43,-188.04 421.65,-181.15"/>
</a>
</g>
</g>
<!-- Node22 -->
<g id="Node000022" class="node">
<title>Node22</title>
<g id="a_Node000022"><a xlink:title=" ">
<polygon fill="#e0e0e0" stroke="#999999" points="950.75,-185 878.5,-185 878.5,-165.75 950.75,-165.75 950.75,-185"/>
<text xml:space="preserve" text-anchor="middle" x="914.62" y="-171.5" font-family="Helvetica,sans-Serif" font-size="10.00">initializer_list</text>
</a>
</g>
</g>
<!-- Node18&#45;&gt;Node22 -->
<g id="edge35_Node000018_Node000022" class="edge">
<title>Node18&#45;&gt;Node22</title>
<g id="a_edge35_Node000018_Node000022"><a xlink:title=" ">
<path fill="none" stroke="#63b8ff" d="M849.86,-220.59C861.4,-212.71 878.39,-201.11 892.07,-191.77"/>
<polygon fill="#63b8ff" stroke="#63b8ff" points="893.79,-194.83 900.08,-186.31 889.85,-189.05 893.79,-194.83"/>
</a>
</g>
</g>
<!-- Node23 -->
<g id="Node000023" class="node">
<title>Node23</title>
<g id="a_Node000023"><a xlink:title=" ">
<polygon fill="#e0e0e0" stroke="#999999" points="1018.88,-185 968.38,-185 968.38,-165.75 1018.88,-165.75 1018.88,-185"/>
<text xml:space="preserve" text-anchor="middle" x="993.62" y="-171.5" font-family="Helvetica,sans-Serif" font-size="10.00">numeric</text>
</a>
</g>
</g>
<!-- Node18&#45;&gt;Node23 -->
<g id="edge38_Node000018_Node000023" class="edge">
<title>Node18&#45;&gt;Node23</title>
<g id="a_edge38_Node000018_Node000023"><a xlink:title=" ">
<path fill="none" stroke="#63b8ff" d="M863.26,-220.59C889.05,-211.84 928.38,-198.51 957.09,-188.77"/>
<polygon fill="#63b8ff" stroke="#63b8ff" points="958.13,-192.11 966.47,-185.58 955.88,-185.48 958.13,-192.11"/>
</a>
</g>
</g>
<!-- Node24 -->
<g id="Node000024" class="node">
<title>Node24</title>
<g id="a_Node000024"><a xlink:title=" ">
<polygon fill="#e0e0e0" stroke="#999999" points="1096,-185 1037.25,-185 1037.25,-165.75 1096,-165.75 1096,-185"/>
<text xml:space="preserve" text-anchor="middle" x="1066.62" y="-171.5" font-family="Helvetica,sans-Serif" font-size="10.00">stdexcept</text>
</a>
</g>
</g>
<!-- Node18&#45;&gt;Node24 -->
<g id="edge39_Node000018_Node000024" class="edge">
<title>Node18&#45;&gt;Node24</title>
<g id="a_edge39_Node000018_Node000024"><a xlink:title=" ">
<path fill="none" stroke="#63b8ff" d="M863.35,-223.19C866.48,-222.45 869.62,-221.71 872.62,-221 925.49,-208.59 986.54,-194.6 1025.81,-185.65"/>
<polygon fill="#63b8ff" stroke="#63b8ff" points="1026.58,-189.07 1035.55,-183.43 1025.02,-182.24 1026.58,-189.07"/>
</a>
</g>
</g>
<!-- Node25 -->
<g id="Node000025" class="node">
<title>Node25</title>
<g id="a_Node000025"><a xlink:title=" ">
<polygon fill="#e0e0e0" stroke="#999999" points="1171.62,-185 1113.62,-185 1113.62,-165.75 1171.62,-165.75 1171.62,-185"/>
<text xml:space="preserve" text-anchor="middle" x="1142.62" y="-171.5" font-family="Helvetica,sans-Serif" font-size="10.00">functional</text>
</a>
</g>
</g>
<!-- Node18&#45;&gt;Node25 -->
<g id="edge42_Node000018_Node000025" class="edge">
<title>Node18&#45;&gt;Node25</title>
<g id="a_edge42_Node000018_Node000025"><a xlink:title=" ">
<path fill="none" stroke="#63b8ff" d="M863.31,-222.98C866.44,-222.27 869.6,-221.6 872.62,-221 971.5,-201.52 1000.19,-204.33 1102.11,-185.36"/>
<polygon fill="#63b8ff" stroke="#63b8ff" points="1102.55,-188.84 1111.72,-183.54 1101.25,-181.96 1102.55,-188.84"/>
</a>
</g>
</g>
<!-- Node26 -->
<g id="Node000026" class="node">
<title>Node26</title>
<g id="a_Node000026"><a xlink:title=" ">
<polygon fill="#e0e0e0" stroke="#999999" points="1267.38,-185 1189.88,-185 1189.88,-165.75 1267.38,-165.75 1267.38,-185"/>
<text xml:space="preserve" text-anchor="middle" x="1228.62" y="-171.5" font-family="Helvetica,sans-Serif" font-size="10.00">unordered_set</text>
</a>
</g>
</g>
<!-- Node18&#45;&gt;Node26 -->
<g id="edge46_Node000018_Node000026" class="edge">
<title>Node18&#45;&gt;Node26</title>
<g id="a_edge46_Node000018_Node000026"><a xlink:title=" ">
<path fill="none" stroke="#63b8ff" d="M863.29,-222.86C866.42,-222.18 869.59,-221.54 872.62,-221 1004.74,-197.54 1042.33,-204.78 1178.35,-185.24"/>
<polygon fill="#63b8ff" stroke="#63b8ff" points="1178.74,-188.72 1188.13,-183.81 1177.73,-181.79 1178.74,-188.72"/>
</a>
</g>
</g>
<!-- Node27 -->
<g id="Node000027" class="node">
<title>Node27</title>
<g id="a_Node000027"><a xlink:title=" ">
<polygon fill="#e0e0e0" stroke="#999999" points="1324.25,-185 1285,-185 1285,-165.75 1324.25,-165.75 1324.25,-185"/>
<text xml:space="preserve" text-anchor="middle" x="1304.62" y="-171.5" font-family="Helvetica,sans-Serif" font-size="10.00">limits</text>
</a>
</g>
</g>
<!-- Node18&#45;&gt;Node27 -->
<g id="edge47_Node000018_Node000027" class="edge">
<title>Node18&#45;&gt;Node27</title>
<g id="a_edge47_Node000018_Node000027"><a xlink:title=" ">
<path fill="none" stroke="#63b8ff" d="M863.27,-222.78C866.41,-222.11 869.58,-221.5 872.62,-221 1046.88,-192.52 1097.66,-218.61 1273.36,-185.28"/>
<polygon fill="#63b8ff" stroke="#63b8ff" points="1273.93,-188.73 1283.08,-183.39 1272.6,-181.86 1273.93,-188.73"/>
</a>
</g>
</g>
<!-- Node28 -->
<g id="Node000028" class="node">
<title>Node28</title>
<g id="a_Node000028"><a xlink:title=" ">
<polygon fill="#e0e0e0" stroke="#999999" points="1377,-185 1342.25,-185 1342.25,-165.75 1377,-165.75 1377,-185"/>
<text xml:space="preserve" text-anchor="middle" x="1359.62" y="-171.5" font-family="Helvetica,sans-Serif" font-size="10.00">map</text>
</a>
</g>
</g>
<!-- Node18&#45;&gt;Node28 -->
<g id="edge48_Node000018_Node000028" class="edge">
<title>Node18&#45;&gt;Node28</title>
<g id="a_edge48_Node000018_Node000028"><a xlink:title=" ">
<path fill="none" stroke="#63b8ff" d="M863.27,-222.75C866.41,-222.08 869.58,-221.48 872.62,-221 1071.96,-189.54 1130.08,-224.35 1330.66,-185.13"/>
<polygon fill="#63b8ff" stroke="#63b8ff" points="1331.27,-188.58 1340.39,-183.19 1329.9,-181.72 1331.27,-188.58"/>
</a>
</g>
</g>
<!-- Node29 -->
<g id="Node000029" class="node">
<title>Node29</title>
<g id="a_Node000029"><a xlink:href="_auto_diff_8h.html" target="_top" xlink:title="Ctorch 自动微分系统">
<polygon fill="white" stroke="#666666" points="885.75,-129.75 825.5,-129.75 825.5,-110.5 885.75,-110.5 885.75,-129.75"/>
<text xml:space="preserve" text-anchor="middle" x="855.62" y="-116.25" font-family="Helvetica,sans-Serif" font-size="10.00">AutoDiff.h</text>
</a>
</g>
</g>
<!-- Node18&#45;&gt;Node29 -->
<g id="edge50_Node000018_Node000029" class="edge">
<title>Node18&#45;&gt;Node29</title>
<g id="a_edge50_Node000018_Node000029"><a xlink:title=" ">
<path fill="none" stroke="#63b8ff" d="M863.26,-222.72C866.4,-222.07 869.58,-221.47 872.62,-221 929.1,-212.31 1346.66,-226.79 1385.62,-185 1391.46,-178.74 1391.42,-172.05 1385.62,-165.75 1352.78,-130.02 1016.39,-122.88 897.21,-121.47"/>
<polygon fill="#63b8ff" stroke="#63b8ff" points="897.6,-117.97 887.56,-121.36 897.52,-124.97 897.6,-117.97"/>
</a>
</g>
</g>
<!-- Node21&#45;&gt;Node2 -->
<g id="edge34_Node000021_Node000002" class="edge">
<title>Node21&#45;&gt;Node2</title>
<g id="a_edge34_Node000021_Node000002"><a xlink:title=" ">
<path fill="none" stroke="#63b8ff" d="M366.71,-165.34C354.46,-157.39 336.37,-145.64 321.91,-136.25"/>
<polygon fill="#63b8ff" stroke="#63b8ff" points="324.17,-133.54 313.87,-131.03 320.35,-139.41 324.17,-133.54"/>
</a>
</g>
</g>
<!-- Node21&#45;&gt;Node14 -->
<g id="edge33_Node000021_Node000014" class="edge">
<title>Node21&#45;&gt;Node14</title>
<g id="a_edge33_Node000021_Node000014"><a xlink:title=" ">
<path fill="none" stroke="#63b8ff" d="M387.66,-165.5C401.77,-147.69 433.76,-107.33 452.41,-83.81"/>
<polygon fill="#63b8ff" stroke="#63b8ff" points="455.08,-86.07 458.55,-76.06 449.6,-81.73 455.08,-86.07"/>
</a>
</g>
</g>
<!-- Node29&#45;&gt;Node12 -->
<g id="edge54_Node000029_Node000012" class="edge">
<title>Node29&#45;&gt;Node12</title>
<g id="a_edge54_Node000029_Node000012"><a xlink:title=" ">
<path fill="none" stroke="#63b8ff" d="M840.09,-110.06C808.02,-91.35 734.22,-48.31 695.08,-25.48"/>
<polygon fill="#63b8ff" stroke="#63b8ff" points="696.96,-22.52 686.56,-20.5 693.43,-28.56 696.96,-22.52"/>
</a>
</g>
</g>
<!-- Node29&#45;&gt;Node14 -->
<g id="edge51_Node000029_Node000014" class="edge">
<title>Node29&#45;&gt;Node14</title>
<g id="a_edge51_Node000029_Node000014"><a xlink:title=" ">
<path fill="none" stroke="#63b8ff" d="M825.1,-114.95C754.74,-105.32 581.32,-81.58 504.41,-71.05"/>
<polygon fill="#63b8ff" stroke="#63b8ff" points="505.23,-67.63 494.85,-69.74 504.29,-74.56 505.23,-67.63"/>
</a>
</g>
</g>
<!-- Node29&#45;&gt;Node15 -->
<g id="edge52_Node000029_Node000015" class="edge">
<title>Node29&#45;&gt;Node15</title>
<g id="a_edge52_Node000029_Node000015"><a xlink:title=" ">
<path fill="none" stroke="#63b8ff" d="M844.97,-110.23C834.62,-101.45 818.62,-87.5 805.62,-74.5 790.57,-59.45 774.52,-41.24 763.3,-28.12"/>
<polygon fill="#63b8ff" stroke="#63b8ff" points="766.18,-26.11 757.04,-20.75 760.84,-30.64 766.18,-26.11"/>
</a>
</g>
</g>
<!-- Node29&#45;&gt;Node16 -->
<g id="edge56_Node000029_Node000016" class="edge">
<title>Node29&#45;&gt;Node16</title>
<g id="a_edge56_Node000029_Node000016"><a xlink:title=" ">
<path fill="none" stroke="#63b8ff" d="M886.09,-113.67C987.52,-95.51 1313.61,-37.13 1424.39,-17.29"/>
<polygon fill="#63b8ff" stroke="#63b8ff" points="1424.9,-20.76 1434.13,-15.55 1423.67,-13.86 1424.9,-20.76"/>
</a>
</g>
</g>
<!-- Node30 -->
<g id="Node000030" class="node">
<title>Node30</title>
<g id="a_Node000030"><a xlink:title=" ">
<polygon fill="#e0e0e0" stroke="#999999" points="897,-74.5 814.25,-74.5 814.25,-55.25 897,-55.25 897,-74.5"/>
<text xml:space="preserve" text-anchor="middle" x="855.62" y="-61" font-family="Helvetica,sans-Serif" font-size="10.00">unordered_map</text>
</a>
</g>
</g>
<!-- Node29&#45;&gt;Node30 -->
<g id="edge53_Node000029_Node000030" class="edge">
<title>Node29&#45;&gt;Node30</title>
<g id="a_edge53_Node000029_Node000030"><a xlink:title=" ">
<path fill="none" stroke="#63b8ff" d="M855.62,-110.33C855.62,-103.82 855.62,-94.67 855.62,-86.37"/>
<polygon fill="#63b8ff" stroke="#63b8ff" points="859.13,-86.37 855.63,-76.37 852.13,-86.37 859.13,-86.37"/>
</a>
</g>
</g>
<!-- Node31 -->
<g id="Node000031" class="node">
<title>Node31</title>
<g id="a_Node000031"><a xlink:title=" ">
<polygon fill="#e0e0e0" stroke="#999999" points="960.25,-74.5 915,-74.5 915,-55.25 960.25,-55.25 960.25,-74.5"/>
<text xml:space="preserve" text-anchor="middle" x="937.62" y="-61" font-family="Helvetica,sans-Serif" font-size="10.00">atomic</text>
</a>
</g>
</g>
<!-- Node29&#45;&gt;Node31 -->
<g id="edge55_Node000029_Node000031" class="edge">
<title>Node29&#45;&gt;Node31</title>
<g id="a_edge55_Node000029_Node000031"><a xlink:title=" ">
<path fill="none" stroke="#63b8ff" d="M869.54,-110.09C881.79,-102.14 899.88,-90.39 914.34,-81"/>
<polygon fill="#63b8ff" stroke="#63b8ff" points="915.9,-84.16 922.38,-75.78 912.08,-78.29 915.9,-84.16"/>
</a>
</g>
</g>
</g>
</svg>
