<?xml version="1.0" encoding="UTF-8" standalone="no"?>
<!DOCTYPE svg PUBLIC "-//W3C//DTD SVG 1.1//EN"
 "http://www.w3.org/Graphics/SVG/1.1/DTD/svg11.dtd">
<!-- Generated by graphviz version 14.1.1 (20251213.1925)
 -->
<!-- Title: /Users/ghostface/CLionProjects/Ctorch_2.13/CTorch/src/dev/Ctorch_Error.h Pages: 1 -->
<svg width="1570pt" height="361pt"
 viewBox="0.00 0.00 1570.00 361.00" xmlns="http://www.w3.org/2000/svg" xmlns:xlink="http://www.w3.org/1999/xlink">
<g id="graph0" class="graph" transform="scale(1 1) rotate(0) translate(4 356.75)">
<title>/Users/ghostface/CLionProjects/Ctorch_2.13/CTorch/src/dev/Ctorch_Error.h</title>
<!-- Node1 -->
<g id="Node000001" class="node">
<title>Node1</title>
<g id="a_Node000001"><a xlink:title="Ctorch 错误处理类">
<polygon fill="#999999" stroke="#666666" points="972.5,-352.75 817,-352.75 817,-311 972.5,-311 972.5,-352.75"/>
<text xml:space="preserve" text-anchor="start" x="825" y="-339.25" font-family="Helvetica,sans-Serif" font-size="10.00">/Users/ghostface/CLionProjects</text>
<text xml:space="preserve" text-anchor="start" x="825" y="-328" font-family="Helvetica,sans-Serif" font-size="10.00">/Ctorch_2.13/CTorch/src/dev</text>
<text xml:space="preserve" text-anchor="middle" x="894.75" y="-316.75" font-family="Helvetica,sans-Serif" font-size="10.00">/Ctorch_Error.h</text>
</a>
</g>
</g>
<!-- Node2 -->
<g id="Node000002" class="node">
<title>Node2</title>
<g id="a_Node000002"><a xlink:href="_ctorch___scheduler_8h.html" target="_top" xlink:title="Ctorch 框架的核心调度器类">
<polygon fill="white" stroke="#666666" points="261.5,-119.5 106,-119.5 106,-77.75 261.5,-77.75 261.5,-119.5"/>
<text xml:space="preserve" text-anchor="start" x="114" y="-106" font-family="Helvetica,sans-Serif" font-size="10.00">/Users/ghostface/CLionProjects</text>
<text xml:space="preserve" text-anchor="start" x="114" y="-94.75" font-family="Helvetica,sans-Serif" font-size="10.00">/Ctorch_2.13/CTorch/src/dev</text>
<text xml:space="preserve" text-anchor="middle" x="183.75" y="-83.5" font-family="Helvetica,sans-Serif" font-size="10.00">/Ctorch_Scheduler.h</text>
</a>
</g>
</g>
<!-- Node1&#45;&gt;Node2 -->
<g id="edge1_Node000001_Node000002" class="edge">
<title>Node1&#45;&gt;Node2</title>
<g id="a_edge1_Node000001_Node000002"><a xlink:title=" ">
<path fill="none" stroke="#63b8ff" d="M805.54,-313.2C759.53,-303.35 702.72,-290.04 652.75,-275 495.84,-227.77 315.72,-155.01 231.65,-119.92"/>
<polygon fill="#63b8ff" stroke="#63b8ff" points="804.7,-316.6 815.21,-315.25 806.15,-309.75 804.7,-316.6"/>
</a>
</g>
</g>
<!-- Node4 -->
<g id="Node000004" class="node">
<title>Node4</title>
<g id="a_Node000004"><a xlink:href="large__scale__test_8cpp.html" target="_top" xlink:title="大规模Tensor计算测试和20个节点的自动微分测试">
<polygon fill="white" stroke="#666666" points="155.5,-41.75 0,-41.75 0,0 155.5,0 155.5,-41.75"/>
<text xml:space="preserve" text-anchor="start" x="8" y="-28.25" font-family="Helvetica,sans-Serif" font-size="10.00">/Users/ghostface/CLionProjects</text>
<text xml:space="preserve" text-anchor="start" x="8" y="-17" font-family="Helvetica,sans-Serif" font-size="10.00">/Ctorch_2.13/CTorch/src/dev</text>
<text xml:space="preserve" text-anchor="middle" x="77.75" y="-5.75" font-family="Helvetica,sans-Serif" font-size="10.00">/large_scale_test.cpp</text>
</a>
</g>
</g>
<!-- Node1&#45;&gt;Node4 -->
<g id="edge20_Node000001_Node000004" class="edge">
<title>Node1&#45;&gt;Node4</title>
<g id="a_edge20_Node000001_Node000004"><a xlink:title=" ">
<path fill="none" stroke="#63b8ff" d="M805.39,-321.78C730.53,-313.09 621.23,-297.9 527.75,-275 320.18,-224.16 197.05,-293.34 72.75,-119.5 56.56,-96.86 63.17,-63.16 70,-41.87"/>
<polygon fill="#63b8ff" stroke="#63b8ff" points="804.8,-325.24 815.13,-322.9 805.6,-318.28 804.8,-325.24"/>
</a>
</g>
</g>
<!-- Node6 -->
<g id="Node000006" class="node">
<title>Node6</title>
<g id="a_Node000006"><a xlink:href="_storage_8h.html" target="_top" xlink:title="Ctorch 存储类，用于管理张量数据的底层存储">
<polygon fill="white" stroke="#666666" points="866.5,-275 711,-275 711,-233.25 866.5,-233.25 866.5,-275"/>
<text xml:space="preserve" text-anchor="start" x="719" y="-261.5" font-family="Helvetica,sans-Serif" font-size="10.00">/Users/ghostface/CLionProjects</text>
<text xml:space="preserve" text-anchor="start" x="719" y="-250.25" font-family="Helvetica,sans-Serif" font-size="10.00">/Ctorch_2.13/CTorch/src/dev</text>
<text xml:space="preserve" text-anchor="middle" x="788.75" y="-239" font-family="Helvetica,sans-Serif" font-size="10.00">/Storage.h</text>
</a>
</g>
</g>
<!-- Node1&#45;&gt;Node6 -->
<g id="edge5_Node000001_Node000006" class="edge">
<title>Node1&#45;&gt;Node6</title>
<g id="a_edge5_Node000001_Node000006"><a xlink:title=" ">
<path fill="none" stroke="#63b8ff" d="M857.09,-303.96C843.97,-294.59 829.48,-284.23 817.23,-275.48"/>
<polygon fill="#63b8ff" stroke="#63b8ff" points="854.94,-306.73 865.11,-309.7 859.01,-301.03 854.94,-306.73"/>
</a>
</g>
</g>
<!-- Node8 -->
<g id="Node000008" class="node">
<title>Node8</title>
<g id="a_Node000008"><a xlink:href="_tensor_8h.html" target="_top" xlink:title="张量类和相关操作的定义">
<polygon fill="white" stroke="#666666" points="692.5,-197.25 537,-197.25 537,-155.5 692.5,-155.5 692.5,-197.25"/>
<text xml:space="preserve" text-anchor="start" x="545" y="-183.75" font-family="Helvetica,sans-Serif" font-size="10.00">/Users/ghostface/CLionProjects</text>
<text xml:space="preserve" text-anchor="start" x="545" y="-172.5" font-family="Helvetica,sans-Serif" font-size="10.00">/Ctorch_2.13/CTorch/src/dev</text>
<text xml:space="preserve" text-anchor="middle" x="614.75" y="-161.25" font-family="Helvetica,sans-Serif" font-size="10.00">/Tensor.h</text>
</a>
</g>
</g>
<!-- Node1&#45;&gt;Node8 -->
<g id="edge19_Node000001_Node000008" class="edge">
<title>Node1&#45;&gt;Node8</title>
<g id="a_edge19_Node000001_Node000008"><a xlink:title=" ">
<path fill="none" stroke="#63b8ff" d="M805.86,-316.12C771.52,-307.69 733.04,-294.72 701.75,-275 669.87,-254.91 642.75,-219.82 627.63,-197.64"/>
<polygon fill="#63b8ff" stroke="#63b8ff" points="804.84,-319.47 815.38,-318.35 806.44,-312.66 804.84,-319.47"/>
</a>
</g>
</g>
<!-- Node10 -->
<g id="Node000010" class="node">
<title>Node10</title>
<g id="a_Node000010"><a xlink:href="performance__test_8cpp.html" target="_top" xlink:title=" ">
<polygon fill="white" stroke="#666666" points="859.5,-119.5 704,-119.5 704,-77.75 859.5,-77.75 859.5,-119.5"/>
<text xml:space="preserve" text-anchor="start" x="712" y="-106" font-family="Helvetica,sans-Serif" font-size="10.00">/Users/ghostface/CLionProjects</text>
<text xml:space="preserve" text-anchor="start" x="712" y="-94.75" font-family="Helvetica,sans-Serif" font-size="10.00">/Ctorch_2.13/CTorch/src/dev</text>
<text xml:space="preserve" text-anchor="middle" x="781.75" y="-83.5" font-family="Helvetica,sans-Serif" font-size="10.00">/performance_test.cpp</text>
</a>
</g>
</g>
<!-- Node1&#45;&gt;Node10 -->
<g id="edge21_Node000001_Node000010" class="edge">
<title>Node1&#45;&gt;Node10</title>
<g id="a_edge21_Node000001_Node000010"><a xlink:title=" ">
<path fill="none" stroke="#63b8ff" d="M899.31,-299.39C903.04,-262 903.84,-199.21 875.75,-155.5 865.9,-140.17 850.21,-128.48 834.46,-119.85"/>
<polygon fill="#63b8ff" stroke="#63b8ff" points="895.86,-298.74 898.2,-309.08 902.82,-299.54 895.86,-298.74"/>
</a>
</g>
</g>
<!-- Node12 -->
<g id="Node000012" class="node">
<title>Node12</title>
<g id="a_Node000012"><a xlink:href="test__activation__loss_8cpp.html" target="_top" xlink:title="测试激活函数和损失函数">
<polygon fill="white" stroke="#666666" points="1033.5,-119.5 878,-119.5 878,-77.75 1033.5,-77.75 1033.5,-119.5"/>
<text xml:space="preserve" text-anchor="start" x="886" y="-106" font-family="Helvetica,sans-Serif" font-size="10.00">/Users/ghostface/CLionProjects</text>
<text xml:space="preserve" text-anchor="start" x="886" y="-94.75" font-family="Helvetica,sans-Serif" font-size="10.00">/Ctorch_2.13/CTorch/src/dev</text>
<text xml:space="preserve" text-anchor="middle" x="955.75" y="-83.5" font-family="Helvetica,sans-Serif" font-size="10.00">/test_activation_loss.cpp</text>
</a>
</g>
</g>
<!-- Node1&#45;&gt;Node12 -->
<g id="edge22_Node000001_Node000012" class="edge">
<title>Node1&#45;&gt;Node12</title>
<g id="a_edge22_Node000001_Node000012"><a xlink:title=" ">
<path fill="none" stroke="#63b8ff" d="M902.95,-299.78C915.65,-251.63 939.73,-160.36 950.41,-119.86"/>
<polygon fill="#63b8ff" stroke="#63b8ff" points="899.61,-298.73 900.44,-309.29 906.38,-300.52 899.61,-298.73"/>
</a>
</g>
</g>
<!-- Node13 -->
<g id="Node000013" class="node">
<title>Node13</title>
<g id="a_Node000013"><a xlink:href="test__autodiff__comprehensive_8cpp.html" target="_top" xlink:title=" ">
<polygon fill="white" stroke="#666666" points="1214.25,-119.5 1051.25,-119.5 1051.25,-77.75 1214.25,-77.75 1214.25,-119.5"/>
<text xml:space="preserve" text-anchor="start" x="1059.25" y="-106" font-family="Helvetica,sans-Serif" font-size="10.00">/Users/ghostface/CLionProjects</text>
<text xml:space="preserve" text-anchor="start" x="1059.25" y="-94.75" font-family="Helvetica,sans-Serif" font-size="10.00">/Ctorch_2.13/CTorch/src/dev</text>
<text xml:space="preserve" text-anchor="middle" x="1132.75" y="-83.5" font-family="Helvetica,sans-Serif" font-size="10.00">/test_autodiff_comprehensive.cpp</text>
</a>
</g>
</g>
<!-- Node1&#45;&gt;Node13 -->
<g id="edge23_Node000001_Node000013" class="edge">
<title>Node1&#45;&gt;Node13</title>
<g id="a_edge23_Node000001_Node000013"><a xlink:title=" ">
<path fill="none" stroke="#63b8ff" d="M923.67,-302.77C972.32,-255.51 1069.36,-161.22 1111.92,-119.86"/>
<polygon fill="#63b8ff" stroke="#63b8ff" points="921.27,-300.22 916.54,-309.7 926.15,-305.24 921.27,-300.22"/>
</a>
</g>
</g>
<!-- Node14 -->
<g id="Node000014" class="node">
<title>Node14</title>
<g id="a_Node000014"><a xlink:href="test__linear__regression_8cpp.html" target="_top" xlink:title=" ">
<polygon fill="white" stroke="#666666" points="1387.5,-119.5 1232,-119.5 1232,-77.75 1387.5,-77.75 1387.5,-119.5"/>
<text xml:space="preserve" text-anchor="start" x="1240" y="-106" font-family="Helvetica,sans-Serif" font-size="10.00">/Users/ghostface/CLionProjects</text>
<text xml:space="preserve" text-anchor="start" x="1240" y="-94.75" font-family="Helvetica,sans-Serif" font-size="10.00">/Ctorch_2.13/CTorch/src/dev</text>
<text xml:space="preserve" text-anchor="middle" x="1309.75" y="-83.5" font-family="Helvetica,sans-Serif" font-size="10.00">/test_linear_regression.cpp</text>
</a>
</g>
</g>
<!-- Node1&#45;&gt;Node14 -->
<g id="edge24_Node000001_Node000014" class="edge">
<title>Node1&#45;&gt;Node14</title>
<g id="a_edge24_Node000001_Node000014"><a xlink:title=" ">
<path fill="none" stroke="#63b8ff" d="M941.16,-305.02C1024.46,-258.6 1197.69,-162.07 1273.22,-119.98"/>
<polygon fill="#63b8ff" stroke="#63b8ff" points="939.57,-301.89 932.54,-309.82 942.98,-308.01 939.57,-301.89"/>
</a>
</g>
</g>
<!-- Node15 -->
<g id="Node000015" class="node">
<title>Node15</title>
<g id="a_Node000015"><a xlink:href="test__tensor__grad_8cpp.html" target="_top" xlink:title=" ">
<polygon fill="white" stroke="#666666" points="1561.5,-119.5 1406,-119.5 1406,-77.75 1561.5,-77.75 1561.5,-119.5"/>
<text xml:space="preserve" text-anchor="start" x="1414" y="-106" font-family="Helvetica,sans-Serif" font-size="10.00">/Users/ghostface/CLionProjects</text>
<text xml:space="preserve" text-anchor="start" x="1414" y="-94.75" font-family="Helvetica,sans-Serif" font-size="10.00">/Ctorch_2.13/CTorch/src/dev</text>
<text xml:space="preserve" text-anchor="middle" x="1483.75" y="-83.5" font-family="Helvetica,sans-Serif" font-size="10.00">/test_tensor_grad.cpp</text>
</a>
</g>
</g>
<!-- Node1&#45;&gt;Node15 -->
<g id="edge25_Node000001_Node000015" class="edge">
<title>Node1&#45;&gt;Node15</title>
<g id="a_edge25_Node000001_Node000015"><a xlink:title=" ">
<path fill="none" stroke="#63b8ff" d="M962.36,-306.72C989.03,-297.05 1019.9,-285.68 1047.75,-275 1189.06,-220.79 1354.5,-153.06 1434.91,-119.87"/>
<polygon fill="#63b8ff" stroke="#63b8ff" points="961.22,-303.4 953.01,-310.1 963.6,-309.99 961.22,-303.4"/>
</a>
</g>
</g>
<!-- Node3 -->
<g id="Node000003" class="node">
<title>Node3</title>
<g id="a_Node000003"><a xlink:href="_tensor_8cpp.html" target="_top" xlink:title="张量类的实现">
<polygon fill="white" stroke="#666666" points="550.5,-41.75 395,-41.75 395,0 550.5,0 550.5,-41.75"/>
<text xml:space="preserve" text-anchor="start" x="403" y="-28.25" font-family="Helvetica,sans-Serif" font-size="10.00">/Users/ghostface/CLionProjects</text>
<text xml:space="preserve" text-anchor="start" x="403" y="-17" font-family="Helvetica,sans-Serif" font-size="10.00">/Ctorch_2.13/CTorch/src/dev</text>
<text xml:space="preserve" text-anchor="middle" x="472.75" y="-5.75" font-family="Helvetica,sans-Serif" font-size="10.00">/Tensor.cpp</text>
</a>
</g>
</g>
<!-- Node2&#45;&gt;Node3 -->
<g id="edge2_Node000002_Node000003" class="edge">
<title>Node2&#45;&gt;Node3</title>
<g id="a_edge2_Node000002_Node000003"><a xlink:title=" ">
<path fill="none" stroke="#63b8ff" d="M272.08,-74.47C311.35,-64.18 357.16,-52.17 395.09,-42.23"/>
<polygon fill="#63b8ff" stroke="#63b8ff" points="271.45,-71.02 262.66,-76.94 273.22,-77.79 271.45,-71.02"/>
</a>
</g>
</g>
<!-- Node2&#45;&gt;Node4 -->
<g id="edge3_Node000002_Node000004" class="edge">
<title>Node2&#45;&gt;Node4</title>
<g id="a_edge3_Node000002_Node000004"><a xlink:title=" ">
<path fill="none" stroke="#63b8ff" d="M146.09,-70.71C132.97,-61.34 118.48,-50.98 106.23,-42.23"/>
<polygon fill="#63b8ff" stroke="#63b8ff" points="143.94,-73.48 154.11,-76.45 148.01,-67.78 143.94,-73.48"/>
</a>
</g>
</g>
<!-- Node5 -->
<g id="Node000005" class="node">
<title>Node5</title>
<g id="a_Node000005"><a xlink:href="main_8cpp.html" target="_top" xlink:title=" ">
<polygon fill="white" stroke="#666666" points="348.5,-41.75 193,-41.75 193,0 348.5,0 348.5,-41.75"/>
<text xml:space="preserve" text-anchor="start" x="201" y="-28.25" font-family="Helvetica,sans-Serif" font-size="10.00">/Users/ghostface/CLionProjects</text>
<text xml:space="preserve" text-anchor="start" x="201" y="-17" font-family="Helvetica,sans-Serif" font-size="10.00">/Ctorch_2.13/CTorch/src/dev</text>
<text xml:space="preserve" text-anchor="middle" x="270.75" y="-5.75" font-family="Helvetica,sans-Serif" font-size="10.00">/main.cpp</text>
</a>
</g>
</g>
<!-- Node2&#45;&gt;Node5 -->
<g id="edge4_Node000002_Node000005" class="edge">
<title>Node2&#45;&gt;Node5</title>
<g id="a_edge4_Node000002_Node000005"><a xlink:title=" ">
<path fill="none" stroke="#63b8ff" d="M215.61,-69.89C226.12,-60.73 237.61,-50.73 247.37,-42.23"/>
<polygon fill="#63b8ff" stroke="#63b8ff" points="213.45,-67.13 208.21,-76.33 218.05,-72.4 213.45,-67.13"/>
</a>
</g>
</g>
<!-- Node7 -->
<g id="Node000007" class="node">
<title>Node7</title>
<g id="a_Node000007"><a xlink:href="_storage_8cpp.html" target="_top" xlink:title="Ctorch 存储类实现">
<polygon fill="white" stroke="#666666" points="866.5,-197.25 711,-197.25 711,-155.5 866.5,-155.5 866.5,-197.25"/>
<text xml:space="preserve" text-anchor="start" x="719" y="-183.75" font-family="Helvetica,sans-Serif" font-size="10.00">/Users/ghostface/CLionProjects</text>
<text xml:space="preserve" text-anchor="start" x="719" y="-172.5" font-family="Helvetica,sans-Serif" font-size="10.00">/Ctorch_2.13/CTorch/src/dev</text>
<text xml:space="preserve" text-anchor="middle" x="788.75" y="-161.25" font-family="Helvetica,sans-Serif" font-size="10.00">/Storage.cpp</text>
</a>
</g>
</g>
<!-- Node6&#45;&gt;Node7 -->
<g id="edge6_Node000006_Node000007" class="edge">
<title>Node6&#45;&gt;Node7</title>
<g id="a_edge6_Node000006_Node000007"><a xlink:title=" ">
<path fill="none" stroke="#63b8ff" d="M788.75,-221.5C788.75,-213.46 788.75,-205.04 788.75,-197.73"/>
<polygon fill="#63b8ff" stroke="#63b8ff" points="785.25,-221.31 788.75,-231.31 792.25,-221.31 785.25,-221.31"/>
</a>
</g>
</g>
<!-- Node6&#45;&gt;Node8 -->
<g id="edge7_Node000006_Node000008" class="edge">
<title>Node6&#45;&gt;Node8</title>
<g id="a_edge7_Node000006_Node000008"><a xlink:title=" ">
<path fill="none" stroke="#63b8ff" d="M731.59,-228.24C708.88,-218.35 683.08,-207.12 661.51,-197.73"/>
<polygon fill="#63b8ff" stroke="#63b8ff" points="730.17,-231.44 740.73,-232.22 732.96,-225.02 730.17,-231.44"/>
</a>
</g>
</g>
<!-- Node8&#45;&gt;Node2 -->
<g id="edge9_Node000008_Node000002" class="edge">
<title>Node8&#45;&gt;Node2</title>
<g id="a_edge9_Node000008_Node000002"><a xlink:title=" ">
<path fill="none" stroke="#63b8ff" d="M525.63,-161.92C457.14,-151.28 360.26,-135.58 275.75,-119.5 271.26,-118.64 266.64,-117.74 261.99,-116.8"/>
<polygon fill="#63b8ff" stroke="#63b8ff" points="524.89,-165.34 535.31,-163.42 525.96,-158.43 524.89,-165.34"/>
</a>
</g>
</g>
<!-- Node8&#45;&gt;Node3 -->
<g id="edge10_Node000008_Node000003" class="edge">
<title>Node8&#45;&gt;Node3</title>
<g id="a_edge10_Node000008_Node000003"><a xlink:title=" ">
<path fill="none" stroke="#63b8ff" d="M558.97,-149.37C545.31,-141.18 531.53,-131.17 520.75,-119.5 499.86,-96.89 486.11,-63.49 478.88,-42.21"/>
<polygon fill="#63b8ff" stroke="#63b8ff" points="557.12,-152.35 567.54,-154.26 560.59,-146.27 557.12,-152.35"/>
</a>
</g>
</g>
<!-- Node8&#45;&gt;Node4 -->
<g id="edge11_Node000008_Node000004" class="edge">
<title>Node8&#45;&gt;Node4</title>
<g id="a_edge11_Node000008_Node000004"><a xlink:title=" ">
<path fill="none" stroke="#63b8ff" d="M525.51,-171.45C385.68,-164.46 127.64,-147.87 96.75,-119.5 75.51,-99.99 73.9,-64.39 75.34,-42"/>
<polygon fill="#63b8ff" stroke="#63b8ff" points="524.93,-174.93 535.09,-171.92 525.27,-167.93 524.93,-174.93"/>
</a>
</g>
</g>
<!-- Node8&#45;&gt;Node5 -->
<g id="edge12_Node000008_Node000005" class="edge">
<title>Node8&#45;&gt;Node5</title>
<g id="a_edge12_Node000008_Node000005"><a xlink:title=" ">
<path fill="none" stroke="#63b8ff" d="M525.42,-168.68C447.21,-161.12 341.15,-146.25 308.75,-119.5 285.33,-100.16 276.29,-64.51 272.84,-42.06"/>
<polygon fill="#63b8ff" stroke="#63b8ff" points="524.95,-172.15 535.23,-169.6 525.6,-165.18 524.95,-172.15"/>
</a>
</g>
</g>
<!-- Node9 -->
<g id="Node000009" class="node">
<title>Node9</title>
<g id="a_Node000009"><a xlink:href="_auto_diff_8cpp.html" target="_top" xlink:title="Ctorch 自动微分系统实现">
<polygon fill="white" stroke="#666666" points="473.5,-119.5 318,-119.5 318,-77.75 473.5,-77.75 473.5,-119.5"/>
<text xml:space="preserve" text-anchor="start" x="326" y="-106" font-family="Helvetica,sans-Serif" font-size="10.00">/Users/ghostface/CLionProjects</text>
<text xml:space="preserve" text-anchor="start" x="326" y="-94.75" font-family="Helvetica,sans-Serif" font-size="10.00">/Ctorch_2.13/CTorch/src/dev</text>
<text xml:space="preserve" text-anchor="middle" x="395.75" y="-83.5" font-family="Helvetica,sans-Serif" font-size="10.00">/AutoDiff.cpp</text>
</a>
</g>
</g>
<!-- Node8&#45;&gt;Node9 -->
<g id="edge8_Node000008_Node000009" class="edge">
<title>Node8&#45;&gt;Node9</title>
<g id="a_edge8_Node000008_Node000009"><a xlink:title=" ">
<path fill="none" stroke="#63b8ff" d="M545.51,-151.43C516.28,-141.32 482.61,-129.67 454.6,-119.98"/>
<polygon fill="#63b8ff" stroke="#63b8ff" points="544.04,-154.62 554.63,-154.58 546.33,-148 544.04,-154.62"/>
</a>
</g>
</g>
<!-- Node8&#45;&gt;Node10 -->
<g id="edge13_Node000008_Node000010" class="edge">
<title>Node8&#45;&gt;Node10</title>
<g id="a_edge13_Node000008_Node000010"><a xlink:title=" ">
<path fill="none" stroke="#63b8ff" d="M669.91,-150.36C691.63,-140.5 716.27,-129.33 736.87,-119.98"/>
<polygon fill="#63b8ff" stroke="#63b8ff" points="668.54,-147.13 660.88,-154.45 671.43,-153.51 668.54,-147.13"/>
</a>
</g>
</g>
<!-- Node11 -->
<g id="Node000011" class="node">
<title>Node11</title>
<g id="a_Node000011"><a xlink:href="test_8cpp.html" target="_top" xlink:title=" ">
<polygon fill="white" stroke="#666666" points="685.5,-119.5 530,-119.5 530,-77.75 685.5,-77.75 685.5,-119.5"/>
<text xml:space="preserve" text-anchor="start" x="538" y="-106" font-family="Helvetica,sans-Serif" font-size="10.00">/Users/ghostface/CLionProjects</text>
<text xml:space="preserve" text-anchor="start" x="538" y="-94.75" font-family="Helvetica,sans-Serif" font-size="10.00">/Ctorch_2.13/CTorch/src/dev</text>
<text xml:space="preserve" text-anchor="middle" x="607.75" y="-83.5" font-family="Helvetica,sans-Serif" font-size="10.00">/test.cpp</text>
</a>
</g>
</g>
<!-- Node8&#45;&gt;Node11 -->
<g id="edge14_Node000008_Node000011" class="edge">
<title>Node8&#45;&gt;Node11</title>
<g id="a_edge14_Node000008_Node000011"><a xlink:title=" ">
<path fill="none" stroke="#63b8ff" d="M611.83,-143.75C611.08,-135.71 610.31,-127.29 609.63,-119.98"/>
<polygon fill="#63b8ff" stroke="#63b8ff" points="608.33,-143.93 612.73,-153.57 615.3,-143.29 608.33,-143.93"/>
</a>
</g>
</g>
<!-- Node8&#45;&gt;Node12 -->
<g id="edge15_Node000008_Node000012" class="edge">
<title>Node8&#45;&gt;Node12</title>
<g id="a_edge15_Node000008_Node000012"><a xlink:title=" ">
<path fill="none" stroke="#63b8ff" d="M703.79,-155.06C777.67,-138.74 797.96,-135.22 868.75,-119.5 871.62,-118.86 874.55,-118.21 877.51,-117.55"/>
<polygon fill="#63b8ff" stroke="#63b8ff" points="703.48,-151.55 694.47,-157.13 704.99,-158.38 703.48,-151.55"/>
</a>
</g>
</g>
<!-- Node8&#45;&gt;Node13 -->
<g id="edge16_Node000008_Node000013" class="edge">
<title>Node8&#45;&gt;Node13</title>
<g id="a_edge16_Node000008_Node000013"><a xlink:title=" ">
<path fill="none" stroke="#63b8ff" d="M703.92,-155.25C854.03,-131.1 895.86,-143.4 1042.75,-119.5 1045.43,-119.06 1048.16,-118.6 1050.91,-118.11"/>
<polygon fill="#63b8ff" stroke="#63b8ff" points="703.71,-151.74 694.41,-156.81 704.85,-158.65 703.71,-151.74"/>
</a>
</g>
</g>
<!-- Node8&#45;&gt;Node14 -->
<g id="edge17_Node000008_Node000014" class="edge">
<title>Node8&#45;&gt;Node14</title>
<g id="a_edge17_Node000008_Node000014"><a xlink:title=" ">
<path fill="none" stroke="#63b8ff" d="M703.97,-155.31C933.78,-122.49 997.33,-153.25 1223.75,-119.5 1226.33,-119.12 1228.94,-118.7 1231.57,-118.24"/>
<polygon fill="#63b8ff" stroke="#63b8ff" points="703.79,-151.8 694.39,-156.7 704.79,-158.72 703.79,-151.8"/>
</a>
</g>
</g>
<!-- Node8&#45;&gt;Node15 -->
<g id="edge18_Node000008_Node000015" class="edge">
<title>Node8&#45;&gt;Node15</title>
<g id="a_edge18_Node000008_Node000015"><a xlink:title=" ">
<path fill="none" stroke="#63b8ff" d="M703.87,-155.35C1010.06,-114.04 1093.98,-161.6 1396.75,-119.5 1399.67,-119.09 1402.63,-118.64 1405.61,-118.15"/>
<polygon fill="#63b8ff" stroke="#63b8ff" points="703.82,-151.82 694.39,-156.65 704.77,-158.76 703.82,-151.82"/>
</a>
</g>
</g>
</g>
</svg>
