<?xml version="1.0" encoding="UTF-8" standalone="no"?>
<!DOCTYPE svg PUBLIC "-//W3C//DTD SVG 1.1//EN"
 "http://www.w3.org/Graphics/SVG/1.1/DTD/svg11.dtd">
<!-- Generated by graphviz version 14.1.1 (20251213.1925)
 -->
<!-- Title: Ctorch_Error.h Pages: 1 -->
<svg width="900pt" height="138pt"
 viewBox="0.00 0.00 900.00 138.00" xmlns="http://www.w3.org/2000/svg" xmlns:xlink="http://www.w3.org/1999/xlink">
<g id="graph0" class="graph" transform="scale(1 1) rotate(0) translate(4 133.75)">
<title>Ctorch_Error.h</title>
<!-- Node1 -->
<g id="Node000001" class="node">
<title>Node1</title>
<g id="a_Node000001"><a xlink:title="Ctorch 错误处理类">
<polygon fill="#999999" stroke="#666666" points="390.12,-129.75 311.12,-129.75 311.12,-110.5 390.12,-110.5 390.12,-129.75"/>
<text xml:space="preserve" text-anchor="middle" x="350.62" y="-116.25" font-family="Helvetica,sans-Serif" font-size="10.00">Ctorch_Error.h</text>
</a>
</g>
</g>
<!-- Node2 -->
<g id="Node000002" class="node">
<title>Node2</title>
<g id="a_Node000002"><a xlink:title=" ">
<polygon fill="#e0e0e0" stroke="#999999" points="45.25,-19.25 0,-19.25 0,0 45.25,0 45.25,-19.25"/>
<text xml:space="preserve" text-anchor="middle" x="22.62" y="-5.75" font-family="Helvetica,sans-Serif" font-size="10.00">cstring</text>
</a>
</g>
</g>
<!-- Node1&#45;&gt;Node2 -->
<g id="edge1_Node000001_Node000002" class="edge">
<title>Node1&#45;&gt;Node2</title>
<g id="a_edge1_Node000001_Node000002"><a xlink:title=" ">
<path fill="none" stroke="#63b8ff" d="M312.02,-110.06C278.14,-101.79 227.7,-88.73 184.62,-74.5 138.4,-59.23 86.24,-37.9 53.89,-24.17"/>
<polygon fill="#63b8ff" stroke="#63b8ff" points="55.28,-20.96 44.71,-20.25 52.53,-27.4 55.28,-20.96"/>
</a>
</g>
</g>
<!-- Node3 -->
<g id="Node000003" class="node">
<title>Node3</title>
<g id="a_Node000003"><a xlink:title=" ">
<polygon fill="#e0e0e0" stroke="#999999" points="108.25,-19.25 63,-19.25 63,0 108.25,0 108.25,-19.25"/>
<text xml:space="preserve" text-anchor="middle" x="85.62" y="-5.75" font-family="Helvetica,sans-Serif" font-size="10.00">chrono</text>
</a>
</g>
</g>
<!-- Node1&#45;&gt;Node3 -->
<g id="edge2_Node000001_Node000003" class="edge">
<title>Node1&#45;&gt;Node3</title>
<g id="a_edge2_Node000001_Node000003"><a xlink:title=" ">
<path fill="none" stroke="#63b8ff" d="M325.85,-110.03C302.09,-101.22 265.25,-87.35 233.62,-74.5 192.52,-57.8 145.57,-37.29 115.78,-24.09"/>
<polygon fill="#63b8ff" stroke="#63b8ff" points="117.56,-21.05 107,-20.19 114.72,-27.45 117.56,-21.05"/>
</a>
</g>
</g>
<!-- Node4 -->
<g id="Node000004" class="node">
<title>Node4</title>
<g id="a_Node000004"><a xlink:title=" ">
<polygon fill="#e0e0e0" stroke="#999999" points="171.25,-19.25 126,-19.25 126,0 171.25,0 171.25,-19.25"/>
<text xml:space="preserve" text-anchor="middle" x="148.62" y="-5.75" font-family="Helvetica,sans-Serif" font-size="10.00">cstdint</text>
</a>
</g>
</g>
<!-- Node1&#45;&gt;Node4 -->
<g id="edge3_Node000001_Node000004" class="edge">
<title>Node1&#45;&gt;Node4</title>
<g id="a_edge3_Node000001_Node000004"><a xlink:title=" ">
<path fill="none" stroke="#63b8ff" d="M333.75,-110.06C298.77,-91.27 218.1,-47.94 175.73,-25.18"/>
<polygon fill="#63b8ff" stroke="#63b8ff" points="177.39,-22.1 166.93,-20.46 174.08,-28.27 177.39,-22.1"/>
</a>
</g>
</g>
<!-- Node5 -->
<g id="Node000005" class="node">
<title>Node5</title>
<g id="a_Node000005"><a xlink:title=" ">
<polygon fill="#e0e0e0" stroke="#999999" points="229.62,-19.25 189.62,-19.25 189.62,0 229.62,0 229.62,-19.25"/>
<text xml:space="preserve" text-anchor="middle" x="209.62" y="-5.75" font-family="Helvetica,sans-Serif" font-size="10.00">ctime</text>
</a>
</g>
</g>
<!-- Node1&#45;&gt;Node5 -->
<g id="edge4_Node000001_Node000005" class="edge">
<title>Node1&#45;&gt;Node5</title>
<g id="a_edge4_Node000001_Node000005"><a xlink:title=" ">
<path fill="none" stroke="#63b8ff" d="M339.09,-110.25C315.23,-91.89 260.19,-49.54 230.13,-26.41"/>
<polygon fill="#63b8ff" stroke="#63b8ff" points="232.58,-23.87 222.52,-20.55 228.31,-29.42 232.58,-23.87"/>
</a>
</g>
</g>
<!-- Node6 -->
<g id="Node000006" class="node">
<title>Node6</title>
<g id="a_Node000006"><a xlink:title=" ">
<polygon fill="#e0e0e0" stroke="#999999" points="287.62,-19.25 247.62,-19.25 247.62,0 287.62,0 287.62,-19.25"/>
<text xml:space="preserve" text-anchor="middle" x="267.62" y="-5.75" font-family="Helvetica,sans-Serif" font-size="10.00">string</text>
</a>
</g>
</g>
<!-- Node1&#45;&gt;Node6 -->
<g id="edge5_Node000001_Node000006" class="edge">
<title>Node1&#45;&gt;Node6</title>
<g id="a_edge5_Node000001_Node000006"><a xlink:title=" ">
<path fill="none" stroke="#63b8ff" d="M343.83,-110.25C330.21,-92.44 299.34,-52.08 281.35,-28.56"/>
<polygon fill="#63b8ff" stroke="#63b8ff" points="284.29,-26.64 275.43,-20.83 278.73,-30.9 284.29,-26.64"/>
</a>
</g>
</g>
<!-- Node7 -->
<g id="Node000007" class="node">
<title>Node7</title>
<g id="a_Node000007"><a xlink:title=" ">
<polygon fill="#e0e0e0" stroke="#999999" points="357.25,-19.25 306,-19.25 306,0 357.25,0 357.25,-19.25"/>
<text xml:space="preserve" text-anchor="middle" x="331.62" y="-5.75" font-family="Helvetica,sans-Serif" font-size="10.00">sstream</text>
</a>
</g>
</g>
<!-- Node1&#45;&gt;Node7 -->
<g id="edge6_Node000001_Node000007" class="edge">
<title>Node1&#45;&gt;Node7</title>
<g id="a_edge6_Node000001_Node000007"><a xlink:title=" ">
<path fill="none" stroke="#63b8ff" d="M349.07,-110.25C346.05,-93 339.32,-54.58 335.16,-30.81"/>
<polygon fill="#63b8ff" stroke="#63b8ff" points="338.63,-30.36 333.46,-21.12 331.74,-31.57 338.63,-30.36"/>
</a>
</g>
</g>
<!-- Node8 -->
<g id="Node000008" class="node">
<title>Node8</title>
<g id="a_Node000008"><a xlink:title=" ">
<polygon fill="#e0e0e0" stroke="#999999" points="425.5,-19.25 375.75,-19.25 375.75,0 425.5,0 425.5,-19.25"/>
<text xml:space="preserve" text-anchor="middle" x="400.62" y="-5.75" font-family="Helvetica,sans-Serif" font-size="10.00">iomanip</text>
</a>
</g>
</g>
<!-- Node1&#45;&gt;Node8 -->
<g id="edge7_Node000001_Node000008" class="edge">
<title>Node1&#45;&gt;Node8</title>
<g id="a_edge7_Node000001_Node000008"><a xlink:title=" ">
<path fill="none" stroke="#63b8ff" d="M354.72,-110.25C362.77,-92.76 380.86,-53.52 391.77,-29.84"/>
<polygon fill="#63b8ff" stroke="#63b8ff" points="394.84,-31.55 395.84,-21 388.48,-28.62 394.84,-31.55"/>
</a>
</g>
</g>
<!-- Node9 -->
<g id="Node000009" class="node">
<title>Node9</title>
<g id="a_Node000009"><a xlink:title=" ">
<polygon fill="#e0e0e0" stroke="#999999" points="692.75,-19.25 644.5,-19.25 644.5,0 692.75,0 692.75,-19.25"/>
<text xml:space="preserve" text-anchor="middle" x="668.62" y="-5.75" font-family="Helvetica,sans-Serif" font-size="10.00">stdint.h</text>
</a>
</g>
</g>
<!-- Node1&#45;&gt;Node9 -->
<g id="edge8_Node000001_Node000009" class="edge">
<title>Node1&#45;&gt;Node9</title>
<g id="a_edge8_Node000001_Node000009"><a xlink:title=" ">
<path fill="none" stroke="#63b8ff" d="M377.19,-110.06C434.36,-90.55 569.08,-44.59 633.34,-22.67"/>
<polygon fill="#63b8ff" stroke="#63b8ff" points="634.35,-26.02 642.68,-19.48 632.09,-19.39 634.35,-26.02"/>
</a>
</g>
</g>
<!-- Node10 -->
<g id="Node000010" class="node">
<title>Node10</title>
<g id="a_Node000010"><a xlink:title=" ">
<polygon fill="#e0e0e0" stroke="#999999" points="770,-19.25 711.25,-19.25 711.25,0 770,0 770,-19.25"/>
<text xml:space="preserve" text-anchor="middle" x="740.62" y="-5.75" font-family="Helvetica,sans-Serif" font-size="10.00">inttypes.h</text>
</a>
</g>
</g>
<!-- Node1&#45;&gt;Node10 -->
<g id="edge9_Node000001_Node000010" class="edge">
<title>Node1&#45;&gt;Node10</title>
<g id="a_edge9_Node000001_Node000010"><a xlink:title=" ">
<path fill="none" stroke="#63b8ff" d="M387.17,-110.08C422.25,-101.31 476.68,-87.46 523.62,-74.5 585.31,-57.47 656.38,-36.24 699.9,-23.06"/>
<polygon fill="#63b8ff" stroke="#63b8ff" points="700.88,-26.42 709.43,-20.17 698.85,-19.72 700.88,-26.42"/>
</a>
</g>
</g>
<!-- Node11 -->
<g id="Node000011" class="node">
<title>Node11</title>
<g id="a_Node000011"><a xlink:title=" ">
<polygon fill="#e0e0e0" stroke="#999999" points="831.12,-19.25 788.12,-19.25 788.12,0 831.12,0 831.12,-19.25"/>
<text xml:space="preserve" text-anchor="middle" x="809.62" y="-5.75" font-family="Helvetica,sans-Serif" font-size="10.00">mutex</text>
</a>
</g>
</g>
<!-- Node1&#45;&gt;Node11 -->
<g id="edge10_Node000001_Node000011" class="edge">
<title>Node1&#45;&gt;Node11</title>
<g id="a_edge10_Node000001_Node000011"><a xlink:title=" ">
<path fill="none" stroke="#63b8ff" d="M390.52,-111.77C434.72,-103.45 508.01,-89.15 570.62,-74.5 660.3,-53.51 684.55,-44.99 776.96,-19.69"/>
<polygon fill="#63b8ff" stroke="#63b8ff" points="777.77,-23.1 786.49,-17.09 775.92,-16.34 777.77,-23.1"/>
</a>
</g>
</g>
<!-- Node12 -->
<g id="Node000012" class="node">
<title>Node12</title>
<g id="a_Node000012"><a xlink:title=" ">
<polygon fill="#e0e0e0" stroke="#999999" points="892.12,-19.25 849.12,-19.25 849.12,0 892.12,0 892.12,-19.25"/>
<text xml:space="preserve" text-anchor="middle" x="870.62" y="-5.75" font-family="Helvetica,sans-Serif" font-size="10.00">thread</text>
</a>
</g>
</g>
<!-- Node1&#45;&gt;Node12 -->
<g id="edge11_Node000001_Node000012" class="edge">
<title>Node1&#45;&gt;Node12</title>
<g id="a_edge11_Node000001_Node000012"><a xlink:title=" ">
<path fill="none" stroke="#63b8ff" d="M390.46,-113.68C443.64,-106.16 540.64,-91.58 622.62,-74.5 716.94,-54.85 742.33,-45.99 837.67,-20.01"/>
<polygon fill="#63b8ff" stroke="#63b8ff" points="838.5,-23.41 847.23,-17.41 836.66,-16.66 838.5,-23.41"/>
</a>
</g>
</g>
<!-- Node13 -->
<g id="Node000013" class="node">
<title>Node13</title>
<g id="a_Node000013"><a xlink:href="_ctools_8h.html" target="_top" xlink:title="Ctorch 通用工具类，包含通用枚举类型和辅助函数">
<polygon fill="white" stroke="#666666" points="450,-74.5 397.25,-74.5 397.25,-55.25 450,-55.25 450,-74.5"/>
<text xml:space="preserve" text-anchor="middle" x="423.62" y="-61" font-family="Helvetica,sans-Serif" font-size="10.00">Ctools.h</text>
</a>
</g>
</g>
<!-- Node1&#45;&gt;Node13 -->
<g id="edge12_Node000001_Node000013" class="edge">
<title>Node1&#45;&gt;Node13</title>
<g id="a_edge12_Node000001_Node000013"><a xlink:title=" ">
<path fill="none" stroke="#63b8ff" d="M363.01,-110.09C373.77,-102.24 389.6,-90.7 402.38,-81.37"/>
<polygon fill="#63b8ff" stroke="#63b8ff" points="404.19,-84.39 410.2,-75.67 400.06,-78.73 404.19,-84.39"/>
</a>
</g>
</g>
<!-- Node13&#45;&gt;Node2 -->
<g id="edge13_Node000013_Node000002" class="edge">
<title>Node13&#45;&gt;Node2</title>
<g id="a_edge13_Node000013_Node000002"><a xlink:title=" ">
<path fill="none" stroke="#63b8ff" d="M396.94,-62.05C337.43,-57.68 189.28,-45.18 56.7,-19.61"/>
<polygon fill="#63b8ff" stroke="#63b8ff" points="57.53,-16.21 47.04,-17.71 56.18,-23.07 57.53,-16.21"/>
</a>
</g>
</g>
<!-- Node13&#45;&gt;Node3 -->
<g id="edge14_Node000013_Node000003" class="edge">
<title>Node13&#45;&gt;Node3</title>
<g id="a_edge14_Node000013_Node000003"><a xlink:title=" ">
<path fill="none" stroke="#63b8ff" d="M397.14,-61.17C345.5,-55.66 227.57,-41.88 119.65,-19.68"/>
<polygon fill="#63b8ff" stroke="#63b8ff" points="120.55,-16.29 110.05,-17.67 119.12,-23.14 120.55,-16.29"/>
</a>
</g>
</g>
<!-- Node13&#45;&gt;Node4 -->
<g id="edge15_Node000013_Node000004" class="edge">
<title>Node13&#45;&gt;Node4</title>
<g id="a_edge15_Node000013_Node000004"><a xlink:title=" ">
<path fill="none" stroke="#63b8ff" d="M396.87,-59.7C353.84,-52.82 266.4,-38.2 182.63,-19.54"/>
<polygon fill="#63b8ff" stroke="#63b8ff" points="183.64,-16.18 173.12,-17.4 182.1,-23.01 183.64,-16.18"/>
</a>
</g>
</g>
<!-- Node13&#45;&gt;Node5 -->
<g id="edge16_Node000013_Node000005" class="edge">
<title>Node13&#45;&gt;Node5</title>
<g id="a_edge16_Node000013_Node000005"><a xlink:title=" ">
<path fill="none" stroke="#63b8ff" d="M396.86,-57.88C362.83,-50.16 302.02,-36.04 240.88,-19.75"/>
<polygon fill="#63b8ff" stroke="#63b8ff" points="241.9,-16.4 231.33,-17.19 240.08,-23.16 241.9,-16.4"/>
</a>
</g>
</g>
<!-- Node13&#45;&gt;Node6 -->
<g id="edge17_Node000013_Node000006" class="edge">
<title>Node13&#45;&gt;Node6</title>
<g id="a_edge17_Node000013_Node000006"><a xlink:title=" ">
<path fill="none" stroke="#63b8ff" d="M397.16,-54.84C369.84,-45.52 327.25,-30.98 298.44,-21.14"/>
<polygon fill="#63b8ff" stroke="#63b8ff" points="299.78,-17.9 289.19,-17.99 297.52,-24.53 299.78,-17.9"/>
</a>
</g>
</g>
<!-- Node13&#45;&gt;Node7 -->
<g id="edge18_Node000013_Node000007" class="edge">
<title>Node13&#45;&gt;Node7</title>
<g id="a_edge18_Node000013_Node000007"><a xlink:title=" ">
<path fill="none" stroke="#63b8ff" d="M408.02,-54.84C394.01,-46.73 373.19,-34.68 356.82,-25.21"/>
<polygon fill="#63b8ff" stroke="#63b8ff" points="359.03,-22.44 348.62,-20.46 355.52,-28.5 359.03,-22.44"/>
</a>
</g>
</g>
<!-- Node13&#45;&gt;Node8 -->
<g id="edge19_Node000013_Node000008" class="edge">
<title>Node13&#45;&gt;Node8</title>
<g id="a_edge19_Node000013_Node000008"><a xlink:title=" ">
<path fill="none" stroke="#63b8ff" d="M419.83,-55.08C416.88,-48.26 412.69,-38.56 408.97,-29.95"/>
<polygon fill="#63b8ff" stroke="#63b8ff" points="412.28,-28.79 405.11,-21 405.86,-31.57 412.28,-28.79"/>
</a>
</g>
</g>
<!-- Node13&#45;&gt;Node9 -->
<g id="edge20_Node000013_Node000009" class="edge">
<title>Node13&#45;&gt;Node9</title>
<g id="a_edge20_Node000013_Node000009"><a xlink:title=" ">
<path fill="none" stroke="#63b8ff" d="M450.49,-58.65C488.85,-51.1 561.79,-36.4 633.17,-19.74"/>
<polygon fill="#63b8ff" stroke="#63b8ff" points="633.74,-23.2 642.68,-17.51 632.14,-16.39 633.74,-23.2"/>
</a>
</g>
</g>
<!-- Node13&#45;&gt;Node10 -->
<g id="edge21_Node000013_Node000010" class="edge">
<title>Node13&#45;&gt;Node10</title>
<g id="a_edge21_Node000013_Node000010"><a xlink:title=" ">
<path fill="none" stroke="#63b8ff" d="M450.16,-60.14C497.89,-53.32 601.6,-37.98 699.55,-19.54"/>
<polygon fill="#63b8ff" stroke="#63b8ff" points="700.19,-22.98 709.36,-17.68 698.89,-16.11 700.19,-22.98"/>
</a>
</g>
</g>
<!-- Node13&#45;&gt;Node11 -->
<g id="edge22_Node000013_Node000011" class="edge">
<title>Node13&#45;&gt;Node11</title>
<g id="a_edge22_Node000013_Node000011"><a xlink:title=" ">
<path fill="none" stroke="#63b8ff" d="M450.11,-61.88C507.72,-57.26 648.83,-44.41 776.57,-19.37"/>
<polygon fill="#63b8ff" stroke="#63b8ff" points="777.1,-22.84 786.22,-17.45 775.73,-15.97 777.1,-22.84"/>
</a>
</g>
</g>
<!-- Node13&#45;&gt;Node12 -->
<g id="edge23_Node000013_Node000012" class="edge">
<title>Node13&#45;&gt;Node12</title>
<g id="a_edge23_Node000013_Node000012"><a xlink:title=" ">
<path fill="none" stroke="#63b8ff" d="M450.21,-62.63C515.05,-59.26 686.57,-48.31 837.92,-19.49"/>
<polygon fill="#63b8ff" stroke="#63b8ff" points="838.14,-23.01 847.29,-17.67 836.81,-16.14 838.14,-23.01"/>
</a>
</g>
</g>
<!-- Node14 -->
<g id="Node000014" class="node">
<title>Node14</title>
<g id="a_Node000014"><a xlink:title=" ">
<polygon fill="#e0e0e0" stroke="#999999" points="486.12,-19.25 443.12,-19.25 443.12,0 486.12,0 486.12,-19.25"/>
<text xml:space="preserve" text-anchor="middle" x="464.62" y="-5.75" font-family="Helvetica,sans-Serif" font-size="10.00">vector</text>
</a>
</g>
</g>
<!-- Node13&#45;&gt;Node14 -->
<g id="edge24_Node000013_Node000014" class="edge">
<title>Node13&#45;&gt;Node14</title>
<g id="a_edge24_Node000013_Node000014"><a xlink:title=" ">
<path fill="none" stroke="#63b8ff" d="M430.4,-55.08C435.94,-47.88 443.97,-37.46 450.85,-28.51"/>
<polygon fill="#63b8ff" stroke="#63b8ff" points="453.46,-30.87 456.78,-20.81 447.91,-26.6 453.46,-30.87"/>
</a>
</g>
</g>
<!-- Node15 -->
<g id="Node000015" class="node">
<title>Node15</title>
<g id="a_Node000015"><a xlink:title=" ">
<polygon fill="#e0e0e0" stroke="#999999" points="555.25,-19.25 504,-19.25 504,0 555.25,0 555.25,-19.25"/>
<text xml:space="preserve" text-anchor="middle" x="529.62" y="-5.75" font-family="Helvetica,sans-Serif" font-size="10.00">memory</text>
</a>
</g>
</g>
<!-- Node13&#45;&gt;Node15 -->
<g id="edge25_Node000013_Node000015" class="edge">
<title>Node13&#45;&gt;Node15</title>
<g id="a_edge25_Node000013_Node000015"><a xlink:title=" ">
<path fill="none" stroke="#63b8ff" d="M441.61,-54.84C457.98,-46.62 482.41,-34.34 501.39,-24.81"/>
<polygon fill="#63b8ff" stroke="#63b8ff" points="502.84,-28 510.2,-20.38 499.7,-21.74 502.84,-28"/>
</a>
</g>
</g>
<!-- Node16 -->
<g id="Node000016" class="node">
<title>Node16</title>
<g id="a_Node000016"><a xlink:title=" ">
<polygon fill="#e0e0e0" stroke="#999999" points="626.38,-19.25 572.88,-19.25 572.88,0 626.38,0 626.38,-19.25"/>
<text xml:space="preserve" text-anchor="middle" x="599.62" y="-5.75" font-family="Helvetica,sans-Serif" font-size="10.00">iostream</text>
</a>
</g>
</g>
<!-- Node13&#45;&gt;Node16 -->
<g id="edge26_Node000013_Node000016" class="edge">
<title>Node13&#45;&gt;Node16</title>
<g id="a_edge26_Node000013_Node000016"><a xlink:title=" ">
<path fill="none" stroke="#63b8ff" d="M450.36,-55.79C480.08,-46.8 528.31,-32.2 561.87,-22.05"/>
<polygon fill="#63b8ff" stroke="#63b8ff" points="562.64,-25.47 571.19,-19.23 560.61,-18.77 562.64,-25.47"/>
</a>
</g>
</g>
</g>
</svg>
