<?xml version="1.0" encoding="UTF-8" standalone="no"?>
<!DOCTYPE svg PUBLIC "-//W3C//DTD SVG 1.1//EN"
 "http://www.w3.org/Graphics/SVG/1.1/DTD/svg11.dtd">
<!-- Generated by graphviz version 14.1.1 (20251213.1925)
 -->
<!-- Title: /Users/ghostface/CLionProjects/Ctorch_2.13/CTorch/src/dev/Ctools.h Pages: 1 -->
<svg width="900pt" height="105pt"
 viewBox="0.00 0.00 900.00 105.00" xmlns="http://www.w3.org/2000/svg" xmlns:xlink="http://www.w3.org/1999/xlink">
<g id="graph0" class="graph" transform="scale(1 1) rotate(0) translate(4 101)">
<title>/Users/ghostface/CLionProjects/Ctorch_2.13/CTorch/src/dev/Ctools.h</title>
<!-- Node1 -->
<g id="Node000001" class="node">
<title>Node1</title>
<g id="a_Node000001"><a xlink:title="Ctorch 通用工具类，包含通用枚举类型和辅助函数">
<polygon fill="#999999" stroke="#666666" points="511.38,-97 355.88,-97 355.88,-55.25 511.38,-55.25 511.38,-97"/>
<text xml:space="preserve" text-anchor="start" x="363.88" y="-83.5" font-family="Helvetica,sans-Serif" font-size="10.00">/Users/ghostface/CLionProjects</text>
<text xml:space="preserve" text-anchor="start" x="363.88" y="-72.25" font-family="Helvetica,sans-Serif" font-size="10.00">/Ctorch_2.13/CTorch/src/dev</text>
<text xml:space="preserve" text-anchor="middle" x="433.62" y="-61" font-family="Helvetica,sans-Serif" font-size="10.00">/Ctools.h</text>
</a>
</g>
</g>
<!-- Node2 -->
<g id="Node000002" class="node">
<title>Node2</title>
<g id="a_Node000002"><a xlink:title=" ">
<polygon fill="#e0e0e0" stroke="#999999" points="45.25,-19.25 0,-19.25 0,0 45.25,0 45.25,-19.25"/>
<text xml:space="preserve" text-anchor="middle" x="22.62" y="-5.75" font-family="Helvetica,sans-Serif" font-size="10.00">cstring</text>
</a>
</g>
</g>
<!-- Node1&#45;&gt;Node2 -->
<g id="edge1_Node000001_Node000002" class="edge">
<title>Node1&#45;&gt;Node2</title>
<g id="a_edge1_Node000001_Node000002"><a xlink:title=" ">
<path fill="none" stroke="#63b8ff" d="M355.61,-66.56C281,-57.7 165.19,-42.25 56.72,-19.7"/>
<polygon fill="#63b8ff" stroke="#63b8ff" points="57.56,-16.3 47.05,-17.67 56.11,-23.15 57.56,-16.3"/>
</a>
</g>
</g>
<!-- Node3 -->
<g id="Node000003" class="node">
<title>Node3</title>
<g id="a_Node000003"><a xlink:title=" ">
<polygon fill="#e0e0e0" stroke="#999999" points="108.25,-19.25 63,-19.25 63,0 108.25,0 108.25,-19.25"/>
<text xml:space="preserve" text-anchor="middle" x="85.62" y="-5.75" font-family="Helvetica,sans-Serif" font-size="10.00">chrono</text>
</a>
</g>
</g>
<!-- Node1&#45;&gt;Node3 -->
<g id="edge2_Node000001_Node000003" class="edge">
<title>Node1&#45;&gt;Node3</title>
<g id="a_edge2_Node000001_Node000003"><a xlink:title=" ">
<path fill="none" stroke="#63b8ff" d="M355.69,-63.55C293.91,-53.87 205.2,-38.89 119.55,-19.76"/>
<polygon fill="#63b8ff" stroke="#63b8ff" points="120.59,-16.4 110.06,-17.61 119.04,-23.23 120.59,-16.4"/>
</a>
</g>
</g>
<!-- Node4 -->
<g id="Node000004" class="node">
<title>Node4</title>
<g id="a_Node000004"><a xlink:title=" ">
<polygon fill="#e0e0e0" stroke="#999999" points="171.25,-19.25 126,-19.25 126,0 171.25,0 171.25,-19.25"/>
<text xml:space="preserve" text-anchor="middle" x="148.62" y="-5.75" font-family="Helvetica,sans-Serif" font-size="10.00">cstdint</text>
</a>
</g>
</g>
<!-- Node1&#45;&gt;Node4 -->
<g id="edge3_Node000001_Node000004" class="edge">
<title>Node1&#45;&gt;Node4</title>
<g id="a_edge3_Node000001_Node000004"><a xlink:title=" ">
<path fill="none" stroke="#63b8ff" d="M355.62,-58.87C308.24,-48.76 246.28,-35.16 182.71,-19.68"/>
<polygon fill="#63b8ff" stroke="#63b8ff" points="183.68,-16.31 173.13,-17.33 182.01,-23.11 183.68,-16.31"/>
</a>
</g>
</g>
<!-- Node5 -->
<g id="Node000005" class="node">
<title>Node5</title>
<g id="a_Node000005"><a xlink:title=" ">
<polygon fill="#e0e0e0" stroke="#999999" points="229.62,-19.25 189.62,-19.25 189.62,0 229.62,0 229.62,-19.25"/>
<text xml:space="preserve" text-anchor="middle" x="209.62" y="-5.75" font-family="Helvetica,sans-Serif" font-size="10.00">ctime</text>
</a>
</g>
</g>
<!-- Node1&#45;&gt;Node5 -->
<g id="edge4_Node000001_Node000005" class="edge">
<title>Node1&#45;&gt;Node5</title>
<g id="a_edge4_Node000001_Node000005"><a xlink:title=" ">
<path fill="none" stroke="#63b8ff" d="M362.26,-54.86C328.07,-45.11 286.28,-33.13 240.88,-19.89"/>
<polygon fill="#63b8ff" stroke="#63b8ff" points="241.93,-16.55 231.35,-17.11 239.97,-23.27 241.93,-16.55"/>
</a>
</g>
</g>
<!-- Node6 -->
<g id="Node000006" class="node">
<title>Node6</title>
<g id="a_Node000006"><a xlink:title=" ">
<polygon fill="#e0e0e0" stroke="#999999" points="287.62,-19.25 247.62,-19.25 247.62,0 287.62,0 287.62,-19.25"/>
<text xml:space="preserve" text-anchor="middle" x="267.62" y="-5.75" font-family="Helvetica,sans-Serif" font-size="10.00">string</text>
</a>
</g>
</g>
<!-- Node1&#45;&gt;Node6 -->
<g id="edge5_Node000001_Node000006" class="edge">
<title>Node1&#45;&gt;Node6</title>
<g id="a_edge5_Node000001_Node000006"><a xlink:title=" ">
<path fill="none" stroke="#63b8ff" d="M381.56,-54.89C354.27,-44.29 321.77,-31.66 298.48,-22.61"/>
<polygon fill="#63b8ff" stroke="#63b8ff" points="299.85,-19.39 289.26,-19.03 297.31,-25.91 299.85,-19.39"/>
</a>
</g>
</g>
<!-- Node7 -->
<g id="Node000007" class="node">
<title>Node7</title>
<g id="a_Node000007"><a xlink:title=" ">
<polygon fill="#e0e0e0" stroke="#999999" points="357.25,-19.25 306,-19.25 306,0 357.25,0 357.25,-19.25"/>
<text xml:space="preserve" text-anchor="middle" x="331.62" y="-5.75" font-family="Helvetica,sans-Serif" font-size="10.00">sstream</text>
</a>
</g>
</g>
<!-- Node1&#45;&gt;Node7 -->
<g id="edge6_Node000001_Node000007" class="edge">
<title>Node1&#45;&gt;Node7</title>
<g id="a_edge6_Node000001_Node000007"><a xlink:title=" ">
<path fill="none" stroke="#63b8ff" d="M401.63,-54.89C386.73,-45.47 369.31,-34.46 355.57,-25.77"/>
<polygon fill="#63b8ff" stroke="#63b8ff" points="357.49,-22.84 347.17,-20.45 353.75,-28.76 357.49,-22.84"/>
</a>
</g>
</g>
<!-- Node8 -->
<g id="Node000008" class="node">
<title>Node8</title>
<g id="a_Node000008"><a xlink:title=" ">
<polygon fill="#e0e0e0" stroke="#999999" points="425.5,-19.25 375.75,-19.25 375.75,0 425.5,0 425.5,-19.25"/>
<text xml:space="preserve" text-anchor="middle" x="400.62" y="-5.75" font-family="Helvetica,sans-Serif" font-size="10.00">iomanip</text>
</a>
</g>
</g>
<!-- Node1&#45;&gt;Node8 -->
<g id="edge7_Node000001_Node000008" class="edge">
<title>Node1&#45;&gt;Node8</title>
<g id="a_edge7_Node000001_Node000008"><a xlink:title=" ">
<path fill="none" stroke="#63b8ff" d="M423.36,-55.07C419.25,-47.03 414.53,-37.8 410.46,-29.84"/>
<polygon fill="#63b8ff" stroke="#63b8ff" points="413.63,-28.35 405.96,-21.04 407.39,-31.54 413.63,-28.35"/>
</a>
</g>
</g>
<!-- Node9 -->
<g id="Node000009" class="node">
<title>Node9</title>
<g id="a_Node000009"><a xlink:title=" ">
<polygon fill="#e0e0e0" stroke="#999999" points="491.75,-19.25 443.5,-19.25 443.5,0 491.75,0 491.75,-19.25"/>
<text xml:space="preserve" text-anchor="middle" x="467.62" y="-5.75" font-family="Helvetica,sans-Serif" font-size="10.00">stdint.h</text>
</a>
</g>
</g>
<!-- Node1&#45;&gt;Node9 -->
<g id="edge8_Node000001_Node000009" class="edge">
<title>Node1&#45;&gt;Node9</title>
<g id="a_edge8_Node000001_Node000009"><a xlink:title=" ">
<path fill="none" stroke="#63b8ff" d="M444.2,-55.07C448.44,-47.03 453.3,-37.8 457.5,-29.84"/>
<polygon fill="#63b8ff" stroke="#63b8ff" points="460.57,-31.51 462.14,-21.03 454.38,-28.25 460.57,-31.51"/>
</a>
</g>
</g>
<!-- Node10 -->
<g id="Node000010" class="node">
<title>Node10</title>
<g id="a_Node000010"><a xlink:title=" ">
<polygon fill="#e0e0e0" stroke="#999999" points="569,-19.25 510.25,-19.25 510.25,0 569,0 569,-19.25"/>
<text xml:space="preserve" text-anchor="middle" x="539.62" y="-5.75" font-family="Helvetica,sans-Serif" font-size="10.00">inttypes.h</text>
</a>
</g>
</g>
<!-- Node1&#45;&gt;Node10 -->
<g id="edge9_Node000001_Node000010" class="edge">
<title>Node1&#45;&gt;Node10</title>
<g id="a_edge9_Node000001_Node000010"><a xlink:title=" ">
<path fill="none" stroke="#63b8ff" d="M466.87,-54.89C482.51,-45.38 500.82,-34.24 515.16,-25.51"/>
<polygon fill="#63b8ff" stroke="#63b8ff" points="516.79,-28.62 523.51,-20.43 513.15,-22.64 516.79,-28.62"/>
</a>
</g>
</g>
<!-- Node11 -->
<g id="Node000011" class="node">
<title>Node11</title>
<g id="a_Node000011"><a xlink:title=" ">
<polygon fill="#e0e0e0" stroke="#999999" points="630.12,-19.25 587.12,-19.25 587.12,0 630.12,0 630.12,-19.25"/>
<text xml:space="preserve" text-anchor="middle" x="608.62" y="-5.75" font-family="Helvetica,sans-Serif" font-size="10.00">mutex</text>
</a>
</g>
</g>
<!-- Node1&#45;&gt;Node11 -->
<g id="edge10_Node000001_Node000011" class="edge">
<title>Node1&#45;&gt;Node11</title>
<g id="a_edge10_Node000001_Node000011"><a xlink:title=" ">
<path fill="none" stroke="#63b8ff" d="M488.52,-54.89C517.38,-44.26 551.76,-31.59 576.32,-22.53"/>
<polygon fill="#63b8ff" stroke="#63b8ff" points="577.27,-25.91 585.45,-19.17 574.85,-19.34 577.27,-25.91"/>
</a>
</g>
</g>
<!-- Node12 -->
<g id="Node000012" class="node">
<title>Node12</title>
<g id="a_Node000012"><a xlink:title=" ">
<polygon fill="#e0e0e0" stroke="#999999" points="691.12,-19.25 648.12,-19.25 648.12,0 691.12,0 691.12,-19.25"/>
<text xml:space="preserve" text-anchor="middle" x="669.62" y="-5.75" font-family="Helvetica,sans-Serif" font-size="10.00">thread</text>
</a>
</g>
</g>
<!-- Node1&#45;&gt;Node12 -->
<g id="edge11_Node000001_Node000012" class="edge">
<title>Node1&#45;&gt;Node12</title>
<g id="a_edge11_Node000001_Node000012"><a xlink:title=" ">
<path fill="none" stroke="#63b8ff" d="M509.52,-54.83C545.64,-45.11 589.71,-33.14 636.66,-20.05"/>
<polygon fill="#63b8ff" stroke="#63b8ff" points="637.53,-23.44 646.22,-17.38 635.65,-16.7 637.53,-23.44"/>
</a>
</g>
</g>
<!-- Node13 -->
<g id="Node000013" class="node">
<title>Node13</title>
<g id="a_Node000013"><a xlink:title=" ">
<polygon fill="#e0e0e0" stroke="#999999" points="752.12,-19.25 709.12,-19.25 709.12,0 752.12,0 752.12,-19.25"/>
<text xml:space="preserve" text-anchor="middle" x="730.62" y="-5.75" font-family="Helvetica,sans-Serif" font-size="10.00">vector</text>
</a>
</g>
</g>
<!-- Node1&#45;&gt;Node13 -->
<g id="edge12_Node000001_Node000013" class="edge">
<title>Node1&#45;&gt;Node13</title>
<g id="a_edge12_Node000001_Node000013"><a xlink:title=" ">
<path fill="none" stroke="#63b8ff" d="M511.66,-60.37C562.37,-50.41 630.12,-36.43 697.85,-19.81"/>
<polygon fill="#63b8ff" stroke="#63b8ff" points="698.38,-23.29 707.25,-17.49 696.7,-16.49 698.38,-23.29"/>
</a>
</g>
</g>
<!-- Node14 -->
<g id="Node000014" class="node">
<title>Node14</title>
<g id="a_Node000014"><a xlink:title=" ">
<polygon fill="#e0e0e0" stroke="#999999" points="821.25,-19.25 770,-19.25 770,0 821.25,0 821.25,-19.25"/>
<text xml:space="preserve" text-anchor="middle" x="795.62" y="-5.75" font-family="Helvetica,sans-Serif" font-size="10.00">memory</text>
</a>
</g>
</g>
<!-- Node1&#45;&gt;Node14 -->
<g id="edge13_Node000001_Node000014" class="edge">
<title>Node1&#45;&gt;Node14</title>
<g id="a_edge13_Node000001_Node000014"><a xlink:title=" ">
<path fill="none" stroke="#63b8ff" d="M511.83,-63.6C575.82,-53.76 668.9,-38.5 758.5,-19.79"/>
<polygon fill="#63b8ff" stroke="#63b8ff" points="759.14,-23.23 768.21,-17.74 757.7,-16.38 759.14,-23.23"/>
</a>
</g>
</g>
<!-- Node15 -->
<g id="Node000015" class="node">
<title>Node15</title>
<g id="a_Node000015"><a xlink:title=" ">
<polygon fill="#e0e0e0" stroke="#999999" points="892.38,-19.25 838.88,-19.25 838.88,0 892.38,0 892.38,-19.25"/>
<text xml:space="preserve" text-anchor="middle" x="865.62" y="-5.75" font-family="Helvetica,sans-Serif" font-size="10.00">iostream</text>
</a>
</g>
</g>
<!-- Node1&#45;&gt;Node15 -->
<g id="edge14_Node000001_Node000015" class="edge">
<title>Node1&#45;&gt;Node15</title>
<g id="a_edge14_Node000001_Node000015"><a xlink:title=" ">
<path fill="none" stroke="#63b8ff" d="M511.61,-66.53C589.43,-57.41 712.6,-41.52 827.46,-19.71"/>
<polygon fill="#63b8ff" stroke="#63b8ff" points="827.91,-23.19 837.07,-17.87 826.59,-16.32 827.91,-23.19"/>
</a>
</g>
</g>
</g>
</svg>
