<?xml version="1.0" encoding="UTF-8" standalone="no"?>
<!DOCTYPE svg PUBLIC "-//W3C//DTD SVG 1.1//EN"
 "http://www.w3.org/Graphics/SVG/1.1/DTD/svg11.dtd">
<!-- Generated by graphviz version 14.1.1 (20251213.1925)
 -->
<!-- Title: /Users/ghostface/CLionProjects/Ctorch_2.13/CTorch/src/dev/Storage.cpp Pages: 1 -->
<svg width="901pt" height="271pt"
 viewBox="0.00 0.00 901.00 271.00" xmlns="http://www.w3.org/2000/svg" xmlns:xlink="http://www.w3.org/1999/xlink">
<g id="graph0" class="graph" transform="scale(1 1) rotate(0) translate(4 266.75)">
<title>/Users/ghostface/CLionProjects/Ctorch_2.13/CTorch/src/dev/Storage.cpp</title>
<!-- Node1 -->
<g id="Node000001" class="node">
<title>Node1</title>
<g id="a_Node000001"><a xlink:title="Ctorch 存储类实现">
<polygon fill="#999999" stroke="#666666" points="475.75,-262.75 320.25,-262.75 320.25,-221 475.75,-221 475.75,-262.75"/>
<text xml:space="preserve" text-anchor="start" x="328.25" y="-249.25" font-family="Helvetica,sans-Serif" font-size="10.00">/Users/ghostface/CLionProjects</text>
<text xml:space="preserve" text-anchor="start" x="328.25" y="-238" font-family="Helvetica,sans-Serif" font-size="10.00">/Ctorch_2.13/CTorch/src/dev</text>
<text xml:space="preserve" text-anchor="middle" x="398" y="-226.75" font-family="Helvetica,sans-Serif" font-size="10.00">/Storage.cpp</text>
</a>
</g>
</g>
<!-- Node2 -->
<g id="Node000002" class="node">
<title>Node2</title>
<g id="a_Node000002"><a xlink:href="_storage_8h.html" target="_top" xlink:title="Ctorch 存储类，用于管理张量数据的底层存储">
<polygon fill="white" stroke="#666666" points="427,-185 369,-185 369,-165.75 427,-165.75 427,-185"/>
<text xml:space="preserve" text-anchor="middle" x="398" y="-171.5" font-family="Helvetica,sans-Serif" font-size="10.00">Storage.h</text>
</a>
</g>
</g>
<!-- Node1&#45;&gt;Node2 -->
<g id="edge1_Node000001_Node000002" class="edge">
<title>Node1&#45;&gt;Node2</title>
<g id="a_edge1_Node000001_Node000002"><a xlink:title=" ">
<path fill="none" stroke="#63b8ff" d="M398,-220.82C398,-213.15 398,-204.39 398,-196.7"/>
<polygon fill="#63b8ff" stroke="#63b8ff" points="401.5,-196.96 398,-186.96 394.5,-196.96 401.5,-196.96"/>
</a>
</g>
</g>
<!-- Node3 -->
<g id="Node000003" class="node">
<title>Node3</title>
<g id="a_Node000003"><a xlink:href="_ctools_8h.html" target="_top" xlink:title="Ctorch 通用工具类，包含通用枚举类型和辅助函数">
<polygon fill="white" stroke="#666666" points="458.38,-74.5 405.62,-74.5 405.62,-55.25 458.38,-55.25 458.38,-74.5"/>
<text xml:space="preserve" text-anchor="middle" x="432" y="-61" font-family="Helvetica,sans-Serif" font-size="10.00">Ctools.h</text>
</a>
</g>
</g>
<!-- Node2&#45;&gt;Node3 -->
<g id="edge2_Node000002_Node000003" class="edge">
<title>Node2&#45;&gt;Node3</title>
<g id="a_edge2_Node000002_Node000003"><a xlink:title=" ">
<path fill="none" stroke="#63b8ff" d="M401.08,-165.51C404.18,-156.53 409.05,-142.22 413,-129.75 417.66,-115.03 422.63,-98.29 426.32,-85.64"/>
<polygon fill="#63b8ff" stroke="#63b8ff" points="429.68,-86.62 429.09,-76.04 422.95,-84.67 429.68,-86.62"/>
</a>
</g>
</g>
<!-- Node18 -->
<g id="Node000018" class="node">
<title>Node18</title>
<g id="a_Node000018"><a xlink:href="_ctorch___error_8h.html" target="_top" xlink:title="Ctorch 错误处理类">
<polygon fill="white" stroke="#666666" points="403.5,-129.75 324.5,-129.75 324.5,-110.5 403.5,-110.5 403.5,-129.75"/>
<text xml:space="preserve" text-anchor="middle" x="364" y="-116.25" font-family="Helvetica,sans-Serif" font-size="10.00">Ctorch_Error.h</text>
</a>
</g>
</g>
<!-- Node2&#45;&gt;Node18 -->
<g id="edge17_Node000002_Node000018" class="edge">
<title>Node2&#45;&gt;Node18</title>
<g id="a_edge17_Node000002_Node000018"><a xlink:title=" ">
<path fill="none" stroke="#63b8ff" d="M392.39,-165.58C387.88,-158.53 381.41,-148.4 375.79,-139.58"/>
<polygon fill="#63b8ff" stroke="#63b8ff" points="378.88,-137.93 370.55,-131.38 372.98,-141.7 378.88,-137.93"/>
</a>
</g>
</g>
<!-- Node4 -->
<g id="Node000004" class="node">
<title>Node4</title>
<g id="a_Node000004"><a xlink:title=" ">
<polygon fill="#e0e0e0" stroke="#999999" points="299.62,-19.25 254.38,-19.25 254.38,0 299.62,0 299.62,-19.25"/>
<text xml:space="preserve" text-anchor="middle" x="277" y="-5.75" font-family="Helvetica,sans-Serif" font-size="10.00">cstring</text>
</a>
</g>
</g>
<!-- Node3&#45;&gt;Node4 -->
<g id="edge3_Node000003_Node000004" class="edge">
<title>Node3&#45;&gt;Node4</title>
<g id="a_edge3_Node000003_Node000004"><a xlink:title=" ">
<path fill="none" stroke="#63b8ff" d="M405.71,-54.84C379.48,-45.83 339.08,-31.95 310.55,-22.15"/>
<polygon fill="#63b8ff" stroke="#63b8ff" points="311.91,-18.92 301.31,-18.98 309.63,-25.54 311.91,-18.92"/>
</a>
</g>
</g>
<!-- Node5 -->
<g id="Node000005" class="node">
<title>Node5</title>
<g id="a_Node000005"><a xlink:title=" ">
<polygon fill="#e0e0e0" stroke="#999999" points="362.62,-19.25 317.38,-19.25 317.38,0 362.62,0 362.62,-19.25"/>
<text xml:space="preserve" text-anchor="middle" x="340" y="-5.75" font-family="Helvetica,sans-Serif" font-size="10.00">chrono</text>
</a>
</g>
</g>
<!-- Node3&#45;&gt;Node5 -->
<g id="edge4_Node000003_Node000005" class="edge">
<title>Node3&#45;&gt;Node5</title>
<g id="a_edge4_Node000003_Node000005"><a xlink:title=" ">
<path fill="none" stroke="#63b8ff" d="M416.39,-54.84C402.38,-46.73 381.57,-34.68 365.2,-25.21"/>
<polygon fill="#63b8ff" stroke="#63b8ff" points="367.4,-22.44 356.99,-20.46 363.89,-28.5 367.4,-22.44"/>
</a>
</g>
</g>
<!-- Node6 -->
<g id="Node000006" class="node">
<title>Node6</title>
<g id="a_Node000006"><a xlink:title=" ">
<polygon fill="#e0e0e0" stroke="#999999" points="425.62,-19.25 380.38,-19.25 380.38,0 425.62,0 425.62,-19.25"/>
<text xml:space="preserve" text-anchor="middle" x="403" y="-5.75" font-family="Helvetica,sans-Serif" font-size="10.00">cstdint</text>
</a>
</g>
</g>
<!-- Node3&#45;&gt;Node6 -->
<g id="edge5_Node000003_Node000006" class="edge">
<title>Node3&#45;&gt;Node6</title>
<g id="a_edge5_Node000003_Node000006"><a xlink:title=" ">
<path fill="none" stroke="#63b8ff" d="M427.21,-55.08C423.46,-48.19 418.09,-38.34 413.37,-29.66"/>
<polygon fill="#63b8ff" stroke="#63b8ff" points="416.47,-28.05 408.62,-20.94 410.33,-31.39 416.47,-28.05"/>
</a>
</g>
</g>
<!-- Node7 -->
<g id="Node000007" class="node">
<title>Node7</title>
<g id="a_Node000007"><a xlink:title=" ">
<polygon fill="#e0e0e0" stroke="#999999" points="40,-19.25 0,-19.25 0,0 40,0 40,-19.25"/>
<text xml:space="preserve" text-anchor="middle" x="20" y="-5.75" font-family="Helvetica,sans-Serif" font-size="10.00">ctime</text>
</a>
</g>
</g>
<!-- Node3&#45;&gt;Node7 -->
<g id="edge6_Node000003_Node000007" class="edge">
<title>Node3&#45;&gt;Node7</title>
<g id="a_edge6_Node000003_Node000007"><a xlink:title=" ">
<path fill="none" stroke="#63b8ff" d="M405.28,-62.36C344.2,-58.55 189.58,-47.01 51.65,-19.47"/>
<polygon fill="#63b8ff" stroke="#63b8ff" points="52.46,-16.06 41.97,-17.5 51.07,-22.92 52.46,-16.06"/>
</a>
</g>
</g>
<!-- Node8 -->
<g id="Node000008" class="node">
<title>Node8</title>
<g id="a_Node000008"><a xlink:title=" ">
<polygon fill="#e0e0e0" stroke="#999999" points="98,-19.25 58,-19.25 58,0 98,0 98,-19.25"/>
<text xml:space="preserve" text-anchor="middle" x="78" y="-5.75" font-family="Helvetica,sans-Serif" font-size="10.00">string</text>
</a>
</g>
</g>
<!-- Node3&#45;&gt;Node8 -->
<g id="edge7_Node000003_Node000008" class="edge">
<title>Node3&#45;&gt;Node8</title>
<g id="a_edge7_Node000003_Node000008"><a xlink:title=" ">
<path fill="none" stroke="#63b8ff" d="M405.22,-61.59C351.08,-56.69 224.62,-43.73 109.59,-19.52"/>
<polygon fill="#63b8ff" stroke="#63b8ff" points="110.49,-16.13 99.97,-17.46 109.02,-22.98 110.49,-16.13"/>
</a>
</g>
</g>
<!-- Node9 -->
<g id="Node000009" class="node">
<title>Node9</title>
<g id="a_Node000009"><a xlink:title=" ">
<polygon fill="#e0e0e0" stroke="#999999" points="167.62,-19.25 116.38,-19.25 116.38,0 167.62,0 167.62,-19.25"/>
<text xml:space="preserve" text-anchor="middle" x="142" y="-5.75" font-family="Helvetica,sans-Serif" font-size="10.00">sstream</text>
</a>
</g>
</g>
<!-- Node3&#45;&gt;Node9 -->
<g id="edge8_Node000003_Node000009" class="edge">
<title>Node3&#45;&gt;Node9</title>
<g id="a_edge8_Node000003_Node000009"><a xlink:title=" ">
<path fill="none" stroke="#63b8ff" d="M405.45,-59.84C360.83,-52.93 267.75,-37.96 179.02,-19.55"/>
<polygon fill="#63b8ff" stroke="#63b8ff" points="179.94,-16.17 169.43,-17.54 178.5,-23.02 179.94,-16.17"/>
</a>
</g>
</g>
<!-- Node10 -->
<g id="Node000010" class="node">
<title>Node10</title>
<g id="a_Node000010"><a xlink:title=" ">
<polygon fill="#e0e0e0" stroke="#999999" points="235.88,-19.25 186.12,-19.25 186.12,0 235.88,0 235.88,-19.25"/>
<text xml:space="preserve" text-anchor="middle" x="211" y="-5.75" font-family="Helvetica,sans-Serif" font-size="10.00">iomanip</text>
</a>
</g>
</g>
<!-- Node3&#45;&gt;Node10 -->
<g id="edge9_Node000003_Node000010" class="edge">
<title>Node3&#45;&gt;Node10</title>
<g id="a_edge9_Node000003_Node000010"><a xlink:title=" ">
<path fill="none" stroke="#63b8ff" d="M405.34,-57.64C371.02,-49.58 309.28,-35 247.04,-19.73"/>
<polygon fill="#63b8ff" stroke="#63b8ff" points="248.26,-16.42 237.71,-17.43 246.59,-23.22 248.26,-16.42"/>
</a>
</g>
</g>
<!-- Node11 -->
<g id="Node000011" class="node">
<title>Node11</title>
<g id="a_Node000011"><a xlink:title=" ">
<polygon fill="#e0e0e0" stroke="#999999" points="693.12,-19.25 644.88,-19.25 644.88,0 693.12,0 693.12,-19.25"/>
<text xml:space="preserve" text-anchor="middle" x="669" y="-5.75" font-family="Helvetica,sans-Serif" font-size="10.00">stdint.h</text>
</a>
</g>
</g>
<!-- Node3&#45;&gt;Node11 -->
<g id="edge10_Node000003_Node000011" class="edge">
<title>Node3&#45;&gt;Node11</title>
<g id="a_edge10_Node000003_Node000011"><a xlink:title=" ">
<path fill="none" stroke="#63b8ff" d="M458.81,-58.37C495.9,-50.68 565.21,-36.02 633.56,-19.76"/>
<polygon fill="#63b8ff" stroke="#63b8ff" points="634.14,-23.22 643.05,-17.49 632.51,-16.42 634.14,-23.22"/>
</a>
</g>
</g>
<!-- Node12 -->
<g id="Node000012" class="node">
<title>Node12</title>
<g id="a_Node000012"><a xlink:title=" ">
<polygon fill="#e0e0e0" stroke="#999999" points="770.38,-19.25 711.62,-19.25 711.62,0 770.38,0 770.38,-19.25"/>
<text xml:space="preserve" text-anchor="middle" x="741" y="-5.75" font-family="Helvetica,sans-Serif" font-size="10.00">inttypes.h</text>
</a>
</g>
</g>
<!-- Node3&#45;&gt;Node12 -->
<g id="edge11_Node000003_Node000012" class="edge">
<title>Node3&#45;&gt;Node12</title>
<g id="a_edge11_Node000003_Node000012"><a xlink:title=" ">
<path fill="none" stroke="#63b8ff" d="M458.53,-59.98C505.17,-53.02 605.13,-37.64 699.98,-19.54"/>
<polygon fill="#63b8ff" stroke="#63b8ff" points="700.58,-22.99 709.74,-17.67 699.26,-16.12 700.58,-22.99"/>
</a>
</g>
</g>
<!-- Node13 -->
<g id="Node000013" class="node">
<title>Node13</title>
<g id="a_Node000013"><a xlink:title=" ">
<polygon fill="#e0e0e0" stroke="#999999" points="831.5,-19.25 788.5,-19.25 788.5,0 831.5,0 831.5,-19.25"/>
<text xml:space="preserve" text-anchor="middle" x="810" y="-5.75" font-family="Helvetica,sans-Serif" font-size="10.00">mutex</text>
</a>
</g>
</g>
<!-- Node3&#45;&gt;Node13 -->
<g id="edge12_Node000003_Node000013" class="edge">
<title>Node3&#45;&gt;Node13</title>
<g id="a_edge12_Node000003_Node000013"><a xlink:title=" ">
<path fill="none" stroke="#63b8ff" d="M458.77,-61.75C515.57,-56.96 652.49,-43.95 776.86,-19.4"/>
<polygon fill="#63b8ff" stroke="#63b8ff" points="777.48,-22.84 786.59,-17.44 776.1,-15.98 777.48,-22.84"/>
</a>
</g>
</g>
<!-- Node14 -->
<g id="Node000014" class="node">
<title>Node14</title>
<g id="a_Node000014"><a xlink:title=" ">
<polygon fill="#e0e0e0" stroke="#999999" points="892.5,-19.25 849.5,-19.25 849.5,0 892.5,0 892.5,-19.25"/>
<text xml:space="preserve" text-anchor="middle" x="871" y="-5.75" font-family="Helvetica,sans-Serif" font-size="10.00">thread</text>
</a>
</g>
</g>
<!-- Node3&#45;&gt;Node14 -->
<g id="edge13_Node000003_Node000014" class="edge">
<title>Node3&#45;&gt;Node14</title>
<g id="a_edge13_Node000003_Node000014"><a xlink:title=" ">
<path fill="none" stroke="#63b8ff" d="M458.55,-62.56C522.46,-59.05 689.93,-47.88 838.07,-19.54"/>
<polygon fill="#63b8ff" stroke="#63b8ff" points="838.52,-23.01 847.67,-17.66 837.18,-16.14 838.52,-23.01"/>
</a>
</g>
</g>
<!-- Node15 -->
<g id="Node000015" class="node">
<title>Node15</title>
<g id="a_Node000015"><a xlink:title=" ">
<polygon fill="#e0e0e0" stroke="#999999" points="486.5,-19.25 443.5,-19.25 443.5,0 486.5,0 486.5,-19.25"/>
<text xml:space="preserve" text-anchor="middle" x="465" y="-5.75" font-family="Helvetica,sans-Serif" font-size="10.00">vector</text>
</a>
</g>
</g>
<!-- Node3&#45;&gt;Node15 -->
<g id="edge14_Node000003_Node000015" class="edge">
<title>Node3&#45;&gt;Node15</title>
<g id="a_edge14_Node000003_Node000015"><a xlink:title=" ">
<path fill="none" stroke="#63b8ff" d="M437.45,-55.08C441.77,-48.11 447.96,-38.12 453.38,-29.37"/>
<polygon fill="#63b8ff" stroke="#63b8ff" points="456.34,-31.24 458.64,-20.9 450.39,-27.55 456.34,-31.24"/>
</a>
</g>
</g>
<!-- Node16 -->
<g id="Node000016" class="node">
<title>Node16</title>
<g id="a_Node000016"><a xlink:title=" ">
<polygon fill="#e0e0e0" stroke="#999999" points="555.62,-19.25 504.38,-19.25 504.38,0 555.62,0 555.62,-19.25"/>
<text xml:space="preserve" text-anchor="middle" x="530" y="-5.75" font-family="Helvetica,sans-Serif" font-size="10.00">memory</text>
</a>
</g>
</g>
<!-- Node3&#45;&gt;Node16 -->
<g id="edge15_Node000003_Node000016" class="edge">
<title>Node3&#45;&gt;Node16</title>
<g id="a_edge15_Node000003_Node000016"><a xlink:title=" ">
<path fill="none" stroke="#63b8ff" d="M448.62,-54.84C463.69,-46.66 486.14,-34.46 503.65,-24.94"/>
<polygon fill="#63b8ff" stroke="#63b8ff" points="504.85,-28.27 511.96,-20.43 501.51,-22.12 504.85,-28.27"/>
</a>
</g>
</g>
<!-- Node17 -->
<g id="Node000017" class="node">
<title>Node17</title>
<g id="a_Node000017"><a xlink:title=" ">
<polygon fill="#e0e0e0" stroke="#999999" points="626.75,-19.25 573.25,-19.25 573.25,0 626.75,0 626.75,-19.25"/>
<text xml:space="preserve" text-anchor="middle" x="600" y="-5.75" font-family="Helvetica,sans-Serif" font-size="10.00">iostream</text>
</a>
</g>
</g>
<!-- Node3&#45;&gt;Node17 -->
<g id="edge16_Node000003_Node000017" class="edge">
<title>Node3&#45;&gt;Node17</title>
<g id="a_edge16_Node000003_Node000017"><a xlink:title=" ">
<path fill="none" stroke="#63b8ff" d="M458.62,-55.44C486.59,-46.57 530.83,-32.55 562.37,-22.55"/>
<polygon fill="#63b8ff" stroke="#63b8ff" points="563.03,-26.01 571.51,-19.66 560.92,-19.34 563.03,-26.01"/>
</a>
</g>
</g>
<!-- Node18&#45;&gt;Node3 -->
<g id="edge29_Node000018_Node000003" class="edge">
<title>Node18&#45;&gt;Node3</title>
<g id="a_edge29_Node000018_Node000003"><a xlink:title=" ">
<path fill="none" stroke="#63b8ff" d="M375.54,-110.09C385.46,-102.32 400.01,-90.92 411.86,-81.65"/>
<polygon fill="#63b8ff" stroke="#63b8ff" points="413.73,-84.63 419.44,-75.71 409.41,-79.12 413.73,-84.63"/>
</a>
</g>
</g>
<!-- Node18&#45;&gt;Node4 -->
<g id="edge18_Node000018_Node000004" class="edge">
<title>Node18&#45;&gt;Node4</title>
<g id="a_edge18_Node000018_Node000004"><a xlink:title=" ">
<path fill="none" stroke="#63b8ff" d="M356.88,-110.25C342.61,-92.44 310.24,-52.08 291.38,-28.56"/>
<polygon fill="#63b8ff" stroke="#63b8ff" points="294.15,-26.42 285.16,-20.81 288.69,-30.8 294.15,-26.42"/>
</a>
</g>
</g>
<!-- Node18&#45;&gt;Node5 -->
<g id="edge19_Node000018_Node000005" class="edge">
<title>Node18&#45;&gt;Node5</title>
<g id="a_edge19_Node000018_Node000005"><a xlink:title=" ">
<path fill="none" stroke="#63b8ff" d="M362.04,-110.25C358.22,-93 349.72,-54.58 344.47,-30.81"/>
<polygon fill="#63b8ff" stroke="#63b8ff" points="347.9,-30.11 342.32,-21.1 341.06,-31.62 347.9,-30.11"/>
</a>
</g>
</g>
<!-- Node18&#45;&gt;Node6 -->
<g id="edge20_Node000018_Node000006" class="edge">
<title>Node18&#45;&gt;Node6</title>
<g id="a_edge20_Node000018_Node000006"><a xlink:title=" ">
<path fill="none" stroke="#63b8ff" d="M367.19,-110.25C373.45,-92.84 387.45,-53.87 395.98,-30.16"/>
<polygon fill="#63b8ff" stroke="#63b8ff" points="399.16,-31.65 399.25,-21.05 392.58,-29.28 399.16,-31.65"/>
</a>
</g>
</g>
<!-- Node18&#45;&gt;Node7 -->
<g id="edge21_Node000018_Node000007" class="edge">
<title>Node18&#45;&gt;Node7</title>
<g id="a_edge21_Node000018_Node000007"><a xlink:title=" ">
<path fill="none" stroke="#63b8ff" d="M324.27,-110.81C287.52,-102.77 231.57,-89.59 184,-74.5 136.64,-59.47 83.27,-37.76 50.64,-23.92"/>
<polygon fill="#63b8ff" stroke="#63b8ff" points="52.37,-20.86 41.8,-20.15 49.62,-27.29 52.37,-20.86"/>
</a>
</g>
</g>
<!-- Node18&#45;&gt;Node8 -->
<g id="edge22_Node000018_Node000008" class="edge">
<title>Node18&#45;&gt;Node8</title>
<g id="a_edge22_Node000018_Node000008"><a xlink:title=" ">
<path fill="none" stroke="#63b8ff" d="M336.89,-110.1C310.89,-101.35 270.58,-87.51 236,-74.5 191.41,-57.73 140.41,-36.78 108.7,-23.55"/>
<polygon fill="#63b8ff" stroke="#63b8ff" points="110.3,-20.43 99.72,-19.8 107.6,-26.89 110.3,-20.43"/>
</a>
</g>
</g>
<!-- Node18&#45;&gt;Node9 -->
<g id="edge23_Node000018_Node000009" class="edge">
<title>Node18&#45;&gt;Node9</title>
<g id="a_edge23_Node000018_Node000009"><a xlink:title=" ">
<path fill="none" stroke="#63b8ff" d="M345.45,-110.06C306.77,-91.15 217.22,-47.39 170.91,-24.75"/>
<polygon fill="#63b8ff" stroke="#63b8ff" points="172.53,-21.65 162.01,-20.4 169.46,-27.94 172.53,-21.65"/>
</a>
</g>
</g>
<!-- Node18&#45;&gt;Node10 -->
<g id="edge24_Node000018_Node000010" class="edge">
<title>Node18&#45;&gt;Node10</title>
<g id="a_edge24_Node000018_Node000010"><a xlink:title=" ">
<path fill="none" stroke="#63b8ff" d="M351.22,-110.06C325.05,-91.51 265.13,-49.01 232.74,-26.04"/>
<polygon fill="#63b8ff" stroke="#63b8ff" points="235.05,-23.39 224.87,-20.46 231,-29.1 235.05,-23.39"/>
</a>
</g>
</g>
<!-- Node18&#45;&gt;Node11 -->
<g id="edge25_Node000018_Node000011" class="edge">
<title>Node18&#45;&gt;Node11</title>
<g id="a_edge25_Node000018_Node000011"><a xlink:title=" ">
<path fill="none" stroke="#63b8ff" d="M389.48,-110.06C443.93,-90.69 571.72,-45.23 633.85,-23.13"/>
<polygon fill="#63b8ff" stroke="#63b8ff" points="634.98,-26.44 643.23,-19.79 632.64,-19.85 634.98,-26.44"/>
</a>
</g>
</g>
<!-- Node18&#45;&gt;Node12 -->
<g id="edge26_Node000018_Node000012" class="edge">
<title>Node18&#45;&gt;Node12</title>
<g id="a_edge26_Node000018_Node000012"><a xlink:title=" ">
<path fill="none" stroke="#63b8ff" d="M399.28,-110.07C433.15,-101.29 485.7,-87.44 531,-74.5 590.58,-57.48 659.19,-36.32 701.32,-23.13"/>
<polygon fill="#63b8ff" stroke="#63b8ff" points="702.28,-26.5 710.77,-20.17 700.19,-19.82 702.28,-26.5"/>
</a>
</g>
</g>
<!-- Node18&#45;&gt;Node13 -->
<g id="edge27_Node000018_Node000013" class="edge">
<title>Node18&#45;&gt;Node13</title>
<g id="a_edge27_Node000018_Node000013"><a xlink:title=" ">
<path fill="none" stroke="#63b8ff" d="M403.81,-111.53C446.72,-103.17 516.95,-88.99 577,-74.5 664.03,-53.5 687.52,-44.68 777.33,-19.71"/>
<polygon fill="#63b8ff" stroke="#63b8ff" points="778.16,-23.12 786.86,-17.07 776.29,-16.37 778.16,-23.12"/>
</a>
</g>
</g>
<!-- Node18&#45;&gt;Node14 -->
<g id="edge28_Node000018_Node000014" class="edge">
<title>Node18&#45;&gt;Node14</title>
<g id="a_edge28_Node000018_Node000014"><a xlink:title=" ">
<path fill="none" stroke="#63b8ff" d="M403.56,-113.53C455.37,-105.95 548.91,-91.41 628,-74.5 720.09,-54.81 744.85,-45.73 837.98,-20.05"/>
<polygon fill="#63b8ff" stroke="#63b8ff" points="838.89,-23.43 847.6,-17.4 837.03,-16.68 838.89,-23.43"/>
</a>
</g>
</g>
</g>
</svg>
