<?xml version="1.0" encoding="UTF-8" standalone="no"?>
<!DOCTYPE svg PUBLIC "-//W3C//DTD SVG 1.1//EN"
 "http://www.w3.org/Graphics/SVG/1.1/DTD/svg11.dtd">
<!-- Generated by graphviz version 14.1.1 (20251213.1925)
 -->
<!-- Title: Storage.h Pages: 1 -->
<svg width="510pt" height="193pt"
 viewBox="0.00 0.00 510.00 193.00" xmlns="http://www.w3.org/2000/svg" xmlns:xlink="http://www.w3.org/1999/xlink">
<g id="graph0" class="graph" transform="scale(1 1) rotate(0) translate(4 189)">
<title>Storage.h</title>
<!-- Node1 -->
<g id="Node000001" class="node">
<title>Node1</title>
<g id="a_Node000001"><a xlink:title="Ctorch 存储类，用于管理张量数据的底层存储">
<polygon fill="#999999" stroke="#666666" points="204.38,-185 146.38,-185 146.38,-165.75 204.38,-165.75 204.38,-185"/>
<text xml:space="preserve" text-anchor="middle" x="175.38" y="-171.5" font-family="Helvetica,sans-Serif" font-size="10.00">Storage.h</text>
</a>
</g>
</g>
<!-- Node2 -->
<g id="Node000002" class="node">
<title>Node2</title>
<g id="a_Node000002"><a xlink:href="_storage_8cpp.html" target="_top" xlink:title="Ctorch 存储类实现">
<polygon fill="white" stroke="#666666" points="170.62,-129.75 102.12,-129.75 102.12,-110.5 170.62,-110.5 170.62,-129.75"/>
<text xml:space="preserve" text-anchor="middle" x="136.38" y="-116.25" font-family="Helvetica,sans-Serif" font-size="10.00">Storage.cpp</text>
</a>
</g>
</g>
<!-- Node1&#45;&gt;Node2 -->
<g id="edge1_Node000001_Node000002" class="edge">
<title>Node1&#45;&gt;Node2</title>
<g id="a_edge1_Node000001_Node000002"><a xlink:title=" ">
<path fill="none" stroke="#63b8ff" d="M162.24,-156.44C155.75,-147.59 148.21,-137.29 142.95,-130.11"/>
<polygon fill="#63b8ff" stroke="#63b8ff" points="159.31,-158.36 168.04,-164.36 164.96,-154.23 159.31,-158.36"/>
</a>
</g>
</g>
<!-- Node3 -->
<g id="Node000003" class="node">
<title>Node3</title>
<g id="a_Node000003"><a xlink:href="_tensor_8h.html" target="_top" xlink:title="张量类和相关操作的定义">
<polygon fill="white" stroke="#666666" points="241.75,-129.75 189,-129.75 189,-110.5 241.75,-110.5 241.75,-129.75"/>
<text xml:space="preserve" text-anchor="middle" x="215.38" y="-116.25" font-family="Helvetica,sans-Serif" font-size="10.00">Tensor.h</text>
</a>
</g>
</g>
<!-- Node1&#45;&gt;Node3 -->
<g id="edge2_Node000001_Node000003" class="edge">
<title>Node1&#45;&gt;Node3</title>
<g id="a_edge2_Node000001_Node000003"><a xlink:title=" ">
<path fill="none" stroke="#63b8ff" d="M188.85,-156.44C195.5,-147.59 203.23,-137.29 208.63,-130.11"/>
<polygon fill="#63b8ff" stroke="#63b8ff" points="186.1,-154.27 182.89,-164.37 191.69,-158.48 186.1,-154.27"/>
</a>
</g>
</g>
<!-- Node4 -->
<g id="Node000004" class="node">
<title>Node4</title>
<g id="a_Node000004"><a xlink:href="_auto_diff_8cpp.html" target="_top" xlink:title="Ctorch 自动微分系统实现">
<polygon fill="white" stroke="#666666" points="70.75,-74.5 0,-74.5 0,-55.25 70.75,-55.25 70.75,-74.5"/>
<text xml:space="preserve" text-anchor="middle" x="35.38" y="-61" font-family="Helvetica,sans-Serif" font-size="10.00">AutoDiff.cpp</text>
</a>
</g>
</g>
<!-- Node3&#45;&gt;Node4 -->
<g id="edge3_Node000003_Node000004" class="edge">
<title>Node3&#45;&gt;Node4</title>
<g id="a_edge3_Node000003_Node000004"><a xlink:title=" ">
<path fill="none" stroke="#63b8ff" d="M178.17,-108.12C144.98,-98.3 96.97,-84.1 65.96,-74.92"/>
<polygon fill="#63b8ff" stroke="#63b8ff" points="176.78,-111.36 187.36,-110.84 178.77,-104.65 176.78,-111.36"/>
</a>
</g>
</g>
<!-- Node5 -->
<g id="Node000005" class="node">
<title>Node5</title>
<g id="a_Node000005"><a xlink:href="_ctorch___scheduler_8h.html" target="_top" xlink:title="Ctorch 框架的核心调度器类">
<polygon fill="white" stroke="#666666" points="266.12,-74.5 164.62,-74.5 164.62,-55.25 266.12,-55.25 266.12,-74.5"/>
<text xml:space="preserve" text-anchor="middle" x="215.38" y="-61" font-family="Helvetica,sans-Serif" font-size="10.00">Ctorch_Scheduler.h</text>
</a>
</g>
</g>
<!-- Node3&#45;&gt;Node5 -->
<g id="edge4_Node000003_Node000005" class="edge">
<title>Node3&#45;&gt;Node5</title>
<g id="a_edge4_Node000003_Node000005"><a xlink:title=" ">
<path fill="none" stroke="#63b8ff" d="M215.38,-98.88C215.38,-90.59 215.38,-81.42 215.38,-74.86"/>
<polygon fill="#63b8ff" stroke="#63b8ff" points="211.88,-98.82 215.38,-108.82 218.88,-98.82 211.88,-98.82"/>
</a>
</g>
</g>
<!-- Node6 -->
<g id="Node000006" class="node">
<title>Node6</title>
<g id="a_Node000006"><a xlink:href="_tensor_8cpp.html" target="_top" xlink:title="张量类的实现">
<polygon fill="white" stroke="#666666" points="127,-19.25 63.75,-19.25 63.75,0 127,0 127,-19.25"/>
<text xml:space="preserve" text-anchor="middle" x="95.38" y="-5.75" font-family="Helvetica,sans-Serif" font-size="10.00">Tensor.cpp</text>
</a>
</g>
</g>
<!-- Node3&#45;&gt;Node6 -->
<g id="edge8_Node000003_Node000006" class="edge">
<title>Node3&#45;&gt;Node6</title>
<g id="a_edge8_Node000003_Node000006"><a xlink:title=" ">
<path fill="none" stroke="#63b8ff" d="M189.27,-104.21C176.32,-96.22 160.83,-85.71 148.38,-74.5 129.1,-57.15 110.73,-32.62 101.52,-19.58"/>
<polygon fill="#63b8ff" stroke="#63b8ff" points="187.33,-107.13 197.71,-109.27 190.93,-101.13 187.33,-107.13"/>
</a>
</g>
</g>
<!-- Node7 -->
<g id="Node000007" class="node">
<title>Node7</title>
<g id="a_Node000007"><a xlink:href="large__scale__test_8cpp.html" target="_top" xlink:title="大规模Tensor计算测试和20个节点的自动微分测试">
<polygon fill="white" stroke="#666666" points="251.38,-19.25 145.38,-19.25 145.38,0 251.38,0 251.38,-19.25"/>
<text xml:space="preserve" text-anchor="middle" x="198.38" y="-5.75" font-family="Helvetica,sans-Serif" font-size="10.00">large_scale_test.cpp</text>
</a>
</g>
</g>
<!-- Node3&#45;&gt;Node7 -->
<g id="edge9_Node000003_Node000007" class="edge">
<title>Node3&#45;&gt;Node7</title>
<g id="a_edge9_Node000003_Node000007"><a xlink:title=" ">
<path fill="none" stroke="#63b8ff" d="M185.05,-104.4C173.56,-97.12 161.73,-87.15 155.38,-74.5 144.93,-53.72 168.55,-31.68 184.75,-19.69"/>
<polygon fill="#63b8ff" stroke="#63b8ff" points="183.19,-107.37 193.6,-109.34 186.69,-101.31 183.19,-107.37"/>
</a>
</g>
</g>
<!-- Node8 -->
<g id="Node000008" class="node">
<title>Node8</title>
<g id="a_Node000008"><a xlink:href="main_8cpp.html" target="_top" xlink:title=" ">
<polygon fill="white" stroke="#666666" points="325.25,-19.25 269.5,-19.25 269.5,0 325.25,0 325.25,-19.25"/>
<text xml:space="preserve" text-anchor="middle" x="297.38" y="-5.75" font-family="Helvetica,sans-Serif" font-size="10.00">main.cpp</text>
</a>
</g>
</g>
<!-- Node3&#45;&gt;Node8 -->
<g id="edge10_Node000003_Node000008" class="edge">
<title>Node3&#45;&gt;Node8</title>
<g id="a_edge10_Node000003_Node000008"><a xlink:title=" ">
<path fill="none" stroke="#63b8ff" d="M242.31,-104.13C253.85,-96.55 266.66,-86.41 275.38,-74.5 287.84,-57.46 293.65,-32.8 296,-19.67"/>
<polygon fill="#63b8ff" stroke="#63b8ff" points="240.57,-101.09 233.9,-109.33 244.25,-107.04 240.57,-101.09"/>
</a>
</g>
</g>
<!-- Node9 -->
<g id="Node000009" class="node">
<title>Node9</title>
<g id="a_Node000009"><a xlink:href="performance__test_8cpp.html" target="_top" xlink:title=" ">
<polygon fill="white" stroke="#666666" points="432.62,-74.5 322.12,-74.5 322.12,-55.25 432.62,-55.25 432.62,-74.5"/>
<text xml:space="preserve" text-anchor="middle" x="377.38" y="-61" font-family="Helvetica,sans-Serif" font-size="10.00">performance_test.cpp</text>
</a>
</g>
</g>
<!-- Node3&#45;&gt;Node9 -->
<g id="edge11_Node000003_Node000009" class="edge">
<title>Node3&#45;&gt;Node9</title>
<g id="a_edge11_Node000003_Node000009"><a xlink:title=" ">
<path fill="none" stroke="#63b8ff" d="M252.88,-106.8C282.48,-97.07 323.09,-83.72 349.77,-74.95"/>
<polygon fill="#63b8ff" stroke="#63b8ff" points="251.97,-103.41 243.56,-109.86 254.16,-110.06 251.97,-103.41"/>
</a>
</g>
</g>
<!-- Node10 -->
<g id="Node000010" class="node">
<title>Node10</title>
<g id="a_Node000010"><a xlink:href="test_8cpp.html" target="_top" xlink:title=" ">
<polygon fill="white" stroke="#666666" points="502,-74.5 450.75,-74.5 450.75,-55.25 502,-55.25 502,-74.5"/>
<text xml:space="preserve" text-anchor="middle" x="476.38" y="-61" font-family="Helvetica,sans-Serif" font-size="10.00">test.cpp</text>
</a>
</g>
</g>
<!-- Node3&#45;&gt;Node10 -->
<g id="edge12_Node000003_Node000010" class="edge">
<title>Node3&#45;&gt;Node10</title>
<g id="a_edge12_Node000003_Node000010"><a xlink:title=" ">
<path fill="none" stroke="#63b8ff" d="M253.52,-112.16C298.54,-103.8 375.61,-89.09 441.38,-74.5 444.31,-73.85 447.37,-73.14 450.41,-72.42"/>
<polygon fill="#63b8ff" stroke="#63b8ff" points="252.93,-108.7 243.74,-113.96 254.21,-115.59 252.93,-108.7"/>
</a>
</g>
</g>
<!-- Node5&#45;&gt;Node6 -->
<g id="edge5_Node000005_Node000006" class="edge">
<title>Node5&#45;&gt;Node6</title>
<g id="a_edge5_Node000005_Node000006"><a xlink:title=" ">
<path fill="none" stroke="#63b8ff" d="M184.72,-50.27C163.1,-40.68 134.74,-28.09 115.83,-19.7"/>
<polygon fill="#63b8ff" stroke="#63b8ff" points="183.08,-53.37 193.64,-54.23 185.91,-46.97 183.08,-53.37"/>
</a>
</g>
</g>
<!-- Node5&#45;&gt;Node7 -->
<g id="edge6_Node000005_Node000007" class="edge">
<title>Node5&#45;&gt;Node7</title>
<g id="a_edge6_Node000005_Node000007"><a xlink:title=" ">
<path fill="none" stroke="#63b8ff" d="M209.1,-44.21C206.4,-35.77 203.39,-26.33 201.24,-19.61"/>
<polygon fill="#63b8ff" stroke="#63b8ff" points="205.73,-45.18 212.11,-53.64 212.4,-43.05 205.73,-45.18"/>
</a>
</g>
</g>
<!-- Node5&#45;&gt;Node8 -->
<g id="edge7_Node000005_Node000008" class="edge">
<title>Node5&#45;&gt;Node8</title>
<g id="a_edge7_Node000005_Node000008"><a xlink:title=" ">
<path fill="none" stroke="#63b8ff" d="M238.58,-48.8C253.03,-39.42 271.12,-27.67 283.4,-19.7"/>
<polygon fill="#63b8ff" stroke="#63b8ff" points="237.04,-45.64 230.55,-54.02 240.85,-51.51 237.04,-45.64"/>
</a>
</g>
</g>
</g>
</svg>
