<?xml version="1.0" encoding="UTF-8" standalone="no"?>
<!DOCTYPE svg PUBLIC "-//W3C//DTD SVG 1.1//EN"
 "http://www.w3.org/Graphics/SVG/1.1/DTD/svg11.dtd">
<!-- Generated by graphviz version 14.1.1 (20251213.1925)
 -->
<!-- Title: Tensor.h Pages: 1 -->
<svg width="1334pt" height="248pt"
 viewBox="0.00 0.00 1334.00 248.00" xmlns="http://www.w3.org/2000/svg" xmlns:xlink="http://www.w3.org/1999/xlink">
<g id="graph0" class="graph" transform="scale(1 1) rotate(0) translate(4 244.25)">
<title>Tensor.h</title>
<!-- Node1 -->
<g id="Node000001" class="node">
<title>Node1</title>
<g id="a_Node000001"><a xlink:title="张量类和相关操作的定义">
<polygon fill="#999999" stroke="#666666" points="745.25,-240.25 692.5,-240.25 692.5,-221 745.25,-221 745.25,-240.25"/>
<text xml:space="preserve" text-anchor="middle" x="718.88" y="-226.75" font-family="Helvetica,sans-Serif" font-size="10.00">Tensor.h</text>
</a>
</g>
</g>
<!-- Node2 -->
<g id="Node000002" class="node">
<title>Node2</title>
<g id="a_Node000002"><a xlink:title=" ">
<polygon fill="#e0e0e0" stroke="#999999" points="55.75,-185 0,-185 0,-165.75 55.75,-165.75 55.75,-185"/>
<text xml:space="preserve" text-anchor="middle" x="27.88" y="-171.5" font-family="Helvetica,sans-Serif" font-size="10.00">algorithm</text>
</a>
</g>
</g>
<!-- Node1&#45;&gt;Node2 -->
<g id="edge1_Node000001_Node000002" class="edge">
<title>Node1&#45;&gt;Node2</title>
<g id="a_edge1_Node000001_Node000002"><a xlink:title=" ">
<path fill="none" stroke="#63b8ff" d="M692.23,-229.34C604.29,-228.08 315.22,-221.38 67.1,-185.08"/>
<polygon fill="#63b8ff" stroke="#63b8ff" points="67.97,-181.67 57.56,-183.66 66.94,-188.59 67.97,-181.67"/>
</a>
</g>
</g>
<!-- Node3 -->
<g id="Node000003" class="node">
<title>Node3</title>
<g id="a_Node000003"><a xlink:title=" ">
<polygon fill="#e0e0e0" stroke="#999999" points="122,-185 73.75,-185 73.75,-165.75 122,-165.75 122,-185"/>
<text xml:space="preserve" text-anchor="middle" x="97.88" y="-171.5" font-family="Helvetica,sans-Serif" font-size="10.00">cstddef</text>
</a>
</g>
</g>
<!-- Node1&#45;&gt;Node3 -->
<g id="edge2_Node000001_Node000003" class="edge">
<title>Node1&#45;&gt;Node3</title>
<g id="a_edge2_Node000001_Node000003"><a xlink:title=" ">
<path fill="none" stroke="#63b8ff" d="M692.28,-228.98C609.45,-226.67 348.92,-217.15 135.88,-185 135.05,-184.88 134.21,-184.74 133.37,-184.6"/>
<polygon fill="#63b8ff" stroke="#63b8ff" points="134.27,-181.21 123.79,-182.76 132.95,-188.09 134.27,-181.21"/>
</a>
</g>
</g>
<!-- Node4 -->
<g id="Node000004" class="node">
<title>Node4</title>
<g id="a_Node000004"><a xlink:href="_ctorch___error_8h.html" target="_top" xlink:title="Ctorch 错误处理类">
<polygon fill="white" stroke="#666666" points="575.38,-129.75 496.38,-129.75 496.38,-110.5 575.38,-110.5 575.38,-129.75"/>
<text xml:space="preserve" text-anchor="middle" x="535.88" y="-116.25" font-family="Helvetica,sans-Serif" font-size="10.00">Ctorch_Error.h</text>
</a>
</g>
</g>
<!-- Node1&#45;&gt;Node4 -->
<g id="edge3_Node000001_Node000004" class="edge">
<title>Node1&#45;&gt;Node4</title>
<g id="a_edge3_Node000001_Node000004"><a xlink:title=" ">
<path fill="none" stroke="#63b8ff" d="M692.18,-228.23C659.19,-225.2 602.99,-215.56 566.88,-185 553.48,-173.67 545.4,-155.2 540.86,-141.02"/>
<polygon fill="#63b8ff" stroke="#63b8ff" points="544.24,-140.1 538.15,-131.42 537.5,-142 544.24,-140.1"/>
</a>
</g>
</g>
<!-- Node5 -->
<g id="Node000005" class="node">
<title>Node5</title>
<g id="a_Node000005"><a xlink:title=" ">
<polygon fill="#e0e0e0" stroke="#999999" points="191.5,-19.25 146.25,-19.25 146.25,0 191.5,0 191.5,-19.25"/>
<text xml:space="preserve" text-anchor="middle" x="168.88" y="-5.75" font-family="Helvetica,sans-Serif" font-size="10.00">cstring</text>
</a>
</g>
</g>
<!-- Node1&#45;&gt;Node5 -->
<g id="edge41_Node000001_Node000005" class="edge">
<title>Node1&#45;&gt;Node5</title>
<g id="a_edge41_Node000001_Node000005"><a xlink:title=" ">
<path fill="none" stroke="#63b8ff" d="M692.24,-228.93C641.01,-226.83 525.85,-218.46 435.88,-185 332.59,-146.59 228.51,-62.5 187.31,-26.98"/>
<polygon fill="#63b8ff" stroke="#63b8ff" points="189.62,-24.35 179.78,-20.41 185.02,-29.62 189.62,-24.35"/>
</a>
</g>
</g>
<!-- Node9 -->
<g id="Node000009" class="node">
<title>Node9</title>
<g id="a_Node000009"><a xlink:title=" ">
<polygon fill="#e0e0e0" stroke="#999999" points="249.88,-19.25 209.88,-19.25 209.88,0 249.88,0 249.88,-19.25"/>
<text xml:space="preserve" text-anchor="middle" x="229.88" y="-5.75" font-family="Helvetica,sans-Serif" font-size="10.00">string</text>
</a>
</g>
</g>
<!-- Node1&#45;&gt;Node9 -->
<g id="edge43_Node000001_Node000009" class="edge">
<title>Node1&#45;&gt;Node9</title>
<g id="a_edge43_Node000001_Node000009"><a xlink:title=" ">
<path fill="none" stroke="#63b8ff" d="M692.06,-228.34C646.29,-225.37 550.86,-215.7 476.88,-185 380.82,-145.14 285.51,-62.54 247.32,-27.22"/>
<polygon fill="#63b8ff" stroke="#63b8ff" points="250.06,-25 240.37,-20.72 245.28,-30.11 250.06,-25"/>
</a>
</g>
</g>
<!-- Node10 -->
<g id="Node000010" class="node">
<title>Node10</title>
<g id="a_Node000010"><a xlink:title=" ">
<polygon fill="#e0e0e0" stroke="#999999" points="319.5,-19.25 268.25,-19.25 268.25,0 319.5,0 319.5,-19.25"/>
<text xml:space="preserve" text-anchor="middle" x="293.88" y="-5.75" font-family="Helvetica,sans-Serif" font-size="10.00">sstream</text>
</a>
</g>
</g>
<!-- Node1&#45;&gt;Node10 -->
<g id="edge39_Node000001_Node000010" class="edge">
<title>Node1&#45;&gt;Node10</title>
<g id="a_edge39_Node000001_Node000010"><a xlink:title=" ">
<path fill="none" stroke="#63b8ff" d="M692.21,-227.63C652.04,-223.8 574.36,-213.13 514.88,-185 427.71,-143.78 343.64,-62.54 309.66,-27.43"/>
<polygon fill="#63b8ff" stroke="#63b8ff" points="312.62,-25.46 303.18,-20.65 307.56,-30.3 312.62,-25.46"/>
</a>
</g>
</g>
<!-- Node11 -->
<g id="Node000011" class="node">
<title>Node11</title>
<g id="a_Node000011"><a xlink:title=" ">
<polygon fill="#e0e0e0" stroke="#999999" points="387.75,-19.25 338,-19.25 338,0 387.75,0 387.75,-19.25"/>
<text xml:space="preserve" text-anchor="middle" x="362.88" y="-5.75" font-family="Helvetica,sans-Serif" font-size="10.00">iomanip</text>
</a>
</g>
</g>
<!-- Node1&#45;&gt;Node11 -->
<g id="edge42_Node000001_Node000011" class="edge">
<title>Node1&#45;&gt;Node11</title>
<g id="a_edge42_Node000001_Node000011"><a xlink:title=" ">
<path fill="none" stroke="#63b8ff" d="M692.2,-226.74C657.25,-222.07 594.87,-210.66 547.88,-185 472.1,-143.63 404.11,-63.67 376.25,-28.25"/>
<polygon fill="#63b8ff" stroke="#63b8ff" points="379.3,-26.47 370.41,-20.71 373.77,-30.76 379.3,-26.47"/>
</a>
</g>
</g>
<!-- Node16 -->
<g id="Node000016" class="node">
<title>Node16</title>
<g id="a_Node000016"><a xlink:href="_ctools_8h.html" target="_top" xlink:title="Ctorch 通用工具类，包含通用枚举类型和辅助函数">
<polygon fill="white" stroke="#666666" points="648.25,-74.5 595.5,-74.5 595.5,-55.25 648.25,-55.25 648.25,-74.5"/>
<text xml:space="preserve" text-anchor="middle" x="621.88" y="-61" font-family="Helvetica,sans-Serif" font-size="10.00">Ctools.h</text>
</a>
</g>
</g>
<!-- Node1&#45;&gt;Node16 -->
<g id="edge47_Node000001_Node000016" class="edge">
<title>Node1&#45;&gt;Node16</title>
<g id="a_edge47_Node000001_Node000016"><a xlink:title=" ">
<path fill="none" stroke="#63b8ff" d="M711.65,-220.67C704.68,-211.84 694.02,-197.86 685.88,-185 664.27,-150.92 642.83,-108.9 631.07,-84.97"/>
<polygon fill="#63b8ff" stroke="#63b8ff" points="634.3,-83.61 626.78,-76.15 628,-86.67 634.3,-83.61"/>
</a>
</g>
</g>
<!-- Node17 -->
<g id="Node000017" class="node">
<title>Node17</title>
<g id="a_Node000017"><a xlink:title=" ">
<polygon fill="#e0e0e0" stroke="#999999" points="969.38,-19.25 926.38,-19.25 926.38,0 969.38,0 969.38,-19.25"/>
<text xml:space="preserve" text-anchor="middle" x="947.88" y="-5.75" font-family="Helvetica,sans-Serif" font-size="10.00">vector</text>
</a>
</g>
</g>
<!-- Node1&#45;&gt;Node17 -->
<g id="edge38_Node000001_Node000017" class="edge">
<title>Node1&#45;&gt;Node17</title>
<g id="a_edge38_Node000001_Node000017"><a xlink:title=" ">
<path fill="none" stroke="#63b8ff" d="M727.38,-220.52C740.61,-206.85 767.46,-181 794.88,-165.75 899.7,-107.44 980.93,-173.35 1048.88,-74.5 1068.95,-45.29 1017.26,-26.62 980.64,-17.43"/>
<polygon fill="#63b8ff" stroke="#63b8ff" points="981.87,-14.13 971.33,-15.23 980.26,-20.94 981.87,-14.13"/>
</a>
</g>
</g>
<!-- Node18 -->
<g id="Node000018" class="node">
<title>Node18</title>
<g id="a_Node000018"><a xlink:title=" ">
<polygon fill="#e0e0e0" stroke="#999999" points="1131.5,-19.25 1080.25,-19.25 1080.25,0 1131.5,0 1131.5,-19.25"/>
<text xml:space="preserve" text-anchor="middle" x="1105.88" y="-5.75" font-family="Helvetica,sans-Serif" font-size="10.00">memory</text>
</a>
</g>
</g>
<!-- Node1&#45;&gt;Node18 -->
<g id="edge35_Node000001_Node000018" class="edge">
<title>Node1&#45;&gt;Node18</title>
<g id="a_edge35_Node000001_Node000018"><a xlink:title=" ">
<path fill="none" stroke="#63b8ff" d="M745.74,-229.69C856.29,-229.69 1272.02,-226.89 1310.88,-185 1373.74,-117.22 1217,-50.06 1142.54,-23.04"/>
<polygon fill="#63b8ff" stroke="#63b8ff" points="1143.78,-19.77 1133.19,-19.71 1141.44,-26.36 1143.78,-19.77"/>
</a>
</g>
</g>
<!-- Node19 -->
<g id="Node000019" class="node">
<title>Node19</title>
<g id="a_Node000019"><a xlink:title=" ">
<polygon fill="#e0e0e0" stroke="#999999" points="847.62,-19.25 794.12,-19.25 794.12,0 847.62,0 847.62,-19.25"/>
<text xml:space="preserve" text-anchor="middle" x="820.88" y="-5.75" font-family="Helvetica,sans-Serif" font-size="10.00">iostream</text>
</a>
</g>
</g>
<!-- Node1&#45;&gt;Node19 -->
<g id="edge34_Node000001_Node000019" class="edge">
<title>Node1&#45;&gt;Node19</title>
<g id="a_edge34_Node000001_Node000019"><a xlink:title=" ">
<path fill="none" stroke="#63b8ff" d="M721.47,-220.8C725.24,-208.33 732.67,-184.95 740.88,-165.75 762.53,-115.08 793.79,-58.12 810.08,-29.37"/>
<polygon fill="#63b8ff" stroke="#63b8ff" points="813.05,-31.23 814.97,-20.81 806.97,-27.76 813.05,-31.23"/>
</a>
</g>
</g>
<!-- Node20 -->
<g id="Node000020" class="node">
<title>Node20</title>
<g id="a_Node000020"><a xlink:href="_storage_8h.html" target="_top" xlink:title="Ctorch 存储类，用于管理张量数据的底层存储">
<polygon fill="white" stroke="#666666" points="633.88,-185 575.88,-185 575.88,-165.75 633.88,-165.75 633.88,-185"/>
<text xml:space="preserve" text-anchor="middle" x="604.88" y="-171.5" font-family="Helvetica,sans-Serif" font-size="10.00">Storage.h</text>
</a>
</g>
</g>
<!-- Node1&#45;&gt;Node20 -->
<g id="edge30_Node000001_Node000020" class="edge">
<title>Node1&#45;&gt;Node20</title>
<g id="a_edge30_Node000001_Node000020"><a xlink:title=" ">
<path fill="none" stroke="#63b8ff" d="M699.54,-220.59C681.77,-212.29 655.16,-199.86 634.67,-190.29"/>
<polygon fill="#63b8ff" stroke="#63b8ff" points="636.22,-187.15 625.68,-186.09 633.26,-193.5 636.22,-187.15"/>
</a>
</g>
</g>
<!-- Node21 -->
<g id="Node000021" class="node">
<title>Node21</title>
<g id="a_Node000021"><a xlink:title=" ">
<polygon fill="#e0e0e0" stroke="#999999" points="876,-185 803.75,-185 803.75,-165.75 876,-165.75 876,-185"/>
<text xml:space="preserve" text-anchor="middle" x="839.88" y="-171.5" font-family="Helvetica,sans-Serif" font-size="10.00">initializer_list</text>
</a>
</g>
</g>
<!-- Node1&#45;&gt;Node21 -->
<g id="edge33_Node000001_Node000021" class="edge">
<title>Node1&#45;&gt;Node21</title>
<g id="a_edge33_Node000001_Node000021"><a xlink:title=" ">
<path fill="none" stroke="#63b8ff" d="M739.4,-220.59C758.44,-212.22 787.03,-199.63 808.85,-190.03"/>
<polygon fill="#63b8ff" stroke="#63b8ff" points="810.12,-193.29 817.86,-186.06 807.3,-186.89 810.12,-193.29"/>
</a>
</g>
</g>
<!-- Node22 -->
<g id="Node000022" class="node">
<title>Node22</title>
<g id="a_Node000022"><a xlink:title=" ">
<polygon fill="#e0e0e0" stroke="#999999" points="944.12,-185 893.62,-185 893.62,-165.75 944.12,-165.75 944.12,-185"/>
<text xml:space="preserve" text-anchor="middle" x="918.88" y="-171.5" font-family="Helvetica,sans-Serif" font-size="10.00">numeric</text>
</a>
</g>
</g>
<!-- Node1&#45;&gt;Node22 -->
<g id="edge36_Node000001_Node000022" class="edge">
<title>Node1&#45;&gt;Node22</title>
<g id="a_edge36_Node000001_Node000022"><a xlink:title=" ">
<path fill="none" stroke="#63b8ff" d="M745.43,-222.55C780.54,-213.21 842.56,-196.69 882.14,-186.16"/>
<polygon fill="#63b8ff" stroke="#63b8ff" points="882.93,-189.57 891.7,-183.61 881.13,-182.8 882.93,-189.57"/>
</a>
</g>
</g>
<!-- Node23 -->
<g id="Node000023" class="node">
<title>Node23</title>
<g id="a_Node000023"><a xlink:title=" ">
<polygon fill="#e0e0e0" stroke="#999999" points="1021.25,-185 962.5,-185 962.5,-165.75 1021.25,-165.75 1021.25,-185"/>
<text xml:space="preserve" text-anchor="middle" x="991.88" y="-171.5" font-family="Helvetica,sans-Serif" font-size="10.00">stdexcept</text>
</a>
</g>
</g>
<!-- Node1&#45;&gt;Node23 -->
<g id="edge37_Node000001_Node000023" class="edge">
<title>Node1&#45;&gt;Node23</title>
<g id="a_edge37_Node000001_Node000023"><a xlink:title=" ">
<path fill="none" stroke="#63b8ff" d="M745.6,-224.79C787.24,-217.2 870.39,-201.83 951.21,-185.29"/>
<polygon fill="#63b8ff" stroke="#63b8ff" points="951.51,-188.8 960.6,-183.36 950.1,-181.95 951.51,-188.8"/>
</a>
</g>
</g>
<!-- Node24 -->
<g id="Node000024" class="node">
<title>Node24</title>
<g id="a_Node000024"><a xlink:title=" ">
<polygon fill="#e0e0e0" stroke="#999999" points="1096.88,-185 1038.88,-185 1038.88,-165.75 1096.88,-165.75 1096.88,-185"/>
<text xml:space="preserve" text-anchor="middle" x="1067.88" y="-171.5" font-family="Helvetica,sans-Serif" font-size="10.00">functional</text>
</a>
</g>
</g>
<!-- Node1&#45;&gt;Node24 -->
<g id="edge40_Node000001_Node000024" class="edge">
<title>Node1&#45;&gt;Node24</title>
<g id="a_edge40_Node000001_Node000024"><a xlink:title=" ">
<path fill="none" stroke="#63b8ff" d="M745.62,-226.53C797.79,-220.32 917.02,-205.38 1027.15,-185.38"/>
<polygon fill="#63b8ff" stroke="#63b8ff" points="1027.77,-188.82 1036.98,-183.57 1026.51,-181.94 1027.77,-188.82"/>
</a>
</g>
</g>
<!-- Node25 -->
<g id="Node000025" class="node">
<title>Node25</title>
<g id="a_Node000025"><a xlink:title=" ">
<polygon fill="#e0e0e0" stroke="#999999" points="1192.62,-185 1115.12,-185 1115.12,-165.75 1192.62,-165.75 1192.62,-185"/>
<text xml:space="preserve" text-anchor="middle" x="1153.88" y="-171.5" font-family="Helvetica,sans-Serif" font-size="10.00">unordered_set</text>
</a>
</g>
</g>
<!-- Node1&#45;&gt;Node25 -->
<g id="edge44_Node000001_Node000025" class="edge">
<title>Node1&#45;&gt;Node25</title>
<g id="a_edge44_Node000001_Node000025"><a xlink:title=" ">
<path fill="none" stroke="#63b8ff" d="M745.69,-227.12C807.11,-221.26 962.87,-205.68 1103.89,-185.21"/>
<polygon fill="#63b8ff" stroke="#63b8ff" points="1103.99,-188.73 1113.38,-183.81 1102.98,-181.8 1103.99,-188.73"/>
</a>
</g>
</g>
<!-- Node26 -->
<g id="Node000026" class="node">
<title>Node26</title>
<g id="a_Node000026"><a xlink:title=" ">
<polygon fill="#e0e0e0" stroke="#999999" points="1249.5,-185 1210.25,-185 1210.25,-165.75 1249.5,-165.75 1249.5,-185"/>
<text xml:space="preserve" text-anchor="middle" x="1229.88" y="-171.5" font-family="Helvetica,sans-Serif" font-size="10.00">limits</text>
</a>
</g>
</g>
<!-- Node1&#45;&gt;Node26 -->
<g id="edge45_Node000001_Node000026" class="edge">
<title>Node1&#45;&gt;Node26</title>
<g id="a_edge45_Node000001_Node000026"><a xlink:title=" ">
<path fill="none" stroke="#63b8ff" d="M745.59,-229.09C817.59,-227.24 1021.65,-219.31 1198.73,-185.27"/>
<polygon fill="#63b8ff" stroke="#63b8ff" points="1199.19,-188.75 1208.33,-183.39 1197.84,-181.88 1199.19,-188.75"/>
</a>
</g>
</g>
<!-- Node27 -->
<g id="Node000027" class="node">
<title>Node27</title>
<g id="a_Node000027"><a xlink:title=" ">
<polygon fill="#e0e0e0" stroke="#999999" points="1302.25,-185 1267.5,-185 1267.5,-165.75 1302.25,-165.75 1302.25,-185"/>
<text xml:space="preserve" text-anchor="middle" x="1284.88" y="-171.5" font-family="Helvetica,sans-Serif" font-size="10.00">map</text>
</a>
</g>
</g>
<!-- Node1&#45;&gt;Node27 -->
<g id="edge46_Node000001_Node000027" class="edge">
<title>Node1&#45;&gt;Node27</title>
<g id="a_edge46_Node000001_Node000027"><a xlink:title=" ">
<path fill="none" stroke="#63b8ff" d="M745.6,-229.65C823.37,-229.26 1056.24,-224.77 1256.13,-185.11"/>
<polygon fill="#63b8ff" stroke="#63b8ff" points="1256.53,-188.6 1265.64,-183.18 1255.15,-181.74 1256.53,-188.6"/>
</a>
</g>
</g>
<!-- Node28 -->
<g id="Node000028" class="node">
<title>Node28</title>
<g id="a_Node000028"><a xlink:href="_auto_diff_8h.html" target="_top" xlink:title="Ctorch 自动微分系统">
<polygon fill="white" stroke="#666666" points="896,-129.75 835.75,-129.75 835.75,-110.5 896,-110.5 896,-129.75"/>
<text xml:space="preserve" text-anchor="middle" x="865.88" y="-116.25" font-family="Helvetica,sans-Serif" font-size="10.00">AutoDiff.h</text>
</a>
</g>
</g>
<!-- Node1&#45;&gt;Node28 -->
<g id="edge48_Node000001_Node000028" class="edge">
<title>Node1&#45;&gt;Node28</title>
<g id="a_edge48_Node000001_Node000028"><a xlink:title=" ">
<path fill="none" stroke="#63b8ff" d="M722.88,-220.59C729.31,-207.01 743.14,-181.27 761.88,-165.75 780.13,-150.63 804.28,-139.85 824.71,-132.67"/>
<polygon fill="#63b8ff" stroke="#63b8ff" points="825.79,-136 834.18,-129.53 823.59,-129.36 825.79,-136"/>
</a>
</g>
</g>
<!-- Node4&#45;&gt;Node5 -->
<g id="edge4_Node000004_Node000005" class="edge">
<title>Node4&#45;&gt;Node5</title>
<g id="a_edge4_Node000004_Node000005"><a xlink:title=" ">
<path fill="none" stroke="#63b8ff" d="M495.97,-112C455.28,-104.32 390.55,-90.96 335.88,-74.5 287.54,-59.95 233.23,-38.11 200.03,-24.11"/>
<polygon fill="#63b8ff" stroke="#63b8ff" points="201.59,-20.97 191.02,-20.28 198.85,-27.41 201.59,-20.97"/>
</a>
</g>
</g>
<!-- Node6 -->
<g id="Node000006" class="node">
<title>Node6</title>
<g id="a_Node000006"><a xlink:title=" ">
<polygon fill="#e0e0e0" stroke="#999999" points="652.5,-19.25 607.25,-19.25 607.25,0 652.5,0 652.5,-19.25"/>
<text xml:space="preserve" text-anchor="middle" x="629.88" y="-5.75" font-family="Helvetica,sans-Serif" font-size="10.00">chrono</text>
</a>
</g>
</g>
<!-- Node4&#45;&gt;Node6 -->
<g id="edge5_Node000004_Node000006" class="edge">
<title>Node4&#45;&gt;Node6</title>
<g id="a_edge5_Node000004_Node000006"><a xlink:title=" ">
<path fill="none" stroke="#63b8ff" d="M542.55,-110.24C552.07,-97.7 570.21,-74.23 586.88,-55.25 595.11,-45.87 604.71,-35.82 612.75,-27.64"/>
<polygon fill="#63b8ff" stroke="#63b8ff" points="615.09,-30.25 619.66,-20.69 610.13,-25.32 615.09,-30.25"/>
</a>
</g>
</g>
<!-- Node7 -->
<g id="Node000007" class="node">
<title>Node7</title>
<g id="a_Node000007"><a xlink:title=" ">
<polygon fill="#e0e0e0" stroke="#999999" points="776.5,-19.25 731.25,-19.25 731.25,0 776.5,0 776.5,-19.25"/>
<text xml:space="preserve" text-anchor="middle" x="753.88" y="-5.75" font-family="Helvetica,sans-Serif" font-size="10.00">cstdint</text>
</a>
</g>
</g>
<!-- Node4&#45;&gt;Node7 -->
<g id="edge6_Node000004_Node000007" class="edge">
<title>Node4&#45;&gt;Node7</title>
<g id="a_edge6_Node000004_Node000007"><a xlink:title=" ">
<path fill="none" stroke="#63b8ff" d="M575.83,-111.21C605.51,-104.28 646.31,-92.46 678.88,-74.5 701.7,-61.91 723.92,-41.68 738.17,-27.36"/>
<polygon fill="#63b8ff" stroke="#63b8ff" points="740.46,-30.04 744.9,-20.42 735.43,-25.17 740.46,-30.04"/>
</a>
</g>
</g>
<!-- Node8 -->
<g id="Node000008" class="node">
<title>Node8</title>
<g id="a_Node000008"><a xlink:title=" ">
<polygon fill="#e0e0e0" stroke="#999999" points="445.88,-19.25 405.88,-19.25 405.88,0 445.88,0 445.88,-19.25"/>
<text xml:space="preserve" text-anchor="middle" x="425.88" y="-5.75" font-family="Helvetica,sans-Serif" font-size="10.00">ctime</text>
</a>
</g>
</g>
<!-- Node4&#45;&gt;Node8 -->
<g id="edge7_Node000004_Node000008" class="edge">
<title>Node4&#45;&gt;Node8</title>
<g id="a_edge7_Node000004_Node000008"><a xlink:title=" ">
<path fill="none" stroke="#63b8ff" d="M526.87,-110.25C508.58,-92.21 466.81,-51 443.11,-27.63"/>
<polygon fill="#63b8ff" stroke="#63b8ff" points="445.66,-25.22 436.08,-20.69 440.74,-30.2 445.66,-25.22"/>
</a>
</g>
</g>
<!-- Node4&#45;&gt;Node9 -->
<g id="edge8_Node000004_Node000009" class="edge">
<title>Node4&#45;&gt;Node9</title>
<g id="a_edge8_Node000004_Node000009"><a xlink:title=" ">
<path fill="none" stroke="#63b8ff" d="M502.68,-110.05C472.5,-101.59 426.86,-88.22 387.88,-74.5 343.06,-58.72 292.31,-37.61 260.69,-24.06"/>
<polygon fill="#63b8ff" stroke="#63b8ff" points="262.31,-20.94 251.74,-20.2 259.54,-27.37 262.31,-20.94"/>
</a>
</g>
</g>
<!-- Node4&#45;&gt;Node10 -->
<g id="edge9_Node000004_Node000010" class="edge">
<title>Node4&#45;&gt;Node10</title>
<g id="a_edge9_Node000004_Node000010"><a xlink:title=" ">
<path fill="none" stroke="#63b8ff" d="M515.35,-110.12C494.92,-101.15 462.7,-86.95 434.88,-74.5 396.37,-57.27 352.08,-37.16 323.57,-24.18"/>
<polygon fill="#63b8ff" stroke="#63b8ff" points="325.39,-21.16 314.84,-20.2 322.49,-27.53 325.39,-21.16"/>
</a>
</g>
</g>
<!-- Node4&#45;&gt;Node11 -->
<g id="edge10_Node000004_Node000011" class="edge">
<title>Node4&#45;&gt;Node11</title>
<g id="a_edge10_Node000004_Node000011"><a xlink:title=" ">
<path fill="none" stroke="#63b8ff" d="M521.42,-110.06C491.58,-91.35 422.91,-48.28 386.52,-25.45"/>
<polygon fill="#63b8ff" stroke="#63b8ff" points="388.78,-22.74 378.45,-20.39 385.06,-28.67 388.78,-22.74"/>
</a>
</g>
</g>
<!-- Node12 -->
<g id="Node000012" class="node">
<title>Node12</title>
<g id="a_Node000012"><a xlink:title=" ">
<polygon fill="#e0e0e0" stroke="#999999" points="512,-19.25 463.75,-19.25 463.75,0 512,0 512,-19.25"/>
<text xml:space="preserve" text-anchor="middle" x="487.88" y="-5.75" font-family="Helvetica,sans-Serif" font-size="10.00">stdint.h</text>
</a>
</g>
</g>
<!-- Node4&#45;&gt;Node12 -->
<g id="edge11_Node000004_Node000012" class="edge">
<title>Node4&#45;&gt;Node12</title>
<g id="a_edge11_Node000004_Node000012"><a xlink:title=" ">
<path fill="none" stroke="#63b8ff" d="M531.95,-110.25C524.21,-92.76 506.85,-53.52 496.37,-29.84"/>
<polygon fill="#63b8ff" stroke="#63b8ff" points="499.72,-28.74 492.47,-21.01 493.31,-31.57 499.72,-28.74"/>
</a>
</g>
</g>
<!-- Node13 -->
<g id="Node000013" class="node">
<title>Node13</title>
<g id="a_Node000013"><a xlink:title=" ">
<polygon fill="#e0e0e0" stroke="#999999" points="589.25,-19.25 530.5,-19.25 530.5,0 589.25,0 589.25,-19.25"/>
<text xml:space="preserve" text-anchor="middle" x="559.88" y="-5.75" font-family="Helvetica,sans-Serif" font-size="10.00">inttypes.h</text>
</a>
</g>
</g>
<!-- Node4&#45;&gt;Node13 -->
<g id="edge12_Node000004_Node000013" class="edge">
<title>Node4&#45;&gt;Node13</title>
<g id="a_edge12_Node000004_Node000013"><a xlink:title=" ">
<path fill="none" stroke="#63b8ff" d="M537.84,-110.25C541.65,-93 550.15,-54.58 555.41,-30.81"/>
<polygon fill="#63b8ff" stroke="#63b8ff" points="558.81,-31.62 557.56,-21.1 551.98,-30.11 558.81,-31.62"/>
</a>
</g>
</g>
<!-- Node14 -->
<g id="Node000014" class="node">
<title>Node14</title>
<g id="a_Node000014"><a xlink:title=" ">
<polygon fill="#e0e0e0" stroke="#999999" points="908.38,-19.25 865.38,-19.25 865.38,0 908.38,0 908.38,-19.25"/>
<text xml:space="preserve" text-anchor="middle" x="886.88" y="-5.75" font-family="Helvetica,sans-Serif" font-size="10.00">mutex</text>
</a>
</g>
</g>
<!-- Node4&#45;&gt;Node14 -->
<g id="edge13_Node000004_Node000014" class="edge">
<title>Node4&#45;&gt;Node14</title>
<g id="a_edge13_Node000004_Node000014"><a xlink:title=" ">
<path fill="none" stroke="#63b8ff" d="M574.28,-110.01C608.9,-101.56 661.1,-88.25 705.88,-74.5 758.56,-58.32 818.72,-36.39 854.7,-22.89"/>
<polygon fill="#63b8ff" stroke="#63b8ff" points="855.52,-26.32 863.64,-19.52 853.05,-19.77 855.52,-26.32"/>
</a>
</g>
</g>
<!-- Node15 -->
<g id="Node000015" class="node">
<title>Node15</title>
<g id="a_Node000015"><a xlink:title=" ">
<polygon fill="#e0e0e0" stroke="#999999" points="713.38,-19.25 670.38,-19.25 670.38,0 713.38,0 713.38,-19.25"/>
<text xml:space="preserve" text-anchor="middle" x="691.88" y="-5.75" font-family="Helvetica,sans-Serif" font-size="10.00">thread</text>
</a>
</g>
</g>
<!-- Node4&#45;&gt;Node15 -->
<g id="edge14_Node000004_Node000015" class="edge">
<title>Node4&#45;&gt;Node15</title>
<g id="a_edge14_Node000004_Node000015"><a xlink:title=" ">
<path fill="none" stroke="#63b8ff" d="M575.79,-111.94C601.34,-105.65 633.9,-94.31 656.88,-74.5 670.64,-62.63 679.98,-43.95 685.53,-29.85"/>
<polygon fill="#63b8ff" stroke="#63b8ff" points="688.71,-31.35 688.8,-20.76 682.12,-28.99 688.71,-31.35"/>
</a>
</g>
</g>
<!-- Node4&#45;&gt;Node16 -->
<g id="edge15_Node000004_Node000016" class="edge">
<title>Node4&#45;&gt;Node16</title>
<g id="a_edge15_Node000004_Node000016"><a xlink:title=" ">
<path fill="none" stroke="#63b8ff" d="M550.46,-110.09C563.31,-102.14 582.29,-90.39 597.45,-81"/>
<polygon fill="#63b8ff" stroke="#63b8ff" points="599.27,-83.99 605.93,-75.75 595.58,-78.04 599.27,-83.99"/>
</a>
</g>
</g>
<!-- Node16&#45;&gt;Node5 -->
<g id="edge16_Node000016_Node000005" class="edge">
<title>Node16&#45;&gt;Node5</title>
<g id="a_edge16_Node000016_Node000005"><a xlink:title=" ">
<path fill="none" stroke="#63b8ff" d="M595.07,-62.5C529.66,-58.85 356.64,-47.31 202.88,-19.32"/>
<polygon fill="#63b8ff" stroke="#63b8ff" points="203.81,-15.94 193.34,-17.56 202.53,-22.82 203.81,-15.94"/>
</a>
</g>
</g>
<!-- Node16&#45;&gt;Node6 -->
<g id="edge17_Node000016_Node000006" class="edge">
<title>Node16&#45;&gt;Node6</title>
<g id="a_edge17_Node000016_Node000006"><a xlink:title=" ">
<path fill="none" stroke="#63b8ff" d="M623.2,-55.08C624.19,-48.49 625.58,-39.21 626.84,-30.82"/>
<polygon fill="#63b8ff" stroke="#63b8ff" points="630.28,-31.51 628.3,-21.11 623.35,-30.47 630.28,-31.51"/>
</a>
</g>
</g>
<!-- Node16&#45;&gt;Node7 -->
<g id="edge18_Node000016_Node000007" class="edge">
<title>Node16&#45;&gt;Node7</title>
<g id="a_edge18_Node000016_Node000007"><a xlink:title=" ">
<path fill="none" stroke="#63b8ff" d="M644.27,-54.84C665.32,-46.35 697.08,-33.54 721,-23.89"/>
<polygon fill="#63b8ff" stroke="#63b8ff" points="722.01,-27.26 729.97,-20.27 719.39,-20.76 722.01,-27.26"/>
</a>
</g>
</g>
<!-- Node16&#45;&gt;Node8 -->
<g id="edge19_Node000016_Node000008" class="edge">
<title>Node16&#45;&gt;Node8</title>
<g id="a_edge19_Node000016_Node000008"><a xlink:title=" ">
<path fill="none" stroke="#63b8ff" d="M595.2,-56.99C564.25,-48.95 511.41,-35.07 457.03,-19.8"/>
<polygon fill="#63b8ff" stroke="#63b8ff" points="458.17,-16.49 447.59,-17.14 456.27,-23.22 458.17,-16.49"/>
</a>
</g>
</g>
<!-- Node16&#45;&gt;Node9 -->
<g id="edge20_Node000016_Node000009" class="edge">
<title>Node16&#45;&gt;Node9</title>
<g id="a_edge20_Node000016_Node000009"><a xlink:title=" ">
<path fill="none" stroke="#63b8ff" d="M595.21,-62.13C536.47,-57.95 391.41,-45.87 261.3,-19.44"/>
<polygon fill="#63b8ff" stroke="#63b8ff" points="262.35,-16.08 251.84,-17.49 260.93,-22.94 262.35,-16.08"/>
</a>
</g>
</g>
<!-- Node16&#45;&gt;Node10 -->
<g id="edge21_Node000016_Node000010" class="edge">
<title>Node16&#45;&gt;Node10</title>
<g id="a_edge21_Node000016_Node000010"><a xlink:title=" ">
<path fill="none" stroke="#63b8ff" d="M595.07,-60.62C545.17,-54.38 434.42,-39.71 331.07,-19.52"/>
<polygon fill="#63b8ff" stroke="#63b8ff" points="331.78,-16.09 321.29,-17.59 330.43,-22.96 331.78,-16.09"/>
</a>
</g>
</g>
<!-- Node16&#45;&gt;Node11 -->
<g id="edge22_Node000016_Node000011" class="edge">
<title>Node16&#45;&gt;Node11</title>
<g id="a_edge22_Node000016_Node000011"><a xlink:title=" ">
<path fill="none" stroke="#63b8ff" d="M595.11,-59.04C554.75,-51.64 475.68,-36.76 398.9,-19.61"/>
<polygon fill="#63b8ff" stroke="#63b8ff" points="400.09,-16.29 389.57,-17.51 398.55,-23.12 400.09,-16.29"/>
</a>
</g>
</g>
<!-- Node16&#45;&gt;Node12 -->
<g id="edge23_Node000016_Node000012" class="edge">
<title>Node16&#45;&gt;Node12</title>
<g id="a_edge23_Node000016_Node000012"><a xlink:title=" ">
<path fill="none" stroke="#63b8ff" d="M599.14,-54.84C577.78,-46.35 545.53,-33.54 521.25,-23.89"/>
<polygon fill="#63b8ff" stroke="#63b8ff" points="522.71,-20.7 512.12,-20.26 520.12,-27.21 522.71,-20.7"/>
</a>
</g>
</g>
<!-- Node16&#45;&gt;Node13 -->
<g id="edge24_Node000016_Node000013" class="edge">
<title>Node16&#45;&gt;Node13</title>
<g id="a_edge24_Node000016_Node000013"><a xlink:title=" ">
<path fill="none" stroke="#63b8ff" d="M611.36,-54.84C602.49,-47.22 589.56,-36.12 578.89,-26.95"/>
<polygon fill="#63b8ff" stroke="#63b8ff" points="581.25,-24.37 571.39,-20.51 576.69,-29.68 581.25,-24.37"/>
</a>
</g>
</g>
<!-- Node16&#45;&gt;Node14 -->
<g id="edge25_Node000016_Node000014" class="edge">
<title>Node16&#45;&gt;Node14</title>
<g id="a_edge25_Node000016_Node000014"><a xlink:title=" ">
<path fill="none" stroke="#63b8ff" d="M648.48,-59.65C690.33,-52.82 774.31,-38.41 854.24,-19.72"/>
<polygon fill="#63b8ff" stroke="#63b8ff" points="854.58,-23.23 863.51,-17.52 852.97,-16.42 854.58,-23.23"/>
</a>
</g>
</g>
<!-- Node16&#45;&gt;Node15 -->
<g id="edge26_Node000016_Node000015" class="edge">
<title>Node16&#45;&gt;Node15</title>
<g id="a_edge26_Node000016_Node000015"><a xlink:title=" ">
<path fill="none" stroke="#63b8ff" d="M633.75,-54.84C643.97,-47.07 658.95,-35.67 671.14,-26.4"/>
<polygon fill="#63b8ff" stroke="#63b8ff" points="673.13,-29.28 678.97,-20.44 668.89,-23.71 673.13,-29.28"/>
</a>
</g>
</g>
<!-- Node16&#45;&gt;Node17 -->
<g id="edge27_Node000016_Node000017" class="edge">
<title>Node16&#45;&gt;Node17</title>
<g id="a_edge27_Node000016_Node000017"><a xlink:title=" ">
<path fill="none" stroke="#63b8ff" d="M648.62,-61.03C699.01,-55.41 811.58,-41.67 915.06,-19.64"/>
<polygon fill="#63b8ff" stroke="#63b8ff" points="915.49,-23.13 924.52,-17.59 914.01,-16.28 915.49,-23.13"/>
</a>
</g>
</g>
<!-- Node16&#45;&gt;Node18 -->
<g id="edge28_Node000016_Node000018" class="edge">
<title>Node16&#45;&gt;Node18</title>
<g id="a_edge28_Node000016_Node000018"><a xlink:title=" ">
<path fill="none" stroke="#63b8ff" d="M648.59,-60.94C729.93,-51.99 974.73,-25.05 1068.64,-14.72"/>
<polygon fill="#63b8ff" stroke="#63b8ff" points="1068.78,-18.23 1078.33,-13.66 1068.01,-11.27 1068.78,-18.23"/>
</a>
</g>
</g>
<!-- Node16&#45;&gt;Node19 -->
<g id="edge29_Node000016_Node000019" class="edge">
<title>Node16&#45;&gt;Node19</title>
<g id="a_edge29_Node000016_Node000019"><a xlink:title=" ">
<path fill="none" stroke="#63b8ff" d="M648.71,-56.69C683.28,-47.44 743.58,-31.31 782.85,-20.8"/>
<polygon fill="#63b8ff" stroke="#63b8ff" points="783.61,-24.22 792.36,-18.25 781.8,-17.46 783.61,-24.22"/>
</a>
</g>
</g>
<!-- Node20&#45;&gt;Node4 -->
<g id="edge32_Node000020_Node000004" class="edge">
<title>Node20&#45;&gt;Node4</title>
<g id="a_edge32_Node000020_Node000004"><a xlink:title=" ">
<path fill="none" stroke="#63b8ff" d="M593.17,-165.34C583.1,-157.57 568.33,-146.17 556.31,-136.9"/>
<polygon fill="#63b8ff" stroke="#63b8ff" points="558.66,-134.29 548.61,-130.95 554.38,-139.83 558.66,-134.29"/>
</a>
</g>
</g>
<!-- Node20&#45;&gt;Node16 -->
<g id="edge31_Node000020_Node000016" class="edge">
<title>Node20&#45;&gt;Node16</title>
<g id="a_edge31_Node000020_Node000016"><a xlink:title=" ">
<path fill="none" stroke="#63b8ff" d="M606.27,-165.5C608.97,-148.25 614.99,-109.83 618.71,-86.06"/>
<polygon fill="#63b8ff" stroke="#63b8ff" points="622.14,-86.79 620.23,-76.37 615.22,-85.71 622.14,-86.79"/>
</a>
</g>
</g>
<!-- Node28&#45;&gt;Node14 -->
<g id="edge52_Node000028_Node000014" class="edge">
<title>Node28&#45;&gt;Node14</title>
<g id="a_edge52_Node000028_Node000014"><a xlink:title=" ">
<path fill="none" stroke="#63b8ff" d="M860.93,-110.27C854.62,-97.77 845.28,-74.35 851.88,-55.25 855.35,-45.19 862.13,-35.68 868.8,-28.03"/>
<polygon fill="#63b8ff" stroke="#63b8ff" points="871.28,-30.5 875.62,-20.83 866.2,-25.69 871.28,-30.5"/>
</a>
</g>
</g>
<!-- Node28&#45;&gt;Node16 -->
<g id="edge49_Node000028_Node000016" class="edge">
<title>Node28&#45;&gt;Node16</title>
<g id="a_edge49_Node000028_Node000016"><a xlink:title=" ">
<path fill="none" stroke="#63b8ff" d="M835.47,-112.49C790.97,-102.78 708.18,-84.71 659.78,-74.15"/>
<polygon fill="#63b8ff" stroke="#63b8ff" points="660.54,-70.73 650.03,-72.02 659.05,-77.57 660.54,-70.73"/>
</a>
</g>
</g>
<!-- Node28&#45;&gt;Node17 -->
<g id="edge50_Node000028_Node000017" class="edge">
<title>Node28&#45;&gt;Node17</title>
<g id="a_edge50_Node000028_Node000017"><a xlink:title=" ">
<path fill="none" stroke="#63b8ff" d="M866.7,-110.05C868.28,-96.88 872.74,-72.18 884.88,-55.25 893.72,-42.91 907.07,-32.75 919.21,-25.26"/>
<polygon fill="#63b8ff" stroke="#63b8ff" points="920.78,-28.4 927.69,-20.37 917.28,-22.34 920.78,-28.4"/>
</a>
</g>
</g>
<!-- Node28&#45;&gt;Node18 -->
<g id="edge54_Node000028_Node000018" class="edge">
<title>Node28&#45;&gt;Node18</title>
<g id="a_edge54_Node000028_Node000018"><a xlink:title=" ">
<path fill="none" stroke="#63b8ff" d="M896.48,-117.22C934.62,-113.64 1000.65,-103.45 1048.88,-74.5 1067.74,-63.17 1083.85,-43.58 1094.08,-29.07"/>
<polygon fill="#63b8ff" stroke="#63b8ff" points="1096.93,-31.11 1099.6,-20.86 1091.12,-27.2 1096.93,-31.11"/>
</a>
</g>
</g>
<!-- Node29 -->
<g id="Node000029" class="node">
<title>Node29</title>
<g id="a_Node000029"><a xlink:title=" ">
<polygon fill="#e0e0e0" stroke="#999999" points="1040.25,-74.5 957.5,-74.5 957.5,-55.25 1040.25,-55.25 1040.25,-74.5"/>
<text xml:space="preserve" text-anchor="middle" x="998.88" y="-61" font-family="Helvetica,sans-Serif" font-size="10.00">unordered_map</text>
</a>
</g>
</g>
<!-- Node28&#45;&gt;Node29 -->
<g id="edge51_Node000028_Node000029" class="edge">
<title>Node28&#45;&gt;Node29</title>
<g id="a_edge51_Node000028_Node000029"><a xlink:title=" ">
<path fill="none" stroke="#63b8ff" d="M888.44,-110.09C909.65,-101.6 941.65,-88.79 965.75,-79.14"/>
<polygon fill="#63b8ff" stroke="#63b8ff" points="966.81,-82.48 974.8,-75.52 964.21,-75.98 966.81,-82.48"/>
</a>
</g>
</g>
<!-- Node30 -->
<g id="Node000030" class="node">
<title>Node30</title>
<g id="a_Node000030"><a xlink:title=" ">
<polygon fill="#e0e0e0" stroke="#999999" points="939.5,-74.5 894.25,-74.5 894.25,-55.25 939.5,-55.25 939.5,-74.5"/>
<text xml:space="preserve" text-anchor="middle" x="916.88" y="-61" font-family="Helvetica,sans-Serif" font-size="10.00">atomic</text>
</a>
</g>
</g>
<!-- Node28&#45;&gt;Node30 -->
<g id="edge53_Node000028_Node000030" class="edge">
<title>Node28&#45;&gt;Node30</title>
<g id="a_edge53_Node000028_Node000030"><a xlink:title=" ">
<path fill="none" stroke="#63b8ff" d="M874.3,-110.33C881.41,-102.9 891.82,-92.04 900.56,-82.91"/>
<polygon fill="#63b8ff" stroke="#63b8ff" points="902.83,-85.6 907.22,-75.95 897.78,-80.75 902.83,-85.6"/>
</a>
</g>
</g>
</g>
</svg>
