<?xml version="1.0" encoding="UTF-8" standalone="no"?>
<!DOCTYPE svg PUBLIC "-//W3C//DTD SVG 1.1//EN"
 "http://www.w3.org/Graphics/SVG/1.1/DTD/svg11.dtd">
<!-- Generated by graphviz version 14.1.1 (20251213.1925)
 -->
<!-- Title: Tensor.cpp Pages: 1 -->
<svg width="1301pt" height="359pt"
 viewBox="0.00 0.00 1301.00 359.00" xmlns="http://www.w3.org/2000/svg" xmlns:xlink="http://www.w3.org/1999/xlink">
<g id="graph0" class="graph" transform="scale(1 1) rotate(0) translate(4 354.75)">
<title>Tensor.cpp</title>
<!-- Node1 -->
<g id="Node000001" class="node">
<title>Node1</title>
<g id="a_Node000001"><a xlink:title="张量类的实现">
<polygon fill="#999999" stroke="#666666" points="662.88,-350.75 599.63,-350.75 599.63,-331.5 662.88,-331.5 662.88,-350.75"/>
<text xml:space="preserve" text-anchor="middle" x="631.26" y="-337.25" font-family="Helvetica,sans-Serif" font-size="10.00">Tensor.cpp</text>
</a>
</g>
</g>
<!-- Node2 -->
<g id="Node000002" class="node">
<title>Node2</title>
<g id="a_Node000002"><a xlink:href="_tensor_8h.html" target="_top" xlink:title="张量类和相关操作的定义">
<polygon fill="white" stroke="#666666" points="605.63,-240.25 552.88,-240.25 552.88,-221 605.63,-221 605.63,-240.25"/>
<text xml:space="preserve" text-anchor="middle" x="579.26" y="-226.75" font-family="Helvetica,sans-Serif" font-size="10.00">Tensor.h</text>
</a>
</g>
</g>
<!-- Node1&#45;&gt;Node2 -->
<g id="edge1_Node000001_Node000002" class="edge">
<title>Node1&#45;&gt;Node2</title>
<g id="a_edge1_Node000001_Node000002"><a xlink:title=" ">
<path fill="none" stroke="#63b8ff" d="M629.6,-331.08C627.05,-318.36 621.45,-294.68 612.26,-276.25 607.54,-266.79 600.8,-257.25 594.65,-249.43"/>
<polygon fill="#63b8ff" stroke="#63b8ff" points="597.38,-247.24 588.32,-241.74 591.98,-251.69 597.38,-247.24"/>
</a>
</g>
</g>
<!-- Node32 -->
<g id="Node000032" class="node">
<title>Node32</title>
<g id="a_Node000032"><a xlink:title=" ">
<polygon fill="#e0e0e0" stroke="#999999" points="714.38,-240.25 624.13,-240.25 624.13,-221 714.38,-221 714.38,-240.25"/>
<text xml:space="preserve" text-anchor="middle" x="669.26" y="-226.75" font-family="Helvetica,sans-Serif" font-size="10.00">kernels/kernels.h</text>
</a>
</g>
</g>
<!-- Node1&#45;&gt;Node32 -->
<g id="edge56_Node000001_Node000032" class="edge">
<title>Node1&#45;&gt;Node32</title>
<g id="a_edge56_Node000001_Node000032"><a xlink:title=" ">
<path fill="none" stroke="#63b8ff" d="M634.37,-331.25C640.43,-313.92 653.98,-275.23 662.3,-251.49"/>
<polygon fill="#63b8ff" stroke="#63b8ff" points="665.6,-252.65 665.6,-242.06 658.99,-250.34 665.6,-252.65"/>
</a>
</g>
</g>
<!-- Node33 -->
<g id="Node000033" class="node">
<title>Node33</title>
<g id="a_Node000033"><a xlink:href="_ctorch___scheduler_8h.html" target="_top" xlink:title="Ctorch 框架的核心调度器类">
<polygon fill="white" stroke="#666666" points="603.01,-295.5 501.51,-295.5 501.51,-276.25 603.01,-276.25 603.01,-295.5"/>
<text xml:space="preserve" text-anchor="middle" x="552.26" y="-282" font-family="Helvetica,sans-Serif" font-size="10.00">Ctorch_Scheduler.h</text>
</a>
</g>
</g>
<!-- Node1&#45;&gt;Node33 -->
<g id="edge57_Node000001_Node000033" class="edge">
<title>Node1&#45;&gt;Node33</title>
<g id="a_edge57_Node000001_Node000033"><a xlink:title=" ">
<path fill="none" stroke="#63b8ff" d="M617.85,-331.09C606.16,-323.21 588.96,-311.61 575.1,-302.27"/>
<polygon fill="#63b8ff" stroke="#63b8ff" points="577.23,-299.49 566.98,-296.8 573.31,-305.29 577.23,-299.49"/>
</a>
</g>
</g>
<!-- Node3 -->
<g id="Node000003" class="node">
<title>Node3</title>
<g id="a_Node000003"><a xlink:title=" ">
<polygon fill="#e0e0e0" stroke="#999999" points="145.13,-185 89.38,-185 89.38,-165.75 145.13,-165.75 145.13,-185"/>
<text xml:space="preserve" text-anchor="middle" x="117.26" y="-171.5" font-family="Helvetica,sans-Serif" font-size="10.00">algorithm</text>
</a>
</g>
</g>
<!-- Node2&#45;&gt;Node3 -->
<g id="edge2_Node000002_Node000003" class="edge">
<title>Node2&#45;&gt;Node3</title>
<g id="a_edge2_Node000002_Node000003"><a xlink:title=" ">
<path fill="none" stroke="#63b8ff" d="M552.6,-227.69C486.01,-222.67 307.07,-207.97 159.26,-185 158.26,-184.84 157.25,-184.68 156.23,-184.51"/>
<polygon fill="#63b8ff" stroke="#63b8ff" points="157.16,-181.12 146.69,-182.78 155.9,-188.01 157.16,-181.12"/>
</a>
</g>
</g>
<!-- Node4 -->
<g id="Node000004" class="node">
<title>Node4</title>
<g id="a_Node000004"><a xlink:title=" ">
<polygon fill="#e0e0e0" stroke="#999999" points="71.38,-185 23.13,-185 23.13,-165.75 71.38,-165.75 71.38,-185"/>
<text xml:space="preserve" text-anchor="middle" x="47.26" y="-171.5" font-family="Helvetica,sans-Serif" font-size="10.00">cstddef</text>
</a>
</g>
</g>
<!-- Node2&#45;&gt;Node4 -->
<g id="edge3_Node000002_Node000004" class="edge">
<title>Node2&#45;&gt;Node4</title>
<g id="a_edge3_Node000002_Node000004"><a xlink:title=" ">
<path fill="none" stroke="#63b8ff" d="M552.55,-228.8C479.06,-226.2 267.61,-216.51 82.95,-185.19"/>
<polygon fill="#63b8ff" stroke="#63b8ff" points="83.61,-181.75 73.16,-183.5 82.42,-188.65 83.61,-181.75"/>
</a>
</g>
</g>
<!-- Node5 -->
<g id="Node000005" class="node">
<title>Node5</title>
<g id="a_Node000005"><a xlink:href="_ctorch___error_8h.html" target="_top" xlink:title="Ctorch 错误处理类">
<polygon fill="white" stroke="#666666" points="279.76,-129.75 200.76,-129.75 200.76,-110.5 279.76,-110.5 279.76,-129.75"/>
<text xml:space="preserve" text-anchor="middle" x="240.26" y="-116.25" font-family="Helvetica,sans-Serif" font-size="10.00">Ctorch_Error.h</text>
</a>
</g>
</g>
<!-- Node2&#45;&gt;Node5 -->
<g id="edge4_Node000002_Node000005" class="edge">
<title>Node2&#45;&gt;Node5</title>
<g id="a_edge4_Node000002_Node000005"><a xlink:title=" ">
<path fill="none" stroke="#63b8ff" d="M552.49,-228.56C468.81,-224.96 216.25,-211.92 192.26,-185 178.27,-169.3 197.67,-149.8 215.83,-136.5"/>
<polygon fill="#63b8ff" stroke="#63b8ff" points="217.53,-139.58 223.78,-131.03 213.56,-133.82 217.53,-139.58"/>
</a>
</g>
</g>
<!-- Node6 -->
<g id="Node000006" class="node">
<title>Node6</title>
<g id="a_Node000006"><a xlink:title=" ">
<polygon fill="#e0e0e0" stroke="#999999" points="649.88,-19.25 604.63,-19.25 604.63,0 649.88,0 649.88,-19.25"/>
<text xml:space="preserve" text-anchor="middle" x="627.26" y="-5.75" font-family="Helvetica,sans-Serif" font-size="10.00">cstring</text>
</a>
</g>
</g>
<!-- Node2&#45;&gt;Node6 -->
<g id="edge42_Node000002_Node000006" class="edge">
<title>Node2&#45;&gt;Node6</title>
<g id="a_edge42_Node000002_Node000006"><a xlink:title=" ">
<path fill="none" stroke="#63b8ff" d="M605.94,-223C609.08,-222.29 612.23,-221.61 615.26,-221 664.48,-211.15 805.71,-223.22 838.26,-185 900.24,-112.21 734.51,-46.14 660.67,-21.18"/>
<polygon fill="#63b8ff" stroke="#63b8ff" points="662.1,-17.96 651.51,-18.14 659.9,-24.61 662.1,-17.96"/>
</a>
</g>
</g>
<!-- Node10 -->
<g id="Node000010" class="node">
<title>Node10</title>
<g id="a_Node000010"><a xlink:title=" ">
<polygon fill="#e0e0e0" stroke="#999999" points="127.26,-19.25 87.26,-19.25 87.26,0 127.26,0 127.26,-19.25"/>
<text xml:space="preserve" text-anchor="middle" x="107.26" y="-5.75" font-family="Helvetica,sans-Serif" font-size="10.00">string</text>
</a>
</g>
</g>
<!-- Node2&#45;&gt;Node10 -->
<g id="edge44_Node000002_Node000010" class="edge">
<title>Node2&#45;&gt;Node10</title>
<g id="a_edge44_Node000002_Node000010"><a xlink:title=" ">
<path fill="none" stroke="#63b8ff" d="M552.53,-229.59C445.41,-229.17 51.15,-224.93 14.26,-185 -31.45,-135.55 47.59,-59.43 86.96,-26.6"/>
<polygon fill="#63b8ff" stroke="#63b8ff" points="88.87,-29.56 94.41,-20.53 84.45,-24.13 88.87,-29.56"/>
</a>
</g>
</g>
<!-- Node11 -->
<g id="Node000011" class="node">
<title>Node11</title>
<g id="a_Node000011"><a xlink:title=" ">
<polygon fill="#e0e0e0" stroke="#999999" points="586.88,-19.25 535.63,-19.25 535.63,0 586.88,0 586.88,-19.25"/>
<text xml:space="preserve" text-anchor="middle" x="561.26" y="-5.75" font-family="Helvetica,sans-Serif" font-size="10.00">sstream</text>
</a>
</g>
</g>
<!-- Node2&#45;&gt;Node11 -->
<g id="edge40_Node000002_Node000011" class="edge">
<title>Node2&#45;&gt;Node11</title>
<g id="a_edge40_Node000002_Node000011"><a xlink:title=" ">
<path fill="none" stroke="#63b8ff" d="M605.95,-223.03C609.08,-222.32 612.23,-221.62 615.26,-221 660.98,-211.56 792.2,-220.73 822.26,-185 858.03,-142.47 671.11,-57.02 593.65,-24.04"/>
<polygon fill="#63b8ff" stroke="#63b8ff" points="595.03,-20.82 584.45,-20.15 592.3,-27.27 595.03,-20.82"/>
</a>
</g>
</g>
<!-- Node12 -->
<g id="Node000012" class="node">
<title>Node12</title>
<g id="a_Node000012"><a xlink:title=" ">
<polygon fill="#e0e0e0" stroke="#999999" points="718.13,-19.25 668.38,-19.25 668.38,0 718.13,0 718.13,-19.25"/>
<text xml:space="preserve" text-anchor="middle" x="693.26" y="-5.75" font-family="Helvetica,sans-Serif" font-size="10.00">iomanip</text>
</a>
</g>
</g>
<!-- Node2&#45;&gt;Node12 -->
<g id="edge43_Node000002_Node000012" class="edge">
<title>Node2&#45;&gt;Node12</title>
<g id="a_edge43_Node000002_Node000012"><a xlink:title=" ">
<path fill="none" stroke="#63b8ff" d="M605.94,-222.96C609.07,-222.26 612.23,-221.59 615.26,-221 668.85,-210.63 822.6,-226.33 858.26,-185 867.19,-174.65 871.56,-143.49 853.26,-110.5 826.94,-63.07 767.69,-35.2 729.14,-21.44"/>
<polygon fill="#63b8ff" stroke="#63b8ff" points="730.41,-18.18 719.82,-18.26 728.15,-24.8 730.41,-18.18"/>
</a>
</g>
</g>
<!-- Node17 -->
<g id="Node000017" class="node">
<title>Node17</title>
<g id="a_Node000017"><a xlink:href="_ctools_8h.html" target="_top" xlink:title="Ctorch 通用工具类，包含通用枚举类型和辅助函数">
<polygon fill="white" stroke="#666666" points="529.63,-74.5 476.88,-74.5 476.88,-55.25 529.63,-55.25 529.63,-74.5"/>
<text xml:space="preserve" text-anchor="middle" x="503.26" y="-61" font-family="Helvetica,sans-Serif" font-size="10.00">Ctools.h</text>
</a>
</g>
</g>
<!-- Node2&#45;&gt;Node17 -->
<g id="edge48_Node000002_Node000017" class="edge">
<title>Node2&#45;&gt;Node17</title>
<g id="a_edge48_Node000002_Node000017"><a xlink:title=" ">
<path fill="none" stroke="#63b8ff" d="M552.6,-229.45C490.23,-228.41 337.74,-222.05 306.26,-185 300.72,-178.48 301.78,-173.04 306.26,-165.75 324.44,-136.15 415.58,-98.41 467.29,-78.89"/>
<polygon fill="#63b8ff" stroke="#63b8ff" points="468.43,-82.2 476.57,-75.43 465.98,-75.64 468.43,-82.2"/>
</a>
</g>
</g>
<!-- Node18 -->
<g id="Node000018" class="node">
<title>Node18</title>
<g id="a_Node000018"><a xlink:title=" ">
<polygon fill="#e0e0e0" stroke="#999999" points="1292.76,-19.25 1249.76,-19.25 1249.76,0 1292.76,0 1292.76,-19.25"/>
<text xml:space="preserve" text-anchor="middle" x="1271.26" y="-5.75" font-family="Helvetica,sans-Serif" font-size="10.00">vector</text>
</a>
</g>
</g>
<!-- Node2&#45;&gt;Node18 -->
<g id="edge39_Node000002_Node000018" class="edge">
<title>Node2&#45;&gt;Node18</title>
<g id="a_edge39_Node000002_Node000018"><a xlink:title=" ">
<path fill="none" stroke="#63b8ff" d="M605.9,-222.76C609.04,-222.1 612.21,-221.49 615.26,-221 806.81,-190.31 861.28,-228.85 1050.26,-185 1115.82,-169.79 1136.06,-168.27 1191.26,-129.75 1227.74,-104.29 1252.25,-56.38 1263.74,-29.74"/>
<polygon fill="#63b8ff" stroke="#63b8ff" points="1266.83,-31.42 1267.41,-20.84 1260.36,-28.76 1266.83,-31.42"/>
</a>
</g>
</g>
<!-- Node19 -->
<g id="Node000019" class="node">
<title>Node19</title>
<g id="a_Node000019"><a xlink:title=" ">
<polygon fill="#e0e0e0" stroke="#999999" points="1056.88,-19.25 1005.63,-19.25 1005.63,0 1056.88,0 1056.88,-19.25"/>
<text xml:space="preserve" text-anchor="middle" x="1031.26" y="-5.75" font-family="Helvetica,sans-Serif" font-size="10.00">memory</text>
</a>
</g>
</g>
<!-- Node2&#45;&gt;Node19 -->
<g id="edge36_Node000002_Node000019" class="edge">
<title>Node2&#45;&gt;Node19</title>
<g id="a_edge36_Node000002_Node000019"><a xlink:title=" ">
<path fill="none" stroke="#63b8ff" d="M605.91,-222.8C609.05,-222.13 612.21,-221.51 615.26,-221 783.04,-193.12 832.87,-232.28 996.26,-185 1100.6,-154.81 1157.4,-167.06 1214.26,-74.5 1247.68,-20.09 1130.99,-11.25 1068.38,-10.31"/>
<polygon fill="#63b8ff" stroke="#63b8ff" points="1068.54,-6.81 1058.51,-10.23 1068.48,-13.81 1068.54,-6.81"/>
</a>
</g>
</g>
<!-- Node20 -->
<g id="Node000020" class="node">
<title>Node20</title>
<g id="a_Node000020"><a xlink:title=" ">
<polygon fill="#e0e0e0" stroke="#999999" points="801.01,-19.25 747.51,-19.25 747.51,0 801.01,0 801.01,-19.25"/>
<text xml:space="preserve" text-anchor="middle" x="774.26" y="-5.75" font-family="Helvetica,sans-Serif" font-size="10.00">iostream</text>
</a>
</g>
</g>
<!-- Node2&#45;&gt;Node20 -->
<g id="edge35_Node000002_Node000020" class="edge">
<title>Node2&#45;&gt;Node20</title>
<g id="a_edge35_Node000002_Node000020"><a xlink:title=" ">
<path fill="none" stroke="#63b8ff" d="M605.93,-222.93C609.06,-222.23 612.22,-221.57 615.26,-221 672.79,-210.17 837.79,-229.14 876.26,-185 921.36,-133.24 837.85,-58.68 796.04,-26.45"/>
<polygon fill="#63b8ff" stroke="#63b8ff" points="798.41,-23.86 788.32,-20.63 794.2,-29.45 798.41,-23.86"/>
</a>
</g>
</g>
<!-- Node21 -->
<g id="Node000021" class="node">
<title>Node21</title>
<g id="a_Node000021"><a xlink:href="_storage_8h.html" target="_top" xlink:title="Ctorch 存储类，用于管理张量数据的底层存储">
<polygon fill="white" stroke="#666666" points="259.26,-185 201.26,-185 201.26,-165.75 259.26,-165.75 259.26,-185"/>
<text xml:space="preserve" text-anchor="middle" x="230.26" y="-171.5" font-family="Helvetica,sans-Serif" font-size="10.00">Storage.h</text>
</a>
</g>
</g>
<!-- Node2&#45;&gt;Node21 -->
<g id="edge31_Node000002_Node000021" class="edge">
<title>Node2&#45;&gt;Node21</title>
<g id="a_edge31_Node000002_Node000021"><a xlink:title=" ">
<path fill="none" stroke="#63b8ff" d="M552.58,-226.22C499.33,-219.32 376.15,-202.81 273.26,-185 272.27,-184.83 271.27,-184.65 270.27,-184.47"/>
<polygon fill="#63b8ff" stroke="#63b8ff" points="271.32,-181.11 260.85,-182.71 270.03,-187.99 271.32,-181.11"/>
</a>
</g>
</g>
<!-- Node22 -->
<g id="Node000022" class="node">
<title>Node22</title>
<g id="a_Node000022"><a xlink:title=" ">
<polygon fill="#e0e0e0" stroke="#999999" points="387.38,-185 315.13,-185 315.13,-165.75 387.38,-165.75 387.38,-185"/>
<text xml:space="preserve" text-anchor="middle" x="351.26" y="-171.5" font-family="Helvetica,sans-Serif" font-size="10.00">initializer_list</text>
</a>
</g>
</g>
<!-- Node2&#45;&gt;Node22 -->
<g id="edge34_Node000002_Node000022" class="edge">
<title>Node2&#45;&gt;Node22</title>
<g id="a_edge34_Node000002_Node000022"><a xlink:title=" ">
<path fill="none" stroke="#63b8ff" d="M552.66,-223.41C515,-214.62 445.55,-198.4 398.87,-187.5"/>
<polygon fill="#63b8ff" stroke="#63b8ff" points="399.83,-184.13 389.3,-185.26 398.24,-190.94 399.83,-184.13"/>
</a>
</g>
</g>
<!-- Node23 -->
<g id="Node000023" class="node">
<title>Node23</title>
<g id="a_Node000023"><a xlink:title=" ">
<polygon fill="#e0e0e0" stroke="#999999" points="455.51,-185 405.01,-185 405.01,-165.75 455.51,-165.75 455.51,-185"/>
<text xml:space="preserve" text-anchor="middle" x="430.26" y="-171.5" font-family="Helvetica,sans-Serif" font-size="10.00">numeric</text>
</a>
</g>
</g>
<!-- Node2&#45;&gt;Node23 -->
<g id="edge37_Node000002_Node000023" class="edge">
<title>Node2&#45;&gt;Node23</title>
<g id="a_edge37_Node000002_Node000023"><a xlink:title=" ">
<path fill="none" stroke="#63b8ff" d="M553.98,-220.59C529.9,-211.99 493.4,-198.94 466.28,-189.25"/>
<polygon fill="#63b8ff" stroke="#63b8ff" points="467.68,-186.03 457.08,-185.96 465.32,-192.62 467.68,-186.03"/>
</a>
</g>
</g>
<!-- Node24 -->
<g id="Node000024" class="node">
<title>Node24</title>
<g id="a_Node000024"><a xlink:title=" ">
<polygon fill="#e0e0e0" stroke="#999999" points="532.63,-185 473.88,-185 473.88,-165.75 532.63,-165.75 532.63,-185"/>
<text xml:space="preserve" text-anchor="middle" x="503.26" y="-171.5" font-family="Helvetica,sans-Serif" font-size="10.00">stdexcept</text>
</a>
</g>
</g>
<!-- Node2&#45;&gt;Node24 -->
<g id="edge38_Node000002_Node000024" class="edge">
<title>Node2&#45;&gt;Node24</title>
<g id="a_edge38_Node000002_Node000024"><a xlink:title=" ">
<path fill="none" stroke="#63b8ff" d="M566.36,-220.59C555.23,-212.79 538.88,-201.34 525.62,-192.04"/>
<polygon fill="#63b8ff" stroke="#63b8ff" points="527.65,-189.19 517.45,-186.32 523.63,-194.93 527.65,-189.19"/>
</a>
</g>
</g>
<!-- Node25 -->
<g id="Node000025" class="node">
<title>Node25</title>
<g id="a_Node000025"><a xlink:title=" ">
<polygon fill="#e0e0e0" stroke="#999999" points="608.26,-185 550.26,-185 550.26,-165.75 608.26,-165.75 608.26,-185"/>
<text xml:space="preserve" text-anchor="middle" x="579.26" y="-171.5" font-family="Helvetica,sans-Serif" font-size="10.00">functional</text>
</a>
</g>
</g>
<!-- Node2&#45;&gt;Node25 -->
<g id="edge41_Node000002_Node000025" class="edge">
<title>Node2&#45;&gt;Node25</title>
<g id="a_edge41_Node000002_Node000025"><a xlink:title=" ">
<path fill="none" stroke="#63b8ff" d="M579.26,-220.83C579.26,-214.32 579.26,-205.17 579.26,-196.87"/>
<polygon fill="#63b8ff" stroke="#63b8ff" points="582.76,-196.87 579.26,-186.87 575.76,-196.87 582.76,-196.87"/>
</a>
</g>
</g>
<!-- Node26 -->
<g id="Node000026" class="node">
<title>Node26</title>
<g id="a_Node000026"><a xlink:title=" ">
<polygon fill="#e0e0e0" stroke="#999999" points="704.01,-185 626.51,-185 626.51,-165.75 704.01,-165.75 704.01,-185"/>
<text xml:space="preserve" text-anchor="middle" x="665.26" y="-171.5" font-family="Helvetica,sans-Serif" font-size="10.00">unordered_set</text>
</a>
</g>
</g>
<!-- Node2&#45;&gt;Node26 -->
<g id="edge45_Node000002_Node000026" class="edge">
<title>Node2&#45;&gt;Node26</title>
<g id="a_edge45_Node000002_Node000026"><a xlink:title=" ">
<path fill="none" stroke="#63b8ff" d="M593.84,-220.59C606.69,-212.64 625.67,-200.89 640.83,-191.5"/>
<polygon fill="#63b8ff" stroke="#63b8ff" points="642.65,-194.49 649.31,-186.25 638.96,-188.54 642.65,-194.49"/>
</a>
</g>
</g>
<!-- Node27 -->
<g id="Node000027" class="node">
<title>Node27</title>
<g id="a_Node000027"><a xlink:title=" ">
<polygon fill="#e0e0e0" stroke="#999999" points="760.88,-185 721.63,-185 721.63,-165.75 760.88,-165.75 760.88,-185"/>
<text xml:space="preserve" text-anchor="middle" x="741.26" y="-171.5" font-family="Helvetica,sans-Serif" font-size="10.00">limits</text>
</a>
</g>
</g>
<!-- Node2&#45;&gt;Node27 -->
<g id="edge46_Node000002_Node000027" class="edge">
<title>Node2&#45;&gt;Node27</title>
<g id="a_edge46_Node000002_Node000027"><a xlink:title=" ">
<path fill="none" stroke="#63b8ff" d="M606.01,-220.83C634.85,-211.35 680.69,-196.28 710.87,-186.36"/>
<polygon fill="#63b8ff" stroke="#63b8ff" points="711.76,-189.75 720.17,-183.31 709.58,-183.1 711.76,-189.75"/>
</a>
</g>
</g>
<!-- Node28 -->
<g id="Node000028" class="node">
<title>Node28</title>
<g id="a_Node000028"><a xlink:title=" ">
<polygon fill="#e0e0e0" stroke="#999999" points="813.63,-185 778.88,-185 778.88,-165.75 813.63,-165.75 813.63,-185"/>
<text xml:space="preserve" text-anchor="middle" x="796.26" y="-171.5" font-family="Helvetica,sans-Serif" font-size="10.00">map</text>
</a>
</g>
</g>
<!-- Node2&#45;&gt;Node28 -->
<g id="edge47_Node000002_Node000028" class="edge">
<title>Node2&#45;&gt;Node28</title>
<g id="a_edge47_Node000002_Node000028"><a xlink:title=" ">
<path fill="none" stroke="#63b8ff" d="M605.99,-223.2C609.11,-222.45 612.25,-221.71 615.26,-221 680.73,-205.55 700.29,-204.25 767.66,-185.55"/>
<polygon fill="#63b8ff" stroke="#63b8ff" points="768.28,-189.01 776.96,-182.94 766.39,-182.27 768.28,-189.01"/>
</a>
</g>
</g>
<!-- Node29 -->
<g id="Node000029" class="node">
<title>Node29</title>
<g id="a_Node000029"><a xlink:href="_auto_diff_8h.html" target="_top" xlink:title="Ctorch 自动微分系统">
<polygon fill="white" stroke="#666666" points="1061.38,-129.75 1001.13,-129.75 1001.13,-110.5 1061.38,-110.5 1061.38,-129.75"/>
<text xml:space="preserve" text-anchor="middle" x="1031.26" y="-116.25" font-family="Helvetica,sans-Serif" font-size="10.00">AutoDiff.h</text>
</a>
</g>
</g>
<!-- Node2&#45;&gt;Node29 -->
<g id="edge49_Node000002_Node000029" class="edge">
<title>Node2&#45;&gt;Node29</title>
<g id="a_edge49_Node000002_Node000029"><a xlink:title=" ">
<path fill="none" stroke="#63b8ff" d="M605.91,-222.82C609.05,-222.14 612.21,-221.52 615.26,-221 771.17,-194.52 826.91,-253.9 969.26,-185 990.28,-174.82 1008.09,-154.4 1019.15,-139.38"/>
<polygon fill="#63b8ff" stroke="#63b8ff" points="1021.96,-141.47 1024.82,-131.27 1016.22,-137.46 1021.96,-141.47"/>
</a>
</g>
</g>
<!-- Node5&#45;&gt;Node6 -->
<g id="edge5_Node000005_Node000006" class="edge">
<title>Node5&#45;&gt;Node6</title>
<g id="a_edge5_Node000005_Node000006"><a xlink:title=" ">
<path fill="none" stroke="#63b8ff" d="M280.06,-111.4C317.49,-103.67 374.86,-90.63 423.26,-74.5 443.89,-67.62 447.74,-62.48 468.26,-55.25 471.28,-54.18 547.68,-32.83 593.46,-20.05"/>
<polygon fill="#63b8ff" stroke="#63b8ff" points="594.22,-23.47 602.91,-17.41 592.34,-16.73 594.22,-23.47"/>
</a>
</g>
</g>
<!-- Node7 -->
<g id="Node000007" class="node">
<title>Node7</title>
<g id="a_Node000007"><a xlink:title=" ">
<polygon fill="#e0e0e0" stroke="#999999" points="517.88,-19.25 472.63,-19.25 472.63,0 517.88,0 517.88,-19.25"/>
<text xml:space="preserve" text-anchor="middle" x="495.26" y="-5.75" font-family="Helvetica,sans-Serif" font-size="10.00">chrono</text>
</a>
</g>
</g>
<!-- Node5&#45;&gt;Node7 -->
<g id="edge6_Node000005_Node000007" class="edge">
<title>Node5&#45;&gt;Node7</title>
<g id="a_edge6_Node000005_Node000007"><a xlink:title=" ">
<path fill="none" stroke="#63b8ff" d="M261.79,-110.11C283.22,-101.12 317.04,-86.91 346.26,-74.5 387.09,-57.15 434.13,-36.95 464.26,-23.98"/>
<polygon fill="#63b8ff" stroke="#63b8ff" points="465.35,-27.32 473.15,-20.15 462.59,-20.89 465.35,-27.32"/>
</a>
</g>
</g>
<!-- Node8 -->
<g id="Node000008" class="node">
<title>Node8</title>
<g id="a_Node000008"><a xlink:title=" ">
<polygon fill="#e0e0e0" stroke="#999999" points="190.88,-19.25 145.63,-19.25 145.63,0 190.88,0 190.88,-19.25"/>
<text xml:space="preserve" text-anchor="middle" x="168.26" y="-5.75" font-family="Helvetica,sans-Serif" font-size="10.00">cstdint</text>
</a>
</g>
</g>
<!-- Node5&#45;&gt;Node8 -->
<g id="edge7_Node000005_Node000008" class="edge">
<title>Node5&#45;&gt;Node8</title>
<g id="a_edge7_Node000005_Node000008"><a xlink:title=" ">
<path fill="none" stroke="#63b8ff" d="M234.36,-110.25C222.66,-92.6 196.24,-52.8 180.58,-29.2"/>
<polygon fill="#63b8ff" stroke="#63b8ff" points="183.51,-27.28 175.07,-20.89 177.68,-31.16 183.51,-27.28"/>
</a>
</g>
</g>
<!-- Node9 -->
<g id="Node000009" class="node">
<title>Node9</title>
<g id="a_Node000009"><a xlink:title=" ">
<polygon fill="#e0e0e0" stroke="#999999" points="249.26,-19.25 209.26,-19.25 209.26,0 249.26,0 249.26,-19.25"/>
<text xml:space="preserve" text-anchor="middle" x="229.26" y="-5.75" font-family="Helvetica,sans-Serif" font-size="10.00">ctime</text>
</a>
</g>
</g>
<!-- Node5&#45;&gt;Node9 -->
<g id="edge8_Node000005_Node000009" class="edge">
<title>Node5&#45;&gt;Node9</title>
<g id="a_edge8_Node000005_Node000009"><a xlink:title=" ">
<path fill="none" stroke="#63b8ff" d="M239.36,-110.25C237.61,-93 233.71,-54.58 231.3,-30.81"/>
<polygon fill="#63b8ff" stroke="#63b8ff" points="234.81,-30.73 230.32,-21.13 227.85,-31.43 234.81,-30.73"/>
</a>
</g>
</g>
<!-- Node5&#45;&gt;Node10 -->
<g id="edge9_Node000005_Node000010" class="edge">
<title>Node5&#45;&gt;Node10</title>
<g id="a_edge9_Node000005_Node000010"><a xlink:title=" ">
<path fill="none" stroke="#63b8ff" d="M229.37,-110.25C206.97,-91.97 155.4,-49.9 126.97,-26.71"/>
<polygon fill="#63b8ff" stroke="#63b8ff" points="129.42,-24.19 119.46,-20.58 125,-29.62 129.42,-24.19"/>
</a>
</g>
</g>
<!-- Node5&#45;&gt;Node11 -->
<g id="edge10_Node000005_Node000011" class="edge">
<title>Node5&#45;&gt;Node11</title>
<g id="a_edge10_Node000005_Node000011"><a xlink:title=" ">
<path fill="none" stroke="#63b8ff" d="M271.09,-110.01C300.15,-101.3 344.85,-87.59 383.26,-74.5 406.58,-66.55 412.08,-63.64 435.26,-55.25 465.29,-44.37 499.45,-32.29 524.62,-23.45"/>
<polygon fill="#63b8ff" stroke="#63b8ff" points="525.45,-26.86 533.73,-20.25 523.13,-20.26 525.45,-26.86"/>
</a>
</g>
</g>
<!-- Node5&#45;&gt;Node12 -->
<g id="edge11_Node000005_Node000012" class="edge">
<title>Node5&#45;&gt;Node12</title>
<g id="a_edge11_Node000005_Node000012"><a xlink:title=" ">
<path fill="none" stroke="#63b8ff" d="M279.94,-116.26C337.66,-111.4 447.75,-99.53 538.26,-74.5 584.23,-61.79 634.86,-39.18 665.34,-24.55"/>
<polygon fill="#63b8ff" stroke="#63b8ff" points="666.79,-27.74 674.26,-20.22 663.73,-21.44 666.79,-27.74"/>
</a>
</g>
</g>
<!-- Node13 -->
<g id="Node000013" class="node">
<title>Node13</title>
<g id="a_Node000013"><a xlink:title=" ">
<polygon fill="#e0e0e0" stroke="#999999" points="377.38,-19.25 329.13,-19.25 329.13,0 377.38,0 377.38,-19.25"/>
<text xml:space="preserve" text-anchor="middle" x="353.26" y="-5.75" font-family="Helvetica,sans-Serif" font-size="10.00">stdint.h</text>
</a>
</g>
</g>
<!-- Node5&#45;&gt;Node13 -->
<g id="edge12_Node000005_Node000013" class="edge">
<title>Node5&#45;&gt;Node13</title>
<g id="a_edge12_Node000005_Node000013"><a xlink:title=" ">
<path fill="none" stroke="#63b8ff" d="M249.5,-110.25C268.38,-92.13 311.59,-50.63 335.87,-27.32"/>
<polygon fill="#63b8ff" stroke="#63b8ff" points="338,-30.13 342.79,-20.67 333.15,-25.08 338,-30.13"/>
</a>
</g>
</g>
<!-- Node14 -->
<g id="Node000014" class="node">
<title>Node14</title>
<g id="a_Node000014"><a xlink:title=" ">
<polygon fill="#e0e0e0" stroke="#999999" points="454.63,-19.25 395.88,-19.25 395.88,0 454.63,0 454.63,-19.25"/>
<text xml:space="preserve" text-anchor="middle" x="425.26" y="-5.75" font-family="Helvetica,sans-Serif" font-size="10.00">inttypes.h</text>
</a>
</g>
</g>
<!-- Node5&#45;&gt;Node14 -->
<g id="edge13_Node000005_Node000014" class="edge">
<title>Node5&#45;&gt;Node14</title>
<g id="a_edge13_Node000005_Node000014"><a xlink:title=" ">
<path fill="none" stroke="#63b8ff" d="M255.71,-110.06C287.68,-91.31 361.32,-48.12 400.18,-25.33"/>
<polygon fill="#63b8ff" stroke="#63b8ff" points="401.55,-28.58 408.41,-20.51 398.01,-22.55 401.55,-28.58"/>
</a>
</g>
</g>
<!-- Node15 -->
<g id="Node000015" class="node">
<title>Node15</title>
<g id="a_Node000015"><a xlink:title=" ">
<polygon fill="#e0e0e0" stroke="#999999" points="900.76,-19.25 857.76,-19.25 857.76,0 900.76,0 900.76,-19.25"/>
<text xml:space="preserve" text-anchor="middle" x="879.26" y="-5.75" font-family="Helvetica,sans-Serif" font-size="10.00">mutex</text>
</a>
</g>
</g>
<!-- Node5&#45;&gt;Node15 -->
<g id="edge14_Node000005_Node000015" class="edge">
<title>Node5&#45;&gt;Node15</title>
<g id="a_edge14_Node000005_Node000015"><a xlink:title=" ">
<path fill="none" stroke="#63b8ff" d="M280.19,-114.93C343.89,-108.01 472.3,-93.08 580.26,-74.5 677.73,-57.72 791.71,-31.53 846.53,-18.51"/>
<polygon fill="#63b8ff" stroke="#63b8ff" points="847.22,-21.95 856.14,-16.22 845.6,-15.14 847.22,-21.95"/>
</a>
</g>
</g>
<!-- Node16 -->
<g id="Node000016" class="node">
<title>Node16</title>
<g id="a_Node000016"><a xlink:title=" ">
<polygon fill="#e0e0e0" stroke="#999999" points="310.76,-19.25 267.76,-19.25 267.76,0 310.76,0 310.76,-19.25"/>
<text xml:space="preserve" text-anchor="middle" x="289.26" y="-5.75" font-family="Helvetica,sans-Serif" font-size="10.00">thread</text>
</a>
</g>
</g>
<!-- Node5&#45;&gt;Node16 -->
<g id="edge15_Node000005_Node000016" class="edge">
<title>Node5&#45;&gt;Node16</title>
<g id="a_edge15_Node000005_Node000016"><a xlink:title=" ">
<path fill="none" stroke="#63b8ff" d="M244.27,-110.25C252.16,-92.76 269.89,-53.52 280.58,-29.84"/>
<polygon fill="#63b8ff" stroke="#63b8ff" points="283.64,-31.56 284.57,-21.01 277.26,-28.68 283.64,-31.56"/>
</a>
</g>
</g>
<!-- Node5&#45;&gt;Node17 -->
<g id="edge16_Node000005_Node000017" class="edge">
<title>Node5&#45;&gt;Node17</title>
<g id="a_edge16_Node000005_Node000017"><a xlink:title=" ">
<path fill="none" stroke="#63b8ff" d="M280.17,-111.32C324.82,-102.55 399.28,-87.8 463.26,-74.5 464.06,-74.33 464.88,-74.16 465.71,-73.99"/>
<polygon fill="#63b8ff" stroke="#63b8ff" points="466.05,-77.49 475.11,-72 464.6,-70.65 466.05,-77.49"/>
</a>
</g>
</g>
<!-- Node17&#45;&gt;Node6 -->
<g id="edge17_Node000017_Node000006" class="edge">
<title>Node17&#45;&gt;Node6</title>
<g id="a_edge17_Node000017_Node000006"><a xlink:title=" ">
<path fill="none" stroke="#63b8ff" d="M524.29,-54.84C543.89,-46.43 573.36,-33.77 595.76,-24.15"/>
<polygon fill="#63b8ff" stroke="#63b8ff" points="596.92,-27.46 604.73,-20.3 594.16,-21.03 596.92,-27.46"/>
</a>
</g>
</g>
<!-- Node17&#45;&gt;Node7 -->
<g id="edge18_Node000017_Node000007" class="edge">
<title>Node17&#45;&gt;Node7</title>
<g id="a_edge18_Node000017_Node000007"><a xlink:title=" ">
<path fill="none" stroke="#63b8ff" d="M501.94,-55.08C500.95,-48.49 499.55,-39.21 498.29,-30.82"/>
<polygon fill="#63b8ff" stroke="#63b8ff" points="501.78,-30.47 496.83,-21.11 494.86,-31.51 501.78,-30.47"/>
</a>
</g>
</g>
<!-- Node17&#45;&gt;Node8 -->
<g id="edge19_Node000017_Node000008" class="edge">
<title>Node17&#45;&gt;Node8</title>
<g id="a_edge19_Node000017_Node000008"><a xlink:title=" ">
<path fill="none" stroke="#63b8ff" d="M476.73,-61.03C425.57,-55.31 309.56,-41.25 202.27,-19.44"/>
<polygon fill="#63b8ff" stroke="#63b8ff" points="203.23,-16.07 192.73,-17.47 201.82,-22.92 203.23,-16.07"/>
</a>
</g>
</g>
<!-- Node17&#45;&gt;Node9 -->
<g id="edge20_Node000017_Node000009" class="edge">
<title>Node17&#45;&gt;Node9</title>
<g id="a_edge20_Node000017_Node000009"><a xlink:title=" ">
<path fill="none" stroke="#63b8ff" d="M476.59,-59.99C433.27,-53.48 344.74,-39.3 260.51,-19.57"/>
<polygon fill="#63b8ff" stroke="#63b8ff" points="261.47,-16.2 250.93,-17.29 259.85,-23.01 261.47,-16.2"/>
</a>
</g>
</g>
<!-- Node17&#45;&gt;Node10 -->
<g id="edge21_Node000017_Node000010" class="edge">
<title>Node17&#45;&gt;Node10</title>
<g id="a_edge21_Node000017_Node000010"><a xlink:title=" ">
<path fill="none" stroke="#63b8ff" d="M476.75,-62.19C417.67,-58.1 270.59,-46.13 138.82,-19.47"/>
<polygon fill="#63b8ff" stroke="#63b8ff" points="139.73,-16.08 129.22,-17.49 138.31,-22.94 139.73,-16.08"/>
</a>
</g>
</g>
<!-- Node17&#45;&gt;Node11 -->
<g id="edge22_Node000017_Node000011" class="edge">
<title>Node17&#45;&gt;Node11</title>
<g id="a_edge22_Node000017_Node000011"><a xlink:title=" ">
<path fill="none" stroke="#63b8ff" d="M513.09,-54.84C521.31,-47.3 533.24,-36.35 543.17,-27.23"/>
<polygon fill="#63b8ff" stroke="#63b8ff" points="545.45,-29.89 550.45,-20.55 540.71,-24.73 545.45,-29.89"/>
</a>
</g>
</g>
<!-- Node17&#45;&gt;Node12 -->
<g id="edge23_Node000017_Node000012" class="edge">
<title>Node17&#45;&gt;Node12</title>
<g id="a_edge23_Node000017_Node000012"><a xlink:title=" ">
<path fill="none" stroke="#63b8ff" d="M530.08,-56.36C563.36,-47.03 620.23,-31.09 657.28,-20.71"/>
<polygon fill="#63b8ff" stroke="#63b8ff" points="657.95,-24.16 666.63,-18.09 656.06,-17.42 657.95,-24.16"/>
</a>
</g>
</g>
<!-- Node17&#45;&gt;Node13 -->
<g id="edge24_Node000017_Node000013" class="edge">
<title>Node17&#45;&gt;Node13</title>
<g id="a_edge24_Node000017_Node000013"><a xlink:title=" ">
<path fill="none" stroke="#63b8ff" d="M477.81,-54.84C453.27,-46.13 415.93,-32.87 388.53,-23.15"/>
<polygon fill="#63b8ff" stroke="#63b8ff" points="389.85,-19.9 379.26,-19.85 387.51,-26.5 389.85,-19.9"/>
</a>
</g>
</g>
<!-- Node17&#45;&gt;Node14 -->
<g id="edge25_Node000017_Node000014" class="edge">
<title>Node17&#45;&gt;Node14</title>
<g id="a_edge25_Node000017_Node000014"><a xlink:title=" ">
<path fill="none" stroke="#63b8ff" d="M490.02,-54.84C478.48,-46.96 461.49,-35.36 447.81,-26.02"/>
<polygon fill="#63b8ff" stroke="#63b8ff" points="450.03,-23.3 439.8,-20.56 446.09,-29.08 450.03,-23.3"/>
</a>
</g>
</g>
<!-- Node17&#45;&gt;Node15 -->
<g id="edge26_Node000017_Node000015" class="edge">
<title>Node17&#45;&gt;Node15</title>
<g id="a_edge26_Node000017_Node000015"><a xlink:title=" ">
<path fill="none" stroke="#63b8ff" d="M530,-60.09C597.22,-50.57 773.14,-25.65 846.45,-15.27"/>
<polygon fill="#63b8ff" stroke="#63b8ff" points="846.79,-18.76 856.2,-13.89 845.81,-11.83 846.79,-18.76"/>
</a>
</g>
</g>
<!-- Node17&#45;&gt;Node16 -->
<g id="edge27_Node000017_Node000016" class="edge">
<title>Node17&#45;&gt;Node16</title>
<g id="a_edge27_Node000017_Node000016"><a xlink:title=" ">
<path fill="none" stroke="#63b8ff" d="M476.52,-57.64C442.84,-49.72 382.92,-35.44 322.19,-19.69"/>
<polygon fill="#63b8ff" stroke="#63b8ff" points="323.27,-16.35 312.71,-17.22 321.51,-23.13 323.27,-16.35"/>
</a>
</g>
</g>
<!-- Node17&#45;&gt;Node18 -->
<g id="edge28_Node000017_Node000018" class="edge">
<title>Node17&#45;&gt;Node18</title>
<g id="a_edge28_Node000017_Node000018"><a xlink:title=" ">
<path fill="none" stroke="#63b8ff" d="M529.69,-62.04C645.7,-54 1109.6,-21.83 1238.11,-12.92"/>
<polygon fill="#63b8ff" stroke="#63b8ff" points="1238.23,-16.42 1247.96,-12.24 1237.75,-9.44 1238.23,-16.42"/>
</a>
</g>
</g>
<!-- Node17&#45;&gt;Node19 -->
<g id="edge29_Node000017_Node000019" class="edge">
<title>Node17&#45;&gt;Node19</title>
<g id="a_edge29_Node000017_Node000019"><a xlink:title=" ">
<path fill="none" stroke="#63b8ff" d="M529.8,-61.2C616.71,-52.43 892.94,-24.57 993.87,-14.4"/>
<polygon fill="#63b8ff" stroke="#63b8ff" points="994.18,-17.88 1003.78,-13.4 993.48,-10.92 994.18,-17.88"/>
</a>
</g>
</g>
<!-- Node17&#45;&gt;Node20 -->
<g id="edge30_Node000017_Node000020" class="edge">
<title>Node17&#45;&gt;Node20</title>
<g id="a_edge30_Node000017_Node000020"><a xlink:title=" ">
<path fill="none" stroke="#63b8ff" d="M529.73,-58.67C577.98,-49.19 680.35,-29.08 736.11,-18.12"/>
<polygon fill="#63b8ff" stroke="#63b8ff" points="736.65,-21.58 745.78,-16.22 735.3,-14.71 736.65,-21.58"/>
</a>
</g>
</g>
<!-- Node21&#45;&gt;Node5 -->
<g id="edge33_Node000021_Node000005" class="edge">
<title>Node21&#45;&gt;Node5</title>
<g id="a_edge33_Node000021_Node000005"><a xlink:title=" ">
<path fill="none" stroke="#63b8ff" d="M231.91,-165.58C233.14,-158.99 234.89,-149.71 236.46,-141.32"/>
<polygon fill="#63b8ff" stroke="#63b8ff" points="239.88,-142.07 238.29,-131.6 233,-140.78 239.88,-142.07"/>
</a>
</g>
</g>
<!-- Node21&#45;&gt;Node17 -->
<g id="edge32_Node000021_Node000017" class="edge">
<title>Node21&#45;&gt;Node17</title>
<g id="a_edge32_Node000021_Node000017"><a xlink:title=" ">
<path fill="none" stroke="#63b8ff" d="M241.84,-165.45C260.11,-151.78 297.15,-125.65 332.26,-110.5 356,-100.26 422.6,-84.16 465.33,-74.35"/>
<polygon fill="#63b8ff" stroke="#63b8ff" points="465.99,-77.79 474.96,-72.16 464.43,-70.97 465.99,-77.79"/>
</a>
</g>
</g>
<!-- Node29&#45;&gt;Node15 -->
<g id="edge53_Node000029_Node000015" class="edge">
<title>Node29&#45;&gt;Node15</title>
<g id="a_edge53_Node000029_Node000015"><a xlink:title=" ">
<path fill="none" stroke="#63b8ff" d="M1024.41,-110.35C1013.73,-97.12 991.98,-71.83 969.26,-55.25 951.52,-42.31 929.47,-31.31 911.63,-23.46"/>
<polygon fill="#63b8ff" stroke="#63b8ff" points="913.11,-20.29 902.54,-19.59 910.37,-26.73 913.11,-20.29"/>
</a>
</g>
</g>
<!-- Node29&#45;&gt;Node17 -->
<g id="edge50_Node000029_Node000017" class="edge">
<title>Node29&#45;&gt;Node17</title>
<g id="a_edge50_Node000029_Node000017"><a xlink:title=" ">
<path fill="none" stroke="#63b8ff" d="M1000.97,-116.07C910.32,-106.93 641.24,-79.79 541.24,-69.71"/>
<polygon fill="#63b8ff" stroke="#63b8ff" points="541.71,-66.24 531.41,-68.71 541.01,-73.2 541.71,-66.24"/>
</a>
</g>
</g>
<!-- Node29&#45;&gt;Node18 -->
<g id="edge51_Node000029_Node000018" class="edge">
<title>Node29&#45;&gt;Node18</title>
<g id="a_edge51_Node000029_Node000018"><a xlink:title=" ">
<path fill="none" stroke="#63b8ff" d="M1061.86,-117.22C1100,-113.64 1166.03,-103.45 1214.26,-74.5 1233.12,-63.17 1249.23,-43.58 1259.46,-29.07"/>
<polygon fill="#63b8ff" stroke="#63b8ff" points="1262.31,-31.11 1264.99,-20.86 1256.5,-27.2 1262.31,-31.11"/>
</a>
</g>
</g>
<!-- Node29&#45;&gt;Node19 -->
<g id="edge55_Node000029_Node000019" class="edge">
<title>Node29&#45;&gt;Node19</title>
<g id="a_edge55_Node000029_Node000019"><a xlink:title=" ">
<path fill="none" stroke="#63b8ff" d="M1031.26,-110.25C1031.26,-93 1031.26,-54.58 1031.26,-30.81"/>
<polygon fill="#63b8ff" stroke="#63b8ff" points="1034.76,-31.14 1031.26,-21.14 1027.76,-31.14 1034.76,-31.14"/>
</a>
</g>
</g>
<!-- Node30 -->
<g id="Node000030" class="node">
<title>Node30</title>
<g id="a_Node000030"><a xlink:title=" ">
<polygon fill="#e0e0e0" stroke="#999999" points="1205.63,-74.5 1122.88,-74.5 1122.88,-55.25 1205.63,-55.25 1205.63,-74.5"/>
<text xml:space="preserve" text-anchor="middle" x="1164.26" y="-61" font-family="Helvetica,sans-Serif" font-size="10.00">unordered_map</text>
</a>
</g>
</g>
<!-- Node29&#45;&gt;Node30 -->
<g id="edge52_Node000029_Node000030" class="edge">
<title>Node29&#45;&gt;Node30</title>
<g id="a_edge52_Node000029_Node000030"><a xlink:title=" ">
<path fill="none" stroke="#63b8ff" d="M1053.82,-110.09C1075.03,-101.6 1107.03,-88.79 1131.13,-79.14"/>
<polygon fill="#63b8ff" stroke="#63b8ff" points="1132.2,-82.48 1140.18,-75.52 1129.59,-75.98 1132.2,-82.48"/>
</a>
</g>
</g>
<!-- Node31 -->
<g id="Node000031" class="node">
<title>Node31</title>
<g id="a_Node000031"><a xlink:title=" ">
<polygon fill="#e0e0e0" stroke="#999999" points="1104.88,-74.5 1059.63,-74.5 1059.63,-55.25 1104.88,-55.25 1104.88,-74.5"/>
<text xml:space="preserve" text-anchor="middle" x="1082.26" y="-61" font-family="Helvetica,sans-Serif" font-size="10.00">atomic</text>
</a>
</g>
</g>
<!-- Node29&#45;&gt;Node31 -->
<g id="edge54_Node000029_Node000031" class="edge">
<title>Node29&#45;&gt;Node31</title>
<g id="a_edge54_Node000029_Node000031"><a xlink:title=" ">
<path fill="none" stroke="#63b8ff" d="M1039.68,-110.33C1046.8,-102.9 1057.2,-92.04 1065.94,-82.91"/>
<polygon fill="#63b8ff" stroke="#63b8ff" points="1068.22,-85.6 1072.6,-75.95 1063.16,-80.75 1068.22,-85.6"/>
</a>
</g>
</g>
<!-- Node33&#45;&gt;Node2 -->
<g id="edge59_Node000033_Node000002" class="edge">
<title>Node33&#45;&gt;Node2</title>
<g id="a_edge59_Node000033_Node000002"><a xlink:title=" ">
<path fill="none" stroke="#63b8ff" d="M556.71,-276.08C560.21,-269.19 565.2,-259.34 569.6,-250.66"/>
<polygon fill="#63b8ff" stroke="#63b8ff" points="572.62,-252.46 574.02,-241.96 566.37,-249.3 572.62,-252.46"/>
</a>
</g>
</g>
<!-- Node33&#45;&gt;Node5 -->
<g id="edge58_Node000033_Node000005" class="edge">
<title>Node33&#45;&gt;Node5</title>
<g id="a_edge58_Node000033_Node000005"><a xlink:title=" ">
<path fill="none" stroke="#63b8ff" d="M501.45,-283.37C379.57,-278.6 76.05,-259.33 14.26,-185 8.79,-178.42 8.82,-172.36 14.26,-165.75 35.92,-139.39 129.1,-128.34 188.84,-123.91"/>
<polygon fill="#63b8ff" stroke="#63b8ff" points="189.07,-127.4 198.8,-123.21 188.58,-120.42 189.07,-127.4"/>
</a>
</g>
</g>
<!-- Node33&#45;&gt;Node32 -->
<g id="edge60_Node000033_Node000032" class="edge">
<title>Node33&#45;&gt;Node32</title>
<g id="a_edge60_Node000033_Node000032"><a xlink:title=" ">
<path fill="none" stroke="#63b8ff" d="M572.1,-275.84C590.42,-267.5 617.9,-255 638.96,-245.41"/>
<polygon fill="#63b8ff" stroke="#63b8ff" points="640.28,-248.66 647.93,-241.33 637.38,-242.29 640.28,-248.66"/>
</a>
</g>
</g>
</g>
</svg>
