<?xml version="1.0" encoding="UTF-8" standalone="no"?>
<!DOCTYPE svg PUBLIC "-//W3C//DTD SVG 1.1//EN"
 "http://www.w3.org/Graphics/SVG/1.1/DTD/svg11.dtd">
<!-- Generated by graphviz version 14.1.1 (20251213.1925)
 -->
<!-- Title: /Users/ghostface/CLionProjects/Ctorch_2.13/CTorch/src/dev/Tensor.cpp Pages: 1 -->
<svg width="1318pt" height="381pt"
 viewBox="0.00 0.00 1318.00 381.00" xmlns="http://www.w3.org/2000/svg" xmlns:xlink="http://www.w3.org/1999/xlink">
<g id="graph0" class="graph" transform="scale(1 1) rotate(0) translate(4 377.25)">
<title>/Users/ghostface/CLionProjects/Ctorch_2.13/CTorch/src/dev/Tensor.cpp</title>
<!-- Node1 -->
<g id="Node000001" class="node">
<title>Node1</title>
<g id="a_Node000001"><a xlink:title="张量类的实现">
<polygon fill="#999999" stroke="#666666" points="887.38,-373.25 731.88,-373.25 731.88,-331.5 887.38,-331.5 887.38,-373.25"/>
<text xml:space="preserve" text-anchor="start" x="739.88" y="-359.75" font-family="Helvetica,sans-Serif" font-size="10.00">/Users/ghostface/CLionProjects</text>
<text xml:space="preserve" text-anchor="start" x="739.88" y="-348.5" font-family="Helvetica,sans-Serif" font-size="10.00">/Ctorch_2.13/CTorch/src/dev</text>
<text xml:space="preserve" text-anchor="middle" x="809.62" y="-337.25" font-family="Helvetica,sans-Serif" font-size="10.00">/Tensor.cpp</text>
</a>
</g>
</g>
<!-- Node2 -->
<g id="Node000002" class="node">
<title>Node2</title>
<g id="a_Node000002"><a xlink:href="_tensor_8h.html" target="_top" xlink:title="张量类和相关操作的定义">
<polygon fill="white" stroke="#666666" points="746,-240.25 693.25,-240.25 693.25,-221 746,-221 746,-240.25"/>
<text xml:space="preserve" text-anchor="middle" x="719.62" y="-226.75" font-family="Helvetica,sans-Serif" font-size="10.00">Tensor.h</text>
</a>
</g>
</g>
<!-- Node1&#45;&gt;Node2 -->
<g id="edge1_Node000001_Node000002" class="edge">
<title>Node1&#45;&gt;Node2</title>
<g id="a_edge1_Node000001_Node000002"><a xlink:title=" ">
<path fill="none" stroke="#63b8ff" d="M731.72,-337.68C708.13,-329.49 684.75,-316.4 670.62,-295.5 659.07,-278.4 677.15,-259.78 694.52,-247.08"/>
<polygon fill="#63b8ff" stroke="#63b8ff" points="696.36,-250.05 702.65,-241.53 692.42,-244.27 696.36,-250.05"/>
</a>
</g>
</g>
<!-- Node32 -->
<g id="Node000032" class="node">
<title>Node32</title>
<g id="a_Node000032"><a xlink:title=" ">
<polygon fill="#e0e0e0" stroke="#999999" points="854.75,-240.25 764.5,-240.25 764.5,-221 854.75,-221 854.75,-240.25"/>
<text xml:space="preserve" text-anchor="middle" x="809.62" y="-226.75" font-family="Helvetica,sans-Serif" font-size="10.00">kernels/kernels.h</text>
</a>
</g>
</g>
<!-- Node1&#45;&gt;Node32 -->
<g id="edge58_Node000001_Node000032" class="edge">
<title>Node1&#45;&gt;Node32</title>
<g id="a_edge58_Node000001_Node000032"><a xlink:title=" ">
<path fill="none" stroke="#63b8ff" d="M809.62,-331.06C809.62,-308.97 809.62,-273.88 809.62,-251.83"/>
<polygon fill="#63b8ff" stroke="#63b8ff" points="813.13,-252.07 809.63,-242.07 806.13,-252.07 813.13,-252.07"/>
</a>
</g>
</g>
<!-- Node33 -->
<g id="Node000033" class="node">
<title>Node33</title>
<g id="a_Node000033"><a xlink:href="_ctorch___scheduler_8h.html" target="_top" xlink:title="Ctorch 框架的核心调度器类">
<polygon fill="white" stroke="#666666" points="781.38,-295.5 679.88,-295.5 679.88,-276.25 781.38,-276.25 781.38,-295.5"/>
<text xml:space="preserve" text-anchor="middle" x="730.62" y="-282" font-family="Helvetica,sans-Serif" font-size="10.00">Ctorch_Scheduler.h</text>
</a>
</g>
</g>
<!-- Node1&#45;&gt;Node33 -->
<g id="edge59_Node000001_Node000033" class="edge">
<title>Node1&#45;&gt;Node33</title>
<g id="a_edge59_Node000001_Node000033"><a xlink:title=" ">
<path fill="none" stroke="#63b8ff" d="M785.06,-331.32C773.96,-322.26 761.02,-311.69 750.54,-303.14"/>
<polygon fill="#63b8ff" stroke="#63b8ff" points="752.87,-300.52 742.91,-296.9 748.44,-305.94 752.87,-300.52"/>
</a>
</g>
</g>
<!-- Node34 -->
<g id="Node000034" class="node">
<title>Node34</title>
<g id="a_Node000034"><a xlink:title=" ">
<polygon fill="#e0e0e0" stroke="#999999" points="885.75,-295.5 837.5,-295.5 837.5,-276.25 885.75,-276.25 885.75,-295.5"/>
<text xml:space="preserve" text-anchor="middle" x="861.62" y="-282" font-family="Helvetica,sans-Serif" font-size="10.00">random</text>
</a>
</g>
</g>
<!-- Node1&#45;&gt;Node34 -->
<g id="edge63_Node000001_Node000034" class="edge">
<title>Node1&#45;&gt;Node34</title>
<g id="a_edge63_Node000001_Node000034"><a xlink:title=" ">
<path fill="none" stroke="#63b8ff" d="M825.79,-331.32C832.65,-322.81 840.58,-312.98 847.23,-304.73"/>
<polygon fill="#63b8ff" stroke="#63b8ff" points="849.81,-307.11 853.36,-297.12 844.36,-302.71 849.81,-307.11"/>
</a>
</g>
</g>
<!-- Node35 -->
<g id="Node000035" class="node">
<title>Node35</title>
<g id="a_Node000035"><a xlink:title=" ">
<polygon fill="#e0e0e0" stroke="#999999" points="947.12,-295.5 904.12,-295.5 904.12,-276.25 947.12,-276.25 947.12,-295.5"/>
<text xml:space="preserve" text-anchor="middle" x="925.62" y="-282" font-family="Helvetica,sans-Serif" font-size="10.00">cmath</text>
</a>
</g>
</g>
<!-- Node1&#45;&gt;Node35 -->
<g id="edge64_Node000001_Node000035" class="edge">
<title>Node1&#45;&gt;Node35</title>
<g id="a_edge64_Node000001_Node000035"><a xlink:title=" ">
<path fill="none" stroke="#63b8ff" d="M846.01,-331.14C863.45,-321.45 883.94,-310.06 899.76,-301.26"/>
<polygon fill="#63b8ff" stroke="#63b8ff" points="901.04,-304.55 908.08,-296.63 897.64,-298.43 901.04,-304.55"/>
</a>
</g>
</g>
<!-- Node3 -->
<g id="Node000003" class="node">
<title>Node3</title>
<g id="a_Node000003"><a xlink:title=" ">
<polygon fill="#e0e0e0" stroke="#999999" points="333.5,-185 277.75,-185 277.75,-165.75 333.5,-165.75 333.5,-185"/>
<text xml:space="preserve" text-anchor="middle" x="305.62" y="-171.5" font-family="Helvetica,sans-Serif" font-size="10.00">algorithm</text>
</a>
</g>
</g>
<!-- Node2&#45;&gt;Node3 -->
<g id="edge2_Node000002_Node000003" class="edge">
<title>Node2&#45;&gt;Node3</title>
<g id="a_edge2_Node000002_Node000003"><a xlink:title=" ">
<path fill="none" stroke="#63b8ff" d="M692.9,-227.19C631.63,-221.44 476.36,-205.9 347.62,-185 346.63,-184.84 345.62,-184.67 344.6,-184.49"/>
<polygon fill="#63b8ff" stroke="#63b8ff" points="345.54,-181.11 335.07,-182.73 344.26,-187.99 345.54,-181.11"/>
</a>
</g>
</g>
<!-- Node4 -->
<g id="Node000004" class="node">
<title>Node4</title>
<g id="a_Node000004"><a xlink:title=" ">
<polygon fill="#e0e0e0" stroke="#999999" points="660.25,-74.5 615,-74.5 615,-55.25 660.25,-55.25 660.25,-74.5"/>
<text xml:space="preserve" text-anchor="middle" x="637.62" y="-61" font-family="Helvetica,sans-Serif" font-size="10.00">atomic</text>
</a>
</g>
</g>
<!-- Node2&#45;&gt;Node4 -->
<g id="edge3_Node000002_Node000004" class="edge">
<title>Node2&#45;&gt;Node4</title>
<g id="a_edge3_Node000002_Node000004"><a xlink:title=" ">
<path fill="none" stroke="#63b8ff" d="M709.47,-220.69C692.02,-204.59 656.94,-168.72 643.62,-129.75 638.82,-115.68 637.39,-98.91 637.13,-86.09"/>
<polygon fill="#63b8ff" stroke="#63b8ff" points="640.63,-86.35 637.17,-76.34 633.63,-86.33 640.63,-86.35"/>
</a>
</g>
</g>
<!-- Node5 -->
<g id="Node000005" class="node">
<title>Node5</title>
<g id="a_Node000005"><a xlink:title=" ">
<polygon fill="#e0e0e0" stroke="#999999" points="814.75,-185 766.5,-185 766.5,-165.75 814.75,-165.75 814.75,-185"/>
<text xml:space="preserve" text-anchor="middle" x="790.62" y="-171.5" font-family="Helvetica,sans-Serif" font-size="10.00">cstddef</text>
</a>
</g>
</g>
<!-- Node2&#45;&gt;Node5 -->
<g id="edge4_Node000002_Node000005" class="edge">
<title>Node2&#45;&gt;Node5</title>
<g id="a_edge4_Node000002_Node000005"><a xlink:title=" ">
<path fill="none" stroke="#63b8ff" d="M731.67,-220.59C742.03,-212.82 757.23,-201.42 769.59,-192.15"/>
<polygon fill="#63b8ff" stroke="#63b8ff" points="771.65,-194.98 777.55,-186.18 767.45,-189.38 771.65,-194.98"/>
</a>
</g>
</g>
<!-- Node6 -->
<g id="Node000006" class="node">
<title>Node6</title>
<g id="a_Node000006"><a xlink:href="_ctorch___error_8h.html" target="_top" xlink:title="Ctorch 错误处理类">
<polygon fill="white" stroke="#666666" points="328.12,-129.75 249.12,-129.75 249.12,-110.5 328.12,-110.5 328.12,-129.75"/>
<text xml:space="preserve" text-anchor="middle" x="288.62" y="-116.25" font-family="Helvetica,sans-Serif" font-size="10.00">Ctorch_Error.h</text>
</a>
</g>
</g>
<!-- Node2&#45;&gt;Node6 -->
<g id="edge5_Node000002_Node000006" class="edge">
<title>Node2&#45;&gt;Node6</title>
<g id="a_edge5_Node000002_Node000006"><a xlink:title=" ">
<path fill="none" stroke="#63b8ff" d="M693.08,-230.31C634.54,-230.93 490.81,-227.59 380.62,-185 352.16,-174 324.02,-152.48 306.51,-137.47"/>
<polygon fill="#63b8ff" stroke="#63b8ff" points="308.88,-134.9 299.07,-130.92 304.25,-140.16 308.88,-134.9"/>
</a>
</g>
</g>
<!-- Node7 -->
<g id="Node000007" class="node">
<title>Node7</title>
<g id="a_Node000007"><a xlink:title=" ">
<polygon fill="#e0e0e0" stroke="#999999" points="45.25,-19.25 0,-19.25 0,0 45.25,0 45.25,-19.25"/>
<text xml:space="preserve" text-anchor="middle" x="22.62" y="-5.75" font-family="Helvetica,sans-Serif" font-size="10.00">cstring</text>
</a>
</g>
</g>
<!-- Node2&#45;&gt;Node7 -->
<g id="edge43_Node000002_Node000007" class="edge">
<title>Node2&#45;&gt;Node7</title>
<g id="a_edge43_Node000002_Node000007"><a xlink:title=" ">
<path fill="none" stroke="#63b8ff" d="M692.98,-228.74C608.48,-225.68 347.44,-214.04 268.62,-185 170.85,-148.98 76.4,-63.56 39.22,-27.33"/>
<polygon fill="#63b8ff" stroke="#63b8ff" points="42.06,-25.22 32.48,-20.68 37.14,-30.2 42.06,-25.22"/>
</a>
</g>
</g>
<!-- Node11 -->
<g id="Node000011" class="node">
<title>Node11</title>
<g id="a_Node000011"><a xlink:title=" ">
<polygon fill="#e0e0e0" stroke="#999999" points="492.62,-19.25 452.62,-19.25 452.62,0 492.62,0 492.62,-19.25"/>
<text xml:space="preserve" text-anchor="middle" x="472.62" y="-5.75" font-family="Helvetica,sans-Serif" font-size="10.00">string</text>
</a>
</g>
</g>
<!-- Node2&#45;&gt;Node11 -->
<g id="edge45_Node000002_Node000011" class="edge">
<title>Node2&#45;&gt;Node11</title>
<g id="a_edge45_Node000002_Node000011"><a xlink:title=" ">
<path fill="none" stroke="#63b8ff" d="M699,-220.63C681.74,-212.6 656.89,-199.82 637.62,-185 573.88,-135.97 512.49,-61.79 486.12,-28.22"/>
<polygon fill="#63b8ff" stroke="#63b8ff" points="489.2,-26.48 480.29,-20.73 483.67,-30.77 489.2,-26.48"/>
</a>
</g>
</g>
<!-- Node12 -->
<g id="Node000012" class="node">
<title>Node12</title>
<g id="a_Node000012"><a xlink:title=" ">
<polygon fill="#e0e0e0" stroke="#999999" points="562.25,-19.25 511,-19.25 511,0 562.25,0 562.25,-19.25"/>
<text xml:space="preserve" text-anchor="middle" x="536.62" y="-5.75" font-family="Helvetica,sans-Serif" font-size="10.00">sstream</text>
</a>
</g>
</g>
<!-- Node2&#45;&gt;Node12 -->
<g id="edge41_Node000002_Node000012" class="edge">
<title>Node2&#45;&gt;Node12</title>
<g id="a_edge41_Node000002_Node000012"><a xlink:title=" ">
<path fill="none" stroke="#63b8ff" d="M704.51,-220.57C691.47,-212.31 672.58,-199.25 658.62,-185 609.62,-134.95 566.3,-63.41 547.11,-29.65"/>
<polygon fill="#63b8ff" stroke="#63b8ff" points="550.23,-28.07 542.29,-21.05 544.13,-31.49 550.23,-28.07"/>
</a>
</g>
</g>
<!-- Node13 -->
<g id="Node000013" class="node">
<title>Node13</title>
<g id="a_Node000013"><a xlink:title=" ">
<polygon fill="#e0e0e0" stroke="#999999" points="690.5,-19.25 640.75,-19.25 640.75,0 690.5,0 690.5,-19.25"/>
<text xml:space="preserve" text-anchor="middle" x="665.62" y="-5.75" font-family="Helvetica,sans-Serif" font-size="10.00">iomanip</text>
</a>
</g>
</g>
<!-- Node2&#45;&gt;Node13 -->
<g id="edge44_Node000002_Node000013" class="edge">
<title>Node2&#45;&gt;Node13</title>
<g id="a_edge44_Node000002_Node000013"><a xlink:title=" ">
<path fill="none" stroke="#63b8ff" d="M722.86,-220.55C728.14,-206.91 739.85,-181.09 757.62,-165.75 841.06,-93.74 1051.87,-138.49 979.62,-55.25 961.62,-34.51 780.97,-18.99 702.12,-13.16"/>
<polygon fill="#63b8ff" stroke="#63b8ff" points="702.55,-9.68 692.32,-12.44 702.04,-16.66 702.55,-9.68"/>
</a>
</g>
</g>
<!-- Node18 -->
<g id="Node000018" class="node">
<title>Node18</title>
<g id="a_Node000018"><a xlink:href="_ctools_8h.html" target="_top" xlink:title="Ctorch 通用工具类，包含通用枚举类型和辅助函数">
<polygon fill="white" stroke="#666666" points="445,-74.5 392.25,-74.5 392.25,-55.25 445,-55.25 445,-74.5"/>
<text xml:space="preserve" text-anchor="middle" x="418.62" y="-61" font-family="Helvetica,sans-Serif" font-size="10.00">Ctools.h</text>
</a>
</g>
</g>
<!-- Node2&#45;&gt;Node18 -->
<g id="edge49_Node000002_Node000018" class="edge">
<title>Node2&#45;&gt;Node18</title>
<g id="a_edge49_Node000002_Node000018"><a xlink:title=" ">
<path fill="none" stroke="#63b8ff" d="M692.81,-230.44C648.77,-230.51 559.98,-225.14 499.62,-185 462.44,-160.27 437.72,-112.08 426.17,-85.19"/>
<polygon fill="#63b8ff" stroke="#63b8ff" points="429.51,-84.12 422.48,-76.19 423.03,-86.78 429.51,-84.12"/>
</a>
</g>
</g>
<!-- Node19 -->
<g id="Node000019" class="node">
<title>Node19</title>
<g id="a_Node000019"><a xlink:title=" ">
<polygon fill="#e0e0e0" stroke="#999999" points="899.12,-19.25 856.12,-19.25 856.12,0 899.12,0 899.12,-19.25"/>
<text xml:space="preserve" text-anchor="middle" x="877.62" y="-5.75" font-family="Helvetica,sans-Serif" font-size="10.00">vector</text>
</a>
</g>
</g>
<!-- Node2&#45;&gt;Node19 -->
<g id="edge40_Node000002_Node000019" class="edge">
<title>Node2&#45;&gt;Node19</title>
<g id="a_edge40_Node000002_Node000019"><a xlink:title=" ">
<path fill="none" stroke="#63b8ff" d="M746.26,-222.73C749.4,-222.07 752.58,-221.47 755.62,-221 811.77,-212.35 1220.57,-219.61 1265.62,-185 1286.22,-169.18 1280.34,-155.36 1284.62,-129.75 1295.1,-67.09 1223.5,-73.43 1162.62,-55.25 1073.85,-28.73 964.54,-17.23 910.74,-12.9"/>
<polygon fill="#63b8ff" stroke="#63b8ff" points="911.27,-9.43 901.03,-12.15 910.73,-16.41 911.27,-9.43"/>
</a>
</g>
</g>
<!-- Node20 -->
<g id="Node000020" class="node">
<title>Node20</title>
<g id="a_Node000020"><a xlink:title=" ">
<polygon fill="#e0e0e0" stroke="#999999" points="838.25,-19.25 787,-19.25 787,0 838.25,0 838.25,-19.25"/>
<text xml:space="preserve" text-anchor="middle" x="812.62" y="-5.75" font-family="Helvetica,sans-Serif" font-size="10.00">memory</text>
</a>
</g>
</g>
<!-- Node2&#45;&gt;Node20 -->
<g id="edge37_Node000002_Node000020" class="edge">
<title>Node2&#45;&gt;Node20</title>
<g id="a_edge37_Node000002_Node000020"><a xlink:title=" ">
<path fill="none" stroke="#63b8ff" d="M746.27,-222.74C749.41,-222.07 752.58,-221.47 755.62,-221 809.46,-212.63 1207.54,-224.91 1244.62,-185 1372.35,-47.52 1045.98,-63.5 849.61,-19.61"/>
<polygon fill="#63b8ff" stroke="#63b8ff" points="850.62,-16.25 840.09,-17.4 849.03,-23.07 850.62,-16.25"/>
</a>
</g>
</g>
<!-- Node21 -->
<g id="Node000021" class="node">
<title>Node21</title>
<g id="a_Node000021"><a xlink:title=" ">
<polygon fill="#e0e0e0" stroke="#999999" points="1174.38,-19.25 1120.88,-19.25 1120.88,0 1174.38,0 1174.38,-19.25"/>
<text xml:space="preserve" text-anchor="middle" x="1147.62" y="-5.75" font-family="Helvetica,sans-Serif" font-size="10.00">iostream</text>
</a>
</g>
</g>
<!-- Node2&#45;&gt;Node21 -->
<g id="edge36_Node000002_Node000021" class="edge">
<title>Node2&#45;&gt;Node21</title>
<g id="a_edge36_Node000002_Node000021"><a xlink:title=" ">
<path fill="none" stroke="#63b8ff" d="M746.26,-222.72C749.4,-222.06 752.58,-221.47 755.62,-221 814.08,-212.08 1241.54,-223.26 1286.62,-185 1312.25,-163.25 1315.41,-140.17 1299.62,-110.5 1275.73,-65.59 1221.72,-37.65 1184.95,-23.11"/>
<polygon fill="#63b8ff" stroke="#63b8ff" points="1186.62,-20 1176.03,-19.73 1184.14,-26.55 1186.62,-20"/>
</a>
</g>
</g>
<!-- Node22 -->
<g id="Node000022" class="node">
<title>Node22</title>
<g id="a_Node000022"><a xlink:href="_storage_8h.html" target="_top" xlink:title="Ctorch 存储类，用于管理张量数据的底层存储">
<polygon fill="white" stroke="#666666" points="447.62,-185 389.62,-185 389.62,-165.75 447.62,-165.75 447.62,-185"/>
<text xml:space="preserve" text-anchor="middle" x="418.62" y="-171.5" font-family="Helvetica,sans-Serif" font-size="10.00">Storage.h</text>
</a>
</g>
</g>
<!-- Node2&#45;&gt;Node22 -->
<g id="edge32_Node000002_Node000022" class="edge">
<title>Node2&#45;&gt;Node22</title>
<g id="a_edge32_Node000002_Node000022"><a xlink:title=" ">
<path fill="none" stroke="#63b8ff" d="M692.84,-225.23C645.93,-217.49 545.85,-200.73 461.62,-185 460.64,-184.82 459.65,-184.63 458.64,-184.44"/>
<polygon fill="#63b8ff" stroke="#63b8ff" points="459.72,-181.08 449.23,-182.61 458.39,-187.95 459.72,-181.08"/>
</a>
</g>
</g>
<!-- Node23 -->
<g id="Node000023" class="node">
<title>Node23</title>
<g id="a_Node000023"><a xlink:title=" ">
<polygon fill="#e0e0e0" stroke="#999999" points="904.75,-185 832.5,-185 832.5,-165.75 904.75,-165.75 904.75,-185"/>
<text xml:space="preserve" text-anchor="middle" x="868.62" y="-171.5" font-family="Helvetica,sans-Serif" font-size="10.00">initializer_list</text>
</a>
</g>
</g>
<!-- Node2&#45;&gt;Node23 -->
<g id="edge35_Node000002_Node000023" class="edge">
<title>Node2&#45;&gt;Node23</title>
<g id="a_edge35_Node000002_Node000023"><a xlink:title=" ">
<path fill="none" stroke="#63b8ff" d="M744.9,-220.59C768.98,-211.99 805.48,-198.94 832.61,-189.25"/>
<polygon fill="#63b8ff" stroke="#63b8ff" points="833.56,-192.62 841.8,-185.96 831.21,-186.03 833.56,-192.62"/>
</a>
</g>
</g>
<!-- Node24 -->
<g id="Node000024" class="node">
<title>Node24</title>
<g id="a_Node000024"><a xlink:title=" ">
<polygon fill="#e0e0e0" stroke="#999999" points="972.88,-185 922.38,-185 922.38,-165.75 972.88,-165.75 972.88,-185"/>
<text xml:space="preserve" text-anchor="middle" x="947.62" y="-171.5" font-family="Helvetica,sans-Serif" font-size="10.00">numeric</text>
</a>
</g>
</g>
<!-- Node2&#45;&gt;Node24 -->
<g id="edge38_Node000002_Node000024" class="edge">
<title>Node2&#45;&gt;Node24</title>
<g id="a_edge38_Node000002_Node000024"><a xlink:title=" ">
<path fill="none" stroke="#63b8ff" d="M746.35,-223.19C749.48,-222.44 752.62,-221.7 755.62,-221 822.33,-205.41 841.74,-202.16 910.95,-185.6"/>
<polygon fill="#63b8ff" stroke="#63b8ff" points="911.64,-189.03 920.55,-183.29 910.01,-182.23 911.64,-189.03"/>
</a>
</g>
</g>
<!-- Node25 -->
<g id="Node000025" class="node">
<title>Node25</title>
<g id="a_Node000025"><a xlink:title=" ">
<polygon fill="#e0e0e0" stroke="#999999" points="1050,-185 991.25,-185 991.25,-165.75 1050,-165.75 1050,-185"/>
<text xml:space="preserve" text-anchor="middle" x="1020.62" y="-171.5" font-family="Helvetica,sans-Serif" font-size="10.00">stdexcept</text>
</a>
</g>
</g>
<!-- Node2&#45;&gt;Node25 -->
<g id="edge39_Node000002_Node000025" class="edge">
<title>Node2&#45;&gt;Node25</title>
<g id="a_edge39_Node000002_Node000025"><a xlink:title=" ">
<path fill="none" stroke="#63b8ff" d="M746.31,-222.99C749.44,-222.28 752.6,-221.6 755.62,-221 851.87,-201.83 879.76,-203.82 979.64,-185.26"/>
<polygon fill="#63b8ff" stroke="#63b8ff" points="980.19,-188.72 989.36,-183.43 978.89,-181.84 980.19,-188.72"/>
</a>
</g>
</g>
<!-- Node26 -->
<g id="Node000026" class="node">
<title>Node26</title>
<g id="a_Node000026"><a xlink:title=" ">
<polygon fill="#e0e0e0" stroke="#999999" points="1125.62,-185 1067.62,-185 1067.62,-165.75 1125.62,-165.75 1125.62,-185"/>
<text xml:space="preserve" text-anchor="middle" x="1096.62" y="-171.5" font-family="Helvetica,sans-Serif" font-size="10.00">functional</text>
</a>
</g>
</g>
<!-- Node2&#45;&gt;Node26 -->
<g id="edge42_Node000002_Node000026" class="edge">
<title>Node2&#45;&gt;Node26</title>
<g id="a_edge42_Node000002_Node000026"><a xlink:title=" ">
<path fill="none" stroke="#63b8ff" d="M746.29,-222.87C749.42,-222.18 752.59,-221.54 755.62,-221 885.61,-197.79 923.02,-207.49 1056.19,-185.25"/>
<polygon fill="#63b8ff" stroke="#63b8ff" points="1056.47,-188.75 1065.74,-183.62 1055.29,-181.85 1056.47,-188.75"/>
</a>
</g>
</g>
<!-- Node27 -->
<g id="Node000027" class="node">
<title>Node27</title>
<g id="a_Node000027"><a xlink:title=" ">
<polygon fill="#e0e0e0" stroke="#999999" points="970.38,-74.5 892.88,-74.5 892.88,-55.25 970.38,-55.25 970.38,-74.5"/>
<text xml:space="preserve" text-anchor="middle" x="931.62" y="-61" font-family="Helvetica,sans-Serif" font-size="10.00">unordered_set</text>
</a>
</g>
</g>
<!-- Node2&#45;&gt;Node27 -->
<g id="edge46_Node000002_Node000027" class="edge">
<title>Node2&#45;&gt;Node27</title>
<g id="a_edge46_Node000002_Node000027"><a xlink:title=" ">
<path fill="none" stroke="#63b8ff" d="M717.77,-220.89C715.49,-207.7 713.2,-182.46 724.62,-165.75 760.77,-112.88 832.96,-87.05 881.79,-75.13"/>
<polygon fill="#63b8ff" stroke="#63b8ff" points="882.32,-78.6 891.27,-72.93 880.74,-71.78 882.32,-78.6"/>
</a>
</g>
</g>
<!-- Node28 -->
<g id="Node000028" class="node">
<title>Node28</title>
<g id="a_Node000028"><a xlink:title=" ">
<polygon fill="#e0e0e0" stroke="#999999" points="1183.25,-185 1144,-185 1144,-165.75 1183.25,-165.75 1183.25,-185"/>
<text xml:space="preserve" text-anchor="middle" x="1163.62" y="-171.5" font-family="Helvetica,sans-Serif" font-size="10.00">limits</text>
</a>
</g>
</g>
<!-- Node2&#45;&gt;Node28 -->
<g id="edge47_Node000002_Node000028" class="edge">
<title>Node2&#45;&gt;Node28</title>
<g id="a_edge47_Node000002_Node000028"><a xlink:title=" ">
<path fill="none" stroke="#63b8ff" d="M746.28,-222.8C749.41,-222.13 752.58,-221.51 755.62,-221 918.95,-193.82 966.5,-216.26 1132.66,-184.97"/>
<polygon fill="#63b8ff" stroke="#63b8ff" points="1133.14,-188.44 1142.3,-183.12 1131.82,-181.57 1133.14,-188.44"/>
</a>
</g>
</g>
<!-- Node29 -->
<g id="Node000029" class="node">
<title>Node29</title>
<g id="a_Node000029"><a xlink:title=" ">
<polygon fill="#e0e0e0" stroke="#999999" points="1236,-185 1201.25,-185 1201.25,-165.75 1236,-165.75 1236,-185"/>
<text xml:space="preserve" text-anchor="middle" x="1218.62" y="-171.5" font-family="Helvetica,sans-Serif" font-size="10.00">map</text>
</a>
</g>
</g>
<!-- Node2&#45;&gt;Node29 -->
<g id="edge48_Node000002_Node000029" class="edge">
<title>Node2&#45;&gt;Node29</title>
<g id="a_edge48_Node000002_Node000029"><a xlink:title=" ">
<path fill="none" stroke="#63b8ff" d="M746.27,-222.76C749.41,-222.1 752.58,-221.49 755.62,-221 944.39,-190.79 999.59,-222.69 1189.65,-185.15"/>
<polygon fill="#63b8ff" stroke="#63b8ff" points="1190.28,-188.59 1199.39,-183.18 1188.9,-181.73 1190.28,-188.59"/>
</a>
</g>
</g>
<!-- Node30 -->
<g id="Node000030" class="node">
<title>Node30</title>
<g id="a_Node000030"><a xlink:href="_auto_diff_8h.html" target="_top" xlink:title="Ctorch 自动微分系统">
<polygon fill="white" stroke="#666666" points="712.75,-129.75 652.5,-129.75 652.5,-110.5 712.75,-110.5 712.75,-129.75"/>
<text xml:space="preserve" text-anchor="middle" x="682.62" y="-116.25" font-family="Helvetica,sans-Serif" font-size="10.00">AutoDiff.h</text>
</a>
</g>
</g>
<!-- Node2&#45;&gt;Node30 -->
<g id="edge50_Node000002_Node000030" class="edge">
<title>Node2&#45;&gt;Node30</title>
<g id="a_edge50_Node000002_Node000030"><a xlink:title=" ">
<path fill="none" stroke="#63b8ff" d="M710.5,-220.66C702.62,-212.26 691.71,-198.94 686.62,-185 681.54,-171.06 680.67,-154.29 681.01,-141.43"/>
<polygon fill="#63b8ff" stroke="#63b8ff" points="684.49,-141.81 681.54,-131.64 677.5,-141.43 684.49,-141.81"/>
</a>
</g>
</g>
<!-- Node6&#45;&gt;Node7 -->
<g id="edge6_Node000006_Node000007" class="edge">
<title>Node6&#45;&gt;Node7</title>
<g id="a_edge6_Node000006_Node000007"><a xlink:title=" ">
<path fill="none" stroke="#63b8ff" d="M257.09,-110.02C229.46,-101.72 188.38,-88.64 153.62,-74.5 116.55,-59.41 75.27,-38.58 49.14,-24.86"/>
<polygon fill="#63b8ff" stroke="#63b8ff" points="51.07,-21.92 40.59,-20.34 47.79,-28.11 51.07,-21.92"/>
</a>
</g>
</g>
<!-- Node8 -->
<g id="Node000008" class="node">
<title>Node8</title>
<g id="a_Node000008"><a xlink:title=" ">
<polygon fill="#e0e0e0" stroke="#999999" points="228.25,-19.25 183,-19.25 183,0 228.25,0 228.25,-19.25"/>
<text xml:space="preserve" text-anchor="middle" x="205.62" y="-5.75" font-family="Helvetica,sans-Serif" font-size="10.00">chrono</text>
</a>
</g>
</g>
<!-- Node6&#45;&gt;Node8 -->
<g id="edge7_Node000006_Node000008" class="edge">
<title>Node6&#45;&gt;Node8</title>
<g id="a_edge7_Node000006_Node000008"><a xlink:title=" ">
<path fill="none" stroke="#63b8ff" d="M272.39,-110.03C259.54,-102.1 241.91,-89.54 230.62,-74.5 220.77,-61.38 214.28,-43.87 210.39,-30.51"/>
<polygon fill="#63b8ff" stroke="#63b8ff" points="213.84,-29.88 207.91,-21.1 207.08,-31.66 213.84,-29.88"/>
</a>
</g>
</g>
<!-- Node9 -->
<g id="Node000009" class="node">
<title>Node9</title>
<g id="a_Node000009"><a xlink:title=" ">
<polygon fill="#e0e0e0" stroke="#999999" points="291.25,-19.25 246,-19.25 246,0 291.25,0 291.25,-19.25"/>
<text xml:space="preserve" text-anchor="middle" x="268.62" y="-5.75" font-family="Helvetica,sans-Serif" font-size="10.00">cstdint</text>
</a>
</g>
</g>
<!-- Node6&#45;&gt;Node9 -->
<g id="edge8_Node000006_Node000009" class="edge">
<title>Node6&#45;&gt;Node9</title>
<g id="a_edge8_Node000006_Node000009"><a xlink:title=" ">
<path fill="none" stroke="#63b8ff" d="M271.84,-110.07C259.55,-102.41 243.83,-90.17 236.62,-74.5 229.29,-58.54 239.86,-40.69 250.78,-27.92"/>
<polygon fill="#63b8ff" stroke="#63b8ff" points="253.23,-30.43 257.5,-20.73 248.11,-25.65 253.23,-30.43"/>
</a>
</g>
</g>
<!-- Node10 -->
<g id="Node000010" class="node">
<title>Node10</title>
<g id="a_Node000010"><a xlink:title=" ">
<polygon fill="#e0e0e0" stroke="#999999" points="164.62,-19.25 124.62,-19.25 124.62,0 164.62,0 164.62,-19.25"/>
<text xml:space="preserve" text-anchor="middle" x="144.62" y="-5.75" font-family="Helvetica,sans-Serif" font-size="10.00">ctime</text>
</a>
</g>
</g>
<!-- Node6&#45;&gt;Node10 -->
<g id="edge9_Node000006_Node000010" class="edge">
<title>Node6&#45;&gt;Node10</title>
<g id="a_edge9_Node000006_Node000010"><a xlink:title=" ">
<path fill="none" stroke="#63b8ff" d="M272.38,-110.13C257.44,-101.6 234.9,-88.12 216.62,-74.5 196.84,-59.76 175.92,-40.77 161.77,-27.34"/>
<polygon fill="#63b8ff" stroke="#63b8ff" points="164.24,-24.87 154.61,-20.47 159.4,-29.92 164.24,-24.87"/>
</a>
</g>
</g>
<!-- Node6&#45;&gt;Node11 -->
<g id="edge10_Node000006_Node000011" class="edge">
<title>Node6&#45;&gt;Node11</title>
<g id="a_edge10_Node000006_Node000011"><a xlink:title=" ">
<path fill="none" stroke="#63b8ff" d="M295.26,-110.04C305.65,-96.38 327.03,-70.56 350.62,-55.25 365.96,-45.3 410.79,-30.06 441.61,-20.22"/>
<polygon fill="#63b8ff" stroke="#63b8ff" points="442.33,-23.66 450.81,-17.31 440.22,-16.99 442.33,-23.66"/>
</a>
</g>
</g>
<!-- Node6&#45;&gt;Node12 -->
<g id="edge11_Node000006_Node000012" class="edge">
<title>Node6&#45;&gt;Node12</title>
<g id="a_edge11_Node000006_Node000012"><a xlink:title=" ">
<path fill="none" stroke="#63b8ff" d="M300.9,-110.17C322.48,-94.56 366.53,-63.26 383.62,-55.25 404.27,-45.59 461.7,-29.88 500.03,-19.91"/>
<polygon fill="#63b8ff" stroke="#63b8ff" points="500.49,-23.41 509.3,-17.52 498.74,-16.63 500.49,-23.41"/>
</a>
</g>
</g>
<!-- Node6&#45;&gt;Node13 -->
<g id="edge12_Node000006_Node000013" class="edge">
<title>Node6&#45;&gt;Node13</title>
<g id="a_edge12_Node000006_Node000013"><a xlink:title=" ">
<path fill="none" stroke="#63b8ff" d="M328.52,-112.09C369.95,-104.39 436.43,-90.94 492.62,-74.5 542.81,-59.82 599.38,-37.87 633.76,-23.91"/>
<polygon fill="#63b8ff" stroke="#63b8ff" points="634.77,-27.27 642.7,-20.24 632.12,-20.79 634.77,-27.27"/>
</a>
</g>
</g>
<!-- Node14 -->
<g id="Node000014" class="node">
<title>Node14</title>
<g id="a_Node000014"><a xlink:title=" ">
<polygon fill="#e0e0e0" stroke="#999999" points="357.75,-19.25 309.5,-19.25 309.5,0 357.75,0 357.75,-19.25"/>
<text xml:space="preserve" text-anchor="middle" x="333.62" y="-5.75" font-family="Helvetica,sans-Serif" font-size="10.00">stdint.h</text>
</a>
</g>
</g>
<!-- Node6&#45;&gt;Node14 -->
<g id="edge13_Node000006_Node000014" class="edge">
<title>Node6&#45;&gt;Node14</title>
<g id="a_edge13_Node000006_Node000014"><a xlink:title=" ">
<path fill="none" stroke="#63b8ff" d="M283.25,-110.42C276.14,-97.69 265.52,-73.55 274.62,-55.25 280.86,-42.71 292.49,-32.76 303.79,-25.46"/>
<polygon fill="#63b8ff" stroke="#63b8ff" points="305.35,-28.6 312.18,-20.5 301.79,-22.57 305.35,-28.6"/>
</a>
</g>
</g>
<!-- Node15 -->
<g id="Node000015" class="node">
<title>Node15</title>
<g id="a_Node000015"><a xlink:title=" ">
<polygon fill="#e0e0e0" stroke="#999999" points="435,-19.25 376.25,-19.25 376.25,0 435,0 435,-19.25"/>
<text xml:space="preserve" text-anchor="middle" x="405.62" y="-5.75" font-family="Helvetica,sans-Serif" font-size="10.00">inttypes.h</text>
</a>
</g>
</g>
<!-- Node6&#45;&gt;Node15 -->
<g id="edge14_Node000006_Node000015" class="edge">
<title>Node6&#45;&gt;Node15</title>
<g id="a_edge14_Node000006_Node000015"><a xlink:title=" ">
<path fill="none" stroke="#63b8ff" d="M289.83,-110.18C292.08,-96.73 298.06,-71.15 312.62,-55.25 326.71,-39.87 347.23,-29.24 365.42,-22.23"/>
<polygon fill="#63b8ff" stroke="#63b8ff" points="366.41,-25.59 374.65,-18.93 364.05,-19 366.41,-25.59"/>
</a>
</g>
</g>
<!-- Node16 -->
<g id="Node000016" class="node">
<title>Node16</title>
<g id="a_Node000016"><a xlink:title=" ">
<polygon fill="#e0e0e0" stroke="#999999" points="623.12,-19.25 580.12,-19.25 580.12,0 623.12,0 623.12,-19.25"/>
<text xml:space="preserve" text-anchor="middle" x="601.62" y="-5.75" font-family="Helvetica,sans-Serif" font-size="10.00">mutex</text>
</a>
</g>
</g>
<!-- Node6&#45;&gt;Node16 -->
<g id="edge15_Node000006_Node000016" class="edge">
<title>Node6&#45;&gt;Node16</title>
<g id="a_edge15_Node000006_Node000016"><a xlink:title=" ">
<path fill="none" stroke="#63b8ff" d="M328.45,-110.05C362.17,-101.97 411.6,-89.17 453.62,-74.5 496.03,-59.7 543.44,-38.35 572.91,-24.48"/>
<polygon fill="#63b8ff" stroke="#63b8ff" points="574.37,-27.66 581.91,-20.21 571.37,-21.34 574.37,-27.66"/>
</a>
</g>
</g>
<!-- Node17 -->
<g id="Node000017" class="node">
<title>Node17</title>
<g id="a_Node000017"><a xlink:title=" ">
<polygon fill="#e0e0e0" stroke="#999999" points="106.12,-19.25 63.12,-19.25 63.12,0 106.12,0 106.12,-19.25"/>
<text xml:space="preserve" text-anchor="middle" x="84.62" y="-5.75" font-family="Helvetica,sans-Serif" font-size="10.00">thread</text>
</a>
</g>
</g>
<!-- Node6&#45;&gt;Node17 -->
<g id="edge16_Node000006_Node000017" class="edge">
<title>Node6&#45;&gt;Node17</title>
<g id="a_edge16_Node000006_Node000017"><a xlink:title=" ">
<path fill="none" stroke="#63b8ff" d="M266.63,-110.13C246.32,-101.61 215.48,-88.12 189.62,-74.5 160.72,-59.27 128.83,-39.4 107.86,-25.9"/>
<polygon fill="#63b8ff" stroke="#63b8ff" points="109.8,-22.99 99.51,-20.48 105.99,-28.86 109.8,-22.99"/>
</a>
</g>
</g>
<!-- Node6&#45;&gt;Node18 -->
<g id="edge17_Node000006_Node000018" class="edge">
<title>Node6&#45;&gt;Node18</title>
<g id="a_edge17_Node000006_Node000018"><a xlink:title=" ">
<path fill="none" stroke="#63b8ff" d="M310.68,-110.09C331.31,-101.64 362.41,-88.9 385.93,-79.27"/>
<polygon fill="#63b8ff" stroke="#63b8ff" points="387.14,-82.56 395.06,-75.53 384.48,-76.08 387.14,-82.56"/>
</a>
</g>
</g>
<!-- Node18&#45;&gt;Node7 -->
<g id="edge18_Node000018_Node000007" class="edge">
<title>Node18&#45;&gt;Node7</title>
<g id="a_edge18_Node000018_Node000007"><a xlink:title=" ">
<path fill="none" stroke="#63b8ff" d="M391.85,-61.98C332.85,-57.52 187.11,-44.9 56.53,-19.58"/>
<polygon fill="#63b8ff" stroke="#63b8ff" points="57.53,-16.21 47.04,-17.71 56.17,-23.08 57.53,-16.21"/>
</a>
</g>
</g>
<!-- Node18&#45;&gt;Node8 -->
<g id="edge19_Node000018_Node000008" class="edge">
<title>Node18&#45;&gt;Node8</title>
<g id="a_edge19_Node000018_Node000008"><a xlink:title=" ">
<path fill="none" stroke="#63b8ff" d="M392.04,-57.63C358.61,-49.72 299.2,-35.46 239.73,-20.01"/>
<polygon fill="#63b8ff" stroke="#63b8ff" points="240.65,-16.63 230.09,-17.49 238.88,-23.4 240.65,-16.63"/>
</a>
</g>
</g>
<!-- Node18&#45;&gt;Node9 -->
<g id="edge20_Node000018_Node000009" class="edge">
<title>Node18&#45;&gt;Node9</title>
<g id="a_edge20_Node000018_Node000009"><a xlink:title=" ">
<path fill="none" stroke="#63b8ff" d="M393.18,-54.84C368.2,-45.97 329.95,-32.4 302.43,-22.63"/>
<polygon fill="#63b8ff" stroke="#63b8ff" points="303.75,-19.38 293.15,-19.33 301.41,-25.98 303.75,-19.38"/>
</a>
</g>
</g>
<!-- Node18&#45;&gt;Node10 -->
<g id="edge21_Node000018_Node000010" class="edge">
<title>Node18&#45;&gt;Node10</title>
<g id="a_edge21_Node000018_Node000010"><a xlink:title=" ">
<path fill="none" stroke="#63b8ff" d="M391.96,-59.99C348.64,-53.48 260.11,-39.3 175.88,-19.57"/>
<polygon fill="#63b8ff" stroke="#63b8ff" points="176.84,-16.2 166.3,-17.29 175.22,-23.01 176.84,-16.2"/>
</a>
</g>
</g>
<!-- Node18&#45;&gt;Node11 -->
<g id="edge22_Node000018_Node000011" class="edge">
<title>Node18&#45;&gt;Node11</title>
<g id="a_edge22_Node000018_Node000011"><a xlink:title=" ">
<path fill="none" stroke="#63b8ff" d="M427.54,-55.08C435.08,-47.65 446.09,-36.79 455.35,-27.66"/>
<polygon fill="#63b8ff" stroke="#63b8ff" points="457.77,-30.19 462.44,-20.67 452.86,-25.2 457.77,-30.19"/>
</a>
</g>
</g>
<!-- Node18&#45;&gt;Node12 -->
<g id="edge23_Node000018_Node000012" class="edge">
<title>Node18&#45;&gt;Node12</title>
<g id="a_edge23_Node000018_Node000012"><a xlink:title=" ">
<path fill="none" stroke="#63b8ff" d="M438.64,-54.84C457.12,-46.5 484.83,-34 506.07,-24.41"/>
<polygon fill="#63b8ff" stroke="#63b8ff" points="507.45,-27.63 515.13,-20.33 504.58,-21.25 507.45,-27.63"/>
</a>
</g>
</g>
<!-- Node18&#45;&gt;Node13 -->
<g id="edge24_Node000018_Node000013" class="edge">
<title>Node18&#45;&gt;Node13</title>
<g id="a_edge24_Node000018_Node000013"><a xlink:title=" ">
<path fill="none" stroke="#63b8ff" d="M445.41,-58.74C484.04,-51.23 557.89,-36.52 629.44,-19.92"/>
<polygon fill="#63b8ff" stroke="#63b8ff" points="630.02,-23.38 638.96,-17.69 628.42,-16.56 630.02,-23.38"/>
</a>
</g>
</g>
<!-- Node18&#45;&gt;Node14 -->
<g id="edge25_Node000018_Node000014" class="edge">
<title>Node18&#45;&gt;Node14</title>
<g id="a_edge25_Node000018_Node000014"><a xlink:title=" ">
<path fill="none" stroke="#63b8ff" d="M404.21,-54.84C391.51,-46.89 372.75,-35.14 357.77,-25.75"/>
<polygon fill="#63b8ff" stroke="#63b8ff" points="359.73,-22.85 349.4,-20.51 356.01,-28.78 359.73,-22.85"/>
</a>
</g>
</g>
<!-- Node18&#45;&gt;Node15 -->
<g id="edge26_Node000018_Node000015" class="edge">
<title>Node18&#45;&gt;Node15</title>
<g id="a_edge26_Node000018_Node000015"><a xlink:title=" ">
<path fill="none" stroke="#63b8ff" d="M416.48,-55.08C414.85,-48.42 412.55,-38.99 410.48,-30.53"/>
<polygon fill="#63b8ff" stroke="#63b8ff" points="413.95,-29.96 408.18,-21.08 407.15,-31.62 413.95,-29.96"/>
</a>
</g>
</g>
<!-- Node18&#45;&gt;Node16 -->
<g id="edge27_Node000018_Node000016" class="edge">
<title>Node18&#45;&gt;Node16</title>
<g id="a_edge27_Node000018_Node000016"><a xlink:title=" ">
<path fill="none" stroke="#63b8ff" d="M445.23,-56.13C478.06,-46.58 533.85,-30.35 569.16,-20.07"/>
<polygon fill="#63b8ff" stroke="#63b8ff" points="569.78,-23.54 578.4,-17.38 567.82,-16.82 569.78,-23.54"/>
</a>
</g>
</g>
<!-- Node18&#45;&gt;Node17 -->
<g id="edge28_Node000018_Node000017" class="edge">
<title>Node18&#45;&gt;Node17</title>
<g id="a_edge28_Node000018_Node000017"><a xlink:title=" ">
<path fill="none" stroke="#63b8ff" d="M392.08,-61.1C340.9,-55.5 224.85,-41.65 117.57,-19.41"/>
<polygon fill="#63b8ff" stroke="#63b8ff" points="118.54,-16.04 108.04,-17.4 117.1,-22.89 118.54,-16.04"/>
</a>
</g>
</g>
<!-- Node18&#45;&gt;Node19 -->
<g id="edge29_Node000018_Node000019" class="edge">
<title>Node18&#45;&gt;Node19</title>
<g id="a_edge29_Node000018_Node000019"><a xlink:title=" ">
<path fill="none" stroke="#63b8ff" d="M445.47,-62.73C511.8,-59.55 688.74,-48.95 844.6,-19.54"/>
<polygon fill="#63b8ff" stroke="#63b8ff" points="845.13,-23 854.29,-17.67 843.81,-16.13 845.13,-23"/>
</a>
</g>
</g>
<!-- Node18&#45;&gt;Node20 -->
<g id="edge30_Node000018_Node000020" class="edge">
<title>Node18&#45;&gt;Node20</title>
<g id="a_edge30_Node000018_Node000020"><a xlink:title=" ">
<path fill="none" stroke="#63b8ff" d="M445.4,-60.26C514.01,-50.98 696.3,-26.35 775.28,-15.67"/>
<polygon fill="#63b8ff" stroke="#63b8ff" points="775.65,-19.15 785.09,-14.35 774.71,-12.22 775.65,-19.15"/>
</a>
</g>
</g>
<!-- Node18&#45;&gt;Node21 -->
<g id="edge31_Node000018_Node000021" class="edge">
<title>Node18&#45;&gt;Node21</title>
<g id="a_edge31_Node000018_Node000021"><a xlink:title=" ">
<path fill="none" stroke="#63b8ff" d="M445.44,-61.92C556.28,-53.82 979.09,-22.94 1109.25,-13.43"/>
<polygon fill="#63b8ff" stroke="#63b8ff" points="1109.34,-16.93 1119.06,-12.71 1108.83,-9.95 1109.34,-16.93"/>
</a>
</g>
</g>
<!-- Node22&#45;&gt;Node6 -->
<g id="edge34_Node000022_Node000006" class="edge">
<title>Node22&#45;&gt;Node6</title>
<g id="a_edge34_Node000022_Node000006"><a xlink:title=" ">
<path fill="none" stroke="#63b8ff" d="M396.57,-165.34C375.94,-156.89 344.84,-144.15 321.32,-134.52"/>
<polygon fill="#63b8ff" stroke="#63b8ff" points="322.77,-131.33 312.19,-130.78 320.11,-137.81 322.77,-131.33"/>
</a>
</g>
</g>
<!-- Node22&#45;&gt;Node18 -->
<g id="edge33_Node000022_Node000018" class="edge">
<title>Node22&#45;&gt;Node18</title>
<g id="a_edge33_Node000022_Node000018"><a xlink:title=" ">
<path fill="none" stroke="#63b8ff" d="M418.62,-165.5C418.62,-148.25 418.62,-109.83 418.62,-86.06"/>
<polygon fill="#63b8ff" stroke="#63b8ff" points="422.13,-86.39 418.63,-76.39 415.13,-86.39 422.13,-86.39"/>
</a>
</g>
</g>
<!-- Node30&#45;&gt;Node4 -->
<g id="edge56_Node000030_Node000004" class="edge">
<title>Node30&#45;&gt;Node4</title>
<g id="a_edge56_Node000030_Node000004"><a xlink:title=" ">
<path fill="none" stroke="#63b8ff" d="M675.19,-110.33C669.04,-103.05 660.11,-92.48 652.5,-83.48"/>
<polygon fill="#63b8ff" stroke="#63b8ff" points="655.32,-81.39 646.19,-76.02 649.98,-85.91 655.32,-81.39"/>
</a>
</g>
</g>
<!-- Node30&#45;&gt;Node16 -->
<g id="edge55_Node000030_Node000016" class="edge">
<title>Node30&#45;&gt;Node16</title>
<g id="a_edge55_Node000030_Node000016"><a xlink:title=" ">
<path fill="none" stroke="#63b8ff" d="M682.89,-110.04C682.84,-96.84 681.05,-72.11 669.62,-55.25 660.75,-42.15 646.62,-31.97 633.53,-24.66"/>
<polygon fill="#63b8ff" stroke="#63b8ff" points="635.21,-21.59 624.72,-20.11 632,-27.81 635.21,-21.59"/>
</a>
</g>
</g>
<!-- Node30&#45;&gt;Node18 -->
<g id="edge51_Node000030_Node000018" class="edge">
<title>Node30&#45;&gt;Node18</title>
<g id="a_edge51_Node000030_Node000018"><a xlink:title=" ">
<path fill="none" stroke="#63b8ff" d="M652.08,-112.96C603.63,-103.19 509.24,-84.15 456.54,-73.52"/>
<polygon fill="#63b8ff" stroke="#63b8ff" points="457.31,-70.11 446.81,-71.56 455.92,-76.97 457.31,-70.11"/>
</a>
</g>
</g>
<!-- Node30&#45;&gt;Node19 -->
<g id="edge52_Node000030_Node000019" class="edge">
<title>Node30&#45;&gt;Node19</title>
<g id="a_edge52_Node000030_Node000019"><a xlink:title=" ">
<path fill="none" stroke="#63b8ff" d="M713.04,-111.83C749.26,-102.78 807.16,-87 825.62,-74.5 842.99,-62.75 857.52,-43.5 866.77,-29.21"/>
<polygon fill="#63b8ff" stroke="#63b8ff" points="869.72,-31.08 871.98,-20.73 863.76,-27.42 869.72,-31.08"/>
</a>
</g>
</g>
<!-- Node30&#45;&gt;Node20 -->
<g id="edge57_Node000030_Node000020" class="edge">
<title>Node30&#45;&gt;Node20</title>
<g id="a_edge57_Node000030_Node000020"><a xlink:title=" ">
<path fill="none" stroke="#63b8ff" d="M713.21,-112.24C746.3,-104.12 795.93,-89.78 807.62,-74.5 817.04,-62.19 817.69,-44.36 816.32,-30.66"/>
<polygon fill="#63b8ff" stroke="#63b8ff" points="819.82,-30.41 814.92,-21.02 812.9,-31.42 819.82,-30.41"/>
</a>
</g>
</g>
<!-- Node30&#45;&gt;Node27 -->
<g id="edge54_Node000030_Node000027" class="edge">
<title>Node30&#45;&gt;Node27</title>
<g id="a_edge54_Node000030_Node000027"><a xlink:title=" ">
<path fill="none" stroke="#63b8ff" d="M713.16,-112.6C755.17,-103.61 831.32,-87.33 881.69,-76.55"/>
<polygon fill="#63b8ff" stroke="#63b8ff" points="882.12,-80.04 891.17,-74.53 880.66,-73.2 882.12,-80.04"/>
</a>
</g>
</g>
<!-- Node31 -->
<g id="Node000031" class="node">
<title>Node31</title>
<g id="a_Node000031"><a xlink:title=" ">
<polygon fill="#e0e0e0" stroke="#999999" points="799,-74.5 716.25,-74.5 716.25,-55.25 799,-55.25 799,-74.5"/>
<text xml:space="preserve" text-anchor="middle" x="757.62" y="-61" font-family="Helvetica,sans-Serif" font-size="10.00">unordered_map</text>
</a>
</g>
</g>
<!-- Node30&#45;&gt;Node31 -->
<g id="edge53_Node000030_Node000031" class="edge">
<title>Node30&#45;&gt;Node31</title>
<g id="a_edge53_Node000030_Node000031"><a xlink:title=" ">
<path fill="none" stroke="#63b8ff" d="M695.35,-110.09C706.34,-102.29 722.47,-90.84 735.56,-81.54"/>
<polygon fill="#63b8ff" stroke="#63b8ff" points="737.48,-84.47 743.61,-75.83 733.43,-78.76 737.48,-84.47"/>
</a>
</g>
</g>
<!-- Node33&#45;&gt;Node2 -->
<g id="edge61_Node000033_Node000002" class="edge">
<title>Node33&#45;&gt;Node2</title>
<g id="a_edge61_Node000033_Node000002"><a xlink:title=" ">
<path fill="none" stroke="#63b8ff" d="M728.81,-276.08C727.45,-269.49 725.53,-260.21 723.8,-251.82"/>
<polygon fill="#63b8ff" stroke="#63b8ff" points="727.24,-251.18 721.79,-242.09 720.38,-252.59 727.24,-251.18"/>
</a>
</g>
</g>
<!-- Node33&#45;&gt;Node6 -->
<g id="edge60_Node000033_Node000006" class="edge">
<title>Node33&#45;&gt;Node6</title>
<g id="a_edge60_Node000033_Node000006"><a xlink:title=" ">
<path fill="none" stroke="#63b8ff" d="M679.74,-281.68C570.63,-273.65 319.9,-248.54 268.62,-185 258.04,-171.88 265.87,-153.13 274.64,-139.33"/>
<polygon fill="#63b8ff" stroke="#63b8ff" points="277.5,-141.36 280.38,-131.16 271.77,-137.34 277.5,-141.36"/>
</a>
</g>
</g>
<!-- Node33&#45;&gt;Node32 -->
<g id="edge62_Node000033_Node000032" class="edge">
<title>Node33&#45;&gt;Node32</title>
<g id="a_edge62_Node000033_Node000032"><a xlink:title=" ">
<path fill="none" stroke="#63b8ff" d="M744.03,-275.84C755.72,-267.96 772.93,-256.36 786.79,-247.02"/>
<polygon fill="#63b8ff" stroke="#63b8ff" points="788.57,-250.04 794.9,-241.55 784.65,-244.24 788.57,-250.04"/>
</a>
</g>
</g>
</g>
</svg>
