<?xml version="1.0" encoding="UTF-8" standalone="no"?>
<!DOCTYPE svg PUBLIC "-//W3C//DTD SVG 1.1//EN"
 "http://www.w3.org/Graphics/SVG/1.1/DTD/svg11.dtd">
<!-- Generated by graphviz version 14.1.1 (20251213.1925)
 -->
<!-- Title: Tensor.h Pages: 1 -->
<svg width="1309pt" height="248pt"
 viewBox="0.00 0.00 1309.00 248.00" xmlns="http://www.w3.org/2000/svg" xmlns:xlink="http://www.w3.org/1999/xlink">
<g id="graph0" class="graph" transform="scale(1 1) rotate(0) translate(4 244.25)">
<title>Tensor.h</title>
<!-- Node1 -->
<g id="Node000001" class="node">
<title>Node1</title>
<g id="a_Node000001"><a xlink:title="张量类和相关操作的定义">
<polygon fill="#999999" stroke="#666666" points="778.25,-240.25 725.5,-240.25 725.5,-221 778.25,-221 778.25,-240.25"/>
<text xml:space="preserve" text-anchor="middle" x="751.88" y="-226.75" font-family="Helvetica,sans-Serif" font-size="10.00">Tensor.h</text>
</a>
</g>
</g>
<!-- Node2 -->
<g id="Node000002" class="node">
<title>Node2</title>
<g id="a_Node000002"><a xlink:title=" ">
<polygon fill="#e0e0e0" stroke="#999999" points="55.75,-185 0,-185 0,-165.75 55.75,-165.75 55.75,-185"/>
<text xml:space="preserve" text-anchor="middle" x="27.88" y="-171.5" font-family="Helvetica,sans-Serif" font-size="10.00">algorithm</text>
</a>
</g>
</g>
<!-- Node1&#45;&gt;Node2 -->
<g id="edge1_Node000001_Node000002" class="edge">
<title>Node1&#45;&gt;Node2</title>
<g id="a_edge1_Node000001_Node000002"><a xlink:title=" ">
<path fill="none" stroke="#63b8ff" d="M725.18,-229.46C634.35,-228.58 328.79,-222.92 67.3,-185.1"/>
<polygon fill="#63b8ff" stroke="#63b8ff" points="67.96,-181.66 57.56,-183.67 66.95,-188.58 67.96,-181.66"/>
</a>
</g>
</g>
<!-- Node3 -->
<g id="Node000003" class="node">
<title>Node3</title>
<g id="a_Node000003"><a xlink:title=" ">
<polygon fill="#e0e0e0" stroke="#999999" points="122,-185 73.75,-185 73.75,-165.75 122,-165.75 122,-185"/>
<text xml:space="preserve" text-anchor="middle" x="97.88" y="-171.5" font-family="Helvetica,sans-Serif" font-size="10.00">cstddef</text>
</a>
</g>
</g>
<!-- Node1&#45;&gt;Node3 -->
<g id="edge2_Node000001_Node000003" class="edge">
<title>Node1&#45;&gt;Node3</title>
<g id="a_edge2_Node000001_Node000003"><a xlink:title=" ">
<path fill="none" stroke="#63b8ff" d="M725.3,-229.13C639.5,-227.23 362.31,-218.7 135.88,-185 135.05,-184.88 134.21,-184.75 133.37,-184.61"/>
<polygon fill="#63b8ff" stroke="#63b8ff" points="134.27,-181.22 123.79,-182.77 132.95,-188.09 134.27,-181.22"/>
</a>
</g>
</g>
<!-- Node4 -->
<g id="Node000004" class="node">
<title>Node4</title>
<g id="a_Node000004"><a xlink:href="_ctorch___error_8h.html" target="_top" xlink:title="Ctorch 错误处理类">
<polygon fill="white" stroke="#666666" points="578.38,-129.75 499.38,-129.75 499.38,-110.5 578.38,-110.5 578.38,-129.75"/>
<text xml:space="preserve" text-anchor="middle" x="538.88" y="-116.25" font-family="Helvetica,sans-Serif" font-size="10.00">Ctorch_Error.h</text>
</a>
</g>
</g>
<!-- Node1&#45;&gt;Node4 -->
<g id="edge3_Node000001_Node000004" class="edge">
<title>Node1&#45;&gt;Node4</title>
<g id="a_edge3_Node000001_Node000004"><a xlink:title=" ">
<path fill="none" stroke="#63b8ff" d="M725.08,-228.11C689.81,-224.95 627.21,-215.18 583.88,-185 567.71,-173.74 555.41,-154.71 547.79,-140.34"/>
<polygon fill="#63b8ff" stroke="#63b8ff" points="550.94,-138.82 543.36,-131.41 544.67,-141.93 550.94,-138.82"/>
</a>
</g>
</g>
<!-- Node5 -->
<g id="Node000005" class="node">
<title>Node5</title>
<g id="a_Node000005"><a xlink:title=" ">
<polygon fill="#e0e0e0" stroke="#999999" points="390.5,-19.25 345.25,-19.25 345.25,0 390.5,0 390.5,-19.25"/>
<text xml:space="preserve" text-anchor="middle" x="367.88" y="-5.75" font-family="Helvetica,sans-Serif" font-size="10.00">cstring</text>
</a>
</g>
</g>
<!-- Node1&#45;&gt;Node5 -->
<g id="edge41_Node000001_Node000005" class="edge">
<title>Node1&#45;&gt;Node5</title>
<g id="a_edge41_Node000001_Node000005"><a xlink:title=" ">
<path fill="none" stroke="#63b8ff" d="M725.17,-227.2C686.9,-222.9 614.99,-211.74 559.88,-185 480.26,-146.37 409.73,-64.29 381.26,-28.23"/>
<polygon fill="#63b8ff" stroke="#63b8ff" points="384.19,-26.31 375.3,-20.55 378.66,-30.6 384.19,-26.31"/>
</a>
</g>
</g>
<!-- Node9 -->
<g id="Node000009" class="node">
<title>Node9</title>
<g id="a_Node000009"><a xlink:title=" ">
<polygon fill="#e0e0e0" stroke="#999999" points="188.88,-19.25 148.88,-19.25 148.88,0 188.88,0 188.88,-19.25"/>
<text xml:space="preserve" text-anchor="middle" x="168.88" y="-5.75" font-family="Helvetica,sans-Serif" font-size="10.00">string</text>
</a>
</g>
</g>
<!-- Node1&#45;&gt;Node9 -->
<g id="edge43_Node000001_Node000009" class="edge">
<title>Node1&#45;&gt;Node9</title>
<g id="a_edge43_Node000001_Node000009"><a xlink:title=" ">
<path fill="none" stroke="#63b8ff" d="M725.29,-229.39C670.57,-228.14 542.1,-221.22 441.88,-185 336.38,-146.88 229.54,-62.3 187.5,-26.8"/>
<polygon fill="#63b8ff" stroke="#63b8ff" points="189.92,-24.26 180.04,-20.43 185.37,-29.59 189.92,-24.26"/>
</a>
</g>
</g>
<!-- Node10 -->
<g id="Node000010" class="node">
<title>Node10</title>
<g id="a_Node000010"><a xlink:title=" ">
<polygon fill="#e0e0e0" stroke="#999999" points="258.5,-19.25 207.25,-19.25 207.25,0 258.5,0 258.5,-19.25"/>
<text xml:space="preserve" text-anchor="middle" x="232.88" y="-5.75" font-family="Helvetica,sans-Serif" font-size="10.00">sstream</text>
</a>
</g>
</g>
<!-- Node1&#45;&gt;Node10 -->
<g id="edge39_Node000001_Node000010" class="edge">
<title>Node1&#45;&gt;Node10</title>
<g id="a_edge39_Node000001_Node000010"><a xlink:title=" ">
<path fill="none" stroke="#63b8ff" d="M725.35,-229.01C676.03,-227.05 567.6,-218.9 483.88,-185 386.44,-145.55 289.49,-62.72 250.62,-27.29"/>
<polygon fill="#63b8ff" stroke="#63b8ff" points="253.26,-24.96 243.54,-20.75 248.52,-30.1 253.26,-24.96"/>
</a>
</g>
</g>
<!-- Node11 -->
<g id="Node000011" class="node">
<title>Node11</title>
<g id="a_Node000011"><a xlink:title=" ">
<polygon fill="#e0e0e0" stroke="#999999" points="326.75,-19.25 277,-19.25 277,0 326.75,0 326.75,-19.25"/>
<text xml:space="preserve" text-anchor="middle" x="301.88" y="-5.75" font-family="Helvetica,sans-Serif" font-size="10.00">iomanip</text>
</a>
</g>
</g>
<!-- Node1&#45;&gt;Node11 -->
<g id="edge42_Node000001_Node000011" class="edge">
<title>Node1&#45;&gt;Node11</title>
<g id="a_edge42_Node000001_Node000011"><a xlink:title=" ">
<path fill="none" stroke="#63b8ff" d="M725.11,-228.53C680.88,-225.84 590.61,-216.6 521.88,-185 434.52,-144.84 351.15,-63.02 317.5,-27.6"/>
<polygon fill="#63b8ff" stroke="#63b8ff" points="320.47,-25.65 311.08,-20.75 315.37,-30.44 320.47,-25.65"/>
</a>
</g>
</g>
<!-- Node16 -->
<g id="Node000016" class="node">
<title>Node16</title>
<g id="a_Node000016"><a xlink:href="_ctools_8h.html" target="_top" xlink:title="Ctorch 通用工具类，包含通用枚举类型和辅助函数">
<polygon fill="white" stroke="#666666" points="648.25,-74.5 595.5,-74.5 595.5,-55.25 648.25,-55.25 648.25,-74.5"/>
<text xml:space="preserve" text-anchor="middle" x="621.88" y="-61" font-family="Helvetica,sans-Serif" font-size="10.00">Ctools.h</text>
</a>
</g>
</g>
<!-- Node1&#45;&gt;Node16 -->
<g id="edge47_Node000001_Node000016" class="edge">
<title>Node1&#45;&gt;Node16</title>
<g id="a_edge47_Node000001_Node000016"><a xlink:title=" ">
<path fill="none" stroke="#63b8ff" d="M744.89,-220.82C724.25,-194.83 663.33,-118.09 635.74,-83.34"/>
<polygon fill="#63b8ff" stroke="#63b8ff" points="638.8,-81.56 629.84,-75.91 633.32,-85.92 638.8,-81.56"/>
</a>
</g>
</g>
<!-- Node17 -->
<g id="Node000017" class="node">
<title>Node17</title>
<g id="a_Node000017"><a xlink:title=" ">
<polygon fill="#e0e0e0" stroke="#999999" points="1223.38,-19.25 1180.38,-19.25 1180.38,0 1223.38,0 1223.38,-19.25"/>
<text xml:space="preserve" text-anchor="middle" x="1201.88" y="-5.75" font-family="Helvetica,sans-Serif" font-size="10.00">vector</text>
</a>
</g>
</g>
<!-- Node1&#45;&gt;Node17 -->
<g id="edge38_Node000001_Node000017" class="edge">
<title>Node1&#45;&gt;Node17</title>
<g id="a_edge38_Node000001_Node000017"><a xlink:title=" ">
<path fill="none" stroke="#63b8ff" d="M778.58,-229.46C882,-228.57 1252.17,-222.72 1286.88,-185 1331.44,-136.56 1258.42,-60.45 1221.38,-27.15"/>
<polygon fill="#63b8ff" stroke="#63b8ff" points="1223.79,-24.61 1213.97,-20.65 1219.18,-29.88 1223.79,-24.61"/>
</a>
</g>
</g>
<!-- Node18 -->
<g id="Node000018" class="node">
<title>Node18</title>
<g id="a_Node000018"><a xlink:title=" ">
<polygon fill="#e0e0e0" stroke="#999999" points="987.5,-19.25 936.25,-19.25 936.25,0 987.5,0 987.5,-19.25"/>
<text xml:space="preserve" text-anchor="middle" x="961.88" y="-5.75" font-family="Helvetica,sans-Serif" font-size="10.00">memory</text>
</a>
</g>
</g>
<!-- Node1&#45;&gt;Node18 -->
<g id="edge35_Node000001_Node000018" class="edge">
<title>Node1&#45;&gt;Node18</title>
<g id="a_edge35_Node000001_Node000018"><a xlink:title=" ">
<path fill="none" stroke="#63b8ff" d="M778.58,-228.5C862.08,-224.73 1114.16,-211.26 1138.88,-185 1178.44,-142.96 1180.53,-100.65 1144.88,-55.25 1127.1,-32.62 1047.28,-20.01 999.12,-14.35"/>
<polygon fill="#63b8ff" stroke="#63b8ff" points="999.74,-10.89 989.41,-13.25 998.96,-17.85 999.74,-10.89"/>
</a>
</g>
</g>
<!-- Node19 -->
<g id="Node000019" class="node">
<title>Node19</title>
<g id="a_Node000019"><a xlink:title=" ">
<polygon fill="#e0e0e0" stroke="#999999" points="851.62,-19.25 798.12,-19.25 798.12,0 851.62,0 851.62,-19.25"/>
<text xml:space="preserve" text-anchor="middle" x="824.88" y="-5.75" font-family="Helvetica,sans-Serif" font-size="10.00">iostream</text>
</a>
</g>
</g>
<!-- Node1&#45;&gt;Node19 -->
<g id="edge34_Node000001_Node000019" class="edge">
<title>Node1&#45;&gt;Node19</title>
<g id="a_edge34_Node000001_Node000019"><a xlink:title=" ">
<path fill="none" stroke="#63b8ff" d="M754.75,-220.52C762.96,-194.6 787.3,-118.22 808.88,-55.25 811.71,-46.98 814.95,-37.88 817.77,-30.08"/>
<polygon fill="#63b8ff" stroke="#63b8ff" points="820.97,-31.51 821.1,-20.91 814.39,-29.11 820.97,-31.51"/>
</a>
</g>
</g>
<!-- Node20 -->
<g id="Node000020" class="node">
<title>Node20</title>
<g id="a_Node000020"><a xlink:href="_storage_8h.html" target="_top" xlink:title="Ctorch 存储类，用于管理张量数据的底层存储">
<polygon fill="white" stroke="#666666" points="650.88,-185 592.88,-185 592.88,-165.75 650.88,-165.75 650.88,-185"/>
<text xml:space="preserve" text-anchor="middle" x="621.88" y="-171.5" font-family="Helvetica,sans-Serif" font-size="10.00">Storage.h</text>
</a>
</g>
</g>
<!-- Node1&#45;&gt;Node20 -->
<g id="edge30_Node000001_Node000020" class="edge">
<title>Node1&#45;&gt;Node20</title>
<g id="a_edge30_Node000001_Node000020"><a xlink:title=" ">
<path fill="none" stroke="#63b8ff" d="M729.82,-220.59C709.19,-212.14 678.09,-199.4 654.57,-189.77"/>
<polygon fill="#63b8ff" stroke="#63b8ff" points="656.02,-186.58 645.44,-186.03 653.36,-193.06 656.02,-186.58"/>
</a>
</g>
</g>
<!-- Node21 -->
<g id="Node000021" class="node">
<title>Node21</title>
<g id="a_Node000021"><a xlink:title=" ">
<polygon fill="#e0e0e0" stroke="#999999" points="909,-185 836.75,-185 836.75,-165.75 909,-165.75 909,-185"/>
<text xml:space="preserve" text-anchor="middle" x="872.88" y="-171.5" font-family="Helvetica,sans-Serif" font-size="10.00">initializer_list</text>
</a>
</g>
</g>
<!-- Node1&#45;&gt;Node21 -->
<g id="edge33_Node000001_Node000021" class="edge">
<title>Node1&#45;&gt;Node21</title>
<g id="a_edge33_Node000001_Node000021"><a xlink:title=" ">
<path fill="none" stroke="#63b8ff" d="M772.4,-220.59C791.44,-212.22 820.03,-199.63 841.85,-190.03"/>
<polygon fill="#63b8ff" stroke="#63b8ff" points="843.12,-193.29 850.86,-186.06 840.3,-186.89 843.12,-193.29"/>
</a>
</g>
</g>
<!-- Node22 -->
<g id="Node000022" class="node">
<title>Node22</title>
<g id="a_Node000022"><a xlink:title=" ">
<polygon fill="#e0e0e0" stroke="#999999" points="977.12,-185 926.62,-185 926.62,-165.75 977.12,-165.75 977.12,-185"/>
<text xml:space="preserve" text-anchor="middle" x="951.88" y="-171.5" font-family="Helvetica,sans-Serif" font-size="10.00">numeric</text>
</a>
</g>
</g>
<!-- Node1&#45;&gt;Node22 -->
<g id="edge36_Node000001_Node000022" class="edge">
<title>Node1&#45;&gt;Node22</title>
<g id="a_edge36_Node000001_Node000022"><a xlink:title=" ">
<path fill="none" stroke="#63b8ff" d="M778.43,-222.55C813.54,-213.21 875.56,-196.69 915.14,-186.16"/>
<polygon fill="#63b8ff" stroke="#63b8ff" points="915.93,-189.57 924.7,-183.61 914.13,-182.8 915.93,-189.57"/>
</a>
</g>
</g>
<!-- Node23 -->
<g id="Node000023" class="node">
<title>Node23</title>
<g id="a_Node000023"><a xlink:title=" ">
<polygon fill="#e0e0e0" stroke="#999999" points="1054.25,-185 995.5,-185 995.5,-165.75 1054.25,-165.75 1054.25,-185"/>
<text xml:space="preserve" text-anchor="middle" x="1024.88" y="-171.5" font-family="Helvetica,sans-Serif" font-size="10.00">stdexcept</text>
</a>
</g>
</g>
<!-- Node1&#45;&gt;Node23 -->
<g id="edge37_Node000001_Node000023" class="edge">
<title>Node1&#45;&gt;Node23</title>
<g id="a_edge37_Node000001_Node000023"><a xlink:title=" ">
<path fill="none" stroke="#63b8ff" d="M778.6,-224.79C820.24,-217.2 903.39,-201.83 984.21,-185.29"/>
<polygon fill="#63b8ff" stroke="#63b8ff" points="984.51,-188.8 993.6,-183.36 983.1,-181.95 984.51,-188.8"/>
</a>
</g>
</g>
<!-- Node24 -->
<g id="Node000024" class="node">
<title>Node24</title>
<g id="a_Node000024"><a xlink:title=" ">
<polygon fill="#e0e0e0" stroke="#999999" points="1129.88,-185 1071.88,-185 1071.88,-165.75 1129.88,-165.75 1129.88,-185"/>
<text xml:space="preserve" text-anchor="middle" x="1100.88" y="-171.5" font-family="Helvetica,sans-Serif" font-size="10.00">functional</text>
</a>
</g>
</g>
<!-- Node1&#45;&gt;Node24 -->
<g id="edge40_Node000001_Node000024" class="edge">
<title>Node1&#45;&gt;Node24</title>
<g id="a_edge40_Node000001_Node000024"><a xlink:title=" ">
<path fill="none" stroke="#63b8ff" d="M778.62,-226.53C830.79,-220.32 950.02,-205.38 1060.15,-185.38"/>
<polygon fill="#63b8ff" stroke="#63b8ff" points="1060.77,-188.82 1069.98,-183.57 1059.51,-181.94 1060.77,-188.82"/>
</a>
</g>
</g>
<!-- Node25 -->
<g id="Node000025" class="node">
<title>Node25</title>
<g id="a_Node000025"><a xlink:title=" ">
<polygon fill="#e0e0e0" stroke="#999999" points="895.62,-74.5 818.12,-74.5 818.12,-55.25 895.62,-55.25 895.62,-74.5"/>
<text xml:space="preserve" text-anchor="middle" x="856.88" y="-61" font-family="Helvetica,sans-Serif" font-size="10.00">unordered_set</text>
</a>
</g>
</g>
<!-- Node1&#45;&gt;Node25 -->
<g id="edge44_Node000001_Node000025" class="edge">
<title>Node1&#45;&gt;Node25</title>
<g id="a_edge44_Node000001_Node000025"><a xlink:title=" ">
<path fill="none" stroke="#63b8ff" d="M757.52,-220.82C774.04,-195.05 822.55,-119.4 845.1,-84.24"/>
<polygon fill="#63b8ff" stroke="#63b8ff" points="847.93,-86.3 850.38,-76 842.04,-82.53 847.93,-86.3"/>
</a>
</g>
</g>
<!-- Node26 -->
<g id="Node000026" class="node">
<title>Node26</title>
<g id="a_Node000026"><a xlink:title=" ">
<polygon fill="#e0e0e0" stroke="#999999" points="1225.5,-185 1186.25,-185 1186.25,-165.75 1225.5,-165.75 1225.5,-185"/>
<text xml:space="preserve" text-anchor="middle" x="1205.88" y="-171.5" font-family="Helvetica,sans-Serif" font-size="10.00">limits</text>
</a>
</g>
</g>
<!-- Node1&#45;&gt;Node26 -->
<g id="edge45_Node000001_Node000026" class="edge">
<title>Node1&#45;&gt;Node26</title>
<g id="a_edge45_Node000001_Node000026"><a xlink:title=" ">
<path fill="none" stroke="#63b8ff" d="M778.6,-228.11C845.35,-224.05 1024.63,-211.36 1171.88,-185 1172.87,-184.82 1173.88,-184.63 1174.9,-184.43"/>
<polygon fill="#63b8ff" stroke="#63b8ff" points="1175.38,-187.91 1184.37,-182.29 1173.84,-181.08 1175.38,-187.91"/>
</a>
</g>
</g>
<!-- Node27 -->
<g id="Node000027" class="node">
<title>Node27</title>
<g id="a_Node000027"><a xlink:title=" ">
<polygon fill="#e0e0e0" stroke="#999999" points="1278.25,-185 1243.5,-185 1243.5,-165.75 1278.25,-165.75 1278.25,-185"/>
<text xml:space="preserve" text-anchor="middle" x="1260.88" y="-171.5" font-family="Helvetica,sans-Serif" font-size="10.00">map</text>
</a>
</g>
</g>
<!-- Node1&#45;&gt;Node27 -->
<g id="edge46_Node000001_Node000027" class="edge">
<title>Node1&#45;&gt;Node27</title>
<g id="a_edge46_Node000001_Node000027"><a xlink:title=" ">
<path fill="none" stroke="#63b8ff" d="M778.63,-229.28C850.73,-227.92 1055.02,-221.11 1232.04,-185.16"/>
<polygon fill="#63b8ff" stroke="#63b8ff" points="1232.56,-188.62 1241.64,-183.17 1231.14,-181.77 1232.56,-188.62"/>
</a>
</g>
</g>
<!-- Node28 -->
<g id="Node000028" class="node">
<title>Node28</title>
<g id="a_Node000028"><a xlink:href="_auto_diff_8h.html" target="_top" xlink:title="Ctorch 自动微分系统">
<polygon fill="white" stroke="#666666" points="973,-129.75 912.75,-129.75 912.75,-110.5 973,-110.5 973,-129.75"/>
<text xml:space="preserve" text-anchor="middle" x="942.88" y="-116.25" font-family="Helvetica,sans-Serif" font-size="10.00">AutoDiff.h</text>
</a>
</g>
</g>
<!-- Node1&#45;&gt;Node28 -->
<g id="edge48_Node000001_Node000028" class="edge">
<title>Node1&#45;&gt;Node28</title>
<g id="a_edge48_Node000001_Node000028"><a xlink:title=" ">
<path fill="none" stroke="#63b8ff" d="M760.49,-220.7C773.86,-207.27 800.88,-181.73 827.88,-165.75 850.89,-152.12 878.82,-141.17 901.39,-133.53"/>
<polygon fill="#63b8ff" stroke="#63b8ff" points="902.48,-136.86 910.89,-130.41 900.3,-130.2 902.48,-136.86"/>
</a>
</g>
</g>
<!-- Node4&#45;&gt;Node5 -->
<g id="edge4_Node000004_Node000005" class="edge">
<title>Node4&#45;&gt;Node5</title>
<g id="a_edge4_Node000004_Node000005"><a xlink:title=" ">
<path fill="none" stroke="#63b8ff" d="M524.59,-110.06C495.22,-91.43 427.8,-48.65 391.7,-25.75"/>
<polygon fill="#63b8ff" stroke="#63b8ff" points="393.6,-22.8 383.28,-20.4 389.85,-28.71 393.6,-22.8"/>
</a>
</g>
</g>
<!-- Node6 -->
<g id="Node000006" class="node">
<title>Node6</title>
<g id="a_Node000006"><a xlink:title=" ">
<polygon fill="#e0e0e0" stroke="#999999" points="597.5,-19.25 552.25,-19.25 552.25,0 597.5,0 597.5,-19.25"/>
<text xml:space="preserve" text-anchor="middle" x="574.88" y="-5.75" font-family="Helvetica,sans-Serif" font-size="10.00">chrono</text>
</a>
</g>
</g>
<!-- Node4&#45;&gt;Node6 -->
<g id="edge5_Node000004_Node000006" class="edge">
<title>Node4&#45;&gt;Node6</title>
<g id="a_edge5_Node000004_Node000006"><a xlink:title=" ">
<path fill="none" stroke="#63b8ff" d="M540.35,-110.28C542.56,-97.8 547.2,-74.4 553.88,-55.25 556.87,-46.67 560.99,-37.53 564.79,-29.77"/>
<polygon fill="#63b8ff" stroke="#63b8ff" points="567.85,-31.47 569.27,-20.97 561.61,-28.29 567.85,-31.47"/>
</a>
</g>
</g>
<!-- Node7 -->
<g id="Node000007" class="node">
<title>Node7</title>
<g id="a_Node000007"><a xlink:title=" ">
<polygon fill="#e0e0e0" stroke="#999999" points="721.5,-19.25 676.25,-19.25 676.25,0 721.5,0 721.5,-19.25"/>
<text xml:space="preserve" text-anchor="middle" x="698.88" y="-5.75" font-family="Helvetica,sans-Serif" font-size="10.00">cstdint</text>
</a>
</g>
</g>
<!-- Node4&#45;&gt;Node7 -->
<g id="edge6_Node000004_Node000007" class="edge">
<title>Node4&#45;&gt;Node7</title>
<g id="a_edge6_Node000004_Node000007"><a xlink:title=" ">
<path fill="none" stroke="#63b8ff" d="M578.67,-110.73C603.18,-104.04 634.14,-92.71 656.88,-74.5 671.91,-62.45 683.4,-43.53 690.53,-29.4"/>
<polygon fill="#63b8ff" stroke="#63b8ff" points="693.54,-31.22 694.65,-20.69 687.21,-28.23 693.54,-31.22"/>
</a>
</g>
</g>
<!-- Node8 -->
<g id="Node000008" class="node">
<title>Node8</title>
<g id="a_Node000008"><a xlink:title=" ">
<polygon fill="#e0e0e0" stroke="#999999" points="779.88,-19.25 739.88,-19.25 739.88,0 779.88,0 779.88,-19.25"/>
<text xml:space="preserve" text-anchor="middle" x="759.88" y="-5.75" font-family="Helvetica,sans-Serif" font-size="10.00">ctime</text>
</a>
</g>
</g>
<!-- Node4&#45;&gt;Node8 -->
<g id="edge7_Node000004_Node000008" class="edge">
<title>Node4&#45;&gt;Node8</title>
<g id="a_edge7_Node000004_Node000008"><a xlink:title=" ">
<path fill="none" stroke="#63b8ff" d="M578.72,-110.67C607.84,-103.52 647.71,-91.66 679.88,-74.5 703.73,-61.77 727.49,-41.61 742.84,-27.35"/>
<polygon fill="#63b8ff" stroke="#63b8ff" points="744.91,-30.21 749.74,-20.78 740.09,-25.14 744.91,-30.21"/>
</a>
</g>
</g>
<!-- Node4&#45;&gt;Node9 -->
<g id="edge8_Node000004_Node000009" class="edge">
<title>Node4&#45;&gt;Node9</title>
<g id="a_edge8_Node000004_Node000009"><a xlink:title=" ">
<path fill="none" stroke="#63b8ff" d="M499.2,-111.89C458.74,-104.13 394.35,-90.7 339.88,-74.5 290.07,-59.69 233.91,-37.65 199.98,-23.71"/>
<polygon fill="#63b8ff" stroke="#63b8ff" points="201.34,-20.49 190.76,-19.9 198.66,-26.96 201.34,-20.49"/>
</a>
</g>
</g>
<!-- Node4&#45;&gt;Node10 -->
<g id="edge9_Node000004_Node000010" class="edge">
<title>Node4&#45;&gt;Node10</title>
<g id="a_edge9_Node000004_Node000010"><a xlink:title=" ">
<path fill="none" stroke="#63b8ff" d="M506.44,-110.05C476.68,-101.53 431.5,-88.09 392.88,-74.5 347.7,-58.61 296.44,-37.61 264.38,-24.11"/>
<polygon fill="#63b8ff" stroke="#63b8ff" points="265.85,-20.93 255.28,-20.25 263.12,-27.37 265.85,-20.93"/>
</a>
</g>
</g>
<!-- Node4&#45;&gt;Node11 -->
<g id="edge10_Node000004_Node000011" class="edge">
<title>Node4&#45;&gt;Node11</title>
<g id="a_edge10_Node000004_Node000011"><a xlink:title=" ">
<path fill="none" stroke="#63b8ff" d="M518.53,-110.16C498.29,-101.22 466.38,-87.05 438.88,-74.5 401.57,-57.48 358.76,-37.44 331.07,-24.41"/>
<polygon fill="#63b8ff" stroke="#63b8ff" points="332.8,-21.35 322.26,-20.26 329.81,-27.68 332.8,-21.35"/>
</a>
</g>
</g>
<!-- Node12 -->
<g id="Node000012" class="node">
<title>Node12</title>
<g id="a_Node000012"><a xlink:title=" ">
<polygon fill="#e0e0e0" stroke="#999999" points="457,-19.25 408.75,-19.25 408.75,0 457,0 457,-19.25"/>
<text xml:space="preserve" text-anchor="middle" x="432.88" y="-5.75" font-family="Helvetica,sans-Serif" font-size="10.00">stdint.h</text>
</a>
</g>
</g>
<!-- Node4&#45;&gt;Node12 -->
<g id="edge11_Node000004_Node000012" class="edge">
<title>Node4&#45;&gt;Node12</title>
<g id="a_edge11_Node000004_Node000012"><a xlink:title=" ">
<path fill="none" stroke="#63b8ff" d="M530.2,-110.25C512.58,-92.21 472.32,-51 449.48,-27.63"/>
<polygon fill="#63b8ff" stroke="#63b8ff" points="452.22,-25.42 442.73,-20.71 447.21,-30.31 452.22,-25.42"/>
</a>
</g>
</g>
<!-- Node13 -->
<g id="Node000013" class="node">
<title>Node13</title>
<g id="a_Node000013"><a xlink:title=" ">
<polygon fill="#e0e0e0" stroke="#999999" points="534.25,-19.25 475.5,-19.25 475.5,0 534.25,0 534.25,-19.25"/>
<text xml:space="preserve" text-anchor="middle" x="504.88" y="-5.75" font-family="Helvetica,sans-Serif" font-size="10.00">inttypes.h</text>
</a>
</g>
</g>
<!-- Node4&#45;&gt;Node13 -->
<g id="edge12_Node000004_Node000013" class="edge">
<title>Node4&#45;&gt;Node13</title>
<g id="a_edge12_Node000004_Node000013"><a xlink:title=" ">
<path fill="none" stroke="#63b8ff" d="M533.27,-110.25C527.98,-101.5 520.25,-87.56 515.88,-74.5 511.1,-60.26 508.32,-43.5 506.74,-30.72"/>
<polygon fill="#63b8ff" stroke="#63b8ff" points="510.25,-30.59 505.71,-21.02 503.29,-31.33 510.25,-30.59"/>
</a>
</g>
</g>
<!-- Node14 -->
<g id="Node000014" class="node">
<title>Node14</title>
<g id="a_Node000014"><a xlink:title=" ">
<polygon fill="#e0e0e0" stroke="#999999" points="912.38,-19.25 869.38,-19.25 869.38,0 912.38,0 912.38,-19.25"/>
<text xml:space="preserve" text-anchor="middle" x="890.88" y="-5.75" font-family="Helvetica,sans-Serif" font-size="10.00">mutex</text>
</a>
</g>
</g>
<!-- Node4&#45;&gt;Node14 -->
<g id="edge13_Node000004_Node000014" class="edge">
<title>Node4&#45;&gt;Node14</title>
<g id="a_edge13_Node000004_Node000014"><a xlink:title=" ">
<path fill="none" stroke="#63b8ff" d="M576.7,-110.03C611.11,-101.55 663.19,-88.18 707.88,-74.5 761.24,-58.17 822.26,-36.19 858.63,-22.73"/>
<polygon fill="#63b8ff" stroke="#63b8ff" points="859.51,-26.14 867.67,-19.38 857.07,-19.58 859.51,-26.14"/>
</a>
</g>
</g>
<!-- Node15 -->
<g id="Node000015" class="node">
<title>Node15</title>
<g id="a_Node000015"><a xlink:title=" ">
<polygon fill="#e0e0e0" stroke="#999999" points="658.38,-19.25 615.38,-19.25 615.38,0 658.38,0 658.38,-19.25"/>
<text xml:space="preserve" text-anchor="middle" x="636.88" y="-5.75" font-family="Helvetica,sans-Serif" font-size="10.00">thread</text>
</a>
</g>
</g>
<!-- Node4&#45;&gt;Node15 -->
<g id="edge14_Node000004_Node000015" class="edge">
<title>Node4&#45;&gt;Node15</title>
<g id="a_edge14_Node000004_Node000015"><a xlink:title=" ">
<path fill="none" stroke="#63b8ff" d="M544.87,-110.01C553.49,-97.21 570.17,-73.43 586.88,-55.25 596.09,-45.23 607.32,-35.05 616.81,-26.94"/>
<polygon fill="#63b8ff" stroke="#63b8ff" points="618.98,-29.69 624.41,-20.59 614.49,-24.32 618.98,-29.69"/>
</a>
</g>
</g>
<!-- Node4&#45;&gt;Node16 -->
<g id="edge15_Node000004_Node000016" class="edge">
<title>Node4&#45;&gt;Node16</title>
<g id="a_edge15_Node000004_Node000016"><a xlink:title=" ">
<path fill="none" stroke="#63b8ff" d="M552.95,-110.09C565.36,-102.14 583.67,-90.39 598.3,-81"/>
<polygon fill="#63b8ff" stroke="#63b8ff" points="599.93,-84.12 606.45,-75.77 596.15,-78.22 599.93,-84.12"/>
</a>
</g>
</g>
<!-- Node16&#45;&gt;Node5 -->
<g id="edge16_Node000016_Node000005" class="edge">
<title>Node16&#45;&gt;Node5</title>
<g id="a_edge16_Node000016_Node000005"><a xlink:title=" ">
<path fill="none" stroke="#63b8ff" d="M595.1,-59.07C555.22,-51.8 477.63,-37.17 402.04,-19.63"/>
<polygon fill="#63b8ff" stroke="#63b8ff" points="402.91,-16.24 392.38,-17.37 401.31,-23.06 402.91,-16.24"/>
</a>
</g>
</g>
<!-- Node16&#45;&gt;Node6 -->
<g id="edge17_Node000016_Node000006" class="edge">
<title>Node16&#45;&gt;Node6</title>
<g id="a_edge17_Node000016_Node000006"><a xlink:title=" ">
<path fill="none" stroke="#63b8ff" d="M614.11,-55.08C607.69,-47.8 598.36,-37.23 590.41,-28.23"/>
<polygon fill="#63b8ff" stroke="#63b8ff" points="593.05,-25.93 583.81,-20.74 587.8,-30.56 593.05,-25.93"/>
</a>
</g>
</g>
<!-- Node16&#45;&gt;Node7 -->
<g id="edge18_Node000016_Node000007" class="edge">
<title>Node16&#45;&gt;Node7</title>
<g id="a_edge18_Node000016_Node000007"><a xlink:title=" ">
<path fill="none" stroke="#63b8ff" d="M634.94,-54.84C646.33,-46.96 663.1,-35.36 676.61,-26.02"/>
<polygon fill="#63b8ff" stroke="#63b8ff" points="678.27,-29.13 684.5,-20.56 674.29,-23.37 678.27,-29.13"/>
</a>
</g>
</g>
<!-- Node16&#45;&gt;Node8 -->
<g id="edge19_Node000016_Node000008" class="edge">
<title>Node16&#45;&gt;Node8</title>
<g id="a_edge19_Node000016_Node000008"><a xlink:title=" ">
<path fill="none" stroke="#63b8ff" d="M645.28,-54.84C668.33,-45.95 703.65,-32.32 728.98,-22.54"/>
<polygon fill="#63b8ff" stroke="#63b8ff" points="730.02,-25.9 738.09,-19.03 727.5,-19.37 730.02,-25.9"/>
</a>
</g>
</g>
<!-- Node16&#45;&gt;Node9 -->
<g id="edge20_Node000016_Node000009" class="edge">
<title>Node16&#45;&gt;Node9</title>
<g id="a_edge20_Node000016_Node000009"><a xlink:title=" ">
<path fill="none" stroke="#63b8ff" d="M595.32,-62.78C529.74,-59.72 354.78,-49.37 200.43,-19.41"/>
<polygon fill="#63b8ff" stroke="#63b8ff" points="201.33,-16.02 190.84,-17.52 199.97,-22.89 201.33,-16.02"/>
</a>
</g>
</g>
<!-- Node16&#45;&gt;Node10 -->
<g id="edge21_Node000016_Node000010" class="edge">
<title>Node16&#45;&gt;Node10</title>
<g id="a_edge21_Node000016_Node000010"><a xlink:title=" ">
<path fill="none" stroke="#63b8ff" d="M595.07,-61.57C537.44,-56.38 397.31,-42.56 269.9,-19.42"/>
<polygon fill="#63b8ff" stroke="#63b8ff" points="270.75,-16.01 260.28,-17.64 269.48,-22.9 270.75,-16.01"/>
</a>
</g>
</g>
<!-- Node16&#45;&gt;Node11 -->
<g id="edge22_Node000016_Node000011" class="edge">
<title>Node16&#45;&gt;Node11</title>
<g id="a_edge22_Node000016_Node000011"><a xlink:title=" ">
<path fill="none" stroke="#63b8ff" d="M595.31,-60.58C546.44,-54.33 438.81,-39.73 338.33,-19.58"/>
<polygon fill="#63b8ff" stroke="#63b8ff" points="339.05,-16.16 328.55,-17.6 337.65,-23.02 339.05,-16.16"/>
</a>
</g>
</g>
<!-- Node16&#45;&gt;Node12 -->
<g id="edge23_Node000016_Node000012" class="edge">
<title>Node16&#45;&gt;Node12</title>
<g id="a_edge23_Node000016_Node000012"><a xlink:title=" ">
<path fill="none" stroke="#63b8ff" d="M595.2,-56.36C561.91,-46.98 504.89,-30.91 468.05,-20.54"/>
<polygon fill="#63b8ff" stroke="#63b8ff" points="469.35,-17.27 458.77,-17.92 467.45,-24 469.35,-17.27"/>
</a>
</g>
</g>
<!-- Node16&#45;&gt;Node13 -->
<g id="edge24_Node000016_Node000013" class="edge">
<title>Node16&#45;&gt;Node13</title>
<g id="a_edge24_Node000016_Node000013"><a xlink:title=" ">
<path fill="none" stroke="#63b8ff" d="M602.03,-54.84C583.71,-46.5 556.23,-34 535.17,-24.41"/>
<polygon fill="#63b8ff" stroke="#63b8ff" points="536.75,-21.29 526.2,-20.33 533.85,-27.66 536.75,-21.29"/>
</a>
</g>
</g>
<!-- Node16&#45;&gt;Node14 -->
<g id="edge25_Node000016_Node000014" class="edge">
<title>Node16&#45;&gt;Node14</title>
<g id="a_edge25_Node000016_Node000014"><a xlink:title=" ">
<path fill="none" stroke="#63b8ff" d="M648.57,-59.74C691.02,-52.99 776.69,-38.63 858.05,-19.75"/>
<polygon fill="#63b8ff" stroke="#63b8ff" points="858.58,-23.22 867.51,-17.53 856.97,-16.41 858.58,-23.22"/>
</a>
</g>
</g>
<!-- Node16&#45;&gt;Node15 -->
<g id="edge26_Node000016_Node000015" class="edge">
<title>Node16&#45;&gt;Node15</title>
<g id="a_edge26_Node000016_Node000015"><a xlink:title=" ">
<path fill="none" stroke="#63b8ff" d="M624.35,-55.08C626.23,-48.42 628.88,-38.99 631.27,-30.53"/>
<polygon fill="#63b8ff" stroke="#63b8ff" points="634.59,-31.64 633.93,-21.07 627.85,-29.74 634.59,-31.64"/>
</a>
</g>
</g>
<!-- Node16&#45;&gt;Node17 -->
<g id="edge27_Node000016_Node000017" class="edge">
<title>Node16&#45;&gt;Node17</title>
<g id="a_edge27_Node000016_Node000017"><a xlink:title=" ">
<path fill="none" stroke="#63b8ff" d="M648.69,-61.41C743.73,-52.69 1064.44,-23.24 1168.78,-13.66"/>
<polygon fill="#63b8ff" stroke="#63b8ff" points="1168.98,-17.16 1178.62,-12.76 1168.34,-10.19 1168.98,-17.16"/>
</a>
</g>
</g>
<!-- Node16&#45;&gt;Node18 -->
<g id="edge28_Node000016_Node000018" class="edge">
<title>Node16&#45;&gt;Node18</title>
<g id="a_edge28_Node000016_Node000018"><a xlink:title=" ">
<path fill="none" stroke="#63b8ff" d="M648.46,-60.51C700.91,-53.74 821.37,-37.54 921.88,-19.25 922.88,-19.07 923.91,-18.88 924.94,-18.68"/>
<polygon fill="#63b8ff" stroke="#63b8ff" points="925.5,-22.14 934.62,-16.74 924.13,-15.27 925.5,-22.14"/>
</a>
</g>
</g>
<!-- Node16&#45;&gt;Node19 -->
<g id="edge29_Node000016_Node000019" class="edge">
<title>Node16&#45;&gt;Node19</title>
<g id="a_edge29_Node000016_Node000019"><a xlink:title=" ">
<path fill="none" stroke="#63b8ff" d="M648.41,-56.91C683.7,-47.66 746.31,-31.23 786.68,-20.65"/>
<polygon fill="#63b8ff" stroke="#63b8ff" points="787.43,-24.07 796.22,-18.14 785.66,-17.29 787.43,-24.07"/>
</a>
</g>
</g>
<!-- Node20&#45;&gt;Node4 -->
<g id="edge32_Node000020_Node000004" class="edge">
<title>Node20&#45;&gt;Node4</title>
<g id="a_edge32_Node000020_Node000004"><a xlink:title=" ">
<path fill="none" stroke="#63b8ff" d="M607.8,-165.34C595.39,-157.39 577.08,-145.64 562.45,-136.25"/>
<polygon fill="#63b8ff" stroke="#63b8ff" points="564.6,-133.47 554.3,-131.02 560.82,-139.37 564.6,-133.47"/>
</a>
</g>
</g>
<!-- Node20&#45;&gt;Node16 -->
<g id="edge31_Node000020_Node000016" class="edge">
<title>Node20&#45;&gt;Node16</title>
<g id="a_edge31_Node000020_Node000016"><a xlink:title=" ">
<path fill="none" stroke="#63b8ff" d="M621.88,-165.5C621.88,-148.25 621.88,-109.83 621.88,-86.06"/>
<polygon fill="#63b8ff" stroke="#63b8ff" points="625.38,-86.39 621.88,-76.39 618.38,-86.39 625.38,-86.39"/>
</a>
</g>
</g>
<!-- Node28&#45;&gt;Node14 -->
<g id="edge53_Node000028_Node000014" class="edge">
<title>Node28&#45;&gt;Node14</title>
<g id="a_edge53_Node000028_Node000014"><a xlink:title=" ">
<path fill="none" stroke="#63b8ff" d="M938.62,-110.25C930.24,-92.76 911.43,-53.52 900.08,-29.84"/>
<polygon fill="#63b8ff" stroke="#63b8ff" points="903.32,-28.5 895.84,-20.99 897.01,-31.52 903.32,-28.5"/>
</a>
</g>
</g>
<!-- Node28&#45;&gt;Node16 -->
<g id="edge49_Node000028_Node000016" class="edge">
<title>Node28&#45;&gt;Node16</title>
<g id="a_edge49_Node000028_Node000016"><a xlink:title=" ">
<path fill="none" stroke="#63b8ff" d="M912.39,-114.07C853.46,-104.29 724.06,-82.83 659.73,-72.16"/>
<polygon fill="#63b8ff" stroke="#63b8ff" points="660.44,-68.73 650,-70.54 659.3,-75.63 660.44,-68.73"/>
</a>
</g>
</g>
<!-- Node28&#45;&gt;Node17 -->
<g id="edge50_Node000028_Node000017" class="edge">
<title>Node28&#45;&gt;Node17</title>
<g id="a_edge50_Node000028_Node000017"><a xlink:title=" ">
<path fill="none" stroke="#63b8ff" d="M973.39,-118.16C1014.88,-115.61 1090.18,-106.54 1144.88,-74.5 1163.86,-63.38 1179.95,-43.75 1190.15,-29.18"/>
<polygon fill="#63b8ff" stroke="#63b8ff" points="1193.02,-31.19 1195.65,-20.92 1187.19,-27.31 1193.02,-31.19"/>
</a>
</g>
</g>
<!-- Node28&#45;&gt;Node18 -->
<g id="edge55_Node000028_Node000018" class="edge">
<title>Node28&#45;&gt;Node18</title>
<g id="a_edge55_Node000028_Node000018"><a xlink:title=" ">
<path fill="none" stroke="#63b8ff" d="M944.43,-110.25C947.45,-93 954.18,-54.58 958.34,-30.81"/>
<polygon fill="#63b8ff" stroke="#63b8ff" points="961.76,-31.57 960.04,-21.12 954.87,-30.36 961.76,-31.57"/>
</a>
</g>
</g>
<!-- Node28&#45;&gt;Node25 -->
<g id="edge52_Node000028_Node000025" class="edge">
<title>Node28&#45;&gt;Node25</title>
<g id="a_edge52_Node000028_Node000025"><a xlink:title=" ">
<path fill="none" stroke="#63b8ff" d="M928.29,-110.09C915.44,-102.14 896.46,-90.39 881.3,-81"/>
<polygon fill="#63b8ff" stroke="#63b8ff" points="883.17,-78.04 872.82,-75.75 879.48,-83.99 883.17,-78.04"/>
</a>
</g>
</g>
<!-- Node29 -->
<g id="Node000029" class="node">
<title>Node29</title>
<g id="a_Node000029"><a xlink:title=" ">
<polygon fill="#e0e0e0" stroke="#999999" points="1072.25,-74.5 989.5,-74.5 989.5,-55.25 1072.25,-55.25 1072.25,-74.5"/>
<text xml:space="preserve" text-anchor="middle" x="1030.88" y="-61" font-family="Helvetica,sans-Serif" font-size="10.00">unordered_map</text>
</a>
</g>
</g>
<!-- Node28&#45;&gt;Node29 -->
<g id="edge51_Node000028_Node000029" class="edge">
<title>Node28&#45;&gt;Node29</title>
<g id="a_edge51_Node000028_Node000029"><a xlink:title=" ">
<path fill="none" stroke="#63b8ff" d="M957.8,-110.09C971.08,-102.06 990.74,-90.16 1006.33,-80.73"/>
<polygon fill="#63b8ff" stroke="#63b8ff" points="1007.84,-83.91 1014.58,-75.74 1004.21,-77.92 1007.84,-83.91"/>
</a>
</g>
</g>
<!-- Node30 -->
<g id="Node000030" class="node">
<title>Node30</title>
<g id="a_Node000030"><a xlink:title=" ">
<polygon fill="#e0e0e0" stroke="#999999" points="1135.5,-74.5 1090.25,-74.5 1090.25,-55.25 1135.5,-55.25 1135.5,-74.5"/>
<text xml:space="preserve" text-anchor="middle" x="1112.88" y="-61" font-family="Helvetica,sans-Serif" font-size="10.00">atomic</text>
</a>
</g>
</g>
<!-- Node28&#45;&gt;Node30 -->
<g id="edge54_Node000028_Node000030" class="edge">
<title>Node28&#45;&gt;Node30</title>
<g id="a_edge54_Node000028_Node000030"><a xlink:title=" ">
<path fill="none" stroke="#63b8ff" d="M971.71,-110.09C1001.41,-100.79 1047.66,-86.3 1079.07,-76.47"/>
<polygon fill="#63b8ff" stroke="#63b8ff" points="1079.96,-79.85 1088.46,-73.52 1077.87,-73.17 1079.96,-79.85"/>
</a>
</g>
</g>
</g>
</svg>
