<?xml version="1.0" encoding="UTF-8" standalone="no"?>
<!DOCTYPE svg PUBLIC "-//W3C//DTD SVG 1.1//EN"
 "http://www.w3.org/Graphics/SVG/1.1/DTD/svg11.dtd">
<!-- Generated by graphviz version 14.1.1 (20251213.1925)
 -->
<!-- Title: /Users/ghostface/CLionProjects/Ctorch_2.13/CTorch/src/dev/Tensor.h Pages: 1 -->
<svg width="1317pt" height="271pt"
 viewBox="0.00 0.00 1317.00 271.00" xmlns="http://www.w3.org/2000/svg" xmlns:xlink="http://www.w3.org/1999/xlink">
<g id="graph0" class="graph" transform="scale(1 1) rotate(0) translate(4 266.75)">
<title>/Users/ghostface/CLionProjects/Ctorch_2.13/CTorch/src/dev/Tensor.h</title>
<!-- Node1 -->
<g id="Node000001" class="node">
<title>Node1</title>
<g id="a_Node000001"><a xlink:title="张量类和相关操作的定义">
<polygon fill="#999999" stroke="#666666" points="816.62,-262.75 661.12,-262.75 661.12,-221 816.62,-221 816.62,-262.75"/>
<text xml:space="preserve" text-anchor="start" x="669.12" y="-249.25" font-family="Helvetica,sans-Serif" font-size="10.00">/Users/ghostface/CLionProjects</text>
<text xml:space="preserve" text-anchor="start" x="669.12" y="-238" font-family="Helvetica,sans-Serif" font-size="10.00">/Ctorch_2.13/CTorch/src/dev</text>
<text xml:space="preserve" text-anchor="middle" x="738.88" y="-226.75" font-family="Helvetica,sans-Serif" font-size="10.00">/Tensor.h</text>
</a>
</g>
</g>
<!-- Node2 -->
<g id="Node000002" class="node">
<title>Node2</title>
<g id="a_Node000002"><a xlink:title=" ">
<polygon fill="#e0e0e0" stroke="#999999" points="55.75,-185 0,-185 0,-165.75 55.75,-165.75 55.75,-185"/>
<text xml:space="preserve" text-anchor="middle" x="27.88" y="-171.5" font-family="Helvetica,sans-Serif" font-size="10.00">algorithm</text>
</a>
</g>
</g>
<!-- Node1&#45;&gt;Node2 -->
<g id="edge1_Node000001_Node000002" class="edge">
<title>Node1&#45;&gt;Node2</title>
<g id="a_edge1_Node000001_Node000002"><a xlink:title=" ">
<path fill="none" stroke="#63b8ff" d="M660.77,-237.38C535.57,-231.09 282.43,-215.59 69.88,-185 68.88,-184.86 67.86,-184.7 66.85,-184.54"/>
<polygon fill="#63b8ff" stroke="#63b8ff" points="67.75,-181.15 57.3,-182.86 66.54,-188.04 67.75,-181.15"/>
</a>
</g>
</g>
<!-- Node3 -->
<g id="Node000003" class="node">
<title>Node3</title>
<g id="a_Node000003"><a xlink:title=" ">
<polygon fill="#e0e0e0" stroke="#999999" points="825.5,-74.5 780.25,-74.5 780.25,-55.25 825.5,-55.25 825.5,-74.5"/>
<text xml:space="preserve" text-anchor="middle" x="802.88" y="-61" font-family="Helvetica,sans-Serif" font-size="10.00">atomic</text>
</a>
</g>
</g>
<!-- Node1&#45;&gt;Node3 -->
<g id="edge2_Node000001_Node000003" class="edge">
<title>Node1&#45;&gt;Node3</title>
<g id="a_edge2_Node000001_Node000003"><a xlink:title=" ">
<path fill="none" stroke="#63b8ff" d="M739.49,-220.86C741,-194.36 746.19,-146.75 763.88,-110.5 768.92,-100.15 777.01,-90.33 784.51,-82.54"/>
<polygon fill="#63b8ff" stroke="#63b8ff" points="786.75,-85.25 791.46,-75.76 781.86,-80.24 786.75,-85.25"/>
</a>
</g>
</g>
<!-- Node4 -->
<g id="Node000004" class="node">
<title>Node4</title>
<g id="a_Node000004"><a xlink:title=" ">
<polygon fill="#e0e0e0" stroke="#999999" points="160,-185 111.75,-185 111.75,-165.75 160,-165.75 160,-185"/>
<text xml:space="preserve" text-anchor="middle" x="135.88" y="-171.5" font-family="Helvetica,sans-Serif" font-size="10.00">cstddef</text>
</a>
</g>
</g>
<!-- Node1&#45;&gt;Node4 -->
<g id="edge3_Node000001_Node000004" class="edge">
<title>Node1&#45;&gt;Node4</title>
<g id="a_edge3_Node000001_Node000004"><a xlink:title=" ">
<path fill="none" stroke="#63b8ff" d="M660.79,-236.24C551.41,-229.05 346.58,-213.03 173.88,-185 173.05,-184.87 172.21,-184.72 171.37,-184.58"/>
<polygon fill="#63b8ff" stroke="#63b8ff" points="172.29,-181.19 161.8,-182.69 170.93,-188.06 172.29,-181.19"/>
</a>
</g>
</g>
<!-- Node5 -->
<g id="Node000005" class="node">
<title>Node5</title>
<g id="a_Node000005"><a xlink:href="_ctorch___error_8h.html" target="_top" xlink:title="Ctorch 错误处理类">
<polygon fill="white" stroke="#666666" points="543.38,-129.75 464.38,-129.75 464.38,-110.5 543.38,-110.5 543.38,-129.75"/>
<text xml:space="preserve" text-anchor="middle" x="503.88" y="-116.25" font-family="Helvetica,sans-Serif" font-size="10.00">Ctorch_Error.h</text>
</a>
</g>
</g>
<!-- Node1&#45;&gt;Node5 -->
<g id="edge4_Node000001_Node000005" class="edge">
<title>Node1&#45;&gt;Node5</title>
<g id="a_edge4_Node000001_Node000005"><a xlink:title=" ">
<path fill="none" stroke="#63b8ff" d="M660.92,-231.17C623.33,-223.44 579.28,-209.64 545.88,-185 530.37,-173.56 518.94,-154.55 511.95,-140.24"/>
<polygon fill="#63b8ff" stroke="#63b8ff" points="515.25,-139.04 507.93,-131.38 508.88,-141.93 515.25,-139.04"/>
</a>
</g>
</g>
<!-- Node6 -->
<g id="Node000006" class="node">
<title>Node6</title>
<g id="a_Node000006"><a xlink:title=" ">
<polygon fill="#e0e0e0" stroke="#999999" points="211.5,-19.25 166.25,-19.25 166.25,0 211.5,0 211.5,-19.25"/>
<text xml:space="preserve" text-anchor="middle" x="188.88" y="-5.75" font-family="Helvetica,sans-Serif" font-size="10.00">cstring</text>
</a>
</g>
</g>
<!-- Node1&#45;&gt;Node6 -->
<g id="edge42_Node000001_Node000006" class="edge">
<title>Node1&#45;&gt;Node6</title>
<g id="a_edge42_Node000001_Node000006"><a xlink:title=" ">
<path fill="none" stroke="#63b8ff" d="M660.9,-233.98C601.19,-226.78 517.66,-212.53 448.88,-185 348.91,-144.99 247.95,-62.47 207.41,-27.2"/>
<polygon fill="#63b8ff" stroke="#63b8ff" points="209.81,-24.65 199.99,-20.68 205.19,-29.91 209.81,-24.65"/>
</a>
</g>
</g>
<!-- Node10 -->
<g id="Node000010" class="node">
<title>Node10</title>
<g id="a_Node000010"><a xlink:title=" ">
<polygon fill="#e0e0e0" stroke="#999999" points="269.88,-19.25 229.88,-19.25 229.88,0 269.88,0 269.88,-19.25"/>
<text xml:space="preserve" text-anchor="middle" x="249.88" y="-5.75" font-family="Helvetica,sans-Serif" font-size="10.00">string</text>
</a>
</g>
</g>
<!-- Node1&#45;&gt;Node10 -->
<g id="edge44_Node000001_Node000010" class="edge">
<title>Node1&#45;&gt;Node10</title>
<g id="a_edge44_Node000001_Node000010"><a xlink:title=" ">
<path fill="none" stroke="#63b8ff" d="M660.78,-231.82C610.1,-223.95 543.57,-209.76 488.88,-185 396.56,-143.21 304.59,-62.27 267.26,-27.34"/>
<polygon fill="#63b8ff" stroke="#63b8ff" points="269.75,-24.88 260.08,-20.55 264.93,-29.96 269.75,-24.88"/>
</a>
</g>
</g>
<!-- Node11 -->
<g id="Node000011" class="node">
<title>Node11</title>
<g id="a_Node000011"><a xlink:title=" ">
<polygon fill="#e0e0e0" stroke="#999999" points="339.5,-19.25 288.25,-19.25 288.25,0 339.5,0 339.5,-19.25"/>
<text xml:space="preserve" text-anchor="middle" x="313.88" y="-5.75" font-family="Helvetica,sans-Serif" font-size="10.00">sstream</text>
</a>
</g>
</g>
<!-- Node1&#45;&gt;Node11 -->
<g id="edge40_Node000001_Node000011" class="edge">
<title>Node1&#45;&gt;Node11</title>
<g id="a_edge40_Node000001_Node000011"><a xlink:title=" ">
<path fill="none" stroke="#63b8ff" d="M660.8,-228.67C618.97,-220.14 567.43,-206.36 524.88,-185 441.44,-143.11 361.81,-62.83 329.27,-27.74"/>
<polygon fill="#63b8ff" stroke="#63b8ff" points="332.07,-25.61 322.73,-20.6 326.9,-30.34 332.07,-25.61"/>
</a>
</g>
</g>
<!-- Node12 -->
<g id="Node000012" class="node">
<title>Node12</title>
<g id="a_Node000012"><a xlink:title=" ">
<polygon fill="#e0e0e0" stroke="#999999" points="147.75,-19.25 98,-19.25 98,0 147.75,0 147.75,-19.25"/>
<text xml:space="preserve" text-anchor="middle" x="122.88" y="-5.75" font-family="Helvetica,sans-Serif" font-size="10.00">iomanip</text>
</a>
</g>
</g>
<!-- Node1&#45;&gt;Node12 -->
<g id="edge43_Node000001_Node000012" class="edge">
<title>Node1&#45;&gt;Node12</title>
<g id="a_edge43_Node000001_Node000012"><a xlink:title=" ">
<path fill="none" stroke="#63b8ff" d="M660.82,-239.79C499.22,-236.73 139.89,-225.41 102.88,-185 63.32,-141.81 94.43,-65.18 112.4,-29.67"/>
<polygon fill="#63b8ff" stroke="#63b8ff" points="115.39,-31.5 116.96,-21.02 109.2,-28.23 115.39,-31.5"/>
</a>
</g>
</g>
<!-- Node17 -->
<g id="Node000017" class="node">
<title>Node17</title>
<g id="a_Node000017"><a xlink:href="_ctools_8h.html" target="_top" xlink:title="Ctorch 通用工具类，包含通用枚举类型和辅助函数">
<polygon fill="white" stroke="#666666" points="610.25,-74.5 557.5,-74.5 557.5,-55.25 610.25,-55.25 610.25,-74.5"/>
<text xml:space="preserve" text-anchor="middle" x="583.88" y="-61" font-family="Helvetica,sans-Serif" font-size="10.00">Ctools.h</text>
</a>
</g>
</g>
<!-- Node1&#45;&gt;Node17 -->
<g id="edge48_Node000001_Node000017" class="edge">
<title>Node1&#45;&gt;Node17</title>
<g id="a_edge48_Node000001_Node000017"><a xlink:title=" ">
<path fill="none" stroke="#63b8ff" d="M719.68,-220.61C709.78,-210.07 697.58,-196.94 686.88,-185 654.94,-149.41 618.57,-106.84 598.72,-83.45"/>
<polygon fill="#63b8ff" stroke="#63b8ff" points="601.63,-81.46 592.49,-76.09 596.29,-85.99 601.63,-81.46"/>
</a>
</g>
</g>
<!-- Node18 -->
<g id="Node000018" class="node">
<title>Node18</title>
<g id="a_Node000018"><a xlink:title=" ">
<polygon fill="#e0e0e0" stroke="#999999" points="921.38,-19.25 878.38,-19.25 878.38,0 921.38,0 921.38,-19.25"/>
<text xml:space="preserve" text-anchor="middle" x="899.88" y="-5.75" font-family="Helvetica,sans-Serif" font-size="10.00">vector</text>
</a>
</g>
</g>
<!-- Node1&#45;&gt;Node18 -->
<g id="edge39_Node000001_Node000018" class="edge">
<title>Node1&#45;&gt;Node18</title>
<g id="a_edge39_Node000001_Node000018"><a xlink:title=" ">
<path fill="none" stroke="#63b8ff" d="M816.94,-241.77C922.73,-241.12 1103.2,-232.8 1144.88,-185 1182.77,-141.53 1181.82,-99.53 1144.88,-55.25 1131.41,-39.11 997.03,-21.74 933.2,-14.32"/>
<polygon fill="#63b8ff" stroke="#63b8ff" points="933.63,-10.85 923.29,-13.19 932.83,-17.8 933.63,-10.85"/>
</a>
</g>
</g>
<!-- Node19 -->
<g id="Node000019" class="node">
<title>Node19</title>
<g id="a_Node000019"><a xlink:title=" ">
<polygon fill="#e0e0e0" stroke="#999999" points="1055.5,-19.25 1004.25,-19.25 1004.25,0 1055.5,0 1055.5,-19.25"/>
<text xml:space="preserve" text-anchor="middle" x="1029.88" y="-5.75" font-family="Helvetica,sans-Serif" font-size="10.00">memory</text>
</a>
</g>
</g>
<!-- Node1&#45;&gt;Node19 -->
<g id="edge36_Node000001_Node000019" class="edge">
<title>Node1&#45;&gt;Node19</title>
<g id="a_edge36_Node000001_Node000019"><a xlink:title=" ">
<path fill="none" stroke="#63b8ff" d="M817.05,-238.68C962.21,-233.8 1261.57,-219.62 1292.88,-185 1367.86,-102.07 1156.14,-40.54 1067.18,-19"/>
<polygon fill="#63b8ff" stroke="#63b8ff" points="1067.99,-15.59 1057.46,-16.69 1066.38,-22.4 1067.99,-15.59"/>
</a>
</g>
</g>
<!-- Node20 -->
<g id="Node000020" class="node">
<title>Node20</title>
<g id="a_Node000020"><a xlink:title=" ">
<polygon fill="#e0e0e0" stroke="#999999" points="799.62,-19.25 746.12,-19.25 746.12,0 799.62,0 799.62,-19.25"/>
<text xml:space="preserve" text-anchor="middle" x="772.88" y="-5.75" font-family="Helvetica,sans-Serif" font-size="10.00">iostream</text>
</a>
</g>
</g>
<!-- Node1&#45;&gt;Node20 -->
<g id="edge35_Node000001_Node000020" class="edge">
<title>Node1&#45;&gt;Node20</title>
<g id="a_edge35_Node000001_Node000020"><a xlink:title=" ">
<path fill="none" stroke="#63b8ff" d="M737.7,-220.72C737.1,-205.56 736.87,-184.29 738.88,-165.75 744.23,-116.34 758.9,-59.61 767.11,-30.36"/>
<polygon fill="#63b8ff" stroke="#63b8ff" points="770.39,-31.64 769.77,-21.06 763.66,-29.71 770.39,-31.64"/>
</a>
</g>
</g>
<!-- Node21 -->
<g id="Node000021" class="node">
<title>Node21</title>
<g id="a_Node000021"><a xlink:href="_storage_8h.html" target="_top" xlink:title="Ctorch 存储类，用于管理张量数据的底层存储">
<polygon fill="white" stroke="#666666" points="612.88,-185 554.88,-185 554.88,-165.75 612.88,-165.75 612.88,-185"/>
<text xml:space="preserve" text-anchor="middle" x="583.88" y="-171.5" font-family="Helvetica,sans-Serif" font-size="10.00">Storage.h</text>
</a>
</g>
</g>
<!-- Node1&#45;&gt;Node21 -->
<g id="edge31_Node000001_Node000021" class="edge">
<title>Node1&#45;&gt;Node21</title>
<g id="a_edge31_Node000001_Node000021"><a xlink:title=" ">
<path fill="none" stroke="#63b8ff" d="M690.26,-220.64C666.06,-210.58 637.49,-198.69 616.05,-189.76"/>
<polygon fill="#63b8ff" stroke="#63b8ff" points="617.52,-186.59 606.95,-185.98 614.83,-193.05 617.52,-186.59"/>
</a>
</g>
</g>
<!-- Node22 -->
<g id="Node000022" class="node">
<title>Node22</title>
<g id="a_Node000022"><a xlink:title=" ">
<polygon fill="#e0e0e0" stroke="#999999" points="915,-185 842.75,-185 842.75,-165.75 915,-165.75 915,-185"/>
<text xml:space="preserve" text-anchor="middle" x="878.88" y="-171.5" font-family="Helvetica,sans-Serif" font-size="10.00">initializer_list</text>
</a>
</g>
</g>
<!-- Node1&#45;&gt;Node22 -->
<g id="edge34_Node000001_Node000022" class="edge">
<title>Node1&#45;&gt;Node22</title>
<g id="a_edge34_Node000001_Node000022"><a xlink:title=" ">
<path fill="none" stroke="#63b8ff" d="M782.79,-220.64C804.34,-210.71 829.74,-199.01 849.01,-190.13"/>
<polygon fill="#63b8ff" stroke="#63b8ff" points="850.31,-193.39 857.92,-186.03 847.38,-187.03 850.31,-193.39"/>
</a>
</g>
</g>
<!-- Node23 -->
<g id="Node000023" class="node">
<title>Node23</title>
<g id="a_Node000023"><a xlink:title=" ">
<polygon fill="#e0e0e0" stroke="#999999" points="983.12,-185 932.62,-185 932.62,-165.75 983.12,-165.75 983.12,-185"/>
<text xml:space="preserve" text-anchor="middle" x="957.88" y="-171.5" font-family="Helvetica,sans-Serif" font-size="10.00">numeric</text>
</a>
</g>
</g>
<!-- Node1&#45;&gt;Node23 -->
<g id="edge37_Node000001_Node000023" class="edge">
<title>Node1&#45;&gt;Node23</title>
<g id="a_edge37_Node000001_Node000023"><a xlink:title=" ">
<path fill="none" stroke="#63b8ff" d="M807.87,-220.56C845.61,-209.44 890.83,-196.12 921.68,-187.03"/>
<polygon fill="#63b8ff" stroke="#63b8ff" points="922.3,-190.5 930.91,-184.32 920.33,-183.79 922.3,-190.5"/>
</a>
</g>
</g>
<!-- Node24 -->
<g id="Node000024" class="node">
<title>Node24</title>
<g id="a_Node000024"><a xlink:title=" ">
<polygon fill="#e0e0e0" stroke="#999999" points="1060.25,-185 1001.5,-185 1001.5,-165.75 1060.25,-165.75 1060.25,-185"/>
<text xml:space="preserve" text-anchor="middle" x="1030.88" y="-171.5" font-family="Helvetica,sans-Serif" font-size="10.00">stdexcept</text>
</a>
</g>
</g>
<!-- Node1&#45;&gt;Node24 -->
<g id="edge38_Node000001_Node000024" class="edge">
<title>Node1&#45;&gt;Node24</title>
<g id="a_edge38_Node000001_Node000024"><a xlink:title=" ">
<path fill="none" stroke="#63b8ff" d="M816.95,-223.64C864.22,-213.2 926.04,-199.55 989.95,-185.42"/>
<polygon fill="#63b8ff" stroke="#63b8ff" points="990.58,-188.87 999.59,-183.3 989.07,-182.04 990.58,-188.87"/>
</a>
</g>
</g>
<!-- Node25 -->
<g id="Node000025" class="node">
<title>Node25</title>
<g id="a_Node000025"><a xlink:title=" ">
<polygon fill="#e0e0e0" stroke="#999999" points="1135.88,-185 1077.88,-185 1077.88,-165.75 1135.88,-165.75 1135.88,-185"/>
<text xml:space="preserve" text-anchor="middle" x="1106.88" y="-171.5" font-family="Helvetica,sans-Serif" font-size="10.00">functional</text>
</a>
</g>
</g>
<!-- Node1&#45;&gt;Node25 -->
<g id="edge41_Node000001_Node000025" class="edge">
<title>Node1&#45;&gt;Node25</title>
<g id="a_edge41_Node000001_Node000025"><a xlink:title=" ">
<path fill="none" stroke="#63b8ff" d="M817.11,-228.88C881.5,-218.72 975.41,-203.25 1066.37,-185.41"/>
<polygon fill="#63b8ff" stroke="#63b8ff" points="1066.83,-188.89 1075.97,-183.52 1065.48,-182.02 1066.83,-188.89"/>
</a>
</g>
</g>
<!-- Node26 -->
<g id="Node000026" class="node">
<title>Node26</title>
<g id="a_Node000026"><a xlink:title=" ">
<polygon fill="#e0e0e0" stroke="#999999" points="1135.62,-74.5 1058.12,-74.5 1058.12,-55.25 1135.62,-55.25 1135.62,-74.5"/>
<text xml:space="preserve" text-anchor="middle" x="1096.88" y="-61" font-family="Helvetica,sans-Serif" font-size="10.00">unordered_set</text>
</a>
</g>
</g>
<!-- Node1&#45;&gt;Node26 -->
<g id="edge45_Node000001_Node000026" class="edge">
<title>Node1&#45;&gt;Node26</title>
<g id="a_edge45_Node000001_Node000026"><a xlink:title=" ">
<path fill="none" stroke="#63b8ff" d="M760.51,-220.58C778.91,-204.12 806.62,-181.21 833.88,-165.75 906.26,-124.69 998.79,-94.04 1052.59,-78.14"/>
<polygon fill="#63b8ff" stroke="#63b8ff" points="1053.38,-81.55 1062,-75.39 1051.42,-74.83 1053.38,-81.55"/>
</a>
</g>
</g>
<!-- Node27 -->
<g id="Node000027" class="node">
<title>Node27</title>
<g id="a_Node000027"><a xlink:title=" ">
<polygon fill="#e0e0e0" stroke="#999999" points="1231.5,-185 1192.25,-185 1192.25,-165.75 1231.5,-165.75 1231.5,-185"/>
<text xml:space="preserve" text-anchor="middle" x="1211.88" y="-171.5" font-family="Helvetica,sans-Serif" font-size="10.00">limits</text>
</a>
</g>
</g>
<!-- Node1&#45;&gt;Node27 -->
<g id="edge46_Node000001_Node000027" class="edge">
<title>Node1&#45;&gt;Node27</title>
<g id="a_edge46_Node000001_Node000027"><a xlink:title=" ">
<path fill="none" stroke="#63b8ff" d="M817.04,-233.83C905.18,-225.21 1052.57,-208.78 1177.88,-185 1178.87,-184.81 1179.88,-184.61 1180.9,-184.4"/>
<polygon fill="#63b8ff" stroke="#63b8ff" points="1181.39,-187.88 1190.35,-182.23 1179.82,-181.06 1181.39,-187.88"/>
</a>
</g>
</g>
<!-- Node28 -->
<g id="Node000028" class="node">
<title>Node28</title>
<g id="a_Node000028"><a xlink:title=" ">
<polygon fill="#e0e0e0" stroke="#999999" points="1284.25,-185 1249.5,-185 1249.5,-165.75 1284.25,-165.75 1284.25,-185"/>
<text xml:space="preserve" text-anchor="middle" x="1266.88" y="-171.5" font-family="Helvetica,sans-Serif" font-size="10.00">map</text>
</a>
</g>
</g>
<!-- Node1&#45;&gt;Node28 -->
<g id="edge47_Node000001_Node000028" class="edge">
<title>Node1&#45;&gt;Node28</title>
<g id="a_edge47_Node000001_Node000028"><a xlink:title=" ">
<path fill="none" stroke="#63b8ff" d="M817.09,-237.25C914.22,-231.61 1084.88,-218.02 1238.11,-185.21"/>
<polygon fill="#63b8ff" stroke="#63b8ff" points="1238.6,-188.68 1247.63,-183.14 1237.12,-181.84 1238.6,-188.68"/>
</a>
</g>
</g>
<!-- Node29 -->
<g id="Node000029" class="node">
<title>Node29</title>
<g id="a_Node000029"><a xlink:href="_auto_diff_8h.html" target="_top" xlink:title="Ctorch 自动微分系统">
<polygon fill="white" stroke="#666666" points="833,-129.75 772.75,-129.75 772.75,-110.5 833,-110.5 833,-129.75"/>
<text xml:space="preserve" text-anchor="middle" x="802.88" y="-116.25" font-family="Helvetica,sans-Serif" font-size="10.00">AutoDiff.h</text>
</a>
</g>
</g>
<!-- Node1&#45;&gt;Node29 -->
<g id="edge49_Node000001_Node000029" class="edge">
<title>Node1&#45;&gt;Node29</title>
<g id="a_edge49_Node000001_Node000029"><a xlink:title=" ">
<path fill="none" stroke="#63b8ff" d="M749.73,-220.56C761.76,-198.06 781,-162.06 792.73,-140.11"/>
<polygon fill="#63b8ff" stroke="#63b8ff" points="795.76,-141.86 797.39,-131.39 789.59,-138.56 795.76,-141.86"/>
</a>
</g>
</g>
<!-- Node5&#45;&gt;Node6 -->
<g id="edge5_Node000005_Node000006" class="edge">
<title>Node5&#45;&gt;Node6</title>
<g id="a_edge5_Node000005_Node000006"><a xlink:title=" ">
<path fill="none" stroke="#63b8ff" d="M467.44,-110.06C435.19,-101.75 386.99,-88.62 345.88,-74.5 301.19,-59.15 250.79,-37.93 219.43,-24.24"/>
<polygon fill="#63b8ff" stroke="#63b8ff" points="221.12,-21.16 210.56,-20.34 218.31,-27.57 221.12,-21.16"/>
</a>
</g>
</g>
<!-- Node7 -->
<g id="Node000007" class="node">
<title>Node7</title>
<g id="a_Node000007"><a xlink:title=" ">
<polygon fill="#e0e0e0" stroke="#999999" points="604.5,-19.25 559.25,-19.25 559.25,0 604.5,0 604.5,-19.25"/>
<text xml:space="preserve" text-anchor="middle" x="581.88" y="-5.75" font-family="Helvetica,sans-Serif" font-size="10.00">chrono</text>
</a>
</g>
</g>
<!-- Node5&#45;&gt;Node7 -->
<g id="edge6_Node000005_Node000007" class="edge">
<title>Node5&#45;&gt;Node7</title>
<g id="a_edge6_Node000005_Node000007"><a xlink:title=" ">
<path fill="none" stroke="#63b8ff" d="M509.93,-110.4C518.51,-98.06 534.74,-74.83 548.88,-55.25 555.22,-46.46 562.36,-36.78 568.37,-28.69"/>
<polygon fill="#63b8ff" stroke="#63b8ff" points="571.17,-30.79 574.34,-20.68 565.55,-26.61 571.17,-30.79"/>
</a>
</g>
</g>
<!-- Node8 -->
<g id="Node000008" class="node">
<title>Node8</title>
<g id="a_Node000008"><a xlink:title=" ">
<polygon fill="#e0e0e0" stroke="#999999" points="728.5,-19.25 683.25,-19.25 683.25,0 728.5,0 728.5,-19.25"/>
<text xml:space="preserve" text-anchor="middle" x="705.88" y="-5.75" font-family="Helvetica,sans-Serif" font-size="10.00">cstdint</text>
</a>
</g>
</g>
<!-- Node5&#45;&gt;Node8 -->
<g id="edge7_Node000005_Node000008" class="edge">
<title>Node5&#45;&gt;Node8</title>
<g id="a_edge7_Node000005_Node000008"><a xlink:title=" ">
<path fill="none" stroke="#63b8ff" d="M543.66,-110.89C571.64,-103.96 609.24,-92.28 638.88,-74.5 659.68,-62.02 679.24,-42.05 691.79,-27.76"/>
<polygon fill="#63b8ff" stroke="#63b8ff" points="694.17,-30.37 697.99,-20.48 688.85,-25.83 694.17,-30.37"/>
</a>
</g>
</g>
<!-- Node9 -->
<g id="Node000009" class="node">
<title>Node9</title>
<g id="a_Node000009"><a xlink:title=" ">
<polygon fill="#e0e0e0" stroke="#999999" points="397.88,-19.25 357.88,-19.25 357.88,0 397.88,0 397.88,-19.25"/>
<text xml:space="preserve" text-anchor="middle" x="377.88" y="-5.75" font-family="Helvetica,sans-Serif" font-size="10.00">ctime</text>
</a>
</g>
</g>
<!-- Node5&#45;&gt;Node9 -->
<g id="edge8_Node000005_Node000009" class="edge">
<title>Node5&#45;&gt;Node9</title>
<g id="a_edge8_Node000005_Node000009"><a xlink:title=" ">
<path fill="none" stroke="#63b8ff" d="M493.56,-110.25C472.43,-92.05 423.91,-50.27 396.9,-27.01"/>
<polygon fill="#63b8ff" stroke="#63b8ff" points="399.34,-24.49 389.48,-20.61 394.77,-29.79 399.34,-24.49"/>
</a>
</g>
</g>
<!-- Node5&#45;&gt;Node10 -->
<g id="edge9_Node000005_Node000010" class="edge">
<title>Node5&#45;&gt;Node10</title>
<g id="a_edge9_Node000005_Node000010"><a xlink:title=" ">
<path fill="none" stroke="#63b8ff" d="M481.03,-110.11C458.72,-101.24 423.85,-87.22 393.88,-74.5 354.36,-57.73 309.17,-37.51 280.12,-24.38"/>
<polygon fill="#63b8ff" stroke="#63b8ff" points="281.75,-21.28 271.2,-20.34 278.86,-27.65 281.75,-21.28"/>
</a>
</g>
</g>
<!-- Node5&#45;&gt;Node11 -->
<g id="edge10_Node000005_Node000011" class="edge">
<title>Node5&#45;&gt;Node11</title>
<g id="a_edge10_Node000005_Node000011"><a xlink:title=" ">
<path fill="none" stroke="#63b8ff" d="M488,-110.06C455.17,-91.31 379.54,-48.12 339.63,-25.33"/>
<polygon fill="#63b8ff" stroke="#63b8ff" points="341.57,-22.41 331.15,-20.49 338.1,-28.49 341.57,-22.41"/>
</a>
</g>
</g>
<!-- Node5&#45;&gt;Node12 -->
<g id="edge11_Node000005_Node000012" class="edge">
<title>Node5&#45;&gt;Node12</title>
<g id="a_edge11_Node000005_Node000012"><a xlink:title=" ">
<path fill="none" stroke="#63b8ff" d="M463.96,-112.46C421.39,-104.94 352.2,-91.49 293.88,-74.5 244.18,-60.03 188.29,-38.02 154.34,-23.99"/>
<polygon fill="#63b8ff" stroke="#63b8ff" points="156.1,-20.93 145.52,-20.31 153.41,-27.39 156.1,-20.93"/>
</a>
</g>
</g>
<!-- Node13 -->
<g id="Node000013" class="node">
<title>Node13</title>
<g id="a_Node000013"><a xlink:title=" ">
<polygon fill="#e0e0e0" stroke="#999999" points="464,-19.25 415.75,-19.25 415.75,0 464,0 464,-19.25"/>
<text xml:space="preserve" text-anchor="middle" x="439.88" y="-5.75" font-family="Helvetica,sans-Serif" font-size="10.00">stdint.h</text>
</a>
</g>
</g>
<!-- Node5&#45;&gt;Node13 -->
<g id="edge12_Node000005_Node000013" class="edge">
<title>Node5&#45;&gt;Node13</title>
<g id="a_edge12_Node000005_Node000013"><a xlink:title=" ">
<path fill="none" stroke="#63b8ff" d="M498.64,-110.25C488.28,-92.68 464.96,-53.16 451.02,-29.52"/>
<polygon fill="#63b8ff" stroke="#63b8ff" points="454.05,-27.77 445.95,-20.93 448.02,-31.32 454.05,-27.77"/>
</a>
</g>
</g>
<!-- Node14 -->
<g id="Node000014" class="node">
<title>Node14</title>
<g id="a_Node000014"><a xlink:title=" ">
<polygon fill="#e0e0e0" stroke="#999999" points="541.25,-19.25 482.5,-19.25 482.5,0 541.25,0 541.25,-19.25"/>
<text xml:space="preserve" text-anchor="middle" x="511.88" y="-5.75" font-family="Helvetica,sans-Serif" font-size="10.00">inttypes.h</text>
</a>
</g>
</g>
<!-- Node5&#45;&gt;Node14 -->
<g id="edge13_Node000005_Node000014" class="edge">
<title>Node5&#45;&gt;Node14</title>
<g id="a_edge13_Node000005_Node000014"><a xlink:title=" ">
<path fill="none" stroke="#63b8ff" d="M504.53,-110.25C505.8,-93 508.63,-54.58 510.39,-30.81"/>
<polygon fill="#63b8ff" stroke="#63b8ff" points="513.86,-31.37 511.1,-21.14 506.87,-30.85 513.86,-31.37"/>
</a>
</g>
</g>
<!-- Node15 -->
<g id="Node000015" class="node">
<title>Node15</title>
<g id="a_Node000015"><a xlink:title=" ">
<polygon fill="#e0e0e0" stroke="#999999" points="860.38,-19.25 817.38,-19.25 817.38,0 860.38,0 860.38,-19.25"/>
<text xml:space="preserve" text-anchor="middle" x="838.88" y="-5.75" font-family="Helvetica,sans-Serif" font-size="10.00">mutex</text>
</a>
</g>
</g>
<!-- Node5&#45;&gt;Node15 -->
<g id="edge14_Node000005_Node000015" class="edge">
<title>Node5&#45;&gt;Node15</title>
<g id="a_edge14_Node000005_Node000015"><a xlink:title=" ">
<path fill="none" stroke="#63b8ff" d="M539.93,-110.03C572.73,-101.54 622.35,-88.17 664.88,-74.5 714.91,-58.41 771.92,-36.85 806.65,-23.35"/>
<polygon fill="#63b8ff" stroke="#63b8ff" points="807.65,-26.72 815.69,-19.82 805.1,-20.2 807.65,-26.72"/>
</a>
</g>
</g>
<!-- Node16 -->
<g id="Node000016" class="node">
<title>Node16</title>
<g id="a_Node000016"><a xlink:title=" ">
<polygon fill="#e0e0e0" stroke="#999999" points="665.38,-19.25 622.38,-19.25 622.38,0 665.38,0 665.38,-19.25"/>
<text xml:space="preserve" text-anchor="middle" x="643.88" y="-5.75" font-family="Helvetica,sans-Serif" font-size="10.00">thread</text>
</a>
</g>
</g>
<!-- Node5&#45;&gt;Node16 -->
<g id="edge15_Node000005_Node000016" class="edge">
<title>Node5&#45;&gt;Node16</title>
<g id="a_edge15_Node000005_Node000016"><a xlink:title=" ">
<path fill="none" stroke="#63b8ff" d="M543.76,-112.12C568.23,-105.96 598.63,-94.69 618.88,-74.5 630.75,-62.66 637.12,-44.53 640.45,-30.61"/>
<polygon fill="#63b8ff" stroke="#63b8ff" points="643.8,-31.69 642.36,-21.2 636.94,-30.3 643.8,-31.69"/>
</a>
</g>
</g>
<!-- Node5&#45;&gt;Node17 -->
<g id="edge16_Node000005_Node000017" class="edge">
<title>Node5&#45;&gt;Node17</title>
<g id="a_edge16_Node000005_Node000017"><a xlink:title=" ">
<path fill="none" stroke="#63b8ff" d="M517.45,-110.09C529.28,-102.21 546.71,-90.61 560.75,-81.27"/>
<polygon fill="#63b8ff" stroke="#63b8ff" points="562.59,-84.25 568.98,-75.79 558.71,-78.42 562.59,-84.25"/>
</a>
</g>
</g>
<!-- Node17&#45;&gt;Node6 -->
<g id="edge17_Node000017_Node000006" class="edge">
<title>Node17&#45;&gt;Node6</title>
<g id="a_edge17_Node000017_Node000006"><a xlink:title=" ">
<path fill="none" stroke="#63b8ff" d="M557.26,-61.9C498.61,-57.26 353.73,-44.32 222.86,-19.37"/>
<polygon fill="#63b8ff" stroke="#63b8ff" points="223.83,-15.99 213.34,-17.52 222.49,-22.86 223.83,-15.99"/>
</a>
</g>
</g>
<!-- Node17&#45;&gt;Node7 -->
<g id="edge18_Node000017_Node000007" class="edge">
<title>Node17&#45;&gt;Node7</title>
<g id="a_edge18_Node000017_Node000007"><a xlink:title=" ">
<path fill="none" stroke="#63b8ff" d="M583.54,-55.08C583.3,-48.49 582.95,-39.21 582.63,-30.82"/>
<polygon fill="#63b8ff" stroke="#63b8ff" points="586.14,-30.98 582.27,-21.12 579.15,-31.25 586.14,-30.98"/>
</a>
</g>
</g>
<!-- Node17&#45;&gt;Node8 -->
<g id="edge19_Node000017_Node000008" class="edge">
<title>Node17&#45;&gt;Node8</title>
<g id="a_edge19_Node000017_Node000008"><a xlink:title=" ">
<path fill="none" stroke="#63b8ff" d="M604.57,-54.84C623.76,-46.47 652.59,-33.88 674.59,-24.28"/>
<polygon fill="#63b8ff" stroke="#63b8ff" points="675.93,-27.52 683.69,-20.31 673.13,-21.1 675.93,-27.52"/>
</a>
</g>
</g>
<!-- Node17&#45;&gt;Node9 -->
<g id="edge20_Node000017_Node000009" class="edge">
<title>Node17&#45;&gt;Node9</title>
<g id="a_edge20_Node000017_Node000009"><a xlink:title=" ">
<path fill="none" stroke="#63b8ff" d="M557.1,-57.5C524.38,-49.62 467.12,-35.58 408.98,-19.74"/>
<polygon fill="#63b8ff" stroke="#63b8ff" points="410.15,-16.44 399.58,-17.17 408.3,-23.19 410.15,-16.44"/>
</a>
</g>
</g>
<!-- Node17&#45;&gt;Node10 -->
<g id="edge21_Node000017_Node000010" class="edge">
<title>Node17&#45;&gt;Node10</title>
<g id="a_edge21_Node000017_Node000010"><a xlink:title=" ">
<path fill="none" stroke="#63b8ff" d="M557.12,-61.27C505.54,-55.97 388.62,-42.61 281.39,-19.53"/>
<polygon fill="#63b8ff" stroke="#63b8ff" points="282.37,-16.16 271.85,-17.44 280.87,-23 282.37,-16.16"/>
</a>
</g>
</g>
<!-- Node17&#45;&gt;Node11 -->
<g id="edge22_Node000017_Node000011" class="edge">
<title>Node17&#45;&gt;Node11</title>
<g id="a_edge22_Node000017_Node000011"><a xlink:title=" ">
<path fill="none" stroke="#63b8ff" d="M557.35,-59.32C515.59,-52.04 431.75,-37.02 350.73,-19.55"/>
<polygon fill="#63b8ff" stroke="#63b8ff" points="351.83,-16.21 341.31,-17.51 350.34,-23.05 351.83,-16.21"/>
</a>
</g>
</g>
<!-- Node17&#45;&gt;Node12 -->
<g id="edge23_Node000017_Node000012" class="edge">
<title>Node17&#45;&gt;Node12</title>
<g id="a_edge23_Node000017_Node000012"><a xlink:title=" ">
<path fill="none" stroke="#63b8ff" d="M557.2,-62.43C491.31,-58.57 315.44,-46.56 159.25,-19.42"/>
<polygon fill="#63b8ff" stroke="#63b8ff" points="159.98,-16 149.53,-17.7 158.77,-22.89 159.98,-16"/>
</a>
</g>
</g>
<!-- Node17&#45;&gt;Node13 -->
<g id="edge24_Node000017_Node000013" class="edge">
<title>Node17&#45;&gt;Node13</title>
<g id="a_edge24_Node000017_Node000013"><a xlink:title=" ">
<path fill="none" stroke="#63b8ff" d="M559.45,-54.84C536.28,-46.27 501.21,-33.31 475.04,-23.63"/>
<polygon fill="#63b8ff" stroke="#63b8ff" points="476.44,-20.41 465.84,-20.23 474.01,-26.98 476.44,-20.41"/>
</a>
</g>
</g>
<!-- Node17&#45;&gt;Node14 -->
<g id="edge25_Node000017_Node000014" class="edge">
<title>Node17&#45;&gt;Node14</title>
<g id="a_edge25_Node000017_Node000014"><a xlink:title=" ">
<path fill="none" stroke="#63b8ff" d="M571.66,-54.84C561.05,-46.99 545.44,-35.45 532.83,-26.12"/>
<polygon fill="#63b8ff" stroke="#63b8ff" points="535.25,-23.56 525.13,-20.42 531.08,-29.19 535.25,-23.56"/>
</a>
</g>
</g>
<!-- Node17&#45;&gt;Node15 -->
<g id="edge26_Node000017_Node000015" class="edge">
<title>Node17&#45;&gt;Node15</title>
<g id="a_edge26_Node000017_Node000015"><a xlink:title=" ">
<path fill="none" stroke="#63b8ff" d="M610.7,-59.31C651.06,-52.28 730,-37.9 805.82,-19.84"/>
<polygon fill="#63b8ff" stroke="#63b8ff" points="806.6,-23.25 815.51,-17.51 804.96,-16.45 806.6,-23.25"/>
</a>
</g>
</g>
<!-- Node17&#45;&gt;Node16 -->
<g id="edge27_Node000017_Node000016" class="edge">
<title>Node17&#45;&gt;Node16</title>
<g id="a_edge27_Node000017_Node000016"><a xlink:title=" ">
<path fill="none" stroke="#63b8ff" d="M594.05,-54.84C602.64,-47.22 615.14,-36.12 625.48,-26.95"/>
<polygon fill="#63b8ff" stroke="#63b8ff" points="627.56,-29.79 632.72,-20.53 622.91,-24.55 627.56,-29.79"/>
</a>
</g>
</g>
<!-- Node17&#45;&gt;Node18 -->
<g id="edge28_Node000017_Node000018" class="edge">
<title>Node17&#45;&gt;Node18</title>
<g id="a_edge28_Node000017_Node000018"><a xlink:title=" ">
<path fill="none" stroke="#63b8ff" d="M610.5,-60.85C659.46,-55.05 767.25,-41.16 866.84,-19.7"/>
<polygon fill="#63b8ff" stroke="#63b8ff" points="867.5,-23.14 876.52,-17.58 866.01,-16.3 867.5,-23.14"/>
</a>
</g>
</g>
<!-- Node17&#45;&gt;Node19 -->
<g id="edge29_Node000017_Node000019" class="edge">
<title>Node17&#45;&gt;Node19</title>
<g id="a_edge29_Node000017_Node000019"><a xlink:title=" ">
<path fill="none" stroke="#63b8ff" d="M610.44,-60.7C686.46,-51.63 905.02,-25.53 992.77,-15.06"/>
<polygon fill="#63b8ff" stroke="#63b8ff" points="992.99,-18.55 1002.51,-13.89 992.16,-11.6 992.99,-18.55"/>
</a>
</g>
</g>
<!-- Node17&#45;&gt;Node20 -->
<g id="edge30_Node000017_Node000020" class="edge">
<title>Node17&#45;&gt;Node20</title>
<g id="a_edge30_Node000017_Node000020"><a xlink:title=" ">
<path fill="none" stroke="#63b8ff" d="M610.55,-56.36C643.01,-47.21 698.04,-31.71 734.91,-21.32"/>
<polygon fill="#63b8ff" stroke="#63b8ff" points="735.59,-24.77 744.26,-18.69 733.69,-18.03 735.59,-24.77"/>
</a>
</g>
</g>
<!-- Node21&#45;&gt;Node5 -->
<g id="edge33_Node000021_Node000005" class="edge">
<title>Node21&#45;&gt;Node5</title>
<g id="a_edge33_Node000021_Node000005"><a xlink:title=" ">
<path fill="none" stroke="#63b8ff" d="M570.3,-165.34C558.47,-157.46 541.04,-145.86 527,-136.52"/>
<polygon fill="#63b8ff" stroke="#63b8ff" points="529.04,-133.67 518.77,-131.04 525.16,-139.5 529.04,-133.67"/>
</a>
</g>
</g>
<!-- Node21&#45;&gt;Node17 -->
<g id="edge32_Node000021_Node000017" class="edge">
<title>Node21&#45;&gt;Node17</title>
<g id="a_edge32_Node000021_Node000017"><a xlink:title=" ">
<path fill="none" stroke="#63b8ff" d="M583.88,-165.5C583.88,-148.25 583.88,-109.83 583.88,-86.06"/>
<polygon fill="#63b8ff" stroke="#63b8ff" points="587.38,-86.39 583.88,-76.39 580.38,-86.39 587.38,-86.39"/>
</a>
</g>
</g>
<!-- Node29&#45;&gt;Node3 -->
<g id="edge55_Node000029_Node000003" class="edge">
<title>Node29&#45;&gt;Node3</title>
<g id="a_edge55_Node000029_Node000003"><a xlink:title=" ">
<path fill="none" stroke="#63b8ff" d="M802.88,-110.33C802.88,-103.82 802.88,-94.67 802.88,-86.37"/>
<polygon fill="#63b8ff" stroke="#63b8ff" points="806.38,-86.37 802.88,-76.37 799.38,-86.37 806.38,-86.37"/>
</a>
</g>
</g>
<!-- Node29&#45;&gt;Node15 -->
<g id="edge54_Node000029_Node000015" class="edge">
<title>Node29&#45;&gt;Node15</title>
<g id="a_edge54_Node000029_Node000015"><a xlink:title=" ">
<path fill="none" stroke="#63b8ff" d="M811.72,-110.1C819.37,-101.67 829.95,-88.33 834.88,-74.5 839.85,-60.53 840.73,-43.76 840.42,-30.91"/>
<polygon fill="#63b8ff" stroke="#63b8ff" points="843.93,-30.93 839.91,-21.12 836.94,-31.29 843.93,-30.93"/>
</a>
</g>
</g>
<!-- Node29&#45;&gt;Node17 -->
<g id="edge50_Node000029_Node000017" class="edge">
<title>Node29&#45;&gt;Node17</title>
<g id="a_edge50_Node000029_Node000017"><a xlink:title=" ">
<path fill="none" stroke="#63b8ff" d="M772.42,-111.72C733.02,-102.14 664.38,-85.45 621.68,-75.07"/>
<polygon fill="#63b8ff" stroke="#63b8ff" points="622.65,-71.7 612.1,-72.74 620.99,-78.5 622.65,-71.7"/>
</a>
</g>
</g>
<!-- Node29&#45;&gt;Node18 -->
<g id="edge51_Node000029_Node000018" class="edge">
<title>Node29&#45;&gt;Node18</title>
<g id="a_edge51_Node000029_Node000018"><a xlink:title=" ">
<path fill="none" stroke="#63b8ff" d="M813.66,-110.03C823.72,-101.33 838.93,-87.63 850.88,-74.5 864.08,-59.98 877.55,-42.16 887.01,-29.04"/>
<polygon fill="#63b8ff" stroke="#63b8ff" points="889.85,-31.09 892.79,-20.91 884.14,-27.04 889.85,-31.09"/>
</a>
</g>
</g>
<!-- Node29&#45;&gt;Node19 -->
<g id="edge56_Node000029_Node000019" class="edge">
<title>Node29&#45;&gt;Node19</title>
<g id="a_edge56_Node000029_Node000019"><a xlink:title=" ">
<path fill="none" stroke="#63b8ff" d="M833.43,-112.99C890.44,-101.48 1007.6,-77.53 1010.88,-74.5 1022.96,-63.32 1027.48,-44.83 1029.11,-30.61"/>
<polygon fill="#63b8ff" stroke="#63b8ff" points="1032.58,-31.25 1029.81,-21.02 1025.59,-30.74 1032.58,-31.25"/>
</a>
</g>
</g>
<!-- Node29&#45;&gt;Node26 -->
<g id="edge53_Node000029_Node000026" class="edge">
<title>Node29&#45;&gt;Node26</title>
<g id="a_edge53_Node000029_Node000026"><a xlink:title=" ">
<path fill="none" stroke="#63b8ff" d="M833.16,-113.12C837.75,-112.23 842.44,-111.33 846.88,-110.5 916.03,-97.55 996.1,-83.41 1046.62,-74.59"/>
<polygon fill="#63b8ff" stroke="#63b8ff" points="1047.12,-78.05 1056.37,-72.89 1045.92,-71.16 1047.12,-78.05"/>
</a>
</g>
</g>
<!-- Node30 -->
<g id="Node000030" class="node">
<title>Node30</title>
<g id="a_Node000030"><a xlink:title=" ">
<polygon fill="#e0e0e0" stroke="#999999" points="1002.25,-74.5 919.5,-74.5 919.5,-55.25 1002.25,-55.25 1002.25,-74.5"/>
<text xml:space="preserve" text-anchor="middle" x="960.88" y="-61" font-family="Helvetica,sans-Serif" font-size="10.00">unordered_map</text>
</a>
</g>
</g>
<!-- Node29&#45;&gt;Node30 -->
<g id="edge52_Node000029_Node000030" class="edge">
<title>Node29&#45;&gt;Node30</title>
<g id="a_edge52_Node000029_Node000030"><a xlink:title=" ">
<path fill="none" stroke="#63b8ff" d="M829.68,-110.09C855.33,-101.45 894.26,-88.32 923.06,-78.62"/>
<polygon fill="#63b8ff" stroke="#63b8ff" points="924.15,-81.95 932.51,-75.44 921.91,-75.31 924.15,-81.95"/>
</a>
</g>
</g>
</g>
</svg>
