<?xml version="1.0" encoding="UTF-8" standalone="no"?>
<!DOCTYPE svg PUBLIC "-//W3C//DTD SVG 1.1//EN"
 "http://www.w3.org/Graphics/SVG/1.1/DTD/svg11.dtd">
<!-- Generated by graphviz version 14.1.1 (20251213.1925)
 -->
<!-- Title: /Users/ghostface/CLionProjects/Ctorch_2.13/CTorch/src/dev/Tensor.h Pages: 1 -->
<svg width="1502pt" height="205pt"
 viewBox="0.00 0.00 1502.00 205.00" xmlns="http://www.w3.org/2000/svg" xmlns:xlink="http://www.w3.org/1999/xlink">
<g id="graph0" class="graph" transform="scale(1 1) rotate(0) translate(4 201.25)">
<title>/Users/ghostface/CLionProjects/Ctorch_2.13/CTorch/src/dev/Tensor.h</title>
<!-- Node1 -->
<g id="Node000001" class="node">
<title>Node1</title>
<g id="a_Node000001"><a xlink:title="张量类和相关操作的定义">
<polygon fill="#999999" stroke="#666666" points="617.5,-197.25 462,-197.25 462,-155.5 617.5,-155.5 617.5,-197.25"/>
<text xml:space="preserve" text-anchor="start" x="470" y="-183.75" font-family="Helvetica,sans-Serif" font-size="10.00">/Users/ghostface/CLionProjects</text>
<text xml:space="preserve" text-anchor="start" x="470" y="-172.5" font-family="Helvetica,sans-Serif" font-size="10.00">/Ctorch_2.13/CTorch/src/dev</text>
<text xml:space="preserve" text-anchor="middle" x="539.75" y="-161.25" font-family="Helvetica,sans-Serif" font-size="10.00">/Tensor.h</text>
</a>
</g>
</g>
<!-- Node2 -->
<g id="Node000002" class="node">
<title>Node2</title>
<g id="a_Node000002"><a xlink:href="_auto_diff_8cpp.html" target="_top" xlink:title="Ctorch 自动微分系统实现">
<polygon fill="white" stroke="#666666" points="155.5,-119.5 0,-119.5 0,-77.75 155.5,-77.75 155.5,-119.5"/>
<text xml:space="preserve" text-anchor="start" x="8" y="-106" font-family="Helvetica,sans-Serif" font-size="10.00">/Users/ghostface/CLionProjects</text>
<text xml:space="preserve" text-anchor="start" x="8" y="-94.75" font-family="Helvetica,sans-Serif" font-size="10.00">/Ctorch_2.13/CTorch/src/dev</text>
<text xml:space="preserve" text-anchor="middle" x="77.75" y="-83.5" font-family="Helvetica,sans-Serif" font-size="10.00">/AutoDiff.cpp</text>
</a>
</g>
</g>
<!-- Node1&#45;&gt;Node2 -->
<g id="edge1_Node000001_Node000002" class="edge">
<title>Node1&#45;&gt;Node2</title>
<g id="a_edge1_Node000001_Node000002"><a xlink:title=" ">
<path fill="none" stroke="#63b8ff" d="M450.27,-163.47C375.17,-153.09 265.17,-136.99 169.75,-119.5 165.25,-118.67 160.63,-117.79 155.98,-116.88"/>
<polygon fill="#63b8ff" stroke="#63b8ff" points="449.67,-166.92 460.06,-164.82 450.63,-159.98 449.67,-166.92"/>
</a>
</g>
</g>
<!-- Node3 -->
<g id="Node000003" class="node">
<title>Node3</title>
<g id="a_Node000003"><a xlink:href="_ctorch___scheduler_8h.html" target="_top" xlink:title="Ctorch 框架的核心调度器类">
<polygon fill="white" stroke="#666666" points="405.5,-119.5 250,-119.5 250,-77.75 405.5,-77.75 405.5,-119.5"/>
<text xml:space="preserve" text-anchor="start" x="258" y="-106" font-family="Helvetica,sans-Serif" font-size="10.00">/Users/ghostface/CLionProjects</text>
<text xml:space="preserve" text-anchor="start" x="258" y="-94.75" font-family="Helvetica,sans-Serif" font-size="10.00">/Ctorch_2.13/CTorch/src/dev</text>
<text xml:space="preserve" text-anchor="middle" x="327.75" y="-83.5" font-family="Helvetica,sans-Serif" font-size="10.00">/Ctorch_Scheduler.h</text>
</a>
</g>
</g>
<!-- Node1&#45;&gt;Node3 -->
<g id="edge2_Node000001_Node000003" class="edge">
<title>Node1&#45;&gt;Node3</title>
<g id="a_edge2_Node000001_Node000003"><a xlink:title=" ">
<path fill="none" stroke="#63b8ff" d="M472.35,-151.29C444.14,-141.21 411.71,-129.63 384.72,-119.98"/>
<polygon fill="#63b8ff" stroke="#63b8ff" points="470.92,-154.5 481.51,-154.57 473.27,-147.91 470.92,-154.5"/>
</a>
</g>
</g>
<!-- Node4 -->
<g id="Node000004" class="node">
<title>Node4</title>
<g id="a_Node000004"><a xlink:href="_tensor_8cpp.html" target="_top" xlink:title="张量类的实现">
<polygon fill="white" stroke="#666666" points="197.5,-41.75 42,-41.75 42,0 197.5,0 197.5,-41.75"/>
<text xml:space="preserve" text-anchor="start" x="50" y="-28.25" font-family="Helvetica,sans-Serif" font-size="10.00">/Users/ghostface/CLionProjects</text>
<text xml:space="preserve" text-anchor="start" x="50" y="-17" font-family="Helvetica,sans-Serif" font-size="10.00">/Ctorch_2.13/CTorch/src/dev</text>
<text xml:space="preserve" text-anchor="middle" x="119.75" y="-5.75" font-family="Helvetica,sans-Serif" font-size="10.00">/Tensor.cpp</text>
</a>
</g>
</g>
<!-- Node1&#45;&gt;Node4 -->
<g id="edge6_Node000001_Node000004" class="edge">
<title>Node1&#45;&gt;Node4</title>
<g id="a_edge6_Node000001_Node000004"><a xlink:title=" ">
<path fill="none" stroke="#63b8ff" d="M450.32,-172.08C386.15,-166.72 299.13,-153.19 229.75,-119.5 191.16,-100.76 155.85,-64.57 136.13,-41.91"/>
<polygon fill="#63b8ff" stroke="#63b8ff" points="449.87,-175.55 460.11,-172.84 450.41,-168.57 449.87,-175.55"/>
</a>
</g>
</g>
<!-- Node5 -->
<g id="Node000005" class="node">
<title>Node5</title>
<g id="a_Node000005"><a xlink:href="large__scale__test_8cpp.html" target="_top" xlink:title="大规模Tensor计算测试和20个节点的自动微分测试">
<polygon fill="white" stroke="#666666" points="371.5,-41.75 216,-41.75 216,0 371.5,0 371.5,-41.75"/>
<text xml:space="preserve" text-anchor="start" x="224" y="-28.25" font-family="Helvetica,sans-Serif" font-size="10.00">/Users/ghostface/CLionProjects</text>
<text xml:space="preserve" text-anchor="start" x="224" y="-17" font-family="Helvetica,sans-Serif" font-size="10.00">/Ctorch_2.13/CTorch/src/dev</text>
<text xml:space="preserve" text-anchor="middle" x="293.75" y="-5.75" font-family="Helvetica,sans-Serif" font-size="10.00">/large_scale_test.cpp</text>
</a>
</g>
</g>
<!-- Node1&#45;&gt;Node5 -->
<g id="edge7_Node000001_Node000005" class="edge">
<title>Node1&#45;&gt;Node5</title>
<g id="a_edge7_Node000001_Node000005"><a xlink:title=" ">
<path fill="none" stroke="#63b8ff" d="M450.32,-170.95C372.12,-164.98 267.04,-151.16 240.75,-119.5 220.79,-95.46 247.32,-62.76 269.49,-41.97"/>
<polygon fill="#63b8ff" stroke="#63b8ff" points="449.91,-174.42 460.14,-171.66 450.42,-167.44 449.91,-174.42"/>
</a>
</g>
</g>
<!-- Node6 -->
<g id="Node000006" class="node">
<title>Node6</title>
<g id="a_Node000006"><a xlink:href="main_8cpp.html" target="_top" xlink:title=" ">
<polygon fill="white" stroke="#666666" points="545.5,-41.75 390,-41.75 390,0 545.5,0 545.5,-41.75"/>
<text xml:space="preserve" text-anchor="start" x="398" y="-28.25" font-family="Helvetica,sans-Serif" font-size="10.00">/Users/ghostface/CLionProjects</text>
<text xml:space="preserve" text-anchor="start" x="398" y="-17" font-family="Helvetica,sans-Serif" font-size="10.00">/Ctorch_2.13/CTorch/src/dev</text>
<text xml:space="preserve" text-anchor="middle" x="467.75" y="-5.75" font-family="Helvetica,sans-Serif" font-size="10.00">/main.cpp</text>
</a>
</g>
</g>
<!-- Node1&#45;&gt;Node6 -->
<g id="edge8_Node000001_Node000006" class="edge">
<title>Node1&#45;&gt;Node6</title>
<g id="a_edge8_Node000001_Node000006"><a xlink:title=" ">
<path fill="none" stroke="#63b8ff" d="M480.8,-149.04C469.56,-141.21 459.27,-131.44 452.75,-119.5 439.52,-95.27 448.86,-62.9 457.62,-42.22"/>
<polygon fill="#63b8ff" stroke="#63b8ff" points="478.83,-151.93 489.14,-154.36 482.59,-146.03 478.83,-151.93"/>
</a>
</g>
</g>
<!-- Node7 -->
<g id="Node000007" class="node">
<title>Node7</title>
<g id="a_Node000007"><a xlink:href="performance__test_8cpp.html" target="_top" xlink:title=" ">
<polygon fill="white" stroke="#666666" points="617.5,-119.5 462,-119.5 462,-77.75 617.5,-77.75 617.5,-119.5"/>
<text xml:space="preserve" text-anchor="start" x="470" y="-106" font-family="Helvetica,sans-Serif" font-size="10.00">/Users/ghostface/CLionProjects</text>
<text xml:space="preserve" text-anchor="start" x="470" y="-94.75" font-family="Helvetica,sans-Serif" font-size="10.00">/Ctorch_2.13/CTorch/src/dev</text>
<text xml:space="preserve" text-anchor="middle" x="539.75" y="-83.5" font-family="Helvetica,sans-Serif" font-size="10.00">/performance_test.cpp</text>
</a>
</g>
</g>
<!-- Node1&#45;&gt;Node7 -->
<g id="edge9_Node000001_Node000007" class="edge">
<title>Node1&#45;&gt;Node7</title>
<g id="a_edge9_Node000001_Node000007"><a xlink:title=" ">
<path fill="none" stroke="#63b8ff" d="M539.75,-143.75C539.75,-135.71 539.75,-127.29 539.75,-119.98"/>
<polygon fill="#63b8ff" stroke="#63b8ff" points="536.25,-143.56 539.75,-153.56 543.25,-143.56 536.25,-143.56"/>
</a>
</g>
</g>
<!-- Node8 -->
<g id="Node000008" class="node">
<title>Node8</title>
<g id="a_Node000008"><a xlink:href="test_8cpp.html" target="_top" xlink:title=" ">
<polygon fill="white" stroke="#666666" points="791.5,-119.5 636,-119.5 636,-77.75 791.5,-77.75 791.5,-119.5"/>
<text xml:space="preserve" text-anchor="start" x="644" y="-106" font-family="Helvetica,sans-Serif" font-size="10.00">/Users/ghostface/CLionProjects</text>
<text xml:space="preserve" text-anchor="start" x="644" y="-94.75" font-family="Helvetica,sans-Serif" font-size="10.00">/Ctorch_2.13/CTorch/src/dev</text>
<text xml:space="preserve" text-anchor="middle" x="713.75" y="-83.5" font-family="Helvetica,sans-Serif" font-size="10.00">/test.cpp</text>
</a>
</g>
</g>
<!-- Node1&#45;&gt;Node8 -->
<g id="edge10_Node000001_Node000008" class="edge">
<title>Node1&#45;&gt;Node8</title>
<g id="a_edge10_Node000001_Node000008"><a xlink:title=" ">
<path fill="none" stroke="#63b8ff" d="M596.91,-150.49C619.62,-140.6 645.42,-129.37 666.99,-119.98"/>
<polygon fill="#63b8ff" stroke="#63b8ff" points="595.54,-147.27 587.77,-154.47 598.33,-153.69 595.54,-147.27"/>
</a>
</g>
</g>
<!-- Node9 -->
<g id="Node000009" class="node">
<title>Node9</title>
<g id="a_Node000009"><a xlink:href="test__activation__loss_8cpp.html" target="_top" xlink:title="测试激活函数和损失函数">
<polygon fill="white" stroke="#666666" points="965.5,-119.5 810,-119.5 810,-77.75 965.5,-77.75 965.5,-119.5"/>
<text xml:space="preserve" text-anchor="start" x="818" y="-106" font-family="Helvetica,sans-Serif" font-size="10.00">/Users/ghostface/CLionProjects</text>
<text xml:space="preserve" text-anchor="start" x="818" y="-94.75" font-family="Helvetica,sans-Serif" font-size="10.00">/Ctorch_2.13/CTorch/src/dev</text>
<text xml:space="preserve" text-anchor="middle" x="887.75" y="-83.5" font-family="Helvetica,sans-Serif" font-size="10.00">/test_activation_loss.cpp</text>
</a>
</g>
</g>
<!-- Node1&#45;&gt;Node9 -->
<g id="edge11_Node000001_Node000009" class="edge">
<title>Node1&#45;&gt;Node9</title>
<g id="a_edge11_Node000001_Node000009"><a xlink:title=" ">
<path fill="none" stroke="#63b8ff" d="M628.96,-156.59C679.41,-145.89 743.65,-132.13 800.75,-119.5 803.62,-118.86 806.55,-118.21 809.51,-117.55"/>
<polygon fill="#63b8ff" stroke="#63b8ff" points="628.29,-153.16 619.24,-158.65 629.75,-160 628.29,-153.16"/>
</a>
</g>
</g>
<!-- Node10 -->
<g id="Node000010" class="node">
<title>Node10</title>
<g id="a_Node000010"><a xlink:href="test__autodiff__comprehensive_8cpp.html" target="_top" xlink:title=" ">
<polygon fill="white" stroke="#666666" points="1146.25,-119.5 983.25,-119.5 983.25,-77.75 1146.25,-77.75 1146.25,-119.5"/>
<text xml:space="preserve" text-anchor="start" x="991.25" y="-106" font-family="Helvetica,sans-Serif" font-size="10.00">/Users/ghostface/CLionProjects</text>
<text xml:space="preserve" text-anchor="start" x="991.25" y="-94.75" font-family="Helvetica,sans-Serif" font-size="10.00">/Ctorch_2.13/CTorch/src/dev</text>
<text xml:space="preserve" text-anchor="middle" x="1064.75" y="-83.5" font-family="Helvetica,sans-Serif" font-size="10.00">/test_autodiff_comprehensive.cpp</text>
</a>
</g>
</g>
<!-- Node1&#45;&gt;Node10 -->
<g id="edge12_Node000001_Node000010" class="edge">
<title>Node1&#45;&gt;Node10</title>
<g id="a_edge12_Node000001_Node000010"><a xlink:title=" ">
<path fill="none" stroke="#63b8ff" d="M629.16,-166.26C717.35,-156.71 855.82,-140.23 974.75,-119.5 977.43,-119.03 980.15,-118.54 982.9,-118.03"/>
<polygon fill="#63b8ff" stroke="#63b8ff" points="628.93,-162.76 619.36,-167.31 629.68,-169.72 628.93,-162.76"/>
</a>
</g>
</g>
<!-- Node11 -->
<g id="Node000011" class="node">
<title>Node11</title>
<g id="a_Node000011"><a xlink:href="test__linear__regression_8cpp.html" target="_top" xlink:title=" ">
<polygon fill="white" stroke="#666666" points="1319.5,-119.5 1164,-119.5 1164,-77.75 1319.5,-77.75 1319.5,-119.5"/>
<text xml:space="preserve" text-anchor="start" x="1172" y="-106" font-family="Helvetica,sans-Serif" font-size="10.00">/Users/ghostface/CLionProjects</text>
<text xml:space="preserve" text-anchor="start" x="1172" y="-94.75" font-family="Helvetica,sans-Serif" font-size="10.00">/Ctorch_2.13/CTorch/src/dev</text>
<text xml:space="preserve" text-anchor="middle" x="1241.75" y="-83.5" font-family="Helvetica,sans-Serif" font-size="10.00">/test_linear_regression.cpp</text>
</a>
</g>
</g>
<!-- Node1&#45;&gt;Node11 -->
<g id="edge13_Node000001_Node000011" class="edge">
<title>Node1&#45;&gt;Node11</title>
<g id="a_edge13_Node000001_Node000011"><a xlink:title=" ">
<path fill="none" stroke="#63b8ff" d="M629.29,-171.1C749.61,-164.47 969.83,-149.27 1155.75,-119.5 1158.32,-119.09 1160.93,-118.64 1163.56,-118.17"/>
<polygon fill="#63b8ff" stroke="#63b8ff" points="629.28,-167.59 619.48,-171.63 629.65,-174.58 629.28,-167.59"/>
</a>
</g>
</g>
<!-- Node12 -->
<g id="Node000012" class="node">
<title>Node12</title>
<g id="a_Node000012"><a xlink:href="test__tensor__grad_8cpp.html" target="_top" xlink:title=" ">
<polygon fill="white" stroke="#666666" points="1493.5,-119.5 1338,-119.5 1338,-77.75 1493.5,-77.75 1493.5,-119.5"/>
<text xml:space="preserve" text-anchor="start" x="1346" y="-106" font-family="Helvetica,sans-Serif" font-size="10.00">/Users/ghostface/CLionProjects</text>
<text xml:space="preserve" text-anchor="start" x="1346" y="-94.75" font-family="Helvetica,sans-Serif" font-size="10.00">/Ctorch_2.13/CTorch/src/dev</text>
<text xml:space="preserve" text-anchor="middle" x="1415.75" y="-83.5" font-family="Helvetica,sans-Serif" font-size="10.00">/test_tensor_grad.cpp</text>
</a>
</g>
</g>
<!-- Node1&#45;&gt;Node12 -->
<g id="edge14_Node000001_Node000012" class="edge">
<title>Node1&#45;&gt;Node12</title>
<g id="a_edge14_Node000001_Node000012"><a xlink:title=" ">
<path fill="none" stroke="#63b8ff" d="M628.88,-173.53C775.57,-169.48 1076.73,-156.98 1328.75,-119.5 1331.66,-119.07 1334.62,-118.59 1337.6,-118.07"/>
<polygon fill="#63b8ff" stroke="#63b8ff" points="629.15,-170.02 619.25,-173.78 629.34,-177.01 629.15,-170.02"/>
</a>
</g>
</g>
<!-- Node3&#45;&gt;Node4 -->
<g id="edge3_Node000003_Node000004" class="edge">
<title>Node3&#45;&gt;Node4</title>
<g id="a_edge3_Node000003_Node000004"><a xlink:title=" ">
<path fill="none" stroke="#63b8ff" d="M261.26,-73.41C233.67,-63.36 202.01,-51.83 175.64,-42.23"/>
<polygon fill="#63b8ff" stroke="#63b8ff" points="259.99,-76.67 270.59,-76.81 262.39,-70.1 259.99,-76.67"/>
</a>
</g>
</g>
<!-- Node3&#45;&gt;Node5 -->
<g id="edge4_Node000003_Node000005" class="edge">
<title>Node3&#45;&gt;Node5</title>
<g id="a_edge4_Node000003_Node000005"><a xlink:title=" ">
<path fill="none" stroke="#63b8ff" d="M313.93,-66.84C310.21,-58.55 306.28,-49.79 302.89,-42.23"/>
<polygon fill="#63b8ff" stroke="#63b8ff" points="310.73,-68.25 318.02,-75.94 317.12,-65.39 310.73,-68.25"/>
</a>
</g>
</g>
<!-- Node3&#45;&gt;Node6 -->
<g id="edge5_Node000003_Node000006" class="edge">
<title>Node3&#45;&gt;Node6</title>
<g id="a_edge5_Node000003_Node000006"><a xlink:title=" ">
<path fill="none" stroke="#63b8ff" d="M375.23,-71.93C393.14,-62.24 413.25,-51.37 430.13,-42.23"/>
<polygon fill="#63b8ff" stroke="#63b8ff" points="373.73,-68.77 366.6,-76.61 377.06,-74.92 373.73,-68.77"/>
</a>
</g>
</g>
</g>
</svg>
