<?xml version="1.0" encoding="UTF-8" standalone="no"?>
<!DOCTYPE svg PUBLIC "-//W3C//DTD SVG 1.1//EN"
 "http://www.w3.org/Graphics/SVG/1.1/DTD/svg11.dtd">
<!-- Generated by graphviz version 14.1.1 (20251213.1925)
 -->
<!-- Title: Tensor.cpp Pages: 1 -->
<svg width="1308pt" height="359pt"
 viewBox="0.00 0.00 1308.00 359.00" xmlns="http://www.w3.org/2000/svg" xmlns:xlink="http://www.w3.org/1999/xlink">
<g id="graph0" class="graph" transform="scale(1 1) rotate(0) translate(4 354.75)">
<title>Tensor.cpp</title>
<!-- Node1 -->
<g id="Node000001" class="node">
<title>Node1</title>
<g id="a_Node000001"><a xlink:title="张量类的实现">
<polygon fill="#999999" stroke="#666666" points="155.75,-350.75 92.5,-350.75 92.5,-331.5 155.75,-331.5 155.75,-350.75"/>
<text xml:space="preserve" text-anchor="middle" x="124.12" y="-337.25" font-family="Helvetica,sans-Serif" font-size="10.00">Tensor.cpp</text>
</a>
</g>
</g>
<!-- Node2 -->
<g id="Node000002" class="node">
<title>Node2</title>
<g id="a_Node000002"><a xlink:href="_tensor_8h.html" target="_top" xlink:title="张量类和相关操作的定义">
<polygon fill="white" stroke="#666666" points="722.5,-240.25 669.75,-240.25 669.75,-221 722.5,-221 722.5,-240.25"/>
<text xml:space="preserve" text-anchor="middle" x="696.12" y="-226.75" font-family="Helvetica,sans-Serif" font-size="10.00">Tensor.h</text>
</a>
</g>
</g>
<!-- Node1&#45;&gt;Node2 -->
<g id="edge1_Node000001_Node000002" class="edge">
<title>Node1&#45;&gt;Node2</title>
<g id="a_edge1_Node000001_Node000002"><a xlink:title=" ">
<path fill="none" stroke="#63b8ff" d="M156.1,-334.06C254.52,-315.39 552.6,-258.85 658.39,-238.78"/>
<polygon fill="#63b8ff" stroke="#63b8ff" points="658.79,-242.27 667.97,-236.97 657.49,-235.39 658.79,-242.27"/>
</a>
</g>
</g>
<!-- Node32 -->
<g id="Node000032" class="node">
<title>Node32</title>
<g id="a_Node000032"><a xlink:title=" ">
<polygon fill="#e0e0e0" stroke="#999999" points="90.25,-240.25 0,-240.25 0,-221 90.25,-221 90.25,-240.25"/>
<text xml:space="preserve" text-anchor="middle" x="45.12" y="-226.75" font-family="Helvetica,sans-Serif" font-size="10.00">kernels/kernels.h</text>
</a>
</g>
</g>
<!-- Node1&#45;&gt;Node32 -->
<g id="edge57_Node000001_Node000032" class="edge">
<title>Node1&#45;&gt;Node32</title>
<g id="a_edge57_Node000001_Node000032"><a xlink:title=" ">
<path fill="none" stroke="#63b8ff" d="M106.43,-331.09C92.97,-323.36 74.99,-311.03 64.12,-295.5 55.08,-282.57 50.28,-265.28 47.77,-251.95"/>
<polygon fill="#63b8ff" stroke="#63b8ff" points="51.24,-251.49 46.23,-242.15 44.32,-252.58 51.24,-251.49"/>
</a>
</g>
</g>
<!-- Node33 -->
<g id="Node000033" class="node">
<title>Node33</title>
<g id="a_Node000033"><a xlink:href="_ctorch___scheduler_8h.html" target="_top" xlink:title="Ctorch 框架的核心调度器类">
<polygon fill="white" stroke="#666666" points="174.88,-295.5 73.38,-295.5 73.38,-276.25 174.88,-276.25 174.88,-295.5"/>
<text xml:space="preserve" text-anchor="middle" x="124.12" y="-282" font-family="Helvetica,sans-Serif" font-size="10.00">Ctorch_Scheduler.h</text>
</a>
</g>
</g>
<!-- Node1&#45;&gt;Node33 -->
<g id="edge58_Node000001_Node000033" class="edge">
<title>Node1&#45;&gt;Node33</title>
<g id="a_edge58_Node000001_Node000033"><a xlink:title=" ">
<path fill="none" stroke="#63b8ff" d="M124.12,-331.33C124.12,-324.82 124.12,-315.67 124.12,-307.37"/>
<polygon fill="#63b8ff" stroke="#63b8ff" points="127.63,-307.37 124.13,-297.37 120.63,-307.37 127.63,-307.37"/>
</a>
</g>
</g>
<!-- Node3 -->
<g id="Node000003" class="node">
<title>Node3</title>
<g id="a_Node000003"><a xlink:title=" ">
<polygon fill="#e0e0e0" stroke="#999999" points="1245,-185 1189.25,-185 1189.25,-165.75 1245,-165.75 1245,-185"/>
<text xml:space="preserve" text-anchor="middle" x="1217.12" y="-171.5" font-family="Helvetica,sans-Serif" font-size="10.00">algorithm</text>
</a>
</g>
</g>
<!-- Node2&#45;&gt;Node3 -->
<g id="edge2_Node000002_Node000003" class="edge">
<title>Node2&#45;&gt;Node3</title>
<g id="a_edge2_Node000002_Node000003"><a xlink:title=" ">
<path fill="none" stroke="#63b8ff" d="M722.99,-228.16C795.98,-223.95 1003.92,-210.48 1175.12,-185 1176.12,-184.85 1177.13,-184.69 1178.15,-184.53"/>
<polygon fill="#63b8ff" stroke="#63b8ff" points="1178.47,-188.03 1187.7,-182.82 1177.24,-181.14 1178.47,-188.03"/>
</a>
</g>
</g>
<!-- Node4 -->
<g id="Node000004" class="node">
<title>Node4</title>
<g id="a_Node000004"><a xlink:title=" ">
<polygon fill="#e0e0e0" stroke="#999999" points="232.25,-185 184,-185 184,-165.75 232.25,-165.75 232.25,-185"/>
<text xml:space="preserve" text-anchor="middle" x="208.12" y="-171.5" font-family="Helvetica,sans-Serif" font-size="10.00">cstddef</text>
</a>
</g>
</g>
<!-- Node2&#45;&gt;Node4 -->
<g id="edge3_Node000002_Node000004" class="edge">
<title>Node2&#45;&gt;Node4</title>
<g id="a_edge3_Node000002_Node000004"><a xlink:title=" ">
<path fill="none" stroke="#63b8ff" d="M669.35,-228.14C599.4,-223.99 405.57,-210.9 246.12,-185 245.3,-184.87 244.46,-184.72 243.62,-184.58"/>
<polygon fill="#63b8ff" stroke="#63b8ff" points="244.54,-181.19 234.05,-182.69 243.18,-188.06 244.54,-181.19"/>
</a>
</g>
</g>
<!-- Node5 -->
<g id="Node000005" class="node">
<title>Node5</title>
<g id="a_Node000005"><a xlink:href="_ctorch___error_8h.html" target="_top" xlink:title="Ctorch 错误处理类">
<polygon fill="white" stroke="#666666" points="562.62,-129.75 483.62,-129.75 483.62,-110.5 562.62,-110.5 562.62,-129.75"/>
<text xml:space="preserve" text-anchor="middle" x="523.12" y="-116.25" font-family="Helvetica,sans-Serif" font-size="10.00">Ctorch_Error.h</text>
</a>
</g>
</g>
<!-- Node2&#45;&gt;Node5 -->
<g id="edge4_Node000002_Node000005" class="edge">
<title>Node2&#45;&gt;Node5</title>
<g id="a_edge4_Node000002_Node000005"><a xlink:title=" ">
<path fill="none" stroke="#63b8ff" d="M669.59,-226.06C627.71,-219.87 549.18,-205.77 531.12,-185 520.91,-173.25 519.44,-155.36 520.23,-141.51"/>
<polygon fill="#63b8ff" stroke="#63b8ff" points="523.7,-142.02 521.24,-131.71 516.73,-141.3 523.7,-142.02"/>
</a>
</g>
</g>
<!-- Node6 -->
<g id="Node000006" class="node">
<title>Node6</title>
<g id="a_Node000006"><a xlink:title=" ">
<polygon fill="#e0e0e0" stroke="#999999" points="864.75,-19.25 819.5,-19.25 819.5,0 864.75,0 864.75,-19.25"/>
<text xml:space="preserve" text-anchor="middle" x="842.12" y="-5.75" font-family="Helvetica,sans-Serif" font-size="10.00">cstring</text>
</a>
</g>
</g>
<!-- Node2&#45;&gt;Node6 -->
<g id="edge42_Node000002_Node000006" class="edge">
<title>Node2&#45;&gt;Node6</title>
<g id="a_edge42_Node000002_Node000006"><a xlink:title=" ">
<path fill="none" stroke="#63b8ff" d="M691.06,-220.62C684.64,-207.94 675.3,-184.31 683.12,-165.75 686.9,-156.79 783.47,-65.61 824.23,-27.37"/>
<polygon fill="#63b8ff" stroke="#63b8ff" points="826.45,-30.08 831.36,-20.69 821.67,-24.98 826.45,-30.08"/>
</a>
</g>
</g>
<!-- Node10 -->
<g id="Node000010" class="node">
<title>Node10</title>
<g id="a_Node000010"><a xlink:title=" ">
<polygon fill="#e0e0e0" stroke="#999999" points="340.12,-19.25 300.12,-19.25 300.12,0 340.12,0 340.12,-19.25"/>
<text xml:space="preserve" text-anchor="middle" x="320.12" y="-5.75" font-family="Helvetica,sans-Serif" font-size="10.00">string</text>
</a>
</g>
</g>
<!-- Node2&#45;&gt;Node10 -->
<g id="edge44_Node000002_Node000010" class="edge">
<title>Node2&#45;&gt;Node10</title>
<g id="a_edge44_Node000002_Node000010"><a xlink:title=" ">
<path fill="none" stroke="#63b8ff" d="M669.38,-228.7C628.36,-226.26 548.55,-217.35 490.12,-185 418.08,-145.11 357.26,-64.98 332.28,-28.93"/>
<polygon fill="#63b8ff" stroke="#63b8ff" points="335.33,-27.18 326.81,-20.88 329.54,-31.12 335.33,-27.18"/>
</a>
</g>
</g>
<!-- Node11 -->
<g id="Node000011" class="node">
<title>Node11</title>
<g id="a_Node000011"><a xlink:title=" ">
<polygon fill="#e0e0e0" stroke="#999999" points="213.75,-19.25 162.5,-19.25 162.5,0 213.75,0 213.75,-19.25"/>
<text xml:space="preserve" text-anchor="middle" x="188.12" y="-5.75" font-family="Helvetica,sans-Serif" font-size="10.00">sstream</text>
</a>
</g>
</g>
<!-- Node2&#45;&gt;Node11 -->
<g id="edge40_Node000002_Node000011" class="edge">
<title>Node2&#45;&gt;Node11</title>
<g id="a_edge40_Node000002_Node000011"><a xlink:title=" ">
<path fill="none" stroke="#63b8ff" d="M669.43,-229.4C567.76,-228.27 208.81,-221.7 175.12,-185 135.67,-142.02 162.79,-65.29 178.75,-29.71"/>
<polygon fill="#63b8ff" stroke="#63b8ff" points="181.73,-31.61 182.8,-21.07 175.39,-28.64 181.73,-31.61"/>
</a>
</g>
</g>
<!-- Node12 -->
<g id="Node000012" class="node">
<title>Node12</title>
<g id="a_Node000012"><a xlink:title=" ">
<polygon fill="#e0e0e0" stroke="#999999" points="282,-19.25 232.25,-19.25 232.25,0 282,0 282,-19.25"/>
<text xml:space="preserve" text-anchor="middle" x="257.12" y="-5.75" font-family="Helvetica,sans-Serif" font-size="10.00">iomanip</text>
</a>
</g>
</g>
<!-- Node2&#45;&gt;Node12 -->
<g id="edge43_Node000002_Node000012" class="edge">
<title>Node2&#45;&gt;Node12</title>
<g id="a_edge43_Node000002_Node000012"><a xlink:title=" ">
<path fill="none" stroke="#63b8ff" d="M669.37,-229.11C623.78,-227.29 529.1,-219.28 458.12,-185 376.41,-145.53 301.74,-63.95 271.43,-28.14"/>
<polygon fill="#63b8ff" stroke="#63b8ff" points="274.45,-26.3 265.36,-20.86 269.08,-30.78 274.45,-26.3"/>
</a>
</g>
</g>
<!-- Node17 -->
<g id="Node000017" class="node">
<title>Node17</title>
<g id="a_Node000017"><a xlink:href="_ctools_8h.html" target="_top" xlink:title="Ctorch 通用工具类，包含通用枚举类型和辅助函数">
<polygon fill="white" stroke="#666666" points="682.5,-74.5 629.75,-74.5 629.75,-55.25 682.5,-55.25 682.5,-74.5"/>
<text xml:space="preserve" text-anchor="middle" x="656.12" y="-61" font-family="Helvetica,sans-Serif" font-size="10.00">Ctools.h</text>
</a>
</g>
</g>
<!-- Node2&#45;&gt;Node17 -->
<g id="edge48_Node000002_Node000017" class="edge">
<title>Node2&#45;&gt;Node17</title>
<g id="a_edge48_Node000002_Node000017"><a xlink:title=" ">
<path fill="none" stroke="#63b8ff" d="M681.9,-220.6C670.91,-212.71 656.54,-200.17 650.12,-185 636.31,-152.36 643.65,-110.11 650.03,-85.7"/>
<polygon fill="#63b8ff" stroke="#63b8ff" points="653.38,-86.73 652.75,-76.16 646.65,-84.81 653.38,-86.73"/>
</a>
</g>
</g>
<!-- Node18 -->
<g id="Node000018" class="node">
<title>Node18</title>
<g id="a_Node000018"><a xlink:title=" ">
<polygon fill="#e0e0e0" stroke="#999999" points="1256.62,-19.25 1213.62,-19.25 1213.62,0 1256.62,0 1256.62,-19.25"/>
<text xml:space="preserve" text-anchor="middle" x="1235.12" y="-5.75" font-family="Helvetica,sans-Serif" font-size="10.00">vector</text>
</a>
</g>
</g>
<!-- Node2&#45;&gt;Node18 -->
<g id="edge39_Node000002_Node000018" class="edge">
<title>Node2&#45;&gt;Node18</title>
<g id="a_edge39_Node000002_Node000018"><a xlink:title=" ">
<path fill="none" stroke="#63b8ff" d="M722.67,-229.58C831.89,-229.13 1242.77,-224.78 1283.12,-185 1326.68,-142.07 1276.17,-63.52 1249.52,-28.41"/>
<polygon fill="#63b8ff" stroke="#63b8ff" points="1252.29,-26.27 1243.37,-20.55 1246.78,-30.58 1252.29,-26.27"/>
</a>
</g>
</g>
<!-- Node19 -->
<g id="Node000019" class="node">
<title>Node19</title>
<g id="a_Node000019"><a xlink:title=" ">
<polygon fill="#e0e0e0" stroke="#999999" points="1122.75,-19.25 1071.5,-19.25 1071.5,0 1122.75,0 1122.75,-19.25"/>
<text xml:space="preserve" text-anchor="middle" x="1097.12" y="-5.75" font-family="Helvetica,sans-Serif" font-size="10.00">memory</text>
</a>
</g>
</g>
<!-- Node2&#45;&gt;Node19 -->
<g id="edge36_Node000002_Node000019" class="edge">
<title>Node2&#45;&gt;Node19</title>
<g id="a_edge36_Node000002_Node000019"><a xlink:title=" ">
<path fill="none" stroke="#63b8ff" d="M722.88,-229.56C829.19,-229.03 1217.74,-224.41 1254.12,-185 1283.04,-153.68 1338.21,-180.75 1216.12,-55.25 1194.28,-32.79 1160.06,-21.52 1133.91,-15.93"/>
<polygon fill="#63b8ff" stroke="#63b8ff" points="1134.87,-12.55 1124.39,-14.09 1133.54,-19.43 1134.87,-12.55"/>
</a>
</g>
</g>
<!-- Node20 -->
<g id="Node000020" class="node">
<title>Node20</title>
<g id="a_Node000020"><a xlink:title=" ">
<polygon fill="#e0e0e0" stroke="#999999" points="411.88,-19.25 358.38,-19.25 358.38,0 411.88,0 411.88,-19.25"/>
<text xml:space="preserve" text-anchor="middle" x="385.12" y="-5.75" font-family="Helvetica,sans-Serif" font-size="10.00">iostream</text>
</a>
</g>
</g>
<!-- Node2&#45;&gt;Node20 -->
<g id="edge35_Node000002_Node000020" class="edge">
<title>Node2&#45;&gt;Node20</title>
<g id="a_edge35_Node000002_Node000020"><a xlink:title=" ">
<path fill="none" stroke="#63b8ff" d="M669.54,-228.32C632.75,-225.39 565.5,-215.87 518.12,-185 456.53,-144.86 412.18,-66.06 394.11,-29.76"/>
<polygon fill="#63b8ff" stroke="#63b8ff" points="397.35,-28.41 389.84,-20.94 391.04,-31.46 397.35,-28.41"/>
</a>
</g>
</g>
<!-- Node21 -->
<g id="Node000021" class="node">
<title>Node21</title>
<g id="a_Node000021"><a xlink:href="_storage_8h.html" target="_top" xlink:title="Ctorch 存储类，用于管理张量数据的底层存储">
<polygon fill="white" stroke="#666666" points="598.12,-185 540.12,-185 540.12,-165.75 598.12,-165.75 598.12,-185"/>
<text xml:space="preserve" text-anchor="middle" x="569.12" y="-171.5" font-family="Helvetica,sans-Serif" font-size="10.00">Storage.h</text>
</a>
</g>
</g>
<!-- Node2&#45;&gt;Node21 -->
<g id="edge31_Node000002_Node000021" class="edge">
<title>Node2&#45;&gt;Node21</title>
<g id="a_edge31_Node000002_Node000021"><a xlink:title=" ">
<path fill="none" stroke="#63b8ff" d="M674.58,-220.59C654.51,-212.18 624.32,-199.52 601.38,-189.9"/>
<polygon fill="#63b8ff" stroke="#63b8ff" points="602.75,-186.68 592.17,-186.04 600.04,-193.13 602.75,-186.68"/>
</a>
</g>
</g>
<!-- Node22 -->
<g id="Node000022" class="node">
<title>Node22</title>
<g id="a_Node000022"><a xlink:title=" ">
<polygon fill="#e0e0e0" stroke="#999999" points="764.25,-185 692,-185 692,-165.75 764.25,-165.75 764.25,-185"/>
<text xml:space="preserve" text-anchor="middle" x="728.12" y="-171.5" font-family="Helvetica,sans-Serif" font-size="10.00">initializer_list</text>
</a>
</g>
</g>
<!-- Node2&#45;&gt;Node22 -->
<g id="edge34_Node000002_Node000022" class="edge">
<title>Node2&#45;&gt;Node22</title>
<g id="a_edge34_Node000002_Node000022"><a xlink:title=" ">
<path fill="none" stroke="#63b8ff" d="M701.41,-220.83C705.6,-213.86 711.6,-203.87 716.86,-195.12"/>
<polygon fill="#63b8ff" stroke="#63b8ff" points="719.8,-197.03 721.95,-186.66 713.8,-193.43 719.8,-197.03"/>
</a>
</g>
</g>
<!-- Node23 -->
<g id="Node000023" class="node">
<title>Node23</title>
<g id="a_Node000023"><a xlink:title=" ">
<polygon fill="#e0e0e0" stroke="#999999" points="832.38,-185 781.88,-185 781.88,-165.75 832.38,-165.75 832.38,-185"/>
<text xml:space="preserve" text-anchor="middle" x="807.12" y="-171.5" font-family="Helvetica,sans-Serif" font-size="10.00">numeric</text>
</a>
</g>
</g>
<!-- Node2&#45;&gt;Node23 -->
<g id="edge37_Node000002_Node000023" class="edge">
<title>Node2&#45;&gt;Node23</title>
<g id="a_edge37_Node000002_Node000023"><a xlink:title=" ">
<path fill="none" stroke="#63b8ff" d="M714.95,-220.59C732.18,-212.33 757.93,-199.98 777.83,-190.43"/>
<polygon fill="#63b8ff" stroke="#63b8ff" points="779.34,-193.59 786.84,-186.11 776.31,-187.28 779.34,-193.59"/>
</a>
</g>
</g>
<!-- Node24 -->
<g id="Node000024" class="node">
<title>Node24</title>
<g id="a_Node000024"><a xlink:title=" ">
<polygon fill="#e0e0e0" stroke="#999999" points="909.5,-185 850.75,-185 850.75,-165.75 909.5,-165.75 909.5,-185"/>
<text xml:space="preserve" text-anchor="middle" x="880.12" y="-171.5" font-family="Helvetica,sans-Serif" font-size="10.00">stdexcept</text>
</a>
</g>
</g>
<!-- Node2&#45;&gt;Node24 -->
<g id="edge38_Node000002_Node000024" class="edge">
<title>Node2&#45;&gt;Node24</title>
<g id="a_edge38_Node000002_Node000024"><a xlink:title=" ">
<path fill="none" stroke="#63b8ff" d="M722.88,-221.88C753.46,-213.03 803.85,-198.45 839.33,-188.18"/>
<polygon fill="#63b8ff" stroke="#63b8ff" points="840.2,-191.57 848.83,-185.43 838.25,-184.85 840.2,-191.57"/>
</a>
</g>
</g>
<!-- Node25 -->
<g id="Node000025" class="node">
<title>Node25</title>
<g id="a_Node000025"><a xlink:title=" ">
<polygon fill="#e0e0e0" stroke="#999999" points="985.12,-185 927.12,-185 927.12,-165.75 985.12,-165.75 985.12,-185"/>
<text xml:space="preserve" text-anchor="middle" x="956.12" y="-171.5" font-family="Helvetica,sans-Serif" font-size="10.00">functional</text>
</a>
</g>
</g>
<!-- Node2&#45;&gt;Node25 -->
<g id="edge41_Node000002_Node000025" class="edge">
<title>Node2&#45;&gt;Node25</title>
<g id="a_edge41_Node000002_Node000025"><a xlink:title=" ">
<path fill="none" stroke="#63b8ff" d="M722.82,-224.48C762.6,-216.77 840.06,-201.57 915.56,-185.51"/>
<polygon fill="#63b8ff" stroke="#63b8ff" points="916.15,-188.96 925.2,-183.45 914.69,-182.12 916.15,-188.96"/>
</a>
</g>
</g>
<!-- Node26 -->
<g id="Node000026" class="node">
<title>Node26</title>
<g id="a_Node000026"><a xlink:title=" ">
<polygon fill="#e0e0e0" stroke="#999999" points="967.88,-74.5 890.38,-74.5 890.38,-55.25 967.88,-55.25 967.88,-74.5"/>
<text xml:space="preserve" text-anchor="middle" x="929.12" y="-61" font-family="Helvetica,sans-Serif" font-size="10.00">unordered_set</text>
</a>
</g>
</g>
<!-- Node2&#45;&gt;Node26 -->
<g id="edge45_Node000002_Node000026" class="edge">
<title>Node2&#45;&gt;Node26</title>
<g id="a_edge45_Node000002_Node000026"><a xlink:title=" ">
<path fill="none" stroke="#63b8ff" d="M722.73,-229.85C789.09,-229.8 959.13,-225.63 994.12,-185 1022.03,-152.6 977.7,-106.27 949.53,-82.04"/>
<polygon fill="#63b8ff" stroke="#63b8ff" points="951.82,-79.39 941.89,-75.69 947.35,-84.78 951.82,-79.39"/>
</a>
</g>
</g>
<!-- Node27 -->
<g id="Node000027" class="node">
<title>Node27</title>
<g id="a_Node000027"><a xlink:title=" ">
<polygon fill="#e0e0e0" stroke="#999999" points="1080.75,-185 1041.5,-185 1041.5,-165.75 1080.75,-165.75 1080.75,-185"/>
<text xml:space="preserve" text-anchor="middle" x="1061.12" y="-171.5" font-family="Helvetica,sans-Serif" font-size="10.00">limits</text>
</a>
</g>
</g>
<!-- Node2&#45;&gt;Node27 -->
<g id="edge46_Node000002_Node000027" class="edge">
<title>Node2&#45;&gt;Node27</title>
<g id="a_edge46_Node000002_Node000027"><a xlink:title=" ">
<path fill="none" stroke="#63b8ff" d="M722.89,-227.07C779.42,-221.43 914.98,-206.71 1027.12,-185 1028.12,-184.81 1029.13,-184.6 1030.14,-184.39"/>
<polygon fill="#63b8ff" stroke="#63b8ff" points="1030.64,-187.87 1039.6,-182.21 1029.07,-181.05 1030.64,-187.87"/>
</a>
</g>
</g>
<!-- Node28 -->
<g id="Node000028" class="node">
<title>Node28</title>
<g id="a_Node000028"><a xlink:title=" ">
<polygon fill="#e0e0e0" stroke="#999999" points="1133.5,-185 1098.75,-185 1098.75,-165.75 1133.5,-165.75 1133.5,-185"/>
<text xml:space="preserve" text-anchor="middle" x="1116.12" y="-171.5" font-family="Helvetica,sans-Serif" font-size="10.00">map</text>
</a>
</g>
</g>
<!-- Node2&#45;&gt;Node28 -->
<g id="edge47_Node000002_Node000028" class="edge">
<title>Node2&#45;&gt;Node28</title>
<g id="a_edge47_Node000002_Node000028"><a xlink:title=" ">
<path fill="none" stroke="#63b8ff" d="M722.72,-228.52C785.07,-225.52 945.55,-215.48 1087.32,-185.22"/>
<polygon fill="#63b8ff" stroke="#63b8ff" points="1087.85,-188.68 1096.88,-183.13 1086.36,-181.84 1087.85,-188.68"/>
</a>
</g>
</g>
<!-- Node29 -->
<g id="Node000029" class="node">
<title>Node29</title>
<g id="a_Node000029"><a xlink:href="_auto_diff_8h.html" target="_top" xlink:title="Ctorch 自动微分系统">
<polygon fill="white" stroke="#666666" points="1114.25,-129.75 1054,-129.75 1054,-110.5 1114.25,-110.5 1114.25,-129.75"/>
<text xml:space="preserve" text-anchor="middle" x="1084.12" y="-116.25" font-family="Helvetica,sans-Serif" font-size="10.00">AutoDiff.h</text>
</a>
</g>
</g>
<!-- Node2&#45;&gt;Node29 -->
<g id="edge49_Node000002_Node000029" class="edge">
<title>Node2&#45;&gt;Node29</title>
<g id="a_edge49_Node000002_Node000029"><a xlink:title=" ">
<path fill="none" stroke="#63b8ff" d="M722.68,-229C814.42,-226.55 1113.86,-216.23 1142.12,-185 1157.4,-168.13 1134.11,-148.78 1112.65,-135.84"/>
<polygon fill="#63b8ff" stroke="#63b8ff" points="1114.5,-132.86 1104.08,-130.96 1111.04,-138.95 1114.5,-132.86"/>
</a>
</g>
</g>
<!-- Node5&#45;&gt;Node6 -->
<g id="edge5_Node000005_Node000006" class="edge">
<title>Node5&#45;&gt;Node6</title>
<g id="a_edge5_Node000005_Node000006"><a xlink:title=" ">
<path fill="none" stroke="#63b8ff" d="M562.75,-115.26C607.21,-109.96 680.86,-98.25 740.12,-74.5 770.65,-62.27 802.2,-40.93 821.98,-26.31"/>
<polygon fill="#63b8ff" stroke="#63b8ff" points="823.85,-29.28 829.72,-20.46 819.63,-23.69 823.85,-29.28"/>
</a>
</g>
</g>
<!-- Node7 -->
<g id="Node000007" class="node">
<title>Node7</title>
<g id="a_Node000007"><a xlink:title=" ">
<polygon fill="#e0e0e0" stroke="#999999" points="618.75,-19.25 573.5,-19.25 573.5,0 618.75,0 618.75,-19.25"/>
<text xml:space="preserve" text-anchor="middle" x="596.12" y="-5.75" font-family="Helvetica,sans-Serif" font-size="10.00">chrono</text>
</a>
</g>
</g>
<!-- Node5&#45;&gt;Node7 -->
<g id="edge6_Node000005_Node000007" class="edge">
<title>Node5&#45;&gt;Node7</title>
<g id="a_edge6_Node000005_Node000007"><a xlink:title=" ">
<path fill="none" stroke="#63b8ff" d="M529.1,-110.25C541.02,-92.52 567.99,-52.44 583.84,-28.88"/>
<polygon fill="#63b8ff" stroke="#63b8ff" points="586.55,-31.13 589.22,-20.88 580.74,-27.23 586.55,-31.13"/>
</a>
</g>
</g>
<!-- Node8 -->
<g id="Node000008" class="node">
<title>Node8</title>
<g id="a_Node000008"><a xlink:title=" ">
<polygon fill="#e0e0e0" stroke="#999999" points="742.75,-19.25 697.5,-19.25 697.5,0 742.75,0 742.75,-19.25"/>
<text xml:space="preserve" text-anchor="middle" x="720.12" y="-5.75" font-family="Helvetica,sans-Serif" font-size="10.00">cstdint</text>
</a>
</g>
</g>
<!-- Node5&#45;&gt;Node8 -->
<g id="edge7_Node000005_Node000008" class="edge">
<title>Node5&#45;&gt;Node8</title>
<g id="a_edge7_Node000005_Node000008"><a xlink:title=" ">
<path fill="none" stroke="#63b8ff" d="M562.84,-117.99C599.96,-114.95 654.95,-105.1 691.12,-74.5 704.36,-63.31 711.84,-44.82 715.88,-30.61"/>
<polygon fill="#63b8ff" stroke="#63b8ff" points="719.25,-31.52 718.23,-20.98 712.46,-29.86 719.25,-31.52"/>
</a>
</g>
</g>
<!-- Node9 -->
<g id="Node000009" class="node">
<title>Node9</title>
<g id="a_Node000009"><a xlink:title=" ">
<polygon fill="#e0e0e0" stroke="#999999" points="801.12,-19.25 761.12,-19.25 761.12,0 801.12,0 801.12,-19.25"/>
<text xml:space="preserve" text-anchor="middle" x="781.12" y="-5.75" font-family="Helvetica,sans-Serif" font-size="10.00">ctime</text>
</a>
</g>
</g>
<!-- Node5&#45;&gt;Node9 -->
<g id="edge8_Node000005_Node000009" class="edge">
<title>Node5&#45;&gt;Node9</title>
<g id="a_edge8_Node000005_Node000009"><a xlink:title=" ">
<path fill="none" stroke="#63b8ff" d="M562.84,-115.7C602.59,-110.95 664.51,-99.86 712.12,-74.5 733.87,-62.92 753.96,-42.79 766.79,-28.22"/>
<polygon fill="#63b8ff" stroke="#63b8ff" points="769.33,-30.63 773.13,-20.74 763.99,-26.1 769.33,-30.63"/>
</a>
</g>
</g>
<!-- Node5&#45;&gt;Node10 -->
<g id="edge9_Node000005_Node000010" class="edge">
<title>Node5&#45;&gt;Node10</title>
<g id="a_edge9_Node000005_Node000010"><a xlink:title=" ">
<path fill="none" stroke="#63b8ff" d="M511.02,-110.1C493.09,-96.98 458.14,-72.34 426.12,-55.25 401.68,-42.2 372.58,-30.18 351.06,-21.91"/>
<polygon fill="#63b8ff" stroke="#63b8ff" points="352.57,-18.74 341.98,-18.48 350.09,-25.29 352.57,-18.74"/>
</a>
</g>
</g>
<!-- Node5&#45;&gt;Node11 -->
<g id="edge10_Node000005_Node000011" class="edge">
<title>Node5&#45;&gt;Node11</title>
<g id="a_edge10_Node000005_Node000011"><a xlink:title=" ">
<path fill="none" stroke="#63b8ff" d="M495.14,-110.06C434.79,-90.51 292.4,-44.4 224.88,-22.53"/>
<polygon fill="#63b8ff" stroke="#63b8ff" points="225.98,-19.21 215.38,-19.45 223.82,-25.86 225.98,-19.21"/>
</a>
</g>
</g>
<!-- Node5&#45;&gt;Node12 -->
<g id="edge11_Node000005_Node000012" class="edge">
<title>Node5&#45;&gt;Node12</title>
<g id="a_edge11_Node000005_Node000012"><a xlink:title=" ">
<path fill="none" stroke="#63b8ff" d="M502.96,-110.11C483.27,-101.25 452.5,-87.24 426.12,-74.5 409.08,-66.26 405.57,-62.6 388.12,-55.25 356.54,-41.95 319.49,-29.62 292.87,-21.3"/>
<polygon fill="#63b8ff" stroke="#63b8ff" points="294.17,-18.04 283.59,-18.44 292.11,-24.73 294.17,-18.04"/>
</a>
</g>
</g>
<!-- Node13 -->
<g id="Node000013" class="node">
<title>Node13</title>
<g id="a_Node000013"><a xlink:title=" ">
<polygon fill="#e0e0e0" stroke="#999999" points="478.25,-19.25 430,-19.25 430,0 478.25,0 478.25,-19.25"/>
<text xml:space="preserve" text-anchor="middle" x="454.12" y="-5.75" font-family="Helvetica,sans-Serif" font-size="10.00">stdint.h</text>
</a>
</g>
</g>
<!-- Node5&#45;&gt;Node13 -->
<g id="edge12_Node000005_Node000013" class="edge">
<title>Node5&#45;&gt;Node13</title>
<g id="a_edge12_Node000005_Node000013"><a xlink:title=" ">
<path fill="none" stroke="#63b8ff" d="M517.48,-110.25C506.26,-92.6 480.95,-52.8 465.93,-29.2"/>
<polygon fill="#63b8ff" stroke="#63b8ff" points="468.98,-27.46 460.66,-20.9 463.07,-31.22 468.98,-27.46"/>
</a>
</g>
</g>
<!-- Node14 -->
<g id="Node000014" class="node">
<title>Node14</title>
<g id="a_Node000014"><a xlink:title=" ">
<polygon fill="#e0e0e0" stroke="#999999" points="555.5,-19.25 496.75,-19.25 496.75,0 555.5,0 555.5,-19.25"/>
<text xml:space="preserve" text-anchor="middle" x="526.12" y="-5.75" font-family="Helvetica,sans-Serif" font-size="10.00">inttypes.h</text>
</a>
</g>
</g>
<!-- Node5&#45;&gt;Node14 -->
<g id="edge13_Node000005_Node000014" class="edge">
<title>Node5&#45;&gt;Node14</title>
<g id="a_edge13_Node000005_Node000014"><a xlink:title=" ">
<path fill="none" stroke="#63b8ff" d="M523.37,-110.25C523.85,-93 524.91,-54.58 525.57,-30.81"/>
<polygon fill="#63b8ff" stroke="#63b8ff" points="529.06,-31.23 525.83,-21.14 522.06,-31.04 529.06,-31.23"/>
</a>
</g>
</g>
<!-- Node15 -->
<g id="Node000015" class="node">
<title>Node15</title>
<g id="a_Node000015"><a xlink:title=" ">
<polygon fill="#e0e0e0" stroke="#999999" points="925.62,-19.25 882.62,-19.25 882.62,0 925.62,0 925.62,-19.25"/>
<text xml:space="preserve" text-anchor="middle" x="904.12" y="-5.75" font-family="Helvetica,sans-Serif" font-size="10.00">mutex</text>
</a>
</g>
</g>
<!-- Node5&#45;&gt;Node15 -->
<g id="edge14_Node000005_Node000015" class="edge">
<title>Node5&#45;&gt;Node15</title>
<g id="a_edge14_Node000005_Node000015"><a xlink:title=" ">
<path fill="none" stroke="#63b8ff" d="M562.92,-115.46C612.96,-110.07 701.03,-98.01 773.12,-74.5 811.82,-61.89 853.6,-39.91 879.32,-25.31"/>
<polygon fill="#63b8ff" stroke="#63b8ff" points="880.75,-28.52 887.67,-20.5 877.26,-22.46 880.75,-28.52"/>
</a>
</g>
</g>
<!-- Node16 -->
<g id="Node000016" class="node">
<title>Node16</title>
<g id="a_Node000016"><a xlink:title=" ">
<polygon fill="#e0e0e0" stroke="#999999" points="679.62,-19.25 636.62,-19.25 636.62,0 679.62,0 679.62,-19.25"/>
<text xml:space="preserve" text-anchor="middle" x="658.12" y="-5.75" font-family="Helvetica,sans-Serif" font-size="10.00">thread</text>
</a>
</g>
</g>
<!-- Node5&#45;&gt;Node16 -->
<g id="edge15_Node000005_Node000016" class="edge">
<title>Node5&#45;&gt;Node16</title>
<g id="a_edge15_Node000005_Node000016"><a xlink:title=" ">
<path fill="none" stroke="#63b8ff" d="M534.17,-110.25C556.92,-91.97 609.25,-49.9 638.11,-26.71"/>
<polygon fill="#63b8ff" stroke="#63b8ff" points="640.14,-29.57 645.74,-20.57 635.76,-24.11 640.14,-29.57"/>
</a>
</g>
</g>
<!-- Node5&#45;&gt;Node17 -->
<g id="edge16_Node000005_Node000017" class="edge">
<title>Node5&#45;&gt;Node17</title>
<g id="a_edge16_Node000005_Node000017"><a xlink:title=" ">
<path fill="none" stroke="#63b8ff" d="M545.69,-110.09C566.9,-101.6 598.9,-88.79 623,-79.14"/>
<polygon fill="#63b8ff" stroke="#63b8ff" points="624.06,-82.48 632.05,-75.52 621.46,-75.98 624.06,-82.48"/>
</a>
</g>
</g>
<!-- Node17&#45;&gt;Node6 -->
<g id="edge17_Node000017_Node000006" class="edge">
<title>Node17&#45;&gt;Node6</title>
<g id="a_edge17_Node000017_Node000006"><a xlink:title=" ">
<path fill="none" stroke="#63b8ff" d="M682.77,-56.25C715.77,-46.8 772.01,-30.7 808.09,-20.37"/>
<polygon fill="#63b8ff" stroke="#63b8ff" points="808.94,-23.77 817.59,-17.65 807.01,-17.04 808.94,-23.77"/>
</a>
</g>
</g>
<!-- Node17&#45;&gt;Node7 -->
<g id="edge18_Node000017_Node000007" class="edge">
<title>Node17&#45;&gt;Node7</title>
<g id="a_edge18_Node000017_Node000007"><a xlink:title=" ">
<path fill="none" stroke="#63b8ff" d="M645.95,-54.84C637.36,-47.22 624.86,-36.12 614.52,-26.95"/>
<polygon fill="#63b8ff" stroke="#63b8ff" points="617.09,-24.55 607.28,-20.53 612.44,-29.79 617.09,-24.55"/>
</a>
</g>
</g>
<!-- Node17&#45;&gt;Node8 -->
<g id="edge19_Node000017_Node000008" class="edge">
<title>Node17&#45;&gt;Node8</title>
<g id="a_edge19_Node000017_Node000008"><a xlink:title=" ">
<path fill="none" stroke="#63b8ff" d="M666.98,-54.84C676.23,-47.15 689.75,-35.9 700.83,-26.68"/>
<polygon fill="#63b8ff" stroke="#63b8ff" points="702.82,-29.58 708.27,-20.49 698.34,-24.2 702.82,-29.58"/>
</a>
</g>
</g>
<!-- Node17&#45;&gt;Node9 -->
<g id="edge20_Node000017_Node000009" class="edge">
<title>Node17&#45;&gt;Node9</title>
<g id="a_edge20_Node000017_Node000009"><a xlink:title=" ">
<path fill="none" stroke="#63b8ff" d="M677.33,-54.84C697.32,-46.32 727.52,-33.46 750.2,-23.8"/>
<polygon fill="#63b8ff" stroke="#63b8ff" points="751.43,-27.08 759.26,-19.94 748.68,-20.64 751.43,-27.08"/>
</a>
</g>
</g>
<!-- Node17&#45;&gt;Node10 -->
<g id="edge21_Node000017_Node000010" class="edge">
<title>Node17&#45;&gt;Node10</title>
<g id="a_edge21_Node000017_Node000010"><a xlink:title=" ">
<path fill="none" stroke="#63b8ff" d="M629.61,-61.33C577.91,-56.08 459.88,-42.76 351.73,-19.55"/>
<polygon fill="#63b8ff" stroke="#63b8ff" points="352.62,-16.16 342.1,-17.44 351.13,-23 352.62,-16.16"/>
</a>
</g>
</g>
<!-- Node17&#45;&gt;Node11 -->
<g id="edge22_Node000017_Node000011" class="edge">
<title>Node17&#45;&gt;Node11</title>
<g id="a_edge22_Node000017_Node000011"><a xlink:title=" ">
<path fill="none" stroke="#63b8ff" d="M629.59,-62.43C563.13,-58.53 384.05,-46.35 224.97,-19.32"/>
<polygon fill="#63b8ff" stroke="#63b8ff" points="225.97,-15.94 215.53,-17.69 224.78,-22.84 225.97,-15.94"/>
</a>
</g>
</g>
<!-- Node17&#45;&gt;Node12 -->
<g id="edge23_Node000017_Node000012" class="edge">
<title>Node17&#45;&gt;Node12</title>
<g id="a_edge23_Node000017_Node000012"><a xlink:title=" ">
<path fill="none" stroke="#63b8ff" d="M629.38,-61.78C570.47,-56.9 424.88,-43.5 293.35,-19.44"/>
<polygon fill="#63b8ff" stroke="#63b8ff" points="294.26,-16.05 283.79,-17.67 292.98,-22.93 294.26,-16.05"/>
</a>
</g>
</g>
<!-- Node17&#45;&gt;Node13 -->
<g id="edge24_Node000017_Node000013" class="edge">
<title>Node17&#45;&gt;Node13</title>
<g id="a_edge24_Node000017_Node000013"><a xlink:title=" ">
<path fill="none" stroke="#63b8ff" d="M629.3,-56.8C593.36,-47.33 529.47,-30.49 489.59,-19.97"/>
<polygon fill="#63b8ff" stroke="#63b8ff" points="490.55,-16.61 479.99,-17.44 488.77,-23.38 490.55,-16.61"/>
</a>
</g>
</g>
<!-- Node17&#45;&gt;Node14 -->
<g id="edge25_Node000017_Node000014" class="edge">
<title>Node17&#45;&gt;Node14</title>
<g id="a_edge25_Node000017_Node000014"><a xlink:title=" ">
<path fill="none" stroke="#63b8ff" d="M634.07,-54.84C613.44,-46.39 582.34,-33.65 558.82,-24.02"/>
<polygon fill="#63b8ff" stroke="#63b8ff" points="560.27,-20.83 549.69,-20.28 557.61,-27.31 560.27,-20.83"/>
</a>
</g>
</g>
<!-- Node17&#45;&gt;Node15 -->
<g id="edge26_Node000017_Node000015" class="edge">
<title>Node17&#45;&gt;Node15</title>
<g id="a_edge26_Node000017_Node000015"><a xlink:title=" ">
<path fill="none" stroke="#63b8ff" d="M682.79,-59.11C722.09,-51.94 798.09,-37.51 871.43,-19.78"/>
<polygon fill="#63b8ff" stroke="#63b8ff" points="871.87,-23.27 880.75,-17.5 870.21,-16.47 871.87,-23.27"/>
</a>
</g>
</g>
<!-- Node17&#45;&gt;Node16 -->
<g id="edge27_Node000017_Node000016" class="edge">
<title>Node17&#45;&gt;Node16</title>
<g id="a_edge27_Node000017_Node000016"><a xlink:title=" ">
<path fill="none" stroke="#63b8ff" d="M656.46,-55.08C656.7,-48.49 657.05,-39.21 657.37,-30.82"/>
<polygon fill="#63b8ff" stroke="#63b8ff" points="660.85,-31.25 657.73,-21.12 653.86,-30.98 660.85,-31.25"/>
</a>
</g>
</g>
<!-- Node17&#45;&gt;Node18 -->
<g id="edge28_Node000017_Node000018" class="edge">
<title>Node17&#45;&gt;Node18</title>
<g id="a_edge28_Node000017_Node000018"><a xlink:title=" ">
<path fill="none" stroke="#63b8ff" d="M682.89,-61.41C777.77,-52.69 1097.93,-23.24 1202.08,-13.66"/>
<polygon fill="#63b8ff" stroke="#63b8ff" points="1202.27,-17.16 1211.91,-12.76 1201.63,-10.19 1202.27,-17.16"/>
</a>
</g>
</g>
<!-- Node17&#45;&gt;Node19 -->
<g id="edge29_Node000017_Node000019" class="edge">
<title>Node17&#45;&gt;Node19</title>
<g id="a_edge29_Node000017_Node000019"><a xlink:title=" ">
<path fill="none" stroke="#63b8ff" d="M682.72,-60.66C757.95,-51.58 972.47,-25.68 1059.63,-15.15"/>
<polygon fill="#63b8ff" stroke="#63b8ff" points="1060.04,-18.63 1069.55,-13.95 1059.2,-11.68 1060.04,-18.63"/>
</a>
</g>
</g>
<!-- Node17&#45;&gt;Node20 -->
<g id="edge30_Node000017_Node000020" class="edge">
<title>Node17&#45;&gt;Node20</title>
<g id="a_edge30_Node000017_Node000020"><a xlink:title=" ">
<path fill="none" stroke="#63b8ff" d="M629.26,-59.2C587.39,-51.83 503.83,-36.74 423.08,-19.59"/>
<polygon fill="#63b8ff" stroke="#63b8ff" points="424.21,-16.25 413.7,-17.58 422.75,-23.09 424.21,-16.25"/>
</a>
</g>
</g>
<!-- Node21&#45;&gt;Node5 -->
<g id="edge33_Node000021_Node000005" class="edge">
<title>Node21&#45;&gt;Node5</title>
<g id="a_edge33_Node000021_Node000005"><a xlink:title=" ">
<path fill="none" stroke="#63b8ff" d="M561.53,-165.58C555.24,-158.3 546.11,-147.73 538.33,-138.73"/>
<polygon fill="#63b8ff" stroke="#63b8ff" points="541.06,-136.53 531.88,-131.25 535.76,-141.11 541.06,-136.53"/>
</a>
</g>
</g>
<!-- Node21&#45;&gt;Node17 -->
<g id="edge32_Node000021_Node000017" class="edge">
<title>Node21&#45;&gt;Node17</title>
<g id="a_edge32_Node000021_Node000017"><a xlink:title=" ">
<path fill="none" stroke="#63b8ff" d="M575.06,-165.45C583.52,-152.87 599.76,-129.36 615.12,-110.5 622.75,-101.14 631.78,-91.2 639.43,-83.08"/>
<polygon fill="#63b8ff" stroke="#63b8ff" points="641.89,-85.56 646.27,-75.92 636.83,-80.73 641.89,-85.56"/>
</a>
</g>
</g>
<!-- Node29&#45;&gt;Node15 -->
<g id="edge54_Node000029_Node000015" class="edge">
<title>Node29&#45;&gt;Node15</title>
<g id="a_edge54_Node000029_Node000015"><a xlink:title=" ">
<path fill="none" stroke="#63b8ff" d="M1080.35,-110.33C1074.01,-96.6 1059.96,-70.09 1040.12,-55.25 1009.52,-32.35 966.6,-20.86 937.21,-15.34"/>
<polygon fill="#63b8ff" stroke="#63b8ff" points="937.84,-11.89 927.39,-13.63 936.64,-18.79 937.84,-11.89"/>
</a>
</g>
</g>
<!-- Node29&#45;&gt;Node17 -->
<g id="edge50_Node000029_Node000017" class="edge">
<title>Node29&#45;&gt;Node17</title>
<g id="a_edge50_Node000029_Node000017"><a xlink:title=" ">
<path fill="none" stroke="#63b8ff" d="M1053.69,-115.34C977.34,-105.84 777.84,-81.02 694.05,-70.59"/>
<polygon fill="#63b8ff" stroke="#63b8ff" points="694.65,-67.14 684.29,-69.38 693.78,-74.09 694.65,-67.14"/>
</a>
</g>
</g>
<!-- Node29&#45;&gt;Node18 -->
<g id="edge51_Node000029_Node000018" class="edge">
<title>Node29&#45;&gt;Node18</title>
<g id="a_edge51_Node000029_Node000018"><a xlink:title=" ">
<path fill="none" stroke="#63b8ff" d="M1114.56,-116.76C1144.42,-112.83 1189.27,-102.37 1216.12,-74.5 1227.44,-62.76 1232.05,-44.6 1233.92,-30.64"/>
<polygon fill="#63b8ff" stroke="#63b8ff" points="1237.39,-31.09 1234.83,-20.81 1230.42,-30.44 1237.39,-31.09"/>
</a>
</g>
</g>
<!-- Node29&#45;&gt;Node19 -->
<g id="edge56_Node000029_Node000019" class="edge">
<title>Node29&#45;&gt;Node19</title>
<g id="a_edge56_Node000029_Node000019"><a xlink:title=" ">
<path fill="none" stroke="#63b8ff" d="M1085.19,-110.25C1087.26,-93 1091.86,-54.58 1094.71,-30.81"/>
<polygon fill="#63b8ff" stroke="#63b8ff" points="1098.15,-31.47 1095.87,-21.13 1091.2,-30.64 1098.15,-31.47"/>
</a>
</g>
</g>
<!-- Node29&#45;&gt;Node26 -->
<g id="edge53_Node000029_Node000026" class="edge">
<title>Node29&#45;&gt;Node26</title>
<g id="a_edge53_Node000029_Node000026"><a xlink:title=" ">
<path fill="none" stroke="#63b8ff" d="M1057.83,-110.09C1032.67,-101.45 994.47,-88.32 966.22,-78.62"/>
<polygon fill="#63b8ff" stroke="#63b8ff" points="967.57,-75.38 956.98,-75.44 965.3,-82 967.57,-75.38"/>
</a>
</g>
</g>
<!-- Node30 -->
<g id="Node000030" class="node">
<title>Node30</title>
<g id="a_Node000030"><a xlink:title=" ">
<polygon fill="#e0e0e0" stroke="#999999" points="1207.5,-74.5 1124.75,-74.5 1124.75,-55.25 1207.5,-55.25 1207.5,-74.5"/>
<text xml:space="preserve" text-anchor="middle" x="1166.12" y="-61" font-family="Helvetica,sans-Serif" font-size="10.00">unordered_map</text>
</a>
</g>
</g>
<!-- Node29&#45;&gt;Node30 -->
<g id="edge52_Node000029_Node000030" class="edge">
<title>Node29&#45;&gt;Node30</title>
<g id="a_edge52_Node000029_Node000030"><a xlink:title=" ">
<path fill="none" stroke="#63b8ff" d="M1098.04,-110.09C1110.29,-102.14 1128.38,-90.39 1142.84,-81"/>
<polygon fill="#63b8ff" stroke="#63b8ff" points="1144.4,-84.16 1150.88,-75.78 1140.58,-78.29 1144.4,-84.16"/>
</a>
</g>
</g>
<!-- Node31 -->
<g id="Node000031" class="node">
<title>Node31</title>
<g id="a_Node000031"><a xlink:title=" ">
<polygon fill="#e0e0e0" stroke="#999999" points="1030.75,-74.5 985.5,-74.5 985.5,-55.25 1030.75,-55.25 1030.75,-74.5"/>
<text xml:space="preserve" text-anchor="middle" x="1008.12" y="-61" font-family="Helvetica,sans-Serif" font-size="10.00">atomic</text>
</a>
</g>
</g>
<!-- Node29&#45;&gt;Node31 -->
<g id="edge55_Node000029_Node000031" class="edge">
<title>Node29&#45;&gt;Node31</title>
<g id="a_edge55_Node000029_Node000031"><a xlink:title=" ">
<path fill="none" stroke="#63b8ff" d="M1071.23,-110.09C1060.1,-102.29 1043.75,-90.84 1030.49,-81.54"/>
<polygon fill="#63b8ff" stroke="#63b8ff" points="1032.52,-78.69 1022.32,-75.82 1028.5,-84.43 1032.52,-78.69"/>
</a>
</g>
</g>
<!-- Node33&#45;&gt;Node2 -->
<g id="edge60_Node000033_Node000002" class="edge">
<title>Node33&#45;&gt;Node2</title>
<g id="a_edge60_Node000033_Node000002"><a xlink:title=" ">
<path fill="none" stroke="#63b8ff" d="M175.14,-280.13C288.28,-269.59 558.13,-244.47 658.05,-235.17"/>
<polygon fill="#63b8ff" stroke="#63b8ff" points="658.24,-238.67 667.87,-234.26 657.59,-231.7 658.24,-238.67"/>
</a>
</g>
</g>
<!-- Node33&#45;&gt;Node5 -->
<g id="edge59_Node000033_Node000005" class="edge">
<title>Node33&#45;&gt;Node5</title>
<g id="a_edge59_Node000033_Node000005"><a xlink:title=" ">
<path fill="none" stroke="#63b8ff" d="M125.01,-275.88C127.76,-253.21 138.32,-193.55 175.12,-165.75 220.73,-131.3 386.5,-123.38 471.73,-121.6"/>
<polygon fill="#63b8ff" stroke="#63b8ff" points="471.76,-125.1 481.69,-121.42 471.63,-118.1 471.76,-125.1"/>
</a>
</g>
</g>
<!-- Node33&#45;&gt;Node32 -->
<g id="edge61_Node000033_Node000032" class="edge">
<title>Node33&#45;&gt;Node32</title>
<g id="a_edge61_Node000033_Node000032"><a xlink:title=" ">
<path fill="none" stroke="#63b8ff" d="M110.72,-275.84C99.03,-267.96 81.82,-256.36 67.96,-247.02"/>
<polygon fill="#63b8ff" stroke="#63b8ff" points="70.1,-244.24 59.85,-241.55 66.18,-250.04 70.1,-244.24"/>
</a>
</g>
</g>
</g>
</svg>
