<?xml version="1.0" encoding="UTF-8" standalone="no"?>
<!DOCTYPE svg PUBLIC "-//W3C//DTD SVG 1.1//EN"
 "http://www.w3.org/Graphics/SVG/1.1/DTD/svg11.dtd">
<!-- Generated by graphviz version 14.1.1 (20251213.1925)
 -->
<!-- Title: AutoDiffContext::Guard Pages: 1 -->
<svg width="119pt" height="104pt"
 viewBox="0.00 0.00 119.00 104.00" xmlns="http://www.w3.org/2000/svg" xmlns:xlink="http://www.w3.org/1999/xlink">
<g id="graph0" class="graph" transform="scale(1 1) rotate(0) translate(4 99.5)">
<title>AutoDiffContext::Guard</title>
<!-- Node1 -->
<g id="Node000001" class="node">
<title>Node1</title>
<g id="a_Node000001"><a xlink:title="自动微分上下文的保护类，用于管理自动微分对象的生命周期">
<polygon fill="#999999" stroke="none" points="110.75,-95.5 0,-95.5 0,0 110.75,0 110.75,-95.5"/>
<text xml:space="preserve" text-anchor="start" x="4" y="-82" font-family="Helvetica,sans-Serif" font-size="10.00">AutoDiffContext::Guard</text>
<text xml:space="preserve" text-anchor="start" x="53.88" y="-66.75" font-family="Helvetica,sans-Serif" font-size="10.00"> </text>
<text xml:space="preserve" text-anchor="start" x="15.38" y="-51.5" font-family="Helvetica,sans-Serif" font-size="10.00">+</text>
<text xml:space="preserve" text-anchor="start" x="36.75" y="-51.5" font-family="Helvetica,sans-Serif" font-size="10.00">Guard()</text>
<text xml:space="preserve" text-anchor="start" x="15.38" y="-36.25" font-family="Helvetica,sans-Serif" font-size="10.00">+</text>
<text xml:space="preserve" text-anchor="start" x="36.75" y="-36.25" font-family="Helvetica,sans-Serif" font-size="10.00">~Guard()</text>
<text xml:space="preserve" text-anchor="start" x="15.38" y="-21" font-family="Helvetica,sans-Serif" font-size="10.00">+</text>
<text xml:space="preserve" text-anchor="start" x="36.75" y="-21" font-family="Helvetica,sans-Serif" font-size="10.00">Guard()</text>
<text xml:space="preserve" text-anchor="start" x="15.38" y="-5.75" font-family="Helvetica,sans-Serif" font-size="10.00">+</text>
<text xml:space="preserve" text-anchor="start" x="36.75" y="-5.75" font-family="Helvetica,sans-Serif" font-size="10.00">operator=()</text>
<polygon fill="#666666" stroke="#666666" points="0,-78.25 0,-78.25 110.75,-78.25 110.75,-78.25 0,-78.25"/>
<polygon fill="#666666" stroke="#666666" points="0,-63 0,-63 110.75,-63 110.75,-63 0,-63"/>
<polygon fill="none" stroke="#666666" points="0,0 0,-95.5 110.75,-95.5 110.75,0 0,0"/>
</a>
</g>
</g>
</g>
</svg>
