<?xml version="1.0" encoding="UTF-8" standalone="no"?>
<!DOCTYPE svg PUBLIC "-//W3C//DTD SVG 1.1//EN"
 "http://www.w3.org/Graphics/SVG/1.1/DTD/svg11.dtd">
<!-- Generated by graphviz version 14.1.1 (20251213.1925)
 -->
<!-- Title: main.cpp Pages: 1 -->
<svg width="1174pt" height="359pt"
 viewBox="0.00 0.00 1174.00 359.00" xmlns="http://www.w3.org/2000/svg" xmlns:xlink="http://www.w3.org/1999/xlink">
<g id="graph0" class="graph" transform="scale(1 1) rotate(0) translate(4 354.75)">
<title>main.cpp</title>
<!-- Node1 -->
<g id="Node000001" class="node">
<title>Node1</title>
<g id="a_Node000001"><a xlink:title=" ">
<polygon fill="#999999" stroke="#666666" points="671.88,-350.75 616.12,-350.75 616.12,-331.5 671.88,-331.5 671.88,-350.75"/>
<text xml:space="preserve" text-anchor="middle" x="644" y="-337.25" font-family="Helvetica,sans-Serif" font-size="10.00">main.cpp</text>
</a>
</g>
</g>
<!-- Node2 -->
<g id="Node000002" class="node">
<title>Node2</title>
<g id="a_Node000002"><a xlink:href="_tensor_8h.html" target="_top" xlink:title="张量类和相关操作的定义">
<polygon fill="white" stroke="#666666" points="622.38,-240.25 569.62,-240.25 569.62,-221 622.38,-221 622.38,-240.25"/>
<text xml:space="preserve" text-anchor="middle" x="596" y="-226.75" font-family="Helvetica,sans-Serif" font-size="10.00">Tensor.h</text>
</a>
</g>
</g>
<!-- Node1&#45;&gt;Node2 -->
<g id="edge1_Node000001_Node000002" class="edge">
<title>Node1&#45;&gt;Node2</title>
<g id="a_edge1_Node000001_Node000002"><a xlink:title=" ">
<path fill="none" stroke="#63b8ff" d="M638.96,-331.03C634.1,-322.11 626.67,-308.05 621,-295.5 614.38,-280.86 607.8,-263.92 603.05,-251.16"/>
<polygon fill="#63b8ff" stroke="#63b8ff" points="606.36,-250.03 599.64,-241.84 599.79,-252.44 606.36,-250.03"/>
</a>
</g>
</g>
<!-- Node7 -->
<g id="Node000007" class="node">
<title>Node7</title>
<g id="a_Node000007"><a xlink:title=" ">
<polygon fill="#e0e0e0" stroke="#999999" points="435.62,-19.25 390.38,-19.25 390.38,0 435.62,0 435.62,-19.25"/>
<text xml:space="preserve" text-anchor="middle" x="413" y="-5.75" font-family="Helvetica,sans-Serif" font-size="10.00">chrono</text>
</a>
</g>
</g>
<!-- Node1&#45;&gt;Node7 -->
<g id="edge56_Node000001_Node000007" class="edge">
<title>Node1&#45;&gt;Node7</title>
<g id="a_edge56_Node000001_Node000007"><a xlink:title=" ">
<path fill="none" stroke="#63b8ff" d="M615.91,-338.41C491.96,-330.49 0,-295.05 0,-231.62 0,-231.62 0,-231.62 0,-119.12 0,-41.11 279.16,-18.04 378.46,-12.3"/>
<polygon fill="#63b8ff" stroke="#63b8ff" points="378.61,-15.79 388.4,-11.75 378.22,-8.8 378.61,-15.79"/>
</a>
</g>
</g>
<!-- Node12 -->
<g id="Node000012" class="node">
<title>Node12</title>
<g id="a_Node000012"><a xlink:title=" ">
<polygon fill="#e0e0e0" stroke="#999999" points="1152.88,-19.25 1103.12,-19.25 1103.12,0 1152.88,0 1152.88,-19.25"/>
<text xml:space="preserve" text-anchor="middle" x="1128" y="-5.75" font-family="Helvetica,sans-Serif" font-size="10.00">iomanip</text>
</a>
</g>
</g>
<!-- Node1&#45;&gt;Node12 -->
<g id="edge57_Node000001_Node000012" class="edge">
<title>Node1&#45;&gt;Node12</title>
<g id="a_edge57_Node000001_Node000012"><a xlink:title=" ">
<path fill="none" stroke="#63b8ff" d="M672.06,-340.33C780.49,-340.39 1166,-333.44 1166,-231.62 1166,-231.62 1166,-231.62 1166,-119.12 1166,-86.13 1150.16,-50.51 1138.93,-29.41"/>
<polygon fill="#63b8ff" stroke="#63b8ff" points="1142.1,-27.9 1134.18,-20.86 1135.98,-31.3 1142.1,-27.9"/>
</a>
</g>
</g>
<!-- Node32 -->
<g id="Node000032" class="node">
<title>Node32</title>
<g id="a_Node000032"><a xlink:href="_ctorch___scheduler_8h.html" target="_top" xlink:title="Ctorch 框架的核心调度器类">
<polygon fill="white" stroke="#666666" points="731.75,-295.5 630.25,-295.5 630.25,-276.25 731.75,-276.25 731.75,-295.5"/>
<text xml:space="preserve" text-anchor="middle" x="681" y="-282" font-family="Helvetica,sans-Serif" font-size="10.00">Ctorch_Scheduler.h</text>
</a>
</g>
</g>
<!-- Node1&#45;&gt;Node32 -->
<g id="edge58_Node000001_Node000032" class="edge">
<title>Node1&#45;&gt;Node32</title>
<g id="a_edge58_Node000001_Node000032"><a xlink:title=" ">
<path fill="none" stroke="#63b8ff" d="M650.11,-331.33C655.06,-324.21 662.2,-313.93 668.37,-305.05"/>
<polygon fill="#63b8ff" stroke="#63b8ff" points="671.06,-307.31 673.89,-297.1 665.31,-303.32 671.06,-307.31"/>
</a>
</g>
</g>
<!-- Node3 -->
<g id="Node000003" class="node">
<title>Node3</title>
<g id="a_Node000003"><a xlink:title=" ">
<polygon fill="#e0e0e0" stroke="#999999" points="893.88,-185 838.12,-185 838.12,-165.75 893.88,-165.75 893.88,-185"/>
<text xml:space="preserve" text-anchor="middle" x="866" y="-171.5" font-family="Helvetica,sans-Serif" font-size="10.00">algorithm</text>
</a>
</g>
</g>
<!-- Node2&#45;&gt;Node3 -->
<g id="edge2_Node000002_Node000003" class="edge">
<title>Node2&#45;&gt;Node3</title>
<g id="a_edge2_Node000002_Node000003"><a xlink:title=" ">
<path fill="none" stroke="#63b8ff" d="M622.7,-223.07C625.83,-222.35 628.98,-221.64 632,-221 716.91,-202.88 738.81,-201.73 824,-185 824.99,-184.81 825.99,-184.61 827.01,-184.41"/>
<polygon fill="#63b8ff" stroke="#63b8ff" points="827.4,-187.9 836.52,-182.49 826.02,-181.03 827.4,-187.9"/>
</a>
</g>
</g>
<!-- Node4 -->
<g id="Node000004" class="node">
<title>Node4</title>
<g id="a_Node000004"><a xlink:title=" ">
<polygon fill="#e0e0e0" stroke="#999999" points="152.12,-185 103.88,-185 103.88,-165.75 152.12,-165.75 152.12,-185"/>
<text xml:space="preserve" text-anchor="middle" x="128" y="-171.5" font-family="Helvetica,sans-Serif" font-size="10.00">cstddef</text>
</a>
</g>
</g>
<!-- Node2&#45;&gt;Node4 -->
<g id="edge3_Node000002_Node000004" class="edge">
<title>Node2&#45;&gt;Node4</title>
<g id="a_edge3_Node000002_Node000004"><a xlink:title=" ">
<path fill="none" stroke="#63b8ff" d="M569.18,-227.96C501.33,-223.52 317.44,-209.95 166,-185 165.17,-184.86 164.34,-184.72 163.5,-184.57"/>
<polygon fill="#63b8ff" stroke="#63b8ff" points="164.42,-181.19 153.93,-182.67 163.06,-188.05 164.42,-181.19"/>
</a>
</g>
</g>
<!-- Node5 -->
<g id="Node000005" class="node">
<title>Node5</title>
<g id="a_Node000005"><a xlink:href="_ctorch___error_8h.html" target="_top" xlink:title="Ctorch 错误处理类">
<polygon fill="white" stroke="#666666" points="955.5,-129.75 876.5,-129.75 876.5,-110.5 955.5,-110.5 955.5,-129.75"/>
<text xml:space="preserve" text-anchor="middle" x="916" y="-116.25" font-family="Helvetica,sans-Serif" font-size="10.00">Ctorch_Error.h</text>
</a>
</g>
</g>
<!-- Node2&#45;&gt;Node5 -->
<g id="edge4_Node000002_Node000005" class="edge">
<title>Node2&#45;&gt;Node5</title>
<g id="a_edge4_Node000002_Node000005"><a xlink:title=" ">
<path fill="none" stroke="#63b8ff" d="M622.66,-222.83C625.79,-222.15 628.96,-221.52 632,-221 708.42,-207.94 927.09,-242.58 979,-185 994.9,-167.37 969.52,-148.08 946.39,-135.37"/>
<polygon fill="#63b8ff" stroke="#63b8ff" points="948.24,-132.39 937.76,-130.88 945.01,-138.6 948.24,-132.39"/>
</a>
</g>
</g>
<!-- Node6 -->
<g id="Node000006" class="node">
<title>Node6</title>
<g id="a_Node000006"><a xlink:title=" ">
<polygon fill="#e0e0e0" stroke="#999999" points="699.62,-19.25 654.38,-19.25 654.38,0 699.62,0 699.62,-19.25"/>
<text xml:space="preserve" text-anchor="middle" x="677" y="-5.75" font-family="Helvetica,sans-Serif" font-size="10.00">cstring</text>
</a>
</g>
</g>
<!-- Node2&#45;&gt;Node6 -->
<g id="edge42_Node000002_Node000006" class="edge">
<title>Node2&#45;&gt;Node6</title>
<g id="a_edge42_Node000002_Node000006"><a xlink:title=" ">
<path fill="none" stroke="#63b8ff" d="M622.85,-222.89C666.64,-211.77 749,-190.3 753,-185 776.1,-154.43 746.31,-182.89 697,-74.5 690.51,-60.23 685.31,-43.27 681.84,-30.41"/>
<polygon fill="#63b8ff" stroke="#63b8ff" points="685.3,-29.84 679.43,-21.02 678.52,-31.58 685.3,-29.84"/>
</a>
</g>
</g>
<!-- Node10 -->
<g id="Node000010" class="node">
<title>Node10</title>
<g id="a_Node000010"><a xlink:title=" ">
<polygon fill="#e0e0e0" stroke="#999999" points="1085,-19.25 1045,-19.25 1045,0 1085,0 1085,-19.25"/>
<text xml:space="preserve" text-anchor="middle" x="1065" y="-5.75" font-family="Helvetica,sans-Serif" font-size="10.00">string</text>
</a>
</g>
</g>
<!-- Node2&#45;&gt;Node10 -->
<g id="edge44_Node000002_Node000010" class="edge">
<title>Node2&#45;&gt;Node10</title>
<g id="a_edge44_Node000002_Node000010"><a xlink:title=" ">
<path fill="none" stroke="#63b8ff" d="M622.65,-222.81C625.79,-222.14 628.96,-221.51 632,-221 711.93,-207.53 930.17,-233.67 995,-185 1045.17,-147.33 1059.47,-67.84 1063.47,-30.63"/>
<polygon fill="#63b8ff" stroke="#63b8ff" points="1066.94,-31.15 1064.37,-20.88 1059.97,-30.52 1066.94,-31.15"/>
</a>
</g>
</g>
<!-- Node11 -->
<g id="Node000011" class="node">
<title>Node11</title>
<g id="a_Node000011"><a xlink:title=" ">
<polygon fill="#e0e0e0" stroke="#999999" points="636.62,-19.25 585.38,-19.25 585.38,0 636.62,0 636.62,-19.25"/>
<text xml:space="preserve" text-anchor="middle" x="611" y="-5.75" font-family="Helvetica,sans-Serif" font-size="10.00">sstream</text>
</a>
</g>
</g>
<!-- Node2&#45;&gt;Node11 -->
<g id="edge40_Node000002_Node000011" class="edge">
<title>Node2&#45;&gt;Node11</title>
<g id="a_edge40_Node000002_Node000011"><a xlink:title=" ">
<path fill="none" stroke="#63b8ff" d="M569.22,-228.3C489.68,-224.11 258.99,-209.89 237,-185 187.23,-128.66 470.45,-47.49 574.11,-20.08"/>
<polygon fill="#63b8ff" stroke="#63b8ff" points="574.74,-23.53 583.52,-17.61 572.96,-16.76 574.74,-23.53"/>
</a>
</g>
</g>
<!-- Node2&#45;&gt;Node12 -->
<g id="edge43_Node000002_Node000012" class="edge">
<title>Node2&#45;&gt;Node12</title>
<g id="a_edge43_Node000002_Node000012"><a xlink:title=" ">
<path fill="none" stroke="#63b8ff" d="M622.65,-222.79C625.79,-222.12 628.96,-221.5 632,-221 717.21,-206.9 944.77,-229.16 1019,-185 1078.52,-149.58 1110.43,-67.7 1122.39,-30.12"/>
<polygon fill="#63b8ff" stroke="#63b8ff" points="1125.59,-31.62 1125.14,-21.04 1118.89,-29.59 1125.59,-31.62"/>
</a>
</g>
</g>
<!-- Node17 -->
<g id="Node000017" class="node">
<title>Node17</title>
<g id="a_Node000017"><a xlink:href="_ctools_8h.html" target="_top" xlink:title="Ctorch 通用工具类，包含通用枚举类型和辅助函数">
<polygon fill="white" stroke="#666666" points="758.38,-74.5 705.62,-74.5 705.62,-55.25 758.38,-55.25 758.38,-74.5"/>
<text xml:space="preserve" text-anchor="middle" x="732" y="-61" font-family="Helvetica,sans-Serif" font-size="10.00">Ctools.h</text>
</a>
</g>
</g>
<!-- Node2&#45;&gt;Node17 -->
<g id="edge48_Node000002_Node000017" class="edge">
<title>Node2&#45;&gt;Node17</title>
<g id="a_edge48_Node000002_Node000017"><a xlink:title=" ">
<path fill="none" stroke="#63b8ff" d="M622.73,-223.2C625.86,-222.46 629,-221.71 632,-221 700.4,-204.81 742.32,-240.07 786,-185 811.39,-152.99 774.42,-107.14 750.21,-82.71"/>
<polygon fill="#63b8ff" stroke="#63b8ff" points="752.7,-80.25 743.09,-75.8 747.82,-85.27 752.7,-80.25"/>
</a>
</g>
</g>
<!-- Node18 -->
<g id="Node000018" class="node">
<title>Node18</title>
<g id="a_Node000018"><a xlink:title=" ">
<polygon fill="#e0e0e0" stroke="#999999" points="59.5,-19.25 16.5,-19.25 16.5,0 59.5,0 59.5,-19.25"/>
<text xml:space="preserve" text-anchor="middle" x="38" y="-5.75" font-family="Helvetica,sans-Serif" font-size="10.00">vector</text>
</a>
</g>
</g>
<!-- Node2&#45;&gt;Node18 -->
<g id="edge39_Node000002_Node000018" class="edge">
<title>Node2&#45;&gt;Node18</title>
<g id="a_edge39_Node000002_Node000018"><a xlink:title=" ">
<path fill="none" stroke="#63b8ff" d="M569.45,-229.44C464.83,-228.47 85.04,-222.37 48,-185 7.14,-143.77 21.8,-66.7 31.79,-30.44"/>
<polygon fill="#63b8ff" stroke="#63b8ff" points="35.13,-31.48 34.6,-20.9 28.42,-29.5 35.13,-31.48"/>
</a>
</g>
</g>
<!-- Node19 -->
<g id="Node000019" class="node">
<title>Node19</title>
<g id="a_Node000019"><a xlink:title=" ">
<polygon fill="#e0e0e0" stroke="#999999" points="139.62,-19.25 88.38,-19.25 88.38,0 139.62,0 139.62,-19.25"/>
<text xml:space="preserve" text-anchor="middle" x="114" y="-5.75" font-family="Helvetica,sans-Serif" font-size="10.00">memory</text>
</a>
</g>
</g>
<!-- Node2&#45;&gt;Node19 -->
<g id="edge36_Node000002_Node000019" class="edge">
<title>Node2&#45;&gt;Node19</title>
<g id="a_edge36_Node000002_Node000019"><a xlink:title=" ">
<path fill="none" stroke="#63b8ff" d="M569.37,-229.21C467.08,-227.38 103.2,-218.53 65,-185 18.77,-144.42 71.8,-64.05 99.39,-28.38"/>
<polygon fill="#63b8ff" stroke="#63b8ff" points="101.96,-30.77 105.45,-20.77 96.48,-26.41 101.96,-30.77"/>
</a>
</g>
</g>
<!-- Node20 -->
<g id="Node000020" class="node">
<title>Node20</title>
<g id="a_Node000020"><a xlink:title=" ">
<polygon fill="#e0e0e0" stroke="#999999" points="506.75,-19.25 453.25,-19.25 453.25,0 506.75,0 506.75,-19.25"/>
<text xml:space="preserve" text-anchor="middle" x="480" y="-5.75" font-family="Helvetica,sans-Serif" font-size="10.00">iostream</text>
</a>
</g>
</g>
<!-- Node2&#45;&gt;Node20 -->
<g id="edge35_Node000002_Node000020" class="edge">
<title>Node2&#45;&gt;Node20</title>
<g id="a_edge35_Node000002_Node000020"><a xlink:title=" ">
<path fill="none" stroke="#63b8ff" d="M569.31,-229.3C470.19,-227.84 127.24,-220.23 95,-185 63.86,-150.96 -2.58,-164.27 133,-55.25 184.89,-13.52 359.25,-29.91 441.7,-19.37"/>
<polygon fill="#63b8ff" stroke="#63b8ff" points="442.09,-22.85 451.44,-17.88 441.03,-15.93 442.09,-22.85"/>
</a>
</g>
</g>
<!-- Node21 -->
<g id="Node000021" class="node">
<title>Node21</title>
<g id="a_Node000021"><a xlink:href="_storage_8h.html" target="_top" xlink:title="Ctorch 存储类，用于管理张量数据的底层存储">
<polygon fill="white" stroke="#666666" points="970,-185 912,-185 912,-165.75 970,-165.75 970,-185"/>
<text xml:space="preserve" text-anchor="middle" x="941" y="-171.5" font-family="Helvetica,sans-Serif" font-size="10.00">Storage.h</text>
</a>
</g>
</g>
<!-- Node2&#45;&gt;Node21 -->
<g id="edge31_Node000002_Node000021" class="edge">
<title>Node2&#45;&gt;Node21</title>
<g id="a_edge31_Node000002_Node000021"><a xlink:title=" ">
<path fill="none" stroke="#63b8ff" d="M622.67,-222.91C625.81,-222.22 628.97,-221.56 632,-221 747.96,-199.47 781.46,-206.05 900.57,-185.28"/>
<polygon fill="#63b8ff" stroke="#63b8ff" points="900.87,-188.79 910.11,-183.59 899.65,-181.89 900.87,-188.79"/>
</a>
</g>
</g>
<!-- Node22 -->
<g id="Node000022" class="node">
<title>Node22</title>
<g id="a_Node000022"><a xlink:title=" ">
<polygon fill="#e0e0e0" stroke="#999999" points="318.12,-185 245.88,-185 245.88,-165.75 318.12,-165.75 318.12,-185"/>
<text xml:space="preserve" text-anchor="middle" x="282" y="-171.5" font-family="Helvetica,sans-Serif" font-size="10.00">initializer_list</text>
</a>
</g>
</g>
<!-- Node2&#45;&gt;Node22 -->
<g id="edge34_Node000002_Node000022" class="edge">
<title>Node2&#45;&gt;Node22</title>
<g id="a_edge34_Node000002_Node000022"><a xlink:title=" ">
<path fill="none" stroke="#63b8ff" d="M569.24,-225.41C522.67,-218.03 423.48,-202.1 329.47,-185.41"/>
<polygon fill="#63b8ff" stroke="#63b8ff" points="330.28,-182 319.82,-183.69 329.06,-188.89 330.28,-182"/>
</a>
</g>
</g>
<!-- Node23 -->
<g id="Node000023" class="node">
<title>Node23</title>
<g id="a_Node000023"><a xlink:title=" ">
<polygon fill="#e0e0e0" stroke="#999999" points="386.25,-185 335.75,-185 335.75,-165.75 386.25,-165.75 386.25,-185"/>
<text xml:space="preserve" text-anchor="middle" x="361" y="-171.5" font-family="Helvetica,sans-Serif" font-size="10.00">numeric</text>
</a>
</g>
</g>
<!-- Node2&#45;&gt;Node23 -->
<g id="edge37_Node000002_Node000023" class="edge">
<title>Node2&#45;&gt;Node23</title>
<g id="a_edge37_Node000002_Node000023"><a xlink:title=" ">
<path fill="none" stroke="#63b8ff" d="M569.43,-223.89C533.02,-215.99 465.33,-201.16 397.48,-185.3"/>
<polygon fill="#63b8ff" stroke="#63b8ff" points="398.61,-181.97 388.07,-183.1 397.01,-188.79 398.61,-181.97"/>
</a>
</g>
</g>
<!-- Node24 -->
<g id="Node000024" class="node">
<title>Node24</title>
<g id="a_Node000024"><a xlink:title=" ">
<polygon fill="#e0e0e0" stroke="#999999" points="463.38,-185 404.62,-185 404.62,-165.75 463.38,-165.75 463.38,-185"/>
<text xml:space="preserve" text-anchor="middle" x="434" y="-171.5" font-family="Helvetica,sans-Serif" font-size="10.00">stdexcept</text>
</a>
</g>
</g>
<!-- Node2&#45;&gt;Node24 -->
<g id="edge38_Node000002_Node000024" class="edge">
<title>Node2&#45;&gt;Node24</title>
<g id="a_edge38_Node000002_Node000024"><a xlink:title=" ">
<path fill="none" stroke="#63b8ff" d="M569.25,-220.83C542.87,-212.16 502.29,-198.82 472.46,-189.02"/>
<polygon fill="#63b8ff" stroke="#63b8ff" points="473.64,-185.72 463.04,-185.92 471.45,-192.37 473.64,-185.72"/>
</a>
</g>
</g>
<!-- Node25 -->
<g id="Node000025" class="node">
<title>Node25</title>
<g id="a_Node000025"><a xlink:title=" ">
<polygon fill="#e0e0e0" stroke="#999999" points="539,-185 481,-185 481,-165.75 539,-165.75 539,-185"/>
<text xml:space="preserve" text-anchor="middle" x="510" y="-171.5" font-family="Helvetica,sans-Serif" font-size="10.00">functional</text>
</a>
</g>
</g>
<!-- Node2&#45;&gt;Node25 -->
<g id="edge41_Node000002_Node000025" class="edge">
<title>Node2&#45;&gt;Node25</title>
<g id="a_edge41_Node000002_Node000025"><a xlink:title=" ">
<path fill="none" stroke="#63b8ff" d="M581.41,-220.59C568.56,-212.64 549.59,-200.89 534.43,-191.5"/>
<polygon fill="#63b8ff" stroke="#63b8ff" points="536.29,-188.54 525.95,-186.25 532.61,-194.49 536.29,-188.54"/>
</a>
</g>
</g>
<!-- Node26 -->
<g id="Node000026" class="node">
<title>Node26</title>
<g id="a_Node000026"><a xlink:title=" ">
<polygon fill="#e0e0e0" stroke="#999999" points="634.75,-185 557.25,-185 557.25,-165.75 634.75,-165.75 634.75,-185"/>
<text xml:space="preserve" text-anchor="middle" x="596" y="-171.5" font-family="Helvetica,sans-Serif" font-size="10.00">unordered_set</text>
</a>
</g>
</g>
<!-- Node2&#45;&gt;Node26 -->
<g id="edge45_Node000002_Node000026" class="edge">
<title>Node2&#45;&gt;Node26</title>
<g id="a_edge45_Node000002_Node000026"><a xlink:title=" ">
<path fill="none" stroke="#63b8ff" d="M596,-220.83C596,-214.32 596,-205.17 596,-196.87"/>
<polygon fill="#63b8ff" stroke="#63b8ff" points="599.5,-196.87 596,-186.87 592.5,-196.87 599.5,-196.87"/>
</a>
</g>
</g>
<!-- Node27 -->
<g id="Node000027" class="node">
<title>Node27</title>
<g id="a_Node000027"><a xlink:title=" ">
<polygon fill="#e0e0e0" stroke="#999999" points="691.62,-185 652.38,-185 652.38,-165.75 691.62,-165.75 691.62,-185"/>
<text xml:space="preserve" text-anchor="middle" x="672" y="-171.5" font-family="Helvetica,sans-Serif" font-size="10.00">limits</text>
</a>
</g>
</g>
<!-- Node2&#45;&gt;Node27 -->
<g id="edge46_Node000002_Node000027" class="edge">
<title>Node2&#45;&gt;Node27</title>
<g id="a_edge46_Node000002_Node000027"><a xlink:title=" ">
<path fill="none" stroke="#63b8ff" d="M608.89,-220.59C620.03,-212.79 636.37,-201.34 649.64,-192.04"/>
<polygon fill="#63b8ff" stroke="#63b8ff" points="651.62,-194.93 657.8,-186.32 647.61,-189.19 651.62,-194.93"/>
</a>
</g>
</g>
<!-- Node28 -->
<g id="Node000028" class="node">
<title>Node28</title>
<g id="a_Node000028"><a xlink:title=" ">
<polygon fill="#e0e0e0" stroke="#999999" points="744.38,-185 709.62,-185 709.62,-165.75 744.38,-165.75 744.38,-185"/>
<text xml:space="preserve" text-anchor="middle" x="727" y="-171.5" font-family="Helvetica,sans-Serif" font-size="10.00">map</text>
</a>
</g>
</g>
<!-- Node2&#45;&gt;Node28 -->
<g id="edge47_Node000002_Node000028" class="edge">
<title>Node2&#45;&gt;Node28</title>
<g id="a_edge47_Node000002_Node000028"><a xlink:title=" ">
<path fill="none" stroke="#63b8ff" d="M618.22,-220.59C640.4,-211.58 674.57,-197.69 698.69,-187.88"/>
<polygon fill="#63b8ff" stroke="#63b8ff" points="699.95,-191.15 707.9,-184.14 697.31,-184.66 699.95,-191.15"/>
</a>
</g>
</g>
<!-- Node29 -->
<g id="Node000029" class="node">
<title>Node29</title>
<g id="a_Node000029"><a xlink:href="_auto_diff_8h.html" target="_top" xlink:title="Ctorch 自动微分系统">
<polygon fill="white" stroke="#666666" points="213.12,-129.75 152.88,-129.75 152.88,-110.5 213.12,-110.5 213.12,-129.75"/>
<text xml:space="preserve" text-anchor="middle" x="183" y="-116.25" font-family="Helvetica,sans-Serif" font-size="10.00">AutoDiff.h</text>
</a>
</g>
</g>
<!-- Node2&#45;&gt;Node29 -->
<g id="edge49_Node000002_Node000029" class="edge">
<title>Node2&#45;&gt;Node29</title>
<g id="a_edge49_Node000002_Node000029"><a xlink:title=" ">
<path fill="none" stroke="#63b8ff" d="M569.4,-230.2C490.55,-231.36 260.11,-230.67 204,-185 191.12,-174.51 186.07,-155.95 184.12,-141.52"/>
<polygon fill="#63b8ff" stroke="#63b8ff" points="187.62,-141.37 183.23,-131.73 180.65,-142.01 187.62,-141.37"/>
</a>
</g>
</g>
<!-- Node5&#45;&gt;Node6 -->
<g id="edge5_Node000005_Node000006" class="edge">
<title>Node5&#45;&gt;Node6</title>
<g id="a_edge5_Node000005_Node000006"><a xlink:title=" ">
<path fill="none" stroke="#63b8ff" d="M894.39,-110.12C873.28,-101.27 840.3,-87.26 812,-74.5 775.07,-57.85 732.92,-37.72 705.69,-24.57"/>
<polygon fill="#63b8ff" stroke="#63b8ff" points="707.57,-21.59 697.04,-20.39 704.52,-27.9 707.57,-21.59"/>
</a>
</g>
</g>
<!-- Node5&#45;&gt;Node7 -->
<g id="edge6_Node000005_Node000007" class="edge">
<title>Node5&#45;&gt;Node7</title>
<g id="a_edge6_Node000005_Node000007"><a xlink:title=" ">
<path fill="none" stroke="#63b8ff" d="M876.32,-115.23C818.54,-109.11 708.11,-95.7 616,-74.5 555.41,-60.55 486.76,-37.34 446.83,-23.07"/>
<polygon fill="#63b8ff" stroke="#63b8ff" points="448.13,-19.82 437.54,-19.72 445.76,-26.41 448.13,-19.82"/>
</a>
</g>
</g>
<!-- Node8 -->
<g id="Node000008" class="node">
<title>Node8</title>
<g id="a_Node000008"><a xlink:title=" ">
<polygon fill="#e0e0e0" stroke="#999999" points="1026.62,-19.25 981.38,-19.25 981.38,0 1026.62,0 1026.62,-19.25"/>
<text xml:space="preserve" text-anchor="middle" x="1004" y="-5.75" font-family="Helvetica,sans-Serif" font-size="10.00">cstdint</text>
</a>
</g>
</g>
<!-- Node5&#45;&gt;Node8 -->
<g id="edge7_Node000005_Node000008" class="edge">
<title>Node5&#45;&gt;Node8</title>
<g id="a_edge7_Node000005_Node000008"><a xlink:title=" ">
<path fill="none" stroke="#63b8ff" d="M923.2,-110.25C937.64,-92.44 970.38,-52.08 989.45,-28.56"/>
<polygon fill="#63b8ff" stroke="#63b8ff" points="992.16,-30.77 995.75,-20.8 986.73,-26.36 992.16,-30.77"/>
</a>
</g>
</g>
<!-- Node9 -->
<g id="Node000009" class="node">
<title>Node9</title>
<g id="a_Node000009"><a xlink:title=" ">
<polygon fill="#e0e0e0" stroke="#999999" points="758,-19.25 718,-19.25 718,0 758,0 758,-19.25"/>
<text xml:space="preserve" text-anchor="middle" x="738" y="-5.75" font-family="Helvetica,sans-Serif" font-size="10.00">ctime</text>
</a>
</g>
</g>
<!-- Node5&#45;&gt;Node9 -->
<g id="edge8_Node000005_Node000009" class="edge">
<title>Node5&#45;&gt;Node9</title>
<g id="a_edge8_Node000005_Node000009"><a xlink:title=" ">
<path fill="none" stroke="#63b8ff" d="M901.13,-110.06C870.43,-91.35 799.77,-48.28 762.32,-25.45"/>
<polygon fill="#63b8ff" stroke="#63b8ff" points="764.36,-22.59 753.99,-20.37 760.71,-28.57 764.36,-22.59"/>
</a>
</g>
</g>
<!-- Node5&#45;&gt;Node10 -->
<g id="edge9_Node000005_Node000010" class="edge">
<title>Node5&#45;&gt;Node10</title>
<g id="a_edge9_Node000005_Node000010"><a xlink:title=" ">
<path fill="none" stroke="#63b8ff" d="M928.45,-110.06C953.82,-91.59 1011.78,-49.38 1043.42,-26.34"/>
<polygon fill="#63b8ff" stroke="#63b8ff" points="1045.45,-29.19 1051.47,-20.48 1041.33,-23.54 1045.45,-29.19"/>
</a>
</g>
</g>
<!-- Node5&#45;&gt;Node11 -->
<g id="edge10_Node000005_Node000011" class="edge">
<title>Node5&#45;&gt;Node11</title>
<g id="a_edge10_Node000005_Node000011"><a xlink:title=" ">
<path fill="none" stroke="#63b8ff" d="M876.04,-116.23C830.89,-111.79 755.99,-100.84 697,-74.5 670.63,-62.73 644.62,-41.74 628.23,-27.05"/>
<polygon fill="#63b8ff" stroke="#63b8ff" points="631.01,-24.85 621.28,-20.66 626.27,-30 631.01,-24.85"/>
</a>
</g>
</g>
<!-- Node5&#45;&gt;Node12 -->
<g id="edge11_Node000005_Node000012" class="edge">
<title>Node5&#45;&gt;Node12</title>
<g id="a_edge11_Node000005_Node000012"><a xlink:title=" ">
<path fill="none" stroke="#63b8ff" d="M934.11,-110.14C952.12,-101.18 980.52,-86.99 1005,-74.5 1038.05,-57.64 1075.9,-37.92 1100.79,-24.9"/>
<polygon fill="#63b8ff" stroke="#63b8ff" points="1102.35,-28.03 1109.59,-20.29 1099.1,-21.83 1102.35,-28.03"/>
</a>
</g>
</g>
<!-- Node13 -->
<g id="Node000013" class="node">
<title>Node13</title>
<g id="a_Node000013"><a xlink:title=" ">
<polygon fill="#e0e0e0" stroke="#999999" points="886.12,-19.25 837.88,-19.25 837.88,0 886.12,0 886.12,-19.25"/>
<text xml:space="preserve" text-anchor="middle" x="862" y="-5.75" font-family="Helvetica,sans-Serif" font-size="10.00">stdint.h</text>
</a>
</g>
</g>
<!-- Node5&#45;&gt;Node13 -->
<g id="edge12_Node000005_Node000013" class="edge">
<title>Node5&#45;&gt;Node13</title>
<g id="a_edge12_Node000005_Node000013"><a xlink:title=" ">
<path fill="none" stroke="#63b8ff" d="M911.58,-110.25C902.88,-92.76 883.35,-53.52 871.56,-29.84"/>
<polygon fill="#63b8ff" stroke="#63b8ff" points="874.74,-28.37 867.15,-20.98 868.48,-31.49 874.74,-28.37"/>
</a>
</g>
</g>
<!-- Node14 -->
<g id="Node000014" class="node">
<title>Node14</title>
<g id="a_Node000014"><a xlink:title=" ">
<polygon fill="#e0e0e0" stroke="#999999" points="963.38,-19.25 904.62,-19.25 904.62,0 963.38,0 963.38,-19.25"/>
<text xml:space="preserve" text-anchor="middle" x="934" y="-5.75" font-family="Helvetica,sans-Serif" font-size="10.00">inttypes.h</text>
</a>
</g>
</g>
<!-- Node5&#45;&gt;Node14 -->
<g id="edge13_Node000005_Node000014" class="edge">
<title>Node5&#45;&gt;Node14</title>
<g id="a_edge13_Node000005_Node000014"><a xlink:title=" ">
<path fill="none" stroke="#63b8ff" d="M917.47,-110.25C920.33,-93 926.71,-54.58 930.65,-30.81"/>
<polygon fill="#63b8ff" stroke="#63b8ff" points="934.08,-31.56 932.26,-21.12 927.17,-30.41 934.08,-31.56"/>
</a>
</g>
</g>
<!-- Node15 -->
<g id="Node000015" class="node">
<title>Node15</title>
<g id="a_Node000015"><a xlink:title=" ">
<polygon fill="#e0e0e0" stroke="#999999" points="567.5,-19.25 524.5,-19.25 524.5,0 567.5,0 567.5,-19.25"/>
<text xml:space="preserve" text-anchor="middle" x="546" y="-5.75" font-family="Helvetica,sans-Serif" font-size="10.00">mutex</text>
</a>
</g>
</g>
<!-- Node5&#45;&gt;Node15 -->
<g id="edge14_Node000005_Node000015" class="edge">
<title>Node5&#45;&gt;Node15</title>
<g id="a_edge14_Node000005_Node000015"><a xlink:title=" ">
<path fill="none" stroke="#63b8ff" d="M876.35,-116.38C825.12,-111.9 733.75,-100.73 660,-74.5 626.05,-62.43 590.34,-40.74 568.12,-26.03"/>
<polygon fill="#63b8ff" stroke="#63b8ff" points="570.15,-23.17 559.9,-20.47 566.23,-28.97 570.15,-23.17"/>
</a>
</g>
</g>
<!-- Node16 -->
<g id="Node000016" class="node">
<title>Node16</title>
<g id="a_Node000016"><a xlink:title=" ">
<polygon fill="#e0e0e0" stroke="#999999" points="819.5,-19.25 776.5,-19.25 776.5,0 819.5,0 819.5,-19.25"/>
<text xml:space="preserve" text-anchor="middle" x="798" y="-5.75" font-family="Helvetica,sans-Serif" font-size="10.00">thread</text>
</a>
</g>
</g>
<!-- Node5&#45;&gt;Node16 -->
<g id="edge15_Node000005_Node000016" class="edge">
<title>Node5&#45;&gt;Node16</title>
<g id="a_edge15_Node000005_Node000016"><a xlink:title=" ">
<path fill="none" stroke="#63b8ff" d="M906.34,-110.25C886.64,-92.13 841.51,-50.63 816.15,-27.32"/>
<polygon fill="#63b8ff" stroke="#63b8ff" points="818.63,-24.84 808.9,-20.65 813.9,-30 818.63,-24.84"/>
</a>
</g>
</g>
<!-- Node5&#45;&gt;Node17 -->
<g id="edge16_Node000005_Node000017" class="edge">
<title>Node5&#45;&gt;Node17</title>
<g id="a_edge16_Node000005_Node000017"><a xlink:title=" ">
<path fill="none" stroke="#63b8ff" d="M884.79,-110.09C853.01,-100.89 803.71,-86.63 769.75,-76.8"/>
<polygon fill="#63b8ff" stroke="#63b8ff" points="770.9,-73.49 760.32,-74.07 768.96,-80.21 770.9,-73.49"/>
</a>
</g>
</g>
<!-- Node17&#45;&gt;Node6 -->
<g id="edge17_Node000017_Node000006" class="edge">
<title>Node17&#45;&gt;Node6</title>
<g id="a_edge17_Node000017_Node000006"><a xlink:title=" ">
<path fill="none" stroke="#63b8ff" d="M722.92,-55.08C715.16,-47.57 703.79,-36.56 694.3,-27.38"/>
<polygon fill="#63b8ff" stroke="#63b8ff" points="696.99,-25.1 687.37,-20.66 692.12,-30.13 696.99,-25.1"/>
</a>
</g>
</g>
<!-- Node17&#45;&gt;Node7 -->
<g id="edge18_Node000017_Node000007" class="edge">
<title>Node17&#45;&gt;Node7</title>
<g id="a_edge18_Node000017_Node000007"><a xlink:title=" ">
<path fill="none" stroke="#63b8ff" d="M705.2,-60.79C655.92,-54.9 547.42,-40.86 447.18,-19.74"/>
<polygon fill="#63b8ff" stroke="#63b8ff" points="447.94,-16.32 437.43,-17.65 446.47,-23.17 447.94,-16.32"/>
</a>
</g>
</g>
<!-- Node17&#45;&gt;Node8 -->
<g id="edge19_Node000017_Node000008" class="edge">
<title>Node17&#45;&gt;Node8</title>
<g id="a_edge19_Node000017_Node000008"><a xlink:title=" ">
<path fill="none" stroke="#63b8ff" d="M758.78,-59.61C801.36,-52.68 887.33,-38.05 969.89,-19.58"/>
<polygon fill="#63b8ff" stroke="#63b8ff" points="970.53,-23.02 979.51,-17.4 968.98,-16.19 970.53,-23.02"/>
</a>
</g>
</g>
<!-- Node17&#45;&gt;Node9 -->
<g id="edge20_Node000017_Node000009" class="edge">
<title>Node17&#45;&gt;Node9</title>
<g id="a_edge20_Node000017_Node000009"><a xlink:title=" ">
<path fill="none" stroke="#63b8ff" d="M732.99,-55.08C733.73,-48.49 734.78,-39.21 735.72,-30.82"/>
<polygon fill="#63b8ff" stroke="#63b8ff" points="739.18,-31.44 736.82,-21.11 732.22,-30.66 739.18,-31.44"/>
</a>
</g>
</g>
<!-- Node17&#45;&gt;Node10 -->
<g id="edge21_Node000017_Node000010" class="edge">
<title>Node17&#45;&gt;Node10</title>
<g id="a_edge21_Node000017_Node000010"><a xlink:title=" ">
<path fill="none" stroke="#63b8ff" d="M758.66,-61.26C810.08,-55.95 926.61,-42.56 1033.52,-19.53"/>
<polygon fill="#63b8ff" stroke="#63b8ff" points="1034,-23 1043.02,-17.44 1032.5,-16.17 1034,-23"/>
</a>
</g>
</g>
<!-- Node17&#45;&gt;Node11 -->
<g id="edge22_Node000017_Node000011" class="edge">
<title>Node17&#45;&gt;Node11</title>
<g id="a_edge22_Node000017_Node000011"><a xlink:title=" ">
<path fill="none" stroke="#63b8ff" d="M711.47,-54.84C692.44,-46.47 663.85,-33.88 642.03,-24.28"/>
<polygon fill="#63b8ff" stroke="#63b8ff" points="643.57,-21.14 633.01,-20.31 640.76,-27.54 643.57,-21.14"/>
</a>
</g>
</g>
<!-- Node17&#45;&gt;Node12 -->
<g id="edge23_Node000017_Node000012" class="edge">
<title>Node17&#45;&gt;Node12</title>
<g id="a_edge23_Node000017_Node000012"><a xlink:title=" ">
<path fill="none" stroke="#63b8ff" d="M758.52,-61.76C816.95,-56.85 961.34,-43.38 1091.86,-19.43"/>
<polygon fill="#63b8ff" stroke="#63b8ff" points="1092.15,-22.94 1101.34,-17.66 1090.87,-16.05 1092.15,-22.94"/>
</a>
</g>
</g>
<!-- Node17&#45;&gt;Node13 -->
<g id="edge24_Node000017_Node000013" class="edge">
<title>Node17&#45;&gt;Node13</title>
<g id="a_edge24_Node000017_Node000013"><a xlink:title=" ">
<path fill="none" stroke="#63b8ff" d="M754.05,-54.84C774.69,-46.39 805.78,-33.65 829.3,-24.02"/>
<polygon fill="#63b8ff" stroke="#63b8ff" points="830.51,-27.31 838.44,-20.28 827.86,-20.83 830.51,-27.31"/>
</a>
</g>
</g>
<!-- Node17&#45;&gt;Node14 -->
<g id="edge25_Node000017_Node000014" class="edge">
<title>Node17&#45;&gt;Node14</title>
<g id="a_edge25_Node000017_Node000014"><a xlink:title=" ">
<path fill="none" stroke="#63b8ff" d="M758.82,-56.8C793.28,-47.72 853.41,-31.87 893.46,-21.31"/>
<polygon fill="#63b8ff" stroke="#63b8ff" points="894.2,-24.74 902.97,-18.8 892.41,-17.97 894.2,-24.74"/>
</a>
</g>
</g>
<!-- Node17&#45;&gt;Node15 -->
<g id="edge26_Node000017_Node000015" class="edge">
<title>Node17&#45;&gt;Node15</title>
<g id="a_edge26_Node000017_Node000015"><a xlink:title=" ">
<path fill="none" stroke="#63b8ff" d="M705.22,-56.23C676.27,-47.95 628.47,-34.29 578.89,-20.08"/>
<polygon fill="#63b8ff" stroke="#63b8ff" points="579.99,-16.75 569.41,-17.36 578.06,-23.48 579.99,-16.75"/>
</a>
</g>
</g>
<!-- Node17&#45;&gt;Node16 -->
<g id="edge27_Node000017_Node000016" class="edge">
<title>Node17&#45;&gt;Node16</title>
<g id="a_edge27_Node000017_Node000016"><a xlink:title=" ">
<path fill="none" stroke="#63b8ff" d="M743.2,-54.84C752.74,-47.15 766.67,-35.9 778.11,-26.68"/>
<polygon fill="#63b8ff" stroke="#63b8ff" points="780.21,-29.48 785.79,-20.48 775.81,-24.03 780.21,-29.48"/>
</a>
</g>
</g>
<!-- Node17&#45;&gt;Node18 -->
<g id="edge28_Node000017_Node000018" class="edge">
<title>Node17&#45;&gt;Node18</title>
<g id="a_edge28_Node000017_Node000018"><a xlink:title=" ">
<path fill="none" stroke="#63b8ff" d="M705.43,-63.38C616.41,-61.45 320.71,-52.77 79,-19.25 76.33,-18.88 73.56,-18.43 70.8,-17.95"/>
<polygon fill="#63b8ff" stroke="#63b8ff" points="71.58,-14.53 61.09,-16.05 70.23,-21.4 71.58,-14.53"/>
</a>
</g>
</g>
<!-- Node17&#45;&gt;Node19 -->
<g id="edge29_Node000017_Node000019" class="edge">
<title>Node17&#45;&gt;Node19</title>
<g id="a_edge29_Node000017_Node000019"><a xlink:title=" ">
<path fill="none" stroke="#63b8ff" d="M705.45,-61.59C607.38,-53.14 265.39,-23.67 151.34,-13.84"/>
<polygon fill="#63b8ff" stroke="#63b8ff" points="151.88,-10.38 141.62,-13 151.28,-17.35 151.88,-10.38"/>
</a>
</g>
</g>
<!-- Node17&#45;&gt;Node20 -->
<g id="edge30_Node000017_Node000020" class="edge">
<title>Node17&#45;&gt;Node20</title>
<g id="a_edge30_Node000017_Node000020"><a xlink:title=" ">
<path fill="none" stroke="#63b8ff" d="M705.2,-58.71C666.16,-51.11 591.08,-36.23 518.29,-19.93"/>
<polygon fill="#63b8ff" stroke="#63b8ff" points="519.11,-16.53 508.58,-17.75 517.57,-23.36 519.11,-16.53"/>
</a>
</g>
</g>
<!-- Node21&#45;&gt;Node5 -->
<g id="edge33_Node000021_Node000005" class="edge">
<title>Node21&#45;&gt;Node5</title>
<g id="a_edge33_Node000021_Node000005"><a xlink:title=" ">
<path fill="none" stroke="#63b8ff" d="M936.87,-165.58C933.67,-158.76 929.11,-149.06 925.07,-140.45"/>
<polygon fill="#63b8ff" stroke="#63b8ff" points="928.28,-139.04 920.86,-131.48 921.94,-142.02 928.28,-139.04"/>
</a>
</g>
</g>
<!-- Node21&#45;&gt;Node17 -->
<g id="edge32_Node000021_Node000017" class="edge">
<title>Node21&#45;&gt;Node17</title>
<g id="a_edge32_Node000021_Node000017"><a xlink:title=" ">
<path fill="none" stroke="#63b8ff" d="M925.23,-165.45C902.88,-152.88 860.62,-129.36 824,-110.5 803.25,-99.81 779.55,-88.33 761.41,-79.7"/>
<polygon fill="#63b8ff" stroke="#63b8ff" points="763.07,-76.61 752.53,-75.49 760.07,-82.93 763.07,-76.61"/>
</a>
</g>
</g>
<!-- Node29&#45;&gt;Node15 -->
<g id="edge53_Node000029_Node000015" class="edge">
<title>Node29&#45;&gt;Node15</title>
<g id="a_edge53_Node000029_Node000015"><a xlink:title=" ">
<path fill="none" stroke="#63b8ff" d="M207.15,-110.05C230.32,-101.26 266.23,-87.4 297,-74.5 316.31,-66.4 320.07,-61.66 340,-55.25 412.59,-31.89 436.34,-37.69 512.93,-19.82"/>
<polygon fill="#63b8ff" stroke="#63b8ff" points="513.72,-23.23 522.63,-17.49 512.09,-16.42 513.72,-23.23"/>
</a>
</g>
</g>
<!-- Node29&#45;&gt;Node17 -->
<g id="edge50_Node000029_Node000017" class="edge">
<title>Node29&#45;&gt;Node17</title>
<g id="a_edge50_Node000029_Node000017"><a xlink:title=" ">
<path fill="none" stroke="#63b8ff" d="M213.3,-116.19C306.82,-107.12 590.83,-79.57 694.01,-69.56"/>
<polygon fill="#63b8ff" stroke="#63b8ff" points="694.28,-73.05 703.89,-68.6 693.6,-66.08 694.28,-73.05"/>
</a>
</g>
</g>
<!-- Node29&#45;&gt;Node18 -->
<g id="edge51_Node000029_Node000018" class="edge">
<title>Node29&#45;&gt;Node18</title>
<g id="a_edge51_Node000029_Node000018"><a xlink:title=" ">
<path fill="none" stroke="#63b8ff" d="M169.84,-110.07C157.01,-101.17 137,-87.13 120,-74.5 98.57,-58.58 74.52,-39.72 58.04,-26.64"/>
<polygon fill="#63b8ff" stroke="#63b8ff" points="60.47,-24.11 50.47,-20.62 56.11,-29.59 60.47,-24.11"/>
</a>
</g>
</g>
<!-- Node29&#45;&gt;Node19 -->
<g id="edge55_Node000029_Node000019" class="edge">
<title>Node29&#45;&gt;Node19</title>
<g id="a_edge55_Node000029_Node000019"><a xlink:title=" ">
<path fill="none" stroke="#63b8ff" d="M169.19,-110.09C157.91,-102.02 142.35,-89.23 133,-74.5 124.54,-61.18 119.7,-43.92 117.03,-30.7"/>
<polygon fill="#63b8ff" stroke="#63b8ff" points="120.5,-30.26 115.34,-21.01 113.61,-31.47 120.5,-30.26"/>
</a>
</g>
</g>
<!-- Node30 -->
<g id="Node000030" class="node">
<title>Node30</title>
<g id="a_Node000030"><a xlink:title=" ">
<polygon fill="#e0e0e0" stroke="#999999" points="224.38,-74.5 141.62,-74.5 141.62,-55.25 224.38,-55.25 224.38,-74.5"/>
<text xml:space="preserve" text-anchor="middle" x="183" y="-61" font-family="Helvetica,sans-Serif" font-size="10.00">unordered_map</text>
</a>
</g>
</g>
<!-- Node29&#45;&gt;Node30 -->
<g id="edge52_Node000029_Node000030" class="edge">
<title>Node29&#45;&gt;Node30</title>
<g id="a_edge52_Node000029_Node000030"><a xlink:title=" ">
<path fill="none" stroke="#63b8ff" d="M183,-110.33C183,-103.82 183,-94.67 183,-86.37"/>
<polygon fill="#63b8ff" stroke="#63b8ff" points="186.5,-86.37 183,-76.37 179.5,-86.37 186.5,-86.37"/>
</a>
</g>
</g>
<!-- Node31 -->
<g id="Node000031" class="node">
<title>Node31</title>
<g id="a_Node000031"><a xlink:title=" ">
<polygon fill="#e0e0e0" stroke="#999999" points="287.62,-74.5 242.38,-74.5 242.38,-55.25 287.62,-55.25 287.62,-74.5"/>
<text xml:space="preserve" text-anchor="middle" x="265" y="-61" font-family="Helvetica,sans-Serif" font-size="10.00">atomic</text>
</a>
</g>
</g>
<!-- Node29&#45;&gt;Node31 -->
<g id="edge54_Node000029_Node000031" class="edge">
<title>Node29&#45;&gt;Node31</title>
<g id="a_edge54_Node000029_Node000031"><a xlink:title=" ">
<path fill="none" stroke="#63b8ff" d="M196.91,-110.09C209.16,-102.14 227.25,-90.39 241.71,-81"/>
<polygon fill="#63b8ff" stroke="#63b8ff" points="243.27,-84.16 249.75,-75.78 239.46,-78.29 243.27,-84.16"/>
</a>
</g>
</g>
<!-- Node32&#45;&gt;Node2 -->
<g id="edge60_Node000032_Node000002" class="edge">
<title>Node32&#45;&gt;Node2</title>
<g id="a_edge60_Node000032_Node000002"><a xlink:title=" ">
<path fill="none" stroke="#63b8ff" d="M666.58,-275.84C653.88,-267.89 635.13,-256.14 620.14,-246.75"/>
<polygon fill="#63b8ff" stroke="#63b8ff" points="622.1,-243.85 611.77,-241.51 618.39,-249.78 622.1,-243.85"/>
</a>
</g>
</g>
<!-- Node32&#45;&gt;Node5 -->
<g id="edge59_Node000032_Node000005" class="edge">
<title>Node32&#45;&gt;Node5</title>
<g id="a_edge59_Node000032_Node000005"><a xlink:title=" ">
<path fill="none" stroke="#63b8ff" d="M732.2,-276.07C812.88,-261.03 963.68,-227.83 995,-185 1010.4,-163.95 981.65,-145.9 954.62,-134.42"/>
<polygon fill="#63b8ff" stroke="#63b8ff" points="956.04,-131.22 945.45,-130.76 953.44,-137.72 956.04,-131.22"/>
</a>
</g>
</g>
<!-- Node33 -->
<g id="Node000033" class="node">
<title>Node33</title>
<g id="a_Node000033"><a xlink:title=" ">
<polygon fill="#e0e0e0" stroke="#999999" points="731.12,-240.25 640.88,-240.25 640.88,-221 731.12,-221 731.12,-240.25"/>
<text xml:space="preserve" text-anchor="middle" x="686" y="-226.75" font-family="Helvetica,sans-Serif" font-size="10.00">kernels/kernels.h</text>
</a>
</g>
</g>
<!-- Node32&#45;&gt;Node33 -->
<g id="edge61_Node000032_Node000033" class="edge">
<title>Node32&#45;&gt;Node33</title>
<g id="a_edge61_Node000032_Node000033"><a xlink:title=" ">
<path fill="none" stroke="#63b8ff" d="M681.83,-276.08C682.44,-269.49 683.32,-260.21 684.1,-251.82"/>
<polygon fill="#63b8ff" stroke="#63b8ff" points="687.56,-252.4 685.01,-242.12 680.6,-251.75 687.56,-252.4"/>
</a>
</g>
</g>
</g>
</svg>
