<?xml version="1.0" encoding="UTF-8" standalone="no"?>
<!DOCTYPE svg PUBLIC "-//W3C//DTD SVG 1.1//EN"
 "http://www.w3.org/Graphics/SVG/1.1/DTD/svg11.dtd">
<!-- Generated by graphviz version 14.1.1 (20251213.1925)
 -->
<!-- Title: /Users/ghostface/CLionProjects/Ctorch_2.13/CTorch/src/dev/main.cpp Pages: 1 -->
<svg width="1471pt" height="381pt"
 viewBox="0.00 0.00 1471.00 381.00" xmlns="http://www.w3.org/2000/svg" xmlns:xlink="http://www.w3.org/1999/xlink">
<g id="graph0" class="graph" transform="scale(1 1) rotate(0) translate(4 377.25)">
<title>/Users/ghostface/CLionProjects/Ctorch_2.13/CTorch/src/dev/main.cpp</title>
<!-- Node1 -->
<g id="Node000001" class="node">
<title>Node1</title>
<g id="a_Node000001"><a xlink:title=" ">
<polygon fill="#999999" stroke="#666666" points="305.75,-373.25 150.25,-373.25 150.25,-331.5 305.75,-331.5 305.75,-373.25"/>
<text xml:space="preserve" text-anchor="start" x="158.25" y="-359.75" font-family="Helvetica,sans-Serif" font-size="10.00">/Users/ghostface/CLionProjects</text>
<text xml:space="preserve" text-anchor="start" x="158.25" y="-348.5" font-family="Helvetica,sans-Serif" font-size="10.00">/Ctorch_2.13/CTorch/src/dev</text>
<text xml:space="preserve" text-anchor="middle" x="228" y="-337.25" font-family="Helvetica,sans-Serif" font-size="10.00">/main.cpp</text>
</a>
</g>
</g>
<!-- Node2 -->
<g id="Node000002" class="node">
<title>Node2</title>
<g id="a_Node000002"><a xlink:href="_tensor_8h.html" target="_top" xlink:title="张量类和相关操作的定义">
<polygon fill="white" stroke="#666666" points="818.38,-240.25 765.62,-240.25 765.62,-221 818.38,-221 818.38,-240.25"/>
<text xml:space="preserve" text-anchor="middle" x="792" y="-226.75" font-family="Helvetica,sans-Serif" font-size="10.00">Tensor.h</text>
</a>
</g>
</g>
<!-- Node1&#45;&gt;Node2 -->
<g id="edge1_Node000001_Node000002" class="edge">
<title>Node1&#45;&gt;Node2</title>
<g id="a_edge1_Node000001_Node000002"><a xlink:title=" ">
<path fill="none" stroke="#63b8ff" d="M306.13,-334.79C428.97,-308.7 662.71,-259.08 754.07,-239.68"/>
<polygon fill="#63b8ff" stroke="#63b8ff" points="754.7,-243.12 763.76,-237.62 753.25,-236.27 754.7,-243.12"/>
</a>
</g>
</g>
<!-- Node8 -->
<g id="Node000008" class="node">
<title>Node8</title>
<g id="a_Node000008"><a xlink:title=" ">
<polygon fill="#e0e0e0" stroke="#999999" points="126.62,-19.25 81.38,-19.25 81.38,0 126.62,0 126.62,-19.25"/>
<text xml:space="preserve" text-anchor="middle" x="104" y="-5.75" font-family="Helvetica,sans-Serif" font-size="10.00">chrono</text>
</a>
</g>
</g>
<!-- Node1&#45;&gt;Node8 -->
<g id="edge58_Node000001_Node000008" class="edge">
<title>Node1&#45;&gt;Node8</title>
<g id="a_edge58_Node000001_Node000008"><a xlink:title=" ">
<path fill="none" stroke="#63b8ff" d="M189.09,-331.14C156.06,-310.85 114,-276.26 114,-231.62 114,-231.62 114,-231.62 114,-119.12 114,-88.28 109.94,-52.7 107,-30.94"/>
<polygon fill="#63b8ff" stroke="#63b8ff" points="110.47,-30.51 105.6,-21.1 103.54,-31.49 110.47,-30.51"/>
</a>
</g>
</g>
<!-- Node13 -->
<g id="Node000013" class="node">
<title>Node13</title>
<g id="a_Node000013"><a xlink:title=" ">
<polygon fill="#e0e0e0" stroke="#999999" points="62.88,-19.25 13.12,-19.25 13.12,0 62.88,0 62.88,-19.25"/>
<text xml:space="preserve" text-anchor="middle" x="38" y="-5.75" font-family="Helvetica,sans-Serif" font-size="10.00">iomanip</text>
</a>
</g>
</g>
<!-- Node1&#45;&gt;Node13 -->
<g id="edge59_Node000001_Node000013" class="edge">
<title>Node1&#45;&gt;Node13</title>
<g id="a_edge59_Node000001_Node000013"><a xlink:title=" ">
<path fill="none" stroke="#63b8ff" d="M149.85,-342.58C83.85,-330.3 0,-301.04 0,-231.62 0,-231.62 0,-231.62 0,-119.12 0,-86.13 15.84,-50.51 27.07,-29.41"/>
<polygon fill="#63b8ff" stroke="#63b8ff" points="30.02,-31.3 31.82,-20.86 23.9,-27.9 30.02,-31.3"/>
</a>
</g>
</g>
<!-- Node32 -->
<g id="Node000032" class="node">
<title>Node32</title>
<g id="a_Node000032"><a xlink:href="_ctorch___scheduler_8h.html" target="_top" xlink:title="Ctorch 框架的核心调度器类">
<polygon fill="white" stroke="#666666" points="436.75,-295.5 335.25,-295.5 335.25,-276.25 436.75,-276.25 436.75,-295.5"/>
<text xml:space="preserve" text-anchor="middle" x="386" y="-282" font-family="Helvetica,sans-Serif" font-size="10.00">Ctorch_Scheduler.h</text>
</a>
</g>
</g>
<!-- Node1&#45;&gt;Node32 -->
<g id="edge60_Node000001_Node000032" class="edge">
<title>Node1&#45;&gt;Node32</title>
<g id="a_edge60_Node000001_Node000032"><a xlink:title=" ">
<path fill="none" stroke="#63b8ff" d="M277.56,-331.14C302.33,-321.03 331.62,-309.08 353.5,-300.14"/>
<polygon fill="#63b8ff" stroke="#63b8ff" points="354.57,-303.49 362.5,-296.47 351.92,-297.01 354.57,-303.49"/>
</a>
</g>
</g>
<!-- Node3 -->
<g id="Node000003" class="node">
<title>Node3</title>
<g id="a_Node000003"><a xlink:title=" ">
<polygon fill="#e0e0e0" stroke="#999999" points="1438.88,-185 1383.12,-185 1383.12,-165.75 1438.88,-165.75 1438.88,-185"/>
<text xml:space="preserve" text-anchor="middle" x="1411" y="-171.5" font-family="Helvetica,sans-Serif" font-size="10.00">algorithm</text>
</a>
</g>
</g>
<!-- Node2&#45;&gt;Node3 -->
<g id="edge2_Node000002_Node000003" class="edge">
<title>Node2&#45;&gt;Node3</title>
<g id="a_edge2_Node000002_Node000003"><a xlink:title=" ">
<path fill="none" stroke="#63b8ff" d="M818.58,-228.75C900.79,-225.81 1158.08,-214.69 1369,-185 1370,-184.86 1371.01,-184.71 1372.03,-184.55"/>
<polygon fill="#63b8ff" stroke="#63b8ff" points="1372.33,-188.05 1381.58,-182.88 1371.13,-181.16 1372.33,-188.05"/>
</a>
</g>
</g>
<!-- Node4 -->
<g id="Node000004" class="node">
<title>Node4</title>
<g id="a_Node000004"><a xlink:title=" ">
<polygon fill="#e0e0e0" stroke="#999999" points="1098.62,-74.5 1053.38,-74.5 1053.38,-55.25 1098.62,-55.25 1098.62,-74.5"/>
<text xml:space="preserve" text-anchor="middle" x="1076" y="-61" font-family="Helvetica,sans-Serif" font-size="10.00">atomic</text>
</a>
</g>
</g>
<!-- Node2&#45;&gt;Node4 -->
<g id="edge3_Node000002_Node000004" class="edge">
<title>Node2&#45;&gt;Node4</title>
<g id="a_edge3_Node000002_Node000004"><a xlink:title=" ">
<path fill="none" stroke="#63b8ff" d="M798.05,-220.68C807.54,-207.23 827.12,-181.65 849,-165.75 910.65,-120.95 995.57,-90.36 1042.1,-75.74"/>
<polygon fill="#63b8ff" stroke="#63b8ff" points="1043.09,-79.1 1051.62,-72.81 1041.04,-72.41 1043.09,-79.1"/>
</a>
</g>
</g>
<!-- Node5 -->
<g id="Node000005" class="node">
<title>Node5</title>
<g id="a_Node000005"><a xlink:title=" ">
<polygon fill="#e0e0e0" stroke="#999999" points="906.12,-185 857.88,-185 857.88,-165.75 906.12,-165.75 906.12,-185"/>
<text xml:space="preserve" text-anchor="middle" x="882" y="-171.5" font-family="Helvetica,sans-Serif" font-size="10.00">cstddef</text>
</a>
</g>
</g>
<!-- Node2&#45;&gt;Node5 -->
<g id="edge4_Node000002_Node000005" class="edge">
<title>Node2&#45;&gt;Node5</title>
<g id="a_edge4_Node000002_Node000005"><a xlink:title=" ">
<path fill="none" stroke="#63b8ff" d="M807.27,-220.59C820.84,-212.56 840.95,-200.66 856.9,-191.23"/>
<polygon fill="#63b8ff" stroke="#63b8ff" points="858.53,-194.33 865.36,-186.22 854.97,-188.3 858.53,-194.33"/>
</a>
</g>
</g>
<!-- Node6 -->
<g id="Node000006" class="node">
<title>Node6</title>
<g id="a_Node000006"><a xlink:href="_ctorch___error_8h.html" target="_top" xlink:title="Ctorch 错误处理类">
<polygon fill="white" stroke="#666666" points="389.5,-129.75 310.5,-129.75 310.5,-110.5 389.5,-110.5 389.5,-129.75"/>
<text xml:space="preserve" text-anchor="middle" x="350" y="-116.25" font-family="Helvetica,sans-Serif" font-size="10.00">Ctorch_Error.h</text>
</a>
</g>
</g>
<!-- Node2&#45;&gt;Node6 -->
<g id="edge5_Node000002_Node000006" class="edge">
<title>Node2&#45;&gt;Node6</title>
<g id="a_edge5_Node000002_Node000006"><a xlink:title=" ">
<path fill="none" stroke="#63b8ff" d="M765.34,-228.19C692.53,-223.98 491.68,-210.33 431,-185 405.3,-174.28 380.94,-153.02 365.77,-137.97"/>
<polygon fill="#63b8ff" stroke="#63b8ff" points="368.5,-135.76 359.02,-131.05 363.49,-140.65 368.5,-135.76"/>
</a>
</g>
</g>
<!-- Node7 -->
<g id="Node000007" class="node">
<title>Node7</title>
<g id="a_Node000007"><a xlink:title=" ">
<polygon fill="#e0e0e0" stroke="#999999" points="704.62,-19.25 659.38,-19.25 659.38,0 704.62,0 704.62,-19.25"/>
<text xml:space="preserve" text-anchor="middle" x="682" y="-5.75" font-family="Helvetica,sans-Serif" font-size="10.00">cstring</text>
</a>
</g>
</g>
<!-- Node2&#45;&gt;Node7 -->
<g id="edge43_Node000002_Node000007" class="edge">
<title>Node2&#45;&gt;Node7</title>
<g id="a_edge43_Node000002_Node000007"><a xlink:title=" ">
<path fill="none" stroke="#63b8ff" d="M779.95,-220.54C769.7,-212.25 755.21,-199.18 746,-185 713.13,-134.41 694.12,-64.62 686.27,-30.73"/>
<polygon fill="#63b8ff" stroke="#63b8ff" points="689.71,-30.09 684.13,-21.08 682.88,-31.6 689.71,-30.09"/>
</a>
</g>
</g>
<!-- Node11 -->
<g id="Node000011" class="node">
<title>Node11</title>
<g id="a_Node000011"><a xlink:title=" ">
<polygon fill="#e0e0e0" stroke="#999999" points="511,-19.25 471,-19.25 471,0 511,0 511,-19.25"/>
<text xml:space="preserve" text-anchor="middle" x="491" y="-5.75" font-family="Helvetica,sans-Serif" font-size="10.00">string</text>
</a>
</g>
</g>
<!-- Node2&#45;&gt;Node11 -->
<g id="edge45_Node000002_Node000011" class="edge">
<title>Node2&#45;&gt;Node11</title>
<g id="a_edge45_Node000002_Node000011"><a xlink:title=" ">
<path fill="none" stroke="#63b8ff" d="M772.14,-220.57C754.51,-212.21 728.31,-199 707,-185 628.98,-133.74 545.37,-60.23 509.29,-27.48"/>
<polygon fill="#63b8ff" stroke="#63b8ff" points="511.66,-24.9 501.92,-20.74 506.94,-30.07 511.66,-24.9"/>
</a>
</g>
</g>
<!-- Node12 -->
<g id="Node000012" class="node">
<title>Node12</title>
<g id="a_Node000012"><a xlink:title=" ">
<polygon fill="#e0e0e0" stroke="#999999" points="580.62,-19.25 529.38,-19.25 529.38,0 580.62,0 580.62,-19.25"/>
<text xml:space="preserve" text-anchor="middle" x="555" y="-5.75" font-family="Helvetica,sans-Serif" font-size="10.00">sstream</text>
</a>
</g>
</g>
<!-- Node2&#45;&gt;Node12 -->
<g id="edge41_Node000002_Node000012" class="edge">
<title>Node2&#45;&gt;Node12</title>
<g id="a_edge41_Node000002_Node000012"><a xlink:title=" ">
<path fill="none" stroke="#63b8ff" d="M778.48,-220.6C765.82,-211.95 746.57,-198.28 731,-185 668.15,-131.4 600.55,-60.09 570.7,-27.8"/>
<polygon fill="#63b8ff" stroke="#63b8ff" points="573.37,-25.54 564.03,-20.55 568.22,-30.28 573.37,-25.54"/>
</a>
</g>
</g>
<!-- Node2&#45;&gt;Node13 -->
<g id="edge44_Node000002_Node000013" class="edge">
<title>Node2&#45;&gt;Node13</title>
<g id="a_edge44_Node000002_Node000013"><a xlink:title=" ">
<path fill="none" stroke="#63b8ff" d="M765.47,-229.43C700.89,-228.36 530.86,-221.95 395,-185 278.56,-153.33 254.33,-129.64 147,-74.5 116.99,-59.08 83.69,-39.13 61.89,-25.66"/>
<polygon fill="#63b8ff" stroke="#63b8ff" points="63.8,-22.73 53.46,-20.41 60.1,-28.67 63.8,-22.73"/>
</a>
</g>
</g>
<!-- Node18 -->
<g id="Node000018" class="node">
<title>Node18</title>
<g id="a_Node000018"><a xlink:href="_ctools_8h.html" target="_top" xlink:title="Ctorch 通用工具类，包含通用枚举类型和辅助函数">
<polygon fill="white" stroke="#666666" points="498.38,-74.5 445.62,-74.5 445.62,-55.25 498.38,-55.25 498.38,-74.5"/>
<text xml:space="preserve" text-anchor="middle" x="472" y="-61" font-family="Helvetica,sans-Serif" font-size="10.00">Ctools.h</text>
</a>
</g>
</g>
<!-- Node2&#45;&gt;Node18 -->
<g id="edge49_Node000002_Node000018" class="edge">
<title>Node2&#45;&gt;Node18</title>
<g id="a_edge49_Node000002_Node000018"><a xlink:title=" ">
<path fill="none" stroke="#63b8ff" d="M765.37,-227.36C710.09,-222.23 585.13,-208.36 550,-185 513.24,-160.56 489.81,-112.25 479,-85.27"/>
<polygon fill="#63b8ff" stroke="#63b8ff" points="482.4,-84.35 475.57,-76.25 475.85,-86.84 482.4,-84.35"/>
</a>
</g>
</g>
<!-- Node19 -->
<g id="Node000019" class="node">
<title>Node19</title>
<g id="a_Node000019"><a xlink:title=" ">
<polygon fill="#e0e0e0" stroke="#999999" points="951.5,-19.25 908.5,-19.25 908.5,0 951.5,0 951.5,-19.25"/>
<text xml:space="preserve" text-anchor="middle" x="930" y="-5.75" font-family="Helvetica,sans-Serif" font-size="10.00">vector</text>
</a>
</g>
</g>
<!-- Node2&#45;&gt;Node19 -->
<g id="edge40_Node000002_Node000019" class="edge">
<title>Node2&#45;&gt;Node19</title>
<g id="a_edge40_Node000002_Node000019"><a xlink:title=" ">
<path fill="none" stroke="#63b8ff" d="M818.8,-229.5C923.45,-228.75 1300.64,-223.37 1336,-185 1448.83,-62.54 1078.42,-22.38 963.14,-13"/>
<polygon fill="#63b8ff" stroke="#63b8ff" points="963.65,-9.53 953.4,-12.24 963.1,-16.51 963.65,-9.53"/>
</a>
</g>
</g>
<!-- Node20 -->
<g id="Node000020" class="node">
<title>Node20</title>
<g id="a_Node000020"><a xlink:title=" ">
<polygon fill="#e0e0e0" stroke="#999999" points="779.62,-19.25 728.38,-19.25 728.38,0 779.62,0 779.62,-19.25"/>
<text xml:space="preserve" text-anchor="middle" x="754" y="-5.75" font-family="Helvetica,sans-Serif" font-size="10.00">memory</text>
</a>
</g>
</g>
<!-- Node2&#45;&gt;Node20 -->
<g id="edge37_Node000002_Node000020" class="edge">
<title>Node2&#45;&gt;Node20</title>
<g id="a_edge37_Node000002_Node000020"><a xlink:title=" ">
<path fill="none" stroke="#63b8ff" d="M784.73,-220.71C771.69,-204.06 744.78,-166.61 735,-129.75 725.86,-95.29 737.28,-53.98 745.95,-30.17"/>
<polygon fill="#63b8ff" stroke="#63b8ff" points="749.11,-31.72 749.46,-21.13 742.58,-29.19 749.11,-31.72"/>
</a>
</g>
</g>
<!-- Node21 -->
<g id="Node000021" class="node">
<title>Node21</title>
<g id="a_Node000021"><a xlink:title=" ">
<polygon fill="#e0e0e0" stroke="#999999" points="1257.75,-19.25 1204.25,-19.25 1204.25,0 1257.75,0 1257.75,-19.25"/>
<text xml:space="preserve" text-anchor="middle" x="1231" y="-5.75" font-family="Helvetica,sans-Serif" font-size="10.00">iostream</text>
</a>
</g>
</g>
<!-- Node2&#45;&gt;Node21 -->
<g id="edge36_Node000002_Node000021" class="edge">
<title>Node2&#45;&gt;Node21</title>
<g id="a_edge36_Node000002_Node000021"><a xlink:title=" ">
<path fill="none" stroke="#63b8ff" d="M818.53,-229.9C935.89,-230.85 1404.41,-231.66 1448,-185 1513.49,-114.9 1346.97,-48.68 1268.85,-22.46"/>
<polygon fill="#63b8ff" stroke="#63b8ff" points="1270.03,-19.16 1259.44,-19.36 1267.84,-25.81 1270.03,-19.16"/>
</a>
</g>
</g>
<!-- Node22 -->
<g id="Node000022" class="node">
<title>Node22</title>
<g id="a_Node000022"><a xlink:href="_storage_8h.html" target="_top" xlink:title="Ctorch 存储类，用于管理张量数据的底层存储">
<polygon fill="white" stroke="#666666" points="498,-185 440,-185 440,-165.75 498,-165.75 498,-185"/>
<text xml:space="preserve" text-anchor="middle" x="469" y="-171.5" font-family="Helvetica,sans-Serif" font-size="10.00">Storage.h</text>
</a>
</g>
</g>
<!-- Node2&#45;&gt;Node22 -->
<g id="edge32_Node000002_Node000022" class="edge">
<title>Node2&#45;&gt;Node22</title>
<g id="a_edge32_Node000002_Node000022"><a xlink:title=" ">
<path fill="none" stroke="#63b8ff" d="M765.3,-225.73C715.43,-218.38 604.78,-201.69 512,-185 511.02,-184.82 510.02,-184.64 509.02,-184.46"/>
<polygon fill="#63b8ff" stroke="#63b8ff" points="510.08,-181.1 499.6,-182.66 508.77,-187.97 510.08,-181.1"/>
</a>
</g>
</g>
<!-- Node23 -->
<g id="Node000023" class="node">
<title>Node23</title>
<g id="a_Node000023"><a xlink:title=" ">
<polygon fill="#e0e0e0" stroke="#999999" points="996.12,-185 923.88,-185 923.88,-165.75 996.12,-165.75 996.12,-185"/>
<text xml:space="preserve" text-anchor="middle" x="960" y="-171.5" font-family="Helvetica,sans-Serif" font-size="10.00">initializer_list</text>
</a>
</g>
</g>
<!-- Node2&#45;&gt;Node23 -->
<g id="edge35_Node000002_Node000023" class="edge">
<title>Node2&#45;&gt;Node23</title>
<g id="a_edge35_Node000002_Node000023"><a xlink:title=" ">
<path fill="none" stroke="#63b8ff" d="M818.62,-221.19C846.1,-212.48 889.27,-198.79 920.68,-188.84"/>
<polygon fill="#63b8ff" stroke="#63b8ff" points="921.34,-192.3 929.81,-185.94 919.22,-185.63 921.34,-192.3"/>
</a>
</g>
</g>
<!-- Node24 -->
<g id="Node000024" class="node">
<title>Node24</title>
<g id="a_Node000024"><a xlink:title=" ">
<polygon fill="#e0e0e0" stroke="#999999" points="1064.25,-185 1013.75,-185 1013.75,-165.75 1064.25,-165.75 1064.25,-185"/>
<text xml:space="preserve" text-anchor="middle" x="1039" y="-171.5" font-family="Helvetica,sans-Serif" font-size="10.00">numeric</text>
</a>
</g>
</g>
<!-- Node2&#45;&gt;Node24 -->
<g id="edge38_Node000002_Node000024" class="edge">
<title>Node2&#45;&gt;Node24</title>
<g id="a_edge38_Node000002_Node000024"><a xlink:title=" ">
<path fill="none" stroke="#63b8ff" d="M818.64,-224.42C857.08,-216.82 930.56,-202.01 1002.37,-185.54"/>
<polygon fill="#63b8ff" stroke="#63b8ff" points="1002.98,-188.99 1011.93,-183.33 1001.4,-182.17 1002.98,-188.99"/>
</a>
</g>
</g>
<!-- Node25 -->
<g id="Node000025" class="node">
<title>Node25</title>
<g id="a_Node000025"><a xlink:title=" ">
<polygon fill="#e0e0e0" stroke="#999999" points="1141.38,-185 1082.62,-185 1082.62,-165.75 1141.38,-165.75 1141.38,-185"/>
<text xml:space="preserve" text-anchor="middle" x="1112" y="-171.5" font-family="Helvetica,sans-Serif" font-size="10.00">stdexcept</text>
</a>
</g>
</g>
<!-- Node2&#45;&gt;Node25 -->
<g id="edge39_Node000002_Node000025" class="edge">
<title>Node2&#45;&gt;Node25</title>
<g id="a_edge39_Node000002_Node000025"><a xlink:title=" ">
<path fill="none" stroke="#63b8ff" d="M818.83,-225.91C867.12,-219.11 972.11,-203.8 1071.12,-185.25"/>
<polygon fill="#63b8ff" stroke="#63b8ff" points="1071.56,-188.73 1080.74,-183.43 1070.26,-181.85 1071.56,-188.73"/>
</a>
</g>
</g>
<!-- Node26 -->
<g id="Node000026" class="node">
<title>Node26</title>
<g id="a_Node000026"><a xlink:title=" ">
<polygon fill="#e0e0e0" stroke="#999999" points="1217,-185 1159,-185 1159,-165.75 1217,-165.75 1217,-185"/>
<text xml:space="preserve" text-anchor="middle" x="1188" y="-171.5" font-family="Helvetica,sans-Serif" font-size="10.00">functional</text>
</a>
</g>
</g>
<!-- Node2&#45;&gt;Node26 -->
<g id="edge42_Node000002_Node000026" class="edge">
<title>Node2&#45;&gt;Node26</title>
<g id="a_edge42_Node000002_Node000026"><a xlink:title=" ">
<path fill="none" stroke="#63b8ff" d="M818.63,-227.22C876.57,-221.79 1018.57,-207.43 1147.37,-185.3"/>
<polygon fill="#63b8ff" stroke="#63b8ff" points="1147.86,-188.77 1157.11,-183.61 1146.66,-181.88 1147.86,-188.77"/>
</a>
</g>
</g>
<!-- Node27 -->
<g id="Node000027" class="node">
<title>Node27</title>
<g id="a_Node000027"><a xlink:title=" ">
<polygon fill="#e0e0e0" stroke="#999999" points="1035.75,-74.5 958.25,-74.5 958.25,-55.25 1035.75,-55.25 1035.75,-74.5"/>
<text xml:space="preserve" text-anchor="middle" x="997" y="-61" font-family="Helvetica,sans-Serif" font-size="10.00">unordered_set</text>
</a>
</g>
</g>
<!-- Node2&#45;&gt;Node27 -->
<g id="edge46_Node000002_Node000027" class="edge">
<title>Node2&#45;&gt;Node27</title>
<g id="a_edge46_Node000002_Node000027"><a xlink:title=" ">
<path fill="none" stroke="#63b8ff" d="M793.96,-220.68C799.41,-198.11 816.98,-138.67 856,-110.5 882.74,-91.19 918.14,-80.03 946.79,-73.69"/>
<polygon fill="#63b8ff" stroke="#63b8ff" points="947.23,-77.17 956.32,-71.72 945.81,-70.32 947.23,-77.17"/>
</a>
</g>
</g>
<!-- Node28 -->
<g id="Node000028" class="node">
<title>Node28</title>
<g id="a_Node000028"><a xlink:title=" ">
<polygon fill="#e0e0e0" stroke="#999999" points="1274.62,-185 1235.38,-185 1235.38,-165.75 1274.62,-165.75 1274.62,-185"/>
<text xml:space="preserve" text-anchor="middle" x="1255" y="-171.5" font-family="Helvetica,sans-Serif" font-size="10.00">limits</text>
</a>
</g>
</g>
<!-- Node2&#45;&gt;Node28 -->
<g id="edge47_Node000002_Node000028" class="edge">
<title>Node2&#45;&gt;Node28</title>
<g id="a_edge47_Node000002_Node000028"><a xlink:title=" ">
<path fill="none" stroke="#63b8ff" d="M818.68,-228.61C885.48,-225.72 1065.36,-215.67 1224.24,-184.96"/>
<polygon fill="#63b8ff" stroke="#63b8ff" points="1224.53,-188.47 1233.67,-183.1 1223.18,-181.6 1224.53,-188.47"/>
</a>
</g>
</g>
<!-- Node29 -->
<g id="Node000029" class="node">
<title>Node29</title>
<g id="a_Node000029"><a xlink:title=" ">
<polygon fill="#e0e0e0" stroke="#999999" points="1327.38,-185 1292.62,-185 1292.62,-165.75 1327.38,-165.75 1327.38,-185"/>
<text xml:space="preserve" text-anchor="middle" x="1310" y="-171.5" font-family="Helvetica,sans-Serif" font-size="10.00">map</text>
</a>
</g>
</g>
<!-- Node2&#45;&gt;Node29 -->
<g id="edge48_Node000002_Node000029" class="edge">
<title>Node2&#45;&gt;Node29</title>
<g id="a_edge48_Node000002_Node000029"><a xlink:title=" ">
<path fill="none" stroke="#63b8ff" d="M818.72,-229.35C891.7,-228.14 1100.55,-221.69 1281.21,-185.14"/>
<polygon fill="#63b8ff" stroke="#63b8ff" points="1281.68,-188.62 1290.76,-183.17 1280.26,-181.76 1281.68,-188.62"/>
</a>
</g>
</g>
<!-- Node30 -->
<g id="Node000030" class="node">
<title>Node30</title>
<g id="a_Node000030"><a xlink:href="_auto_diff_8h.html" target="_top" xlink:title="Ctorch 自动微分系统">
<polygon fill="white" stroke="#666666" points="804.12,-129.75 743.88,-129.75 743.88,-110.5 804.12,-110.5 804.12,-129.75"/>
<text xml:space="preserve" text-anchor="middle" x="774" y="-116.25" font-family="Helvetica,sans-Serif" font-size="10.00">AutoDiff.h</text>
</a>
</g>
</g>
<!-- Node2&#45;&gt;Node30 -->
<g id="edge50_Node000002_Node000030" class="edge">
<title>Node2&#45;&gt;Node30</title>
<g id="a_edge50_Node000002_Node000030"><a xlink:title=" ">
<path fill="none" stroke="#63b8ff" d="M788.44,-220.56C785.12,-211.66 780.34,-197.61 778,-185 775.32,-170.57 774.35,-154.02 774.02,-141.38"/>
<polygon fill="#63b8ff" stroke="#63b8ff" points="777.52,-141.35 773.9,-131.4 770.52,-141.44 777.52,-141.35"/>
</a>
</g>
</g>
<!-- Node6&#45;&gt;Node7 -->
<g id="edge6_Node000006_Node000007" class="edge">
<title>Node6&#45;&gt;Node7</title>
<g id="a_edge6_Node000006_Node000007"><a xlink:title=" ">
<path fill="none" stroke="#63b8ff" d="M389.92,-112.07C428.8,-104.65 489.3,-91.68 540,-74.5 581.14,-60.56 626.57,-38.96 654.71,-24.8"/>
<polygon fill="#63b8ff" stroke="#63b8ff" points="656.27,-27.93 663.6,-20.28 653.1,-21.69 656.27,-27.93"/>
</a>
</g>
</g>
<!-- Node6&#45;&gt;Node8 -->
<g id="edge7_Node000006_Node000008" class="edge">
<title>Node6&#45;&gt;Node8</title>
<g id="a_edge7_Node000006_Node000008"><a xlink:title=" ">
<path fill="none" stroke="#63b8ff" d="M329.06,-110.13C308.23,-101.17 275.36,-86.98 247,-74.5 207.94,-57.31 163.02,-37.19 134.11,-24.19"/>
<polygon fill="#63b8ff" stroke="#63b8ff" points="135.8,-21.11 125.24,-20.2 132.93,-27.5 135.8,-21.11"/>
</a>
</g>
</g>
<!-- Node9 -->
<g id="Node000009" class="node">
<title>Node9</title>
<g id="a_Node000009"><a xlink:title=" ">
<polygon fill="#e0e0e0" stroke="#999999" points="386.62,-19.25 341.38,-19.25 341.38,0 386.62,0 386.62,-19.25"/>
<text xml:space="preserve" text-anchor="middle" x="364" y="-5.75" font-family="Helvetica,sans-Serif" font-size="10.00">cstdint</text>
</a>
</g>
</g>
<!-- Node6&#45;&gt;Node9 -->
<g id="edge8_Node000006_Node000009" class="edge">
<title>Node6&#45;&gt;Node9</title>
<g id="a_edge8_Node000006_Node000009"><a xlink:title=" ">
<path fill="none" stroke="#63b8ff" d="M342.88,-110.01C334.1,-97.61 321.13,-74.71 328,-55.25 331.62,-45 338.71,-35.37 345.64,-27.7"/>
<polygon fill="#63b8ff" stroke="#63b8ff" points="347.94,-30.35 352.44,-20.75 342.94,-25.45 347.94,-30.35"/>
</a>
</g>
</g>
<!-- Node10 -->
<g id="Node000010" class="node">
<title>Node10</title>
<g id="a_Node000010"><a xlink:title=" ">
<polygon fill="#e0e0e0" stroke="#999999" points="323,-19.25 283,-19.25 283,0 323,0 323,-19.25"/>
<text xml:space="preserve" text-anchor="middle" x="303" y="-5.75" font-family="Helvetica,sans-Serif" font-size="10.00">ctime</text>
</a>
</g>
</g>
<!-- Node6&#45;&gt;Node10 -->
<g id="edge9_Node000006_Node000010" class="edge">
<title>Node6&#45;&gt;Node10</title>
<g id="a_edge9_Node000006_Node000010"><a xlink:title=" ">
<path fill="none" stroke="#63b8ff" d="M343.45,-110.3C337.23,-101.58 327.96,-87.67 322,-74.5 315.57,-60.28 310.64,-43.31 307.42,-30.44"/>
<polygon fill="#63b8ff" stroke="#63b8ff" points="310.9,-29.98 305.2,-21.05 304.09,-31.58 310.9,-29.98"/>
</a>
</g>
</g>
<!-- Node6&#45;&gt;Node11 -->
<g id="edge10_Node000006_Node000011" class="edge">
<title>Node6&#45;&gt;Node11</title>
<g id="a_edge10_Node000006_Node000011"><a xlink:title=" ">
<path fill="none" stroke="#63b8ff" d="M355.74,-110.32C364.74,-97.04 383.31,-71.69 404,-55.25 421.06,-41.69 442.88,-30.51 460.41,-22.73"/>
<polygon fill="#63b8ff" stroke="#63b8ff" points="461.47,-26.09 469.29,-18.93 458.72,-19.65 461.47,-26.09"/>
</a>
</g>
</g>
<!-- Node6&#45;&gt;Node12 -->
<g id="edge11_Node000006_Node000012" class="edge">
<title>Node6&#45;&gt;Node12</title>
<g id="a_edge11_Node000006_Node000012"><a xlink:title=" ">
<path fill="none" stroke="#63b8ff" d="M360.35,-110.06C376.05,-96.66 407.19,-71.43 437,-55.25 463.09,-41.09 494.63,-29.41 518.53,-21.56"/>
<polygon fill="#63b8ff" stroke="#63b8ff" points="519.37,-24.97 527.82,-18.58 517.23,-18.3 519.37,-24.97"/>
</a>
</g>
</g>
<!-- Node6&#45;&gt;Node13 -->
<g id="edge12_Node000006_Node000013" class="edge">
<title>Node6&#45;&gt;Node13</title>
<g id="a_edge12_Node000006_Node000013"><a xlink:title=" ">
<path fill="none" stroke="#63b8ff" d="M316.37,-110.02C285.8,-101.53 239.55,-88.15 200,-74.5 154.04,-58.64 101.89,-37.5 69.47,-23.97"/>
<polygon fill="#63b8ff" stroke="#63b8ff" points="71.24,-20.92 60.66,-20.28 68.53,-27.37 71.24,-20.92"/>
</a>
</g>
</g>
<!-- Node14 -->
<g id="Node000014" class="node">
<title>Node14</title>
<g id="a_Node000014"><a xlink:title=" ">
<polygon fill="#e0e0e0" stroke="#999999" points="453.12,-19.25 404.88,-19.25 404.88,0 453.12,0 453.12,-19.25"/>
<text xml:space="preserve" text-anchor="middle" x="429" y="-5.75" font-family="Helvetica,sans-Serif" font-size="10.00">stdint.h</text>
</a>
</g>
</g>
<!-- Node6&#45;&gt;Node14 -->
<g id="edge13_Node000006_Node000014" class="edge">
<title>Node6&#45;&gt;Node14</title>
<g id="a_edge13_Node000006_Node000014"><a xlink:title=" ">
<path fill="none" stroke="#63b8ff" d="M350.32,-110.07C351.19,-96.91 354.38,-72.23 366,-55.25 374.51,-42.8 387.71,-32.68 399.83,-25.24"/>
<polygon fill="#63b8ff" stroke="#63b8ff" points="401.38,-28.39 408.32,-20.38 397.9,-22.31 401.38,-28.39"/>
</a>
</g>
</g>
<!-- Node15 -->
<g id="Node000015" class="node">
<title>Node15</title>
<g id="a_Node000015"><a xlink:title=" ">
<polygon fill="#e0e0e0" stroke="#999999" points="203.38,-19.25 144.62,-19.25 144.62,0 203.38,0 203.38,-19.25"/>
<text xml:space="preserve" text-anchor="middle" x="174" y="-5.75" font-family="Helvetica,sans-Serif" font-size="10.00">inttypes.h</text>
</a>
</g>
</g>
<!-- Node6&#45;&gt;Node15 -->
<g id="edge14_Node000006_Node000015" class="edge">
<title>Node6&#45;&gt;Node15</title>
<g id="a_edge14_Node000006_Node000015"><a xlink:title=" ">
<path fill="none" stroke="#63b8ff" d="M335.3,-110.06C304.94,-91.35 235.08,-48.28 198.05,-25.45"/>
<polygon fill="#63b8ff" stroke="#63b8ff" points="200.17,-22.65 189.83,-20.38 196.5,-28.61 200.17,-22.65"/>
</a>
</g>
</g>
<!-- Node16 -->
<g id="Node000016" class="node">
<title>Node16</title>
<g id="a_Node000016"><a xlink:title=" ">
<polygon fill="#e0e0e0" stroke="#999999" points="641.5,-19.25 598.5,-19.25 598.5,0 641.5,0 641.5,-19.25"/>
<text xml:space="preserve" text-anchor="middle" x="620" y="-5.75" font-family="Helvetica,sans-Serif" font-size="10.00">mutex</text>
</a>
</g>
</g>
<!-- Node6&#45;&gt;Node16 -->
<g id="edge15_Node000006_Node000016" class="edge">
<title>Node6&#45;&gt;Node16</title>
<g id="a_edge15_Node000006_Node000016"><a xlink:title=" ">
<path fill="none" stroke="#63b8ff" d="M389.92,-110.55C422.19,-102.97 468.43,-90.61 507,-74.5 539.67,-60.85 574.8,-39.9 597.07,-25.74"/>
<polygon fill="#63b8ff" stroke="#63b8ff" points="598.84,-28.77 605.35,-20.41 595.05,-22.88 598.84,-28.77"/>
</a>
</g>
</g>
<!-- Node17 -->
<g id="Node000017" class="node">
<title>Node17</title>
<g id="a_Node000017"><a xlink:title=" ">
<polygon fill="#e0e0e0" stroke="#999999" points="264.5,-19.25 221.5,-19.25 221.5,0 264.5,0 264.5,-19.25"/>
<text xml:space="preserve" text-anchor="middle" x="243" y="-5.75" font-family="Helvetica,sans-Serif" font-size="10.00">thread</text>
</a>
</g>
</g>
<!-- Node6&#45;&gt;Node17 -->
<g id="edge16_Node000006_Node000017" class="edge">
<title>Node6&#45;&gt;Node17</title>
<g id="a_edge16_Node000006_Node000017"><a xlink:title=" ">
<path fill="none" stroke="#63b8ff" d="M341.24,-110.25C323.45,-92.21 282.81,-51 259.77,-27.63"/>
<polygon fill="#63b8ff" stroke="#63b8ff" points="262.45,-25.37 252.94,-20.7 257.47,-30.28 262.45,-25.37"/>
</a>
</g>
</g>
<!-- Node6&#45;&gt;Node18 -->
<g id="edge17_Node000006_Node000018" class="edge">
<title>Node6&#45;&gt;Node18</title>
<g id="a_edge17_Node000006_Node000018"><a xlink:title=" ">
<path fill="none" stroke="#63b8ff" d="M370.7,-110.09C389.89,-101.72 418.71,-89.13 440.72,-79.53"/>
<polygon fill="#63b8ff" stroke="#63b8ff" points="442.05,-82.77 449.82,-75.56 439.25,-76.35 442.05,-82.77"/>
</a>
</g>
</g>
<!-- Node18&#45;&gt;Node7 -->
<g id="edge18_Node000018_Node000007" class="edge">
<title>Node18&#45;&gt;Node7</title>
<g id="a_edge18_Node000018_Node000007"><a xlink:title=" ">
<path fill="none" stroke="#63b8ff" d="M498.74,-57.45C531.73,-49.47 589.79,-35.25 648.11,-19.97"/>
<polygon fill="#63b8ff" stroke="#63b8ff" points="648.75,-23.42 657.53,-17.49 646.97,-16.65 648.75,-23.42"/>
</a>
</g>
</g>
<!-- Node18&#45;&gt;Node8 -->
<g id="edge19_Node000018_Node000008" class="edge">
<title>Node18&#45;&gt;Node8</title>
<g id="a_edge19_Node000018_Node000008"><a xlink:title=" ">
<path fill="none" stroke="#63b8ff" d="M445.23,-61.52C389.8,-56.4 258.24,-42.92 138.19,-19.44"/>
<polygon fill="#63b8ff" stroke="#63b8ff" points="138.96,-16.02 128.47,-17.5 137.6,-22.89 138.96,-16.02"/>
</a>
</g>
</g>
<!-- Node18&#45;&gt;Node9 -->
<g id="edge20_Node000018_Node000009" class="edge">
<title>Node18&#45;&gt;Node9</title>
<g id="a_edge20_Node000018_Node000009"><a xlink:title=" ">
<path fill="none" stroke="#63b8ff" d="M453.68,-54.84C436.92,-46.58 411.87,-34.23 392.5,-24.68"/>
<polygon fill="#63b8ff" stroke="#63b8ff" points="394.28,-21.65 383.77,-20.37 391.19,-27.93 394.28,-21.65"/>
</a>
</g>
</g>
<!-- Node18&#45;&gt;Node10 -->
<g id="edge21_Node000018_Node000010" class="edge">
<title>Node18&#45;&gt;Node10</title>
<g id="a_edge21_Node000018_Node000010"><a xlink:title=" ">
<path fill="none" stroke="#63b8ff" d="M445.22,-55.44C415.05,-45.93 366.07,-30.5 334.19,-20.45"/>
<polygon fill="#63b8ff" stroke="#63b8ff" points="335.32,-17.14 324.73,-17.47 333.22,-23.82 335.32,-17.14"/>
</a>
</g>
</g>
<!-- Node18&#45;&gt;Node11 -->
<g id="edge22_Node000018_Node000011" class="edge">
<title>Node18&#45;&gt;Node11</title>
<g id="a_edge22_Node000018_Node000011"><a xlink:title=" ">
<path fill="none" stroke="#63b8ff" d="M475.14,-55.08C477.54,-48.34 480.96,-38.77 484,-30.24"/>
<polygon fill="#63b8ff" stroke="#63b8ff" points="487.22,-31.63 487.29,-21.03 480.63,-29.28 487.22,-31.63"/>
</a>
</g>
</g>
<!-- Node18&#45;&gt;Node12 -->
<g id="edge23_Node000018_Node000012" class="edge">
<title>Node18&#45;&gt;Node12</title>
<g id="a_edge23_Node000018_Node000012"><a xlink:title=" ">
<path fill="none" stroke="#63b8ff" d="M486.08,-54.84C498.48,-46.89 516.79,-35.14 531.43,-25.75"/>
<polygon fill="#63b8ff" stroke="#63b8ff" points="533.05,-28.87 539.58,-20.52 529.27,-22.97 533.05,-28.87"/>
</a>
</g>
</g>
<!-- Node18&#45;&gt;Node13 -->
<g id="edge24_Node000018_Node000013" class="edge">
<title>Node18&#45;&gt;Node13</title>
<g id="a_edge24_Node000018_Node000013"><a xlink:title=" ">
<path fill="none" stroke="#63b8ff" d="M445.13,-62.16C382.11,-57.86 219.74,-45.21 74.48,-19.46"/>
<polygon fill="#63b8ff" stroke="#63b8ff" points="75.12,-16.02 64.66,-17.69 73.88,-22.91 75.12,-16.02"/>
</a>
</g>
</g>
<!-- Node18&#45;&gt;Node14 -->
<g id="edge25_Node000018_Node000014" class="edge">
<title>Node18&#45;&gt;Node14</title>
<g id="a_edge25_Node000018_Node000014"><a xlink:title=" ">
<path fill="none" stroke="#63b8ff" d="M464.9,-55.08C459.08,-47.88 450.67,-37.46 443.44,-28.51"/>
<polygon fill="#63b8ff" stroke="#63b8ff" points="446.21,-26.37 437.21,-20.79 440.77,-30.77 446.21,-26.37"/>
</a>
</g>
</g>
<!-- Node18&#45;&gt;Node15 -->
<g id="edge26_Node000018_Node000015" class="edge">
<title>Node18&#45;&gt;Node15</title>
<g id="a_edge26_Node000018_Node000015"><a xlink:title=" ">
<path fill="none" stroke="#63b8ff" d="M445.34,-59.78C400.04,-52.72 304.91,-37.45 215.05,-19.78"/>
<polygon fill="#63b8ff" stroke="#63b8ff" points="215.81,-16.36 205.32,-17.85 214.45,-23.23 215.81,-16.36"/>
</a>
</g>
</g>
<!-- Node18&#45;&gt;Node16 -->
<g id="edge27_Node000018_Node000016" class="edge">
<title>Node18&#45;&gt;Node16</title>
<g id="a_edge27_Node000018_Node000016"><a xlink:title=" ">
<path fill="none" stroke="#63b8ff" d="M497.11,-54.84C522.04,-45.87 560.38,-32.08 587.6,-22.28"/>
<polygon fill="#63b8ff" stroke="#63b8ff" points="588.5,-25.68 596.73,-19 586.13,-19.09 588.5,-25.68"/>
</a>
</g>
</g>
<!-- Node18&#45;&gt;Node17 -->
<g id="edge28_Node000018_Node000017" class="edge">
<title>Node18&#45;&gt;Node17</title>
<g id="a_edge28_Node000018_Node000017"><a xlink:title=" ">
<path fill="none" stroke="#63b8ff" d="M445.32,-58.3C409.21,-50.66 342.52,-36.23 276.07,-19.67"/>
<polygon fill="#63b8ff" stroke="#63b8ff" points="277,-16.29 266.45,-17.25 275.29,-23.08 277,-16.29"/>
</a>
</g>
</g>
<!-- Node18&#45;&gt;Node19 -->
<g id="edge29_Node000018_Node000019" class="edge">
<title>Node18&#45;&gt;Node19</title>
<g id="a_edge29_Node000018_Node000019"><a xlink:title=" ">
<path fill="none" stroke="#63b8ff" d="M498.6,-60.78C577.56,-51.6 810.41,-24.53 897.04,-14.46"/>
<polygon fill="#63b8ff" stroke="#63b8ff" points="897.23,-17.96 906.76,-13.33 896.42,-11.01 897.23,-17.96"/>
</a>
</g>
</g>
<!-- Node18&#45;&gt;Node20 -->
<g id="edge30_Node000018_Node000020" class="edge">
<title>Node18&#45;&gt;Node20</title>
<g id="a_edge30_Node000018_Node000020"><a xlink:title=" ">
<path fill="none" stroke="#63b8ff" d="M498.55,-59.25C543.14,-51.42 635.87,-34.87 714,-19.25 715.01,-19.05 716.03,-18.84 717.05,-18.63"/>
<polygon fill="#63b8ff" stroke="#63b8ff" points="717.65,-22.09 726.72,-16.62 716.22,-15.23 717.65,-22.09"/>
</a>
</g>
</g>
<!-- Node18&#45;&gt;Node21 -->
<g id="edge31_Node000018_Node000021" class="edge">
<title>Node18&#45;&gt;Node21</title>
<g id="a_edge31_Node000018_Node000021"><a xlink:title=" ">
<path fill="none" stroke="#63b8ff" d="M498.57,-62.01C612.29,-54.03 1058.33,-22.74 1192.57,-13.32"/>
<polygon fill="#63b8ff" stroke="#63b8ff" points="1192.62,-16.83 1202.35,-12.64 1192.13,-9.84 1192.62,-16.83"/>
</a>
</g>
</g>
<!-- Node22&#45;&gt;Node6 -->
<g id="edge34_Node000022_Node000006" class="edge">
<title>Node22&#45;&gt;Node6</title>
<g id="a_edge34_Node000022_Node000006"><a xlink:title=" ">
<path fill="none" stroke="#63b8ff" d="M448.81,-165.34C430.09,-156.97 401.98,-144.38 380.52,-134.78"/>
<polygon fill="#63b8ff" stroke="#63b8ff" points="382.22,-131.71 371.67,-130.82 379.37,-138.1 382.22,-131.71"/>
</a>
</g>
</g>
<!-- Node22&#45;&gt;Node18 -->
<g id="edge33_Node000022_Node000018" class="edge">
<title>Node22&#45;&gt;Node18</title>
<g id="a_edge33_Node000022_Node000018"><a xlink:title=" ">
<path fill="none" stroke="#63b8ff" d="M469.25,-165.5C469.72,-148.25 470.78,-109.83 471.44,-86.06"/>
<polygon fill="#63b8ff" stroke="#63b8ff" points="474.93,-86.48 471.71,-76.39 467.93,-86.29 474.93,-86.48"/>
</a>
</g>
</g>
<!-- Node30&#45;&gt;Node4 -->
<g id="edge56_Node000030_Node000004" class="edge">
<title>Node30&#45;&gt;Node4</title>
<g id="a_edge56_Node000030_Node000004"><a xlink:title=" ">
<path fill="none" stroke="#63b8ff" d="M804.28,-115.23C852.61,-108.78 950.37,-94.77 1041.92,-75"/>
<polygon fill="#63b8ff" stroke="#63b8ff" points="1042.55,-78.44 1051.57,-72.88 1041.05,-71.61 1042.55,-78.44"/>
</a>
</g>
</g>
<!-- Node30&#45;&gt;Node16 -->
<g id="edge55_Node000030_Node000016" class="edge">
<title>Node30&#45;&gt;Node16</title>
<g id="a_edge55_Node000030_Node000016"><a xlink:title=" ">
<path fill="none" stroke="#63b8ff" d="M761.13,-110.06C734.8,-91.51 674.48,-49.01 641.88,-26.04"/>
<polygon fill="#63b8ff" stroke="#63b8ff" points="644.15,-23.36 633.96,-20.46 640.12,-29.08 644.15,-23.36"/>
</a>
</g>
</g>
<!-- Node30&#45;&gt;Node18 -->
<g id="edge51_Node000030_Node000018" class="edge">
<title>Node30&#45;&gt;Node18</title>
<g id="a_edge51_Node000030_Node000018"><a xlink:title=" ">
<path fill="none" stroke="#63b8ff" d="M743.38,-113.73C687.85,-103.93 570.68,-83.28 510.09,-72.59"/>
<polygon fill="#63b8ff" stroke="#63b8ff" points="510.7,-69.15 500.25,-70.86 509.49,-76.04 510.7,-69.15"/>
</a>
</g>
</g>
<!-- Node30&#45;&gt;Node19 -->
<g id="edge52_Node000030_Node000019" class="edge">
<title>Node30&#45;&gt;Node19</title>
<g id="a_edge52_Node000030_Node000019"><a xlink:title=" ">
<path fill="none" stroke="#63b8ff" d="M804.53,-112.84C829.39,-106.5 864.29,-94.69 889,-74.5 903.65,-62.53 914.77,-43.88 921.7,-29.83"/>
<polygon fill="#63b8ff" stroke="#63b8ff" points="924.71,-31.67 925.72,-21.12 918.35,-28.73 924.71,-31.67"/>
</a>
</g>
</g>
<!-- Node30&#45;&gt;Node20 -->
<g id="edge57_Node000030_Node000020" class="edge">
<title>Node30&#45;&gt;Node20</title>
<g id="a_edge57_Node000030_Node000020"><a xlink:title=" ">
<path fill="none" stroke="#63b8ff" d="M804.52,-112.59C840.56,-103.39 893.21,-84.42 873,-55.25 854.75,-28.91 818.9,-18.09 791.3,-13.66"/>
<polygon fill="#63b8ff" stroke="#63b8ff" points="791.93,-10.22 781.55,-12.34 790.98,-17.15 791.93,-10.22"/>
</a>
</g>
</g>
<!-- Node30&#45;&gt;Node27 -->
<g id="edge54_Node000030_Node000027" class="edge">
<title>Node30&#45;&gt;Node27</title>
<g id="a_edge54_Node000030_Node000027"><a xlink:title=" ">
<path fill="none" stroke="#63b8ff" d="M804.54,-111.83C841.52,-103 904.28,-88.02 948.04,-77.57"/>
<polygon fill="#63b8ff" stroke="#63b8ff" points="948.62,-81.03 957.53,-75.3 946.99,-74.22 948.62,-81.03"/>
</a>
</g>
</g>
<!-- Node31 -->
<g id="Node000031" class="node">
<title>Node31</title>
<g id="a_Node000031"><a xlink:title=" ">
<polygon fill="#e0e0e0" stroke="#999999" points="864.38,-74.5 781.62,-74.5 781.62,-55.25 864.38,-55.25 864.38,-74.5"/>
<text xml:space="preserve" text-anchor="middle" x="823" y="-61" font-family="Helvetica,sans-Serif" font-size="10.00">unordered_map</text>
</a>
</g>
</g>
<!-- Node30&#45;&gt;Node31 -->
<g id="edge53_Node000030_Node000031" class="edge">
<title>Node30&#45;&gt;Node31</title>
<g id="a_edge53_Node000030_Node000031"><a xlink:title=" ">
<path fill="none" stroke="#63b8ff" d="M782.09,-110.33C788.86,-102.98 798.72,-92.26 807.06,-83.19"/>
<polygon fill="#63b8ff" stroke="#63b8ff" points="809.51,-85.7 813.71,-75.97 804.36,-80.96 809.51,-85.7"/>
</a>
</g>
</g>
<!-- Node32&#45;&gt;Node2 -->
<g id="edge62_Node000032_Node000002" class="edge">
<title>Node32&#45;&gt;Node2</title>
<g id="a_edge62_Node000032_Node000002"><a xlink:title=" ">
<path fill="none" stroke="#63b8ff" d="M437.01,-278.18C519.69,-267.34 681.09,-246.17 754.29,-236.57"/>
<polygon fill="#63b8ff" stroke="#63b8ff" points="754.3,-240.1 763.76,-235.33 753.39,-233.16 754.3,-240.1"/>
</a>
</g>
</g>
<!-- Node32&#45;&gt;Node6 -->
<g id="edge61_Node000032_Node000006" class="edge">
<title>Node32&#45;&gt;Node6</title>
<g id="a_edge61_Node000032_Node000006"><a xlink:title=" ">
<path fill="none" stroke="#63b8ff" d="M381.92,-275.83C378.06,-266.94 372.38,-252.91 369,-240.25 359.92,-206.28 354.58,-165.62 351.98,-141.67"/>
<polygon fill="#63b8ff" stroke="#63b8ff" points="355.46,-141.32 350.96,-131.73 348.5,-142.03 355.46,-141.32"/>
</a>
</g>
</g>
<!-- Node33 -->
<g id="Node000033" class="node">
<title>Node33</title>
<g id="a_Node000033"><a xlink:title=" ">
<polygon fill="#e0e0e0" stroke="#999999" points="468.12,-240.25 377.88,-240.25 377.88,-221 468.12,-221 468.12,-240.25"/>
<text xml:space="preserve" text-anchor="middle" x="423" y="-226.75" font-family="Helvetica,sans-Serif" font-size="10.00">kernels/kernels.h</text>
</a>
</g>
</g>
<!-- Node32&#45;&gt;Node33 -->
<g id="edge63_Node000032_Node000033" class="edge">
<title>Node32&#45;&gt;Node33</title>
<g id="a_edge63_Node000032_Node000033"><a xlink:title=" ">
<path fill="none" stroke="#63b8ff" d="M392.11,-276.08C397.06,-268.96 404.2,-258.68 410.37,-249.8"/>
<polygon fill="#63b8ff" stroke="#63b8ff" points="413.06,-252.06 415.89,-241.85 407.31,-248.07 413.06,-252.06"/>
</a>
</g>
</g>
</g>
</svg>
